999
"DXF R12 Output" (www.mydxf.blogspot.com)
 0 
SECTION
 2 
HEADER
 9 
$ACADVER
 1 
AC1009
 9 
$EXTMIN
 10 
 0 
 20 
 0 
 9 
$EXTMAX
 10 
 8.5 
 20 
 11 
 0 
ENDSEC
 0 
SECTION
 2 
ENTITIES
0
LINE
8
Calque 1
10
948.312000
20
650.000000
11
948.312000
21
0.000190
0
LINE
8
Calque 1
10
948.312000
20
0.000190
11
1748.310000
21
0.000190
0
LINE
8
Calque 1
10
1748.310000
20
0.000190
11
1748.310000
21
650.000000
0
LINE
8
Calque 1
10
1748.310000
20
650.000000
11
948.312000
21
650.000000
0
LINE
8
Calque 1
10
981.280000
20
434.153000
11
982.058552
21
433.995750
0
LINE
8
Calque 1
10
982.058552
20
433.995750
11
982.694277
21
433.567025
0
LINE
8
Calque 1
10
982.694277
20
433.567025
11
983.122834
21
432.931184
0
LINE
8
Calque 1
10
983.122834
20
432.931184
11
983.279880
21
432.152590
0
LINE
8
Calque 1
10
983.279880
20
432.152590
11
983.122682
21
431.374168
0
LINE
8
Calque 1
10
983.122682
20
431.374168
11
982.694090
21
430.738500
0
LINE
8
Calque 1
10
982.694090
20
430.738500
11
982.058423
21
430.309908
0
LINE
8
Calque 1
10
982.058423
20
430.309908
11
981.280000
21
430.152710
0
LINE
8
Calque 1
10
981.280000
20
430.152710
11
980.501411
21
430.309755
0
LINE
8
Calque 1
10
980.501411
20
430.309755
11
979.865581
21
430.738312
0
LINE
8
Calque 1
10
979.865581
20
430.738312
11
979.436866
21
431.374038
0
LINE
8
Calque 1
10
979.436866
20
431.374038
11
979.279620
21
432.152590
0
LINE
8
Calque 1
10
979.279620
20
432.152590
11
979.436714
21
432.931301
0
LINE
8
Calque 1
10
979.436714
20
432.931301
11
979.865394
21
433.567200
0
LINE
8
Calque 1
10
979.865394
20
433.567200
11
980.501281
21
433.995897
0
LINE
8
Calque 1
10
980.501281
20
433.995897
11
981.280000
21
434.153000
0
LINE
8
Calque 1
10
981.280000
20
434.153000
11
981.280000
21
434.153000
0
LINE
8
Calque 1
10
1729.204000
20
422.528900
11
1729.982595
21
422.371702
0
LINE
8
Calque 1
10
1729.982595
20
422.371702
11
1730.618491
21
421.943109
0
LINE
8
Calque 1
10
1730.618491
20
421.943109
11
1731.047269
21
421.307442
0
LINE
8
Calque 1
10
1731.047269
20
421.307442
11
1731.204510
21
420.529020
0
LINE
8
Calque 1
10
1731.204510
20
420.529020
11
1731.047269
21
419.750597
0
LINE
8
Calque 1
10
1731.047269
20
419.750597
11
1730.618491
21
419.114930
0
LINE
8
Calque 1
10
1730.618491
20
419.114930
11
1729.982595
21
418.686337
0
LINE
8
Calque 1
10
1729.982595
20
418.686337
11
1729.204000
21
418.529140
0
LINE
8
Calque 1
10
1729.204000
20
418.529140
11
1728.425720
21
418.686337
0
LINE
8
Calque 1
10
1728.425720
20
418.686337
11
1727.790266
21
419.114930
0
LINE
8
Calque 1
10
1727.790266
20
419.114930
11
1727.361881
21
419.750598
0
LINE
8
Calque 1
10
1727.361881
20
419.750598
11
1727.204810
21
420.529020
0
LINE
8
Calque 1
10
1727.204810
20
420.529020
11
1727.361881
21
421.307438
0
LINE
8
Calque 1
10
1727.361881
20
421.307438
11
1727.790266
21
421.943106
0
LINE
8
Calque 1
10
1727.790266
20
421.943106
11
1728.425720
21
422.371701
0
LINE
8
Calque 1
10
1728.425720
20
422.371701
11
1729.204000
21
422.528900
0
LINE
8
Calque 1
10
1729.204000
20
422.528900
11
1729.204000
21
422.528900
0
LINE
8
Calque 1
10
1630.793400
20
420.486660
11
1631.571720
21
420.329463
0
LINE
8
Calque 1
10
1631.571720
20
420.329463
11
1632.207264
21
419.900870
0
LINE
8
Calque 1
10
1632.207264
20
419.900870
11
1632.635738
21
419.265202
0
LINE
8
Calque 1
10
1632.635738
20
419.265202
11
1632.792850
21
418.486780
0
LINE
8
Calque 1
10
1632.792850
20
418.486780
11
1632.635775
21
417.708186
0
LINE
8
Calque 1
10
1632.635775
20
417.708186
11
1632.207361
21
417.072346
0
LINE
8
Calque 1
10
1632.207361
20
417.072346
11
1631.571830
21
416.643621
0
LINE
8
Calque 1
10
1631.571830
20
416.643621
11
1630.793400
21
416.486370
0
LINE
8
Calque 1
10
1630.793400
20
416.486370
11
1630.014886
21
416.643609
0
LINE
8
Calque 1
10
1630.014886
20
416.643609
11
1629.379199
21
417.072336
0
LINE
8
Calque 1
10
1629.379199
20
417.072336
11
1628.950682
21
417.708182
0
LINE
8
Calque 1
10
1628.950682
20
417.708182
11
1628.793680
21
418.486780
0
LINE
8
Calque 1
10
1628.793680
20
418.486780
11
1628.950796
21
419.265201
0
LINE
8
Calque 1
10
1628.950796
20
419.265201
11
1629.379300
21
419.900874
0
LINE
8
Calque 1
10
1629.379300
20
419.900874
11
1630.014924
21
420.329470
0
LINE
8
Calque 1
10
1630.014924
20
420.329470
11
1630.793400
21
420.486660
0
LINE
8
Calque 1
10
1630.793400
20
420.486660
11
1630.793400
21
420.486660
0
LINE
8
Calque 1
10
1068.373400
20
417.989130
11
1069.151995
21
417.831932
0
LINE
8
Calque 1
10
1069.151995
20
417.831932
11
1069.787891
21
417.403339
0
LINE
8
Calque 1
10
1069.787891
20
417.403339
11
1070.216669
21
416.767672
0
LINE
8
Calque 1
10
1070.216669
20
416.767672
11
1070.373910
21
415.989250
0
LINE
8
Calque 1
10
1070.373910
20
415.989250
11
1070.216669
21
415.210827
0
LINE
8
Calque 1
10
1070.216669
20
415.210827
11
1069.787891
21
414.575160
0
LINE
8
Calque 1
10
1069.787891
20
414.575160
11
1069.151995
21
414.146568
0
LINE
8
Calque 1
10
1069.151995
20
414.146568
11
1068.373400
21
413.989370
0
LINE
8
Calque 1
10
1068.373400
20
413.989370
11
1067.594924
21
414.146415
0
LINE
8
Calque 1
10
1067.594924
20
414.146415
11
1066.959300
21
414.574972
0
LINE
8
Calque 1
10
1066.959300
20
414.574972
11
1066.530796
21
415.210698
0
LINE
8
Calque 1
10
1066.530796
20
415.210698
11
1066.373680
21
415.989250
0
LINE
8
Calque 1
10
1066.373680
20
415.989250
11
1066.530796
21
416.767802
0
LINE
8
Calque 1
10
1066.530796
20
416.767802
11
1066.959300
21
417.403527
0
LINE
8
Calque 1
10
1066.959300
20
417.403527
11
1067.594924
21
417.832084
0
LINE
8
Calque 1
10
1067.594924
20
417.832084
11
1068.373400
21
417.989130
0
LINE
8
Calque 1
10
1068.373400
20
417.989130
11
1068.373400
21
417.989130
0
LINE
8
Calque 1
10
1157.435700
20
368.291430
11
1158.214217
21
368.134389
0
LINE
8
Calque 1
10
1158.214217
20
368.134389
11
1158.849960
21
367.705833
0
LINE
8
Calque 1
10
1158.849960
20
367.705833
11
1159.278636
21
367.070108
0
LINE
8
Calque 1
10
1159.278636
20
367.070108
11
1159.435950
21
366.291560
0
LINE
8
Calque 1
10
1159.435950
20
366.291560
11
1159.278750
21
365.513012
0
LINE
8
Calque 1
10
1159.278750
20
365.513012
11
1158.850061
21
364.877286
0
LINE
8
Calque 1
10
1158.850061
20
364.877286
11
1158.214255
21
364.448727
0
LINE
8
Calque 1
10
1158.214255
20
364.448727
11
1157.435700
21
364.291680
0
LINE
8
Calque 1
10
1157.435700
20
364.291680
11
1156.657251
21
364.448879
0
LINE
8
Calque 1
10
1156.657251
20
364.448879
11
1156.021404
21
364.877474
0
LINE
8
Calque 1
10
1156.021404
20
364.877474
11
1155.592577
21
365.513142
0
LINE
8
Calque 1
10
1155.592577
20
365.513142
11
1155.435190
21
366.291560
0
LINE
8
Calque 1
10
1155.435190
20
366.291560
11
1155.592468
21
367.069978
0
LINE
8
Calque 1
10
1155.592468
20
367.069978
11
1156.021306
21
367.705645
0
LINE
8
Calque 1
10
1156.021306
20
367.705645
11
1156.657214
21
368.134237
0
LINE
8
Calque 1
10
1156.657214
20
368.134237
11
1157.435700
21
368.291430
0
LINE
8
Calque 1
10
1157.435700
20
368.291430
11
1157.435700
21
368.291430
0
LINE
8
Calque 1
10
1510.731700
20
356.974330
11
1511.510218
21
356.817283
0
LINE
8
Calque 1
10
1511.510218
20
356.817283
11
1512.145935
21
356.388724
0
LINE
8
Calque 1
10
1512.145935
20
356.388724
11
1512.574532
21
355.752998
0
LINE
8
Calque 1
10
1512.574532
20
355.752998
11
1512.731690
21
354.974450
0
LINE
8
Calque 1
10
1512.731690
20
354.974450
11
1512.574568
21
354.195733
0
LINE
8
Calque 1
10
1512.574568
20
354.195733
11
1512.146033
21
353.559838
0
LINE
8
Calque 1
10
1512.146033
20
353.559838
11
1511.510328
21
353.131149
0
LINE
8
Calque 1
10
1511.510328
20
353.131149
11
1510.731700
21
352.974050
0
LINE
8
Calque 1
10
1510.731700
20
352.974050
11
1509.953191
21
353.131301
0
LINE
8
Calque 1
10
1509.953191
20
353.131301
11
1509.317506
21
353.560025
0
LINE
8
Calque 1
10
1509.317506
20
353.560025
11
1508.888988
21
354.195862
0
LINE
8
Calque 1
10
1508.888988
20
354.195862
11
1508.731980
21
354.974450
0
LINE
8
Calque 1
10
1508.731980
20
354.974450
11
1508.889098
21
355.752868
0
LINE
8
Calque 1
10
1508.889098
20
355.752868
11
1509.317604
21
356.388536
0
LINE
8
Calque 1
10
1509.317604
20
356.388536
11
1509.953228
21
356.817131
0
LINE
8
Calque 1
10
1509.953228
20
356.817131
11
1510.731700
21
356.974330
0
LINE
8
Calque 1
10
1510.731700
20
356.974330
11
1510.731700
21
356.974330
0
LINE
8
Calque 1
10
1248.957700
20
299.060030
11
1249.736022
21
298.902833
0
LINE
8
Calque 1
10
1249.736022
20
298.902833
11
1250.371569
21
298.474240
0
LINE
8
Calque 1
10
1250.371569
20
298.474240
11
1250.800046
21
297.838573
0
LINE
8
Calque 1
10
1250.800046
20
297.838573
11
1250.957160
21
297.060150
0
LINE
8
Calque 1
10
1250.957160
20
297.060150
11
1250.800046
21
296.281732
0
LINE
8
Calque 1
10
1250.800046
20
296.281732
11
1250.371569
21
295.646064
0
LINE
8
Calque 1
10
1250.371569
20
295.646064
11
1249.736022
21
295.217469
0
LINE
8
Calque 1
10
1249.736022
20
295.217469
11
1248.957700
21
295.060270
0
LINE
8
Calque 1
10
1248.957700
20
295.060270
11
1248.179230
21
295.217469
0
LINE
8
Calque 1
10
1248.179230
20
295.217469
11
1247.543609
21
295.646064
0
LINE
8
Calque 1
10
1247.543609
20
295.646064
11
1247.115106
21
296.281732
0
LINE
8
Calque 1
10
1247.115106
20
296.281732
11
1246.957990
21
297.060150
0
LINE
8
Calque 1
10
1246.957990
20
297.060150
11
1247.115106
21
297.838573
0
LINE
8
Calque 1
10
1247.115106
20
297.838573
11
1247.543609
21
298.474240
0
LINE
8
Calque 1
10
1247.543609
20
298.474240
11
1248.179230
21
298.902833
0
LINE
8
Calque 1
10
1248.179230
20
298.902833
11
1248.957700
21
299.060030
0
LINE
8
Calque 1
10
1248.957700
20
299.060030
11
1248.957700
21
299.060030
0
LINE
8
Calque 1
10
1413.796700
20
287.705630
11
1414.575140
21
287.548437
0
LINE
8
Calque 1
10
1414.575140
20
287.548437
11
1415.210702
21
287.119845
0
LINE
8
Calque 1
10
1415.210702
20
287.119845
11
1415.639194
21
286.484178
0
LINE
8
Calque 1
10
1415.639194
20
286.484178
11
1415.796420
21
285.705760
0
LINE
8
Calque 1
10
1415.796420
20
285.705760
11
1415.639304
21
284.927338
0
LINE
8
Calque 1
10
1415.639304
20
284.927338
11
1415.210800
21
284.291670
0
LINE
8
Calque 1
10
1415.210800
20
284.291670
11
1414.575176
21
283.863078
0
LINE
8
Calque 1
10
1414.575176
20
283.863078
11
1413.796700
21
283.705880
0
LINE
8
Calque 1
10
1413.796700
20
283.705880
11
1413.018105
21
283.862926
0
LINE
8
Calque 1
10
1413.018105
20
283.862926
11
1412.382209
21
284.291483
0
LINE
8
Calque 1
10
1412.382209
20
284.291483
11
1411.953431
21
284.927208
0
LINE
8
Calque 1
10
1411.953431
20
284.927208
11
1411.796190
21
285.705760
0
LINE
8
Calque 1
10
1411.796190
20
285.705760
11
1411.953431
21
286.484308
0
LINE
8
Calque 1
10
1411.953431
20
286.484308
11
1412.382209
21
287.120033
0
LINE
8
Calque 1
10
1412.382209
20
287.120033
11
1413.018105
21
287.548589
0
LINE
8
Calque 1
10
1413.018105
20
287.548589
11
1413.796700
21
287.705630
0
LINE
8
Calque 1
10
1413.796700
20
287.705630
11
1413.796700
21
287.705630
0
LINE
8
Calque 1
10
1330.146400
20
269.917530
11
1330.925142
21
269.760281
0
LINE
8
Calque 1
10
1330.925142
20
269.760281
11
1331.561086
21
269.331560
0
LINE
8
Calque 1
10
1331.561086
20
269.331560
11
1331.989815
21
268.695727
0
LINE
8
Calque 1
10
1331.989815
20
268.695727
11
1332.146910
21
267.917140
0
LINE
8
Calque 1
10
1332.146910
20
267.917140
11
1331.989669
21
267.138718
0
LINE
8
Calque 1
10
1331.989669
20
267.138718
11
1331.560891
21
266.503050
0
LINE
8
Calque 1
10
1331.560891
20
266.503050
11
1330.924995
21
266.074458
0
LINE
8
Calque 1
10
1330.924995
20
266.074458
11
1330.146400
21
265.917260
0
LINE
8
Calque 1
10
1330.146400
20
265.917260
11
1329.368120
21
266.074458
0
LINE
8
Calque 1
10
1329.368120
20
266.074458
11
1328.732666
21
266.503050
0
LINE
8
Calque 1
10
1328.732666
20
266.503050
11
1328.304281
21
267.138718
0
LINE
8
Calque 1
10
1328.304281
20
267.138718
11
1328.147210
21
267.917140
0
LINE
8
Calque 1
10
1328.147210
20
267.917140
11
1328.304243
21
268.695727
0
LINE
8
Calque 1
10
1328.304243
20
268.695727
11
1328.732565
21
269.331560
0
LINE
8
Calque 1
10
1328.732565
20
269.331560
11
1329.368007
21
269.760281
0
LINE
8
Calque 1
10
1329.368007
20
269.760281
11
1330.146400
21
269.917530
0
LINE
8
Calque 1
10
1330.146400
20
269.917530
11
1330.146400
21
269.917530
0
LINE
8
Calque 1
10
968.962400
20
230.682230
11
969.740952
21
230.524981
0
LINE
8
Calque 1
10
969.740952
20
230.524981
11
970.376677
21
230.096260
0
LINE
8
Calque 1
10
970.376677
20
230.096260
11
970.805234
21
229.460427
0
LINE
8
Calque 1
10
970.805234
20
229.460427
11
970.962280
21
228.681840
0
LINE
8
Calque 1
10
970.962280
20
228.681840
11
970.805082
21
227.903418
0
LINE
8
Calque 1
10
970.805082
20
227.903418
11
970.376490
21
227.267750
0
LINE
8
Calque 1
10
970.376490
20
227.267750
11
969.740822
21
226.839158
0
LINE
8
Calque 1
10
969.740822
20
226.839158
11
968.962400
21
226.681960
0
LINE
8
Calque 1
10
968.962400
20
226.681960
11
968.183979
21
226.839158
0
LINE
8
Calque 1
10
968.183979
20
226.839158
11
967.548306
21
227.267750
0
LINE
8
Calque 1
10
967.548306
20
227.267750
11
967.119710
21
227.903418
0
LINE
8
Calque 1
10
967.119710
20
227.903418
11
966.962520
21
228.681840
0
LINE
8
Calque 1
10
966.962520
20
228.681840
11
967.119557
21
229.460427
0
LINE
8
Calque 1
10
967.119557
20
229.460427
11
967.548115
21
230.096260
0
LINE
8
Calque 1
10
967.548115
20
230.096260
11
968.183845
21
230.524981
0
LINE
8
Calque 1
10
968.183845
20
230.524981
11
968.962400
21
230.682230
0
LINE
8
Calque 1
10
968.962400
20
230.682230
11
968.962400
21
230.682230
0
LINE
8
Calque 1
10
1732.649400
20
213.637230
11
1733.427757
21
213.480031
0
LINE
8
Calque 1
10
1733.427757
20
213.480031
11
1734.063390
21
213.051436
0
LINE
8
Calque 1
10
1734.063390
20
213.051436
11
1734.491956
21
212.415768
0
LINE
8
Calque 1
10
1734.491956
20
212.415768
11
1734.649110
21
211.637350
0
LINE
8
Calque 1
10
1734.649110
20
211.637350
11
1734.491956
21
210.858928
0
LINE
8
Calque 1
10
1734.491956
20
210.858928
11
1734.063390
21
210.223253
0
LINE
8
Calque 1
10
1734.063390
20
210.223253
11
1733.427757
21
209.794656
0
LINE
8
Calque 1
10
1733.427757
20
209.794656
11
1732.649400
21
209.637470
0
LINE
8
Calque 1
10
1732.649400
20
209.637470
11
1731.870716
21
209.794520
0
LINE
8
Calque 1
10
1731.870716
20
209.794520
11
1731.234635
21
210.223084
0
LINE
8
Calque 1
10
1731.234635
20
210.223084
11
1730.805674
21
210.858811
0
LINE
8
Calque 1
10
1730.805674
20
210.858811
11
1730.648350
21
211.637350
0
LINE
8
Calque 1
10
1730.648350
20
211.637350
11
1730.805674
21
212.415889
0
LINE
8
Calque 1
10
1730.805674
20
212.415889
11
1731.234635
21
213.051616
0
LINE
8
Calque 1
10
1731.234635
20
213.051616
11
1731.870716
21
213.480180
0
LINE
8
Calque 1
10
1731.870716
20
213.480180
11
1732.649400
21
213.637230
0
LINE
8
Calque 1
10
1732.649400
20
213.637230
11
1732.649400
21
213.637230
0
LINE
8
Calque 1
10
1083.627400
20
185.813130
11
1084.405986
21
185.656034
0
LINE
8
Calque 1
10
1084.405986
20
185.656034
11
1085.041597
21
185.227344
0
LINE
8
Calque 1
10
1085.041597
20
185.227344
11
1085.470040
21
184.591449
0
LINE
8
Calque 1
10
1085.470040
20
184.591449
11
1085.627120
21
183.812740
0
LINE
8
Calque 1
10
1085.627120
20
183.812740
11
1085.470004
21
183.034188
0
LINE
8
Calque 1
10
1085.470004
20
183.034188
11
1085.041500
21
182.398463
0
LINE
8
Calque 1
10
1085.041500
20
182.398463
11
1084.405876
21
181.969906
0
LINE
8
Calque 1
10
1084.405876
20
181.969906
11
1083.627400
21
181.812860
0
LINE
8
Calque 1
10
1083.627400
20
181.812860
11
1082.848887
21
181.970059
0
LINE
8
Calque 1
10
1082.848887
20
181.970059
11
1082.213174
21
182.398654
0
LINE
8
Calque 1
10
1082.213174
20
182.398654
11
1081.784578
21
183.034322
0
LINE
8
Calque 1
10
1081.784578
20
183.034322
11
1081.627420
21
183.812740
0
LINE
8
Calque 1
10
1081.627420
20
183.812740
11
1081.784578
21
184.591328
0
LINE
8
Calque 1
10
1081.784578
20
184.591328
11
1082.213174
21
185.227164
0
LINE
8
Calque 1
10
1082.213174
20
185.227164
11
1082.848887
21
185.655885
0
LINE
8
Calque 1
10
1082.848887
20
185.655885
11
1083.627400
21
185.813130
0
LINE
8
Calque 1
10
1083.627400
20
185.813130
11
1083.627400
21
185.813130
0
LINE
8
Calque 1
10
1590.408400
20
170.373730
11
1591.186789
21
170.216481
0
LINE
8
Calque 1
10
1591.186789
20
170.216481
11
1591.822231
21
169.787759
0
LINE
8
Calque 1
10
1591.822231
20
169.787759
11
1592.250555
21
169.151922
0
LINE
8
Calque 1
10
1592.250555
20
169.151922
11
1592.407590
21
168.373330
0
LINE
8
Calque 1
10
1592.407590
20
168.373330
11
1592.250519
21
167.594912
0
LINE
8
Calque 1
10
1592.250519
20
167.594912
11
1591.822134
21
166.959244
0
LINE
8
Calque 1
10
1591.822134
20
166.959244
11
1591.186680
21
166.530649
0
LINE
8
Calque 1
10
1591.186680
20
166.530649
11
1590.408400
21
166.373450
0
LINE
8
Calque 1
10
1590.408400
20
166.373450
11
1589.629882
21
166.530649
0
LINE
8
Calque 1
10
1589.629882
20
166.530649
11
1588.994165
21
166.959244
0
LINE
8
Calque 1
10
1588.994165
20
166.959244
11
1588.565568
21
167.594912
0
LINE
8
Calque 1
10
1588.565568
20
167.594912
11
1588.408410
21
168.373330
0
LINE
8
Calque 1
10
1588.408410
20
168.373330
11
1588.565568
21
169.151922
0
LINE
8
Calque 1
10
1588.565568
20
169.151922
11
1588.994165
21
169.787759
0
LINE
8
Calque 1
10
1588.994165
20
169.787759
11
1589.629882
21
170.216481
0
LINE
8
Calque 1
10
1589.629882
20
170.216481
11
1590.408400
21
170.373730
0
LINE
8
Calque 1
10
1590.408400
20
170.373730
11
1590.408400
21
170.373730
0
LINE
8
Calque 1
10
1243.053400
20
150.802830
11
1243.831913
21
150.645577
0
LINE
8
Calque 1
10
1243.831913
20
150.645577
11
1244.467626
21
150.216848
0
LINE
8
Calque 1
10
1244.467626
20
150.216848
11
1244.896222
21
149.581010
0
LINE
8
Calque 1
10
1244.896222
20
149.581010
11
1245.053380
21
148.802430
0
LINE
8
Calque 1
10
1245.053380
20
148.802430
11
1244.896222
21
148.024013
0
LINE
8
Calque 1
10
1244.896222
20
148.024013
11
1244.467626
21
147.388349
0
LINE
8
Calque 1
10
1244.467626
20
147.388349
11
1243.831913
21
146.959757
0
LINE
8
Calque 1
10
1243.831913
20
146.959757
11
1243.053400
21
146.802560
0
LINE
8
Calque 1
10
1243.053400
20
146.802560
11
1242.274997
21
146.959757
0
LINE
8
Calque 1
10
1242.274997
20
146.959757
11
1241.639271
21
147.388349
0
LINE
8
Calque 1
10
1241.639271
20
147.388349
11
1241.210615
21
148.024013
0
LINE
8
Calque 1
10
1241.210615
20
148.024013
11
1241.053420
21
148.802430
0
LINE
8
Calque 1
10
1241.053420
20
148.802430
11
1241.210578
21
149.581010
0
LINE
8
Calque 1
10
1241.210578
20
149.581010
11
1241.639174
21
150.216848
0
LINE
8
Calque 1
10
1241.639174
20
150.216848
11
1242.274887
21
150.645577
0
LINE
8
Calque 1
10
1242.274887
20
150.645577
11
1243.053400
21
150.802830
0
LINE
8
Calque 1
10
1243.053400
20
150.802830
11
1243.053400
21
150.802830
0
LINE
8
Calque 1
10
1420.193400
20
144.368600
11
1420.971762
21
144.211401
0
LINE
8
Calque 1
10
1420.971762
20
144.211401
11
1421.607399
21
143.782806
0
LINE
8
Calque 1
10
1421.607399
20
143.782806
11
1422.035966
21
143.147138
0
LINE
8
Calque 1
10
1422.035966
20
143.147138
11
1422.193120
21
142.368720
0
LINE
8
Calque 1
10
1422.193120
20
142.368720
11
1422.035966
21
141.590302
0
LINE
8
Calque 1
10
1422.035966
20
141.590302
11
1421.607399
21
140.954634
0
LINE
8
Calque 1
10
1421.607399
20
140.954634
11
1420.971762
21
140.526039
0
LINE
8
Calque 1
10
1420.971762
20
140.526039
11
1420.193400
21
140.368840
0
LINE
8
Calque 1
10
1420.193400
20
140.368840
11
1419.414951
21
140.526039
0
LINE
8
Calque 1
10
1419.414951
20
140.526039
11
1418.779104
21
140.954634
0
LINE
8
Calque 1
10
1418.779104
20
140.954634
11
1418.350277
21
141.590302
0
LINE
8
Calque 1
10
1418.350277
20
141.590302
11
1418.192890
21
142.368720
0
LINE
8
Calque 1
10
1418.192890
20
142.368720
11
1418.350168
21
143.147138
0
LINE
8
Calque 1
10
1418.350168
20
143.147138
11
1418.779006
21
143.782806
0
LINE
8
Calque 1
10
1418.779006
20
143.782806
11
1419.414914
21
144.211401
0
LINE
8
Calque 1
10
1419.414914
20
144.211401
11
1420.193400
21
144.368600
0
LINE
8
Calque 1
10
1420.193400
20
144.368600
11
1420.193400
21
144.368600
0
LINE
8
Calque 1
10
171.237000
20
375.385000
11
163.196615
21
375.322521
0
LINE
8
Calque 1
10
163.196615
20
375.322521
11
156.093186
21
374.947370
0
LINE
8
Calque 1
10
156.093186
20
374.947370
11
149.948198
21
374.351981
0
LINE
8
Calque 1
10
149.948198
20
374.351981
11
144.783138
21
373.628790
0
LINE
8
Calque 1
10
144.783138
20
373.628790
11
140.619491
21
372.870230
0
LINE
8
Calque 1
10
140.619491
20
372.870230
11
137.478745
21
372.168737
0
LINE
8
Calque 1
10
137.478745
20
372.168737
11
134.351900
21
371.306690
0
LINE
8
Calque 1
10
134.351900
20
371.306690
11
134.352000
21
348.707000
0
LINE
8
Calque 1
10
134.352000
20
348.707000
11
135.134370
21
348.974170
0
LINE
8
Calque 1
10
135.134370
20
348.974170
11
136.193461
21
349.299531
0
LINE
8
Calque 1
10
136.193461
20
349.299531
11
139.325779
21
350.104983
0
LINE
8
Calque 1
10
139.325779
20
350.104983
11
144.463893
21
351.134582
0
LINE
8
Calque 1
10
144.463893
20
351.134582
11
151.540370
21
352.132385
0
LINE
8
Calque 1
10
151.540370
20
352.132385
11
155.784422
21
352.539380
0
LINE
8
Calque 1
10
155.784422
20
352.539380
11
160.487778
21
352.842446
0
LINE
8
Calque 1
10
160.487778
20
352.842446
11
165.642009
21
353.009591
0
LINE
8
Calque 1
10
165.642009
20
353.009591
11
171.238686
21
353.008822
0
LINE
8
Calque 1
10
171.238686
20
353.008822
11
177.269379
21
352.808145
0
LINE
8
Calque 1
10
177.269379
20
352.808145
11
183.725660
21
352.375568
0
LINE
8
Calque 1
10
183.725660
20
352.375568
11
190.599100
21
351.679097
0
LINE
8
Calque 1
10
190.599100
20
351.679097
11
197.881270
21
350.686740
0
LINE
8
Calque 1
10
197.881270
20
350.686740
11
205.561265
21
349.365511
0
LINE
8
Calque 1
10
205.561265
20
349.365511
11
213.627341
21
347.682055
0
LINE
8
Calque 1
10
213.627341
20
347.682055
11
222.070090
21
345.603738
0
LINE
8
Calque 1
10
222.070090
20
345.603738
11
230.880103
21
343.097923
0
LINE
8
Calque 1
10
230.880103
20
343.097923
11
240.047972
21
340.131975
0
LINE
8
Calque 1
10
240.047972
20
340.131975
11
249.564289
21
336.673258
0
LINE
8
Calque 1
10
249.564289
20
336.673258
11
259.419645
21
332.689137
0
LINE
8
Calque 1
10
259.419645
20
332.689137
11
269.604632
21
328.146975
0
LINE
8
Calque 1
10
269.604632
20
328.146975
11
280.109843
21
323.014137
0
LINE
8
Calque 1
10
280.109843
20
323.014137
11
290.925869
21
317.257987
0
LINE
8
Calque 1
10
290.925869
20
317.257987
11
302.043301
21
310.845890
0
LINE
8
Calque 1
10
302.043301
20
310.845890
11
313.452731
21
303.745209
0
LINE
8
Calque 1
10
313.452731
20
303.745209
11
325.144751
21
295.923310
0
LINE
8
Calque 1
10
325.144751
20
295.923310
11
337.109953
21
287.347556
0
LINE
8
Calque 1
10
337.109953
20
287.347556
11
349.338929
21
277.985311
0
LINE
8
Calque 1
10
349.338929
20
277.985311
11
361.822270
21
267.803940
0
LINE
8
Calque 1
10
361.822270
20
267.803940
11
374.313821
21
257.507010
0
LINE
8
Calque 1
10
374.313821
20
257.507010
11
386.438899
21
247.942507
0
LINE
8
Calque 1
10
386.438899
20
247.942507
11
398.220249
21
239.105197
0
LINE
8
Calque 1
10
398.220249
20
239.105197
11
409.680615
21
230.989846
0
LINE
8
Calque 1
10
409.680615
20
230.989846
11
420.842742
21
223.591221
0
LINE
8
Calque 1
10
420.842742
20
223.591221
11
431.729374
21
216.904088
0
LINE
8
Calque 1
10
431.729374
20
216.904088
11
442.363256
21
210.923214
0
LINE
8
Calque 1
10
442.363256
20
210.923214
11
452.767133
21
205.643365
0
LINE
8
Calque 1
10
452.767133
20
205.643365
11
462.963747
21
201.059307
0
LINE
8
Calque 1
10
462.963747
20
201.059307
11
472.975845
21
197.165807
0
LINE
8
Calque 1
10
472.975845
20
197.165807
11
477.919808
21
195.476381
0
LINE
8
Calque 1
10
477.919808
20
195.476381
11
482.826171
21
193.957631
0
LINE
8
Calque 1
10
482.826171
20
193.957631
11
487.697777
21
192.608905
0
LINE
8
Calque 1
10
487.697777
20
192.608905
11
492.537468
21
191.429546
0
LINE
8
Calque 1
10
492.537468
20
191.429546
11
497.348089
21
190.418902
0
LINE
8
Calque 1
10
497.348089
20
190.418902
11
502.132483
21
189.576318
0
LINE
8
Calque 1
10
502.132483
20
189.576318
11
506.893491
21
188.901140
0
LINE
8
Calque 1
10
506.893491
20
188.901140
11
511.633958
21
188.392713
0
LINE
8
Calque 1
10
511.633958
20
188.392713
11
516.356726
21
188.050384
0
LINE
8
Calque 1
10
516.356726
20
188.050384
11
521.064639
21
187.873499
0
LINE
8
Calque 1
10
521.064639
20
187.873499
11
525.760539
21
187.861402
0
LINE
8
Calque 1
10
525.760539
20
187.861402
11
530.447270
21
188.013440
0
LINE
8
Calque 1
10
530.447270
20
188.013440
11
535.125842
21
188.328646
0
LINE
8
Calque 1
10
535.125842
20
188.328646
11
539.797199
21
188.805892
0
LINE
8
Calque 1
10
539.797199
20
188.805892
11
544.464225
21
189.444297
0
LINE
8
Calque 1
10
544.464225
20
189.444297
11
549.129801
21
190.242981
0
LINE
8
Calque 1
10
549.129801
20
190.242981
11
553.796813
21
191.201064
0
LINE
8
Calque 1
10
553.796813
20
191.201064
11
558.468141
21
192.317664
0
LINE
8
Calque 1
10
558.468141
20
192.317664
11
567.835284
21
195.022900
0
LINE
8
Calque 1
10
567.835284
20
195.022900
11
577.254295
21
198.351645
0
LINE
8
Calque 1
10
577.254295
20
198.351645
11
586.748238
21
202.296857
0
LINE
8
Calque 1
10
586.748238
20
202.296857
11
596.340179
21
206.851493
0
LINE
8
Calque 1
10
596.340179
20
206.851493
11
606.053183
21
212.008512
0
LINE
8
Calque 1
10
606.053183
20
212.008512
11
615.910314
21
217.760872
0
LINE
8
Calque 1
10
615.910314
20
217.760872
11
625.934638
21
224.101528
0
LINE
8
Calque 1
10
625.934638
20
224.101528
11
636.149220
21
231.023440
0
LINE
8
Calque 1
10
636.149220
20
231.023440
11
646.577125
21
238.519564
0
LINE
8
Calque 1
10
646.577125
20
238.519564
11
657.241417
21
246.582859
0
LINE
8
Calque 1
10
657.241417
20
246.582859
11
668.165162
21
255.206281
0
LINE
8
Calque 1
10
668.165162
20
255.206281
11
679.371425
21
264.382789
0
LINE
8
Calque 1
10
679.371425
20
264.382789
11
690.883270
21
274.105340
0
LINE
8
Calque 1
10
690.883270
20
274.105340
11
696.668482
21
278.959299
0
LINE
8
Calque 1
10
696.668482
20
278.959299
11
702.430374
21
283.599462
0
LINE
8
Calque 1
10
702.430374
20
283.599462
11
713.875534
21
292.256043
0
LINE
8
Calque 1
10
713.875534
20
292.256043
11
725.201418
21
300.110376
0
LINE
8
Calque 1
10
725.201418
20
300.110376
11
736.390695
21
307.197754
0
LINE
8
Calque 1
10
736.390695
20
307.197754
11
747.426035
21
313.553470
0
LINE
8
Calque 1
10
747.426035
20
313.553470
11
758.290106
21
319.212818
0
LINE
8
Calque 1
10
758.290106
20
319.212818
11
768.965578
21
324.211089
0
LINE
8
Calque 1
10
768.965578
20
324.211089
11
779.435120
21
328.583578
0
LINE
8
Calque 1
10
779.435120
20
328.583578
11
789.681401
21
332.365575
0
LINE
8
Calque 1
10
789.681401
20
332.365575
11
799.687090
21
335.592376
0
LINE
8
Calque 1
10
799.687090
20
335.592376
11
809.434857
21
338.299272
0
LINE
8
Calque 1
10
809.434857
20
338.299272
11
818.907370
21
340.521557
0
LINE
8
Calque 1
10
818.907370
20
340.521557
11
828.087299
21
342.294523
0
LINE
8
Calque 1
10
828.087299
20
342.294523
11
836.957312
21
343.653464
0
LINE
8
Calque 1
10
836.957312
20
343.653464
11
845.500080
21
344.633672
0
LINE
8
Calque 1
10
845.500080
20
344.633672
11
853.698270
21
345.270440
0
LINE
8
Calque 1
10
853.698270
20
345.270440
11
861.532649
21
345.599252
0
LINE
8
Calque 1
10
861.532649
20
345.599252
11
868.984046
21
345.655186
0
LINE
8
Calque 1
10
868.984046
20
345.655186
11
876.035564
21
345.472968
0
LINE
8
Calque 1
10
876.035564
20
345.472968
11
882.670304
21
345.087323
0
LINE
8
Calque 1
10
882.670304
20
345.087323
11
888.871370
21
344.532975
0
LINE
8
Calque 1
10
888.871370
20
344.532975
11
894.621864
21
343.844651
0
LINE
8
Calque 1
10
894.621864
20
343.844651
11
899.904888
21
343.057074
0
LINE
8
Calque 1
10
899.904888
20
343.057074
11
904.703545
21
342.204971
0
LINE
8
Calque 1
10
904.703545
20
342.204971
11
912.780166
21
340.446085
0
LINE
8
Calque 1
10
912.780166
20
340.446085
11
918.716548
21
338.845794
0
LINE
8
Calque 1
10
918.716548
20
338.845794
11
923.627870
21
337.232200
0
LINE
8
Calque 1
10
923.627870
20
337.232200
11
924.351500
21
336.951080
0
LINE
8
Calque 1
10
924.351500
20
336.951080
11
924.352000
21
359.599000
0
LINE
8
Calque 1
10
924.352000
20
359.599000
11
922.475676
21
360.255080
0
LINE
8
Calque 1
10
922.475676
20
360.255080
11
918.367318
21
361.514542
0
LINE
8
Calque 1
10
918.367318
20
361.514542
11
912.145084
21
363.125991
0
LINE
8
Calque 1
10
912.145084
20
363.125991
11
903.927127
21
364.838029
0
LINE
8
Calque 1
10
903.927127
20
364.838029
11
893.831605
21
366.399258
0
LINE
8
Calque 1
10
893.831605
20
366.399258
11
888.116681
21
367.044757
0
LINE
8
Calque 1
10
888.116681
20
367.044757
11
881.976673
21
367.558281
0
LINE
8
Calque 1
10
881.976673
20
367.558281
11
875.426351
21
367.908403
0
LINE
8
Calque 1
10
875.426351
20
367.908403
11
868.480486
21
368.063701
0
LINE
8
Calque 1
10
868.480486
20
368.063701
11
861.153846
21
367.992748
0
LINE
8
Calque 1
10
861.153846
20
367.992748
11
853.461200
21
367.664120
0
LINE
8
Calque 1
10
853.461200
20
367.664120
11
845.106222
21
367.015269
0
LINE
8
Calque 1
10
845.106222
20
367.015269
11
836.381139
21
366.015865
0
LINE
8
Calque 1
10
836.381139
20
366.015865
11
827.307122
21
364.630780
0
LINE
8
Calque 1
10
827.307122
20
364.630780
11
817.905339
21
362.824886
0
LINE
8
Calque 1
10
817.905339
20
362.824886
11
808.196962
21
360.563056
0
LINE
8
Calque 1
10
808.196962
20
360.563056
11
798.203160
21
357.810161
0
LINE
8
Calque 1
10
798.203160
20
357.810161
11
787.945103
21
354.531073
0
LINE
8
Calque 1
10
787.945103
20
354.531073
11
777.443962
21
350.690665
0
LINE
8
Calque 1
10
777.443962
20
350.690665
11
766.720907
21
346.253809
0
LINE
8
Calque 1
10
766.720907
20
346.253809
11
755.797107
21
341.185376
0
LINE
8
Calque 1
10
755.797107
20
341.185376
11
744.693733
21
335.450240
0
LINE
8
Calque 1
10
744.693733
20
335.450240
11
733.431955
21
329.013271
0
LINE
8
Calque 1
10
733.431955
20
329.013271
11
722.032942
21
321.839343
0
LINE
8
Calque 1
10
722.032942
20
321.839343
11
710.517865
21
313.893327
0
LINE
8
Calque 1
10
710.517865
20
313.893327
11
704.723419
21
309.619808
0
LINE
8
Calque 1
10
704.723419
20
309.619808
11
698.907895
21
305.140095
0
LINE
8
Calque 1
10
698.907895
20
305.140095
11
693.073940
21
300.449796
0
LINE
8
Calque 1
10
693.073940
20
300.449796
11
687.224200
21
295.544520
0
LINE
8
Calque 1
10
687.224200
20
295.544520
11
675.769048
21
285.849309
0
LINE
8
Calque 1
10
675.769048
20
285.849309
11
664.653300
21
276.689085
0
LINE
8
Calque 1
10
664.653300
20
276.689085
11
653.851200
21
268.072296
0
LINE
8
Calque 1
10
653.851200
20
268.072296
11
643.336997
21
260.007390
0
LINE
8
Calque 1
10
643.336997
20
260.007390
11
633.084936
21
252.502817
0
LINE
8
Calque 1
10
633.084936
20
252.502817
11
623.069264
21
245.567026
0
LINE
8
Calque 1
10
623.069264
20
245.567026
11
613.264229
21
239.208465
0
LINE
8
Calque 1
10
613.264229
20
239.208465
11
603.644075
21
233.435582
0
LINE
8
Calque 1
10
603.644075
20
233.435582
11
594.183050
21
228.256828
0
LINE
8
Calque 1
10
594.183050
20
228.256828
11
584.855401
21
223.680650
0
LINE
8
Calque 1
10
584.855401
20
223.680650
11
575.635374
21
219.715497
0
LINE
8
Calque 1
10
575.635374
20
219.715497
11
566.497216
21
216.369818
0
LINE
8
Calque 1
10
566.497216
20
216.369818
11
557.415172
21
213.652063
0
LINE
8
Calque 1
10
557.415172
20
213.652063
11
552.887146
21
212.531296
0
LINE
8
Calque 1
10
552.887146
20
212.531296
11
548.363491
21
211.570678
0
LINE
8
Calque 1
10
548.363491
20
211.570678
11
543.840988
21
210.771266
0
LINE
8
Calque 1
10
543.840988
20
210.771266
11
539.316418
21
210.134115
0
LINE
8
Calque 1
10
539.316418
20
210.134115
11
534.786562
21
209.660281
0
LINE
8
Calque 1
10
534.786562
20
209.660281
11
530.248200
21
209.350820
0
LINE
8
Calque 1
10
530.248200
20
209.350820
11
525.702430
21
209.206410
0
LINE
8
Calque 1
10
525.702430
20
209.206410
11
521.150285
21
209.227375
0
LINE
8
Calque 1
10
521.150285
20
209.227375
11
516.588505
21
209.414220
0
LINE
8
Calque 1
10
516.588505
20
209.414220
11
512.013831
21
209.767453
0
LINE
8
Calque 1
10
512.013831
20
209.767453
11
507.423004
21
210.287579
0
LINE
8
Calque 1
10
507.423004
20
210.287579
11
502.812764
21
210.975104
0
LINE
8
Calque 1
10
502.812764
20
210.975104
11
498.179852
21
211.830535
0
LINE
8
Calque 1
10
498.179852
20
211.830535
11
493.521009
21
212.854378
0
LINE
8
Calque 1
10
493.521009
20
212.854378
11
488.832976
21
214.047139
0
LINE
8
Calque 1
10
488.832976
20
214.047139
11
484.112493
21
215.409324
0
LINE
8
Calque 1
10
484.112493
20
215.409324
11
474.561139
21
218.643992
0
LINE
8
Calque 1
10
474.561139
20
218.643992
11
464.840875
21
222.562432
0
LINE
8
Calque 1
10
464.840875
20
222.562432
11
454.925625
21
227.168694
0
LINE
8
Calque 1
10
454.925625
20
227.168694
11
444.789315
21
232.466826
0
LINE
8
Calque 1
10
444.789315
20
232.466826
11
434.405870
21
238.460880
0
LINE
8
Calque 1
10
434.405870
20
238.460880
11
423.749216
21
245.154904
0
LINE
8
Calque 1
10
423.749216
20
245.154904
11
412.793278
21
252.552948
0
LINE
8
Calque 1
10
412.793278
20
252.552948
11
401.511982
21
260.659062
0
LINE
8
Calque 1
10
401.511982
20
260.659062
11
389.879254
21
269.477295
0
LINE
8
Calque 1
10
389.879254
20
269.477295
11
377.869018
21
279.011698
0
LINE
8
Calque 1
10
377.869018
20
279.011698
11
365.455200
21
289.266320
0
LINE
8
Calque 1
10
365.455200
20
289.266320
11
352.865205
21
299.524411
0
LINE
8
Calque 1
10
352.865205
20
299.524411
11
340.502468
21
308.961968
0
LINE
8
Calque 1
10
340.502468
20
308.961968
11
328.379853
21
317.611327
0
LINE
8
Calque 1
10
328.379853
20
317.611327
11
316.510222
21
325.504826
0
LINE
8
Calque 1
10
316.510222
20
325.504826
11
304.906436
21
332.674803
0
LINE
8
Calque 1
10
304.906436
20
332.674803
11
293.581358
21
339.153594
0
LINE
8
Calque 1
10
293.581358
20
339.153594
11
282.547850
21
344.973537
0
LINE
8
Calque 1
10
282.547850
20
344.973537
11
271.818775
21
350.166970
0
LINE
8
Calque 1
10
271.818775
20
350.166970
11
261.406994
21
354.766229
0
LINE
8
Calque 1
10
261.406994
20
354.766229
11
251.325370
21
358.803652
0
LINE
8
Calque 1
10
251.325370
20
358.803652
11
241.586765
21
362.311576
0
LINE
8
Calque 1
10
241.586765
20
362.311576
11
232.204041
21
365.322339
0
LINE
8
Calque 1
10
232.204041
20
365.322339
11
223.190060
21
367.868277
0
LINE
8
Calque 1
10
223.190060
20
367.868277
11
214.557685
21
369.981729
0
LINE
8
Calque 1
10
214.557685
20
369.981729
11
206.319777
21
371.695030
0
LINE
8
Calque 1
10
206.319777
20
371.695030
11
198.489200
21
373.040520
0
LINE
8
Calque 1
10
198.489200
20
373.040520
11
191.063652
21
374.049805
0
LINE
8
Calque 1
10
191.063652
20
374.049805
11
184.039288
21
374.754915
0
LINE
8
Calque 1
10
184.039288
20
374.754915
11
177.426880
21
375.188840
0
LINE
8
Calque 1
10
177.426880
20
375.188840
11
171.237200
21
375.384570
0
LINE
8
Calque 1
10
171.237200
20
375.384570
11
171.237000
21
375.385000
0
LINE
8
Calque 1
10
162.319740
20
364.238900
11
163.098287
21
364.081649
0
LINE
8
Calque 1
10
163.098287
20
364.081649
11
163.734012
21
363.652925
0
LINE
8
Calque 1
10
163.734012
20
363.652925
11
164.162569
21
363.017088
0
LINE
8
Calque 1
10
164.162569
20
363.017088
11
164.319610
21
362.238500
0
LINE
8
Calque 1
10
164.319610
20
362.238500
11
164.162413
21
361.460077
0
LINE
8
Calque 1
10
164.162413
20
361.460077
11
163.733821
21
360.824410
0
LINE
8
Calque 1
10
163.733821
20
360.824410
11
163.098157
21
360.395817
0
LINE
8
Calque 1
10
163.098157
20
360.395817
11
162.319740
21
360.238620
0
LINE
8
Calque 1
10
162.319740
20
360.238620
11
161.541146
21
360.395666
0
LINE
8
Calque 1
10
161.541146
20
360.395666
11
160.905306
21
360.824223
0
LINE
8
Calque 1
10
160.905306
20
360.824223
11
160.476581
21
361.459948
0
LINE
8
Calque 1
10
160.476581
20
361.459948
11
160.319330
21
362.238500
0
LINE
8
Calque 1
10
160.319330
20
362.238500
11
160.476429
21
363.017209
0
LINE
8
Calque 1
10
160.476429
20
363.017209
11
160.905119
21
363.653105
0
LINE
8
Calque 1
10
160.905119
20
363.653105
11
161.541017
21
364.081798
0
LINE
8
Calque 1
10
161.541017
20
364.081798
11
162.319740
21
364.238900
0
LINE
8
Calque 1
10
162.319740
20
364.238900
11
162.319740
21
364.238900
0
LINE
8
Calque 1
10
910.244740
20
352.614800
11
911.023253
21
352.457603
0
LINE
8
Calque 1
10
911.023253
20
352.457603
11
911.658966
21
352.029011
0
LINE
8
Calque 1
10
911.658966
20
352.029011
11
912.087562
21
351.393347
0
LINE
8
Calque 1
10
912.087562
20
351.393347
11
912.244720
21
350.614930
0
LINE
8
Calque 1
10
912.244720
20
350.614930
11
912.087562
21
349.836507
0
LINE
8
Calque 1
10
912.087562
20
349.836507
11
911.658967
21
349.200840
0
LINE
8
Calque 1
10
911.658967
20
349.200840
11
911.023254
21
348.772247
0
LINE
8
Calque 1
10
911.023254
20
348.772247
11
910.244740
21
348.615050
0
LINE
8
Calque 1
10
910.244740
20
348.615050
11
909.466378
21
348.772247
0
LINE
8
Calque 1
10
909.466378
20
348.772247
11
908.830741
21
349.200840
0
LINE
8
Calque 1
10
908.830741
20
349.200840
11
908.402174
21
349.836507
0
LINE
8
Calque 1
10
908.402174
20
349.836507
11
908.245020
21
350.614930
0
LINE
8
Calque 1
10
908.245020
20
350.614930
11
908.402174
21
351.393347
0
LINE
8
Calque 1
10
908.402174
20
351.393347
11
908.830741
21
352.029011
0
LINE
8
Calque 1
10
908.830741
20
352.029011
11
909.466377
21
352.457603
0
LINE
8
Calque 1
10
909.466377
20
352.457603
11
910.244740
21
352.614800
0
LINE
8
Calque 1
10
910.244740
20
352.614800
11
910.244740
21
352.614800
0
LINE
8
Calque 1
10
811.833840
20
350.572570
11
812.612202
21
350.415371
0
LINE
8
Calque 1
10
812.612202
20
350.415371
11
813.247839
21
349.986776
0
LINE
8
Calque 1
10
813.247839
20
349.986776
11
813.676406
21
349.351108
0
LINE
8
Calque 1
10
813.676406
20
349.351108
11
813.833560
21
348.572690
0
LINE
8
Calque 1
10
813.833560
20
348.572690
11
813.676442
21
347.794096
0
LINE
8
Calque 1
10
813.676442
20
347.794096
11
813.247936
21
347.158256
0
LINE
8
Calque 1
10
813.247936
20
347.158256
11
812.612312
21
346.729531
0
LINE
8
Calque 1
10
812.612312
20
346.729531
11
811.833840
21
346.572280
0
LINE
8
Calque 1
10
811.833840
20
346.572280
11
811.055289
21
346.729522
0
LINE
8
Calque 1
10
811.055289
20
346.729522
11
810.419512
21
347.158249
0
LINE
8
Calque 1
10
810.419512
20
347.158249
11
809.990904
21
347.794093
0
LINE
8
Calque 1
10
809.990904
20
347.794093
11
809.833860
21
348.572690
0
LINE
8
Calque 1
10
809.833860
20
348.572690
11
809.991018
21
349.351111
0
LINE
8
Calque 1
10
809.991018
20
349.351111
11
810.419614
21
349.986784
0
LINE
8
Calque 1
10
810.419614
20
349.986784
11
811.055327
21
350.415380
0
LINE
8
Calque 1
10
811.055327
20
350.415380
11
811.833840
21
350.572570
0
LINE
8
Calque 1
10
811.833840
20
350.572570
11
811.833840
21
350.572570
0
LINE
8
Calque 1
10
249.413840
20
348.075030
11
250.192353
21
347.917837
0
LINE
8
Calque 1
10
250.192353
20
347.917837
11
250.828066
21
347.489245
0
LINE
8
Calque 1
10
250.828066
20
347.489245
11
251.256662
21
346.853578
0
LINE
8
Calque 1
10
251.256662
20
346.853578
11
251.413820
21
346.075160
0
LINE
8
Calque 1
10
251.413820
20
346.075160
11
251.256662
21
345.296738
0
LINE
8
Calque 1
10
251.256662
20
345.296738
11
250.828066
21
344.661070
0
LINE
8
Calque 1
10
250.828066
20
344.661070
11
250.192353
21
344.232477
0
LINE
8
Calque 1
10
250.192353
20
344.232477
11
249.413840
21
344.075280
0
LINE
8
Calque 1
10
249.413840
20
344.075280
11
248.635281
21
344.232326
0
LINE
8
Calque 1
10
248.635281
20
344.232326
11
247.999475
21
344.660882
0
LINE
8
Calque 1
10
247.999475
20
344.660882
11
247.570789
21
345.296608
0
LINE
8
Calque 1
10
247.570789
20
345.296608
11
247.413590
21
346.075160
0
LINE
8
Calque 1
10
247.413590
20
346.075160
11
247.570789
21
346.853707
0
LINE
8
Calque 1
10
247.570789
20
346.853707
11
247.999475
21
347.489432
0
LINE
8
Calque 1
10
247.999475
20
347.489432
11
248.635281
21
347.917989
0
LINE
8
Calque 1
10
248.635281
20
347.917989
11
249.413840
21
348.075030
0
LINE
8
Calque 1
10
249.413840
20
348.075030
11
249.413840
21
348.075030
0
LINE
8
Calque 1
10
338.475640
20
298.377330
11
339.254199
21
298.220284
0
LINE
8
Calque 1
10
339.254199
20
298.220284
11
339.890034
21
297.791727
0
LINE
8
Calque 1
10
339.890034
20
297.791727
11
340.318799
21
297.156002
0
LINE
8
Calque 1
10
340.318799
20
297.156002
11
340.476150
21
296.377450
0
LINE
8
Calque 1
10
340.476150
20
296.377450
11
340.318909
21
295.598904
0
LINE
8
Calque 1
10
340.318909
20
295.598904
11
339.890131
21
294.963181
0
LINE
8
Calque 1
10
339.890131
20
294.963181
11
339.254235
21
294.534625
0
LINE
8
Calque 1
10
339.254235
20
294.534625
11
338.475640
21
294.377580
0
LINE
8
Calque 1
10
338.475640
20
294.377580
11
337.697274
21
294.534777
0
LINE
8
Calque 1
10
337.697274
20
294.534777
11
337.061609
21
294.963369
0
LINE
8
Calque 1
10
337.061609
20
294.963369
11
336.632965
21
295.599033
0
LINE
8
Calque 1
10
336.632965
20
295.599033
11
336.475660
21
296.377450
0
LINE
8
Calque 1
10
336.475660
20
296.377450
11
336.632855
21
297.155872
0
LINE
8
Calque 1
10
336.632855
20
297.155872
11
337.061511
21
297.791540
0
LINE
8
Calque 1
10
337.061511
20
297.791540
11
337.697237
21
298.220132
0
LINE
8
Calque 1
10
337.697237
20
298.220132
11
338.475640
21
298.377330
0
LINE
8
Calque 1
10
338.475640
20
298.377330
11
338.475640
21
298.377330
0
LINE
8
Calque 1
10
691.771640
20
287.060230
11
692.550199
21
286.903184
0
LINE
8
Calque 1
10
692.550199
20
286.903184
11
693.186005
21
286.474627
0
LINE
8
Calque 1
10
693.186005
20
286.474627
11
693.614691
21
285.838902
0
LINE
8
Calque 1
10
693.614691
20
285.838902
11
693.771890
21
285.060350
0
LINE
8
Calque 1
10
693.771890
20
285.060350
11
693.614728
21
284.281627
0
LINE
8
Calque 1
10
693.614728
20
284.281627
11
693.186103
21
283.645729
0
LINE
8
Calque 1
10
693.186103
20
283.645729
11
692.550309
21
283.217039
0
LINE
8
Calque 1
10
692.550309
20
283.217039
11
691.771640
21
283.059940
0
LINE
8
Calque 1
10
691.771640
20
283.059940
11
690.993091
21
283.217191
0
LINE
8
Calque 1
10
690.993091
20
283.217191
11
690.357316
21
283.645916
0
LINE
8
Calque 1
10
690.357316
20
283.645916
11
689.928709
21
284.281756
0
LINE
8
Calque 1
10
689.928709
20
284.281756
11
689.771660
21
285.060350
0
LINE
8
Calque 1
10
689.771660
20
285.060350
11
689.928818
21
285.838768
0
LINE
8
Calque 1
10
689.928818
20
285.838768
11
690.357414
21
286.474436
0
LINE
8
Calque 1
10
690.357414
20
286.474436
11
690.993127
21
286.903031
0
LINE
8
Calque 1
10
690.993127
20
286.903031
11
691.771640
21
287.060230
0
LINE
8
Calque 1
10
691.771640
20
287.060230
11
691.771640
21
287.060230
0
LINE
8
Calque 1
10
429.997640
20
229.145930
11
430.776002
21
228.988733
0
LINE
8
Calque 1
10
430.776002
20
228.988733
11
431.411639
21
228.560140
0
LINE
8
Calque 1
10
431.411639
20
228.560140
11
431.840206
21
227.924472
0
LINE
8
Calque 1
10
431.840206
20
227.924472
11
431.997360
21
227.146050
0
LINE
8
Calque 1
10
431.997360
20
227.146050
11
431.840206
21
226.367633
0
LINE
8
Calque 1
10
431.840206
20
226.367633
11
431.411639
21
225.731969
0
LINE
8
Calque 1
10
431.411639
20
225.731969
11
430.776002
21
225.303377
0
LINE
8
Calque 1
10
430.776002
20
225.303377
11
429.997640
21
225.146180
0
LINE
8
Calque 1
10
429.997640
20
225.146180
11
429.219122
21
225.303377
0
LINE
8
Calque 1
10
429.219122
20
225.303377
11
428.583405
21
225.731969
0
LINE
8
Calque 1
10
428.583405
20
225.731969
11
428.154808
21
226.367633
0
LINE
8
Calque 1
10
428.154808
20
226.367633
11
427.997650
21
227.146050
0
LINE
8
Calque 1
10
427.997650
20
227.146050
11
428.154808
21
227.924472
0
LINE
8
Calque 1
10
428.154808
20
227.924472
11
428.583405
21
228.560140
0
LINE
8
Calque 1
10
428.583405
20
228.560140
11
429.219122
21
228.988733
0
LINE
8
Calque 1
10
429.219122
20
228.988733
11
429.997640
21
229.145930
0
LINE
8
Calque 1
10
429.997640
20
229.145930
11
429.997640
21
229.145930
0
LINE
8
Calque 1
10
594.836640
20
217.791630
11
595.615116
21
217.634433
0
LINE
8
Calque 1
10
595.615116
20
217.634433
11
596.250769
21
217.205840
0
LINE
8
Calque 1
10
596.250769
20
217.205840
11
596.679352
21
216.570173
0
LINE
8
Calque 1
10
596.679352
20
216.570173
11
596.836620
21
215.791750
0
LINE
8
Calque 1
10
596.836620
20
215.791750
11
596.679462
21
215.013332
0
LINE
8
Calque 1
10
596.679462
20
215.013332
11
596.250866
21
214.377664
0
LINE
8
Calque 1
10
596.250866
20
214.377664
11
595.615153
21
213.949069
0
LINE
8
Calque 1
10
595.615153
20
213.949069
11
594.836640
21
213.791870
0
LINE
8
Calque 1
10
594.836640
20
213.791870
11
594.058085
21
213.948916
0
LINE
8
Calque 1
10
594.058085
20
213.948916
11
593.422279
21
214.377473
0
LINE
8
Calque 1
10
593.422279
20
214.377473
11
592.993590
21
215.013198
0
LINE
8
Calque 1
10
592.993590
20
215.013198
11
592.836390
21
215.791750
0
LINE
8
Calque 1
10
592.836390
20
215.791750
11
592.993590
21
216.570302
0
LINE
8
Calque 1
10
592.993590
20
216.570302
11
593.422279
21
217.206028
0
LINE
8
Calque 1
10
593.422279
20
217.206028
11
594.058085
21
217.634584
0
LINE
8
Calque 1
10
594.058085
20
217.634584
11
594.836640
21
217.791630
0
LINE
8
Calque 1
10
594.836640
20
217.791630
11
594.836640
21
217.791630
0
LINE
8
Calque 1
10
511.186840
20
200.003630
11
511.965505
21
199.846379
0
LINE
8
Calque 1
10
511.965505
20
199.846379
11
512.601270
21
199.417654
0
LINE
8
Calque 1
10
512.601270
20
199.417654
11
513.029818
21
198.781814
0
LINE
8
Calque 1
10
513.029818
20
198.781814
11
513.186830
21
198.003220
0
LINE
8
Calque 1
10
513.186830
20
198.003220
11
513.029672
21
197.224803
0
LINE
8
Calque 1
10
513.029672
20
197.224803
11
512.601075
21
196.589139
0
LINE
8
Calque 1
10
512.601075
20
196.589139
11
511.965358
21
196.160547
0
LINE
8
Calque 1
10
511.965358
20
196.160547
11
511.186840
21
196.003350
0
LINE
8
Calque 1
10
511.186840
20
196.003350
11
510.408478
21
196.160547
0
LINE
8
Calque 1
10
510.408478
20
196.160547
11
509.772841
21
196.589139
0
LINE
8
Calque 1
10
509.772841
20
196.589139
11
509.344274
21
197.224803
0
LINE
8
Calque 1
10
509.344274
20
197.224803
11
509.187120
21
198.003220
0
LINE
8
Calque 1
10
509.187120
20
198.003220
11
509.344238
21
198.781814
0
LINE
8
Calque 1
10
509.344238
20
198.781814
11
509.772744
21
199.417654
0
LINE
8
Calque 1
10
509.772744
20
199.417654
11
510.408368
21
199.846379
0
LINE
8
Calque 1
10
510.408368
20
199.846379
11
511.186840
21
200.003630
0
LINE
8
Calque 1
10
511.186840
20
200.003630
11
511.186840
21
200.003630
0
LINE
8
Calque 1
10
171.237000
20
327.892000
11
163.196615
21
327.829518
0
LINE
8
Calque 1
10
163.196615
20
327.829518
11
156.093186
21
327.454364
0
LINE
8
Calque 1
10
156.093186
20
327.454364
11
149.948198
21
326.858974
0
LINE
8
Calque 1
10
149.948198
20
326.858974
11
144.783138
21
326.135783
0
LINE
8
Calque 1
10
144.783138
20
326.135783
11
140.619491
21
325.377223
0
LINE
8
Calque 1
10
140.619491
20
325.377223
11
137.478745
21
324.675732
0
LINE
8
Calque 1
10
137.478745
20
324.675732
11
134.351900
21
323.813690
0
LINE
8
Calque 1
10
134.351900
20
323.813690
11
134.352000
21
305.447000
0
LINE
8
Calque 1
10
134.352000
20
305.447000
11
135.134370
21
305.714180
0
LINE
8
Calque 1
10
135.134370
20
305.714180
11
136.193461
21
306.039541
0
LINE
8
Calque 1
10
136.193461
20
306.039541
11
139.325779
21
306.844993
0
LINE
8
Calque 1
10
139.325779
20
306.844993
11
144.463893
21
307.874592
0
LINE
8
Calque 1
10
144.463893
20
307.874592
11
151.540370
21
308.872394
0
LINE
8
Calque 1
10
151.540370
20
308.872394
11
155.784422
21
309.279388
0
LINE
8
Calque 1
10
155.784422
20
309.279388
11
160.487778
21
309.582454
0
LINE
8
Calque 1
10
160.487778
20
309.582454
11
165.642009
21
309.749598
0
LINE
8
Calque 1
10
165.642009
20
309.749598
11
171.238686
21
309.748828
0
LINE
8
Calque 1
10
171.238686
20
309.748828
11
177.269379
21
309.548150
0
LINE
8
Calque 1
10
177.269379
20
309.548150
11
183.725660
21
309.115571
0
LINE
8
Calque 1
10
183.725660
20
309.115571
11
190.599100
21
308.419099
0
LINE
8
Calque 1
10
190.599100
20
308.419099
11
197.881270
21
307.426740
0
LINE
8
Calque 1
10
197.881270
20
307.426740
11
205.561265
21
306.105509
0
LINE
8
Calque 1
10
205.561265
20
306.105509
11
213.627341
21
304.422051
0
LINE
8
Calque 1
10
213.627341
20
304.422051
11
222.070090
21
302.343729
0
LINE
8
Calque 1
10
222.070090
20
302.343729
11
230.880103
21
299.837909
0
LINE
8
Calque 1
10
230.880103
20
299.837909
11
240.047972
21
296.871955
0
LINE
8
Calque 1
10
240.047972
20
296.871955
11
249.564289
21
293.413232
0
LINE
8
Calque 1
10
249.564289
20
293.413232
11
259.419645
21
289.429105
0
LINE
8
Calque 1
10
259.419645
20
289.429105
11
269.604632
21
284.886937
0
LINE
8
Calque 1
10
269.604632
20
284.886937
11
280.109843
21
279.754096
0
LINE
8
Calque 1
10
280.109843
20
279.754096
11
290.925869
21
273.997943
0
LINE
8
Calque 1
10
290.925869
20
273.997943
11
302.043301
21
267.585846
0
LINE
8
Calque 1
10
302.043301
20
267.585846
11
313.452731
21
260.485167
0
LINE
8
Calque 1
10
313.452731
20
260.485167
11
325.144751
21
252.663273
0
LINE
8
Calque 1
10
325.144751
20
252.663273
11
337.109953
21
244.087527
0
LINE
8
Calque 1
10
337.109953
20
244.087527
11
349.338929
21
234.725294
0
LINE
8
Calque 1
10
349.338929
20
234.725294
11
361.822270
21
224.543940
0
LINE
8
Calque 1
10
361.822270
20
224.543940
11
374.313821
21
214.247010
0
LINE
8
Calque 1
10
374.313821
20
214.247010
11
386.438899
21
204.682507
0
LINE
8
Calque 1
10
386.438899
20
204.682507
11
398.220249
21
195.845197
0
LINE
8
Calque 1
10
398.220249
20
195.845197
11
409.680615
21
187.729846
0
LINE
8
Calque 1
10
409.680615
20
187.729846
11
420.842742
21
180.331221
0
LINE
8
Calque 1
10
420.842742
20
180.331221
11
431.729374
21
173.644088
0
LINE
8
Calque 1
10
431.729374
20
173.644088
11
442.363256
21
167.663214
0
LINE
8
Calque 1
10
442.363256
20
167.663214
11
452.767133
21
162.383365
0
LINE
8
Calque 1
10
452.767133
20
162.383365
11
462.963747
21
157.799307
0
LINE
8
Calque 1
10
462.963747
20
157.799307
11
472.975845
21
153.905807
0
LINE
8
Calque 1
10
472.975845
20
153.905807
11
477.919808
21
152.216381
0
LINE
8
Calque 1
10
477.919808
20
152.216381
11
482.826171
21
150.697631
0
LINE
8
Calque 1
10
482.826171
20
150.697631
11
487.697777
21
149.348905
0
LINE
8
Calque 1
10
487.697777
20
149.348905
11
492.537468
21
148.169546
0
LINE
8
Calque 1
10
492.537468
20
148.169546
11
497.348089
21
147.158902
0
LINE
8
Calque 1
10
497.348089
20
147.158902
11
502.132483
21
146.316318
0
LINE
8
Calque 1
10
502.132483
20
146.316318
11
506.893491
21
145.641140
0
LINE
8
Calque 1
10
506.893491
20
145.641140
11
511.633958
21
145.132713
0
LINE
8
Calque 1
10
511.633958
20
145.132713
11
516.356726
21
144.790384
0
LINE
8
Calque 1
10
516.356726
20
144.790384
11
521.064639
21
144.613499
0
LINE
8
Calque 1
10
521.064639
20
144.613499
11
525.760539
21
144.601402
0
LINE
8
Calque 1
10
525.760539
20
144.601402
11
530.447270
21
144.753440
0
LINE
8
Calque 1
10
530.447270
20
144.753440
11
535.125842
21
145.068646
0
LINE
8
Calque 1
10
535.125842
20
145.068646
11
539.797199
21
145.545892
0
LINE
8
Calque 1
10
539.797199
20
145.545892
11
544.464225
21
146.184297
0
LINE
8
Calque 1
10
544.464225
20
146.184297
11
549.129801
21
146.982981
0
LINE
8
Calque 1
10
549.129801
20
146.982981
11
553.796813
21
147.941064
0
LINE
8
Calque 1
10
553.796813
20
147.941064
11
558.468141
21
149.057664
0
LINE
8
Calque 1
10
558.468141
20
149.057664
11
567.835284
21
151.762900
0
LINE
8
Calque 1
10
567.835284
20
151.762900
11
577.254295
21
155.091645
0
LINE
8
Calque 1
10
577.254295
20
155.091645
11
586.748238
21
159.036857
0
LINE
8
Calque 1
10
586.748238
20
159.036857
11
596.340179
21
163.591493
0
LINE
8
Calque 1
10
596.340179
20
163.591493
11
606.053183
21
168.748513
0
LINE
8
Calque 1
10
606.053183
20
168.748513
11
615.910314
21
174.500872
0
LINE
8
Calque 1
10
615.910314
20
174.500872
11
625.934638
21
180.841528
0
LINE
8
Calque 1
10
625.934638
20
180.841528
11
636.149220
21
187.763440
0
LINE
8
Calque 1
10
636.149220
20
187.763440
11
646.577125
21
195.259564
0
LINE
8
Calque 1
10
646.577125
20
195.259564
11
657.241417
21
203.322859
0
LINE
8
Calque 1
10
657.241417
20
203.322859
11
668.165162
21
211.946281
0
LINE
8
Calque 1
10
668.165162
20
211.946281
11
679.371425
21
221.122789
0
LINE
8
Calque 1
10
679.371425
20
221.122789
11
690.883270
21
230.845340
0
LINE
8
Calque 1
10
690.883270
20
230.845340
11
696.668482
21
235.699299
0
LINE
8
Calque 1
10
696.668482
20
235.699299
11
702.430374
21
240.339462
0
LINE
8
Calque 1
10
702.430374
20
240.339462
11
713.875534
21
248.996043
0
LINE
8
Calque 1
10
713.875534
20
248.996043
11
725.201418
21
256.850376
0
LINE
8
Calque 1
10
725.201418
20
256.850376
11
736.390695
21
263.937756
0
LINE
8
Calque 1
10
736.390695
20
263.937756
11
747.426035
21
270.293474
0
LINE
8
Calque 1
10
747.426035
20
270.293474
11
758.290106
21
275.952823
0
LINE
8
Calque 1
10
758.290106
20
275.952823
11
768.965578
21
280.951098
0
LINE
8
Calque 1
10
768.965578
20
280.951098
11
779.435120
21
285.323590
0
LINE
8
Calque 1
10
779.435120
20
285.323590
11
789.681401
21
289.105593
0
LINE
8
Calque 1
10
789.681401
20
289.105593
11
799.687090
21
292.332401
0
LINE
8
Calque 1
10
799.687090
20
292.332401
11
809.434857
21
295.039305
0
LINE
8
Calque 1
10
809.434857
20
295.039305
11
818.907370
21
297.261599
0
LINE
8
Calque 1
10
818.907370
20
297.261599
11
828.087299
21
299.034577
0
LINE
8
Calque 1
10
828.087299
20
299.034577
11
836.957312
21
300.393531
0
LINE
8
Calque 1
10
836.957312
20
300.393531
11
845.500080
21
301.373754
0
LINE
8
Calque 1
10
845.500080
20
301.373754
11
853.698270
21
302.010540
0
LINE
8
Calque 1
10
853.698270
20
302.010540
11
861.532649
21
302.339350
0
LINE
8
Calque 1
10
861.532649
20
302.339350
11
868.984046
21
302.395282
0
LINE
8
Calque 1
10
868.984046
20
302.395282
11
876.035564
21
302.213061
0
LINE
8
Calque 1
10
876.035564
20
302.213061
11
882.670304
21
301.827412
0
LINE
8
Calque 1
10
882.670304
20
301.827412
11
888.871370
21
301.273061
0
LINE
8
Calque 1
10
888.871370
20
301.273061
11
894.621864
21
300.584734
0
LINE
8
Calque 1
10
894.621864
20
300.584734
11
899.904888
21
299.797154
0
LINE
8
Calque 1
10
899.904888
20
299.797154
11
904.703545
21
298.945047
0
LINE
8
Calque 1
10
904.703545
20
298.945047
11
912.780166
21
297.186155
0
LINE
8
Calque 1
10
912.780166
20
297.186155
11
918.716548
21
295.585859
0
LINE
8
Calque 1
10
918.716548
20
295.585859
11
923.627870
21
293.972260
0
LINE
8
Calque 1
10
923.627870
20
293.972260
11
924.351500
21
293.691140
0
LINE
8
Calque 1
10
924.351500
20
293.691140
11
924.352000
21
312.106000
0
LINE
8
Calque 1
10
924.352000
20
312.106000
11
922.475676
21
312.762080
0
LINE
8
Calque 1
10
922.475676
20
312.762080
11
918.367318
21
314.021542
0
LINE
8
Calque 1
10
918.367318
20
314.021542
11
912.145084
21
315.632992
0
LINE
8
Calque 1
10
912.145084
20
315.632992
11
903.927127
21
317.345030
0
LINE
8
Calque 1
10
903.927127
20
317.345030
11
893.831605
21
318.906260
0
LINE
8
Calque 1
10
893.831605
20
318.906260
11
888.116681
21
319.551761
0
LINE
8
Calque 1
10
888.116681
20
319.551761
11
881.976673
21
320.065285
0
LINE
8
Calque 1
10
881.976673
20
320.065285
11
875.426351
21
320.415409
0
LINE
8
Calque 1
10
875.426351
20
320.415409
11
868.480486
21
320.570707
0
LINE
8
Calque 1
10
868.480486
20
320.570707
11
861.153846
21
320.499756
0
LINE
8
Calque 1
10
861.153846
20
320.499756
11
853.461200
21
320.171130
0
LINE
8
Calque 1
10
853.461200
20
320.171130
11
845.118115
21
319.522279
0
LINE
8
Calque 1
10
845.118115
20
319.522279
11
836.426641
21
318.522875
0
LINE
8
Calque 1
10
836.426641
20
318.522875
11
827.404845
21
317.137790
0
LINE
8
Calque 1
10
827.404845
20
317.137790
11
818.070792
21
315.331896
0
LINE
8
Calque 1
10
818.070792
20
315.331896
11
808.442549
21
313.070066
0
LINE
8
Calque 1
10
808.442549
20
313.070066
11
798.538181
21
310.317171
0
LINE
8
Calque 1
10
798.538181
20
310.317171
11
788.375756
21
307.038083
0
LINE
8
Calque 1
10
788.375756
20
307.038083
11
777.973337
21
303.197675
0
LINE
8
Calque 1
10
777.973337
20
303.197675
11
767.348993
21
298.760819
0
LINE
8
Calque 1
10
767.348993
20
298.760819
11
756.520789
21
293.692386
0
LINE
8
Calque 1
10
756.520789
20
293.692386
11
745.506790
21
287.957250
0
LINE
8
Calque 1
10
745.506790
20
287.957250
11
734.325064
21
281.520281
0
LINE
8
Calque 1
10
734.325064
20
281.520281
11
722.993676
21
274.346353
0
LINE
8
Calque 1
10
722.993676
20
274.346353
11
711.530692
21
266.400337
0
LINE
8
Calque 1
10
711.530692
20
266.400337
11
705.755497
21
262.126818
0
LINE
8
Calque 1
10
705.755497
20
262.126818
11
699.954178
21
257.647105
0
LINE
8
Calque 1
10
699.954178
20
257.647105
11
694.128993
21
252.956806
0
LINE
8
Calque 1
10
694.128993
20
252.956806
11
688.282200
21
248.051530
0
LINE
8
Calque 1
10
688.282200
20
248.051530
11
676.815156
21
238.368206
0
LINE
8
Calque 1
10
676.815156
20
238.368206
11
665.665798
21
229.241573
0
LINE
8
Calque 1
10
665.665798
20
229.241573
11
654.811477
21
220.676980
0
LINE
8
Calque 1
10
654.811477
20
220.676980
11
644.229544
21
212.679774
0
LINE
8
Calque 1
10
644.229544
20
212.679774
11
633.897349
21
205.255303
0
LINE
8
Calque 1
10
633.897349
20
205.255303
11
623.792243
21
198.408915
0
LINE
8
Calque 1
10
623.792243
20
198.408915
11
613.891576
21
192.145958
0
LINE
8
Calque 1
10
613.891576
20
192.145958
11
604.172700
21
186.471780
0
LINE
8
Calque 1
10
604.172700
20
186.471780
11
594.612964
21
181.391728
0
LINE
8
Calque 1
10
594.612964
20
181.391728
11
585.189720
21
176.911151
0
LINE
8
Calque 1
10
585.189720
20
176.911151
11
575.880317
21
173.035396
0
LINE
8
Calque 1
10
575.880317
20
173.035396
11
566.662106
21
169.769811
0
LINE
8
Calque 1
10
566.662106
20
169.769811
11
557.512439
21
167.119744
0
LINE
8
Calque 1
10
557.512439
20
167.119744
11
552.956231
21
166.027201
0
LINE
8
Calque 1
10
552.956231
20
166.027201
11
548.408665
21
165.090543
0
LINE
8
Calque 1
10
548.408665
20
165.090543
11
543.866910
21
164.310439
0
LINE
8
Calque 1
10
543.866910
20
164.310439
11
539.328135
21
163.687556
0
LINE
8
Calque 1
10
539.328135
20
163.687556
11
534.789509
21
163.222564
0
LINE
8
Calque 1
10
534.789509
20
163.222564
11
530.248200
21
162.916130
0
LINE
8
Calque 1
10
530.248200
20
162.916130
11
525.699394
21
162.768685
0
LINE
8
Calque 1
10
525.699394
20
162.768685
11
521.138400
21
162.780801
0
LINE
8
Calque 1
10
521.138400
20
162.780801
11
516.562345
21
162.953372
0
LINE
8
Calque 1
10
516.562345
20
162.953372
11
511.968358
21
163.287292
0
LINE
8
Calque 1
10
511.968358
20
163.287292
11
507.353567
21
163.783454
0
LINE
8
Calque 1
10
507.353567
20
163.783454
11
502.715101
21
164.442752
0
LINE
8
Calque 1
10
502.715101
20
164.442752
11
498.050087
21
165.266081
0
LINE
8
Calque 1
10
498.050087
20
165.266081
11
493.355655
21
166.254333
0
LINE
8
Calque 1
10
493.355655
20
166.254333
11
488.628932
21
167.408402
0
LINE
8
Calque 1
10
488.628932
20
167.408402
11
483.867047
21
168.729183
0
LINE
8
Calque 1
10
483.867047
20
168.729183
11
474.226303
21
171.874454
0
LINE
8
Calque 1
10
474.226303
20
171.874454
11
464.410449
21
175.697295
0
LINE
8
Calque 1
10
464.410449
20
175.697295
11
454.396512
21
180.204858
0
LINE
8
Calque 1
10
454.396512
20
180.204858
11
444.161519
21
185.404291
0
LINE
8
Calque 1
10
444.161519
20
185.404291
11
433.682496
21
191.302745
0
LINE
8
Calque 1
10
433.682496
20
191.302745
11
422.936469
21
197.907371
0
LINE
8
Calque 1
10
422.936469
20
197.907371
11
411.900464
21
205.225318
0
LINE
8
Calque 1
10
411.900464
20
205.225318
11
400.551508
21
213.263738
0
LINE
8
Calque 1
10
400.551508
20
213.263738
11
388.866628
21
222.029779
0
LINE
8
Calque 1
10
388.866628
20
222.029779
11
376.822850
21
231.530593
0
LINE
8
Calque 1
10
376.822850
20
231.530593
11
364.397200
21
241.773330
0
LINE
8
Calque 1
10
364.397200
20
241.773330
11
351.819097
21
252.031438
0
LINE
8
Calque 1
10
351.819097
20
252.031438
11
339.489970
21
261.469006
0
LINE
8
Calque 1
10
339.489970
20
261.469006
11
327.419577
21
270.118374
0
LINE
8
Calque 1
10
327.419577
20
270.118374
11
315.617675
21
278.011878
0
LINE
8
Calque 1
10
315.617675
20
278.011878
11
304.094023
21
285.181857
0
LINE
8
Calque 1
10
304.094023
20
285.181857
11
292.858380
21
291.660648
0
LINE
8
Calque 1
10
292.858380
20
291.660648
11
281.920503
21
297.480589
0
LINE
8
Calque 1
10
281.920503
20
297.480589
11
271.290150
21
302.674017
0
LINE
8
Calque 1
10
271.290150
20
302.674017
11
260.977080
21
307.273271
0
LINE
8
Calque 1
10
260.977080
20
307.273271
11
250.991052
21
311.310688
0
LINE
8
Calque 1
10
250.991052
20
311.310688
11
241.341822
21
314.818606
0
LINE
8
Calque 1
10
241.341822
20
314.818606
11
232.039150
21
317.829363
0
LINE
8
Calque 1
10
232.039150
20
317.829363
11
223.092794
21
320.375296
0
LINE
8
Calque 1
10
223.092794
20
320.375296
11
214.512511
21
322.488743
0
LINE
8
Calque 1
10
214.512511
20
322.488743
11
206.308060
21
324.202042
0
LINE
8
Calque 1
10
206.308060
20
324.202042
11
198.489200
21
325.547530
0
LINE
8
Calque 1
10
198.489200
20
325.547530
11
191.063652
21
326.556815
0
LINE
8
Calque 1
10
191.063652
20
326.556815
11
184.039288
21
327.261925
0
LINE
8
Calque 1
10
184.039288
20
327.261925
11
177.426880
21
327.695850
0
LINE
8
Calque 1
10
177.426880
20
327.695850
11
171.237200
21
327.891580
0
LINE
8
Calque 1
10
171.237200
20
327.891580
11
171.237000
21
327.892000
0
LINE
8
Calque 1
10
162.319740
20
320.979240
11
163.098287
21
320.821989
0
LINE
8
Calque 1
10
163.098287
20
320.821989
11
163.734012
21
320.393264
0
LINE
8
Calque 1
10
163.734012
20
320.393264
11
164.162569
21
319.757424
0
LINE
8
Calque 1
10
164.162569
20
319.757424
11
164.319610
21
318.978830
0
LINE
8
Calque 1
10
164.319610
20
318.978830
11
164.162413
21
318.200408
0
LINE
8
Calque 1
10
164.162413
20
318.200408
11
163.733821
21
317.564740
0
LINE
8
Calque 1
10
163.733821
20
317.564740
11
163.098157
21
317.136147
0
LINE
8
Calque 1
10
163.098157
20
317.136147
11
162.319740
21
316.978950
0
LINE
8
Calque 1
10
162.319740
20
316.978950
11
161.541146
21
317.135996
0
LINE
8
Calque 1
10
161.541146
20
317.135996
11
160.905306
21
317.564552
0
LINE
8
Calque 1
10
160.905306
20
317.564552
11
160.476581
21
318.200278
0
LINE
8
Calque 1
10
160.476581
20
318.200278
11
160.319330
21
318.978830
0
LINE
8
Calque 1
10
160.319330
20
318.978830
11
160.476429
21
319.757541
0
LINE
8
Calque 1
10
160.476429
20
319.757541
11
160.905119
21
320.393440
0
LINE
8
Calque 1
10
160.905119
20
320.393440
11
161.541017
21
320.822137
0
LINE
8
Calque 1
10
161.541017
20
320.822137
11
162.319740
21
320.979240
0
LINE
8
Calque 1
10
162.319740
20
320.979240
11
162.319740
21
320.979240
0
LINE
8
Calque 1
10
910.244740
20
309.355140
11
911.023253
21
309.197941
0
LINE
8
Calque 1
10
911.023253
20
309.197941
11
911.658966
21
308.769346
0
LINE
8
Calque 1
10
911.658966
20
308.769346
11
912.087562
21
308.133678
0
LINE
8
Calque 1
10
912.087562
20
308.133678
11
912.244720
21
307.355260
0
LINE
8
Calque 1
10
912.244720
20
307.355260
11
912.087562
21
306.576837
0
LINE
8
Calque 1
10
912.087562
20
306.576837
11
911.658967
21
305.941170
0
LINE
8
Calque 1
10
911.658967
20
305.941170
11
911.023254
21
305.512577
0
LINE
8
Calque 1
10
911.023254
20
305.512577
11
910.244740
21
305.355380
0
LINE
8
Calque 1
10
910.244740
20
305.355380
11
909.466378
21
305.512577
0
LINE
8
Calque 1
10
909.466378
20
305.512577
11
908.830741
21
305.941170
0
LINE
8
Calque 1
10
908.830741
20
305.941170
11
908.402174
21
306.576837
0
LINE
8
Calque 1
10
908.402174
20
306.576837
11
908.245020
21
307.355260
0
LINE
8
Calque 1
10
908.245020
20
307.355260
11
908.402174
21
308.133678
0
LINE
8
Calque 1
10
908.402174
20
308.133678
11
908.830741
21
308.769346
0
LINE
8
Calque 1
10
908.830741
20
308.769346
11
909.466377
21
309.197941
0
LINE
8
Calque 1
10
909.466377
20
309.197941
11
910.244740
21
309.355140
0
LINE
8
Calque 1
10
910.244740
20
309.355140
11
910.244740
21
309.355140
0
LINE
8
Calque 1
10
811.833840
20
307.312900
11
812.612202
21
307.155703
0
LINE
8
Calque 1
10
812.612202
20
307.155703
11
813.247839
21
306.727110
0
LINE
8
Calque 1
10
813.247839
20
306.727110
11
813.676406
21
306.091443
0
LINE
8
Calque 1
10
813.676406
20
306.091443
11
813.833560
21
305.313020
0
LINE
8
Calque 1
10
813.833560
20
305.313020
11
813.676442
21
304.534426
0
LINE
8
Calque 1
10
813.676442
20
304.534426
11
813.247936
21
303.898587
0
LINE
8
Calque 1
10
813.247936
20
303.898587
11
812.612312
21
303.469865
0
LINE
8
Calque 1
10
812.612312
20
303.469865
11
811.833840
21
303.312620
0
LINE
8
Calque 1
10
811.833840
20
303.312620
11
811.055289
21
303.469857
0
LINE
8
Calque 1
10
811.055289
20
303.469857
11
810.419512
21
303.898580
0
LINE
8
Calque 1
10
810.419512
20
303.898580
11
809.990904
21
304.534423
0
LINE
8
Calque 1
10
809.990904
20
304.534423
11
809.833860
21
305.313020
0
LINE
8
Calque 1
10
809.833860
20
305.313020
11
809.991018
21
306.091447
0
LINE
8
Calque 1
10
809.991018
20
306.091447
11
810.419614
21
306.727121
0
LINE
8
Calque 1
10
810.419614
20
306.727121
11
811.055327
21
307.155715
0
LINE
8
Calque 1
10
811.055327
20
307.155715
11
811.833840
21
307.312900
0
LINE
8
Calque 1
10
811.833840
20
307.312900
11
811.833840
21
307.312900
0
LINE
8
Calque 1
10
249.413840
20
304.815370
11
250.192353
21
304.658173
0
LINE
8
Calque 1
10
250.192353
20
304.658173
11
250.828066
21
304.229580
0
LINE
8
Calque 1
10
250.828066
20
304.229580
11
251.256662
21
303.593913
0
LINE
8
Calque 1
10
251.256662
20
303.593913
11
251.413820
21
302.815490
0
LINE
8
Calque 1
10
251.413820
20
302.815490
11
251.256662
21
302.037067
0
LINE
8
Calque 1
10
251.256662
20
302.037067
11
250.828066
21
301.401400
0
LINE
8
Calque 1
10
250.828066
20
301.401400
11
250.192353
21
300.972807
0
LINE
8
Calque 1
10
250.192353
20
300.972807
11
249.413840
21
300.815610
0
LINE
8
Calque 1
10
249.413840
20
300.815610
11
248.635281
21
300.972656
0
LINE
8
Calque 1
10
248.635281
20
300.972656
11
247.999475
21
301.401213
0
LINE
8
Calque 1
10
247.999475
20
301.401213
11
247.570789
21
302.036938
0
LINE
8
Calque 1
10
247.570789
20
302.036938
11
247.413590
21
302.815490
0
LINE
8
Calque 1
10
247.413590
20
302.815490
11
247.570789
21
303.594042
0
LINE
8
Calque 1
10
247.570789
20
303.594042
11
247.999475
21
304.229767
0
LINE
8
Calque 1
10
247.999475
20
304.229767
11
248.635281
21
304.658324
0
LINE
8
Calque 1
10
248.635281
20
304.658324
11
249.413840
21
304.815370
0
LINE
8
Calque 1
10
249.413840
20
304.815370
11
249.413840
21
304.815370
0
LINE
8
Calque 1
10
338.475640
20
255.117670
11
339.254199
21
254.960625
0
LINE
8
Calque 1
10
339.254199
20
254.960625
11
339.890034
21
254.532069
0
LINE
8
Calque 1
10
339.890034
20
254.532069
11
340.318799
21
253.896346
0
LINE
8
Calque 1
10
340.318799
20
253.896346
11
340.476150
21
253.117800
0
LINE
8
Calque 1
10
340.476150
20
253.117800
11
340.318909
21
252.339248
0
LINE
8
Calque 1
10
340.318909
20
252.339248
11
339.890131
21
251.703523
0
LINE
8
Calque 1
10
339.890131
20
251.703523
11
339.254235
21
251.274966
0
LINE
8
Calque 1
10
339.254235
20
251.274966
11
338.475640
21
251.117920
0
LINE
8
Calque 1
10
338.475640
20
251.117920
11
337.697274
21
251.275118
0
LINE
8
Calque 1
10
337.697274
20
251.275118
11
337.061609
21
251.703710
0
LINE
8
Calque 1
10
337.061609
20
251.703710
11
336.632965
21
252.339378
0
LINE
8
Calque 1
10
336.632965
20
252.339378
11
336.475660
21
253.117800
0
LINE
8
Calque 1
10
336.475660
20
253.117800
11
336.632855
21
253.896217
0
LINE
8
Calque 1
10
336.632855
20
253.896217
11
337.061511
21
254.531881
0
LINE
8
Calque 1
10
337.061511
20
254.531881
11
337.697237
21
254.960473
0
LINE
8
Calque 1
10
337.697237
20
254.960473
11
338.475640
21
255.117670
0
LINE
8
Calque 1
10
338.475640
20
255.117670
11
338.475640
21
255.117670
0
LINE
8
Calque 1
10
691.771640
20
243.800570
11
692.550199
21
243.643525
0
LINE
8
Calque 1
10
692.550199
20
243.643525
11
693.186005
21
243.214969
0
LINE
8
Calque 1
10
693.186005
20
243.214969
11
693.614691
21
242.579246
0
LINE
8
Calque 1
10
693.614691
20
242.579246
11
693.771890
21
241.800700
0
LINE
8
Calque 1
10
693.771890
20
241.800700
11
693.614728
21
241.021977
0
LINE
8
Calque 1
10
693.614728
20
241.021977
11
693.186103
21
240.386079
0
LINE
8
Calque 1
10
693.186103
20
240.386079
11
692.550309
21
239.957389
0
LINE
8
Calque 1
10
692.550309
20
239.957389
11
691.771640
21
239.800290
0
LINE
8
Calque 1
10
691.771640
20
239.800290
11
690.993091
21
239.957541
0
LINE
8
Calque 1
10
690.993091
20
239.957541
11
690.357316
21
240.386266
0
LINE
8
Calque 1
10
690.357316
20
240.386266
11
689.928709
21
241.022106
0
LINE
8
Calque 1
10
689.928709
20
241.022106
11
689.771660
21
241.800700
0
LINE
8
Calque 1
10
689.771660
20
241.800700
11
689.928818
21
242.579117
0
LINE
8
Calque 1
10
689.928818
20
242.579117
11
690.357414
21
243.214781
0
LINE
8
Calque 1
10
690.357414
20
243.214781
11
690.993127
21
243.643373
0
LINE
8
Calque 1
10
690.993127
20
243.643373
11
691.771640
21
243.800570
0
LINE
8
Calque 1
10
691.771640
20
243.800570
11
691.771640
21
243.800570
0
LINE
8
Calque 1
10
429.997640
20
185.886270
11
430.776002
21
185.729073
0
LINE
8
Calque 1
10
430.776002
20
185.729073
11
431.411639
21
185.300481
0
LINE
8
Calque 1
10
431.411639
20
185.300481
11
431.840206
21
184.664817
0
LINE
8
Calque 1
10
431.840206
20
184.664817
11
431.997360
21
183.886400
0
LINE
8
Calque 1
10
431.997360
20
183.886400
11
431.840206
21
183.107978
0
LINE
8
Calque 1
10
431.840206
20
183.107978
11
431.411639
21
182.472310
0
LINE
8
Calque 1
10
431.411639
20
182.472310
11
430.776002
21
182.043718
0
LINE
8
Calque 1
10
430.776002
20
182.043718
11
429.997640
21
181.886520
0
LINE
8
Calque 1
10
429.997640
20
181.886520
11
429.219122
21
182.043718
0
LINE
8
Calque 1
10
429.219122
20
182.043718
11
428.583405
21
182.472310
0
LINE
8
Calque 1
10
428.583405
20
182.472310
11
428.154808
21
183.107978
0
LINE
8
Calque 1
10
428.154808
20
183.107978
11
427.997650
21
183.886400
0
LINE
8
Calque 1
10
427.997650
20
183.886400
11
428.154808
21
184.664817
0
LINE
8
Calque 1
10
428.154808
20
184.664817
11
428.583405
21
185.300481
0
LINE
8
Calque 1
10
428.583405
20
185.300481
11
429.219122
21
185.729073
0
LINE
8
Calque 1
10
429.219122
20
185.729073
11
429.997640
21
185.886270
0
LINE
8
Calque 1
10
429.997640
20
185.886270
11
429.997640
21
185.886270
0
LINE
8
Calque 1
10
594.836640
20
174.531970
11
595.615116
21
174.374773
0
LINE
8
Calque 1
10
595.615116
20
174.374773
11
596.250769
21
173.946181
0
LINE
8
Calque 1
10
596.250769
20
173.946181
11
596.679352
21
173.310517
0
LINE
8
Calque 1
10
596.679352
20
173.310517
11
596.836620
21
172.532100
0
LINE
8
Calque 1
10
596.836620
20
172.532100
11
596.679462
21
171.753678
0
LINE
8
Calque 1
10
596.679462
20
171.753678
11
596.250866
21
171.118010
0
LINE
8
Calque 1
10
596.250866
20
171.118010
11
595.615153
21
170.689418
0
LINE
8
Calque 1
10
595.615153
20
170.689418
11
594.836640
21
170.532220
0
LINE
8
Calque 1
10
594.836640
20
170.532220
11
594.058085
21
170.689266
0
LINE
8
Calque 1
10
594.058085
20
170.689266
11
593.422279
21
171.117823
0
LINE
8
Calque 1
10
593.422279
20
171.117823
11
592.993590
21
171.753548
0
LINE
8
Calque 1
10
592.993590
20
171.753548
11
592.836390
21
172.532100
0
LINE
8
Calque 1
10
592.836390
20
172.532100
11
592.993590
21
173.310646
0
LINE
8
Calque 1
10
592.993590
20
173.310646
11
593.422279
21
173.946369
0
LINE
8
Calque 1
10
593.422279
20
173.946369
11
594.058085
21
174.374925
0
LINE
8
Calque 1
10
594.058085
20
174.374925
11
594.836640
21
174.531970
0
LINE
8
Calque 1
10
594.836640
20
174.531970
11
594.836640
21
174.531970
0
LINE
8
Calque 1
10
511.186840
20
156.743970
11
511.965505
21
156.586719
0
LINE
8
Calque 1
10
511.965505
20
156.586719
11
512.601270
21
156.157994
0
LINE
8
Calque 1
10
512.601270
20
156.157994
11
513.029818
21
155.522154
0
LINE
8
Calque 1
10
513.029818
20
155.522154
11
513.186830
21
154.743560
0
LINE
8
Calque 1
10
513.186830
20
154.743560
11
513.029672
21
153.965138
0
LINE
8
Calque 1
10
513.029672
20
153.965138
11
512.601075
21
153.329470
0
LINE
8
Calque 1
10
512.601075
20
153.329470
11
511.965358
21
152.900878
0
LINE
8
Calque 1
10
511.965358
20
152.900878
11
511.186840
21
152.743680
0
LINE
8
Calque 1
10
511.186840
20
152.743680
11
510.408478
21
152.900878
0
LINE
8
Calque 1
10
510.408478
20
152.900878
11
509.772841
21
153.329470
0
LINE
8
Calque 1
10
509.772841
20
153.329470
11
509.344274
21
153.965138
0
LINE
8
Calque 1
10
509.344274
20
153.965138
11
509.187120
21
154.743560
0
LINE
8
Calque 1
10
509.187120
20
154.743560
11
509.344238
21
155.522154
0
LINE
8
Calque 1
10
509.344238
20
155.522154
11
509.772744
21
156.157994
0
LINE
8
Calque 1
10
509.772744
20
156.157994
11
510.408368
21
156.586719
0
LINE
8
Calque 1
10
510.408368
20
156.586719
11
511.186840
21
156.743970
0
LINE
8
Calque 1
10
511.186840
20
156.743970
11
511.186840
21
156.743970
0
LINE
8
Calque 1
10
122.867000
20
219.995000
11
122.867000
21
200.805000
0
LINE
8
Calque 1
10
122.867000
20
200.805000
11
127.857530
21
198.138002
0
LINE
8
Calque 1
10
127.857530
20
198.138002
11
140.542275
21
191.838719
0
LINE
8
Calque 1
10
140.542275
20
191.838719
11
149.651031
21
187.582522
0
LINE
8
Calque 1
10
149.651031
20
187.582522
11
160.540603
21
182.724916
0
LINE
8
Calque 1
10
160.540603
20
182.724916
11
173.163413
21
177.368121
0
LINE
8
Calque 1
10
173.163413
20
177.368121
11
187.471881
21
171.614357
0
LINE
8
Calque 1
10
187.471881
20
171.614357
11
203.418429
21
165.565847
0
LINE
8
Calque 1
10
203.418429
20
165.565847
11
220.955476
21
159.324809
0
LINE
8
Calque 1
10
220.955476
20
159.324809
11
240.035445
21
152.993466
0
LINE
8
Calque 1
10
240.035445
20
152.993466
11
260.610756
21
146.674037
0
LINE
8
Calque 1
10
260.610756
20
146.674037
11
282.633830
21
140.468743
0
LINE
8
Calque 1
10
282.633830
20
140.468743
11
294.173410
21
137.440841
0
LINE
8
Calque 1
10
294.173410
20
137.440841
11
306.057088
21
134.479805
0
LINE
8
Calque 1
10
306.057088
20
134.479805
11
318.278917
21
131.598413
0
LINE
8
Calque 1
10
318.278917
20
131.598413
11
330.832951
21
128.809443
0
LINE
8
Calque 1
10
330.832951
20
128.809443
11
343.713240
21
126.125673
0
LINE
8
Calque 1
10
343.713240
20
126.125673
11
356.913839
21
123.559879
0
LINE
8
Calque 1
10
356.913839
20
123.559879
11
370.428799
21
121.124839
0
LINE
8
Calque 1
10
370.428799
20
121.124839
11
384.252174
21
118.833332
0
LINE
8
Calque 1
10
384.252174
20
118.833332
11
398.378015
21
116.698134
0
LINE
8
Calque 1
10
398.378015
20
116.698134
11
412.800376
21
114.732024
0
LINE
8
Calque 1
10
412.800376
20
114.732024
11
427.513309
21
112.947778
0
LINE
8
Calque 1
10
427.513309
20
112.947778
11
442.510866
21
111.358174
0
LINE
8
Calque 1
10
442.510866
20
111.358174
11
457.787101
21
109.975991
0
LINE
8
Calque 1
10
457.787101
20
109.975991
11
473.336066
21
108.814005
0
LINE
8
Calque 1
10
473.336066
20
108.814005
11
489.151814
21
107.884994
0
LINE
8
Calque 1
10
489.151814
20
107.884994
11
505.228396
21
107.201735
0
LINE
8
Calque 1
10
505.228396
20
107.201735
11
521.559867
21
106.777007
0
LINE
8
Calque 1
10
521.559867
20
106.777007
11
538.140278
21
106.623587
0
LINE
8
Calque 1
10
538.140278
20
106.623587
11
554.963681
21
106.754252
0
LINE
8
Calque 1
10
554.963681
20
106.754252
11
572.024131
21
107.181780
0
LINE
8
Calque 1
10
572.024131
20
107.181780
11
589.315679
21
107.918949
0
LINE
8
Calque 1
10
589.315679
20
107.918949
11
606.832377
21
108.978536
0
LINE
8
Calque 1
10
606.832377
20
108.978536
11
624.568279
21
110.373318
0
LINE
8
Calque 1
10
624.568279
20
110.373318
11
642.517437
21
112.116074
0
LINE
8
Calque 1
10
642.517437
20
112.116074
11
660.673904
21
114.219581
0
LINE
8
Calque 1
10
660.673904
20
114.219581
11
679.031732
21
116.696616
0
LINE
8
Calque 1
10
679.031732
20
116.696616
11
697.584974
21
119.559958
0
LINE
8
Calque 1
10
697.584974
20
119.559958
11
716.327682
21
122.822383
0
LINE
8
Calque 1
10
716.327682
20
122.822383
11
735.253910
21
126.496669
0
LINE
8
Calque 1
10
735.253910
20
126.496669
11
754.357709
21
130.595594
0
LINE
8
Calque 1
10
754.357709
20
130.595594
11
773.633133
21
135.131935
0
LINE
8
Calque 1
10
773.633133
20
135.131935
11
793.074233
21
140.118470
0
LINE
8
Calque 1
10
793.074233
20
140.118470
11
812.675063
21
145.567977
0
LINE
8
Calque 1
10
812.675063
20
145.567977
11
832.429676
21
151.493233
0
LINE
8
Calque 1
10
832.429676
20
151.493233
11
852.332123
21
157.907016
0
LINE
8
Calque 1
10
852.332123
20
157.907016
11
872.376458
21
164.822103
0
LINE
8
Calque 1
10
872.376458
20
164.822103
11
892.556733
21
172.251272
0
LINE
8
Calque 1
10
892.556733
20
172.251272
11
912.867000
21
180.207300
0
LINE
8
Calque 1
10
912.867000
20
180.207300
11
912.867000
21
199.162000
0
LINE
8
Calque 1
10
912.867000
20
199.162000
11
912.087803
21
198.831770
0
LINE
8
Calque 1
10
912.087803
20
198.831770
11
894.212064
21
191.838654
0
LINE
8
Calque 1
10
894.212064
20
191.838654
11
876.432974
21
185.255714
0
LINE
8
Calque 1
10
876.432974
20
185.255714
11
858.754758
21
179.074157
0
LINE
8
Calque 1
10
858.754758
20
179.074157
11
841.181639
21
173.285191
0
LINE
8
Calque 1
10
841.181639
20
173.285191
11
823.717841
21
167.880023
0
LINE
8
Calque 1
10
823.717841
20
167.880023
11
806.367589
21
162.849861
0
LINE
8
Calque 1
10
806.367589
20
162.849861
11
789.135106
21
158.185912
0
LINE
8
Calque 1
10
789.135106
20
158.185912
11
772.024616
21
153.879384
0
LINE
8
Calque 1
10
772.024616
20
153.879384
11
755.040342
21
149.921484
0
LINE
8
Calque 1
10
755.040342
20
149.921484
11
738.186509
21
146.303420
0
LINE
8
Calque 1
10
738.186509
20
146.303420
11
721.467341
21
143.016399
0
LINE
8
Calque 1
10
721.467341
20
143.016399
11
704.887061
21
140.051629
0
LINE
8
Calque 1
10
704.887061
20
140.051629
11
688.449893
21
137.400317
0
LINE
8
Calque 1
10
688.449893
20
137.400317
11
672.160062
21
135.053672
0
LINE
8
Calque 1
10
672.160062
20
135.053672
11
656.021790
21
133.002899
0
LINE
8
Calque 1
10
656.021790
20
133.002899
11
640.039303
21
131.239208
0
LINE
8
Calque 1
10
640.039303
20
131.239208
11
624.216823
21
129.753804
0
LINE
8
Calque 1
10
624.216823
20
129.753804
11
608.558575
21
128.537897
0
LINE
8
Calque 1
10
608.558575
20
128.537897
11
593.068783
21
127.582693
0
LINE
8
Calque 1
10
593.068783
20
127.582693
11
577.751670
21
126.879400
0
LINE
8
Calque 1
10
577.751670
20
126.879400
11
562.611461
21
126.419225
0
LINE
8
Calque 1
10
562.611461
20
126.419225
11
547.652378
21
126.193377
0
LINE
8
Calque 1
10
547.652378
20
126.193377
11
532.878647
21
126.193061
0
LINE
8
Calque 1
10
532.878647
20
126.193061
11
518.294491
21
126.409487
0
LINE
8
Calque 1
10
518.294491
20
126.409487
11
503.904133
21
126.833861
0
LINE
8
Calque 1
10
503.904133
20
126.833861
11
489.711798
21
127.457392
0
LINE
8
Calque 1
10
489.711798
20
127.457392
11
475.721710
21
128.271285
0
LINE
8
Calque 1
10
475.721710
20
128.271285
11
461.938092
21
129.266750
0
LINE
8
Calque 1
10
461.938092
20
129.266750
11
448.365169
21
130.434994
0
LINE
8
Calque 1
10
448.365169
20
130.434994
11
435.007163
21
131.767223
0
LINE
8
Calque 1
10
435.007163
20
131.767223
11
421.868300
21
133.254646
0
LINE
8
Calque 1
10
421.868300
20
133.254646
11
408.952803
21
134.888470
0
LINE
8
Calque 1
10
408.952803
20
134.888470
11
392.815610
21
137.170107
0
LINE
8
Calque 1
10
392.815610
20
137.170107
11
377.057182
21
139.657238
0
LINE
8
Calque 1
10
377.057182
20
139.657238
11
361.686274
21
142.331635
0
LINE
8
Calque 1
10
361.686274
20
142.331635
11
346.711645
21
145.175073
0
LINE
8
Calque 1
10
346.711645
20
145.175073
11
332.142050
21
148.169324
0
LINE
8
Calque 1
10
332.142050
20
148.169324
11
317.986246
21
151.296164
0
LINE
8
Calque 1
10
317.986246
20
151.296164
11
304.252989
21
154.537366
0
LINE
8
Calque 1
10
304.252989
20
154.537366
11
290.951037
21
157.874703
0
LINE
8
Calque 1
10
290.951037
20
157.874703
11
278.089146
21
161.289949
0
LINE
8
Calque 1
10
278.089146
20
161.289949
11
265.676073
21
164.764879
0
LINE
8
Calque 1
10
265.676073
20
164.764879
11
253.720574
21
168.281265
0
LINE
8
Calque 1
10
253.720574
20
168.281265
11
242.231407
21
171.820882
0
LINE
8
Calque 1
10
242.231407
20
171.820882
11
220.687090
21
178.896903
0
LINE
8
Calque 1
10
220.687090
20
178.896903
11
201.113178
21
185.847133
0
LINE
8
Calque 1
10
201.113178
20
185.847133
11
183.579723
21
192.525760
0
LINE
8
Calque 1
10
183.579723
20
192.525760
11
168.156778
21
198.786975
0
LINE
8
Calque 1
10
168.156778
20
198.786975
11
154.914396
21
204.484969
0
LINE
8
Calque 1
10
154.914396
20
204.484969
11
143.922631
21
209.473931
0
LINE
8
Calque 1
10
143.922631
20
209.473931
11
135.251536
21
213.608052
0
LINE
8
Calque 1
10
135.251536
20
213.608052
11
128.971164
21
216.741522
0
LINE
8
Calque 1
10
128.971164
20
216.741522
11
123.862803
21
219.423270
0
LINE
8
Calque 1
10
123.862803
20
219.423270
11
122.867000
21
219.995000
0
LINE
8
Calque 1
10
138.517700
20
204.437300
11
139.296252
21
204.280049
0
LINE
8
Calque 1
10
139.296252
20
204.280049
11
139.931977
21
203.851324
0
LINE
8
Calque 1
10
139.931977
20
203.851324
11
140.360534
21
203.215484
0
LINE
8
Calque 1
10
140.360534
20
203.215484
11
140.517580
21
202.436890
0
LINE
8
Calque 1
10
140.517580
20
202.436890
11
140.360383
21
201.658473
0
LINE
8
Calque 1
10
140.360383
20
201.658473
11
139.931790
21
201.022809
0
LINE
8
Calque 1
10
139.931790
20
201.022809
11
139.296122
21
200.594217
0
LINE
8
Calque 1
10
139.296122
20
200.594217
11
138.517700
21
200.437020
0
LINE
8
Calque 1
10
138.517700
20
200.437020
11
137.739279
21
200.594217
0
LINE
8
Calque 1
10
137.739279
20
200.594217
11
137.103606
21
201.022809
0
LINE
8
Calque 1
10
137.103606
20
201.022809
11
136.675010
21
201.658473
0
LINE
8
Calque 1
10
136.675010
20
201.658473
11
136.517820
21
202.436890
0
LINE
8
Calque 1
10
136.517820
20
202.436890
11
136.674857
21
203.215484
0
LINE
8
Calque 1
10
136.674857
20
203.215484
11
137.103415
21
203.851324
0
LINE
8
Calque 1
10
137.103415
20
203.851324
11
137.739145
21
204.280049
0
LINE
8
Calque 1
10
137.739145
20
204.280049
11
138.517700
21
204.437300
0
LINE
8
Calque 1
10
138.517700
20
204.437300
11
138.517700
21
204.437300
0
LINE
8
Calque 1
10
902.204700
20
187.392300
11
902.983066
21
187.235103
0
LINE
8
Calque 1
10
902.983066
20
187.235103
11
903.618731
21
186.806511
0
LINE
8
Calque 1
10
903.618731
20
186.806511
11
904.047375
21
186.170847
0
LINE
8
Calque 1
10
904.047375
20
186.170847
11
904.204680
21
185.392430
0
LINE
8
Calque 1
10
904.204680
20
185.392430
11
904.047485
21
184.614003
0
LINE
8
Calque 1
10
904.047485
20
184.614003
11
903.618828
21
183.978329
0
LINE
8
Calque 1
10
903.618828
20
183.978329
11
902.983102
21
183.549735
0
LINE
8
Calque 1
10
902.983102
20
183.549735
11
902.204700
21
183.392550
0
LINE
8
Calque 1
10
902.204700
20
183.392550
11
901.426141
21
183.549600
0
LINE
8
Calque 1
10
901.426141
20
183.549600
11
900.790306
21
183.978164
0
LINE
8
Calque 1
10
900.790306
20
183.978164
11
900.361541
21
184.613891
0
LINE
8
Calque 1
10
900.361541
20
184.613891
11
900.204190
21
185.392430
0
LINE
8
Calque 1
10
900.204190
20
185.392430
11
900.361431
21
186.170969
0
LINE
8
Calque 1
10
900.361431
20
186.170969
11
900.790208
21
186.806695
0
LINE
8
Calque 1
10
900.790208
20
186.806695
11
901.426104
21
187.235256
0
LINE
8
Calque 1
10
901.426104
20
187.235256
11
902.204700
21
187.392300
0
LINE
8
Calque 1
10
902.204700
20
187.392300
11
902.204700
21
187.392300
0
LINE
8
Calque 1
10
253.182700
20
159.568200
11
253.961405
21
159.411103
0
LINE
8
Calque 1
10
253.961405
20
159.411103
11
254.597260
21
158.982409
0
LINE
8
Calque 1
10
254.597260
20
158.982409
11
255.025897
21
158.346510
0
LINE
8
Calque 1
10
255.025897
20
158.346510
11
255.182950
21
157.567800
0
LINE
8
Calque 1
10
255.182950
20
157.567800
11
255.025751
21
156.789248
0
LINE
8
Calque 1
10
255.025751
20
156.789248
11
254.597065
21
156.153522
0
LINE
8
Calque 1
10
254.597065
20
156.153522
11
253.961259
21
155.724966
0
LINE
8
Calque 1
10
253.961259
20
155.724966
11
253.182700
21
155.567920
0
LINE
8
Calque 1
10
253.182700
20
155.567920
11
252.404187
21
155.725117
0
LINE
8
Calque 1
10
252.404187
20
155.725117
11
251.768474
21
156.153710
0
LINE
8
Calque 1
10
251.768474
20
156.153710
11
251.339878
21
156.789378
0
LINE
8
Calque 1
10
251.339878
20
156.789378
11
251.182720
21
157.567800
0
LINE
8
Calque 1
10
251.182720
20
157.567800
11
251.339878
21
158.346388
0
LINE
8
Calque 1
10
251.339878
20
158.346388
11
251.768474
21
158.982225
0
LINE
8
Calque 1
10
251.768474
20
158.982225
11
252.404187
21
159.410949
0
LINE
8
Calque 1
10
252.404187
20
159.410949
11
253.182700
21
159.568200
0
LINE
8
Calque 1
10
253.182700
20
159.568200
11
253.182700
21
159.568200
0
LINE
8
Calque 1
10
759.963700
20
144.128800
11
760.742214
21
143.971549
0
LINE
8
Calque 1
10
760.742214
20
143.971549
11
761.377901
21
143.542825
0
LINE
8
Calque 1
10
761.377901
20
143.542825
11
761.806418
21
142.906988
0
LINE
8
Calque 1
10
761.806418
20
142.906988
11
761.963420
21
142.128400
0
LINE
8
Calque 1
10
761.963420
20
142.128400
11
761.806266
21
141.349977
0
LINE
8
Calque 1
10
761.806266
20
141.349977
11
761.377699
21
140.714310
0
LINE
8
Calque 1
10
761.377699
20
140.714310
11
760.742062
21
140.285717
0
LINE
8
Calque 1
10
760.742062
20
140.285717
11
759.963700
21
140.128520
0
LINE
8
Calque 1
10
759.963700
20
140.128520
11
759.185225
21
140.285717
0
LINE
8
Calque 1
10
759.185225
20
140.285717
11
758.549575
21
140.714310
0
LINE
8
Calque 1
10
758.549575
20
140.714310
11
758.120992
21
141.349977
0
LINE
8
Calque 1
10
758.120992
20
141.349977
11
757.963720
21
142.128400
0
LINE
8
Calque 1
10
757.963720
20
142.128400
11
758.120878
21
142.906988
0
LINE
8
Calque 1
10
758.120878
20
142.906988
11
758.549474
21
143.542825
0
LINE
8
Calque 1
10
758.549474
20
143.542825
11
759.185187
21
143.971549
0
LINE
8
Calque 1
10
759.185187
20
143.971549
11
759.963700
21
144.128800
0
LINE
8
Calque 1
10
759.963700
20
144.128800
11
759.963700
21
144.128800
0
LINE
8
Calque 1
10
412.608700
20
124.557900
11
413.387255
21
124.400650
0
LINE
8
Calque 1
10
413.387255
20
124.400650
11
414.023031
21
123.971927
0
LINE
8
Calque 1
10
414.023031
20
123.971927
11
414.451637
21
123.336097
0
LINE
8
Calque 1
10
414.451637
20
123.336097
11
414.608680
21
122.557520
0
LINE
8
Calque 1
10
414.608680
20
122.557520
11
414.451523
21
121.779097
0
LINE
8
Calque 1
10
414.451523
20
121.779097
11
414.022930
21
121.143430
0
LINE
8
Calque 1
10
414.022930
20
121.143430
11
413.387217
21
120.714837
0
LINE
8
Calque 1
10
413.387217
20
120.714837
11
412.608700
21
120.557640
0
LINE
8
Calque 1
10
412.608700
20
120.557640
11
411.830338
21
120.714837
0
LINE
8
Calque 1
10
411.830338
20
120.714837
11
411.194701
21
121.143430
0
LINE
8
Calque 1
10
411.194701
20
121.143430
11
410.766134
21
121.779097
0
LINE
8
Calque 1
10
410.766134
20
121.779097
11
410.608980
21
122.557520
0
LINE
8
Calque 1
10
410.608980
20
122.557520
11
410.766098
21
123.336097
0
LINE
8
Calque 1
10
410.766098
20
123.336097
11
411.194604
21
123.971927
0
LINE
8
Calque 1
10
411.194604
20
123.971927
11
411.830228
21
124.400650
0
LINE
8
Calque 1
10
411.830228
20
124.400650
11
412.608700
21
124.557900
0
LINE
8
Calque 1
10
412.608700
20
124.557900
11
412.608700
21
124.557900
0
LINE
8
Calque 1
10
589.748700
20
118.123660
11
590.527067
21
117.966467
0
LINE
8
Calque 1
10
590.527067
20
117.966467
11
591.162733
21
117.537875
0
LINE
8
Calque 1
10
591.162733
20
117.537875
11
591.591380
21
116.902208
0
LINE
8
Calque 1
10
591.591380
20
116.902208
11
591.748690
21
116.123790
0
LINE
8
Calque 1
10
591.748690
20
116.123790
11
591.591494
21
115.345367
0
LINE
8
Calque 1
10
591.591494
20
115.345367
11
591.162834
21
114.709700
0
LINE
8
Calque 1
10
591.162834
20
114.709700
11
590.527105
21
114.281107
0
LINE
8
Calque 1
10
590.527105
20
114.281107
11
589.748700
21
114.123910
0
LINE
8
Calque 1
10
589.748700
20
114.123910
11
588.970334
21
114.281107
0
LINE
8
Calque 1
10
588.970334
20
114.281107
11
588.334669
21
114.709700
0
LINE
8
Calque 1
10
588.334669
20
114.709700
11
587.906025
21
115.345367
0
LINE
8
Calque 1
10
587.906025
20
115.345367
11
587.748720
21
116.123790
0
LINE
8
Calque 1
10
587.748720
20
116.123790
11
587.905915
21
116.902208
0
LINE
8
Calque 1
10
587.905915
20
116.902208
11
588.334571
21
117.537875
0
LINE
8
Calque 1
10
588.334571
20
117.537875
11
588.970297
21
117.966467
0
LINE
8
Calque 1
10
588.970297
20
117.966467
11
589.748700
21
118.123660
0
LINE
8
Calque 1
10
589.748700
20
118.123660
11
589.748700
21
118.123660
0
LINE
8
Calque 1
10
122.867000
20
180.221000
11
122.867000
21
161.031000
0
LINE
8
Calque 1
10
122.867000
20
161.031000
11
127.857530
21
158.364002
0
LINE
8
Calque 1
10
127.857530
20
158.364002
11
140.542275
21
152.064719
0
LINE
8
Calque 1
10
140.542275
20
152.064719
11
149.651031
21
147.808522
0
LINE
8
Calque 1
10
149.651031
20
147.808522
11
160.540603
21
142.950916
0
LINE
8
Calque 1
10
160.540603
20
142.950916
11
173.163413
21
137.594121
0
LINE
8
Calque 1
10
173.163413
20
137.594121
11
187.471881
21
131.840357
0
LINE
8
Calque 1
10
187.471881
20
131.840357
11
203.418429
21
125.791847
0
LINE
8
Calque 1
10
203.418429
20
125.791847
11
220.955476
21
119.550809
0
LINE
8
Calque 1
10
220.955476
20
119.550809
11
240.035445
21
113.219466
0
LINE
8
Calque 1
10
240.035445
20
113.219466
11
260.610756
21
106.900037
0
LINE
8
Calque 1
10
260.610756
20
106.900037
11
282.633830
21
100.694743
0
LINE
8
Calque 1
10
282.633830
20
100.694743
11
294.173410
21
97.666841
0
LINE
8
Calque 1
10
294.173410
20
97.666841
11
306.057088
21
94.705805
0
LINE
8
Calque 1
10
306.057088
20
94.705805
11
318.278917
21
91.824413
0
LINE
8
Calque 1
10
318.278917
20
91.824413
11
330.832951
21
89.035443
0
LINE
8
Calque 1
10
330.832951
20
89.035443
11
343.713240
21
86.351673
0
LINE
8
Calque 1
10
343.713240
20
86.351673
11
356.913839
21
83.785879
0
LINE
8
Calque 1
10
356.913839
20
83.785879
11
370.428799
21
81.350839
0
LINE
8
Calque 1
10
370.428799
20
81.350839
11
384.252174
21
79.059332
0
LINE
8
Calque 1
10
384.252174
20
79.059332
11
398.378015
21
76.924134
0
LINE
8
Calque 1
10
398.378015
20
76.924134
11
412.800376
21
74.958024
0
LINE
8
Calque 1
10
412.800376
20
74.958024
11
427.513309
21
73.173778
0
LINE
8
Calque 1
10
427.513309
20
73.173778
11
442.510866
21
71.584174
0
LINE
8
Calque 1
10
442.510866
20
71.584174
11
457.787101
21
70.201991
0
LINE
8
Calque 1
10
457.787101
20
70.201991
11
473.336066
21
69.040005
0
LINE
8
Calque 1
10
473.336066
20
69.040005
11
489.151814
21
68.110994
0
LINE
8
Calque 1
10
489.151814
20
68.110994
11
505.228396
21
67.427735
0
LINE
8
Calque 1
10
505.228396
20
67.427735
11
521.559867
21
67.003007
0
LINE
8
Calque 1
10
521.559867
20
67.003007
11
538.140278
21
66.849587
0
LINE
8
Calque 1
10
538.140278
20
66.849587
11
554.963681
21
66.980252
0
LINE
8
Calque 1
10
554.963681
20
66.980252
11
572.024131
21
67.407780
0
LINE
8
Calque 1
10
572.024131
20
67.407780
11
589.315679
21
68.144949
0
LINE
8
Calque 1
10
589.315679
20
68.144949
11
606.832377
21
69.204536
0
LINE
8
Calque 1
10
606.832377
20
69.204536
11
624.568279
21
70.599318
0
LINE
8
Calque 1
10
624.568279
20
70.599318
11
642.517437
21
72.342074
0
LINE
8
Calque 1
10
642.517437
20
72.342074
11
660.673904
21
74.445581
0
LINE
8
Calque 1
10
660.673904
20
74.445581
11
679.031732
21
76.922616
0
LINE
8
Calque 1
10
679.031732
20
76.922616
11
697.584974
21
79.785958
0
LINE
8
Calque 1
10
697.584974
20
79.785958
11
716.327682
21
83.048383
0
LINE
8
Calque 1
10
716.327682
20
83.048383
11
735.253910
21
86.722669
0
LINE
8
Calque 1
10
735.253910
20
86.722669
11
754.357709
21
90.821594
0
LINE
8
Calque 1
10
754.357709
20
90.821594
11
773.633133
21
95.357935
0
LINE
8
Calque 1
10
773.633133
20
95.357935
11
793.074233
21
100.344470
0
LINE
8
Calque 1
10
793.074233
20
100.344470
11
812.675063
21
105.793977
0
LINE
8
Calque 1
10
812.675063
20
105.793977
11
832.429676
21
111.719233
0
LINE
8
Calque 1
10
832.429676
20
111.719233
11
852.332123
21
118.133016
0
LINE
8
Calque 1
10
852.332123
20
118.133016
11
872.376458
21
125.048103
0
LINE
8
Calque 1
10
872.376458
20
125.048103
11
892.556733
21
132.477272
0
LINE
8
Calque 1
10
892.556733
20
132.477272
11
912.867000
21
140.433300
0
LINE
8
Calque 1
10
912.867000
20
140.433300
11
912.867000
21
159.389000
0
LINE
8
Calque 1
10
912.867000
20
159.389000
11
912.087803
21
159.058770
0
LINE
8
Calque 1
10
912.087803
20
159.058770
11
894.212064
21
152.065654
0
LINE
8
Calque 1
10
894.212064
20
152.065654
11
876.432974
21
145.482714
0
LINE
8
Calque 1
10
876.432974
20
145.482714
11
858.754758
21
139.301157
0
LINE
8
Calque 1
10
858.754758
20
139.301157
11
841.181639
21
133.512191
0
LINE
8
Calque 1
10
841.181639
20
133.512191
11
823.717841
21
128.107023
0
LINE
8
Calque 1
10
823.717841
20
128.107023
11
806.367589
21
123.076861
0
LINE
8
Calque 1
10
806.367589
20
123.076861
11
789.135106
21
118.412912
0
LINE
8
Calque 1
10
789.135106
20
118.412912
11
772.024616
21
114.106384
0
LINE
8
Calque 1
10
772.024616
20
114.106384
11
755.040342
21
110.148484
0
LINE
8
Calque 1
10
755.040342
20
110.148484
11
738.186509
21
106.530420
0
LINE
8
Calque 1
10
738.186509
20
106.530420
11
721.467341
21
103.243399
0
LINE
8
Calque 1
10
721.467341
20
103.243399
11
704.887061
21
100.278629
0
LINE
8
Calque 1
10
704.887061
20
100.278629
11
688.449893
21
97.627317
0
LINE
8
Calque 1
10
688.449893
20
97.627317
11
672.160062
21
95.280672
0
LINE
8
Calque 1
10
672.160062
20
95.280672
11
656.021790
21
93.229899
0
LINE
8
Calque 1
10
656.021790
20
93.229899
11
640.039303
21
91.466208
0
LINE
8
Calque 1
10
640.039303
20
91.466208
11
624.216823
21
89.980804
0
LINE
8
Calque 1
10
624.216823
20
89.980804
11
608.558575
21
88.764897
0
LINE
8
Calque 1
10
608.558575
20
88.764897
11
593.068783
21
87.809693
0
LINE
8
Calque 1
10
593.068783
20
87.809693
11
577.751670
21
87.106400
0
LINE
8
Calque 1
10
577.751670
20
87.106400
11
562.611461
21
86.646225
0
LINE
8
Calque 1
10
562.611461
20
86.646225
11
547.652378
21
86.420377
0
LINE
8
Calque 1
10
547.652378
20
86.420377
11
532.878647
21
86.420061
0
LINE
8
Calque 1
10
532.878647
20
86.420061
11
518.294491
21
86.636487
0
LINE
8
Calque 1
10
518.294491
20
86.636487
11
503.904133
21
87.060861
0
LINE
8
Calque 1
10
503.904133
20
87.060861
11
489.711798
21
87.684392
0
LINE
8
Calque 1
10
489.711798
20
87.684392
11
475.721710
21
88.498285
0
LINE
8
Calque 1
10
475.721710
20
88.498285
11
461.938092
21
89.493750
0
LINE
8
Calque 1
10
461.938092
20
89.493750
11
448.365169
21
90.661994
0
LINE
8
Calque 1
10
448.365169
20
90.661994
11
435.007163
21
91.994223
0
LINE
8
Calque 1
10
435.007163
20
91.994223
11
421.868300
21
93.481646
0
LINE
8
Calque 1
10
421.868300
20
93.481646
11
408.952803
21
95.115470
0
LINE
8
Calque 1
10
408.952803
20
95.115470
11
392.815610
21
97.397107
0
LINE
8
Calque 1
10
392.815610
20
97.397107
11
377.057182
21
99.884238
0
LINE
8
Calque 1
10
377.057182
20
99.884238
11
361.686274
21
102.558635
0
LINE
8
Calque 1
10
361.686274
20
102.558635
11
346.711645
21
105.402073
0
LINE
8
Calque 1
10
346.711645
20
105.402073
11
332.142050
21
108.396324
0
LINE
8
Calque 1
10
332.142050
20
108.396324
11
317.986246
21
111.523164
0
LINE
8
Calque 1
10
317.986246
20
111.523164
11
304.252989
21
114.764366
0
LINE
8
Calque 1
10
304.252989
20
114.764366
11
290.951037
21
118.101703
0
LINE
8
Calque 1
10
290.951037
20
118.101703
11
278.089146
21
121.516949
0
LINE
8
Calque 1
10
278.089146
20
121.516949
11
265.676073
21
124.991879
0
LINE
8
Calque 1
10
265.676073
20
124.991879
11
253.720574
21
128.508265
0
LINE
8
Calque 1
10
253.720574
20
128.508265
11
242.231407
21
132.047882
0
LINE
8
Calque 1
10
242.231407
20
132.047882
11
220.687090
21
139.123903
0
LINE
8
Calque 1
10
220.687090
20
139.123903
11
201.113178
21
146.074133
0
LINE
8
Calque 1
10
201.113178
20
146.074133
11
183.579723
21
152.752760
0
LINE
8
Calque 1
10
183.579723
20
152.752760
11
168.156778
21
159.013975
0
LINE
8
Calque 1
10
168.156778
20
159.013975
11
154.914396
21
164.711969
0
LINE
8
Calque 1
10
154.914396
20
164.711969
11
143.922631
21
169.700931
0
LINE
8
Calque 1
10
143.922631
20
169.700931
11
135.251536
21
173.835052
0
LINE
8
Calque 1
10
135.251536
20
173.835052
11
128.971164
21
176.968522
0
LINE
8
Calque 1
10
128.971164
20
176.968522
11
123.862803
21
179.650270
0
LINE
8
Calque 1
10
123.862803
20
179.650270
11
122.867000
21
180.221000
0
LINE
8
Calque 1
10
138.517700
20
164.663300
11
139.296252
21
164.506049
0
LINE
8
Calque 1
10
139.296252
20
164.506049
11
139.931977
21
164.077324
0
LINE
8
Calque 1
10
139.931977
20
164.077324
11
140.360534
21
163.441484
0
LINE
8
Calque 1
10
140.360534
20
163.441484
11
140.517580
21
162.662890
0
LINE
8
Calque 1
10
140.517580
20
162.662890
11
140.360383
21
161.884473
0
LINE
8
Calque 1
10
140.360383
20
161.884473
11
139.931790
21
161.248809
0
LINE
8
Calque 1
10
139.931790
20
161.248809
11
139.296122
21
160.820217
0
LINE
8
Calque 1
10
139.296122
20
160.820217
11
138.517700
21
160.663020
0
LINE
8
Calque 1
10
138.517700
20
160.663020
11
137.739279
21
160.820217
0
LINE
8
Calque 1
10
137.739279
20
160.820217
11
137.103606
21
161.248809
0
LINE
8
Calque 1
10
137.103606
20
161.248809
11
136.675010
21
161.884473
0
LINE
8
Calque 1
10
136.675010
20
161.884473
11
136.517820
21
162.662890
0
LINE
8
Calque 1
10
136.517820
20
162.662890
11
136.674857
21
163.441484
0
LINE
8
Calque 1
10
136.674857
20
163.441484
11
137.103415
21
164.077324
0
LINE
8
Calque 1
10
137.103415
20
164.077324
11
137.739145
21
164.506049
0
LINE
8
Calque 1
10
137.739145
20
164.506049
11
138.517700
21
164.663300
0
LINE
8
Calque 1
10
138.517700
20
164.663300
11
138.517700
21
164.663300
0
LINE
8
Calque 1
10
902.204700
20
147.618300
11
902.983066
21
147.461101
0
LINE
8
Calque 1
10
902.983066
20
147.461101
11
903.618731
21
147.032506
0
LINE
8
Calque 1
10
903.618731
20
147.032506
11
904.047375
21
146.396838
0
LINE
8
Calque 1
10
904.047375
20
146.396838
11
904.204680
21
145.618420
0
LINE
8
Calque 1
10
904.204680
20
145.618420
11
904.047485
21
144.839993
0
LINE
8
Calque 1
10
904.047485
20
144.839993
11
903.618828
21
144.204319
0
LINE
8
Calque 1
10
903.618828
20
144.204319
11
902.983102
21
143.775725
0
LINE
8
Calque 1
10
902.983102
20
143.775725
11
902.204700
21
143.618540
0
LINE
8
Calque 1
10
902.204700
20
143.618540
11
901.426141
21
143.775590
0
LINE
8
Calque 1
10
901.426141
20
143.775590
11
900.790306
21
144.204154
0
LINE
8
Calque 1
10
900.790306
20
144.204154
11
900.361541
21
144.839881
0
LINE
8
Calque 1
10
900.361541
20
144.839881
11
900.204190
21
145.618420
0
LINE
8
Calque 1
10
900.204190
20
145.618420
11
900.361431
21
146.396959
0
LINE
8
Calque 1
10
900.361431
20
146.396959
11
900.790208
21
147.032686
0
LINE
8
Calque 1
10
900.790208
20
147.032686
11
901.426104
21
147.461250
0
LINE
8
Calque 1
10
901.426104
20
147.461250
11
902.204700
21
147.618300
0
LINE
8
Calque 1
10
902.204700
20
147.618300
11
902.204700
21
147.618300
0
LINE
8
Calque 1
10
253.182700
20
119.794200
11
253.961405
21
119.637103
0
LINE
8
Calque 1
10
253.961405
20
119.637103
11
254.597260
21
119.208409
0
LINE
8
Calque 1
10
254.597260
20
119.208409
11
255.025897
21
118.572510
0
LINE
8
Calque 1
10
255.025897
20
118.572510
11
255.182950
21
117.793800
0
LINE
8
Calque 1
10
255.182950
20
117.793800
11
255.025751
21
117.015248
0
LINE
8
Calque 1
10
255.025751
20
117.015248
11
254.597065
21
116.379522
0
LINE
8
Calque 1
10
254.597065
20
116.379522
11
253.961259
21
115.950966
0
LINE
8
Calque 1
10
253.961259
20
115.950966
11
253.182700
21
115.793920
0
LINE
8
Calque 1
10
253.182700
20
115.793920
11
252.404187
21
115.951117
0
LINE
8
Calque 1
10
252.404187
20
115.951117
11
251.768474
21
116.379710
0
LINE
8
Calque 1
10
251.768474
20
116.379710
11
251.339878
21
117.015377
0
LINE
8
Calque 1
10
251.339878
20
117.015377
11
251.182720
21
117.793800
0
LINE
8
Calque 1
10
251.182720
20
117.793800
11
251.339878
21
118.572394
0
LINE
8
Calque 1
10
251.339878
20
118.572394
11
251.768474
21
119.208232
0
LINE
8
Calque 1
10
251.768474
20
119.208232
11
252.404187
21
119.636955
0
LINE
8
Calque 1
10
252.404187
20
119.636955
11
253.182700
21
119.794200
0
LINE
8
Calque 1
10
253.182700
20
119.794200
11
253.182700
21
119.794200
0
LINE
8
Calque 1
10
759.963700
20
104.354800
11
760.742214
21
104.197549
0
LINE
8
Calque 1
10
760.742214
20
104.197549
11
761.377901
21
103.768825
0
LINE
8
Calque 1
10
761.377901
20
103.768825
11
761.806418
21
103.132988
0
LINE
8
Calque 1
10
761.806418
20
103.132988
11
761.963420
21
102.354400
0
LINE
8
Calque 1
10
761.963420
20
102.354400
11
761.806266
21
101.575977
0
LINE
8
Calque 1
10
761.806266
20
101.575977
11
761.377699
21
100.940310
0
LINE
8
Calque 1
10
761.377699
20
100.940310
11
760.742062
21
100.511717
0
LINE
8
Calque 1
10
760.742062
20
100.511717
11
759.963700
21
100.354520
0
LINE
8
Calque 1
10
759.963700
20
100.354520
11
759.185225
21
100.511717
0
LINE
8
Calque 1
10
759.185225
20
100.511717
11
758.549575
21
100.940310
0
LINE
8
Calque 1
10
758.549575
20
100.940310
11
758.120992
21
101.575977
0
LINE
8
Calque 1
10
758.120992
20
101.575977
11
757.963720
21
102.354400
0
LINE
8
Calque 1
10
757.963720
20
102.354400
11
758.120878
21
103.132988
0
LINE
8
Calque 1
10
758.120878
20
103.132988
11
758.549474
21
103.768825
0
LINE
8
Calque 1
10
758.549474
20
103.768825
11
759.185187
21
104.197549
0
LINE
8
Calque 1
10
759.185187
20
104.197549
11
759.963700
21
104.354800
0
LINE
8
Calque 1
10
759.963700
20
104.354800
11
759.963700
21
104.354800
0
LINE
8
Calque 1
10
412.608700
20
84.783900
11
413.387255
21
84.626650
0
LINE
8
Calque 1
10
413.387255
20
84.626650
11
414.023031
21
84.197927
0
LINE
8
Calque 1
10
414.023031
20
84.197927
11
414.451637
21
83.562097
0
LINE
8
Calque 1
10
414.451637
20
83.562097
11
414.608680
21
82.783520
0
LINE
8
Calque 1
10
414.608680
20
82.783520
11
414.451523
21
82.005102
0
LINE
8
Calque 1
10
414.451523
20
82.005102
11
414.022930
21
81.369434
0
LINE
8
Calque 1
10
414.022930
20
81.369434
11
413.387217
21
80.940839
0
LINE
8
Calque 1
10
413.387217
20
80.940839
11
412.608700
21
80.783640
0
LINE
8
Calque 1
10
412.608700
20
80.783640
11
411.830338
21
80.940839
0
LINE
8
Calque 1
10
411.830338
20
80.940839
11
411.194701
21
81.369434
0
LINE
8
Calque 1
10
411.194701
20
81.369434
11
410.766134
21
82.005102
0
LINE
8
Calque 1
10
410.766134
20
82.005102
11
410.608980
21
82.783520
0
LINE
8
Calque 1
10
410.608980
20
82.783520
11
410.766098
21
83.562097
0
LINE
8
Calque 1
10
410.766098
20
83.562097
11
411.194604
21
84.197927
0
LINE
8
Calque 1
10
411.194604
20
84.197927
11
411.830228
21
84.626650
0
LINE
8
Calque 1
10
411.830228
20
84.626650
11
412.608700
21
84.783900
0
LINE
8
Calque 1
10
412.608700
20
84.783900
11
412.608700
21
84.783900
0
LINE
8
Calque 1
10
589.748700
20
78.349670
11
590.527067
21
78.192471
0
LINE
8
Calque 1
10
590.527067
20
78.192471
11
591.162733
21
77.763876
0
LINE
8
Calque 1
10
591.162733
20
77.763876
11
591.591380
21
77.128208
0
LINE
8
Calque 1
10
591.591380
20
77.128208
11
591.748690
21
76.349790
0
LINE
8
Calque 1
10
591.748690
20
76.349790
11
591.591494
21
75.571367
0
LINE
8
Calque 1
10
591.591494
20
75.571367
11
591.162834
21
74.935700
0
LINE
8
Calque 1
10
591.162834
20
74.935700
11
590.527105
21
74.507107
0
LINE
8
Calque 1
10
590.527105
20
74.507107
11
589.748700
21
74.349910
0
LINE
8
Calque 1
10
589.748700
20
74.349910
11
588.970334
21
74.507107
0
LINE
8
Calque 1
10
588.970334
20
74.507107
11
588.334669
21
74.935700
0
LINE
8
Calque 1
10
588.334669
20
74.935700
11
587.906025
21
75.571367
0
LINE
8
Calque 1
10
587.906025
20
75.571367
11
587.748720
21
76.349790
0
LINE
8
Calque 1
10
587.748720
20
76.349790
11
587.905915
21
77.128208
0
LINE
8
Calque 1
10
587.905915
20
77.128208
11
588.334571
21
77.763876
0
LINE
8
Calque 1
10
588.334571
20
77.763876
11
588.970297
21
78.192471
0
LINE
8
Calque 1
10
588.970297
20
78.192471
11
589.748700
21
78.349670
0
LINE
8
Calque 1
10
589.748700
20
78.349670
11
589.748700
21
78.349670
 0 
ENDSEC
 0 
EOF