<?xml version="1.0" encoding="UTF-8" standalone="no"?>
<!-- Created with Inkscape (http://www.inkscape.org/) -->

<svg
   width="1748.3124mm"
   height="649.99963mm"
   viewBox="0 0 1748.3124 649.99963"
   version="1.1"
   id="svg5713"
   inkscape:version="1.2.2 (b0a8486541, 2022-12-01)"
   sodipodi:docname="periodemalheureuse-plexi.svg"
   xmlns:inkscape="http://www.inkscape.org/namespaces/inkscape"
   xmlns:sodipodi="http://sodipodi.sourceforge.net/DTD/sodipodi-0.dtd"
   xmlns="http://www.w3.org/2000/svg"
   xmlns:svg="http://www.w3.org/2000/svg">
  <sodipodi:namedview
     id="namedview5715"
     pagecolor="#ffffff"
     bordercolor="#000000"
     borderopacity="0.25"
     inkscape:showpageshadow="2"
     inkscape:pageopacity="0.0"
     inkscape:pagecheckerboard="0"
     inkscape:deskcolor="#d1d1d1"
     inkscape:document-units="mm"
     showgrid="false"
     inkscape:zoom="0.13952909"
     inkscape:cx="3357.7227"
     inkscape:cy="1196.883"
     inkscape:window-width="1920"
     inkscape:window-height="1011"
     inkscape:window-x="0"
     inkscape:window-y="1112"
     inkscape:window-maximized="1"
     inkscape:current-layer="layer1" />
  <defs
     id="defs5710" />
  <g
     inkscape:label="Calque 1"
     inkscape:groupmode="layer"
     id="layer1"
     transform="translate(817.0021,176.4998)">
    <path
       id="rect429846-6"
       style="font-variation-settings:normal;display:inline;vector-effect:none;fill:#6699ff;fill-opacity:1;fill-rule:evenodd;stroke:none;stroke-width:0.999999;stroke-linecap:butt;stroke-linejoin:miter;stroke-miterlimit:4;stroke-dasharray:none;stroke-dashoffset:0;stroke-opacity:1;-inkscape-stroke:none;stop-color:#000000"
       d="M 131.3105,-176.4998 V 473.49981 H 931.31022 V -176.4998 Z m 32.96799,215.847288 c 1.10469,7.9e-5 2.00009,0.895719 1.99988,2.000406 -8e-5,1.104476 -0.8954,1.999798 -1.99988,1.999877 -1.10469,2.12e-4 -2.0003,-0.89519 -2.00038,-1.999877 -2.1e-4,-1.104872 0.89548,-2.000618 2.00038,-2.000406 z m 747.92434,11.62411 c 1.10463,8e-5 2.00051,0.895402 2.00051,1.999877 0,1.104476 -0.89588,1.999798 -2.00051,1.999877 -1.10437,-7.9e-5 -1.99919,-0.895401 -1.99919,-1.999877 0,-1.104475 0.89482,-1.999797 1.99919,-1.999877 z m -98.41059,2.042237 c 1.10437,7.9e-5 1.99945,0.895402 1.99945,1.999877 0,1.104687 -0.89482,2.000327 -1.99945,2.000406 -1.10464,-5.3e-5 -1.99999,-0.895719 -1.99972,-2.000406 0,-1.104475 0.89508,-1.999824 1.99972,-1.999877 z m -562.42038,2.497531 c 1.10463,8e-5 2.00051,0.895402 2.00051,1.999877 0,1.104476 -0.89588,1.999798 -2.00051,1.999877 -1.10464,2.12e-4 -1.99972,-0.89519 -1.99972,-1.999877 0,-1.104687 0.89508,-2.000088 1.99972,-1.999877 z m 89.06234,49.697744 c 1.10463,-2.2e-4 1.99998,0.89519 2.00025,1.99987 0,1.10468 -0.89562,2.00009 -2.00025,1.99988 -1.10437,-8e-5 -2.00025,-0.89541 -2.00051,-1.99988 0,-1.10447 0.89614,-1.9998 2.00051,-1.99987 z m 353.29609,11.31713 c 1.10464,-2.1e-4 1.99999,0.8952 1.99999,1.99988 0,1.10489 -0.89509,2.00061 -1.99999,2.0004 -1.10463,-8e-5 -1.99998,-0.89572 -1.99972,-2.0004 0,-1.10447 0.89509,-1.9998 1.99972,-1.99988 z m -261.77366,57.9143 c 1.10437,8e-5 1.99946,0.8954 1.99946,1.99988 0,1.10447 -0.89509,1.9998 -1.99946,1.99988 -1.10463,-8e-5 -1.99971,-0.89541 -1.99971,-1.99988 0,-1.10448 0.89508,-1.9998 1.99971,-1.99988 z m 164.83918,11.35435 c 1.10464,7e-5 1.99946,0.8954 1.99972,1.99987 0,1.10448 -0.89508,1.9998 -1.99972,1.99988 -1.10463,2.1e-4 -2.00051,-0.89519 -2.00051,-1.99988 0,-1.10468 0.89588,-2.00009 2.00051,-1.99987 z m -83.65029,17.78806 c 1.10489,8e-5 2.00077,0.89571 2.00051,2.00039 0,1.10448 -0.89588,1.9998 -2.00051,1.99988 -1.10437,-8e-5 -1.99919,-0.8954 -1.99919,-1.99988 0,-1.10468 0.89455,-2.00031 1.99919,-2.00039 z m -361.18411,39.23533 c 1.10469,8e-5 2.00009,0.89571 1.99988,2.00039 -8e-5,1.10448 -0.8954,1.9998 -1.99988,1.99988 -1.10447,-8e-5 -1.99982,-0.8954 -1.99988,-1.99988 -2.3e-4,-1.10468 0.89519,-2.00031 1.99988,-2.00039 z m 763.68682,17.04495 c 1.10436,8e-5 1.99971,0.89541 1.99971,1.99988 0,1.10447 -0.89535,1.99983 -1.99971,1.99988 -1.10464,2.1e-4 -2.00105,-0.89522 -2.00105,-1.99988 0,-1.10466 0.89641,-2.00009 2.00105,-1.99988 z m -649.02237,27.82415 c 1.1049,-2.2e-4 1.99972,0.89552 1.99972,2.00039 0,1.10469 -0.89508,2.00009 -1.99972,1.99988 -1.10463,-8e-5 -1.99998,-0.89541 -1.99998,-1.99988 0,-1.10468 0.89535,-2.00032 1.99998,-2.00039 z m 506.78096,15.43936 c 1.10463,8e-5 1.99919,0.89571 1.99919,2.0004 0,1.10447 -0.89482,1.9998 -1.99919,1.99988 -1.10464,-8e-5 -1.99999,-0.89541 -1.99999,-1.99988 0,-1.10469 0.89535,-2.00032 1.99999,-2.0004 z m -347.35462,19.5709 c 1.10463,8e-5 1.99998,0.89574 1.99998,2.0004 0,1.10447 -0.89535,1.99979 -1.99998,1.99987 -1.10437,-8e-5 -1.99998,-0.8954 -1.99998,-1.99987 0,-1.10466 0.89535,-2.00032 1.99998,-2.0004 z m 177.14017,6.43423 c 1.10437,8e-5 1.99972,0.89541 1.99972,1.99988 0,1.10447 -0.89535,1.9998 -1.99972,1.99988 -1.10437,-8e-5 -2.00025,-0.89541 -2.00051,-1.99988 0,-1.10447 0.89614,-1.9998 2.00051,-1.99988 z" />
    <path
       d="m -645.76471,98.115379 c -22.67116,-0.332449 -35.57741,3.656241 -36.88506,4.078311 v 22.59914 l 0.78237,-0.26717 c 0,0 22.83365,-7.85105 62.74694,-1.71257 39.91367,6.13864 96.70165,26.33982 163.94092,82.88278 67.63932,56.87942 118.67209,82.28532 168.62536,79.79049 49.95354,-2.49486 98.18358,-32.7947 160.43625,-86.0919 61.825639,-52.93151 120.0405185,-68.62205 162.814857,-71.16514 42.774604,-2.54307 69.929553,8.03824 69.929553,8.03824 l 0.72363,0.28112 v -22.6477 c -1.92246,-0.72157 -28.913628,-10.5608 -70.890779,-8.06512 -43.5352825,2.58818 -103.764692,18.6345 -166.236971,72.1196 -62.04498,53.11942 -108.51025,83.77316 -156.97577,86.1937 -48.46578,2.42057 -97.46338,-23.2964 -164.79314,-79.91552 -67.72981,-56.95545 -126.31166,-77.52162 -166.96616,-83.77421 -10.16343,-1.563161 -19.28572,-2.227211 -27.252,-2.344051 z m -8.91726,11.146091 c 1.10468,8e-5 2.00009,0.89572 1.99987,2.0004 -8e-5,1.10448 -0.8954,1.9998 -1.99987,1.99988 -1.10469,2.1e-4 -2.00033,-0.89519 -2.00041,-1.99988 -2.1e-4,-1.10487 0.89551,-2.00061 2.00041,-2.0004 z m 747.924782,11.62411 c 1.104634,8e-5 1.999982,0.8954 1.999982,1.99987 0,1.10448 -0.895348,1.9998 -1.999982,1.99988 -1.10437,-8e-5 -1.999719,-0.8954 -1.999719,-1.99988 0,-1.10447 0.895349,-1.99979 1.999719,-1.99987 z m -98.4108535,2.04223 c 1.10437,8e-5 1.99972,0.89541 1.99972,1.99988 0,1.10469 -0.89509,2.00033 -1.99972,2.00041 -1.10463,-6e-5 -2.00025,-0.89572 -1.99998,-2.00041 0,-1.10447 0.89535,-1.99982 1.99998,-1.99988 z m -562.4201085,2.49754 c 1.10463,7e-5 1.99998,0.8954 1.99998,1.99987 0,1.10448 -0.89535,1.9998 -1.99998,1.99988 -1.10464,2.1e-4 -2.00025,-0.89519 -2.00025,-1.99988 0,-1.10468 0.89561,-2.00009 2.00025,-1.99987 z m 89.06181,49.69773 c 1.10463,-2.1e-4 2.00025,0.89519 2.00051,1.99988 0,1.10468 -0.89588,2.00008 -2.00051,1.99987 -1.10437,-8e-5 -1.99972,-0.8954 -1.99998,-1.99987 0,-1.10448 0.89561,-1.9998 1.99998,-1.99988 z m 353.29635,11.31713 c 1.10464,-2.1e-4 2.00025,0.89519 2.00025,1.99988 0,1.1049 -0.89535,2.00062 -2.00025,2.00041 -1.10463,-8e-5 -2.00024,-0.89572 -1.99998,-2.00041 0,-1.10447 0.89535,-1.9998 1.99998,-1.99988 z m -261.77365,57.91431 c 1.10437,8e-5 1.99972,0.8954 1.99972,1.99988 0,1.10447 -0.89535,1.99979 -1.99972,1.99987 -1.10464,-8e-5 -1.99999,-0.8954 -1.99999,-1.99987 0,-1.10448 0.89535,-1.9998 1.99999,-1.99988 z m 164.83891,11.35434 c 1.10463,8e-5 1.99972,0.8954 1.99998,1.99988 0,1.10447 -0.89535,1.9998 -1.99998,1.99988 -1.10463,2.1e-4 -2.00025,-0.89519 -2.00025,-1.99988 0,-1.10469 0.89562,-2.00009 2.00025,-1.99988 z m -83.64977,17.78805 c 1.1049,8e-5 2.00025,0.89572 1.99999,2.00041 0,1.10447 -0.89535,1.99979 -1.99999,1.99987 -1.10437,-8e-5 -1.99972,-0.8954 -1.99972,-1.99987 0,-1.10469 0.89509,-2.00033 1.99972,-2.00041 z"
       style="color:#000000;display:inline;fill:#6699ff;stroke-width:3.99999;-inkscape-stroke:none"
       id="path4956"
       sodipodi:nodetypes="scccssssscccsssssssssssssssssssssssssssssssssssssssssssssssssss" />
    <path
       d="m -645.76471,145.60842 c -22.67116,-0.33244 -35.57741,3.65625 -36.88506,4.07831 v 18.36582 l 0.78237,-0.26718 c 0,0 22.83365,-7.85105 62.74694,-1.71256 39.91367,6.13864 96.70165,26.33986 163.94092,82.8828 67.63932,56.87942 118.67209,82.28531 168.62536,79.79048 49.95354,-2.49486 98.18358,-32.79469 160.43625,-86.09189 61.825639,-52.9315 120.0405185,-68.62207 162.814857,-71.16517 42.774604,-2.54306 69.929553,8.03828 69.929553,8.03828 l 0.72363,0.28112 v -18.4144 c -1.92246,-0.72157 -28.913628,-10.56081 -70.890779,-8.06513 -43.5352825,2.58818 -102.706362,18.6345 -165.178641,72.11962 -62.04497,53.11943 -109.56858,82.71484 -158.0341,85.13538 -48.46578,2.42056 -98.52171,-22.23807 -165.85147,-78.85719 -67.72981,-56.95547 -125.25333,-77.52164 -165.90783,-83.77424 -10.16343,-1.56316 -19.28572,-2.22721 -27.252,-2.34405 z m -8.91726,6.91276 c 1.10468,8e-5 2.00009,0.89572 1.99987,2.00041 -8e-5,1.10448 -0.8954,1.9998 -1.99987,1.99988 -1.10469,2.1e-4 -2.00033,-0.89519 -2.00041,-1.99988 -2.1e-4,-1.10487 0.89551,-2.00062 2.00041,-2.00041 z m 747.924782,11.62411 c 1.104634,8e-5 1.999982,0.89541 1.999982,1.99988 0,1.10448 -0.895348,1.9998 -1.999982,1.99988 -1.10437,-8e-5 -1.999719,-0.8954 -1.999719,-1.99988 0,-1.10447 0.895349,-1.9998 1.999719,-1.99988 z m -98.4108535,2.04224 c 1.10437,8e-5 1.99972,0.8954 1.99972,1.99988 0,1.10469 -0.89509,2.00033 -1.99972,2.0004 -1.10463,-5e-5 -2.00025,-0.89571 -1.99998,-2.0004 0,-1.10448 0.89535,-1.99983 1.99998,-1.99988 z m -562.4201085,2.49753 c 1.10463,8e-5 1.99998,0.8954 1.99998,1.99988 0,1.10448 -0.89535,1.9998 -1.99998,1.99988 -1.10464,2.1e-4 -2.00025,-0.89519 -2.00025,-1.99988 0,-1.10469 0.89561,-2.00009 2.00025,-1.99988 z m 89.06181,49.69775 c 1.10463,-2.1e-4 2.00025,0.89519 2.00051,1.99987 0,1.10469 -0.89588,2.00009 -2.00051,1.99988 -1.10437,-8e-5 -1.99972,-0.8954 -1.99998,-1.99988 0,-1.10447 0.89561,-1.99979 1.99998,-1.99987 z m 353.29635,11.31714 c 1.10464,-2.1e-4 2.00025,0.89519 2.00025,1.99987 0,1.1049 -0.89535,2.00062 -2.00025,2.00041 -1.10463,-8e-5 -2.00024,-0.89572 -1.99998,-2.00041 0,-1.10447 0.89535,-1.99979 1.99998,-1.99987 z m -261.77365,57.91431 c 1.10437,8e-5 1.99972,0.8954 1.99972,1.99987 0,1.10448 -0.89535,1.9998 -1.99972,1.99988 -1.10464,-8e-5 -1.99999,-0.8954 -1.99999,-1.99988 0,-1.10447 0.89535,-1.99979 1.99999,-1.99987 z m 164.83891,11.35434 c 1.10463,8e-5 1.99972,0.8954 1.99998,1.99987 0,1.10448 -0.89535,1.9998 -1.99998,1.99988 -1.10463,2.1e-4 -2.00025,-0.89519 -2.00025,-1.99988 0,-1.10468 0.89562,-2.00008 2.00025,-1.99987 z m -83.64977,17.78804 c 1.1049,8e-5 2.00025,0.89572 1.99999,2.00041 0,1.10448 -0.89535,1.9998 -1.99999,1.99988 -1.10437,-8e-5 -1.99972,-0.8954 -1.99972,-1.99988 0,-1.10469 0.89509,-2.00033 1.99972,-2.00041 z"
       style="color:#000000;display:inline;fill:#6699ff;stroke-width:3.99999;-inkscape-stroke:none"
       id="path4936" />
    <path
       d="m -694.1352,253.50525 v 19.19004 c 5.42157,3.08409 355.37045,196.03722 789.99999,20.59771 v -18.95494 l -0.779197,0.33023 c -191.174976,76.81207 -366.576413,82.12029 -503.135103,63.94328 -174.11943,-23.17668 -285.0899,-84.5348 -285.0899,-84.5348 z m 15.65072,15.55769 c 1.10469,8e-5 2.00009,0.89572 1.99988,2.00041 -8e-5,1.10447 -0.8954,1.99979 -1.99988,1.99987 -1.10447,-8e-5 -1.99982,-0.8954 -1.99988,-1.99987 -2.3e-4,-1.10469 0.89519,-2.00033 1.99988,-2.00041 z m 763.686839,17.04497 c 1.10437,8e-5 1.999719,0.8954 1.999983,1.99987 0,1.10448 -0.895613,1.99983 -1.999983,1.99988 -1.104634,2.1e-4 -2.000247,-0.89522 -2.000512,-1.99988 0,-1.10466 0.895878,-2.00009 2.000512,-1.99987 z m -649.022469,27.82413 c 1.1049,-2.2e-4 2.00051,0.89553 2.00025,2.0004 0,1.10469 -0.89561,2.00009 -2.00025,1.99988 -1.10463,-8e-5 -1.99998,-0.8954 -1.99998,-1.99988 0,-1.10468 0.89535,-2.00032 1.99998,-2.0004 z m 506.781057,15.43937 c 1.10464,8e-5 1.99999,0.89572 1.99972,2.0004 0,1.10448 -0.89535,1.9998 -1.99972,1.99988 -1.10463,-8e-5 -1.99971,-0.8954 -1.99998,-1.99988 0,-1.10468 0.89535,-2.00032 1.99998,-2.0004 z m -347.354717,19.57091 c 1.10464,8e-5 2.00025,0.89572 1.99998,2.00038 0,1.10448 -0.89534,1.9998 -1.99998,1.99988 -1.10437,-8e-5 -1.99972,-0.8954 -1.99972,-1.99988 0,-1.10466 0.89509,-2.0003 1.99972,-2.00038 z m 177.14017,6.43424 c 1.10437,7e-5 1.99972,0.8954 1.99999,1.99987 0,1.10448 -0.89562,1.9998 -1.99999,1.99988 -1.10437,-8e-5 -1.99972,-0.8954 -1.99998,-1.99988 0,-1.10447 0.89561,-1.9998 1.99998,-1.99987 z"
       style="color:#000000;display:inline;fill:#6699ff;stroke-width:3.99999;-inkscape-stroke:none"
       id="path4996" />
    <path
       d="m -694.1352,293.2785 v 19.19004 c 5.42157,3.08409 355.37045,196.03722 789.99999,20.59771 v -18.95494 l -0.779197,0.33023 c -191.174976,76.81207 -366.576413,82.12029 -503.135103,63.94328 -174.11943,-23.17668 -285.0899,-84.5348 -285.0899,-84.5348 z m 15.65072,15.55769 c 1.10469,8e-5 2.00009,0.89572 1.99988,2.00041 -8e-5,1.10447 -0.8954,1.99979 -1.99988,1.99987 -1.10447,-8e-5 -1.99982,-0.8954 -1.99988,-1.99987 -2.3e-4,-1.10469 0.89519,-2.00033 1.99988,-2.00041 z m 763.686839,17.04496 c 1.10437,8e-5 1.999719,0.89541 1.999983,1.99988 0,1.10448 -0.895613,1.99983 -1.999983,1.99988 -1.104634,2.1e-4 -2.000247,-0.89522 -2.000512,-1.99988 0,-1.10466 0.895878,-2.00009 2.000512,-1.99988 z m -649.022469,27.82414 c 1.1049,-2.2e-4 2.00051,0.89553 2.00025,2.0004 0,1.10469 -0.89561,2.00009 -2.00025,1.99988 -1.10463,-8e-5 -1.99998,-0.8954 -1.99998,-1.99988 0,-1.10469 0.89535,-2.00033 1.99998,-2.0004 z m 506.781057,15.43937 c 1.10464,8e-5 1.99999,0.89572 1.99972,2.0004 0,1.10448 -0.89535,1.9998 -1.99972,1.99988 -1.10463,-8e-5 -1.99971,-0.8954 -1.99998,-1.99988 0,-1.10468 0.89535,-2.00032 1.99998,-2.0004 z m -347.354717,19.57091 c 1.10464,8e-5 2.00025,0.89572 1.99998,2.00038 0,1.10447 -0.89534,1.9998 -1.99998,1.99988 -1.10437,-8e-5 -1.99972,-0.89541 -1.99972,-1.99988 0,-1.10466 0.89509,-2.0003 1.99972,-2.00038 z m 177.14017,6.43423 c 1.10437,8e-5 1.99972,0.89541 1.99999,1.99988 0,1.10448 -0.89562,1.9998 -1.99999,1.99988 -1.10437,-8e-5 -1.99972,-0.8954 -1.99998,-1.99988 0,-1.10447 0.89561,-1.9998 1.99998,-1.99988 z"
       style="color:#000000;display:inline;fill:#6699ff;stroke-width:3.99999;-inkscape-stroke:none"
       id="path5016" />
  </g>
</svg>
