<?xml version="1.0" encoding="UTF-8" standalone="no"?>
<!-- Created with Inkscape (http://www.inkscape.org/) -->

<svg
   width="210mm"
   height="297mm"
   viewBox="0 0 210 297"
   version="1.1"
   id="svg12188"
   inkscape:version="1.2.2 (b0a8486541, 2022-12-01)"
   sodipodi:docname="plexi-noir-session-mai.svg"
   xmlns:inkscape="http://www.inkscape.org/namespaces/inkscape"
   xmlns:sodipodi="http://sodipodi.sourceforge.net/DTD/sodipodi-0.dtd"
   xmlns="http://www.w3.org/2000/svg"
   xmlns:svg="http://www.w3.org/2000/svg">
  <sodipodi:namedview
     id="namedview12190"
     pagecolor="#505050"
     bordercolor="#eeeeee"
     borderopacity="1"
     inkscape:showpageshadow="0"
     inkscape:pageopacity="0"
     inkscape:pagecheckerboard="0"
     inkscape:deskcolor="#505050"
     inkscape:document-units="mm"
     showgrid="false"
     inkscape:zoom="0.74118967"
     inkscape:cx="390.58828"
     inkscape:cy="561.93444"
     inkscape:window-width="1920"
     inkscape:window-height="1011"
     inkscape:window-x="0"
     inkscape:window-y="32"
     inkscape:window-maximized="1"
     inkscape:current-layer="layer1" />
  <defs
     id="defs12185" />
  <g
     inkscape:label="Calque 1"
     inkscape:groupmode="layer"
     id="layer1">
    <path
       d="m 46.490182,145.6785 c 0.88328,0 1.59977,0.71628 1.59998,1.59999 0,0.88391 -0.71628,1.60062 -1.59998,1.60062 -0.88392,0 -1.60062,-0.71649 -1.60041,-1.60062 0,-0.8835 0.71649,-1.59999 1.60041,-1.59999 z m 0,11.20033 c 0.88328,0 1.59977,0.71649 1.59998,1.60019 0,0.88329 -0.71628,1.60041 -1.59998,1.60041 -0.88392,0 -1.60062,-0.71649 -1.60041,-1.60041 0,-0.8837 0.71649,-1.60019 1.60041,-1.60019 z"
       style="font-variation-settings:normal;display:inline;vector-effect:none;fill:none;fill-opacity:1;fill-rule:evenodd;stroke:#000000;stroke-width:0.800002;stroke-linecap:butt;stroke-linejoin:miter;stroke-miterlimit:4;stroke-dasharray:none;stroke-dashoffset:0;stroke-opacity:1;-inkscape-stroke:none;paint-order:markers fill stroke;stop-color:#000000"
       id="path3253-2-0-6" />
    <path
       id="path12039-776-1-1"
       style="display:inline;vector-effect:none;fill:none;fill-rule:evenodd;stroke:#000000;stroke-width:0.800002;paint-order:markers fill stroke;stop-color:#000000"
       d="m 48.341336,134.66617 a 2.0000002,2.0000002 0 0 1 -2.000001,2 2.0000002,2.0000002 0 0 1 -2,-2 2.0000002,2.0000002 0 0 1 2,-2 2.0000002,2.0000002 0 0 1 2.000001,2 z" />
    <path
       id="path12039-776-9-5"
       style="display:inline;vector-effect:none;fill:none;fill-rule:evenodd;stroke:#000000;stroke-width:0.800002;paint-order:markers fill stroke;stop-color:#000000"
       d="m 112.85684,153.02371 a 2.0000002,2.0000002 0 0 1 -2,2 2.0000002,2.0000002 0 0 1 -2,-2 2.0000002,2.0000002 0 0 1 2,-2 2.0000002,2.0000002 0 0 1 2,2 z" />
    <path
       id="path8646-4-5"
       style="font-variation-settings:normal;display:inline;vector-effect:none;fill:none;fill-opacity:1;fill-rule:evenodd;stroke:#000000;stroke-width:0.800002;stroke-linecap:butt;stroke-linejoin:miter;stroke-miterlimit:4;stroke-dasharray:none;stroke-dashoffset:0;stroke-opacity:1;-inkscape-stroke:none;paint-order:markers fill stroke;stop-color:#000000"
       d="m 68.008323,88.567525 c -0.259292,-0.005 -0.502708,-0.008 -0.852169,0.0488 -0.648969,0.10752 -1.10003,0.26991 -1.38324,0.33358 -0.960542,0.21624 -0.701674,0.1055 -1.742649,0.48904 -0.201719,0.0743 -0.459317,0.1971 -0.579966,0.26873 0,0 -0.0063,0 -0.03387,0.0119 0.139064,-0.0618 -0.06054,-0.0423 -0.589068,0.20337 -0.383963,0.17865 -0.533399,0.2325 -0.790151,0.42554 -0.12827,0.0967 0.07726,-0.053 0.100542,-0.0671 0.0235,-0.0136 -0.03387,0.0195 -0.169968,0.0901 -0.578061,0.30006 -1.173055,0.62281 -1.773553,1.00347 -0.267123,0.16951 -0.119168,0.0801 -0.183515,0.12514 -0.06435,0.045 -0.144991,0.10143 -0.226483,0.15917 -0.08128,0.0577 -0.162136,0.11498 -0.232833,0.16663 -0.03535,0.0257 -0.06583,0.0484 -0.107738,0.0806 -0.02117,0.0152 -0.04128,0.0313 -0.09059,0.0731 -0.02476,0.021 -0.05292,0.0428 -0.124883,0.11532 -0.03598,0.0362 -0.0817,0.0787 -0.170815,0.19642 -0.04445,0.0589 -0.1016,0.13445 -0.178012,0.28398 -0.03831,0.0748 -0.08213,0.16899 -0.12446,0.30513 -0.04233,0.13615 -0.08699,0.56998 -0.08699,0.57015 0,1.16704 0.317922,1.10388 0.415924,1.24358 0.09821,0.1397 0.211455,0.28346 0.114512,0.15172 0.115993,0.15748 0.168698,0.22911 0.204681,0.27737 0.01905,0.0241 0.0254,0.0357 0.07154,0.0921 0.04593,0.0562 0.180975,0.19896 0.100542,0.11413 -0.322157,-0.33968 -0.111972,-0.13208 0.200024,0.28905 0.160444,0.21675 0.342477,0.47312 0.5461,0.74659 -0.01693,0.0373 -0.04106,0.0913 -0.0563,0.12531 -0.502072,1.1325 -0.752685,2.28176 -0.892385,3.38446 -0.01905,0.153915 -0.07303,0.427215 -0.08319,0.824815 -0.0064,0.26975 0,0.47566 0,0.61688 0,-0.0942 -0.08128,0.18373 -0.02731,0.81635 0.03789,0.44535 0.03133,0.22488 0.04064,0.27246 0.0085,0.0434 0.01693,0.0896 0.02646,0.13564 -0.0042,0.0191 -0.0063,0.0545 -0.0063,0.0545 -0.04487,0.28262 -0.02625,0.57184 0.05503,0.84633 l 0.162771,0.55067 c 0.381,1.28812 1.932726,1.79696 3.0027,0.98467 0,0 0.315594,-0.2396 0.676697,-0.50309 0.01905,-0.0135 0.02159,-0.0152 0.0417,-0.0298 0.06371,0.0909 0.127847,0.18085 0.175048,0.25299 0.390948,0.5974 0.586528,0.63195 1.191682,1.25679 0.605366,0.62483 1.531195,1.66065 2.453214,2.4792 0.449579,0.39912 1.406946,1.41952 2.196462,2.39336 a 9.1856184,9.1856184 0 0 0 1.139823,2.14104 9.1856184,9.1856184 0 0 0 7.414462,3.76733 9.1856184,9.1856184 0 0 0 9.185687,-9.18548 9.1856184,9.1856184 0 0 0 -0.245533,-2.09854 c 0,0 0,0 0.0021,-0.002 0,0 -0.0042,-0.008 -0.0042,-0.008 a 9.1856184,9.1856184 0 0 0 -2.657895,-4.5935 c -0.7203,-1.231555 -1.354029,-2.300725 -1.385991,-2.286495 -0.419946,-0.79637 -0.924771,-1.62746 -1.57882,-2.43129 -0.109431,-0.13445 -0.17272,-0.19913 -0.208068,-0.23774 -0.173778,-0.2115 -0.330199,-0.39522 -0.452966,-0.55186 0.04339,0.0554 -0.01058,-0.0356 -0.180763,-0.25721 -0.302471,-0.39218 -0.552026,-0.64855 -0.749087,-0.88223 -0.03006,-0.0356 -0.162137,-0.2562 -0.463762,-0.6057 -0.227329,-0.26332 -0.107314,-0.11634 -0.168698,-0.18102 -0.06181,-0.0647 -0.140334,-0.14749 -0.221191,-0.23199 -0.162348,-0.16933 -0.267335,-0.28363 -0.419734,-0.43197 -0.30353,-0.29565 -0.683048,-0.69782 -1.221527,-1.09558 -0.941704,-0.69596 -1.889758,-1.20006 -2.860037,-1.64778 -0.234738,-0.10837 -0.371686,-0.18932 -0.838834,-0.35475 -0.687069,-0.24334 -1.354665,-0.41792 -1.971884,-0.57371 -0.166158,-0.042 -0.258868,-0.0652 -0.365124,-0.0874 -0.106257,-0.0224 -0.43561,-0.051 -0.47498,-0.0508 -0.03916,0 0.274532,0.0212 0.291465,0.0244 0.01482,0.003 -0.06392,-0.0152 -0.168698,-0.0388 -0.0063,-0.003 0.0042,0 -0.03387,-0.0136 -0.129116,-0.0484 -0.421428,-0.13225 -0.669289,-0.16747 -0.38354,-0.0545 -1.184273,-0.16256 -1.961724,-0.17729 z" />
    <path
       id="path12039-776-9-3-4"
       style="display:inline;vector-effect:none;fill:none;fill-rule:evenodd;stroke:#000000;stroke-width:0.800002;paint-order:markers fill stroke;stop-color:#000000"
       d="m 79.831642,107.54967 a 2.0000002,2.0000002 0 0 1 -2,2 2.0000002,2.0000002 0 0 1 -2,-2 2.0000002,2.0000002 0 0 1 2,-2 2.0000002,2.0000002 0 0 1 2,2 z" />
    <path
       id="path12039-776-9-3-3-7"
       style="display:inline;vector-effect:none;fill:none;fill-rule:evenodd;stroke:#000000;stroke-width:0.800002;paint-order:markers fill stroke;stop-color:#000000"
       inkscape:transform-center-x="4.0963642"
       inkscape:transform-center-y="2.1776146"
       transform="rotate(26.706832)"
       d="m 154.56444,65.909332 a 2,2 0 0 1 -2,2 2,2 0 0 1 -2,-2 2,2 0 0 1 2,-2 2,2 0 0 1 2,2 z" />
    <path
       id="path6654-2-9-6"
       style="color:#000000;font-variation-settings:normal;display:inline;mix-blend-mode:normal;vector-effect:none;fill:none;fill-opacity:1;stroke:#000000;stroke-width:0.800002;stroke-linecap:butt;stroke-linejoin:miter;stroke-miterlimit:4;stroke-dasharray:none;stroke-dashoffset:0;stroke-opacity:1;-inkscape-stroke:none;paint-order:markers fill stroke;stop-color:#000000"
       d="m 46.341382,120.6662 c -7.73175,1.7e-4 -13.99962,6.26803 -13.99983,13.99978 0.0148,1.06257 0.14986,2.12022 0.40343,3.15214 -0.0438,0.9508 -0.20214,2.03386 -0.25908,3.27219 -0.0231,0.50055 -0.0292,0.99788 -0.0224,1.49047 0.004,0.35899 0.0444,0.59724 0.0554,0.71797 0.0665,0.73118 0.14542,1.34146 0.14754,1.84133 -0.21971,4.39115 -0.16172,4.39657 -1.03378,7.7243 0,0.002 0,0.005 0,0.007 -0.14351,0.55456 -0.19474,0.86359 -0.19855,0.89797 0,0.0171 0.0294,-0.16662 0.0191,-0.12819 -0.008,0.0384 -0.0423,0.16663 -0.10879,0.41013 -0.0127,0.0503 -0.0978,0.25298 -0.19516,0.62467 -0.0777,0.29599 -0.1162,0.50715 -0.14668,0.6267 -0.0491,0.1927 -0.16426,0.50715 -0.26056,0.98603 -0.0851,0.4235 -0.17802,0.87443 -0.25739,1.35263 -0.0529,0.31885 -0.0605,0.46397 -0.0542,0.43045 -0.0491,0.25975 -0.10329,0.55202 -0.14266,0.88832 -0.0389,0.33274 -0.0542,0.65532 -0.0542,0.9657 0,0.0219 0,0.0119 0,0.0318 -0.0334,0.0672 -0.0411,0.083 -0.0836,0.17119 -0.44598,0.92439 -0.0861,2.03607 0.81704,2.52391 0.46101,0.24892 0.50778,0.34206 1.01748,0.56388 0.50969,0.22183 0.95271,0.23859 1.44356,0.27534 0.54187,0.0405 1.36059,0.0923 2.12111,0.0516 0.96499,-0.0516 1.37901,-0.10008 1.70921,-0.16697 0.3302,-0.0669 0.3503,-0.0913 1.13347,-0.18897 0.69405,-0.0867 1.54305,-0.11159 2.37638,-0.1331 1.26555,-0.0328 0.60875,0.007 1.92468,-0.0178 0.61426,-0.0119 1.56951,-0.0545 1.96554,-0.0384 0.52578,0.0212 1.27867,0.10363 1.83091,0.14885 0.80158,0.0655 1.58708,0.0667 2.34569,0.0356 1.12289,-0.0462 2.1228,-0.19372 3.0137,-0.25468 0.0779,-0.005 0.24913,-0.003 0.51478,-0.0169 0.53382,-0.0249 0.76517,-0.075 0.84179,-0.0852 0.0233,0 0.09,0.008 0.1069,0.008 0.37253,0.002 0.28553,-0.0136 0.50609,-0.0332 0.34523,-0.031 0.27411,0.0118 0.86783,-0.13056 0.0868,-0.0207 0.16679,-0.0493 0.24384,-0.0716 0.0345,-0.003 0.0288,1.6e-4 0.0798,-0.007 0.47032,-0.0452 0.98171,-0.0618 1.53416,-0.0777 0.16721,-0.005 0.19156,-0.008 0.33316,-0.0135 0.0688,-0.003 0.13568,-0.005 0.1869,-0.008 -0.0546,0.002 0.1778,0.0601 0.71924,0.12937 0.24469,0.0313 0.38122,0.0493 0.44366,0.0533 0.0813,0.0315 0.15409,0.0628 0.27411,0.0972 0.0127,0.003 0.0106,0.003 0.0235,0.007 -0.0438,0.0152 0.22183,0.14799 0.77809,0.20506 1.02721,0.10566 1.49119,-0.20964 1.41181,-0.19355 0.22564,-0.0455 0.8183,-0.20083 1.29434,-0.58657 -0.3774,0.30565 0.3865,-0.0898 0.72221,-0.91812 0.0565,-0.13903 0.12403,-0.33105 0.17039,-0.55948 0.20023,-0.98433 0,-1.48912 -0.004,-1.5284 0,-0.0542 0,-0.20388 -0.008,-0.44399 -0.0106,-0.26518 -0.0267,-0.48345 -0.0343,-0.65972 -0.0229,-0.52832 0,-0.3661 -0.0356,-0.92812 -0.0226,-0.37829 -0.0538,-0.72153 -0.0751,-1.03513 -0.0337,-0.49141 -0.0288,-0.40556 -0.0299,-0.35814 0,0.0472 0,-0.18864 -0.0281,-0.71848 -0.0273,-0.51156 -0.0654,-0.97689 -0.0842,-1.40564 -0.0212,-0.47599 -0.0191,-0.39234 -0.0169,-0.45669 0.004,-0.0643 0.0127,-0.29955 0,-0.8807 -0.0127,-0.57929 -0.0455,-0.64702 -0.0794,-1.07899 -0.0381,-0.48819 -0.0809,-1.05918 -0.11134,-1.55228 -0.0212,-0.3307 -0.0279,-0.72373 -0.0574,-1.1684 -0.0148,-0.22826 -0.0366,-0.3771 -0.043,-0.45059 -0.0127,-0.14427 -0.0233,-0.32817 -0.0434,-0.54847 -0.0389,-0.42672 -0.087,-0.79417 -0.11578,-1.11828 -0.0127,-0.12649 -0.0214,-0.29565 -0.0409,-0.50275 -0.0169,-0.17898 -0.0256,-0.26653 -0.0368,-0.35814 -0.004,-0.0264 -0.0169,-0.0928 -0.0237,-0.13682 0,-0.0152 -0.008,-0.071 -0.0226,-0.21827 -0.0425,-0.43061 -0.0798,-0.88544 -0.12488,-1.3572 -0.0891,-0.93049 -0.0466,-0.40725 -0.13314,-1.20345 -0.13187,-1.21107 -0.27855,-2.40978 -0.45191,-3.60375 -0.19367,-1.33519 -0.44301,-2.55016 -0.64727,-3.74836 -0.0516,-0.3031 -0.1033,-0.66328 -0.31009,-4.60535 -0.2068,-3.94191 -6.41201,-9.9915 -14.00131,-9.99421 z"
       sodipodi:nodetypes="sccssscscscssssscssccsssssssssssscccssccsccscscsccssccssscsscsssscscssscssssccs" />
    <path
       id="path8646-1-5"
       style="font-variation-settings:normal;display:inline;vector-effect:none;fill:none;fill-opacity:1;fill-rule:evenodd;stroke:#000000;stroke-width:0.800002;stroke-linecap:butt;stroke-linejoin:miter;stroke-miterlimit:4;stroke-dasharray:none;stroke-dashoffset:0;stroke-opacity:1;-inkscape-stroke:none;paint-order:markers fill stroke;stop-color:#000000"
       d="m 112.04902,88.565046 v 0.0051 c -0.24638,-0.0034 -0.49044,-0.0034 -0.73131,0 -0.79227,0.01355 -1.48505,0.08077 -2.08195,0.09635 -0.2811,0.0068 -0.68009,-0.01524 -1.19507,0.01016 -0.68114,0.03336 -1.426,0.116332 -2.17085,0.301413 -0.31369,0.07789 -0.47265,0.13716 -0.48705,0.140547 -0.21992,0.05283 -0.60219,0.09466 -1.12818,0.212513 -0.81364,0.182202 -0.76729,0.191685 -1.27635,0.330707 -0.5861,0.16002 -1.25073,0.314452 -1.99876,0.58911 -0.66527,0.244178 -1.068706,0.522731 -1.311275,0.644143 -0.240242,0.120057 -0.619125,0.290576 -1.052617,0.628396 -0.0563,0.04403 -0.04318,0.03573 -0.08297,0.06858 -0.03958,0.01524 -0.05652,0.01693 -0.159596,0.07485 -0.08551,0.04809 -0.159385,-0.08297 -0.617219,0.549824 -0.05736,0.07908 -0.121709,0.178985 -0.185632,0.316653 -0.06414,0.137499 -0.160866,0.545761 -0.160866,0.545761 l 0.05609,0.793326 0.397298,0.730503 c 0,0 0.337396,0.314959 0.48387,0.400134 0.146261,0.085 0.270086,0.133096 0.373167,0.166624 0.206375,0.06672 0.335915,0.07908 0.436245,0.08721 0.400684,0.03251 0.439419,-0.01355 0.513503,-0.02726 0.07387,-0.01355 0.114299,-0.02421 0.148801,-0.03353 0.069,-0.0182 0.108797,-0.03184 0.147955,-0.04504 0.02984,-0.01016 0.06519,-0.02692 0.09462,-0.03759 0.0897,-0.02828 0.17737,-0.06299 0.26204,-0.10414 0.16129,-0.06841 0.38248,-0.173228 0.63542,-0.299381 1.26069,-0.23605 2.60477,-0.248242 3.51451,0.07772 0.0626,0.02235 0.23283,0.112437 0.44535,0.234018 -0.0106,0.0021 0.0745,0.09076 0.19177,0.337312 0.0455,0.09567 0.11789,0.391668 0.14456,0.794172 0.0127,0.16764 -0.0383,0.949112 -0.0612,1.065783 -0.0349,0.179324 -0.28342,0.811275 -0.52091,1.309284 -0.0942,0.125306 -0.11578,0.175429 -0.15134,0.236897 -0.0474,0.08196 -0.0965,0.172212 -0.1615,0.293115 -0.0447,0.08348 -0.0419,0.08416 -0.0724,0.143426 -0.0169,0.02438 -0.0212,0.02371 -0.0434,0.05791 -0.0451,0.06943 -0.10584,0.151384 -0.1905,0.374565 -0.0849,0.223351 -0.39455,0.748619 0.13673,1.656929 0.26565,0.45415 0.78465,0.78282 1.15295,0.88341 0.36872,0.10075 0.60664,0.0726 0.77237,0.0496 0.33126,-0.0461 0.4373,-0.11108 0.5279,-0.15172 0.10604,-0.0474 0.12086,-0.0628 0.16213,-0.0881 0.0387,-0.007 0.0447,-0.008 0.10076,-0.0178 0.2813,-0.0506 0.39983,-0.0787 0.35919,-0.074 0.0483,-0.005 1.1212,-0.0366 1.34578,-0.0339 0.36851,0.005 0.79248,0.0513 0.85196,0.0674 0.50884,0.13665 1.04965,0.37998 1.55109,0.68834 0.46566,0.28617 0.70654,0.51646 0.66865,0.45973 -0.0127,-0.0188 0.17823,0.3976 0.21781,0.44146 0.0169,0.15138 -0.0624,0.71407 -0.35306,1.40936 -0.0212,0.0491 -0.0335,0.0731 -0.0495,0.10786 -0.0212,0.0318 -0.0438,0.0704 -0.0874,0.13191 -0.1124,0.15867 -0.3647,0.35221 -0.47244,1.11658 -0.0148,0.10397 -0.0379,0.24181 -0.004,0.51105 0.0341,0.27364 0.14541,0.80383 0.68918,1.24968 0.54356,0.44602 1.28355,0.46804 1.63174,0.3915 0.10033,-0.022 0.17992,-0.0464 0.2504,-0.0711 0.10224,-0.007 0.11261,0.003 0.64749,0.0203 0.29739,0.008 0.45868,0.005 0.48281,0.007 0.20426,0.0176 0.72453,0.12649 1.16078,0.22572 0.21759,0.0495 0.55181,0.15613 0.66738,0.1839 0.0334,0.0224 0.0459,0.0298 0.10795,0.0728 0.19368,0.13479 0.28575,0.19931 0.27644,0.19135 0.0127,0.0102 0.17272,0.21285 0.23198,0.29396 0.0127,0.0396 0.0339,0.10973 0.0413,0.17746 0.006,0.0618 0,0.12463 0,0.16984 -0.0438,0.0823 -0.1452,0.29871 -0.25675,0.46922 0.0127,-0.0186 -0.0923,0.10059 -0.26988,0.38575 -0.0834,0.13343 -0.13038,0.19439 -0.23029,0.41249 -0.004,0.0119 -0.0148,0.0325 -0.0212,0.0439 -0.0284,0.0379 -0.054,0.0723 -0.0864,0.11616 -0.054,0.0735 -0.10752,0.14664 -0.16954,0.23808 -0.0307,0.0459 -0.0603,0.086 -0.1215,0.19524 -0.0307,0.0545 -0.0699,0.10499 -0.14499,0.3192 -0.0379,0.10702 -0.10753,0.2374 -0.10964,0.63161 0,0.1971 0.0148,0.48717 0.19918,0.86326 0.18626,0.37592 0.62229,0.78909 1.05388,0.94911 0.38418,0.14258 0.7239,0.14393 0.99505,0.10008 0.12001,0.0135 0.27156,0.0305 0.28321,0.0318 0.0148,0.002 0.036,0.003 0.0489,0.005 0.019,0.002 0.0322,0.003 0.0525,0.005 0.004,0 0.0106,0 0.0231,0.002 0.006,0 0.0127,0 0.0373,0.003 0.0127,0 0.0245,0.002 0.0669,0.003 0.004,0 0.0675,-0.0182 0.0811,-0.0212 0.033,0.002 0.0394,0.003 0.0768,0.005 0.032,0.002 0.1723,0.0269 0.42291,0.0562 0.5571,0.0652 0.92773,0.13073 1.15845,0.22522 0.004,0.002 0.0673,0.0413 0.0842,0.0501 -0.0127,0.005 -0.0679,0.0269 -0.0798,0.0318 -2.20725,0.94878 -4.35038,1.96274 -6.47847,2.93844 -0.0823,0.0376 -0.1924,0.0782 -0.27707,0.11532 -7.64984,-2.76013 -14.63059,-2.38032 -18.097898,7.39291 -0.595417,0.29786 -1.138342,0.60198 -1.556171,0.78588 -0.274531,0.12107 -0.763481,0.24587 -1.419223,0.53204 -0.741044,0.3236 -1.319105,0.67124 -1.808266,0.91203 -0.423333,0.20862 -0.899583,0.41233 -1.406312,0.63127 -0.0042,0 -0.375284,0.0322 -1.098972,0.33274 -0.543983,0.22623 -0.712469,0.35052 -0.547369,0.28939 -0.06752,0.0251 -0.330411,0.082 -0.744431,0.21794 -0.680719,0.22352 -1.1648,0.46465 -1.495846,0.57505 0.0417,-0.0135 -0.400262,-0.022 -1.239307,0.21421 -0.147955,0.0417 -0.345651,0.13021 -0.520911,0.21657 -0.276436,0.081 -0.717549,0.1563 -1.300267,0.3319 -0.156633,0.0472 -0.204046,0.0857 -0.343111,0.13614 -0.190923,-0.25349 -0.472016,-0.57285 -0.897042,-0.89882 -0.48514,-0.37185 -0.763481,-0.4467 -0.706119,-0.413 0.03344,0.0197 -0.211243,-0.1353 -0.435821,-0.27331 -0.224579,-0.13783 -0.315383,-0.26212 -0.908896,-0.45889 -0.848359,-0.28126 -1.222162,-0.18186 -1.617766,-0.15409 0.07916,-0.005 -0.30226,-0.10499 -0.994197,0.23266 -0.45339,0.22115 -0.658495,0.42638 -0.70866,0.49818 -0.07197,0.0308 -0.329564,0.21895 -0.629707,0.68461 -0.576579,0.89544 -0.565361,1.74871 -0.507153,2.41148 0.02815,0.32071 0.101177,0.51511 0.159173,0.77842 -0.08403,0.0328 -0.07366,0.0205 -0.198543,0.074 -0.728767,0.31225 -1.081615,0.63534 -1.18766,0.69325 -0.06011,0.0328 -0.308821,0.14038 -0.639232,0.33816 -0.4572,0.27398 -0.716068,0.4953 -0.880109,0.62551 0.0042,-0.018 -0.140758,0.063 -0.429048,0.27534 -0.550544,0.40555 -0.627379,0.70832 -0.708236,0.87359 -0.08065,0.16527 -0.130175,0.26382 -0.05038,0.1165 -0.02413,0.0444 -0.293582,0.34629 -0.53213,1.01989 -0.213995,0.60486 -0.306281,1.10947 -0.397721,1.45153 -0.157056,0.58724 -0.520699,1.48217 -0.483658,2.69917 0.02498,0.815 0.230293,1.47794 0.516466,2.20099 0.286173,0.72305 0.54991,1.42087 1.38451,2.11666 0.737023,0.61468 1.60549,0.80552 2.099308,0.90204 1.040552,0.20354 2.04893,-0.47498 2.252553,-1.51553 0.203835,-1.04072 -0.474767,-2.04944 -1.515531,-2.25315 -0.209761,-0.041 -0.277918,-0.0527 -0.3175,-0.0599 -0.02921,-0.0649 -0.220556,-0.31852 -0.333162,-0.60317 -0.15875,-0.40098 -0.249132,-0.93014 -0.248497,-0.90491 -0.0063,-0.23605 0.142452,-0.79468 0.355176,-1.58953 0.138854,-0.51901 0.225213,-0.92778 0.308398,-1.16247 -0.0472,0.13309 0.04593,-0.03 0.226483,-0.36102 0.402167,-0.28042 0.655108,-0.49462 0.726016,-0.53696 -0.01058,0.005 0.232198,-0.11277 0.507153,-0.26297 0.385021,-0.21031 0.587162,-0.34341 0.713104,-0.43112 0.01905,-0.005 0.100753,-0.041 0.133985,-0.0522 0.04657,0.097 0.06181,0.17594 0.112395,0.27415 0.155574,0.30192 0.240029,0.42503 0.230716,0.38862 0.183726,0.35814 0.282575,0.62907 0.515619,1.20345 0.01058,0.0234 0.02117,0.0466 0.03175,0.0694 -0.0085,0.029 -0.01693,0.0467 -0.02434,0.0777 -0.216535,0.90983 0.02773,1.43578 0.172508,1.82558 0.144356,0.38981 0.296333,0.69105 0.309033,0.72136 0.388196,0.93946 0.770254,1.8459 1.08606,2.7261 0.08678,0.24147 0.179705,0.5742 0.323003,0.9823 0.167851,0.4787 0.323638,0.7874 0.383963,0.95741 0.259503,0.73135 0.191346,0.70222 0.530436,1.55397 0.12192,0.30581 0.210185,0.4445 0.207856,0.43992 0.353906,0.7576 0.156422,0.38439 0.658283,1.40395 0.271991,0.55253 0.615949,1.38108 1.322491,2.18659 0.963294,1.09813 2.097403,1.61222 2.893903,2.0364 0.164465,0.0877 0.519006,0.27365 0.887941,0.46144 0.369146,0.18762 0.628649,0.3346 1.041399,0.49394 0.503977,0.19473 0.833119,0.24198 0.94255,0.275 0.535304,0.1612 1.275502,0.46634 2.225037,0.61671 0.614045,0.0974 1.066587,0.0897 1.457323,0.0848 0.240454,-0.003 0.574463,0.002 0.995891,-0.0533 0.483446,-0.0635 0.718607,-0.17255 0.733847,-0.17662 0.653838,-0.17357 1.369905,-0.40183 2.082586,-0.76064 0.416559,-0.20964 0.600286,-0.35814 0.873547,-0.54322 0.273262,-0.18492 0.309668,-0.18915 0.642196,-0.45263 0.244686,-0.19406 0.203412,-0.17831 0.282998,-0.25519 0,0 0.0021,0 0.0021,-0.003 v -0.0195 -0.40013 h 0.03154 c -0.0127,0.13326 -0.02286,0.26653 -0.03154,0.40013 0,7.73175 6.267866,13.99962 13.999826,13.99979 7.73196,0 14.00004,-6.26787 14.00004,-13.99979 0,-0.13343 -0.004,-0.26687 0.0542,-0.4914 0.0595,-0.22454 0.0169,-0.51393 -0.0375,-0.84887 -0.1088,-0.67648 -0.23453,-1.24223 -0.31729,-1.7719 -0.11769,-0.75573 -0.0713,-0.54136 -0.21653,-1.41749 -0.13505,-0.81618 -0.27708,-1.61611 -0.41466,-2.40859 -0.65913,-3.74497 -0.78528,-4.37337 -1.19803,-6.53931 -0.17018,-0.88629 -0.1524,-0.6753 -0.28406,-1.28778 -0.087,-0.40436 -0.2396,-1.22309 -0.32194,-1.64913 -0.15029,-0.77504 -0.30184,-1.56718 -0.46567,-2.35356 -0.13229,-0.63585 -0.0993,-0.41436 -0.26564,-1.07273 -0.21272,-0.84124 -0.0635,-0.37151 -0.35687,-1.33908 -0.0997,-0.32919 -0.25442,-0.75371 -0.28575,-0.84752 -0.0646,-0.19405 -0.13885,-0.44416 -0.23812,-0.72965 -0.35391,-1.01803 -0.72242,-1.90314 -1.03759,-2.78435 -0.20934,-0.58504 -0.20765,-0.60401 -0.42905,-1.24189 -0.1071,-0.30767 -0.20553,-0.56811 -0.28575,-0.8045 -0.0965,-0.2838 -0.31475,-0.75336 -0.53657,-1.01244 -0.22204,-0.25891 -0.1433,-0.14173 -0.29613,-0.34392 -0.0957,-0.12632 -0.15578,-0.20591 -0.25378,-0.3175 -0.0982,-0.11142 -0.36555,-0.3368 -0.40217,-0.36254 -0.0368,-0.0257 0.15494,0.12429 0.18352,0.15291 0.0288,0.0288 -0.008,-0.007 -0.0902,-0.10499 -0.13907,-0.1651 -0.17484,-0.21031 -0.22733,-0.27449 -0.0434,-0.0777 -0.08,-0.12192 -0.1088,-0.16493 -0.11345,-0.17119 -0.19241,-0.26737 -0.36174,-0.47921 -0.31136,-0.38947 -0.57129,-0.64025 -0.72178,-0.81483 -0.12256,-0.14258 -0.26882,-0.32377 -0.43942,-0.52544 1.74498,-0.80095 3.4618,-1.59021 5.18138,-2.35068 0,0.28651 -0.002,0.92523 0.75861,1.49859 0.75967,0.57303 1.31064,0.45924 1.58073,0.4445 0.26987,-0.0152 0.43603,-0.0176 0.18944,-0.0232 0.1052,0.002 0.21865,0.008 0.33888,0.0169 0.12721,0.0102 0.30374,0.0521 0.66569,0.15426 0.37507,0.106 0.26119,0.0567 0.50694,0.14427 0.14732,0.0527 0.21145,0.0853 0.22945,0.0947 0.0701,0.0428 0.12784,0.0823 0.19452,0.11904 0.45783,0.25315 0.73215,0.41673 0.81322,0.44941 0.0191,0.0279 0.0191,0.0252 0.0459,0.0654 0.1723,0.25299 0.3084,0.48836 0.46059,0.78131 -0.0191,0.0677 -0.0169,0.0737 -0.0521,0.17983 -0.0565,0.16425 -0.0792,0.24756 -0.0976,0.31835 -0.0169,0.0293 -0.0148,0.0215 -0.0468,0.0806 -0.14478,0.27059 -0.19558,0.4025 -0.18648,0.4047 -0.0559,0.083 -0.17928,0.27974 -0.31199,0.72102 -0.0279,0.0928 -0.0679,0.21303 -0.0798,0.46669 -0.0127,0.254 -0.0275,0.7581 0.44386,1.32333 0.47138,0.56507 1.3045,0.72119 1.6872,0.67886 0.28024,-0.0308 0.42206,-0.0869 0.53213,-0.13851 0.0614,0 0.0265,0.003 0.0881,0 0.16023,-0.005 0.24892,-0.0102 0.28151,-0.0135 0.36852,0.0169 0.86276,0.10973 1.40674,0.24807 0.1361,0.0345 0.3592,0.11126 0.44852,0.13598 0.0392,0.0383 0.0713,0.0806 0.0519,0.008 0.0381,0.14072 0.0506,0.28719 0.0516,0.66261 0,0.23164 -0.004,0.39014 -0.004,0.47464 -0.0546,0.13072 -0.17018,0.47074 -0.21992,0.57708 -0.29379,0.62721 -0.26606,0.56998 -0.55732,1.05088 -0.004,0.005 -0.019,0.0368 -0.0243,0.0422 0,0 -0.008,0.0119 -0.008,0.0135 -0.0842,0.0762 -0.18986,0.17662 -0.33231,0.5842 -0.0997,0.28499 -0.18288,0.80146 0.019,1.32944 0.20235,0.52781 0.6314,0.8763 0.91821,1.02446 0.66209,0.34206 1.06785,0.29955 1.33307,0.30921 0.1869,0.007 0.3175,0.0188 0.32385,0.0152 0.3774,0.0787 0.78825,0.23994 1.09389,0.43281 0.0309,0.0197 0.0191,0.0136 0.0379,0.0273 0.48091,0.51528 0.55626,0.69681 0.60071,1.4412 0.0169,0.29379 0,0.46871 -0.0466,0.67123 -0.11789,0.20896 -0.17758,0.31429 -0.2233,0.39455 -0.12425,0.15511 -0.16934,0.23266 -0.27496,0.39726 -0.28765,0.44822 -0.45656,0.76555 -0.55986,0.90237 -0.14647,0.19423 -0.65193,0.64499 -0.3067,1.74803 0.17251,0.55169 0.64812,0.98467 0.98023,1.15011 0.33231,0.16544 0.54906,0.18373 0.70231,0.19676 0.61298,0.052 0.606,-0.0391 0.69299,-0.0608 0.0428,-0.0102 0.0612,-0.0135 0.0959,-0.0203 0.17229,-0.0203 0.28575,-0.0215 0.30395,-0.0232 0.004,0.005 0.006,0.0271 0.21357,0.16797 0.62061,0.42063 0.65215,0.38202 0.8236,0.62095 0.0169,0.0339 0.0627,0.12497 0.0859,0.20879 0.047,0.16831 0.0779,0.3197 0.12573,0.51138 0.0254,0.1016 0.0307,0.35509 0.0442,0.33596 -0.0622,0.53424 -0.21378,1.06358 -0.43815,1.78223 -0.0277,0.0879 -0.0599,0.18339 -0.0957,0.28617 -0.0324,0.0931 -0.1033,0.26162 -0.18585,0.51748 -0.22182,0.68682 0.12743,1.62086 0.4716,1.96715 0.34417,0.34645 0.59732,0.42367 0.80031,0.48937 0.4064,0.13106 0.59584,0.27076 1.3771,-0.0437 0.81788,-0.32918 0.93832,-0.59114 1.21581,-0.84836 0.27771,-0.25738 0.53001,-0.51629 0.59669,-0.58081 0.6623,-0.64025 0.67839,-0.61146 1.4171,-1.60087 0.67713,-0.90712 1.34133,-1.87232 1.93675,-2.88138 0.59267,-1.0038 0.89196,-1.95783 1.19105,-2.69595 0.17674,-0.43586 0.35369,-0.868 0.53255,-1.29675 0.0343,-0.0818 0.13716,-0.27618 0.25887,-0.60317 0.16954,-0.45584 0.28109,-0.83921 0.38735,-1.1308 0.11451,-0.31479 0.3048,-0.7278 0.4862,-1.27 0.14562,-0.43603 0.16383,-0.68868 0.17187,-0.72373 0.0946,-0.40945 0.16002,-0.7432 0.23072,-0.99263 0.004,-0.018 0.073,-0.17696 0.1852,-0.48463 0.34206,-0.93777 0.45699,-1.18483 0.69215,-2.01236 0.0603,-0.21285 0.37592,-1.21683 0.51795,-1.98441 0.3501,-1.89332 0.62124,-3.95427 0.34967,-6.1131 -0.13906,-1.10795 -0.21314,-1.74345 -0.57213,-2.88848 -0.13293,-0.42401 -0.27114,-0.69461 -0.32999,-0.84176 -0.34459,-0.86275 -0.53763,-1.38582 -1.00118,-2.32376 -0.16404,-0.33223 -0.30184,-0.52408 -0.35137,-0.60824 -0.66463,-1.12742 -0.50482,-0.88172 -0.98234,-1.62746 -0.55308,-0.86377 -1.07188,-1.63288 -1.43785,-2.36237 -0.33464,-0.66683 -0.66929,-1.45846 -1.14173,-2.30056 -0.49022,-0.87376 -1.01938,-1.62864 -1.48949,-2.33629 0.0214,0.0324 -0.28872,-0.4445 -0.55605,-0.85564 -0.26755,-0.41114 -0.39159,-0.62433 -0.63183,-0.95995 -0.71077,-0.99314 -1.4643,-1.8818 -2.141,-2.72728 -1.42579,-1.78172 -0.39074,-0.51172 -1.23571,-1.50367 -0.43603,-0.5119 -0.77237,-0.963679 -1.3915,-1.620015 -0.44238,-0.469052 -1.1267,-1.098972 -1.53796,-1.493687 -0.75565,-0.725423 -0.39899,-0.408601 -1.62391,-1.453556 -0.25146,-0.214714 -0.57996,-0.535262 -1.0524,-0.874774 -0.94128,-0.676148 -1.83854,-1.10981 -2.63885,-1.541609 -1.48124,-0.798914 -3.11298,-1.728553 -4.97882,-2.340861 -0.48958,-0.160867 -1.76656,-0.534585 -2.30801,-0.678687 -1.07166,-0.285327 -0.85661,-0.184404 -1.87113,-0.478705 -0.83079,-0.240961 -1.69925,-0.542713 -2.61768,-0.83803 -0.22415,-0.07197 -0.5679,-0.213021 -1.05706,-0.328337 -0.4989,-0.117517 -0.95736,-0.182879 -1.36461,-0.240622 -0.75946,-0.107357 -1.5204,-0.155448 -2.25975,-0.166454 z M 94.109865,130.04218 v 0 c -0.14351,0.26128 -0.273685,0.48395 -0.419946,0.78096 -0.448945,0.91135 -0.285115,0.63246 -0.582083,1.32791 -0.170815,0.39997 -0.339513,0.78469 -0.513503,1.15011 -0.112183,0.23538 -0.304799,0.56304 -0.513502,1.01363 -0.164888,0.35611 -0.441113,1.01363 -0.560493,1.29895 -0.415713,0.99213 -0.623781,1.85827 -0.878627,2.51443 -0.07768,0.20015 -0.345651,0.70917 -0.570441,1.19058 -0.325543,0.69698 -0.286808,0.72797 -0.524721,1.39158 -0.01693,0.0476 -0.08657,0.20574 -0.128905,0.30633 -0.267546,-0.31361 -0.427778,-0.58776 -0.781684,-1.15181 -0.30226,-0.48158 -0.568324,-0.8514 -0.735541,-1.14469 -0.143721,-0.25264 -0.336338,-0.69477 -0.6822,-1.22377 -0.222462,-0.34036 -0.39116,-0.55101 -0.50419,-0.7007 -0.10414,-0.27144 -0.136948,-0.23774 -0.16383,-0.27737 -0.03239,-0.0484 -0.04932,-0.0692 -0.06456,-0.0897 -0.06117,-0.0823 -0.106256,-0.13869 -0.211878,-0.2728 -0.24892,-0.31564 -0.140546,-0.16104 -0.166793,-0.18813 -0.02625,-0.0271 -0.05228,-0.0537 -0.07768,-0.0794 l -0.04424,-0.0442 c -0.136313,-0.15494 -0.255905,-0.29667 -0.325754,-0.39319 -0.09842,-0.13632 -0.152612,-0.21184 -0.205952,-0.28685 -0.0085,-0.0182 -0.0042,-0.007 -0.01482,-0.0278 -0.132503,-0.27534 -0.284903,-0.53544 -0.438996,-0.76641 0.219075,0.32851 0.06625,0.0981 -0.01482,-0.0298 -0.04043,-0.0638 -0.08763,-0.14613 -0.232622,-0.30429 -0.06456,-0.0703 -0.147319,-0.20151 -0.307339,-0.32817 0.09144,-0.0247 0.12192,-0.0269 0.221191,-0.0571 0.117687,-0.0357 0.27813,-0.11295 0.424603,-0.18813 0.02709,-0.005 0.528743,0.0254 1.406523,-0.26704 0.673523,-0.22454 1.152524,-0.46177 1.479972,-0.5693 0.117686,-0.0386 0.424814,-0.097 0.878838,-0.265 0.598805,-0.22166 0.804756,-0.39286 0.688763,-0.34477 0.0085,-0.003 0.413596,-0.0364 1.148079,-0.3539 0.492124,-0.21269 1.027428,-0.43858 1.580513,-0.71103 0.672464,-0.33139 1.200148,-0.64279 1.647399,-0.83803 0.03683,-0.0169 0.145415,-0.0545 0.189865,-0.0711 z"
       sodipodi:nodetypes="cccssscssssscssscccsssssscccscscscsscsssssscccccsccscsccsscccscsccsccsscssssccscscsccscsssccsccssscscscscscsssscscsscssscsscsssssssscscscccsccsccccscsssscssssssssscsssccccccsccsssccsssssssssssssssccsssccssccsscccccccccsssscccsccccscccsssscscsccssssssccccsscsssssssssssssssssssssssssssscsssssssssssssssccsssssssssscssscssssscscccsscscssscsscss" />
  </g>
</svg>
