<?xml version="1.0" encoding="UTF-8" standalone="no"?>
<!-- Created with Inkscape (http://www.inkscape.org/) -->

<svg
   width="210mm"
   height="297mm"
   viewBox="0 0 210 297"
   version="1.1"
   id="svg12188"
   inkscape:version="1.2.2 (b0a8486541, 2022-12-01)"
   sodipodi:docname="plexi-noir-session-juin.svg"
   xmlns:inkscape="http://www.inkscape.org/namespaces/inkscape"
   xmlns:sodipodi="http://sodipodi.sourceforge.net/DTD/sodipodi-0.dtd"
   xmlns="http://www.w3.org/2000/svg"
   xmlns:svg="http://www.w3.org/2000/svg">
  <sodipodi:namedview
     id="namedview12190"
     pagecolor="#505050"
     bordercolor="#eeeeee"
     borderopacity="1"
     inkscape:showpageshadow="0"
     inkscape:pageopacity="0"
     inkscape:pagecheckerboard="0"
     inkscape:deskcolor="#505050"
     inkscape:document-units="mm"
     showgrid="false"
     inkscape:zoom="1.0766161"
     inkscape:cx="263.32506"
     inkscape:cy="544.76242"
     inkscape:window-width="1920"
     inkscape:window-height="1011"
     inkscape:window-x="0"
     inkscape:window-y="32"
     inkscape:window-maximized="1"
     inkscape:current-layer="layer1" />
  <defs
     id="defs12185" />
  <g
     inkscape:label="Calque 1"
     inkscape:groupmode="layer"
     id="layer1">
    <path
       d="m 136.43791,86.40198 c 0.88328,0 1.59977,0.71628 1.59998,1.59999 0,0.88391 -0.71628,1.60062 -1.59998,1.60062 -0.88392,0 -1.60062,-0.71649 -1.60041,-1.60062 0,-0.8835 0.71649,-1.59999 1.60041,-1.59999 z m 0,11.20033 c 0.88328,0 1.59977,0.71649 1.59998,1.60019 0,0.88329 -0.71628,1.60041 -1.59998,1.60041 -0.88392,0 -1.60062,-0.71649 -1.60041,-1.60041 0,-0.8837 0.71649,-1.60019 1.60041,-1.60019 z"
       style="font-variation-settings:normal;display:inline;vector-effect:none;fill:none;fill-opacity:1;fill-rule:evenodd;stroke:#000000;stroke-width:0.800002;stroke-linecap:butt;stroke-linejoin:miter;stroke-miterlimit:4;stroke-dasharray:none;stroke-dashoffset:0;stroke-opacity:1;-inkscape-stroke:none;paint-order:markers fill stroke;stop-color:#000000"
       id="path3253-2-0-6" />
    <path
       id="path12039-776-1-1"
       style="display:inline;vector-effect:none;fill:none;fill-rule:evenodd;stroke:#000000;stroke-width:0.800002;paint-order:markers fill stroke;stop-color:#000000"
       d="m 138.28906,66.39379 a 2.0000002,2.0000002 0 0 1 -2,2 2.0000002,2.0000002 0 0 1 -2,-2 2.0000002,2.0000002 0 0 1 2,-2 2.0000002,2.0000002 0 0 1 2,2 z" />
    <path
       id="path12039-776-9-5"
       style="display:inline;vector-effect:none;fill:none;fill-rule:evenodd;stroke:#000000;stroke-width:0.800002;paint-order:markers fill stroke;stop-color:#000000"
       d="m 138.42768,66.22824 a 2.0000002,2.0000002 0 0 1 -2,2 2.0000002,2.0000002 0 0 1 -2,-2 2.0000002,2.0000002 0 0 1 2,-2 2.0000002,2.0000002 0 0 1 2,2 z" />
    <path
       id="path6654-2-9-6"
       style="color:#000000;font-variation-settings:normal;display:inline;mix-blend-mode:normal;vector-effect:none;fill:none;fill-opacity:1;stroke:#000000;stroke-width:0.800002;stroke-linecap:butt;stroke-linejoin:miter;stroke-miterlimit:4;stroke-dasharray:none;stroke-dashoffset:0;stroke-opacity:1;-inkscape-stroke:none;paint-order:markers fill stroke;stop-color:#000000"
       d="m 136.28911,52.39382 c -7.73175,1.7e-4 -13.99962,6.26803 -13.99983,13.99978 0.0148,1.06257 0.14986,2.12022 0.40343,3.15214 -0.0438,0.9508 -0.20214,2.03386 -0.25908,3.27219 -0.0231,0.50055 -0.0292,0.99788 -0.0224,1.49047 0.004,0.35899 0.0444,0.59724 0.0554,0.71797 0.0665,0.73118 0.14542,1.34146 0.14754,1.84133 -0.21971,4.39115 -1.03378,6.34029 -1.03378,11.74892 v 0.011 c -0.14351,0.87466 -0.19474,1.36206 -0.19855,1.41628 0,0.027 0.0294,-0.26279 0.0191,-0.20218 -0.008,0.0606 -0.0423,0.26281 -0.10879,0.64686 -0.0127,0.0793 -0.0978,0.399 -0.19516,0.98524 -0.0777,0.46683 -0.1162,0.79988 -0.14668,0.98843 -0.0491,0.30393 -0.16426,0.79988 -0.26056,1.55518 -0.0851,0.66795 -0.17802,1.37916 -0.25739,2.13338 -0.0529,0.50289 -0.0605,0.73177 -0.0542,0.67891 -0.0491,0.40968 -0.10329,0.87065 -0.14266,1.40106 -0.0389,0.5248 -0.0542,2.62407 -0.0542,2.88066 v 0.0263 c -0.0334,0.0555 -0.0411,0.0686 -0.0836,0.14152 -0.44598,0.7642 -0.0861,1.68325 0.81704,2.08655 0.46101,0.20579 0.50778,0.28278 1.01748,0.46617 0.50969,0.18339 0.95271,0.19724 1.44356,0.22762 0.54187,0.0335 1.36059,0.0763 2.12111,0.0427 0.96499,-0.0427 1.37901,-0.0827 1.70921,-0.13804 0.3302,-0.0553 0.3503,-0.0755 1.13347,-0.15622 0.69405,-0.0717 1.54305,-0.0923 2.37638,-0.11004 1.26555,-0.0271 0.60875,0.006 1.92468,-0.0147 0.61426,-0.01 1.56951,-0.0451 1.96554,-0.0318 0.52578,0.0175 1.27867,0.0857 1.83091,0.12306 0.80158,0.0541 1.58708,0.0551 2.34569,0.0294 1.12289,-0.0382 2.1228,-0.16015 3.0137,-0.21055 0.0779,-0.004 0.24913,-0.003 0.51478,-0.0139 0.53382,-0.0206 0.76517,-0.062 0.84179,-0.0704 0.0233,0 0.09,0.007 0.1069,0.007 0.37253,0.002 0.28553,-0.0112 0.50609,-0.0275 0.34523,-0.0256 0.27411,0.01 0.86783,-0.10793 0.0868,-0.0171 0.16679,-0.0408 0.24384,-0.0592 0.0345,-0.003 0.0288,1.3e-4 0.0798,-0.006 0.47032,-0.0374 0.98171,-0.0511 1.53416,-0.0642 0.16721,-0.004 0.19156,-0.007 0.33316,-0.0112 0.0688,-0.003 0.13568,-0.004 0.1869,-0.007 -0.0546,0.002 0.1778,0.0497 0.71924,0.10695 0.24469,0.0259 0.38122,0.0408 0.44366,0.0441 0.0813,0.026 0.15409,0.052 0.27411,0.0804 0.0127,0.003 0.0106,0.003 0.0235,0.006 -0.0438,0.0126 0.22183,0.12235 0.77809,0.16953 1.02721,0.0873 1.49119,-0.17331 1.41181,-0.16001 0.22564,-0.0376 0.8183,-0.16603 1.29434,-0.48493 -0.3774,0.25269 0.3865,-0.0742 0.72221,-0.75902 0.0565,-0.11493 0.12403,-0.27368 0.17039,-0.46253 0.20023,-0.81376 0,-3.10517 -0.004,-3.16713 0,-0.0855 0,-0.32156 -0.008,-0.70026 -0.0106,-0.41824 -0.0267,-0.7625 -0.0343,-1.04052 -0.0229,-0.83327 0,-0.57741 -0.0356,-1.46383 -0.0226,-0.59665 -0.0538,-1.13801 -0.0751,-1.63262 -0.0337,-0.77506 -0.0288,-0.63965 -0.0299,-0.56486 0,0.0744 0,-0.29753 -0.0281,-1.13319 -0.0273,-0.80684 -0.0654,-1.54076 -0.0842,-2.21699 -0.0212,-0.75074 -0.0191,-0.6188 -0.0169,-0.7203 0.004,-0.10141 0.0127,-0.47245 0,-1.38904 -0.0127,-0.91366 -0.0455,-1.02049 -0.0794,-1.70179 -0.0381,-0.76998 -0.0809,-1.67055 -0.11134,-2.44827 -0.0212,-0.52159 -0.0279,-1.14148 -0.0574,-1.84281 -0.0148,-0.36002 -0.0366,-0.59477 -0.043,-0.71068 -0.0127,-0.22754 -0.0233,-0.51759 -0.0434,-0.86505 -0.0389,-0.67302 -0.087,-1.25257 -0.11578,-1.76376 -0.0127,-0.1995 -0.0214,-0.4663 -0.0409,-0.79294 -0.0169,-0.28229 -0.0256,-0.26653 -0.0368,-0.35814 -0.004,-0.0264 -0.0169,-0.0928 -0.0237,-0.13682 0,-0.0152 -0.008,-0.071 -0.0226,-0.21827 -0.0425,-0.43061 -0.0798,-0.88544 -0.12488,-1.3572 -0.0891,-0.93049 -0.0466,-0.40725 -0.13314,-1.20345 -0.13187,-1.21107 -0.27855,-2.40978 -0.45191,-3.60375 -0.19367,-1.33519 -0.44301,-2.55016 -0.64727,-3.74836 -0.0516,-0.3031 -0.1033,-0.66328 -0.31009,-4.60535 -0.2068,-3.94191 -6.41201,-9.9915 -14.00131,-9.99421 z"
       sodipodi:nodetypes="sccssscscscssssscssccsssssssssssscccssccsccscscsccssccssscsscsssscscssscssssccs" />
    <path
       id="path162265"
       style="color:#000000;font-variation-settings:normal;display:inline;mix-blend-mode:normal;vector-effect:none;fill:none;fill-opacity:1;stroke:#000000;stroke-width:1;stroke-linecap:butt;stroke-linejoin:miter;stroke-miterlimit:4;stroke-dasharray:none;stroke-dashoffset:0;stroke-opacity:1;-inkscape-stroke:none;paint-order:markers fill stroke;stop-color:#000000"
       d="m 93.468411,49.73678 v 0.002 h -0.002 c -6.58426,0 -11.95905,5.37548 -11.95896,11.96 v 0.002 c 0,0.45593 0.0492,0.90996 0.10181,1.36229 -0.062,0.35031 -0.10027,0.68495 -0.10698,0.72792 -0.007,0.0442 -0.0494,0.20722 -0.0884,0.4972 -0.0769,0.57319 -0.0368,0.98383 -0.0408,1.2046 -0.002,0.0597 -0.0337,0.2722 -0.0393,0.64135 -0.0135,0.88709 0.0706,1.58474 0.0419,2.09846 -0.0323,0.57742 -0.11428,1.24713 -0.13179,2.01188 -0.0165,0.71777 0.009,1.32969 -0.0274,1.83092 -0.024,0.33337 -0.0751,0.72178 -0.12659,1.13538 -0.0264,0.21124 -0.11113,0.57086 -0.13953,1.08563 -0.0376,0.68051 0.0197,1.23042 0.0233,1.62984 0.006,0.66336 -0.003,1.35572 0.007,2.07835 0.003,0.19029 -0.011,0.47667 0.0176,0.85682 0.0225,0.30099 0.0539,0.47223 0.0574,0.51943 0.0273,0.37021 0.0227,0.849 0.0651,1.41901 0.0232,0.31221 0.0579,0.44916 0.0548,0.41699 0.0823,0.83777 0.12848,1.7164 0.1328,2.55862 0.002,0.4299 -0.0617,0.95123 -0.094,1.61544 -0.0188,0.38777 -0.0492,0.83799 -0.0336,1.34916 0.0116,0.38312 0.0421,0.50186 0.0382,0.36322 0.009,0.32237 0.011,0.49699 0.0104,0.54673 0,0.0499 0.0265,-0.21484 0.0589,-0.32448 0.0325,-0.10964 -0.0752,0.32237 -0.0873,0.49361 -0.0121,0.17102 -0.0144,0.33887 -0.0144,0.64537 0,0.4174 0.0169,0.52429 0.0279,0.32512 -0.011,0.19981 -0.0581,0.49805 -0.0971,0.90212 -0.0674,0.69807 -0.0306,1.22004 -0.0553,1.58199 -0.0123,0.18098 -0.07,0.49636 -0.092,0.95483 -0.0212,0.43984 0.0254,0.62103 0.0238,0.54165 0.008,0.36555 0.0102,0.72814 0.006,1.0867 -0.002,0.10964 -0.0142,0.1215 -0.0243,0.3829 -0.01,0.254 -0.003,0.39286 -0.005,0.41551 0,-0.0127 -0.0338,0.14795 -0.047,0.48789 -0.0114,0.29421 0.0116,0.46122 0.0129,0.49974 l -0.002,-0.0332 c 0.003,0.20574 0.008,0.30607 0.008,0.30078 -0.003,0.0588 -0.0424,0.27813 -0.0527,0.66146 -0.0148,0.55414 0.0456,0.84751 0.045,0.88159 0,-0.0214 -0.0363,0.16425 -0.0388,0.55816 -0.002,0.25612 -0.003,0.4028 0.0227,0.62061 0.004,0.0303 0.0224,0.0876 0.0279,0.12361 -0.002,0.0392 0,0.0783 -0.01,0.25633 0.004,-0.0756 -0.0459,0.10414 -0.0646,0.54398 -0.0199,0.46545 0.0125,0.63352 0.0197,0.50546 -0.0104,0.18796 -0.0155,0.22775 -0.019,0.2703 -0.008,0.0271 -0.0351,0.0766 -0.0408,0.0997 -0.0626,0.25188 -0.0712,0.38989 -0.0951,0.64177 -0.0333,0.35179 0,0.5279 0,0.52303 0.004,0.11493 0,0.30945 0.0264,0.58081 0.0516,0.55076 0.12856,0.9017 0.13487,1.0723 0.008,0.21146 -0.0586,0.61362 -0.12971,1.19232 -0.0275,0.22331 -0.0329,0.3374 -0.0336,0.34205 -0.0314,0.21611 -0.0404,0.23368 -0.0724,0.40259 -0.0319,0.1687 -0.0597,0.41254 -0.0723,0.69956 -0.0129,0.29443 0.002,0.32766 0.007,0.47392 0.005,0.14626 0.0118,0.34163 0.0108,0.28257 0.007,0.41487 0.0167,0.77365 0.002,1.07146 -0.0121,0.24617 -0.0407,0.68072 -0.061,0.85471 0,0.004 -0.0344,0.14668 -0.0615,0.43095 -0.0464,0.48641 -0.0568,0.94022 -0.0656,1.35128 -0.003,0.12848 -0.0138,0.32829 -0.0233,0.50694 -0.29271,-0.0853 -0.78793,-0.28914 -1.59162,-0.42481 v 0 c -0.64286,-0.10838 -1.08676,-0.0993 -1.30793,-0.13441 -0.601263,-0.0955 -1.300355,-0.27792 -2.128542,-0.40873 -1.268707,-0.20024 -2.46602,-0.23939 -3.607028,-0.28215 -0.523155,-0.019 -1.134278,-0.0758 -1.833984,-0.0667 -0.93112,0.0127 -1.895663,0.14944 -2.86082,0.5334 -0.562693,0.22394 -0.900577,0.41169 -0.95652,0.43815 -0.05594,0.0265 0.05347,0.004 -0.324019,0.0646 -0.604329,0.0957 -1.52385,0 -2.684078,0.0813 -0.99407,0.0688 -1.759435,0.27538 -2.336289,0.33062 -0.09199,0.008 -0.477583,-0.0995 -1.307421,-0.09 v 0 c -1.218437,0.0148 -2.273255,0.156 -3.182235,0.14796 -0.604477,-0.006 -1.151211,-0.004 -1.637642,-0.044 v 0 c -0.449198,-0.0364 -1.032868,-0.15621 -1.75029,-0.22691 h -0.0036 c -0.799951,-0.0773 -1.277322,-0.0127 -1.424197,-0.0362 -0.42147,-0.066 -1.055517,-0.3084 -1.943034,-0.46821 -0.819594,-0.14753 -1.422801,-0.15197 -1.824692,-0.236 -0.940201,-0.19643 -2.090078,-0.48239 -3.415808,-0.41085 -0.958595,0.0516 -1.67716,0.31454 -2.138381,0.41127 -1.106868,0.23241 -2.265339,0.45551 -3.466969,0.79946 -0.871155,0.24956 -1.277999,0.41275 -1.011829,0.40661 0.05764,-0.004 -0.287041,-0.11514 -1.043346,-0.0796 -0.216704,0.0106 -0.533251,0.0631 -0.66042,0.10033 -0.127191,0.0373 0.08996,-0.0148 0.02119,-0.004 -0.801516,0.1069 -1.252492,0.0546 -2.153873,-0.25019 -0.90807,-0.30691 -1.894118,0.17357 -2.211766,1.07802 -0.335661,0.95673 -0.796607,2.00702 -1.128605,3.22982 -0.233172,0.85873 -0.130048,1.39806 -0.14315,1.53268 -0.123698,1.27105 -0.234357,2.53576 -0.34726,3.79263 -0.04204,0.46779 -0.289369,1.08501 -0.397404,2.11815 -0.07542,0.72157 -0.03499,1.27021 -0.05994,1.63301 -0.157014,2.28345 -0.231372,4.5703 -0.185504,6.88021 0.03638,1.83346 0.251481,3.55706 0.347768,5.18985 0.0061,0.10478 0.0038,0.0345 0.0072,0.12552 -0.02733,0.11853 -0.02669,0.18436 -0.03048,0.22839 -0.01249,0.14457 -0.007,0.167 -0.0061,0.2015 0.0055,0.27665 0.02235,0.39836 0.0682,0.97007 0.03205,0.39942 0.08003,0.66992 0.0889,0.8164 0.0047,0.0773 -0.0032,0.26077 -0.0032,0.54948 -1.7e-4,0.0148 -1.7e-4,0.0277 0,0.0417 0.0049,0.20532 0,0.47964 0.02119,0.82127 0.07686,1.21094 0.222207,2.33637 0.271292,3.37544 0.03624,0.76708 -0.08031,1.72635 -0.03721,2.87888 0.07169,1.91685 0.198438,3.77909 0.198438,5.58016 0,1.28926 -0.102214,2.72986 0.0042,4.26063 0.024,0.34544 0.04307,0.57573 0.06354,0.75904 0.01016,0.0916 0.01778,0.16425 0.04238,0.28892 0.007,0.0358 0.03304,0.11536 0.04858,0.17315 0.0074,0.28913 0.0099,0.36935 0.02377,0.94212 0.02623,1.09284 -0.116649,2.37045 -0.01439,3.82714 0.05755,0.82063 0.18614,1.44336 0.196363,1.88193 0.01566,0.67521 -0.08151,1.50622 -0.07339,2.49406 0.0099,1.21031 0.140018,2.28896 0.127656,3.20188 -0.008,0.59584 -0.128291,1.35339 -0.145224,2.28197 -0.02265,1.24206 0.06157,2.38294 0.05427,3.42307 -0.0083,1.17899 -0.122703,2.44052 -0.162792,3.78883 -0.0643,2.16387 0.08909,4.19205 0,6.09113 -0.06898,1.4787 -0.354669,3.11065 -0.291465,4.96759 0.03264,0.95907 0.144187,1.76911 0.144187,2.44433 0,1.07399 -0.100499,2.32769 0.06769,3.71242 0.101473,0.83544 0.275082,1.41753 0.300249,1.77672 0.03632,0.51837 0.01566,0.75904 -0.01715,1.10956 -0.03266,0.35031 -0.0856,0.83968 -0.05787,1.49288 0.08505,2.00469 0.336211,3.90588 0.437684,5.71838 0.05897,1.05325 0.02815,2.17953 0.0708,3.39936 0.03177,0.90869 0.134366,1.37795 0.159682,1.524 0.02532,0.14584 0.04989,0.29401 0.02119,1.37964 -0.0057,0.21865 -0.120776,0.67395 -0.176212,1.3824 -0.157522,2.01316 0.115612,3.81444 0.06769,5.3505 -0.03008,0.96477 -0.315679,2.18524 -0.291465,3.66648 0.01947,1.18512 0.278405,2.16472 0.403077,2.95952 0.156548,0.99801 0.170053,2.14291 0.275441,3.40805 0.108162,1.29857 0.307107,2.493 0.400494,3.60192 0.03929,0.46651 0.07709,0.87291 0.06769,1.08416 0.007,-0.15939 -0.03355,0.31072 -0.05425,0.48895 -0.0053,0.0445 -0.0091,0.076 -0.01291,0.1126 -0.0021,0.008 -0.0021,0.0169 -0.0036,0.0366 0,0.0106 -0.0021,0.0212 -0.0036,0.047 0,0.0127 -0.0021,0.029 -0.0032,0.0626 -0.0021,0.0334 0.01037,0.25358 0.01037,0.25358 2.2e-5,0 0.44596,0.9815 0.445982,0.9815 0,0 0.909784,-0.10054 1.728573,-0.19071 l -0.376724,0.3302 H 172.89688 c 0.96651,0 1.75008,-0.78338 1.75027,-1.74985 v -83.78746 -36.16997 c -1.1e-4,-0.3228 -0.0895,-0.63945 -0.25838,-0.91461 l -0.86402,-1.4097 c 0.002,-0.006 0.004,-0.008 0.006,-0.0148 0.0306,-0.0967 0.0713,-0.33444 0.0713,-0.33444 l -0.004,-0.41232 c -2e-5,0 -0.3244,-0.81577 -0.32453,-0.81598 -6e-5,0 -0.25055,-0.27537 -0.25063,-0.27559 -9e-5,0 -0.16422,-0.13165 -0.23824,-0.17758 -0.29612,-0.18394 -0.47889,-0.21104 -0.60667,-0.23474 -0.14368,-0.0265 -0.17497,-0.0212 -0.24702,-0.0262 -0.0806,-0.0392 -0.11413,-0.0802 -0.48575,-0.13949 -0.35897,-0.0574 -0.64893,-0.0688 -0.86402,-0.0834 h -0.002 c -0.74263,-0.0512 -1.57622,-0.1124 -2.47789,-0.0489 -1.38024,0.0969 -2.63417,0.32004 -3.77806,0.41021 -0.55774,0.0438 -1.24436,-0.0351 -2.08515,-0.11218 -0.64507,-0.0591 -1.10197,-0.0326 -1.36116,-0.062 -0.22803,-0.0258 -0.3251,-0.0461 -0.32349,-0.0455 -0.0983,-0.0419 -0.19725,-0.0891 -0.34779,-0.13018 -0.21547,-0.0586 -0.43385,-0.0984 -0.74464,-0.14414 -1.14171,-0.16786 -2.1347,-0.0834 -2.99466,-0.0502 -0.62005,0.0239 -0.63957,0.0222 -0.74208,0.0148 -0.10253,-0.008 -0.41469,-0.0402 -1.19113,-0.0641 -0.44554,-0.0127 -0.7407,0.0106 -0.88419,0.002 -1.25728,-0.0699 -2.77222,-0.63394 -4.83072,-0.54039 -1.31235,0.0597 -2.32363,0.37 -3.09075,0.42884 -1.15077,0.0885 -2.64464,-0.2866 -4.5372,-0.13018 -1.63171,0.13462 -3.16339,0.37423 -4.61159,0.47287 -1.45758,0.0993 -3.11167,0.0275 -4.88603,0.25569 -0.56445,0.0726 -0.8826,0.18648 -0.9777,0.20066 0.16988,-0.0252 -1.76196,0.1723 -1.91461,0.17928 -0.98031,0.0447 -2.33591,-0.40788 -4.16151,-0.32724 -0.92634,0.0411 -1.60926,0.19707 -2.10221,0.21188 -1.17187,0.0351 -2.36495,0.0493 -3.576,0.0817 -0.72614,0.019 -1.29734,0.0802 -1.68361,0.0527 -0.0571,-0.004 -0.14051,-0.0169 -0.20102,-0.0237 -0.0757,-0.23579 -0.1285,-0.44915 -0.32144,-0.84455 -0.26725,-0.54737 -0.50798,-0.82401 -0.56326,-0.9218 -0.0853,-0.15071 -0.20591,-0.44789 -0.44184,-0.85979 -0.11101,-0.19389 -0.1616,-0.28321 -0.24185,-0.40577 -0.0201,-0.0307 -0.0417,-0.0637 -0.0863,-0.12255 -0.0131,-0.0231 0,0 -0.015,-0.0277 -0.10969,-0.20024 -0.27339,-0.68432 -0.7333,-1.27339 -0.36373,-0.46609 -0.68876,-0.76475 -0.86144,-0.96837 -0.16194,-0.19114 -0.45013,-0.64939 -1.05471,-1.1085 -0.44304,-0.33634 -0.68925,-0.41698 -0.63665,-0.38396 0.0939,0.0588 0.01,-0.0216 -0.28164,-0.19431 -0.2815,-0.16679 -0.34411,-0.21167 -0.55967,-0.31792 -0.0125,-0.006 -0.039,-0.0169 -0.0558,-0.0252 -0.30391,-0.19262 -0.64357,-0.43074 -1.05886,-0.68517 -0.54914,-0.33655 -1.09567,-0.62526 -1.60248,-0.89513 -0.54955,-0.29274 -0.9377,-0.41635 -1.0816,-0.49509 0.15152,0.083 0.11397,0.0533 -0.13074,-0.091 -0.27428,-0.1615 -0.59091,-0.34692 -0.95239,-0.52282 -0.38604,-0.18796 -0.7547,-0.32491 -1.09555,-0.44238 0.0251,0.008 -0.12262,-0.073 -0.46767,-0.18754 -0.36056,-0.12001 -0.43813,-0.12107 -0.22014,-0.0533 v 0 c 0.13111,0.0406 -0.0243,-0.0665 -0.52916,-0.2159 -0.10029,-0.0296 -0.15291,-0.0368 -0.23669,-0.0533 0.15223,0.0493 0.18982,0.0368 -0.19482,-0.0785 -0.21598,-0.0648 -0.21469,-0.0438 -0.32969,-0.0584 0.0356,-0.12742 0.0475,-0.18605 0.10025,-0.37613 0.0697,-0.25125 0.0626,-0.27305 0.0486,-0.2341 0.0743,-0.15558 0.0588,-0.18733 0.0672,-0.21865 0.0123,-0.0453 0.0161,-0.065 0.0207,-0.0853 0.0184,-0.0804 0.032,-0.14817 0.0646,-0.30734 0.0681,-0.33274 0.0931,-0.51689 0.10698,-0.56685 -0.0433,0.15558 0.0402,0.0169 0.1571,-0.43836 0.17162,-0.66907 0.14564,-1.01642 0.0971,-1.01642 0.0163,-0.0866 0.0289,-0.11641 0.0465,-0.25633 0.0641,-0.50842 0.015,-0.73681 0.0125,-0.67077 0,0.008 0.0447,-0.19261 0.0584,-0.60875 0.008,-0.2377 -0.0461,-0.67606 -0.0201,-0.42989 0.026,0.24616 -0.002,0.24214 0.0284,-0.008 -0.006,0.0478 0.0374,-0.0957 0.0971,-0.45382 0.0559,-0.33507 0.0863,-0.61595 0.11989,-0.83608 0.0408,-0.26776 0.12897,-0.68262 0.17778,-1.15909 0.0488,-0.47667 0.0482,-0.83946 0.0718,-1.07907 0.0377,-0.38227 0.0346,-0.34565 0.0491,-0.41804 0.0144,-0.0722 0.06,-0.30057 0.11832,-0.75967 0.1358,-1.06871 0.0613,-0.68051 0.14677,-1.5331 0.0432,-0.43117 0.0899,-0.86297 0.139,-1.29561 0.0632,-0.55668 0.0939,-0.56388 0.15813,-1.2537 0.0911,-0.97705 0.0841,-1.87261 0.10903,-2.70065 0.0195,-0.64918 0.0612,-1.33752 0.0718,-2.07306 0.0131,-0.91208 -0.002,-1.79155 0.007,-2.63821 0.0112,-1.2137 0.0496,-2.4547 0.0579,-3.72216 0.005,-0.76327 -0.0716,-1.29603 -0.0496,-1.60316 0.0184,-0.2576 0.17336,-0.77809 0.15194,-1.59681 -0.0266,-1.01388 -0.21034,-1.76149 -0.22583,-2.28303 -0.007,-0.22204 0.0502,-0.62209 0.0589,-1.20925 0.006,-0.38545 -0.0289,-0.60198 -0.0326,-0.71777 -0.005,-0.16785 0.0266,-0.45233 0.0496,-0.88624 0.0299,-0.56388 -0.004,-0.77491 -0.0161,-0.80031 0.0112,-0.0591 0.0123,-0.0622 0.0331,-0.17209 0.11845,-0.62907 0.0946,-1.14109 0.0946,-1.50389 -0.0322,-0.18902 -0.0952,-0.37147 -0.18655,-0.53996 0.0483,-0.41741 0.11627,-0.83269 0.1204,-1.25328 2e-5,-0.006 2e-5,-0.0106 0,-0.0169 2e-5,-1.74984 -0.37958,-3.41439 -1.0606,-4.91532 -1.88167,-4.14696 -6.142069,-7.65301 -10.899399,-7.04574 z m 10.113609,48.23476 c 0,0.004 0.002,0.0169 0.003,0.0218 0,0.008 -1.3e-4,0 0,0.008 0,-0.006 -0.003,-0.0222 -0.003,-0.0301 z m -22.646169,2.21593 c -0.006,0.0169 -0.0169,0.0368 -0.0222,0.0531 0.005,-0.0169 1.4e-4,-0.006 0.006,-0.0263 0.002,-0.006 0.0133,-0.019 0.0161,-0.0269 z m 34.218079,7.0559 c 0.01,0.008 0.025,0.019 0.0336,0.0273 0.0569,0.0514 0.0834,0.0828 0.11214,0.11472 -0.018,-0.0294 -0.0835,-0.0847 -0.14573,-0.14202 z m 56.45651,2.97645 c 0.052,-0.004 0.0565,0.0127 0.0997,0.0148 -0.0221,0.006 -0.0442,0.0127 -0.0579,0.0169 -0.0572,0 -0.13604,0.004 -0.17363,0.004 0.0415,-0.008 0.0948,-0.0347 0.13179,-0.0377 z m 1.4185,3.07996 -0.007,0.006 c 0,0 0.002,-0.002 0.003,-0.004 0.002,-0.002 0.002,-0.002 0.004,-0.002 z"
       sodipodi:nodetypes="ccssscsscssssssssssscssscsssscssscsscscccscssccsccssccsssssscsssscsssssssssssssssssccssssscsscssssssssscscsssccsssssscssssssssssssssssssssssssscscsscccccccccsccccsssscssssssscssscccssssscssssscssssccsssssscsscsscsssscscscssscscsssscssssssssssscssssssscsccscsscsscssccscccccccccccccsc" />
    <path
       id="path12039-741"
       style="display:inline;vector-effect:none;fill:none;fill-rule:evenodd;stroke:#000000;paint-order:markers fill stroke;stop-color:#000000"
       d="m 95.96817,61.701294 a 2.5,2.5 0 0 1 -2.5,2.5 2.5,2.5 0 0 1 -2.5,-2.5 2.5,2.5 0 0 1 2.5,-2.5 2.5,2.5 0 0 1 2.5,2.5 z" />
    <path
       id="path12039-88"
       style="display:inline;vector-effect:none;fill:none;fill-rule:evenodd;stroke:#000000;paint-order:markers fill stroke;stop-color:#000000"
       d="m 160.02061,125.97388 a 2.5,2.5 0 0 1 -2.5,2.5 2.5,2.5 0 0 1 -2.5,-2.5 2.5,2.5 0 0 1 2.5,-2.5 2.5,2.5 0 0 1 2.5,2.5 z" />
    <path
       id="path162288"
       style="color:#000000;font-variation-settings:normal;display:inline;mix-blend-mode:normal;vector-effect:none;fill:none;fill-opacity:1;stroke:#000000;stroke-width:1;stroke-linecap:butt;stroke-linejoin:miter;stroke-miterlimit:4;stroke-dasharray:none;stroke-dashoffset:0;stroke-opacity:1;-inkscape-stroke:none;paint-order:markers fill stroke;stop-color:#000000"
       d="m 65.896685,-111.33315 v 0 c -0.05266,0 -0.105262,0.004 -0.157607,0.0106 -3.192946,0.36089 -6.482093,1.07294 -9.512077,2.63503 -0.07736,0.0398 -0.151637,0.0855 -0.222207,0.13632 -5.151262,3.71453 -7.930399,10.21227 -7.103969,16.4977 0.373655,3.46921 1.16389,7.07516 3.03392,10.30752 0.0021,0.002 0.0032,0.006 0.0047,0.008 2.139143,3.65442 5.191161,6.54409 8.380381,8.97867 0.489351,0.37381 0.94255,0.73935 1.425234,1.10596 -2.774311,0.19389 -5.54894,0.38756 -8.323019,0.58483 -0.249745,0.0169 -0.492759,0.0891 -0.712617,0.20892 -1.565675,0.85259 -4.004263,2.09719 -6.331387,3.53419 -2.327145,1.43679 -4.564331,2.97815 -5.877171,4.97945 -0.0032,0.004 -0.0066,0.0106 -0.0097,0.0148 -2.539383,3.96367 -4.094856,8.31637 -5.526779,12.5243 0,0 0,0.002 0,0.004 -2.177793,6.45074 -4.275301,12.94784 -6.116418,19.53532 0,0 0,0.002 0,0.004 -1.742183,6.30702 -3.182849,12.68114 -4.451408,19.07474 -2.712737,12.98171 -1.585487,25.22471 -3.997701,37.61947 -0.0053,0.0265 -0.0099,0.0533 -0.01397,0.08 -0.335343,2.28642 -0.376088,4.76842 0.39842,7.18353 0.03177,0.0986 0.07224,0.19431 0.120925,0.28575 0.554418,1.04521 1.65049,1.51426 2.593654,1.52082 0.934508,0.006 1.925254,-0.37613 2.554369,-1.30217 0.748093,-0.95377 1.014941,-1.82816 1.285704,-2.27012 0.02335,-0.0379 0.04523,-0.0766 0.06562,-0.11621 0.376894,-0.73617 0.72229,-1.47933 1.049548,-2.22482 0.152823,1.83578 0.305561,3.67156 0.458384,5.50714 0.01926,0.23198 0.08462,0.45783 0.192236,0.6642 0.200109,0.38376 0.400409,0.76751 0.600476,1.15126 0.403584,0.77343 1.315189,1.13157 2.137344,0.83968 1.171214,-0.41593 2.038686,-1.20523 2.665981,-2.13995 0.0527,0.26183 0.09059,0.51964 0.151405,0.78296 l -0.03514,-0.20977 c 0.03774,0.35687 0.107463,0.78994 0.368977,1.29392 0.25292,0.48768 0.806703,1.07357 1.557526,1.29561 1.597552,0.56367 3.185092,-0.19008 3.909309,-1.60295 1.654342,-2.33023 2.385755,-5.02115 2.793129,-7.55099 3.108617,-16.87362 4.642923,-33.6412 7.265174,-50.41978 0.0034,-0.0231 0.0063,-0.0463 0.0087,-0.0696 0.533526,-4.62999 0.902376,-9.2585 1.223707,-13.87875 1.001563,9.15457 0.967188,18.46048 0.898651,27.78947 -0.130048,12.14393 -0.393171,24.34185 0.150897,36.56939 6.3e-5,0.002 -6.4e-5,0.004 0,0.004 1.06e-4,0.002 0,0.004 0,0.006 0.511407,13.60592 1.526432,30.30449 1.163255,43.75695 0,0.002 0,0.006 0,0.008 l -0.229447,10.26815 c -0.362055,0.36533 -0.945725,0.65638 -1.612834,0.75967 -0.09667,0.0148 -0.191897,0.0379 -0.284734,0.0686 -4.352581,1.44716 -6.391605,3.88429 -9.637129,6.01048 h -0.0021 l -1.344103,0.88222 c -0.222461,0.14584 -0.408749,0.34057 -0.54466,0.56939 -1.516759,2.55439 -1.909421,5.45358 -1.864993,8.12989 0,0 -2.1e-5,0.002 0,0.002 0,0 -2.1e-5,0 0,0.002 0.0097,0.64918 0.01926,1.299 0.02894,1.9486 0.01037,0.68961 0.424793,1.30874 1.058332,1.58136 2.086375,0.8981 4.238704,0.71247 6.051818,0.36174 l -0.09612,0.0148 c 5.015943,-0.68474 9.856817,-1.67153 14.623397,-1.67746 3.48786,0.18817 6.998855,0.60897 10.551824,1.01388 0.270996,0.0309 0.545464,-0.002 0.801496,-0.0961 1.866432,-0.68538 2.75996,-2.51947 2.606036,-4.286042 l -0.0047,0.35095 C 76.462235,78.30524 78.080954,54.2411 80.606409,33.40762 l -0.0097,0.0667 c 0.449621,-2.80416 0.795654,-7.41467 1.151359,-12.04678 0.294576,-3.83624 0.600709,-7.40219 0.920855,-10.01817 0.229277,0.12107 0.372532,0.17208 0.635634,0.32723 0.608435,0.35878 1.269384,0.77407 1.954908,1.12289 0.685545,0.34883 1.345458,0.75904 2.491843,0.61553 0.04646,-0.006 0.09265,-0.0127 0.138493,-0.0229 0.09462,-0.019 0.110067,-0.0267 0.176742,-0.0428 1.081086,0.32216 2.195298,0.52388 3.325364,0.53171 0.0047,0 0.0093,0 0.01397,0 3.946943,-0.004 7.630764,-1.96596 9.853643,-5.21821 0.52667,-0.53277 0.9231,-1.24883 1.11726,-2.01761 0.6444,-1.49119 0.98427,-3.09604 0.98702,-4.72164 0,-1.00456998 -0.14954,-2.00024998 -0.39998,-2.97242994 C 103.46764,-6.72566 104.161,-12.58014 103.81131,-18.53452 c -0.71302,-12.02901 -0.23337,-24.03811 -0.39893,-36.22777 5.88519,10.53274 11.79854,21.02017 17.02325,31.81516 0,0.002 0.002,0.002 0.002,0.004 3.50706,7.51479 6.399,15.34899 9.34103,23.20583002 0.0357,0.0953 0.0796,0.18733 0.13126,0.27496 1.18761,2.01484998 4.31039,1.05112998 4.25917,-1.22893996 0.002,0.004 0.006,0.0106 0.008,0.0148 l -0.009,0.2521 c 0.0112,-0.0743 0.0148,-0.14881 0.0253,-0.2231 0.0752,0.13166 0.2468,0.42544996 0.2961,0.51413996 0.19774,0.35538 0.51312,0.63097 0.89194,0.77914 0.76172,0.29782 1.60193,0.0294 1.96989,-0.18965 0.36796,-0.21887 0.53268,-0.38545 0.5054,-0.36576 0.0643,-0.0464 0.12547,-0.0972 0.18294,-0.15198 0.5616,-0.53572996 0.61017,-1.06763992 0.63665,-1.41286992 0.006,-0.0718 -0.0102,-0.11536 -0.009,-0.18076 0.0736,0.0914 0.14706,0.18287 0.22066,0.27431 0.17003,0.21167 0.38693,0.38079 0.63356,0.49402996 0.21685,0.0995 0.43341,0.19876 0.65009,0.29824 0.96154,0.44132996 2.0918,-0.0648 2.40294,-1.07589996 0.8156,-2.6490001 0.5664,-5.2630801 0.32919,-7.5732101 0,-0.004 -0.002,-0.0106 -0.003,-0.0148 -0.622,-5.58566 -1.10043,-11.28097 -2.22364,-16.95807 -0.002,-0.008 -0.003,-0.0169 -0.005,-0.0265 -1.1814,-5.52873 -3.02289,-10.76239 -4.44675,-15.98717 -0.002,-0.008 -0.004,-0.0169 -0.006,-0.0237 -0.63528,-2.20916 -1.51562,-4.38213 -2.73058,-6.4027 l 0.0289,0.0502 c -1.2515,-2.24663 -2.50621,-4.45982 -3.65662,-6.69628 -0.006,-0.0106 -0.0123,-0.0224 -0.0186,-0.0337 -1.67648,-3.0916 -3.36365,-6.36692 -5.76865,-9.30316 l 0.0182,0.0222 c -1.05478,-1.33139 -2.03992,-2.60583 -2.75177,-3.93827 -0.0161,-0.0301 -0.0332,-0.0597 -0.0512,-0.0889 -1.67845,-2.74447 -3.92705,-4.82261 -5.90302,-6.84677 -1.54169,-1.63555 -3.08992,-3.41524 -4.94336,-5.02644 -1.24517,-1.0903 -2.56055,-2.12683 -3.96153,-3.06345 -0.008,-0.006 -0.0159,-0.0106 -0.0238,-0.0169 -1.0719,-0.69151 -2.3017,-1.12691 -3.59047,-1.24586 -1.48698,-0.16997 -2.908808,-0.12975 -4.241079,-0.0936 -0.02172,0 -0.04341,0 -0.06511,0.002 -1.619417,0.10435 -3.200417,0.63161 -4.559421,1.55299 -1.549737,1.00203 -2.827418,2.17339 -4.054533,3.19976 -0.0085,0.006 -0.01693,0.0148 -0.02532,0.0216 -1.105724,0.96139 -2.143334,1.92765 -3.19775,2.89708 0.236622,-3.7122 0.497586,-7.50844 0.09095,-11.4139 -0.0023,-0.0212 -0.0051,-0.0415 -0.0083,-0.062 -0.476397,-3.39407 -1.902119,-6.44672 -3.501089,-9.19203 -0.0028,-0.004 -0.0055,-0.0106 -0.0083,-0.0148 -1.757678,-2.95486 -3.862552,-5.72071 -6.308145,-8.17117 -0.0042,-0.004 -0.0083,-0.008 -0.01249,-0.0127 -2.143122,-2.1046 -4.76533,-3.98546 -7.910629,-4.82091 h -0.0032 c -1.014179,-0.26734 -2.078522,-0.41296 -3.164667,-0.38905 z"
       sodipodi:nodetypes="cscsscscscsssscscsccscscscsccsssscccscccscccsscsccscccsscccsscccssccccscsssscscccccccscssccccssscsscssssscscscccscccscccsccsccsscscscscsscc" />
    <path
       id="path12039-785"
       style="display:inline;vector-effect:none;fill:none;fill-rule:evenodd;stroke:#000000;paint-order:markers fill stroke;stop-color:#000000"
       d="m 93.902916,1.9866676 a 2.5,2.5 0 0 1 -2.5,2.5 2.5,2.5 0 0 1 -2.5,-2.5 2.5,2.5 0 0 1 2.5,-2.49999995 2.5,2.5 0 0 1 2.5,2.49999995 z" />
  </g>
</svg>
