<?xml version="1.0" encoding="UTF-8" standalone="no"?>
<!-- Created with Inkscape (http://www.inkscape.org/) -->

<svg
   width="210mm"
   height="297mm"
   viewBox="0 0 210 297"
   version="1.1"
   id="svg11513"
   inkscape:version="1.2.2 (b0a8486541, 2022-12-01)"
   sodipodi:docname="plexi-trans4mm-session-juin.svg"
   xmlns:inkscape="http://www.inkscape.org/namespaces/inkscape"
   xmlns:sodipodi="http://sodipodi.sourceforge.net/DTD/sodipodi-0.dtd"
   xmlns="http://www.w3.org/2000/svg"
   xmlns:svg="http://www.w3.org/2000/svg">
  <sodipodi:namedview
     id="namedview11515"
     pagecolor="#505050"
     bordercolor="#eeeeee"
     borderopacity="1"
     inkscape:showpageshadow="0"
     inkscape:pageopacity="0"
     inkscape:pagecheckerboard="0"
     inkscape:deskcolor="#505050"
     inkscape:document-units="mm"
     showgrid="false"
     inkscape:zoom="0.26119347"
     inkscape:cx="9.5714491"
     inkscape:cy="599.17271"
     inkscape:window-width="1920"
     inkscape:window-height="1011"
     inkscape:window-x="0"
     inkscape:window-y="32"
     inkscape:window-maximized="1"
     inkscape:current-layer="layer1" />
  <defs
     id="defs11510" />
  <g
     inkscape:label="Calque 1"
     inkscape:groupmode="layer"
     id="layer1">
    <path
       style="color:#000000;font-variation-settings:normal;display:inline;vector-effect:none;fill:none;fill-opacity:1;stroke:#000000;stroke-width:1;stroke-linecap:butt;stroke-linejoin:miter;stroke-miterlimit:4;stroke-dasharray:none;stroke-dashoffset:0;stroke-opacity:1;-inkscape-stroke:none;paint-order:markers fill stroke;stop-color:#000000"
       d="m -69.114674,326.89509 c -1.102838,-0.0581 -2.044133,0.78876 -2.102347,1.8917 -0.05821,1.10294 0.788701,2.04421 1.891531,2.1025 1.103103,0.0581 2.044397,-0.78874 2.102611,-1.89168 0.05821,-1.10294 -0.7887,-2.04421 -1.891795,-2.10252 z"
       id="path10831" />
    <path
       style="color:#000000;font-variation-settings:normal;display:inline;vector-effect:none;fill:none;fill-opacity:1;stroke:#000000;stroke-width:1;stroke-linecap:butt;stroke-linejoin:miter;stroke-miterlimit:4;stroke-dasharray:none;stroke-dashoffset:0;stroke-opacity:1;-inkscape-stroke:none;paint-order:markers fill stroke;stop-color:#000000"
       d="m 108.1184,329.80639 c -1.1031,-0.0581 -2.04441,0.78906 -2.10237,1.8922 -0.0582,1.10294 0.7887,2.04421 1.89153,2.1025 1.1031,0.0581 2.04413,-0.78876 2.10261,-1.89168 0.0582,-1.10313 -0.78867,-2.04472 -1.89177,-2.10302 z"
       id="path10829" />
    <path
       style="color:#000000;font-variation-settings:normal;display:inline;vector-effect:none;fill:none;fill-opacity:1;stroke:#000000;stroke-width:1;stroke-linecap:butt;stroke-linejoin:miter;stroke-miterlimit:4;stroke-dasharray:none;stroke-dashoffset:0;stroke-opacity:1;-inkscape-stroke:none;paint-order:markers fill stroke;stop-color:#000000"
       d="m -237.72159,291.95455 c -1.10337,-0.0581 -2.04468,0.78905 -2.10264,1.89222 -0.0582,1.10294 0.7887,2.0442 1.89179,2.10251 1.10284,0.0581 2.04413,-0.78876 2.10235,-1.8917 0.0582,-1.10315 -0.78841,-2.04472 -1.8915,-2.10303 z"
       id="path10827" />
    <path
       style="color:#000000;font-variation-settings:normal;display:inline;vector-effect:none;fill:none;fill-opacity:1;stroke:#000000;stroke-width:1;stroke-linecap:butt;stroke-linejoin:miter;stroke-miterlimit:4;stroke-dasharray:none;stroke-dashoffset:0;stroke-opacity:1;-inkscape-stroke:none;paint-order:markers fill stroke;stop-color:#000000"
       d="m 269.1687,303.24773 c -1.10335,-0.0584 -2.04519,0.78883 -2.10316,1.89218 -0.0582,1.10315 0.78895,2.04452 1.89232,2.10254 1.10284,0.0581 2.04413,-0.78876 2.10235,-1.8917 0.0582,-1.10315 -0.78841,-2.04472 -1.89151,-2.10302 z"
       id="path10825" />
    <path
       style="color:#000000;font-variation-settings:normal;display:inline;vector-effect:none;fill:none;fill-opacity:1;stroke:#000000;stroke-width:1;stroke-linecap:butt;stroke-linejoin:miter;stroke-miterlimit:4;stroke-dasharray:none;stroke-dashoffset:0;stroke-opacity:1;-inkscape-stroke:none;paint-order:markers fill stroke;stop-color:#000000"
       d="m -377.48525,241.25401 c -1.10284,-0.0581 -2.04413,0.78875 -2.10234,1.89169 -0.0582,1.10294 0.78869,2.04424 1.89153,2.1025 1.10335,0.0584 2.04491,-0.78853 2.10314,-1.89165 0.0582,-1.10313 -0.78895,-2.04452 -1.89233,-2.10254 z"
       id="path10823" />
    <path
       style="color:#000000;font-variation-settings:normal;display:inline;vector-effect:none;fill:none;fill-opacity:1;stroke:#000000;stroke-width:1;stroke-linecap:butt;stroke-linejoin:miter;stroke-miterlimit:4;stroke-dasharray:none;stroke-dashoffset:0;stroke-opacity:1;-inkscape-stroke:none;paint-order:markers fill stroke;stop-color:#000000"
       d="m 386.03844,264.48464 c -1.1031,-0.0581 -2.04441,0.78907 -2.10238,1.89223 -0.0582,1.10294 0.7887,2.04421 1.89153,2.1025 1.10311,0.0581 2.04414,-0.78876 2.10262,-1.89169 0.0582,-1.10315 -0.78868,-2.04473 -1.89177,-2.10304 z"
       id="path10821" />
    <path
       style="color:#000000;font-variation-settings:normal;display:inline;vector-effect:none;fill:none;fill-opacity:1;stroke:#000000;stroke-width:1;stroke-linecap:butt;stroke-linejoin:miter;stroke-miterlimit:4;stroke-dasharray:none;stroke-dashoffset:0;stroke-opacity:1;-inkscape-stroke:none;paint-order:markers fill stroke;stop-color:#000000"
       d="m 402.75109,244.78067 -1.27498,24.1562 c -5.57685,2.79402 -365.209061,177.03409 -789.98741,-21.06973 l 1.26259,-23.92141 0.76071,0.37083 c 186.86068,86.78163 361.738421,101.32742 499.0651,90.37331 175.09924,-13.96708 289.14936,-69.39096 289.14936,-69.39096 z"
       id="path10819" />
    <path
       style="color:#000000;font-variation-settings:normal;display:inline;vector-effect:none;fill:none;fill-opacity:1;stroke:#000000;stroke-width:1;stroke-linecap:butt;stroke-linejoin:miter;stroke-miterlimit:4;stroke-dasharray:none;stroke-dashoffset:0;stroke-opacity:1;-inkscape-stroke:none;paint-order:markers fill stroke;stop-color:#000000"
       d="m 40.140985,287.27612 c -1.092267,0.16483 -1.844022,1.18399 -1.679264,2.27632 0.164726,1.09212 1.183855,1.84386 2.275885,1.67922 1.092005,-0.16478 1.843807,-1.18363 1.679342,-2.27579 -0.164758,-1.09233 -1.183672,-1.84442 -2.275963,-1.67975 z"
       id="path10817" />
    <path
       style="color:#000000;font-variation-settings:normal;display:inline;vector-effect:none;fill:none;fill-opacity:1;stroke:#000000;stroke-width:1;stroke-linecap:butt;stroke-linejoin:miter;stroke-miterlimit:4;stroke-dasharray:none;stroke-dashoffset:0;stroke-opacity:1;-inkscape-stroke:none;paint-order:markers fill stroke;stop-color:#000000"
       d="m -45.226183,282.16294 c -1.092006,0.16479 -1.843808,1.18363 -1.679082,2.27576 0.164727,1.09212 1.183594,1.84389 2.275623,1.67926 1.092311,-0.16454 1.844625,-1.18354 1.679867,-2.27588 -0.164759,-1.09233 -1.184161,-1.8441 -2.276408,-1.67914 z"
       id="path10815" />
    <path
       style="color:#000000;font-variation-settings:normal;display:inline;vector-effect:none;fill:none;fill-opacity:1;stroke:#000000;stroke-width:1;stroke-linecap:butt;stroke-linejoin:miter;stroke-miterlimit:4;stroke-dasharray:none;stroke-dashoffset:0;stroke-opacity:1;-inkscape-stroke:none;paint-order:markers fill stroke;stop-color:#000000"
       d="m 116.07589,246.35072 c -1.09227,0.16483 -1.84381,1.18363 -1.67934,2.27579 0.16473,1.09213 1.18359,1.8439 2.27588,1.67923 1.09201,-0.16479 1.84381,-1.18364 1.67909,-2.27576 -0.16473,-1.09212 -1.1836,-1.84389 -2.27563,-1.67926 z"
       id="path10813" />
    <path
       style="color:#000000;font-variation-settings:normal;display:inline;vector-effect:none;fill:none;fill-opacity:1;stroke:#000000;stroke-width:1;stroke-linecap:butt;stroke-linejoin:miter;stroke-miterlimit:4;stroke-dasharray:none;stroke-dashoffset:0;stroke-opacity:1;-inkscape-stroke:none;paint-order:markers fill stroke;stop-color:#000000"
       d="m -151.40753,228.12634 c -1.09228,0.16475 -1.84464,1.18344 -1.67989,2.27572 0.16479,1.09254 1.18401,1.84482 2.27651,1.67977 1.09228,-0.16475 1.84403,-1.18388 1.67898,-2.27638 -0.16471,-1.09202 -1.18358,-1.84382 -2.2756,-1.67911 z"
       id="path10811" />
    <path
       style="color:#000000;font-variation-settings:normal;display:inline;vector-effect:none;fill:none;fill-opacity:1;stroke:#000000;stroke-width:1;stroke-linecap:butt;stroke-linejoin:miter;stroke-miterlimit:4;stroke-dasharray:none;stroke-dashoffset:0;stroke-opacity:1;-inkscape-stroke:none;paint-order:markers fill stroke;stop-color:#000000"
       d="m 196.24917,164.24344 c -1.09228,0.16475 -1.84434,1.18366 -1.67959,2.27594 0.16475,1.09228 1.18389,1.84404 2.27613,1.67902 1.09228,-0.16475 1.84407,-1.18362 1.67936,-2.27563 -0.16475,-1.09228 -1.18358,-1.84382 -2.2759,-1.67933 z"
       id="path10809" />
    <path
       style="color:#000000;font-variation-settings:normal;display:inline;vector-effect:none;fill:none;fill-opacity:1;stroke:#000000;stroke-width:1;stroke-linecap:butt;stroke-linejoin:miter;stroke-miterlimit:4;stroke-dasharray:none;stroke-dashoffset:0;stroke-opacity:1;-inkscape-stroke:none;paint-order:markers fill stroke;stop-color:#000000"
       d="m 276.90268,101.81825 c -1.09202,0.16471 -1.84377,1.18385 -1.67932,2.2759 0.16471,1.09202 1.18384,1.84378 2.2759,1.67933 1.09227,-0.16475 1.84433,-1.18366 1.67985,-2.27598 -0.16475,-1.09228 -1.18415,-1.844 -2.27643,-1.67925 z"
       id="path10807" />
    <path
       style="color:#000000;font-variation-settings:normal;display:inline;vector-effect:none;fill:none;fill-opacity:1;stroke:#000000;stroke-width:1;stroke-linecap:butt;stroke-linejoin:miter;stroke-miterlimit:4;stroke-dasharray:none;stroke-dashoffset:0;stroke-opacity:1;-inkscape-stroke:none;paint-order:markers fill stroke;stop-color:#000000"
       d="m -279.59919,183.23068 c -1.09228,0.16475 -1.84408,1.18362 -1.67937,2.27564 0.16479,1.09254 1.18344,1.84464 2.27598,1.67985 1.09228,-0.16475 1.84404,-1.18388 1.67899,-2.27639 -0.16471,-1.09201 -1.18358,-1.84381 -2.2756,-1.6791 z"
       id="path10805" />
    <path
       style="color:#000000;font-variation-settings:normal;display:inline;vector-effect:none;fill:none;fill-opacity:1;stroke:#000000;stroke-width:1;stroke-linecap:butt;stroke-linejoin:miter;stroke-miterlimit:4;stroke-dasharray:none;stroke-dashoffset:0;stroke-opacity:1;-inkscape-stroke:none;paint-order:markers fill stroke;stop-color:#000000"
       d="m -377.21422,195.88869 c -1.09201,0.16472 -1.84381,1.18359 -1.67932,2.2759 0.16471,1.09202 1.18384,1.84378 2.27586,1.67907 1.09201,-0.16471 1.84381,-1.18358 1.67936,-2.27564 -0.16475,-1.09228 -1.18388,-1.84404 -2.2759,-1.67933 z"
       id="path10803" />
    <path
       style="color:#000000;font-variation-settings:normal;display:inline;vector-effect:none;fill:none;fill-opacity:1;stroke:#000000;stroke-width:1;stroke-linecap:butt;stroke-linejoin:miter;stroke-miterlimit:4;stroke-dasharray:none;stroke-dashoffset:0;stroke-opacity:1;-inkscape-stroke:none;paint-order:markers fill stroke;stop-color:#000000"
       d="m 360.61166,72.845558 c -1.09228,0.16475 -1.844,1.184145 -1.67899,2.276384 0.16471,1.092018 1.18358,1.843816 2.27564,1.679367 1.09228,-0.16475 1.8446,-1.1837 1.67985,-2.27598 -0.16479,-1.09254 -1.18396,-1.844561 -2.2765,-1.679771 z"
       id="path10801" />
    <path
       style="color:#000000;font-variation-settings:normal;display:inline;vector-effect:none;fill:none;fill-opacity:1;stroke:#000000;stroke-width:1;stroke-linecap:butt;stroke-linejoin:miter;stroke-miterlimit:4;stroke-dasharray:none;stroke-dashoffset:0;stroke-opacity:1;-inkscape-stroke:none;paint-order:markers fill stroke;stop-color:#000000"
       d="m 350.01749,62.396431 c 22.36815,-3.710167 35.72481,-1.690802 37.08096,-1.468569 l 3.48485,23.104255 -0.81347,-0.147554 c 0,0 -23.74933,-4.357626 -62.30081,7.664914 -38.55145,12.022803 -91.69161,40.467963 -149.74575,106.406893 -58.39954,66.33134 -105.072371,99.06434 -154.839024,104.04767 -49.766919,4.98335 -101.976321,-17.78438 -171.481966,-61.20073 -69.02862,-43.1187 -128.93255,-49.95134 -171.60777,-46.0865 -42.67523,3.86483 -67.94855,18.37801 -67.94855,18.37801 l -0.67337,0.38573 -3.49208,-23.15213 c 1.79309,-1.00014 27.01516,-14.75503 68.89474,-18.54802 43.43467,-3.93363 104.33688,3.10806 174.0875,46.67789 69.273487,43.27153 120.679554,65.44804 168.964278,60.61309 48.284466,-4.83488 94.103102,-36.68332 152.235352,-102.71111 58.47738,-66.42019 112.2902,-95.335526 151.55745,-107.581618 9.81688,-3.061533 18.73784,-5.07871 26.59766,-6.382221 z"
       id="path4510-2" />
    <path
       d="m -394.3219,35.884433 c 0,-1.104105 0.89549,-1.999718 2.00003,-1.999982 1.10497,0 2.00047,0.895347 2.00047,1.999982 0,1.104898 -0.8955,2.000777 -2.00047,2.000512 -1.10454,0 -2.00003,-0.895614 -2.00003,-2.000512 z m 14.00043,0 c 0,-1.104105 0.89571,-1.999718 2.00003,-1.999982 1.10431,0 2.00047,0.895347 2.00047,1.999982 0,1.104898 -0.8955,2.000777 -2.00047,2.000512 -1.10476,0 -2.00003,-0.895614 -2.00003,-2.000512 z"
       style="font-variation-settings:normal;display:inline;vector-effect:none;fill:none;fill-opacity:1;fill-rule:evenodd;stroke:#000000;stroke-width:1;stroke-linecap:butt;stroke-linejoin:miter;stroke-miterlimit:4;stroke-dasharray:none;stroke-dashoffset:0;stroke-opacity:1;-inkscape-stroke:none;paint-order:markers fill stroke;stop-color:#000000"
       id="path3253" />
    <path
       id="rect2484-9-2-9-6-6-6-8-9"
       style="display:inline;vector-effect:none;fill:none;fill-rule:evenodd;stroke:#000000;stroke-width:1.00001;paint-order:markers fill stroke;stop-color:#000000"
       d="m -389.81937,25.884719 h 879.99994 c 5.54,0 10,4.46 10,10 0,5.54 -4.46,10 -10,10 h -879.99994 c -5.54,0 -10,-4.46 -10,-10 0,-5.54 4.46,-10 10,-10 z" />
    <path
       d="m -394.32169,10.592743 c 0,-1.1041056 0.89528,-1.9997206 1.99982,-1.9999846 1.10497,0 2.00068,0.89535 2.00068,1.9999846 0,1.104898 -0.89571,2.000775 -2.00068,2.000511 -1.10454,0 -1.99982,-0.895613 -1.99982,-2.000511 z m 14.00044,0 c 0,-1.1041056 0.89549,-1.9997206 1.99981,-1.9999846 1.10453,0 2.00069,0.89535 2.00069,1.9999846 0,1.104898 -0.89572,2.000775 -2.00069,2.000511 -1.10454,0 -1.99981,-0.895613 -1.99981,-2.000511 z"
       style="font-variation-settings:normal;display:inline;vector-effect:none;fill:none;fill-opacity:1;fill-rule:evenodd;stroke:#000000;stroke-width:1;stroke-linecap:butt;stroke-linejoin:miter;stroke-miterlimit:4;stroke-dasharray:none;stroke-dashoffset:0;stroke-opacity:1;-inkscape-stroke:none;paint-order:markers fill stroke;stop-color:#000000"
       id="path3253-5" />
    <path
       id="rect2484-9-2-9-6-6-6-8-9-9"
       style="display:inline;vector-effect:none;fill:none;fill-rule:evenodd;stroke:#000000;stroke-width:1.00001;paint-order:markers fill stroke;stop-color:#000000"
       d="m -389.81937,0.59304745 h 879.99994 c 5.54,0 10,4.45999995 10,9.99999955 0,5.54 -4.46,10 -10,10 h -879.99994 c -5.54,0 -10,-4.46 -10,-10 0,-5.5399996 4.46,-9.99999955 10,-9.99999955 z" />
    <path
       d="m -394.32147,-14.698903 c 0,-1.10411 0.8955,-1.99972 2.00003,-1.99999 1.10498,0 2.00047,0.89535 2.00047,1.99999 0,1.10489 -0.89549,2.000779 -2.00047,2.000515 -1.10453,0 -2.00003,-0.895625 -2.00003,-2.000515 z m 14.00044,0 c 0,-1.10411 0.89571,-1.99972 2.00003,-1.99999 1.10431,0 2.00047,0.89535 2.00047,1.99999 0,1.10489 -0.8955,2.000779 -2.00047,2.000515 -1.10476,0 -2.00003,-0.895625 -2.00003,-2.000515 z"
       style="font-variation-settings:normal;display:inline;vector-effect:none;fill:none;fill-opacity:1;fill-rule:evenodd;stroke:#000000;stroke-width:1;stroke-linecap:butt;stroke-linejoin:miter;stroke-miterlimit:4;stroke-dasharray:none;stroke-dashoffset:0;stroke-opacity:1;-inkscape-stroke:none;paint-order:markers fill stroke;stop-color:#000000"
       id="path3253-9" />
    <path
       id="rect2484-9-2-9-6-6-6-8-9-7"
       style="display:inline;vector-effect:none;fill:none;fill-rule:evenodd;stroke:#000000;stroke-width:1.00001;paint-order:markers fill stroke;stop-color:#000000"
       d="m -389.81937,-24.698613 h 879.99994 c 5.54,0 10,4.46 10,10 0,5.5399964 -4.46,9.9999964 -10,9.9999964 h -879.99994 c -5.54,0 -10,-4.46 -10,-9.9999964 0,-5.54 4.46,-10 10,-10 z" />
    <path
       d="m -394.32125,-39.990593 c 0,-1.10411 0.89528,-1.99972 1.99981,-1.99998 1.10498,0 2.00069,0.89534 2.00069,1.99998 0,1.10489 -0.89571,2.00078 -2.00069,2.00052 -1.10453,0 -1.99981,-0.89563 -1.99981,-2.00052 z m 14.00044,0 c 0,-1.10411 0.89549,-1.99972 1.99981,-1.99998 1.10453,0 2.00069,0.89534 2.00069,1.99998 0,1.10489 -0.89572,2.00078 -2.00069,2.00052 -1.10454,0 -1.99981,-0.89563 -1.99981,-2.00052 z"
       style="font-variation-settings:normal;display:inline;vector-effect:none;fill:none;fill-opacity:1;fill-rule:evenodd;stroke:#000000;stroke-width:1;stroke-linecap:butt;stroke-linejoin:miter;stroke-miterlimit:4;stroke-dasharray:none;stroke-dashoffset:0;stroke-opacity:1;-inkscape-stroke:none;paint-order:markers fill stroke;stop-color:#000000"
       id="path3253-5-6" />
    <path
       id="rect2484-9-2-9-6-6-6-8-9-9-7"
       style="display:inline;vector-effect:none;fill:none;fill-rule:evenodd;stroke:#000000;stroke-width:1.00001;paint-order:markers fill stroke;stop-color:#000000"
       d="m -389.81937,-49.990293 h 879.99994 c 5.54,0 10,4.46 10,10 0,5.54 -4.46,10 -10,10 h -879.99994 c -5.54,0 -10,-4.46 -10,-10 0,-5.54 4.46,-10 10,-10 z" />
  </g>
</svg>
