<?xml version="1.0" encoding="UTF-8" standalone="no"?>
<!-- Created with Inkscape (http://www.inkscape.org/) -->

<svg
   width="331.99994mm"
   height="1072.8184mm"
   viewBox="0 0 331.99994 1072.8184"
   version="1.1"
   id="svg16592"
   inkscape:version="1.2.2 (b0a8486541, 2022-12-01)"
   sodipodi:docname="020.svg"
   xmlns:inkscape="http://www.inkscape.org/namespaces/inkscape"
   xmlns:sodipodi="http://sodipodi.sourceforge.net/DTD/sodipodi-0.dtd"
   xmlns="http://www.w3.org/2000/svg"
   xmlns:svg="http://www.w3.org/2000/svg">
  <sodipodi:namedview
     id="namedview16594"
     pagecolor="#ffffff"
     bordercolor="#eeeeee"
     borderopacity="1"
     inkscape:showpageshadow="0"
     inkscape:pageopacity="0"
     inkscape:pagecheckerboard="0"
     inkscape:deskcolor="#505050"
     inkscape:document-units="mm"
     showgrid="false"
     inkscape:zoom="0.14149219"
     inkscape:cx="-1152.007"
     inkscape:cy="2074.3194"
     inkscape:window-width="1920"
     inkscape:window-height="1011"
     inkscape:window-x="0"
     inkscape:window-y="32"
     inkscape:window-maximized="1"
     inkscape:current-layer="layer1" />
  <defs
     id="defs16589" />
  <g
     inkscape:label="Calque 1"
     inkscape:groupmode="layer"
     id="layer1"
     transform="translate(-1.4998779,-1.4998779)">
    <path
       style="font-variation-settings:normal;display:inline;mix-blend-mode:multiply;vector-effect:none;fill:#fdaa03;fill-opacity:1;stroke:none;stroke-width:4.79999;stroke-linecap:round;stroke-linejoin:round;stroke-miterlimit:4;stroke-dasharray:none;stroke-dashoffset:0;stroke-opacity:1;-inkscape-stroke:none;paint-order:markers fill stroke;stop-color:#000000"
       d="m 75.427024,12.848086 -27.29342,0.90123 a 2.3999967,2.3999967 0 0 1 -0.0858,0.7643 c 0.002,-0.0257 -0.0198,0.0287 -0.0149,0.1385 0.01,0.21196 0.0557,0.58594 0.11574,1.00924 0.12001,0.84661 0.61363,1.63955 -0.0692,3.39618 0.0647,-0.16612 0.13441,0.99323 0.13644,2.59209 7.9e-4,0.65742 -0.0516,1.19879 -0.0724,1.634 -0.0207,1.09958 -0.0658,2.13933 -0.0574,3.11454 0.0203,2.41771 0.14661,4.89991 0.17311,7.44968 0.009,0.86236 0.0768,1.86696 0.008,3.00756 -0.065,1.08133 -0.27538,1.86902 -0.32918,2.39366 -0.062,0.60447 -0.0401,0.53663 -0.0548,0.41909 -0.005,-0.0365 0.008,0.24016 0.0154,0.31626 0.0482,0.01 0.051,0.027 0.10439,0.0325 0.70525,0.0728 1.48685,0.0437 2.17402,0.0672 2.52312,0.0862 5.12706,0.0584 7.70495,0.009 0.60701,-0.0116 4.49492,-0.44732 4.46124,-0.44185 0.003,-8e-5 0.42907,-0.20412 1.33428,-0.38034 1.09174,-0.21259 2.33201,-0.31296 3.46335,-0.28008 0.68288,0.0198 1.16666,0.0743 1.52395,0.15864 0.3573,0.0843 0.33533,0.0995 0.85628,0.18397 1.21546,0.19721 2.63534,0.24809 3.77548,0.10129 -0.18515,0.0239 0.0633,-0.2175 1.32498,-0.65215 0.33988,-0.11709 0.61452,-0.17368 0.84594,-0.21085 0.0265,-0.21358 0.0572,-0.36625 0.0754,-0.61701 0.0726,-0.99494 0.0676,-1.96907 0.0868,-2.51044 0.0779,-2.18928 0.0457,-4.43371 0.0543,-6.73345 0.01,-2.57702 0.13338,-5.07986 0.14571,-7.51271 0.0107,-2.11012 -0.007,-4.05898 -0.36586,-5.82704 -0.18352,-0.9032 -0.0868,-1.1044 -0.0822,-1.56321 0.005,-0.45878 -0.01,-1.05149 0.007,-0.84182 a 2.3999967,2.3999967 0 0 1 0.0377,-0.11833 z"
       id="path21108" />
    <path
       style="font-variation-settings:normal;display:inline;mix-blend-mode:multiply;vector-effect:none;fill:#fdaa03;fill-opacity:1;stroke:none;stroke-width:4.79999;stroke-linecap:round;stroke-linejoin:round;stroke-miterlimit:4;stroke-dasharray:none;stroke-dashoffset:0;stroke-opacity:1;-inkscape-stroke:none;paint-order:markers fill stroke;stop-color:#000000"
       d="m 11.202075,10.436562 a 2.3999967,2.3999967 0 0 1 -0.0108,0.33176 c -0.95891,4.102068 -1.03477,10.654009 -0.8878,15.245069 0.0684,2.13817 0.31127,4.43845 0.23771,6.90293 -0.0571,1.91247 -0.42657,3.57822 -0.5984101,5.03484 -0.29048,2.46194 -0.30576,2.64423 -0.52709,3.58739 0.57097,0.017 0.8870301,-0.0242 2.7057701,-0.11937 4.270701,-0.22343 2.597781,-0.10334 7.712191,0.1638 0.45313,0.0237 3.02798,0.069 4.23024,0.17363 1.47248,0.12819 2.88756,0.34226 4.25245,0.54829 0.43913,0.0663 0.77726,0.156 1.07331,0.24598 0.25031,-0.90594 0.2236,-0.64381 0.48886,-3.53312 0.031,-0.33743 -0.008,-0.93182 0.0646,-1.77043 0.11413,-1.31306 0.24165,-2.0354 0.36639,-2.64841 0.12472,-0.61303 0.23656,-1.10183 0.41135,-2.43086 0.3979,-3.02557 0.48691,-5.95859 0.37673,-9.04079 -0.0408,-1.14279 0.18052,-1.83466 0.19946,-2.13941 0.0243,-0.39161 -0.0551,-1.0806 -0.10595,-1.9451 -0.0716,-1.21897 0.20746,-1.92092 0.36795,-2.65204 0.16033,-0.73046 0.1505,-1.487441 0.21548,-1.09399 -0.0615,-0.373791 -0.37353,-1.254811 -0.6537,-2.071181 a 2.3999967,2.3999967 0 0 1 0.46043,-0.94156 z"
       id="path21106" />
    <path
       id="path302"
       style="font-variation-settings:normal;display:inline;vector-effect:none;fill:#fdaa03;fill-opacity:1;stroke:none;stroke-width:4.8;stroke-linecap:round;stroke-linejoin:round;stroke-miterlimit:4;stroke-dasharray:none;stroke-dashoffset:0;stroke-opacity:1;-inkscape-stroke:none;paint-order:markers fill stroke;stop-color:#000000"
       d="m 155.09909,502.88986 c -7.51694,1.52618 -59.140594,12.15873 -72.401804,19.53886 l -5.2e-4,-5.2e-4 c -2.85868,0.60473 -5.55552,1.47116 -8.11527,2.5554 h -5.1e-4 c -2.55974,1.08425 -4.98197,2.3864 -7.29103,3.86178 -13.85559,8.85804 -23.63299,23.95759 -34.55293,35.75545 l -0.002,-5.2e-4 c -2.92326,5.1157 -5.76239,10.34908 -8.39432,15.69723 -2.63059,5.34549 -5.05394,10.80585 -7.1453,16.37677 -6.5e-4,0.002 -0.003,0.004 -0.004,0.006 -2.09126,5.57189 -3.850721,11.25484 -5.154212,17.04547 -0.6518,2.8957 -1.18957,5.81828 -1.59784,8.76742 l 5.2e-4,5.2e-4 c -0.40825,2.94911 -0.6876304,5.9248 -0.8211404,8.92658 h 5.2e-4 c -0.74912,3.3815 -1.3327,6.77556 -1.76734,10.17768 h 5.2e-4 c -0.20724,1.62197 -0.27567,3.25046 -0.41703,4.87567 -0.15545,1.78652 -0.37679,3.57019 -0.45733,5.35936 -0.30717,6.82537 -0.0875,13.66531 0.52606,20.48454 0.6134,6.81657 1.6207,13.6126 2.8856104,20.35224 -0.002,0.003 0.004,0.0117 0.003,0.016 1.26626,6.74478 2.791371,13.43392 4.441072,20.03082 -0.002,0.003 0.005,0.0117 0.003,0.0145 1.04422,5.70212 2.42953,11.30914 4.03179,16.85324 -0.002,0.003 0.005,0.0114 0.003,0.0139 1.60527,5.55297 3.42829,11.04284 5.34747,16.50028 3.83844,10.91503 8.05932,21.70187 11.67836,32.613 9.39527,22.6972 15.58789,46.54691 21.11086,70.55073 -0.002,0.003 0.005,0.0103 0.004,0.0129 1.00916,7.31162 2.45365,14.51365 4.15117,21.65294 -0.002,0.003 0.005,0.01 0.003,0.0134 1.69997,7.14828 3.65326,14.23413 5.67769,21.30516 4.0489,14.14197 8.3813,28.22499 11.5347,42.63049 2.26525,6.0656 4.32327,12.1842 6.22287,18.3436 5.69902,18.4781 9.97263,37.3257 14.13712,56.22755 0.007,0.026 0.0128,0.052 0.0202,0.077 4.565104,16.3803 8.311954,33.7319 14.405864,49.5975 0.0487,-0.017 0.0786,-0.025 0.15037,-0.05 0.16636,-0.2796 0.45402,-0.7576 1.06351,-1.2097 0.4429,-0.3283 0.87079,-0.5594 1.25057,-0.7462 0.35825,-0.1763 0.44452,-0.2103 0.30489,-0.1292 0.006,-0.01 0.0329,-0.033 0.0398,-0.04 0.24582,-0.1535 0.30265,-0.1628 0.37362,-0.1938 -0.0428,0.019 0.0924,-0.062 0.41599,-0.1876 0.0122,-5e-4 0.0112,10e-4 0.016,0 0.12976,-0.092 0.4388,-0.322 1.10795,-0.5943 0.23589,-0.096 0.28719,-0.1036 0.39067,-0.1348 0.0587,-0.074 0.005,-0.029 0.10594,-0.1478 0.33526,-0.3959 0.48226,-0.4911 0.35708,-0.3582 0.24503,-0.2598 0.51248,-0.5582 0.82011,-0.88 0.24141,-0.2523 0.44165,-0.4589 0.56275,-0.6026 -0.0472,0.055 0.0529,-0.1169 0.36742,-0.4578 0.30487,-0.3314 0.47738,-0.4424 0.44235,-0.4108 0.19565,-0.1768 0.50634,-0.5064 1.01389,-0.876 0.0999,-0.073 0.0972,-0.069 0.13798,-0.098 0.002,0 0.006,-0.01 0.008,-0.012 0.18004,-0.2025 0.24271,-0.2394 0.30179,-0.2893 0.11893,-0.099 0.2037,-0.163 0.36742,-0.2868 0.30794,-0.2341 0.4519,-0.3092 0.39739,-0.2698 0.31287,-0.2258 0.70808,-0.569 1.2392,-0.9607 0.35566,-0.2624 0.65396,-0.4588 0.82476,-0.5891 0.38967,-0.2974 0.89552,-0.7901 1.62677,-1.3244 0.78163,-0.5712 1.43073,-0.8844 1.82418,-1.1483 0.39637,-0.2658 0.84516,-0.6209 1.37046,-1.0159 -0.0407,0.03 0.0885,-0.1001 0.4253,-0.3396 0.35194,-0.2501 0.71599,-0.4881 1.09244,-0.7121 0.3653,-0.2176 0.48273,-0.2715 0.33899,-0.1762 -0.0633,0.042 0.0354,-0.037 0.29663,-0.2418 0.25033,-0.193 0.36304,-0.2732 0.32969,-0.2439 -0.23033,0.2014 -0.12786,0.02 0.41755,-0.4119 0.67342,-0.5339 1.27703,-0.8342 1.65674,-1.064 0.0908,-0.055 0.37753,-0.2969 0.93638,-0.5953 0.53307,-0.2845 0.72707,-0.3091 0.51677,-0.215 0.0328,-0.014 0.20718,-0.1155 0.54312,-0.2656 0.49745,-0.2224 0.89344,-0.3655 1.15755,-0.4858 0.51723,-0.2355 1.14622,-0.5693 1.93425,-0.8718 0.73508,-0.2821 1.27089,-0.4121 1.56734,-0.5353 0.4351,-0.1808 1.00221,-0.514 1.75752,-0.8821 0.57259,-0.2791 0.85734,-0.3407 1.24282,-0.4858 0.0138,0 0.16757,-0.083 0.4842,-0.1984 0.40798,-0.1496 0.50098,-0.1703 0.26665,-0.075 0.2039,-0.083 0.65088,-0.3647 1.41801,-0.6444 0.84705,-0.309 1.5453,-0.435 2.01486,-0.5716 0.4448,-0.1293 0.98887,-0.3168 1.66036,-0.4723 0.63792,-0.1477 1.26738,-0.2899 1.88568,-0.4362 0.19656,-0.046 0.5336,-0.1566 1.02991,-0.2521 0.4187,-0.081 0.62729,-0.093 0.61495,-0.09 0.10624,-0.022 0.40823,-0.125 0.92707,-0.23 1.00862,-0.2043 1.89509,-0.3161 2.62206,-0.4811 1.51833,-0.3445 3.09187,-0.8051 4.76406,-1.2185 0.75173,-0.1859 1.62668,-0.4479 2.63808,-0.6279 0.40535,-0.072 0.6136,-0.076 0.91002,-0.1008 0.29634,-0.025 0.60163,-0.049 0.68316,-0.056 0.70092,-0.065 1.39164,-0.1239 2.06964,-0.1871 0.94332,-0.088 2.04655,-0.3061 3.35432,-0.3927 1.03055,-0.068 1.91996,0.01 2.65617,0.029 0.331,0.011 0.7234,0.011 1.17874,0.031 0.68954,0.031 1.27555,0.095 1.7601,0.1183 0.55185,0.026 1.25594,0.041 1.86655,0.052 0.15754,0 0.49172,-0.023 0.9958,0.019 1.17432,0.099 2.1117,0.3544 2.86701,0.4853 0.0758,0.013 0.30089,0.03 0.67335,0.086 0.93949,0.1418 1.82264,0.3233 2.66702,0.4925 0.2611,0.052 0.63173,0.105 1.10122,0.2134 0.44125,0.1019 0.70278,0.2006 0.80047,0.2263 0.22858,0.06 0.57702,0.126 1.03301,0.2543 0.46044,0.1295 0.70469,0.2337 0.74931,0.246 0.53887,0.1484 1.38696,0.2395 2.46703,0.6072 0.38508,0.131 0.65091,0.2507 0.81339,0.3121 0.38768,0.1464 0.58272,0.2199 0.65991,0.248 0.077,0.028 -0.16252,-0.043 -0.0935,-0.026 0.13851,0.035 0.36726,0.1078 1.33687,0.463 0.3927,0.1439 0.63741,0.2536 0.74673,0.2899 0.10695,0.036 0.42943,0.096 0.94258,0.2693 0.65038,0.2192 1.65115,0.6282 2.18849,0.8568 0.81005,0.3445 1.60448,0.707 2.3766,1.0661 0.67439,0.3136 1.257,0.615 1.77199,0.8387 0.43001,0.1867 0.23507,0.1073 0.47335,0.187 0.23822,0.08 0.50993,0.2031 1.05369,0.4765 0.37165,0.1868 0.67512,0.36 0.93947,0.5028 0.2412,0.1139 0.51186,0.2374 0.81907,0.3902 0.36542,0.1818 0.58757,0.3143 0.68523,0.3601 0.23491,0.1104 0.62721,0.2511 1.14205,0.4977 0.4087,0.1958 0.6948,0.3724 0.8847,0.4754 0.0379,0.021 0.0762,0.042 0.11266,0.066 0.29928,0.1848 0.41772,0.2604 0.35347,0.2289 0.11256,0.056 0.50304,0.1747 1.10639,0.4925 0.56291,0.2966 0.79844,0.5159 0.79065,0.5121 0.49663,0.307 0.44917,0.2675 0.69349,0.3985 0.24422,0.131 0.53193,0.3135 1.16582,0.7524 0.4063,0.2814 0.63417,0.4865 0.72864,0.5539 0.49647,0.3531 1.09788,0.7269 1.75597,1.1932 0.34299,0.2432 0.55464,0.4155 0.65836,0.4843 -0.10442,-0.069 0.20855,0.03 0.8015,0.4898 0.46348,0.3598 0.7031,0.5506 0.95549,0.7922 0.074,0.071 0.16279,0.1487 0.27286,0.2843 0.0616,0.043 0.008,0 0.0863,0.058 0.50083,0.3456 1.31425,0.724 2.26497,1.4071 0.44755,0.3215 0.6785,0.5579 0.76016,0.6222 0.17269,0.1358 0.13917,0.1094 0.2341,0.1819 0,0 0.01,0 0.01,0 0.15106,0.076 0.20931,0.1167 0.27233,0.1566 0.25119,0.1612 0.46233,0.3177 0.94465,0.6775 0.43527,0.3245 0.59984,0.5149 0.56482,0.4873 -0.009,-0.01 0.20014,0.1111 0.57929,0.4227 0.74005,0.6079 1.0209,0.8589 1.23094,1.1208 0.012,0.015 -6.4e-4,1e-4 0.006,0.01 0.0297,0.03 0.15553,0.1528 0.43408,0.4031 0.61637,0.5538 1.50528,1.1553 2.45257,2.0247 0.52218,0.4792 0.79904,0.777 0.94981,0.9364 0.15067,0.1593 0.19144,0.2068 0.60668,0.5591 0,0 0.27179,0.1517 0.73122,0.569 0.68638,0.6236 0.85159,0.9422 1.16117,1.2991 0.0342,0.039 0.18512,0.1864 0.40876,0.4372 0.034,0.019 0.0394,0.022 0.0739,0.041 0.002,0 0.067,0.022 0.26458,0.086 0.68545,0.2232 0.75517,0.3298 1.00924,0.4852 0,0 2e-5,-10e-5 0.008,0.01 0.15282,0.094 0.21671,0.1312 0.36329,0.2305 0.074,0.05 0.18078,0.1088 0.39842,0.3282 0.0269,0.027 0.0391,0.072 0.0672,0.1069 2e-5,0 0.008,0 0.008,0 0.20155,0.2489 0.44325,0.6464 0.48679,0.7643 0.0499,0.1352 -0.0417,-0.1238 -0.13642,-0.2966 -0.0948,-0.1728 -0.18405,-0.2857 -0.23565,-0.3468 -0.0514,-0.061 -0.075,-0.083 -0.0718,-0.081 -0.008,-0.01 -0.042,-0.036 -0.0408,-0.038 0.0373,0.021 0.14258,0.091 0.34313,0.213 0.23342,0.1428 0.55135,0.3211 0.91984,0.5715 0.16881,0.1147 0.41707,0.2738 0.71572,0.5152 0.5595,0.4515 0.74544,0.6776 0.65629,0.6134 0.21186,0.1517 0.58687,0.3643 1.079,0.7033 0.29751,0.2053 0.46834,0.3287 0.52245,0.3778 0.21476,0.082 0.60561,0.2688 1.1343,0.8764 0.10493,0.1206 0.17892,0.2085 0.24908,0.293 3.62645,-11.8565 8.50059,-23.1244 11.92072,-34.9296 0.16822,-0.5848 0.38769,-1.1506 0.54777,-1.7384 0.11139,-0.4061 0.19201,-0.8238 0.29921,-1.2315 1.03604,-3.9657 1.91533,-7.9909 2.44274,-12.1538 0.003,0 0.005,-0.01 -0.001,-0.017 0.004,-0.01 0.008,-0.012 0.003,-0.023 2.49354,-7.1129 4.56507,-14.3417 6.39444,-21.63535 5.5002,-21.9305 8.81993,-44.4504 14.904,-66.1893 0.006,-0.027 0.0119,-0.053 0.0191,-0.08 3.29988,-12.475 6.0718,-25.09008 8.97413,-37.68192 2.92062,-12.67165 5.97486,-25.31963 9.83765,-37.7765 6.0323,-15.47039 8.03764,-31.84761 14.61512,-47.08292 4.09076,-22.93081 7.93672,-45.11766 9.3984,-68.41959 2.05102,-10.22543 3.56076,-20.65303 4.61057,-31.16141 1.04758,-10.48569 1.63716,-21.052 1.84795,-31.57792 0.003,-0.005 -10e-4,-0.0161 5.1e-4,-0.0222 0.002,-0.003 -0.005,-0.0117 -0.003,-0.0145 -2.82505,-21.76497 -8.82104,-64.86851 -9.27695,-68.14777 z M 4.2333335,956.51695 c 8.7e-4,0.018 0.002,0.048 0.004,0.075 -5e-4,-0.03 -8.1e-4,-0.062 -0.004,-0.075 z m 0.004,0.075 c 3.9e-4,0.024 0.001,0.048 0.003,0.06 9e-5,-0.01 -0.001,-0.032 -0.003,-0.06 z M 172.37697,1037.3194 c -0.1634,4e-4 -0.31755,0 -0.46147,0.014 -0.90632,0.06 -1.9655,0.2642 -3.22565,0.3818 -0.70236,0.065 -1.3942,0.1254 -2.07377,0.1881 -0.19985,0.019 -0.45977,0.037 -0.72502,0.059 -0.26489,0.022 -0.61255,0.069 -0.46922,0.044 -0.65961,0.1174 -1.43679,0.3415 -2.32751,0.5618 -1.53945,0.3806 -3.14197,0.8518 -4.85345,1.2402 -1.03966,0.2359 -1.96356,0.3488 -2.73162,0.5044 -0.10906,0.022 -0.41404,0.1263 -0.93586,0.231 -0.42973,0.086 -0.6524,0.098 -0.65267,0.098 -0.13363,0.025 -0.40573,0.1085 -0.83199,0.2093 -0.64551,0.1527 -1.28287,0.2975 -1.90841,0.4423 -0.36852,0.085 -0.82709,0.2377 -1.40302,0.4052 -0.76239,0.2217 -1.35336,0.3419 -1.70945,0.4718 -0.1546,0.056 -0.55234,0.2959 -1.25419,0.5813 -0.33902,0.1376 -0.50775,0.1824 -0.49765,0.169 -0.0658,0.03 -0.17236,0.076 -0.37103,0.1509 -0.60053,0.226 -0.54905,0.1703 -0.83044,0.3075 -0.5063,0.2467 -1.1524,0.6406 -2.01848,1.0004 -0.76768,0.319 -1.35002,0.4537 -1.68827,0.5835 -0.44202,0.1696 -0.98796,0.4505 -1.66553,0.7591 -0.50674,0.2308 -0.91401,0.3765 -1.18856,0.4992 -0.0314,0.014 -0.20561,0.1147 -0.54054,0.2646 -0.19322,0.087 -0.28271,0.1254 -0.33641,0.1467 -0.0739,0.053 -0.20283,0.1529 -0.59325,0.3897 -0.48258,0.292 -0.80457,0.4828 -1.01285,0.6278 -0.0461,0.05 -0.16447,0.1608 -0.38654,0.355 -0.31234,0.2732 -0.51395,0.3973 -0.55759,0.431 -0.0296,0.022 -0.20478,0.1946 -0.5762,0.4413 -0.41966,0.2784 -0.61662,0.3488 -0.53691,0.3013 -0.26051,0.155 -0.51638,0.3218 -0.76688,0.4997 0.076,-0.054 -0.026,0.04 -0.32091,0.2631 -0.44966,0.3381 -0.96243,0.7512 -1.5813,1.1663 -0.6123,0.4106 -1.0147,0.6287 -1.35909,0.8459 h 0.002 c 0.23216,-0.045 0.56341,-0.1288 0.73018,-0.1653 0.35362,-0.078 0.91206,-0.2799 1.72186,-0.4233 0.37891,-0.067 0.76065,-0.1183 1.1405,-0.155 0.35118,-0.034 0.56103,-0.056 0.41651,-0.029 0.65715,-0.1231 1.37797,-0.307 2.13217,-0.5023 0.5068,-0.1311 1.1734,-0.372 2.03399,-0.5524 0.25952,-0.054 0.60146,-0.1306 1.07332,-0.1555 0.63685,-0.034 0.96804,-0.01 1.10691,-0.012 0.0427,-0.01 0.0642,-0.012 0.16691,-0.032 0.50662,-0.098 0.8465,-0.1438 1.00511,-0.1856 0.12968,-0.034 0.0555,-0.01 0.061,-0.01 0.11134,-0.041 0.30797,-0.1126 0.30799,-0.1126 1.3e-4,0 0.22892,-0.049 0.22892,-0.049 h 0.0512 l 0.0429,-0.01 h 0.0243 l -0.0155,5e-4 c 0,0 0.33102,-0.058 0.49661,-0.087 0.27845,-0.05 0.63617,-0.1306 1.13068,-0.1824 0.58882,-0.062 1.01805,-0.084 1.29966,-0.1323 0.48307,-0.083 0.92138,-0.145 1.31258,-0.2108 0.002,0 0.20176,-0.059 0.60048,-0.1024 0.45473,-0.05 0.67375,-0.04 0.65009,-0.038 0.22276,-0.024 0.48945,-0.068 0.79789,-0.123 0.4776,-0.085 1.12186,-0.2842 1.96577,-0.4511 0.44301,-0.088 0.81505,-0.135 1.08779,-0.1819 0.60041,-0.1033 0.87334,-0.1126 0.86713,-0.1111 0.29266,-0.072 0.77527,-0.2454 1.4888,-0.3545 1.01962,-0.1559 1.8388,-0.1418 2.40864,-0.2026 0.41808,-0.045 1.12372,-0.2549 2.14612,-0.3477 0.499,-0.045 0.67369,-0.022 0.5209,-0.01 0.213,-0.017 0.25898,-0.018 0.24701,-0.012 0.0779,-0.022 0.1266,-0.039 0.23719,-0.06 0.17664,-0.034 0.33544,-0.054 0.57,-0.081 0.49125,-0.055 0.94363,-0.083 1.3534,-0.1106 0.54404,-0.037 0.77036,-0.022 0.91157,-0.04 0.0478,-0.01 0.25162,-0.054 0.61702,-0.1101 h 0.001 c 0.26349,-0.04 0.38246,-0.058 0.5364,-0.075 0.0292,0 0.1792,0.01 0.21033,0 h 5.1e-4 c 0.0362,-0.01 0.0972,-0.01 0.24082,0 -0.0305,0 -0.0755,-0.013 -0.0909,-0.013 0.001,0 0.002,0 0.0114,0 -10e-4,0 -0.01,0 -0.0119,0 0.0525,-0.01 0.0251,0 0.13643,-0.018 0.23992,-0.032 0.15209,-0.021 0.34623,-0.061 0.19423,-0.04 0.50402,-0.082 0.89503,-0.109 0.7991,-0.054 1.35277,0 1.73581,-0.01 0.0159,0 0.0665,-0.021 0.0811,-0.024 0.33342,-0.057 0.30685,-0.032 0.35553,-0.034 0.19495,-0.01 0.29431,0 0.6196,0 0.19355,0 0.30806,0 0.48473,0.016 0.0106,0 0.0259,0 0.0346,0.01 0.0373,-9e-4 0.0212,-3e-4 0.0909,0 -0.0903,0 0.10546,-0.043 0.58859,-0.03 0.37382,0.01 0.55313,0.038 0.5762,0.052 0.071,0 0.1373,0.01 0.27698,0.019 h 0.001 c 0.001,0 0.2954,0.04 0.4718,0.065 0.0858,0.012 0.1699,0.024 0.23358,0.033 0.0411,0 0.23029,-0.017 0.64492,-0.011 0.53629,0.01 0.86733,0.045 0.99167,0.042 0.13833,0 0.49833,-0.061 1.08211,-0.068 0.73151,-0.01 1.37706,0.04 1.93683,0.065 0.44845,0.02 1.03405,0.022 1.72806,0.11 0.19639,0.025 0.33982,0.044 0.45992,0.062 0.0983,0.015 0.18377,0.027 0.39326,0.083 0.1611,0.015 0.19366,0.017 0.32297,0.024 0.14998,0.01 0.39882,0.034 0.69505,0.081 0.60635,0.096 0.9202,0.1911 1.03353,0.2196 0.0484,0 0.10104,0 0.2403,0.014 0.43652,0.028 0.55172,0.058 0.60203,0.071 0.048,0 0.14715,0 0.34571,-0.01 0.37316,0 0.73963,0 1.09968,0.024 0.35973,0.019 0.5195,0.051 0.48369,0.049 0.35239,0.025 0.83493,0.013 1.44435,0.03 0.91941,0.026 1.61645,0.1408 2.10427,0.1546 0.38834,0.011 1.02636,-0.052 1.90117,0.046 0.87752,0.099 1.67568,0.2335 2.39986,0.325 0.41309,0.052 0.82021,0.099 1.22111,0.1359 0.0291,0 0.26239,0 0.69143,0.054 0.6211,0.084 1.09104,0.1987 1.42369,0.2517 1.16578,0.1856 2.32772,0.3787 3.49281,0.5829 0.10987,0.019 0.43859,0.032 0.97255,0.1261 0.39709,0.07 0.19035,0.041 0.22117,0.049 0.0307,0.01 0.0629,0.017 0.10026,0.027 0.0742,0.019 0.16612,0.044 0.25786,0.068 0.18349,0.049 0.62778,0.1551 0.31574,0.084 0.11263,0.025 0.10342,0.024 0.17984,0.041 l 0.0124,-5e-4 c 0.0858,0.01 0.13743,0.014 0.18965,0.021 0.10466,0.014 0.20248,0.031 0.33383,0.054 0.35021,0.061 0.18724,-0.01 0.74673,0.1488 0.0412,0.012 0.0915,0.013 0.2036,0.056 0.37216,0.055 0.84132,0.09 1.49707,0.1783 0.33577,0.045 0.39767,0.046 0.67231,0.1018 0.0181,0 0.0559,0.013 0.0837,0.02 0.055,0.01 0.0185,0 0.0868,0.01 -0.1574,-0.018 0.23278,0.023 0.48783,0.051 0.12753,0.014 0.25875,0.028 0.38085,0.043 0.12201,0.015 0.11715,0 0.4532,0.073 0.52158,0.1177 0.69778,0.2068 0.55501,0.1705 0.77903,0.1983 1.77215,0.3662 2.71663,0.5194 0.0687,0.011 0.0568,0.01 0.11265,0.019 0.0693,10e-4 0.12791,0 0.17984,0 0.12685,0.01 0.25531,0.018 0.43201,0.035 0.70476,0.067 1.34936,0.2034 1.91823,0.339 0.87205,0.2078 1.51237,0.4739 1.98283,0.6118 0.11789,0.035 0.22164,0.054 0.3023,0.07 0.0458,0.01 0.12235,0.019 0.13075,0.022 0.0397,0.012 0.0539,0.017 0.0667,0.021 0.0243,0.01 0.033,0.011 0.0408,0.014 0.083,0.03 0.0804,0.031 0.094,0.037 -0.01,0 -0.0112,0 -0.0129,-0.01 0.0567,0.021 0.23698,0.086 0.53176,0.1918 -0.15714,-0.053 -0.0343,-0.051 0.43614,0.1162 0.66977,0.238 1.03884,0.4721 1.15756,0.5225 0.0941,0.04 0.0955,0.04 0.16123,0.067 0.015,0 0.018,-7e-4 0.0336,0 0.0569,0.011 0.10501,0.026 0.16123,0.038 -0.17101,-0.1161 -0.32277,-0.2114 -0.52504,-0.384 -0.0721,-0.062 -0.16075,-0.1231 -0.34623,-0.3555 -0.0191,-0.024 -0.0542,-0.073 -0.0811,-0.1059 -0.0898,-0.075 -0.10223,-0.09 -0.35243,-0.2838 0.19239,0.1496 0.0166,0.068 -0.51057,-0.2811 -0.39223,-0.2594 -0.63922,-0.4682 -0.78134,-0.5689 -0.49931,-0.3538 -1.10362,-0.7287 -1.7632,-1.1979 -0.38631,-0.2749 -0.59994,-0.4648 -0.67852,-0.5193 -0.5946,-0.4119 -0.64504,-0.4373 -0.70176,-0.4677 -0.0567,-0.03 -0.36778,-0.186 -0.95085,-0.5467 -0.44751,-0.2769 -0.60735,-0.4024 -0.50229,-0.3473 -0.0819,-0.043 -0.43723,-0.1565 -1.01699,-0.4465 -0.39567,-0.1978 -0.56515,-0.3327 -0.64803,-0.3896 -0.29564,-0.1615 -0.51428,-0.2889 -0.6289,-0.3437 -0.22355,-0.1071 -0.60385,-0.2448 -1.11001,-0.4826 -0.40151,-0.1889 -0.65275,-0.3433 -0.78135,-0.4073 -0.22327,-0.111 -0.48979,-0.2317 -0.79271,-0.3756 -0.0356,-0.017 -0.0694,-0.034 -0.10439,-0.053 -0.35044,-0.1879 -0.64018,-0.3518 -0.88005,-0.4724 -0.50662,-0.2546 -0.4587,-0.2264 -0.42116,-0.2139 0.0374,0.012 -0.33407,-0.1066 -0.86196,-0.3359 -0.71987,-0.3127 -1.33733,-0.6348 -1.88361,-0.8888 -0.74998,-0.3488 -1.49781,-0.6887 -2.23191,-1.001 -0.37597,-0.1599 -1.65442,-0.6619 -1.84329,-0.7255 -0.10026,-0.034 -0.41477,-0.095 -0.92191,-0.2631 -0.44326,-0.1471 -0.73074,-0.2813 -0.88522,-0.3379 -0.94875,-0.3476 -0.90111,-0.3262 -0.85576,-0.3148 0.0223,0.01 -0.24313,-0.07 -0.37362,-0.1178 -0.13058,-0.047 -0.32579,-0.1208 -0.71882,-0.2692 -0.33108,-0.125 -0.54943,-0.2195 -0.66353,-0.2584 -0.44735,-0.1523 -1.18872,-0.246 -2.19624,-0.5235 -0.46947,-0.1293 -0.72098,-0.2378 -0.77412,-0.2527 -0.2016,-0.057 -0.52274,-0.1205 -0.95446,-0.2341 -0.39117,-0.1029 -0.60798,-0.1795 -0.65888,-0.1912 -0.21449,-0.049 -0.53778,-0.098 -0.96428,-0.1839 -0.85733,-0.1718 -1.66484,-0.3352 -2.44016,-0.4522 -0.10992,-0.017 -0.37131,-0.033 -0.7767,-0.1028 -1.02343,-0.1774 -1.82043,-0.3781 -2.44946,-0.431 -0.0519,0 -0.27582,0 -0.67489,0 -0.61841,-0.011 -1.3525,-0.025 -2.01125,-0.056 -0.68485,-0.033 -1.26719,-0.096 -1.74718,-0.1178 -0.31122,-0.014 -0.68396,-0.014 -1.11931,-0.028 -0.65692,-0.021 -1.23371,-0.053 -1.72393,-0.052 z m -26.06095,5.6012 c 0.0247,-0.011 0.053,-0.024 0.0667,-0.031 -0.0336,0.013 -0.0547,0.022 -0.063,0.027 -0.002,10e-4 -0.003,0 -0.004,0 z m 23.3376,3.3791 c -0.0124,10e-5 -0.0199,10e-4 -0.0217,0 0.002,10e-4 0.0166,0 0.0455,0.01 0.0836,0.01 0.10205,0 0.0899,-0.01 -0.0508,0 -0.0908,0 -0.11369,0 z" />
    <path
       style="font-variation-settings:normal;display:inline;mix-blend-mode:darken;vector-effect:none;fill:#fdaa03;fill-opacity:1;stroke:none;stroke-width:4.8;stroke-linecap:round;stroke-linejoin:round;stroke-miterlimit:4;stroke-dasharray:none;stroke-dashoffset:0;stroke-opacity:1;-inkscape-stroke:none;paint-order:markers fill stroke;stop-color:#000000"
       d="m 186.48588,12.310788 0.016,0.0233 c -0.0131,0.17308 -0.0114,0.31417 -0.0517,0.5333 -0.013,0.0725 -0.03,0.14383 -0.0501,0.21445 -0.19233,0.68662 -0.0897,0.18544 -0.19172,0.83664 -0.0304,0.19281 -0.0266,0.67449 -0.17777,1.41129 -0.0499,0.24199 -0.0873,0.33302 -0.12816,0.45888 0.002,0.0148 -0.0145,0.0426 -0.0227,0.0816 -0.026,0.0724 -0.0353,0.1246 -0.0481,0.1447 -0.0349,0.11993 -0.0497,0.19712 -0.14108,0.42426 l -0.001,0.002 c -0.22487,0.55793 -0.30618,0.65904 -0.28112,0.56017 -0.10894,0.22677 -0.21902,0.39578 -0.32246,0.5302 -0.0951,0.96274 -0.38456,1.32951 -0.62632,1.50327 0.11784,0.0899 0.16351,0.11758 0.32401,0.25425 0.32764,0.27875 0.40913,0.40195 0.53227,0.54105 0.0693,0.0782 0.14061,0.15681 0.18086,0.20205 -0.04,-0.0382 -0.0508,-0.0476 0.014,0.0191 0.0309,0.0318 0.0179,0.0165 -0.0114,-0.0165 0.0439,0.0421 0.11955,0.11553 0.18035,0.17208 0.12125,0.11248 0.1844,0.14494 0.44648,0.44338 0.11303,0.12871 0.20303,0.28467 0.31161,0.41962 0.2699,0.33679 0.5432,0.67082 0.7767,1.04593 0.21604,0.34425 0.38032,0.72911 0.55759,1.10536 0.0888,0.18963 0.2034,0.35902 0.28112,0.55655 l -10e-4,0.002 c -0.0139,-0.0359 0.0229,0.0573 0.0212,0.0506 0.0107,0.0278 0.0233,0.0551 0.0357,0.0822 0.007,0.0175 0.0176,0.0317 0.0243,0.0491 0.22266,0.60277 0.43885,1.28265 0.58084,2.01125 0.0319,0.16379 0.0615,0.26179 0.078,0.56069 0.003,0.053 -0.0159,0.17011 -0.0238,0.26251 0.008,0.019 0.0244,0.15239 0.0429,0.31419 0.009,0.068 0.005,-0.0259 0.0165,0.0941 0.10938,1.09629 -0.047,1.99343 -0.13953,2.66753 -0.0777,0.5656 -0.13593,1.24322 -0.27337,2.01952 -0.0676,0.3817 -0.0679,0.32918 -0.11214,0.53588 -0.0221,0.1035 -0.0437,0.20479 -0.0594,0.28009 -0.004,0.025 -0.008,0.0378 -0.0119,0.0558 -0.0831,0.5463 -0.15741,1.13173 -0.2496,1.75183 0.004,-0.031 0.017,0.39067 -0.14882,1.09037 -0.2714,1.1451 -0.69012,1.96645 -0.89762,2.55385 0.0497,-0.1413 0.006,0.0339 -0.0946,0.34003 0.3236,-0.033 0.61334,-0.0617 0.67386,-0.0687 0.0179,0 0.0498,-0.0103 0.0677,-0.0103 0.61723,-0.077 1.39262,-0.22732 2.34611,-0.27182 0.0183,-9e-4 0.0266,-3.3e-4 0.045,-0.0103 0.0279,-10e-4 0.0553,0 0.0837,0 0.0916,-5e-4 0.18183,0 0.27078,0 0.0908,0 0.18098,0.0102 0.27079,0.0232 0.0599,-0.01 0.12036,-0.0182 0.18138,-0.0232 0.0111,0 0.14541,-0.01 0.40515,0.0103 0.0761,0.01 0.33866,0.0377 0.56792,0.0667 -0.002,-0.015 0.006,-0.0309 0.008,-0.0439 0.051,-0.4479 0.11379,-0.93882 0.25322,-1.51102 0.005,-0.026 0.005,-0.0406 0.0114,-0.0656 0.008,-0.012 0.006,-0.0283 0.0134,-0.0403 0.2574,-1.0096 0.59133,-1.89831 0.91416,-2.70371 0.33969,-0.8471 0.66471,-1.60597 0.87436,-2.30477 0.2061,-0.6872 0.0906,-0.33543 0.25528,-1.22783 0.0745,-0.404 0.0994,-0.54852 0.1354,-0.71572 0.009,-0.042 0.004,-0.0501 0.063,-0.24236 0.009,-0.032 0.0349,-0.0972 0.0574,-0.15503 0.0218,-0.096 0.0236,-0.099 0.0765,-0.34933 0.0451,-0.2122 0.038,-0.18248 0.0682,-0.32918 -6.4e-4,-0.023 0.003,-0.0228 0.006,-0.0388 0.005,-0.087 0.0209,-0.1372 0.0284,-0.1788 0.003,0 5.4e-4,-0.0187 0.003,-0.0227 0.001,-0.026 0.005,-0.01 0.005,-0.031 0.0188,-0.3425 0.038,-0.34932 0.061,-0.46302 0.002,0 -0.002,-0.0151 5.2e-4,-0.0191 0.008,-0.046 0.0251,-0.13227 0.0351,-0.18707 -0.005,0.0394 0.0316,0.0171 0.0372,0.0238 0.002,-0.008 0.004,-0.0121 0.005,-0.0212 0.004,-0.025 0.0142,-0.0495 0.0279,-0.0935 0.005,-0.01 0.0212,-0.0543 0.0274,-0.0713 -0.0263,0.041 -0.0935,0.14673 -0.10076,0.15813 0.001,0 0.002,1.8e-4 0.003,-0.01 9e-5,10e-5 -0.003,0 -0.003,0 0.0224,-0.12079 0.0425,-0.22876 0.0785,-0.41186 0.005,-0.026 0.0123,-0.037 0.0171,-0.063 0.12823,-0.629 0.27903,-1.1382 0.40927,-1.53944 0.13809,-0.42529 0.24255,-0.72648 0.27182,-0.92294 -0.007,-0.0311 -0.005,-0.22104 0.0186,-0.55191 0.002,-0.0373 -9e-5,-2.1e-4 5.1e-4,-0.0439 -0.002,-0.0152 0.005,-0.0335 0.005,-0.047 0.0458,-0.60578 0.0929,-1.33766 0.25218,-2.14457 0.006,-0.01 0.001,-0.0205 0.004,-0.0326 0.23505,-1.17251 0.45379,-2.3441 0.65939,-3.52381 0.075,-0.43013 0.16871,-0.95081 0.17312,-1.00201 -0.002,-0.0161 7.6e-4,-0.0586 0.002,-0.0734 0.0261,-0.43508 -0.035,-1.13609 0.0532,-2.12338 0.002,-0.0252 -9.5e-4,-0.0281 10e-4,-0.0538 0.0198,-0.20972 0.0392,-0.33065 0.0548,-0.46508 -2.6e-4,-0.0182 0.005,0.0109 0.005,-0.008 0.003,-0.0332 0.004,-0.0573 0.005,-0.0889 -0.0117,-0.0207 -0.034,-0.12323 -0.0589,-0.3297 -0.003,-0.0202 -0.006,-0.008 -0.006,-0.0279 -0.01,-0.004 -0.0166,-0.007 -0.0253,-0.0109 -0.24277,-0.10395 -0.39815,-0.18478 -0.88625,-0.36019 -0.0193,-0.007 -0.0225,-0.009 -0.0429,-0.016 -0.0301,-0.0105 -0.0273,-0.0117 -0.0553,-0.0217 -0.81804,-0.29425 -0.84942,-0.36036 -1.36685,-0.5054 -0.0191,-0.005 -0.0215,-0.009 -0.0418,-0.0145 -0.28176,-0.077 -0.69545,-0.15012 -1.22732,-0.27491 -0.55357,-0.12982 -0.91072,-0.22405 -1.04903,-0.24443 -0.0168,0.008 -0.18417,0.007 -0.51935,-0.014 -0.7447,-0.0472 -1.3669,-0.13071 -1.87792,-0.16019 -0.19225,-0.0111 -0.6555,0.0283 -1.36633,-0.0765 -0.57743,-0.0851 -1.10928,-0.11212 -1.62057,-0.10955 z"
       id="path401" />
    <path
       style="font-variation-settings:normal;display:inline;fill:#fdaa03;fill-opacity:1;stroke:none;stroke-width:4.8;stroke-linecap:round;stroke-linejoin:round;stroke-miterlimit:4;stroke-dasharray:none;stroke-dashoffset:0;stroke-opacity:1;stop-color:#000000"
       d="m 319.26638,375.54645 c -6.84589,-11.87743 -18.02236,-20.98183 -30.46923,-26.91646 l -10e-4,-0.002 c -30.12137,-14.22373 -63.60161,-20.92662 -96.91037,-20.81048 a 2.4002407,2.4002407 0 0 1 -0.001,-0.002 c -11.05411,0.0189 -22.11532,0.83388 -33.12564,2.16725 a 2.4002407,2.4002407 0 0 1 -0.0102,0.002 c -29.86972,3.52853 -59.382167,11.15827 -86.456207,24.18904 v 0 c -5.01303,2.44237 -9.9441,4.98292 -14.64044,7.84402 -14.89929,9.19529 -27.64037,21.92808 -36.89991,36.79769 l -3.33426,5.7601 c -2.342194,4.3268 -4.4601,8.73828 -6.1639,13.29341 a 2.4002407,2.4002407 0 0 1 -0.01476,0.0384 c -0.19605,0.49783 -0.342419,1.05791 -0.518347,1.57859 3.424132,0.36997 6.88728,0.32332 10.27998,-0.20795 6.54178,-1.20031 12.97242,-3.79351 19.85708,-5.69192 l -0.17338,0.0553 c 1.79285,-0.64411 3.84844,-1.01592 5.9859,-0.63412 a 2.4002407,2.4002407 0 0 1 0.0558,0.0107 c 1.46026,0.29704 3.12289,0.858 4.50737,2.16178 0.32141,0.29531 0.5615,0.62875 0.73368,0.96497 0.17687,0.34436 0.28434,0.69049 0.34485,0.9961 0.12027,0.61091 0.0927,1.11533 0.0362,1.54486 a 2.4002407,2.4002407 0 0 1 -0.19318,0.67722 c -0.90415,1.99776 -2.2032,3.72675 -3.67531,5.19617 -2.75406,2.83404 -6.18886,4.59019 -9.52506,5.89971 a 2.4002407,2.4002407 0 0 1 -0.0554,0.0201 c -5.79369,2.11063 -11.69043,4.19958 -17.83104,5.69233 a 2.4002407,2.4002407 0 0 1 -0.052,0.012 c -3.72803,0.81865 -7.517831,1.22633 -11.3144277,1.37623 1.0527247,4.30198 2.9430427,8.4237 5.4542867,12.16311 2.842181,0.28201 5.744221,0.35667 8.669831,0.30218 a 2.4002407,2.4002407 0 0 1 0.0505,-5.2e-4 c 2.59271,0.006 5.12227,-0.17158 7.49917,-0.73627 a 2.4002407,2.4002407 0 0 1 0.042,-0.009 c 3.2136,-0.70229 6.58276,-2.43313 10.66075,-3.24126 2.20032,-0.64893 4.76552,-0.23346 6.50811,1.6708 1.81481,1.86973 1.76412,4.52214 0.55088,6.46294 a 2.4002407,2.4002407 0 0 1 -0.0915,0.13515 c -1.398,1.9308 -3.21253,3.00014 -4.59121,3.94559 a 2.4002407,2.4002407 0 0 1 -0.0642,0.0428 c -4.03943,2.5833 -8.12005,5.42666 -12.7154,7.66647 a 2.4002407,2.4002407 0 0 1 -0.0645,0.0303 c -0.099,0.0447 -0.20263,0.074 -0.30178,0.11811 5.89729,4.3672 12.3577,8.03717 19.12177,10.92907 2.48688,1.0642 5.04884,1.99805 7.62215,2.91736 1.0611,-1.24092 2.12427,-2.55787 3.31185,-3.93971 1.68576,-1.96157 3.69127,-4.05034 5.66615,-5.77574 2.04671,-1.7882 4.37636,-4.18312 8.056679,-4.88662 0.26997,-0.0516 0.72843,-0.18672 1.47278,-0.12888 0.74443,0.0578 1.76828,0.51276 2.363037,1.20211 0.69163,0.80154 0.71693,1.28577 0.60759,1.07237 0.0617,0.12682 0.38996,0.53944 0.66967,1.3677 0.17726,0.52543 0.14055,0.55325 0.18557,0.80403 0.0445,0.25109 0.0918,0.53581 0.13642,0.81928 0.0892,0.56693 0.15636,1.00962 0.19206,1.31347 0.10194,0.86796 0.44445,2.44581 0.37463,4.02747 -0.088,1.99696 -1.01631,3.35649 -1.50425,4.29956 -0.796467,1.53927 -1.467477,3.44525 -2.525417,5.40825 1.31487,0.30602 2.626307,0.6355 3.945277,0.91221 0.6782,0.1409 1.40994,0.2667 2.12126,0.39474 1.015357,-1.56314 2.196047,-3.09713 3.890657,-4.36637 0.73341,-0.54911 1.38148,-0.86041 1.81666,-1.11986 0.13488,-0.0802 0.56977,-0.48834 1.488157,-0.81023 1.85286,-0.64956 3.58844,-0.43404 4.957537,-0.20149 0.56941,0.0966 1.62885,0.11546 3.00126,0.85333 1.24376,0.66885 1.66828,1.55374 2.049587,2.3098 0.38116,0.75619 0.61588,1.46194 0.76628,2.01364 l -0.2053,-0.51159 c 10e-6,1e-5 0.22082,0.56846 0.22604,0.59211 0.003,0.025 0.006,0.0312 0.009,0.0373 0.007,0.0114 0.009,0.0149 0.002,0.0234 0.004,0.007 0.006,0.0102 -9.1e-4,0.0184 0.004,0.007 0.007,0.0122 0.003,0.0247 -6e-5,0.0199 0.008,0.0417 0.0144,0.071 0.0122,0.0591 0.029,0.14224 0.048,0.24317 0.0398,0.20095 0.092,0.46989 0.14471,0.74886 0.0526,0.27907 0.10558,0.56567 0.14784,0.81627 0.0214,0.12511 0.0393,0.24004 0.0558,0.35803 0.0163,0.11817 0.0585,0.0714 0.0337,0.59576 -0.0181,0.37529 -0.10175,0.63517 -0.16293,0.94259 2.94862,0.33378 5.89623,0.67517 8.82881,0.90736 a 2.4002407,2.4002407 0 0 1 0.0112,-6.7e-4 c 7.3753,0.60998 14.73205,1.22164 22.07958,1.64674 12.86719,0.67222 25.78388,0.36298 38.58485,-1.01509 a 2.4002407,2.4002407 0 0 1 0.0378,-0.005 c 13.92167,-1.27396 27.76813,-3.28638 41.07738,-7.17469 a 2.4002407,2.4002407 0 0 1 0.0365,-0.0107 c 13.44842,-3.69846 26.73436,-7.95413 39.64581,-13.11784 3e-5,5e-5 4e-5,7e-5 0.009,-0.005 15.78071,-6.47075 30.77528,-14.9602 43.83677,-25.84203 a 2.4002407,2.4002407 0 0 1 0.0329,-0.0271 c 9.4088,-7.55749 18.27687,-15.89513 24.33017,-26.06771 7.46874,-13.03977 6.80763,-30.23104 -0.65388,-43.22395 l -0.002,-0.003 z m -69.36303,-9.32129 v 0 a 2.4000007,2.4000007 0 0 1 0.4282,0.89966 c 0.0247,0.11672 0.0802,0.28884 0.0495,0.71433 -0.0302,0.42524 -0.31427,1.49087 -1.32339,2.00522 -1.00902,0.51432 -1.74428,0.20901 -2.07974,0.0688 -0.33536,-0.14026 -0.48881,-0.25964 -0.63426,-0.36776 -0.66762,-0.49676 -0.72234,-0.68554 -0.96094,-0.968 -0.23912,-0.28218 -0.46024,-0.56176 -0.49471,-0.60467 -0.73883,-0.9161 -0.77455,-1.05856 -1.56112,-1.84713 -0.28648,-0.2872 -0.78889,-0.6654 -1.39258,-1.25643 -0.89371,-0.87494 -1.47133,-1.67822 -1.97493,-2.17747 0.6493,0.64382 -3.0254,-2.51715 -2.13734,-1.88798 -1.65676,-1.17359 -3.72944,-2.23878 -5.73157,-3.16397 -1.50678,-0.69643 -3.54982,-1.45867 -5.27457,-2.15742 -3.4095,-1.38143 -6.79159,-2.69838 -10.21917,-3.74754 -0.54227,-0.16603 -1.1807,-0.31283 -1.89737,-0.50313 -3.18387,-0.84543 -6.31297,-1.65559 -9.45359,-2.2395 -1.55841,-0.28985 -5.11561,-0.77489 -6.6294,-0.96526 -3.98269,-0.50087 -5.82294,-0.68189 -10.15884,-0.85969 -1.71795,-0.0706 -3.34073,-0.15131 -4.854,-0.0576 -4.78466,0.29633 -9.61195,0.84061 -14.50869,1.26861 a 2.4000007,2.4000007 0 0 1 -2.59985,-2.18187 2.4000007,2.4000007 0 0 1 2.18178,-2.59984 c 4.81614,-0.42101 9.68346,-0.97136 14.62996,-1.27777 1.88071,-0.11651 3.66762,-0.0169 5.34731,0.052 4.4175,0.1814 6.53521,0.38717 10.56134,0.89344 1.57939,0.19858 5.03288,0.66019 6.90751,1.00876 3.35989,0.6247 6.60695,1.46937 9.80816,2.31943 0.60619,0.16095 1.3046,0.31804 2.07108,0.55262 3.65583,1.11908 7.16806,2.49104 10.61658,3.88805 1.61839,0.65573 3.70598,1.42714 5.48589,2.24965 2.11917,0.9793 4.42648,2.14028 6.49279,3.60402 1.44509,1.02359 1.80721,1.4692 2.7422,2.39624 0.88108,0.87348 1.45374,1.66736 1.95335,2.15651 0.30331,0.29695 0.82313,0.6851 1.43288,1.29642 0.96508,0.96736 1.27369,1.44809 1.89905,2.22365 0.086,0.10696 0.24646,0.30888 0.42331,0.51819 0.0309,0.0335 0.0626,0.0624 0.0989,0.0992 a 2.4000007,2.4000007 0 0 1 0.75614,0.64828 z m -23.72813,13.90709 v 0 c 0.057,0.0787 0.12236,0.17393 0.22753,0.43609 0.0526,0.13109 0.12173,0.30483 0.15737,0.63236 0.0173,0.16401 0.0261,0.3706 -0.0156,0.63435 -0.0208,0.13189 -0.11074,0.4332 -0.11077,0.43333 -1.4e-4,1.7e-4 -0.23486,0.47982 -0.23491,0.47994 -0.47232,0.74231 -0.90333,0.84979 -1.13666,0.94385 -0.23324,0.094 -0.36114,0.11647 -0.46274,0.1359 -0.20322,0.0388 -0.2938,0.0405 -0.37554,0.0449 -0.16366,0.009 -0.25661,0.006 -0.34939,0.004 -0.18569,-0.004 -0.36071,-0.0141 -0.37367,-0.0146 a 2.4000007,2.4000007 0 0 1 -1.86923,-1.31421 c -0.11986,-0.0676 -0.13408,-0.10223 -0.16903,-0.12677 -0.11286,-0.0795 -0.16176,-0.11817 -0.27029,-0.20256 -0.21777,-0.16838 -0.60025,-0.46847 -1.32427,-1.03689 -0.88435,-0.69434 -1.9703,-1.60366 -2.81046,-2.42366 -1.42504,-1.39065 -2.41437,-2.57802 -3.60497,-3.443 -1.23174,-0.89503 -1.32994,-0.86812 -3.04433,-1.49559 0.47302,0.17315 -4.31803,-1.38644 -4.17894,-1.35014 -0.73876,-0.19317 -1.64729,-0.33699 -2.6849,-0.60099 -2.50192,-0.63665 -4.81353,-1.45687 -7.03996,-2.04936 -2.61206,-0.69522 -5.43475,-1.10066 -8.25023,-1.38522 -1.93318,-0.19536 -4.05899,-0.12617 -6.27881,-0.12762 -3.15806,-0.002 -6.26749,-0.0598 -9.32579,0.0169 -4.82667,0.12095 -10.5412,0.85649 -15.34568,1.34129 a 2.4000007,2.4000007 0 0 1 -2.62924,-2.14698 2.4000007,2.4000007 0 0 1 2.14717,-2.62878 c 4.69407,-0.47383 10.49655,-1.23344 15.7074,-1.36399 3.19799,-0.0801 6.34845,-0.0205 9.44877,-0.0186 2.10039,0.001 4.38376,-0.0883 6.75891,0.15178 2.94647,0.29783 6.01244,0.72704 9.00213,1.52274 2.47604,0.65904 4.77086,1.47178 6.98861,2.03603 0.75028,0.19093 1.66977,0.33573 2.71591,0.60935 1.1927,0.31201 3.64265,1.13046 4.61423,1.48608 1.69302,0.61959 2.71658,1.03006 4.21637,2.11977 1.79224,1.30226 2.9464,2.73051 4.13585,3.89131 0.61106,0.59638 1.65221,1.47951 2.42123,2.08329 0.68771,0.53995 1.03819,0.81359 1.23407,0.96546 0.0199,0.0125 0.0824,0.0408 0.10149,0.0518 10e-4,0.003 0.005,0.008 0.0151,0.006 -0.005,-0.008 -0.068,-0.0277 -0.0815,-0.0352 0.003,0.005 0.0272,0.0211 0.0316,0.0247 0.0925,0.0722 0.15475,0.11603 0.0988,0.0772 -0.006,-0.01 -3.4e-4,-0.0206 -0.004,-0.0338 0.25417,0.15864 0.42773,0.28545 0.90931,0.63857 0.23469,0.1721 0.42118,0.33211 0.58371,0.48822 0.081,0.0783 0.15251,0.14816 0.25174,0.26403 0.0496,0.058 0.1027,0.11388 0.20794,0.27615 z m -10.16949,13.50445 0.001,0.002 c 0.15233,0.26384 0.28573,0.5149 0.40615,0.74948 0.23478,0.47266 0.40871,0.8839 0.57814,1.19737 a 2.4000007,2.4000007 0 0 1 -0.96713,3.25369 2.4000007,2.4000007 0 0 1 -3.25351,-0.96786 c -0.55484,-1.025 -0.86939,-1.80002 -1.15989,-2.19098 -0.10815,-0.14533 -0.45807,-0.4466 -1.02171,-0.87265 -1.14903,-0.86859 -2.27419,-1.68503 -3.41224,-2.37338 -1.44931,-0.87667 -4.53543,-2.24899 -6.39636,-3.01643 -4.63063,-1.90927 -9.18244,-2.80484 -14.3079,-3.5822 -1.66378,-0.25234 -3.174,-0.55813 -4.57234,-0.66712 -1.54794,-0.12071 -3.33334,0.15907 -5.47176,0.20363 -0.51939,0.0108 -1.13056,0.0474 -1.83291,0.0313 -1.43708,-0.0331 -2.61738,-0.24802 -3.56418,-0.27713 -1.1315,-0.0348 -2.53302,0.20047 -4.19744,0.27881 -0.85635,0.0404 -1.40398,-0.0218 -1.69779,-0.0199 0.0206,0.0157 -0.23033,0.0725 -0.7556,0.10927 -0.89725,0.0627 -1.08953,-0.0481 -0.56093,-0.0384 -0.25936,-0.005 -0.50792,-3.3e-4 -0.74318,0.015 -1.40811,0.0915 -3.02893,0.28995 -4.8258,0.15886 -0.11584,-0.009 -0.23152,-0.0366 -0.33579,-0.0484 -0.11573,0.0155 -0.17089,0.0386 -0.39351,0.0398 -0.19693,10e-4 -0.47373,-0.004 -0.87993,-0.15968 -0.40611,-0.15539 -0.96706,-0.55559 -1.26665,-1.1191 -0.59884,-1.12721 -0.19134,-1.8648 -0.053,-2.16107 0.39597,-0.84816 0.72152,-0.96769 0.45622,-0.66499 a 2.4000007,2.4000007 0 0 1 1.33626,-0.65995 c -0.046,0.006 -0.13458,0.008 -0.16452,0.0157 0.0657,-0.0182 0.12929,-0.0353 0.25546,-0.0597 a 2.4000007,2.4000007 0 0 1 0.37417,-0.0567 c 0.0497,-0.0139 -3.6e-4,-0.0306 0.31289,-0.0339 0.14091,-10e-4 0.359,-0.012 0.74946,0.10972 0.002,0.004 0.0163,0.008 0.0205,0.0115 1.18395,0.0785 2.56027,-0.0611 4.10237,-0.16128 0.39208,-0.0255 0.77364,-0.0312 1.14294,-0.0244 0.13294,0.002 0.12163,0.003 0.21075,0.004 0.12275,-0.0218 0.27084,-0.0461 0.55917,-0.0669 0.97639,-0.0702 1.6269,0.0308 1.93097,0.0165 1.25344,-0.059 2.77905,-0.33756 4.57063,-0.28246 1.42316,0.0438 2.59084,0.25427 3.52708,0.27589 0.44944,0.0103 0.99068,-0.0181 1.62293,-0.0312 1.69126,-0.0352 3.64965,-0.36862 5.9447,-0.18967 1.79641,0.14007 3.42144,0.4799 4.91869,0.70701 5.24792,0.79586 10.25097,1.7592 15.41821,3.88993 1.95793,0.80723 5.00763,2.11126 7.05112,3.3473 1.37414,0.83108 2.62901,1.74938 3.82204,2.65115 0.51321,0.38793 1.28666,0.90417 1.9829,1.8429 0.20746,0.27933 0.38494,0.55273 0.54004,0.81538 z m -11.00157,9.83892 -0.001,-0.002 c 0.47251,0.87242 0.72816,1.64322 0.99135,2.17908 a 2.4002407,2.4002407 0 0 1 0.23533,0.8302 c 0.0924,0.96993 0.15745,1.7817 0.27455,2.55293 -0.0933,-0.6144 0.15328,-0.3487 0.45522,0.98847 0.0367,0.16351 0.0436,0.19146 0.0596,0.25919 0.10457,0.24312 0.19807,0.55987 0.20189,0.96468 3.2e-4,0.0346 -0.0113,0.0444 -0.0119,0.0773 0.12454,0.30171 0.34611,0.77147 0.24896,1.8606 -0.0395,0.44234 -0.10097,0.73632 -0.15324,0.94178 -0.006,0.11208 -0.0219,0.28847 -0.10517,0.69024 -0.38974,1.87976 -1.50211,2.67528 -2.02965,3.21375 0.0327,-0.0333 -0.13024,0.24762 -0.62212,0.77866 -0.76127,0.82183 -1.56469,1.42487 -2.22949,1.93761 -0.4618,0.35634 -0.99718,0.83922 -1.66827,1.34686 -1.10556,0.83631 -2.22048,1.25463 -3.08862,1.61017 -0.34553,0.14152 -0.88942,0.45207 -1.67919,0.74095 -0.53931,0.19729 -0.86202,0.31494 -1.26116,0.354 -0.1995,0.0195 0.0133,-0.003 0.0498,-0.01 0.0366,-0.007 -0.0389,0.007 -0.23322,0.0601 -0.63671,0.17498 -1.4997,0.53184 -2.67438,0.71643 -0.82736,0.12997 -1.69555,0.25402 -2.60739,0.32387 -0.64477,0.0494 -1.02074,0.007 -1.12145,0.012 -0.95809,0.0509 -2.14825,0.23771 -3.56147,0.18434 -1.04419,-0.0394 -1.99376,-0.11148 -2.84876,-0.10958 -0.20643,4.5e-4 -0.62511,0.0569 -1.25769,0.056 -0.54747,-6.5e-4 -0.85911,-0.0576 -0.93854,-0.0608 -1.12804,-0.045 -2.29197,-0.0594 -3.46901,-0.0761 -0.82045,-0.0117 -1.8717,0.009 -2.87004,-0.0317 -1.28814,-0.0519 -2.44116,-0.20882 -3.47216,-0.27896 -0.70071,-0.0477 -1.55158,-0.0276 -2.54463,-0.0966 -0.6436,-0.0448 -0.98487,-0.12564 -1.03516,-0.12795 -0.3129,-0.014 -0.22842,-0.008 -0.45383,-0.0161 -0.21152,0.0438 -0.36722,0.0638 -0.41674,0.0658 -0.13269,0.005 -0.15539,0.002 -0.19277,9.1e-4 -0.0751,-0.002 -0.13059,-0.004 -0.21144,-0.009 -0.16171,-0.008 -0.40116,-0.023 -0.76889,-0.046 -0.87144,-0.0544 -1.57875,-0.15867 -2.13164,-0.17931 -0.43202,-0.0161 -0.94306,-0.003 -1.53144,-0.006 a 2.4002407,2.4002407 0 0 1 -0.0854,-0.002 c -0.5626,-0.0227 -1.1251,-0.0453 -1.68791,-0.0679 a 2.4002407,2.4002407 0 0 1 -0.0112,6.7e-4 c -0.55312,-0.0243 -1.09721,-0.0518 -1.63245,-0.0773 a 2.4002407,2.4002407 0 0 1 -0.0878,-0.006 c -0.55962,-0.0471 -1.02186,-0.10292 -1.39054,-0.11909 -1.30316,-0.0573 -2.76987,0.0126 -4.37623,-0.0673 -2.11887,-0.1054 -4.058,-0.42246 -5.86127,-0.56382 -0.5201,-0.0408 -1.10016,-0.0597 -1.73134,-0.0936 -0.42336,-0.009 -0.94556,0.005 -1.57927,-0.04 -1.00566,-0.0709 -2.47167,-0.33086 -3.05012,-0.42237 -0.68246,-0.10786 -2.03403,-0.30804 -2.92326,-0.52483 -1.44126,-0.35154 -2.59982,-0.97882 -3.60309,-1.54954 -0.13906,-0.0788 -0.58508,-0.23879 -1.2192,-0.67211 -0.67183,-0.45905 -0.94801,-0.80061 -0.97901,-0.8245 0.0522,0.0404 -0.19548,-0.0786 -0.67903,-0.44752 -1.05208,-0.80245 -1.89041,-1.76567 -2.57007,-2.77907 -0.81636,-1.21798 -1.30455,-2.92896 -0.92992,-4.57688 0.0612,-0.26915 0.0966,-0.92455 0.61919,-1.83793 0.45168,-0.78926 0.92146,-1.42139 1.26116,-1.94661 0.35195,-0.54401 0.55118,-0.95792 1.16676,-1.6379 0.92016,-1.01644 1.84496,-1.69524 2.49395,-2.29796 0.57,-0.52933 1.23831,-1.30219 2.25209,-2.05447 0.97749,-0.72534 1.93874,-1.3116 2.80696,-1.8748 1.67657,-1.0877 3.34977,-1.61042 4.7598,-2.14898 0.9337,-0.35659 2.09611,-1.02464 3.67614,-1.44934 1.2126,-0.32592 2.29039,-0.47393 3.15517,-0.6855 0.17087,-0.0418 0.43907,-0.1289 0.78339,-0.22972 0.0815,-0.0329 0.2549,-0.11449 0.64144,-0.21399 0.33522,-0.0864 0.50617,-0.13049 0.70905,-0.17129 0.0661,-0.0135 0.25644,-0.0246 0.40846,-0.0377 10e-4,-0.018 0.26639,-0.13579 0.94245,-0.19682 0.46871,-0.0424 0.76375,-0.037 0.8891,-0.0186 0.0816,-0.0126 0.0897,-0.0166 0.20797,-0.0336 0.55129,-0.0785 1.1584,-0.17939 1.7853,-0.26876 0.40147,-0.0572 0.80268,-0.0961 1.20285,-0.1252 0.12128,-0.0447 0.42147,-0.1086 0.95911,-0.14858 0.64924,-0.0483 0.96024,0.004 0.96878,0.0368 0.23763,-0.0328 0.77741,-0.1589 1.73259,-0.21027 0.66431,-0.0358 0.92167,0.033 0.76884,0.0335 0.33108,-10e-4 0.25172,-0.002 0.44241,-0.0221 0.19081,-0.0203 0.59206,-0.0355 1.02399,-0.008 0.50224,0.0317 0.72296,0.0744 0.66816,0.0731 -0.0492,-0.001 0.18975,-0.0379 0.71965,-0.0413 1.02046,-0.007 1.91107,0.0699 2.66583,0.0779 0.0371,2e-4 0.34265,-0.0473 0.91757,-0.0291 1.61482,0.0509 3.14683,0.17467 4.60393,0.21864 1.58376,0.0478 3.32352,0.0567 5.12803,0.29021 0.53313,0.069 0.90636,0.14966 1.12639,0.20236 0.22012,0.0527 0.25593,0.0667 0.61514,0.11865 1.93637,0.2799 3.93749,0.49854 5.98094,0.78889 0.63901,0.0908 0.95195,0.20803 1.08007,0.25835 0.0496,0.002 0.0872,0.005 0.22338,0.004 0.31105,-0.003 0.93403,0.046 1.56437,0.33975 0.17967,0.0634 0.49696,0.16216 0.45973,0.15228 0.63301,0.1668 1.23583,0.30812 1.80818,0.40127 0.18047,0.0294 0.59703,0.0369 1.23195,0.1444 0.96673,0.16361 1.86196,0.446 2.64675,0.72509 0.5234,0.18616 0.71371,0.28299 0.58956,0.24796 0.20709,0.0585 0.56827,0.11667 1.07178,0.22137 1.30429,0.2711 3.08514,0.27782 5.1048,0.89078 1.58386,0.48072 1.97281,0.8142 2.84184,1.30281 0.0327,0.0186 0.95816,0.15978 1.81109,1.3955 0.21303,0.30897 0.39367,0.61185 0.55117,0.90265 z m -17.13065,31.59446 a 2.4000007,2.4000007 0 0 1 0.50546,1.13488 2.4000007,2.4000007 0 0 1 -1.99479,2.74611 c -1.54677,0.24511 -3.03966,0.44337 -4.45999,0.70548 -1.05831,0.19535 -2.20424,0.49914 -3.46944,0.75836 -0.75851,0.15542 -6.57425,1.36946 -8.87551,1.66396 -7.02542,0.89901 -14.01563,0.93821 -20.96677,0.62989 -2.33397,-0.10356 -2.48371,-0.0999 -2.60888,-0.0983 -0.12517,0.002 -0.3272,2.7e-4 -2.20153,-0.10376 -0.97666,-0.0542 -3.53066,-0.0995 -5.30625,-0.4409 -1.87749,-0.36091 -3.00006,-0.78045 -4.62502,-1.45717 -1.51521,-0.63102 -1.33021,-0.70259 -2.73046,-1.1935 -1.33682,-0.46863 -2.18517,-0.36822 -4.15578,-0.43561 -1.22689,-0.0421 -2.2739,-0.0989 -3.59268,-0.40091 -0.32365,-0.0742 -0.17131,-0.0445 -0.23491,-0.0637 -0.0632,-0.0194 -0.1408,-0.0439 -0.23065,-0.0739 -0.17967,-0.06 -0.3983,-0.13507 -0.67411,-0.2624 -0.13825,-0.0635 -0.28977,-0.13629 -0.49733,-0.27319 -0.20754,-0.13687 -0.516,-0.26335 -0.89186,-0.95775 -0.1878,-0.34728 -0.3686,-0.92703 -0.27052,-1.55696 0.098,-0.62988 0.46281,-1.15559 0.77114,-1.43934 0.61657,-0.56747 0.9832,-0.58105 1.26516,-0.64568 a 2.4000007,2.4000007 0 0 1 2.03985,0.62793 c 0.81698,0.17184 1.38725,0.21159 2.48113,0.24905 1.7015,0.0581 3.39324,-0.0635 5.57917,0.7028 1.66348,0.58302 1.75255,0.77771 2.98777,1.29196 1.58741,0.66107 2.08212,0.86654 3.68571,1.17485 0.80662,0.15509 3.53246,0.29899 4.66578,0.36195 1.8689,0.10344 1.71545,0.0992 1.87489,0.0972 0.15955,-0.002 0.5304,-0.002 2.88251,0.10206 6.79007,0.30114 13.50054,0.25442 20.14518,-0.59592 1.5501,-0.19835 7.75943,-1.44888 8.52105,-1.60491 1.0849,-0.22231 2.26099,-0.53587 3.56193,-0.77596 1.57988,-0.29157 3.11322,-0.49394 4.57982,-0.72632 a 2.4000007,2.4000007 0 0 1 2.23994,0.85969 z m -4.24864,17.89752 -3e-5,-4e-5 a 2.4000007,2.4000007 0 0 1 -1.59783,2.99428 c -0.64473,0.19609 -1.39877,0.47365 -2.29935,0.69621 -1.61216,0.39845 -3.0619,0.49382 -4.26348,0.70482 -1.1073,0.19452 -2.20678,0.39776 -3.29753,0.61792 -2.93103,0.5915 -5.9489,1.3146 -9.16968,1.68344 -3.19131,0.36549 -6.27888,0.40286 -9.19467,0.66257 0.16056,-0.0143 -0.36046,0.0367 -0.87932,0.0894 -0.51875,0.0527 -1.20278,0.12191 -1.89937,0.19199 -1.39304,0.14019 -2.58853,0.26974 -3.184,0.30595 -2.39652,0.1457 -4.66141,-0.104 -6.70107,-0.21799 -2.07118,-0.11579 -4.27794,-0.17602 -6.54237,-0.47252 -1.91714,-0.25098 -3.85145,-0.6333 -5.69555,-1.07898 -0.80257,-0.1939 -1.16478,-0.28566 -1.46058,-0.37581 -0.0645,-0.0197 -0.21927,-0.10298 -0.29608,-0.12741 0.0199,0.007 -0.0117,-2e-4 -0.12275,-0.0306 -0.26733,-0.0672 -0.83926,-0.20224 -1.90097,-0.44317 -2.05448,-0.46626 -2.17084,-0.41521 -4.30152,-0.78946 -3.46761,-0.60908 -6.83486,-1.49632 -10.13709,-2.52215 -0.2292,-0.0712 -0.54669,-0.17749 -1.00424,-0.32659 -0.4575,-0.14901 -1.0894,-0.3461 -0.95007,-0.30596 0.1119,0.0318 -0.0559,-0.009 -0.23196,-0.0308 -0.0882,-0.0108 -0.17539,-0.0194 -0.33519,-0.0464 -0.0795,-0.0137 -0.1638,-0.0209 -0.39033,-0.0921 -0.11298,-0.0357 -0.26001,-0.0703 -0.55843,-0.25402 -0.29842,-0.18369 -1.0538,-0.66865 -1.14193,-1.87789 a 2.4000007,2.4000007 0 0 1 2.2187,-2.56809 2.4000007,2.4000007 0 0 1 1.66747,0.55233 c -0.0745,-0.053 -0.17597,-0.16277 -0.22769,-0.19436 -0.28942,-0.17809 -0.42298,-0.20722 -0.51962,-0.23762 -0.19334,-0.0607 -0.22945,-0.0582 -0.24979,-0.0616 -0.0409,-0.007 0.0373,0.005 0.13643,0.0173 0.1991,0.025 0.49456,0.046 0.96101,0.18031 0.34057,0.0981 0.64597,0.20466 1.10778,0.35513 0.46188,0.15041 1.0457,0.339 0.9422,0.30694 3.16789,0.98394 6.33695,1.81492 9.54319,2.37809 2.02516,0.35568 2.36223,0.3433 4.5338,0.83618 1.07434,0.24381 1.65241,0.37906 2.00806,0.46845 0.17786,0.0447 0.29109,0.0734 0.45347,0.12604 0.0866,0.028 0.24456,0.0498 0.46013,0.16337 0.1509,0.041 0.32275,0.0894 0.92369,0.23468 1.70719,0.41253 3.48609,0.76227 5.19175,0.98557 1.93983,0.25408 4.02886,0.31859 6.18666,0.4392 2.20099,0.12303 4.28622,0.33195 6.14195,0.21919 -0.0726,0.004 1.60688,-0.15121 2.99466,-0.29091 0.69375,-0.0698 1.37695,-0.13885 1.89548,-0.19153 0.51853,-0.0527 0.70519,-0.074 0.93822,-0.0948 3.15961,-0.28139 6.20663,-0.322 9.07451,-0.65048 2.84403,-0.32581 5.72741,-1.00664 8.76609,-1.61988 1.14155,-0.23038 2.28162,-0.44112 3.41745,-0.64061 1.52795,-0.26832 2.86327,-0.37067 3.94152,-0.63709 0.57194,-0.14138 1.24843,-0.38325 2.05504,-0.62856 a 2.4000007,2.4000007 0 0 1 2.9943,1.59788 z m 1.70154,16.28576 a 2.4000007,2.4000007 0 0 1 0.20945,0.91258 2.4000007,2.4000007 0 0 1 -2.32866,2.46864 c -2.96526,0.0866 -5.89979,0.69887 -8.99766,1.4254 -0.20756,0.0487 -0.59137,0.18591 -1.17475,0.30827 -1.33616,0.2803 -2.62404,0.47143 -3.84286,0.68098 -3.23726,0.55649 -6.47554,1.13164 -9.7227,1.70138 -2.12802,0.37337 -4.36326,0.82521 -6.715,1.05688 -1.31299,0.12924 -3.5029,0.2044 -4.5857,0.25834 -2.99564,0.1492 -6.01295,0.23887 -9.03571,0.22469 -4.8996,-0.0229 -9.7213,-0.46838 -14.44868,-0.86705 -2.3799,-0.2007 -2.09823,-0.22263 -4.21759,-0.18928 -0.13616,0.002 -0.9417,0.0305 -1.73049,0.0527 -0.7888,0.0222 -1.51663,0.0497 -2.15329,0.0128 -1.3868,-0.0804 -2.73149,-0.22988 -4.03673,-0.38141 -0.97096,-0.11275 -1.89153,-0.22303 -2.99105,-0.67966 -1.06795,-0.44353 -1.50212,-0.74155 -1.47425,-0.73547 -0.51053,-0.11047 -0.41801,-0.0882 -0.47615,-0.0879 -0.0586,5.6e-4 -0.54253,0.0187 -1.18668,-0.0512 -0.48255,-0.0524 -0.85857,-0.13286 -1.13623,-0.17999 -0.17449,-0.0296 -0.3659,-0.062 -0.56527,-0.10267 -0.0996,-0.0204 -0.18986,-0.0368 -0.35965,-0.0865 -0.0848,-0.0249 -0.17449,-0.0418 -0.41992,-0.16092 -0.12227,-0.0598 -0.28797,-0.12119 -0.59602,-0.40715 -0.3081,-0.28604 -0.97687,-1.19279 -0.70327,-2.32809 0.14331,-0.59458 0.5755,-1.13741 0.91894,-1.39518 0.23085,-0.17335 0.34576,-0.19952 0.48252,-0.25364 a 2.4000007,2.4000007 0 0 1 2.02199,-0.003 c 0.0117,2e-4 0.0145,0.003 0.0245,0.004 0.38383,0.0652 0.66668,0.11991 0.8511,0.13994 0.41463,0.045 0.29893,0.0256 0.63836,0.0235 0.33952,-0.002 0.85876,0.0524 1.52199,0.19596 1.40293,0.30355 2.09133,0.9071 2.30006,0.99382 0.61704,0.25635 0.67792,0.22578 1.70334,0.34488 1.28824,0.14949 2.5417,0.28714 3.76125,0.35788 0.0991,0.006 0.98111,0.002 1.74035,-0.019 0.75917,-0.0213 1.43938,-0.0489 1.79033,-0.0544 2.16623,-0.034 2.36348,0.009 4.69555,0.20572 4.751,0.40078 9.44749,0.82874 14.06837,0.85033 2.91265,0.0137 5.84307,-0.0727 8.77425,-0.21875 1.16094,-0.0578 3.42323,-0.14999 4.35423,-0.24164 2.03283,-0.20025 4.15139,-0.62099 6.35616,-1.00782 3.24024,-0.56854 6.48396,-1.14465 9.73888,-1.70417 1.28794,-0.22141 2.51796,-0.40676 3.6712,-0.64868 0.17181,-0.036 0.52021,-0.15558 1.06399,-0.28312 3.16257,-0.74166 6.42882,-1.44695 9.95324,-1.54988 a 2.4000007,2.4000007 0 0 1 1.7173,0.65305 v 0 a 2.4000007,2.4000007 0 0 1 0.54234,0.76335 z"
       id="path2951" />
    <path
       id="rect230"
       style="color:#000000;fill:none;fill-rule:evenodd;stroke:#292a2c;-inkscape-stroke:none"
       d="M 1.9998779,1.9998779 H 39.189339 V 50.988102 H 1.9998779 Z m 41.1897341,0 H 80.52325 V 50.988102 H 43.189612 Z m 41.334428,0 h 85.0408 V 69.28311 h -7.98659 -77.05421 z m 89.04263,0 h 38.22454 v 35.7404541 1.999878 1.999878 6.068363 h -38.22454 z m 42.22429,0 H 332.99983 V 37.740332 H 215.79096 Z m 0,39.7402101 H 332.99983 V 69.28311 H 215.79096 V 51.808724 Z m -42.22429,10.068636 h 38.22454 V 69.28311 H 173.56667 Z M 1.9998779,54.988375 H 39.189339 80.52325 V 69.28311 H 1.9998779 Z m 0,18.295007 H 80.524284 84.523523 159.57837 V 312.10911 H 1.9998779 Z m 161.5782521,0 h 9.98699 38.22609 3.99975 117.20887 V 312.10911 H 163.57813 Z M 1.9998779,316.10939 H 159.57837 332.99983 V 495.80281 H 1.9998779 Z m 0,183.69318 H 332.99983 V 1073.8182 H 1.9998779 Z"
       sodipodi:nodetypes="cccccccccccccccccccccccccccccccccccccccccccccccccccccccccccccccccccccccc" />
    <path
       id="path21104"
       style="mix-blend-mode:multiply;fill:#fdaa03;stroke-width:4.79999;stroke-linecap:round;stroke-linejoin:round;-inkscape-stroke:none;paint-order:markers fill stroke"
       d="m 165.31338,44.06988 -0.59708,-2.80557 a 2.3864209,2.3864209 0 0 1 -2.24344,-0.61764 c -0.10887,-0.0202 -0.16828,-0.0384 -0.37407,-0.0529 -0.33116,-0.0235 -0.72733,-0.0267 -1.09705,-0.0252 -0.36971,0.002 -0.61509,0.0297 -1.13303,-0.0242 -0.73437,-0.0766 -1.31785,-0.16073 -2.15915,-0.45834 -0.77584,-0.27443 -2.2261,-0.84963 -3.71662,-1.43362 -1.4905,-0.58396 -3.05195,-1.18384 -3.49771,-1.33034 -0.42482,-0.13959 -0.99503,-0.24874 -1.68849,-0.38538 0.0945,0.0186 -0.49594,-0.0569 -1.11914,-0.1377 -0.62317,-0.0808 -1.39541,-0.1969 -2.2085,-0.40851 -0.81311,-0.21161 -1.67628,-0.49324 -2.53426,-1.10321 -0.85799,-0.60996 -1.75912,-1.81025 -1.79176,-3.21408 -0.0236,-1.01204 0.35622,-1.42574 0.56573,-1.71109 0.20952,-0.28537 0.38256,-0.44992 0.53235,-0.59143 0.29953,-0.28303 0.64417,-0.60847 0.39206,-0.34171 1.95891,-2.07269 4.38922,-2.76662 6.05305,-3.50799 1.03692,-0.46201 2.05787,-0.9001 3.04914,-1.34473 0.21995,-0.0986 0.65091,-0.38395 1.37041,-0.68855 0.82642,-0.34984 1.27973,-0.42939 1.28769,-0.43317 1.37687,-0.6691 3.24288,-2.0844 5.53149,-2.87188 a 2.3864209,2.3864209 0 0 1 0.42289,0.20657 l -0.63716,-2.99468 a 2.3864209,2.3864209 0 0 1 -1.52662,-0.12435 c 0.28965,0.14053 -1.07979,-0.28025 -2.23932,-0.515382 -1.15956,-0.235113 -2.10891,-0.285198 -3.37439,-0.899225 a 2.3866595,2.3866595 0 0 1 -0.2261,-0.12486 c -0.35441,-0.222235 -0.55964,-0.364635 -0.63048,-0.402341 -1.0921,-0.581263 -2.38498,-1.087991 -3.75721,-1.692591 -2.50022,-1.101593 -4.78714,-2.173446 -7.1316,-2.818934 -2.3239,-0.6399 -5.03532,-0.80503 -7.93628,-1.363732 -3.20667,-0.617616 -6.13103,-1.638002 -8.94597,-2.384226 -0.93179,-0.246995 -1.75939,-0.497232 -2.50498,-0.654636 -1.03891,-0.219362 -1.1778,-0.236435 -1.54768,-0.303683 -0.10316,0.01382 -0.18703,0.02164 -0.24767,0.02313 -0.13861,0.005 -0.21094,-0.0017 -0.26874,-0.0067 -0.11564,-0.0089 -0.16426,-0.01893 -0.20657,-0.02569 -0.16926,-0.02744 -0.20627,-0.03946 -0.29802,-0.06063 -0.3671,-0.08462 -1.10827,-0.269567 -2.80353,-0.693167 -0.24487,-0.06115 -0.46146,-0.137249 -0.70139,-0.202458 0.0141,0.0696 0.0154,0.05441 0.0287,0.13001 0.0941,0.532272 0.21075,1.335632 0.37049,2.715134 0.16793,1.450101 0.0693,2.892316 -0.0576,4.109701 -0.004,0.04216 -0.0106,0.06266 -0.0154,0.1038 0.28847,0.0707 0.48841,0.108224 0.92492,0.258459 1.30452,0.448986 2.89281,0.776065 4.61326,1.440297 2.13635,0.824798 6.26101,2.815582 7.5545,3.441714 1.04379,0.50526 2.16755,1.02556 3.30913,1.67358 0.70013,0.39744 1.06477,0.79965 1.25531,0.96345 a 2.3866595,2.3866595 0 0 1 0.006,0.005 c 0.45207,0.39137 0.48354,0.4917 0.66132,0.90488 0.0889,0.20658 0.24473,0.4661 0.19217,1.14896 -0.0263,0.34143 -0.14527,0.8333 -0.49431,1.2846 -0.34898,0.45121 -0.8999,0.75766 -1.32366,0.86224 -4.46206,1.10092 -8.99668,0.36927 -12.75353,0.13103 -3.01916,-0.1915 -3.14047,-0.14144 -6.00167,-0.19886 -3.56293,-0.0715 -7.08239,-0.19604 -10.54608,-0.15158 -0.84215,0.0113 -1.77086,0.0676 -2.78707,0.0647 -1.143744,-0.003 -2.311412,-0.0196 -3.499254,-0.0848 -0.945333,-0.0519 -1.542535,-0.16901 -1.690026,-0.19577 -0.03142,-0.006 -0.0346,-0.009 -0.0349,-0.0123 -0.0089,0.006 -0.05151,0.0169 -0.248188,0.0391 0.02357,-0.003 -0.229256,0.0283 -0.43419,0.0607 -0.06165,0.01 -0.123597,0.0275 -0.189611,0.0447 -0.120097,0.0831 -0.221331,0.16309 -0.386919,0.2523 -0.738449,0.39784 -0.861092,0.32984 -1.157177,0.4008 -0.296195,0.071 -0.418649,0.10737 -0.773331,0.15518 -0.753006,0.10142 -1.674782,0.14027 -2.62264,0.24407 -0.179877,0.0197 -0.320775,0.0634 -0.498425,0.0976 0.151548,0.83654 0.353748,1.72096 0.529249,2.73517 0.369976,2.13803 0.505366,4.28127 0.435225,6.42919 -0.04097,1.25372 -0.145006,2.37028 -0.1336,3.35281 0.02814,2.41541 0.227137,2.11472 0.481471,4.58244 0.08442,0.81849 0.105937,1.55446 0.151587,2.19975 0.0878,1.24169 -0.04852,2.57164 -0.0185,3.8646 0.03003,1.29296 0.496049,2.35 0.261035,2.0862 0.413956,0.46475 0.830148,0.64255 1.621685,0.75174 0.791557,0.10921 1.869117,0.0446 3.043993,-0.0257 1.773104,-0.10621 3.614717,-0.29477 5.535606,-0.39463 1.2918,-0.0672 2.57964,-0.0935 3.86049,-0.0899 2.39012,0.007 2.53513,0.21537 4.58809,0.13205 2.48454,-0.10081 5.10652,-0.42418 7.88695,-0.47633 1.25637,-0.0237 2.42552,0.0284 3.50696,0.0252 1.49838,-0.005 2.9431,0.0116 4.33066,-0.0473 2.53552,-0.10756 3.09946,-0.16412 3.14727,-0.17265 0.0478,-0.009 0.49591,-0.15611 2.14427,-0.3638 1.87503,-0.23626 3.72383,-0.43095 5.53304,-0.66028 1.03953,-0.13176 2.65475,-0.46419 4.33374,-0.43009 0.75191,0.0153 0.37494,0.0161 0.99685,0.002 0.11878,-0.003 0.19088,-0.0192 0.51076,-0.002 0.15997,0.009 0.3324,-0.13186 1.13096,0.32424 0.3993,0.22802 1.06483,0.89469 1.18903,1.73934 0.1242,0.84466 -0.18848,1.39477 -0.36894,1.67154 -0.88248,1.35328 -1.83685,1.65817 -2.64937,2.05125 -0.40625,0.19655 -0.78129,0.35581 -1.06981,0.47479 -0.28851,0.11896 -0.61177,0.26538 -0.40851,0.16494 -0.54509,0.26935 -1.07397,0.51815 -1.57903,0.76254 -2.44453,1.18288 -4.90982,2.3125 -7.41987,3.38056 -0.6275,0.26699 -0.97762,0.41088 -1.24966,0.5123 -0.21264,0.0793 -0.47769,0.14595 -0.65053,0.18396 7.9e-4,9.9e-4 -0.003,0.003 -0.0169,0.008 -0.10066,0.0346 -0.40457,0.14924 -0.98349,0.3859 -0.27743,0.11343 -0.37597,0.15555 -0.58783,0.24304 -0.22061,0.17099 -0.27108,0.16028 -0.32115,0.18498 -0.0691,0.0341 -0.11015,0.0518 -0.15159,0.0699 -0.16571,0.0727 -0.32025,0.13367 -0.49636,0.20195 -0.0917,0.0356 -0.17664,0.0657 -0.26515,0.0986 0.0996,0.19192 0.20657,0.39137 0.29341,0.56625 0.52532,1.05769 0.88924,2.02538 1.26867,2.80352 -0.218,-0.44694 0.17721,-0.19529 0.50048,0.97887 1.43017,-0.141 3.01909,-0.48423 4.52591,-0.89974 1.89915,-0.52365 3.77322,-1.02642 5.6019,-1.57749 1.84489,-0.55595 3.79843,-1.57032 5.88245,-2.54608 1.06452,-0.49842 2.02437,-0.87548 2.80301,-1.28923 2.47753,-1.31652 1.66828,-1.04169 3.84713,-2.61031 1.56152,-1.12418 3.0701,-1.86803 4.20014,-2.67814 0.22623,-0.16216 0.80266,-0.65493 1.32365,-1.05852 0.88552,-0.81325 1.68382,-1.20862 2.08208,-1.51018 0.24696,-0.187 0.76723,-0.60255 1.21884,-1.00609 0.22379,-0.19999 0.44349,-0.44398 0.58988,-0.60633 0.0482,-0.13996 0.18084,-0.41393 0.464,-0.84271 0.646,-0.97808 1.0209,-1.06986 0.6197,-0.63871 0.21594,-0.23203 0.48643,-0.49703 0.77898,-0.76767 0.036,-0.0504 0.11097,-0.16259 0.19937,-0.30112 0.17676,-0.27712 0.41274,-0.6666 0.65254,-1.06616 0.23979,-0.39956 0.48458,-0.81087 0.70241,-1.16539 0.21782,-0.35452 0.26586,-0.51435 0.67879,-0.9948 a 2.3864209,2.3864209 0 0 1 1.4552,-0.10997 z M 128.44732,60.1973 c -0.005,-0.006 -0.23863,0.0469 -0.14695,0.0334 0.0233,-0.003 0.0986,-0.0228 0.14695,-0.0334 z M 95.086705,24.13901 c 0.008,-0.005 -6.66e-4,-0.005 0,0 z m 68.519175,11.90826 -2.30972,-10.84975 c -1.18901,0.45551 -2.88912,1.61769 -4.80698,2.54968 -0.88053,0.42786 -1.4296,0.50024 -1.51274,0.53543 -0.19116,0.0809 -0.59508,0.34293 -1.27742,0.64897 -1.03938,0.4662 -2.06446,0.90557 -3.06044,1.34935 -1.32798,0.59171 -2.48821,1.07439 -3.38518,1.59445 0.35299,0.0691 0.70672,0.14626 1.04875,0.19063 0.5286,0.0686 0.87599,0.0793 1.42745,0.18807 0.63108,0.12435 1.39804,0.252 2.25576,0.53389 0.83131,0.27324 2.25185,0.83365 3.74899,1.42025 1.49719,0.58659 3.04056,1.19188 3.56708,1.37812 -0.1627,-0.0576 0.79976,0.16713 1.0205,0.20451 -0.004,0.001 0.009,0.003 0.0411,0.007 -0.007,-7.4e-4 -0.0272,-0.004 -0.0401,-0.007 0.0208,-0.005 0.33565,0.007 0.6572,0.006 0.39931,-0.002 0.90567,-0.002 1.45468,0.037 0.35416,0.0251 0.77074,0.13084 1.17105,0.21427 z" />
    <path
       id="path21135"
       style="font-variation-settings:normal;display:inline;vector-effect:none;fill:#fdaa03;fill-opacity:1;stroke:none;stroke-width:4.80001;stroke-linecap:round;stroke-linejoin:round;stroke-miterlimit:4;stroke-dasharray:none;stroke-dashoffset:0;stroke-opacity:1;-inkscape-stroke:none;paint-order:markers fill stroke;stop-color:#000000"
       d="m 325.4055,16.842698 c -0.23342,-0.2639 -0.88193,-0.69124 -1.69768,-1.52861 -0.376,-0.38597 -0.66709,-0.70593 -0.98001,-1.04426 0.18139,3.17727 0.35738,6.55705 -0.12358,9.99651 -0.20041,1.43321 -0.53875,2.77941 -0.82437,4.00054 -0.0815,0.34843 -0.20255,0.79555 -0.40226,1.26841 0.29528,-0.063 0.54915,-0.16145 0.86256,-0.32 0.62178,-0.3144 1.52431,-0.97837 2.92513,-2.22944 1.06798,-0.95377 1.98403,-1.78116 2.14987,-2.11742 0.21558,-0.43713 0.35685,-0.9634 0.50736,-1.69937 0.0647,-0.31665 0.10356,-0.48757 0.12894,-0.57631 -0.0321,-0.10605 -0.13557,-0.98111 -0.39233,-1.82227 -0.28934,-0.94782 -0.78089,-1.99337 -0.82763,-2.06379 -0.0241,-0.0354 -0.26014,-0.27945 -0.62943,-0.79072 -0.47316,-0.65525 -0.72589,-1.10625 -0.69657,-1.07327 z m -10.91599,-5.56624 c -0.23569,0.021 -0.51675,0.0389 -0.73328,0.0655 -0.77164,0.0941 -1.71003,0.36877 -2.79179,0.65959 -1.95644,0.52579 -0.0751,-0.0268 -2.47461,0.7132 -0.0275,0.0107 -0.0553,0.017 -0.0832,0.0244 -0.7798,0.20977 -1.25635,0.27549 -1.3934,0.30302 -0.13706,0.0273 -0.18172,0.0292 -0.82962,0.30361 -1.89679,0.80243 -3.80277,2.02267 -5.97046,3.18206 -1.532,0.81943 -3.07639,1.62946 -4.61234,2.42826 -1.38817,0.72188 -2.18458,1.05089 -3.22773,1.70109 -0.53017,0.33033 -0.78236,0.49357 -0.90325,0.57443 -0.088,0.0915 -0.17866,0.18987 -0.26166,0.26161 -0.25749,0.22283 -0.55168,0.44426 -1.09867,0.83468 -0.2203,0.15705 -0.42461,0.28667 -0.64336,0.43767 0.34477,0.32969 0.68629,0.64824 1.01131,0.91657 -0.0469,-0.059 0.16185,0.059 0.61625,0.39768 0.43433,0.32337 0.61105,0.50593 0.58068,0.50854 0.21519,0.14639 0.55529,0.36674 1.04679,0.80645 0.36632,0.32773 0.61369,0.6124 0.64094,0.64105 0.005,0.005 0.004,0.006 0.003,0.006 0.005,0.002 0.0256,0.0134 0.12891,0.0802 0.22011,0.14228 0.66741,0.19235 1.78387,0.60675 1.14781,0.42597 1.58405,0.76265 1.86745,0.83295 0.37065,0.0917 0.31994,0.0767 0.47804,0.08 0.15818,0.007 0.60827,-0.0105 1.26039,0.0565 1.58156,0.15236 3.2676,0.37877 4.90478,0.76082 0.92279,0.21536 1.66676,0.55667 2.50415,0.86339 0.41873,0.15332 0.8173,0.29114 1.09184,0.37218 0.1296,0.0384 0.25998,0.0465 0.30786,0.049 2.59764,-0.17684 4.73062,-0.23166 6.47819,-0.23198 -0.14001,-0.35387 -0.23747,-0.74035 -0.285,-1.0687 -0.15095,-1.04238 -0.0385,-1.7329 -0.0528,-2.03711 -0.0367,-0.78839 -0.15879,-1.72673 -0.17739,-2.82226 -0.0268,-1.57668 0.0206,-3.1331 0.079,-4.64709 0.0936,-2.42615 0.17039,-5.00281 0.75573,-7.65882 z m -6.79716,18.46679 c -0.10117,0.007 -0.19801,0.0127 -0.30062,0.0199 0.30302,-0.0215 0.35415,-0.0172 0.30062,-0.0199 z m -14.32729,-3.70174 c -0.004,-0.002 -0.003,-4.1e-4 0,0 z m -34.77279,-13.42517 c -0.32003,-0.42381 -0.68376,-0.89829 -0.94511,-1.24194 -0.74421,-0.97714 -0.96837,-1.24088 -1.09286,-1.2853 -0.17244,-0.0611 -1.19619,-0.0809 -2.33824,-0.1118898 l -4.2e-4,3.2e-4 c 0.28821,0.4038698 0.56073,0.8776898 0.78269,1.5193998 0.40639,1.17497 0.52537,2.24287 0.66049,3.0757 0.28886,1.78035 0.36635,3.53415 0.20568,5.35964 0.007,-0.0801 -0.0256,0.35415 -0.0525,0.70186 -0.027,0.3477 0.0119,0.3987 -0.10841,1.03754 -0.1127,0.5991 -0.24546,1.01215 -0.2978,1.26027 -0.22368,1.06036 -0.27547,2.62795 -0.82639,4.26854 0.0851,-0.0405 0.18594,-0.075 0.25953,-0.12095 0.34216,-0.21197 1.59954,-1.3934 2.28598,-2.11446 0.13618,-0.14304 1.15991,-1.40368 1.56184,-1.89928 0.38738,-0.47775 0.63218,-0.7387 0.71727,-0.85936 -0.0175,-0.0116 0.24734,-0.58206 0.39261,-1.1085 0.16601,-0.60151 0.30014,-1.29962 0.32395,-1.49535 0.0517,-0.42484 0.0231,-1.936 -0.16463,-3.2788 -0.18773,-1.34292 -0.6757,-2.76075 -0.68147,-2.77016 -0.086,-0.14005 -0.36213,-0.51347 -0.68217,-0.93728 z m -10.74028,-2.46005 c -0.93891,0.14997 -1.95133,0.30858 -2.50944,0.40827 -0.69507,0.12422 -2.77353,0.53036 -2.99768,0.59659 -0.50565,0.1493 -1.15842,0.43406 -2.00807,0.71004 -0.74814,0.24303 -1.30095,0.35304 -1.61503,0.46659 -1.18154,0.42692 -3.18502,1.49359 -4.89502,2.11713 -1.05644,0.38509 -1.94887,0.53273 -2.58924,0.71733 -2.56255,0.73882 -5.02929,1.35546 -7.23587,2.24586 -0.31905,0.12887 -1.11588,0.4493 -1.86801,0.78442 -0.37606,0.16752 -0.74045,0.33973 -0.99284,0.47173 -0.1108,0.0579 -0.2002,0.12847 -0.25303,0.16911 -0.0153,0.0165 -0.0335,0.0399 -0.0489,0.0562 0.56896,0.16797 1.23707,0.34555 2.07121,0.67314 1.30022,0.51069 2.05804,1.12912 2.55317,1.36074 0.51312,0.23993 1.35784,0.47275 2.38382,0.96819 1.34531,0.64966 2.16564,1.39486 2.76983,1.72935 0.1111,0.0611 0.0401,0.0254 0.1231,0.069 0.22166,0.0532 0.30973,0.10672 0.40551,0.1469 0.28748,0.12073 0.58941,0.26954 1.18136,0.56933 0.65205,0.33027 0.88705,0.53514 0.77959,0.48236 0.0567,0.0281 0.3977,0.12354 0.98199,0.38436 0.7403,0.33047 1.25169,0.62932 1.59428,0.76561 0.0673,0.0269 0.42164,0.0961 1.03981,0.28845 0.78449,0.24421 2.60777,0.88539 2.70268,0.91318 0.10277,0.0303 0.48631,0.0738 1.11923,0.2539 0.73447,0.2093 1.05392,0.36606 0.99858,0.3557 1.19872,0.25068 2.72335,0.20086 4.48224,0.2613 0.013,2.6e-4 0.0245,-3.7e-4 0.0377,-5.7e-4 -0.0293,-0.12845 -0.0589,-0.26046 -0.08,-0.35892 -0.37288,-1.74422 -0.03,-3.16537 0.0558,-4.06435 0.24586,-2.57574 0.51595,-5.13497 0.77035,-7.68405 0.20809,-2.0853 0.63923,-4.01024 1.0428,-5.85693 z" />
    <path
       id="path300"
       style="font-variation-settings:normal;display:inline;vector-effect:none;fill:#fdaa03;fill-opacity:1;stroke:none;stroke-width:4.8;stroke-linecap:round;stroke-linejoin:round;stroke-miterlimit:4;stroke-dasharray:none;stroke-dashoffset:0;stroke-opacity:1;-inkscape-stroke:none;paint-order:markers fill stroke;stop-color:#000000"
       d="m 149.83874,113.94144 c -0.48553,-1.05 -0.92743,-2.0742 -1.39216,-2.9378 0.0644,0.1196 -0.1553,-0.11403 -0.60668,-0.74983 -0.91725,-1.29199 -1.71201,-2.51907 -2.5213,-3.37447 -1.11779,-1.1814 -2.94942,-2.48348 -4.55114,-3.67058 -1.3707,-1.01579 -2.70191,-2.01178 -4.04316,-2.91248 -0.59338,-0.398497 -1.38056,-0.817217 -2.25361,-1.421613 -2.11907,-1.467098 -3.82046,-3.238414 -5.40691,-4.63951 -0.55056,-0.486213 -0.88482,-0.835264 -1.09192,-0.998389 10e-4,0.03531 -0.65198,-0.300602 -1.04231,-0.497127 -0.0361,-0.01 -0.15142,-0.0099 -0.17984,-0.01189 -0.19971,-0.039 -0.24332,-0.05996 -0.29404,-0.07596 -0.4057,-0.1307 -0.44599,-0.16602 -0.94413,-0.37052 -1.42935,-0.586798 -1.75326,-0.829873 -3.07526,-1.531173 -0.66854,-0.354698 -1.01686,-0.571045 -1.07332,-0.590145 -0.18271,-0.062 -0.7353,-0.10829 -1.62109,-0.30179 -2.45404,-0.535998 -4.9715,-1.070917 -7.53391,-1.930115 -1.47298,-0.493898 -2.4144,-0.953693 -3.44785,-1.198893 -0.62085,-0.1473 -2.03611,-0.250767 -3.40702,-0.618567 -2.36657,-0.634898 -4.36485,-1.512322 -6.18619,-1.884123 -0.49899,-0.101798 -1.47198,-0.08706 -2.59261,-0.156062 -0.85181,-0.052 -2.33531,-0.220331 -3.09076,-0.340031 -1.04446,-0.1656 -1.98665,-0.375381 -2.84583,-0.517281 -2.09478,-0.3461 -4.32408,-0.561387 -6.64869,-0.979785 -0.37273,-0.067 -0.93758,-0.192463 -1.6185,-0.331763 -0.68092,-0.1393 -1.56773,-0.284085 -1.43092,-0.270785 -0.30193,-0.029 -0.61154,-0.03033 -0.9431,-0.01033 l -10e-4,0.01085 c -0.70718,0.048 -1.68409,0.260317 -2.63808,0.441317 0,0.01 -0.003,0.01574 -0.004,0.02274 a 2.400242,2.400242 0 0 1 -0.0191,0.165882 c -0.12652,0.842298 0.16187,2.2609 -0.13488,4.213696 a 2.400242,2.400242 0 0 1 -0.0548,0.260449 c -0.36821,1.374098 -0.74834,2.433851 -0.82424,3.256649 a 2.400242,2.400242 0 0 1 -0.002,0.01085 c -0.1555,1.604596 0.38784,3.609696 0.5824,6.12159 a 2.400242,2.400242 0 0 1 0.004,0.05581 c 0.0931,1.727196 0.0988,3.354722 0.22376,4.871019 a 2.400242,2.400242 0 0 1 0.004,0.0501 c 0.0975,1.58219 0.41707,3.37517 0.42633,5.41207 a 2.400242,2.400242 0 0 1 -0.002,0.0899 c -0.0462,1.4061 -0.12697,2.84767 -0.30541,4.31136 -0.14039,1.5244 -0.5451,2.61114 -0.65526,3.37034 -0.0637,0.7569 -0.0671,1.59613 -0.0811,2.52233 a 2.400242,2.400242 0 0 1 -0.004,0.0951 c -0.0412,0.7467 0.26679,1.88555 0.39119,3.49694 a 2.400242,2.400242 0 0 1 0.007,0.12558 c 0.0331,1.34339 0.095,2.76087 0.0553,4.24676 -0.008,1.2603 -0.21095,2.30754 -0.30386,3.15743 a 2.400242,2.400242 0 0 1 -0.003,0.0227 c -0.22645,1.9046 0.23353,4.22323 0.19534,6.99183 a 2.400242,2.400242 0 0 1 -0.002,0.079 c -0.11013,2.3601 -0.41362,4.59183 -0.58549,6.72053 -0.18104,2.51949 -0.35083,4.99539 -0.36897,7.42848 a 2.400242,2.400242 0 0 1 -0.002,0.0693 c -0.0403,1.1072 0.0478,2.22208 0.2589,3.31608 0.46127,2.27609 1.10682,4.49663 1.98127,6.59753 h 0.002 c 1.0964,2.50789 2.22065,5.03384 3.28404,7.61504 a 2.400242,2.400242 0 0 1 0.015,0.0372 c 1.28713,3.2805 3.3531,6.53204 4.88756,10.36422 a 2.400242,2.400242 0 0 1 0.0294,0.076 c 0.41217,1.1408 1.00405,2.29896 1.66709,3.51296 a 2.400242,2.400242 0 0 1 0.0207,0.0388 c 0.94917,1.8165 1.93315,3.54213 3.07113,5.07773 l -0.032,-0.0408 c 1.35813,1.7512 2.5706,3.61557 3.61786,5.57227 a 2.400242,2.400242 0 0 1 0.0103,0.0202 c 2.00906,3.83938 4.17639,7.63218 6.33811,11.46596 0.80301,1.35399 1.5527,2.78132 2.17093,4.3031 a 2.400242,2.400242 0 0 1 0.01,0.0238 c 0.8757,2.2261 1.57526,4.52805 2.07274,6.87865 a 2.400242,2.400242 0 0 1 0.006,0.0279 c 0.45966,2.30768 0.71035,4.59914 0.91002,6.83834 0.24564,2.6761 0.37722,5.37373 0.35451,8.08323 0.0191,2.49748 -0.12564,4.76838 0.17621,6.77633 -0.006,-0.0316 -0.0104,-0.0635 -0.0165,-0.0951 l 0.017,0.10025 c 0.34334,1.7948 0.54183,3.62238 0.57361,5.46169 a 2.400242,2.400242 0 0 1 0,0.0284 c 0.017,3.08418 0.088,6.18092 0.16019,9.2909 a 2.400242,2.400242 0 0 1 0,0.0103 c 0.0555,2.7958 0.145,5.64587 0.0724,8.54986 a 2.400242,2.400242 0 0 1 0,0.0191 c -0.17914,5.43229 -0.50329,10.83399 -0.8015,16.21038 a 2.400242,2.400242 0 0 1 -0.004,0.0527 c -0.17819,2.2859 -0.0979,4.70196 -0.11163,7.23626 a 2.400242,2.400242 0 0 1 0,0.0243 c -0.0767,4.98549 -0.61128,9.80994 -0.75395,14.51333 a 2.400242,2.400242 0 0 1 -0.004,0.0718 c -0.0744,1.2283 -0.0283,2.42212 0.18294,3.54242 a 2.400242,2.400242 0 0 1 0.004,0.0181 c 0.3542,1.96069 0.5029,3.8929 0.59686,5.80739 0.51313,-0.095 0.93974,-0.19158 1.50637,-0.26768 1.00019,-0.1342 1.96107,-0.21661 2.76417,-0.33641 1.26996,-0.1893 2.60672,-0.48859 4.10208,-0.71159 3.17736,-0.47379 6.34784,-0.90321 9.35912,-1.46451 2.26182,-0.4216 4.33487,-1.12102 6.68848,-1.78542 1.78355,-0.5035 3.58785,-0.92195 5.02966,-1.41335 1.28516,-0.438 0.94047,-0.41357 2.34198,-1.13947 1.97649,-1.02379 3.97,-1.86402 5.40329,-2.75332 0.2878,-0.1785 0.57221,-0.36734 0.86041,-0.56534 -0.0743,0.051 0.31023,-0.40577 1.19941,-0.80666 0.57467,-0.2591 1.14643,-0.47677 1.6924,-0.67387 z M 70.06997,238.83149 c -0.90296,-3.54208 -1.22614,-7.02124 -1.74667,-10.26294 a 2.400242,2.400242 0 0 1 -0.0109,-0.0718 c -0.20036,-1.54608 -0.61054,-3.11882 -1.12551,-4.7165 a 2.400242,2.400242 0 0 1 -0.014,-0.045 c -0.27136,-0.9027 -0.68568,-1.93108 -1.0232,-3.15226 -0.55051,-1.9626 -0.55439,-3.645 -0.82785,-4.8886 a 2.400242,2.400242 0 0 1 -0.004,-0.0196 c -0.31491,-1.4913 -1.39182,-3.21338 -2.15852,-5.59398 a 2.400242,2.400242 0 0 1 -0.0253,-0.0873 c -0.38057,-1.3553 -0.60329,-2.63648 -0.85525,-3.79408 a 2.400242,2.400242 0 0 1 -0.008,-0.0357 c -0.45777,-2.2686 -1.06665,-4.47209 -1.91047,-6.54379 a 2.400242,2.400242 0 0 1 -0.005,-0.0129 c -0.97663,-2.44048 -2.3211,-4.7849 -3.84628,-7.0683 a 2.400242,2.400242 0 0 1 -0.0145,-0.0222 c -1.11473,-1.7095 -2.4437,-3.45663 -3.63543,-5.46943 a 2.400242,2.400242 0 0 1 -0.0238,-0.0408 c -1.59765,-2.82518 -2.64692,-5.75122 -3.70571,-8.48992 a 2.400242,2.400242 0 0 1 -0.031,-0.0853 c -0.53083,-1.5447 -1.36618,-3.09833 -2.2841,-4.73873 l 0.0274,0.047 c -1.02252,-1.7339 -1.80518,-3.50136 -2.54041,-5.19296 a 2.400242,2.400242 0 0 1 -0.0124,-0.0279 c -1.03016,-2.4564 -2.36078,-4.93238 -3.53777,-7.63778 a 2.400242,2.400242 0 0 1 -0.0336,-0.0801 c -0.69913,-1.7797 -1.63693,-3.68824 -2.28048,-5.91333 a 2.400242,2.400242 0 0 1 -0.007,-0.0238 c -0.64639,-2.3253 -0.48327,-4.46894 -0.48059,-6.24614 a 2.400242,2.400242 0 0 1 0,-0.0351 c 0.007,-0.42849 -0.57962,-1.47027 -0.80409,-3.43596 a 2.400242,2.400242 0 0 1 -0.0129,-0.17312 c -0.068,-1.64319 -0.11793,-3.34338 -0.0294,-5.09168 a 2.400242,2.400242 0 0 1 0.006,-0.0899 c 0.087,-0.98639 0.15407,-1.94756 0.17208,-2.88406 0.0125,-1.29034 0.0668,-2.5916 0.18294,-3.8995 0.17222,-1.9487 0.36755,-3.88075 0.55139,-5.79965 a 2.400242,2.400242 0 0 1 10e-4,-0.01 c 0.16467,-1.6563 0.40639,-2.98317 0.30282,-4.00337 l 0.0191,0.14624 c -0.26462,-1.61259 0.0316,-2.89365 0.12971,-3.79615 0.0964,-1.63859 0.20802,-3.26275 0.30593,-4.87205 a 2.400242,2.400242 0 0 1 0.003,-0.0351 c 0.0881,-1.1646 0.11007,-2.32246 0.0527,-3.46646 a 2.400242,2.400242 0 0 1 -10e-4,-0.0377 c -0.0371,-1.08529 -0.16948,-2.28298 -0.22065,-3.60288 -0.10113,-2.65059 0.37722,-4.94061 0.42116,-6.9143 0.0168,-3.777791 0.13344,-7.476994 0.13126,-11.139886 l 5.1e-4,-0.01137 c -0.32905,0.136 -0.74594,0.241208 -1.05885,0.391708 -0.73852,0.355098 -0.70846,0.347688 -0.88056,0.468188 -0.17214,0.1204 -0.61165,0.438839 -1.56425,0.990637 -0.80845,0.4683 -2.00457,1.010345 -2.65772,1.296045 -0.73028,0.3195 -1.48032,0.662223 -2.26084,1.002523 h -5.2e-4 c -0.89053,0.3881 -1.48378,0.525002 -1.6893,0.628902 0.0422,-0.021 -0.19446,0.171195 -0.7612,0.502295 -0.74577,0.4357 -1.69691,0.914857 -1.70015,0.917257 -0.0905,0.064 -0.36391,0.344061 -0.88832,0.757059 -0.93778,0.7384 -1.60482,1.155626 -1.95285,1.545126 -0.64356,0.720198 -1.32227,1.625409 -2.30787,2.552806 -0.9113,0.8575 -1.68828,1.23368 -2.04535,1.52187 -0.10004,0.081 -0.30411,0.38398 -0.85473,1.03198 -0.84466,0.994 -1.51073,1.50617 -1.76217,1.87017 -0.45175,0.6541 -0.93916,1.52152 -1.39113,2.35542 0.0476,-0.088 -0.0103,0.59409 -0.73225,1.70738 -0.53435,0.8241 -1.04259,1.42069 -1.31413,1.85519 -1.6e-4,0 -0.0482,0.71179 -0.82011,1.96319 -0.12665,0.20529 -0.51899,0.85939 -0.7798,1.29449 l 1.45573,182.42917 a 2.400242,2.400242 0 0 1 -0.0119,0.0899 c 0.0953,0.1679 0.161,0.302 0.20619,0.4098 0.12037,0.28698 0.15054,0.49221 0.18862,0.70021 0.021,0.021 0.0562,0.0472 0.0775,0.0682 0.20556,0.2023 0.28042,0.28854 0.34881,0.36794 0.12244,0.055 0.24974,0.11136 0.44959,0.24546 0.13512,0.091 0.28381,0.27015 0.42943,0.43305 0.12775,0.073 0.16977,0.12993 0.22221,0.16743 0.0934,0.067 0.14299,0.10865 0.19068,0.14935 0.0954,0.082 0.14389,0.11612 0.30386,0.29972 0.04,0.046 0.0882,0.10009 0.16847,0.21549 10e-4,0 0.005,0.01 0.006,0.01 0.0863,0.047 0.18774,0.086 0.26923,0.13746 0.31023,0.1943 0.39401,0.25399 0.48266,0.31729 0.0357,0.013 0.0221,1.4e-4 0.062,0.016 a 2.400242,2.400242 0 0 0 5.2e-4,0 c 0.11883,0.048 0.12528,0.0602 0.20929,0.0971 0.10662,0.03 0.27471,0.0849 0.58032,0.19224 0.82481,0.2899 1.63848,0.58757 2.43448,0.87437 0.58976,0.2125 0.82988,0.33642 1.04903,0.39532 0.31556,0.085 0.40138,0.10579 0.48008,0.12609 0.0322,0 0.0693,0.01 0.0961,0.0109 h -0.0656 c 0.016,0 0.12107,0.031 0.12144,0.032 3.7e-4,10e-5 0.0116,-0.0128 -0.0269,-0.0258 0.0411,0.01 0.11185,0.0101 0.15348,0.0171 0.24881,0.042 0.55277,0.10497 1.11415,0.23047 0.66671,0.1491 1.49036,0.39924 1.97248,0.54984 1.33355,0.4164 2.33003,0.83271 3.39876,1.10071 1.89834,0.476 4.00846,0.86863 6.10506,1.39423 0.84425,0.2117 1.27726,0.36874 1.31361,0.38034 0.0363,0.012 -0.0379,-4.6e-4 0.64854,0.0946 0.2117,0.0286 0.2338,0.0386 0.21239,0.0429 0.14791,-0.008 0.50178,-0.0299 0.96945,-0.004 0.73031,0.041 1.2593,0.15654 1.61231,0.19844 1.37665,0.1637 2.78582,0.31341 4.20181,0.48421 1.05227,0.127 1.86525,0.27321 2.75022,0.38551 0.35997,0.046 0.75201,0.0869 1.16478,0.13384 0.30899,0.022 0.70465,0.034 1.1989,0.092 0.60032,0.071 0.95758,0.16364 1.13016,0.18294 0.0569,0.01 0.41231,-0.0141 1.02888,0.0579 0.62344,0.073 1.00635,0.17739 1.20509,0.20309 0.8035,0.1039 1.60296,0.18943 2.39417,0.24133 0.78508,0.052 1.79373,0.0101 2.97708,0.11886 0.51717,0.037 0.89035,0.095 1.10174,0.10697 2.41668,0.1352 4.98227,0.0652 7.583,0.0532 1.32751,-0.01 1.36164,0.01 1.9451,0 0.002,-0.028 1.6e-4,-0.049 0.003,-0.077 a 2.400242,2.400242 0 0 1 0.002,-0.0181 c 0.16797,-1.6566 0.37919,-3.28819 0.59015,-4.89789 0.19085,-1.4806 0.43401,-2.77453 0.4718,-3.90933 -0.0102,-1.60529 -0.0877,-3.28557 -0.0656,-5.04827 a 2.400242,2.400242 0 0 1 0,-0.0279 c 0.0504,-2.07503 0.0596,-4.16819 0.0713,-6.27765 -0.006,-1.2985 0.0444,-2.57484 0.11523,-3.82923 a 2.400242,2.400242 0 0 1 0.002,-0.03 c 0.14379,-2.07779 -0.26075,-4.52071 -0.0894,-7.3334 0.04,-1.0914 0.20852,-2.06314 0.34675,-2.92334 a 2.400242,2.400242 0 0 1 0.0181,-0.0992 c 0.0515,-0.2524 0.042,-0.7283 -0.0181,-1.4304 l 0.008,0.076 c -0.12787,-1.0885 -0.042,-1.97088 -0.0357,-2.62878 a 2.400242,2.400242 0 0 1 0,-0.0356 c 0.0548,-2.2287 -0.23989,-4.68356 -0.16588,-7.37785 a 2.400242,2.400242 0 0 1 0.004,-0.092 c 0.10707,-1.6256 0.23365,-3.10809 0.14417,-4.44469 -0.22519,-2.16993 0.0516,-4.10958 0.1664,-5.79655 0.0515,-2.48249 0.12634,-4.91871 0.0816,-7.30601 a 2.400242,2.400242 0 0 1 0,-0.0718 c 0.007,-0.6001 -0.0506,-1.33991 -0.0961,-2.07481 a 2.400242,2.400242 0 0 1 -0.003,-0.0103 c -0.004,-0.042 -0.007,-0.0643 -0.009,-0.0853 0,-0.01 1.6e-4,3.4e-4 -0.006,-0.0656 -0.002,-0.016 -0.003,-0.0317 -0.006,-0.0966 -0.002,-0.033 -2e-5,-0.19317 0,-0.19327 0,0 0.002,-0.0166 0.002,-0.0186 -0.006,-0.1034 -0.008,-0.1747 -0.0129,-0.2806 l 0.0207,0.21084 c -0.2037,-1.4459 0.45537,-2.39077 0.88212,-2.91507 z" />
    <path
       id="path296"
       style="font-variation-settings:normal;display:inline;vector-effect:none;fill:#fdaa03;fill-opacity:1;stroke:none;stroke-width:4.8;stroke-linecap:round;stroke-linejoin:round;stroke-miterlimit:4;stroke-dasharray:none;stroke-dashoffset:0;stroke-opacity:1;-inkscape-stroke:none;paint-order:markers fill stroke;stop-color:#000000"
       d="m 310.33304,144.22678 h -5.2e-4 c 0,-8.49018 -0.005,-15.56735 -0.0124,-20.52174 -0.004,-2.4772 -0.0104,-4.42432 -0.0165,-5.74952 -0.002,-0.3981 -0.004,-0.62174 -0.006,-0.90434 -0.2504,-0.2499 -0.40155,-0.48444 -0.5085,-0.67644 -0.40676,-0.7303 -0.50303,-1.14925 -0.50488,-1.15135 -0.18528,-0.3524 -0.54674,-0.86079 -0.88728,-1.68259 -0.0625,-0.1509 -0.3491,-0.55833 -0.72192,-1.29863 -0.32777,-0.6509 -0.47082,-1.08219 -0.57206,-1.26969 -0.23805,-0.4406 -0.8262,-1.14194 -1.27847,-2.34094 -0.0802,-0.2125 -0.13992,-0.37812 -0.19224,-0.54312 -0.0475,-0.1499 -0.10398,-0.25382 -0.14004,-0.66042 -0.48746,-1.0983 -1.27025,-2.3213 -2.12132,-3.4246 -0.0452,-0.059 -0.58929,-0.41029 -1.40715,-1.24799 -1.01312,-1.0378 -1.58657,-1.83303 -2.19211,-2.28203 -0.38557,-0.2858 -1.42585,-0.620977 -2.69648,-1.55597 -0.89528,-0.6588 -1.43079,-1.230631 -1.80609,-1.486731 0.25044,0.1709 -0.48567,-0.288791 -0.96635,-0.566891 -0.24035,-0.138998 -0.47638,-0.274688 -0.65732,-0.378788 -0.0905,-0.052 -0.1671,-0.09591 -0.22531,-0.129708 -0.0582,-0.034 0.036,0.02893 -0.17519,-0.103869 -0.40782,-0.2565 -0.64717,-0.450753 -1.02061,-0.719853 -0.18673,-0.1346 -0.36919,-0.265368 -0.50384,-0.359668 -0.048,-0.034 -0.098,-0.06292 -0.14418,-0.08992 -0.85016,-0.4338 -2.04571,-0.80689 -3.37602,-1.35599 -1.98158,-0.817898 -3.16653,-1.836962 -4.25142,-2.26136 -1.90566,-0.745598 -4.10031,-1.310538 -6.38772,-2.396236 -1.91325,-0.907998 -3.29155,-1.918981 -4.55786,-2.357479 -1.02796,-0.3559 -1.19438,-0.243825 -2.76004,-0.484725 -1.91581,-0.294701 -4.06967,-0.561765 -6.19807,-1.127063 -1.548,-0.4112 -2.87715,-0.884318 -4.11655,-1.150318 -3.86025,-0.828498 -7.7698,-1.331014 -11.79825,-1.751314 -1.40599,-0.1467 -2.4843,-0.516909 -3.29954,-0.666109 -0.0333,-0.01 -0.38193,-0.03397 -0.65577,-0.05995 0.17908,4.676338 0.38832,9.382278 0.35967,14.141773 a 2.400242,2.400242 0 0 1 -0.002,0.06408 c -0.22326,6.869579 -0.61676,13.708119 -0.97565,20.523809 v 0.01 c -0.17443,3.54339 -0.41154,7.04891 -0.55862,10.5239 a 2.400242,2.400242 0 0 1 0,0.01 c -0.332,7.23859 -0.33494,14.52988 -0.39688,21.86017 a 2.400242,2.400242 0 0 1 0,0.0491 c -0.0839,2.92309 0.18642,5.8596 0.79324,8.72659 0.97645,4.49799 2.572,8.88863 4.54442,13.12892 a 2.400242,2.400242 0 0 1 0.0269,0.0594 c 0.75069,1.73569 1.65414,3.38652 2.72439,4.8984 1.77234,2.41646 3.41723,4.9595 4.83536,7.65587 1.6507,3.03078 2.83232,6.10729 4.16202,8.93279 a 2.400242,2.400242 0 0 1 0.0279,0.061 c 0.72528,1.6607 1.78202,3.27352 2.96365,4.91392 l -0.0243,-0.0331 c 2.57277,3.4464 4.59334,7.34799 5.78311,11.54659 a 2.400242,2.400242 0 0 1 0.0155,0.0568 c 1.33396,5.19308 2.38102,10.50237 2.91094,15.90445 a 2.400242,2.400242 0 0 1 0.006,0.0791 c 0.93095,14.33448 1.10694,28.64973 1.47846,42.89971 0.18621,3.98061 -0.0467,7.913 -0.41858,11.76879 a 2.400242,2.400242 0 0 1 -0.004,0.0362 c -0.49153,4.4106 -0.0405,9.03535 0.30334,13.82345 0.33322,3.16369 0.088,6.19778 -0.10801,9.05888 a 2.400242,2.400242 0 0 1 -0.003,0.0331 c -0.16643,2.0165 -0.18024,3.98061 -0.0522,5.90041 1.40983,-0.1297 2.83758,-0.26392 4.21421,-0.40462 1.24968,-0.1278 2.55843,-0.30553 3.76773,-0.50333 -0.0916,0.015 0.1148,-0.065 0.63924,-0.12816 a 2.400242,2.400242 0 0 1 0.002,0 c 0.53247,-0.064 0.82764,-0.0523 0.85472,-0.0553 1.04401,-0.1132 0.93016,-0.17654 2.24638,-0.37982 1.42985,-0.2209 2.91776,-0.43636 4.37337,-0.63046 0.67375,-0.09 2.3293,-0.29072 2.70165,-0.36122 0.657,-0.1243 1.20317,-0.30224 2.05672,-0.51624 1.20377,-0.3019 2.39437,-0.59605 3.62769,-0.88625 0.50478,-0.1187 0.84364,-0.16664 0.9033,-0.18294 0.0901,-0.025 0.38936,-0.1773 1.03921,-0.3483 0.68321,-0.1798 1.19522,-0.24049 1.40767,-0.29559 0.0609,-0.016 0.2592,-0.10781 0.74259,-0.25941 0.30693,-0.096 0.67347,-0.19268 1.06712,-0.30128 0.33836,-0.093 0.65574,-0.19444 0.59996,-0.16794 0.15526,-0.1331 0.38164,-0.31485 0.68213,-0.48215 0.55682,-0.3101 1.01648,-0.48695 1.30121,-0.62425 0.18448,-0.089 0.47405,-0.25642 0.91416,-0.44752 0.43412,-0.18838 0.6199,-0.2216 0.81184,-0.2744 0.0301,-0.033 0.0722,-0.069 0.10645,-0.10232 0.0425,-0.2265 0.11245,-0.65843 0.39067,-1.23093 0.19193,-0.395 0.59486,-0.79602 0.97875,-1.09502 -0.005,0.011 -0.0143,0.0392 -0.0202,0.0522 0.0128,-0.023 0.024,-0.0441 0.0357,-0.0641 0.0237,-0.018 0.0458,-0.0367 0.0692,-0.0537 a 2.400242,2.400242 0 0 1 0.34727,-0.70228 l 1.76578,-1.649 c 0.002,-0.2917 0.002,-0.53211 0.004,-0.94671 0.004,-1.3328 0.008,-3.28469 0.0134,-5.76657 0.01,-4.9639 0.0204,-12.04767 0.0315,-20.54345 0.0222,-16.99148 0.0455,-39.63311 0.063,-62.27165 0.0174,-22.63856 0.0292,-45.27527 0.0274,-62.25563 z M 235.72106,291.2359 c -0.0198,-1.67796 -0.11438,-3.37546 -0.24443,-5.08755 -0.70658,-7.5962 -0.007,-14.97715 -0.24857,-22.08495 -0.5094,-8.0645 -0.98282,-16.13857 -1.35392,-24.22385 1.5e-4,0 1.9e-4,-0.01 0,-0.01 -0.002,-0.01 -0.002,-0.0131 -0.002,-0.0191 -0.2529,-4.36778 -0.31203,-8.65466 -0.65887,-12.83436 -0.91618,-7.23528 -2.90742,-14.3464 -5.64307,-21.16718 a 2.400242,2.400242 0 0 1 -0.009,-0.0217 c -0.82508,-2.1167 -1.77306,-4.18649 -2.83394,-6.19859 -3.12249,-5.89808 -6.76538,-11.66845 -9.89759,-17.87385 a 2.400242,2.400242 0 0 1 -0.003,-0.0103 c -1.62259,-3.2384 -3.0061,-6.52603 -4.38784,-9.74773 a 2.400242,2.400242 0 0 1 -0.005,-0.0103 c -1.46202,-3.4506 -2.97142,-6.91495 -4.39922,-10.44484 -0.82405,-1.8629 -1.3091,-3.77951 -1.63917,-5.6441 a 2.400242,2.400242 0 0 1 -0.004,-0.0202 c -0.70391,-4.18029 -1.46121,-8.39556 -2.0469,-12.67985 a 2.400242,2.400242 0 0 1 -0.0186,-0.18552 c -0.0881,-1.51179 0.0331,-2.91197 0.12867,-4.18837 a 2.400242,2.400242 0 0 1 0.003,-0.031 c 0.61267,-6.97469 1.4002,-13.86076 1.6986,-20.70365 0.0735,-2.76539 0.28188,-5.40505 0.23307,-7.92664 -0.0788,-1.5246 -0.33535,-3.17415 -0.49248,-4.97334 -0.16973,-1.6355 -0.13707,-3.18513 -0.11059,-4.63383 0.0646,-3.509199 0.27467,-6.976537 0.46147,-10.448453 a 2.400242,2.400242 0 0 1 -0.0687,0.03566 c -0.54146,0.2635 -0.96896,0.44633 -1.23972,0.59893 -0.32367,0.182299 -0.78115,0.530527 -1.46347,0.928625 -0.87766,0.5121 -1.87231,1.032211 -2.76831,1.467611 -1.07058,0.520198 -1.80673,0.683478 -1.95182,0.766878 -0.22258,0.128 -0.59594,0.428219 -1.20561,0.805119 -0.90152,0.557499 -1.32288,0.769202 -1.55908,0.890902 -0.23621,0.121799 -0.37754,0.193846 -1.25212,0.765845 -1.69088,1.105697 -1.83983,1.191912 -3.17706,2.43551 -1.50289,1.397593 -2.94847,3.147983 -4.87309,4.799183 -1.87568,1.6092 -3.79365,2.72862 -5.13044,3.94601 -2.03439,1.8528 -3.69253,3.98048 -5.15782,6.29678 a 2.400242,2.400242 0 0 1 0.15606,0.15916 c 0.38983,0.7396 0.24686,0.70661 0.26407,0.82011 0.0172,0.1135 0.0243,0.18988 0.0315,0.27078 0.0143,0.1618 0.0236,0.32852 0.0336,0.53382 0.0201,0.4108 0.0388,0.96186 0.0574,1.66656 0.037,1.4094 0.0729,3.42168 0.10904,5.96088 0.0722,5.07839 0.14359,12.26016 0.21446,20.84834 0.14175,17.17626 0.28224,39.97334 0.42529,62.75069 0.14304,22.77736 0.28843,45.5365 0.4408,62.62977 0.0762,8.54659 0.15425,15.67819 0.2341,20.68039 0.04,2.50109 0.0804,4.4716 0.12092,5.8074 0.009,0.3091 0.0181,0.45448 0.0274,0.69298 0.40551,0.1992 0.78664,0.39033 1.14256,0.53433 1.26972,0.5135 3.30032,0.94109 5.23741,1.59008 1.13552,0.3804 0.9412,0.3773 1.89601,0.6625 1.61096,0.481 3.36114,0.92855 5.10046,1.43195 1.39297,0.4031 2.77133,0.82173 4.12482,1.22783 0.48113,0.1444 0.68135,0.23388 0.7431,0.24908 0.55793,0.1376 1.58197,0.18159 2.8143,0.45889 0.84513,0.1902 1.64984,0.46436 2.09135,0.58136 0.16664,0.044 0.51884,0.10341 0.99477,0.23151 0.70727,0.1902 0.89279,0.23268 1.22008,0.34158 0.0409,0.014 0.0791,0.0245 0.2036,0.0765 0.0384,0.016 0.13934,0.073 0.21653,0.11317 0.53524,0.1516 1.05417,0.2948 1.57199,0.4191 0.67703,0.1625 1.6194,0.29119 2.64842,0.55759 1.14662,0.29679 1.83895,0.61952 2.46445,0.74982 0.87491,0.1823 2.15741,0.18072 3.65301,0.34572 1.0184,0.1124 1.29988,0.22463 2.02778,0.35243 1.18738,0.2083 2.48763,0.34635 3.85661,0.51625 0.80291,0.1 1.34004,0.21345 1.87276,0.25735 1.7078,0.14059 3.66576,0.051 5.73401,0.1204 1.38594,0.046 2.47753,0.26852 3.44062,0.36742 1.22706,0.126 2.62349,0.12822 4.09949,0.17932 0.42,0.015 0.72312,0.0357 1.03663,0.0537 -0.0768,-0.95559 -0.0988,-1.93814 -0.0139,-2.95124 a 2.400242,2.400242 0 0 1 0.015,-0.13332 c 0.45519,-3.2492 0.76866,-6.51069 0.90331,-9.77098 a 2.400242,2.400242 0 0 1 0.004,-0.0739 c 0.053,-0.73076 0.0851,-1.46648 0.10025,-2.20607 v -5.1e-4 c 0.0113,-0.55465 0.0133,-1.11156 0.007,-1.6707 z" />
    <path
       style="font-variation-settings:normal;display:inline;vector-effect:none;fill:#fdaa03;fill-opacity:1;stroke:none;stroke-width:4.8;stroke-linecap:round;stroke-linejoin:round;stroke-miterlimit:4;stroke-dasharray:none;stroke-dashoffset:0;stroke-opacity:1;-inkscape-stroke:none;paint-order:markers fill stroke;stop-color:#000000"
       d="m 240.27668,85.006191 c -5e-5,-0.0014 5e-5,-0.0028 0,-0.0041 l -5.1e-4,0.0041 z"
       id="path294" />
  </g>
</svg>
