999
"DXF R12 Output" (www.mydxf.blogspot.com)
 0 
SECTION
 2 
HEADER
 9 
$ACADVER
 1 
AC1009
 9 
$EXTMIN
 10 
 0 
 20 
 0 
 9 
$EXTMAX
 10 
 8.5 
 20 
 11 
 0 
ENDSEC
 0 
SECTION
 2 
ENTITIES
0
LINE
8
Calque 1
10
201.097000
20
2958.080000
11
173.803600
21
2957.178770
0
LINE
8
Calque 1
10
173.803600
20
2957.178770
11
173.717800
21
2956.414470
0
LINE
8
Calque 1
10
173.717800
20
2956.414470
11
173.702900
21
2956.275970
0
LINE
8
Calque 1
10
173.702900
20
2956.275970
11
173.818640
21
2955.266730
0
LINE
8
Calque 1
10
173.818640
20
2955.266730
11
174.085105
21
2953.909898
0
LINE
8
Calque 1
10
174.085105
20
2953.909898
11
174.065198
21
2953.023227
0
LINE
8
Calque 1
10
174.065198
20
2953.023227
11
173.749440
21
2951.870550
0
LINE
8
Calque 1
10
173.749440
20
2951.870550
11
173.841161
21
2951.236373
0
LINE
8
Calque 1
10
173.841161
20
2951.236373
11
173.885880
21
2949.278460
0
LINE
8
Calque 1
10
173.885880
20
2949.278460
11
173.813480
21
2947.644460
0
LINE
8
Calque 1
10
173.813480
20
2947.644460
11
173.756080
21
2944.529920
0
LINE
8
Calque 1
10
173.756080
20
2944.529920
11
173.929190
21
2937.080240
0
LINE
8
Calque 1
10
173.929190
20
2937.080240
11
173.937190
21
2934.072680
0
LINE
8
Calque 1
10
173.937190
20
2934.072680
11
173.608010
21
2931.679020
0
LINE
8
Calque 1
10
173.608010
20
2931.679020
11
173.562872
21
2931.198721
0
LINE
8
Calque 1
10
173.562872
20
2931.198721
11
173.553210
21
2931.259930
0
LINE
8
Calque 1
10
173.553210
20
2931.259930
11
173.568610
21
2930.943670
0
LINE
8
Calque 1
10
173.568610
20
2930.943670
11
173.673000
21
2930.911170
0
LINE
8
Calque 1
10
173.673000
20
2930.911170
11
175.847020
21
2930.843970
0
LINE
8
Calque 1
10
175.847020
20
2930.843970
11
183.551970
21
2930.834970
0
LINE
8
Calque 1
10
183.551970
20
2930.834970
11
188.013210
21
2931.276820
0
LINE
8
Calque 1
10
188.013210
20
2931.276820
11
189.347490
21
2931.657160
0
LINE
8
Calque 1
10
189.347490
20
2931.657160
11
191.064315
21
2931.889251
0
LINE
8
Calque 1
10
191.064315
20
2931.889251
11
192.810840
21
2931.937240
0
LINE
8
Calque 1
10
192.810840
20
2931.937240
11
194.334790
21
2931.778600
0
LINE
8
Calque 1
10
194.334790
20
2931.778600
11
195.191070
21
2931.594630
0
LINE
8
Calque 1
10
195.191070
20
2931.594630
11
197.107055
21
2931.414981
0
LINE
8
Calque 1
10
197.107055
20
2931.414981
11
198.966550
21
2931.493340
0
LINE
8
Calque 1
10
198.966550
20
2931.493340
11
199.086479
21
2931.647459
0
LINE
8
Calque 1
10
199.086479
20
2931.647459
11
200.291530
21
2932.145490
0
LINE
8
Calque 1
10
200.291530
20
2932.145490
11
201.137470
21
2932.356340
0
LINE
8
Calque 1
10
201.137470
20
2932.356340
11
201.212870
21
2932.973350
0
LINE
8
Calque 1
10
201.212870
20
2932.973350
11
201.299670
21
2935.483790
0
LINE
8
Calque 1
10
201.299670
20
2935.483790
11
201.353970
21
2942.217240
0
LINE
8
Calque 1
10
201.353970
20
2942.217240
11
201.499680
21
2949.729950
0
LINE
8
Calque 1
10
201.499680
20
2949.729950
11
201.455335
21
2952.771742
0
LINE
8
Calque 1
10
201.455335
20
2952.771742
11
201.133820
21
2955.556990
0
LINE
8
Calque 1
10
201.133820
20
2955.556990
11
201.022175
21
2956.505241
0
LINE
8
Calque 1
10
201.022175
20
2956.505241
11
201.051620
21
2957.120200
0
LINE
8
Calque 1
10
201.051620
20
2957.120200
11
201.050620
21
2957.791779
0
LINE
8
Calque 1
10
201.050620
20
2957.791779
11
201.051058
21
2957.983456
0
LINE
8
Calque 1
10
201.051058
20
2957.983456
11
201.058620
21
2957.962020
0
LINE
8
Calque 1
10
201.058620
20
2957.962020
11
201.096320
21
2958.080350
0
LINE
8
Calque 1
10
201.096320
20
2958.080350
11
201.097000
21
2958.080000
0
LINE
8
Calque 1
10
54.831900
20
2957.560000
11
54.821100
21
2957.228240
0
LINE
8
Calque 1
10
54.821100
20
2957.228240
11
54.257173
21
2953.761256
0
LINE
8
Calque 1
10
54.257173
20
2953.761256
11
53.962495
21
2949.789076
0
LINE
8
Calque 1
10
53.962495
20
2949.789076
11
53.875169
21
2945.725204
0
LINE
8
Calque 1
10
53.875169
20
2945.725204
11
53.933300
21
2941.983140
0
LINE
8
Calque 1
10
53.933300
20
2941.983140
11
54.105390
21
2938.654041
0
LINE
8
Calque 1
10
54.105390
20
2938.654041
11
54.171010
21
2935.080210
0
LINE
8
Calque 1
10
54.171010
20
2935.080210
11
53.914833
21
2932.391846
0
LINE
8
Calque 1
10
53.914833
20
2932.391846
11
53.572600
21
2930.045370
0
LINE
8
Calque 1
10
53.572600
20
2930.045370
11
53.045510
21
2926.457980
0
LINE
8
Calque 1
10
53.045510
20
2926.457980
11
55.751280
21
2926.577350
0
LINE
8
Calque 1
10
55.751280
20
2926.577350
11
59.290984
21
2926.679414
0
LINE
8
Calque 1
10
59.290984
20
2926.679414
11
63.463470
21
2926.413550
0
LINE
8
Calque 1
10
63.463470
20
2926.413550
11
67.693710
21
2926.239920
0
LINE
8
Calque 1
10
67.693710
20
2926.239920
11
71.946160
21
2925.691630
0
LINE
8
Calque 1
10
71.946160
20
2925.691630
11
73.019470
21
2925.445650
0
LINE
8
Calque 1
10
73.019470
20
2925.445650
11
73.258294
21
2926.468446
0
LINE
8
Calque 1
10
73.258294
20
2926.468446
11
73.508330
21
2928.978770
0
LINE
8
Calque 1
10
73.508330
20
2928.978770
11
73.572930
21
2930.749200
0
LINE
8
Calque 1
10
73.572930
20
2930.749200
11
73.939320
21
2933.397610
0
LINE
8
Calque 1
10
73.939320
20
2933.397610
11
74.350670
21
2935.828470
0
LINE
8
Calque 1
10
74.350670
20
2935.828470
11
74.729565
21
2940.327629
0
LINE
8
Calque 1
10
74.729565
20
2940.327629
11
74.727400
21
2944.869260
0
LINE
8
Calque 1
10
74.727400
20
2944.869260
11
74.804727
21
2946.253230
0
LINE
8
Calque 1
10
74.804727
20
2946.253230
11
74.926860
21
2947.008670
0
LINE
8
Calque 1
10
74.926860
20
2947.008670
11
74.820910
21
2948.953770
0
LINE
8
Calque 1
10
74.820910
20
2948.953770
11
74.917851
21
2950.462734
0
LINE
8
Calque 1
10
74.917851
20
2950.462734
11
75.188860
21
2951.605810
0
LINE
8
Calque 1
10
75.188860
20
2951.605810
11
75.332356
21
2952.574271
0
LINE
8
Calque 1
10
75.332356
20
2952.574271
11
75.365804
21
2952.797572
0
LINE
8
Calque 1
10
75.365804
20
2952.797572
11
75.404340
21
2952.699800
0
LINE
8
Calque 1
10
75.404340
20
2952.699800
11
74.750640
21
2954.770980
0
LINE
8
Calque 1
10
74.750640
20
2954.770980
11
75.211070
21
2955.712540
0
LINE
8
Calque 1
10
75.211070
20
2955.712540
11
54.831900
21
2957.560000
0
LINE
8
Calque 1
10
72.316400
20
2853.790000
11
69.494870
21
2853.189520
0
LINE
8
Calque 1
10
69.494870
20
2853.189520
11
69.563743
21
2852.579172
0
LINE
8
Calque 1
10
69.563743
20
2852.579172
11
69.477915
21
2851.980584
0
LINE
8
Calque 1
10
69.477915
20
2851.980584
11
69.245278
21
2851.422414
0
LINE
8
Calque 1
10
69.245278
20
2851.422414
11
68.873720
21
2850.933320
0
LINE
8
Calque 1
10
68.873720
20
2850.933320
11
68.820490
21
2850.557120
0
LINE
8
Calque 1
10
68.820490
20
2850.557120
11
68.795170
21
2849.453830
0
LINE
8
Calque 1
10
68.795170
20
2849.453830
11
68.770880
21
2848.314360
0
LINE
8
Calque 1
10
68.770880
20
2848.314360
11
68.623771
21
2847.268967
0
LINE
8
Calque 1
10
68.623771
20
2847.268967
11
68.309930
21
2846.142920
0
LINE
8
Calque 1
10
68.309930
20
2846.142920
11
66.868160
21
2842.405160
0
LINE
8
Calque 1
10
66.868160
20
2842.405160
11
65.530250
21
2838.887550
0
LINE
8
Calque 1
10
65.530250
20
2838.887550
11
65.142680
21
2837.189460
0
LINE
8
Calque 1
10
65.142680
20
2837.189460
11
65.004190
21
2836.063950
0
LINE
8
Calque 1
10
65.004190
20
2836.063950
11
64.593360
21
2833.842890
0
LINE
8
Calque 1
10
64.593360
20
2833.842890
11
64.188851
21
2832.585470
0
LINE
8
Calque 1
10
64.188851
20
2832.585470
11
63.483870
21
2831.294210
0
LINE
8
Calque 1
10
63.483870
20
2831.294210
11
62.918559
21
2830.653247
0
LINE
8
Calque 1
10
62.918559
20
2830.653247
11
62.167083
21
2830.081966
0
LINE
8
Calque 1
10
62.167083
20
2830.081966
11
61.265910
21
2829.666320
0
LINE
8
Calque 1
10
61.265910
20
2829.666320
11
60.251510
21
2829.492260
0
LINE
8
Calque 1
10
60.251510
20
2829.492260
11
59.117038
21
2829.688831
0
LINE
8
Calque 1
10
59.117038
20
2829.688831
11
58.530680
21
2830.061210
0
LINE
8
Calque 1
10
58.530680
20
2830.061210
11
57.935890
21
2830.596580
0
LINE
8
Calque 1
10
57.935890
20
2830.596580
11
57.556720
21
2831.001771
0
LINE
8
Calque 1
10
57.556720
20
2831.001771
11
57.492727
21
2831.078590
0
LINE
8
Calque 1
10
57.492727
20
2831.078590
11
57.592240
21
2830.990870
0
LINE
8
Calque 1
10
57.592240
20
2830.990870
11
56.266456
21
2832.537852
0
LINE
8
Calque 1
10
56.266456
20
2832.537852
11
55.326181
21
2834.145900
0
LINE
8
Calque 1
10
55.326181
20
2834.145900
11
54.064290
21
2837.078360
0
LINE
8
Calque 1
10
54.064290
20
2837.078360
11
52.711910
21
2840.144840
0
LINE
8
Calque 1
10
52.711910
20
2840.144840
11
52.019450
21
2841.523050
0
LINE
8
Calque 1
10
52.019450
20
2841.523050
11
51.583820
21
2842.818060
0
LINE
8
Calque 1
10
51.583820
20
2842.818060
11
50.184360
21
2845.255695
0
LINE
8
Calque 1
10
50.184360
20
2845.255695
11
49.386377
21
2846.735532
0
LINE
8
Calque 1
10
49.386377
20
2846.735532
11
48.695620
21
2848.381020
0
LINE
8
Calque 1
10
48.695620
20
2848.381020
11
48.903360
21
2848.806320
0
LINE
8
Calque 1
10
48.903360
20
2848.806320
11
45.891660
21
2848.165530
0
LINE
8
Calque 1
10
45.891660
20
2848.165530
11
45.955651
21
2847.387574
0
LINE
8
Calque 1
10
45.955651
20
2847.387574
11
45.766600
21
2846.630230
0
LINE
8
Calque 1
10
45.766600
20
2846.630230
11
45.778491
21
2846.565225
0
LINE
8
Calque 1
10
45.778491
20
2846.565225
11
45.649120
21
2846.050736
0
LINE
8
Calque 1
10
45.649120
20
2846.050736
11
45.248290
21
2844.378170
0
LINE
8
Calque 1
10
45.248290
20
2844.378170
11
44.939021
21
2842.721320
0
LINE
8
Calque 1
10
44.939021
20
2842.721320
11
44.343950
21
2840.984580
0
LINE
8
Calque 1
10
44.343950
20
2840.984580
11
44.218380
21
2840.757200
0
LINE
8
Calque 1
10
44.218380
20
2840.757200
11
43.813750
21
2840.123130
0
LINE
8
Calque 1
10
43.813750
20
2840.123130
11
42.111530
21
2836.344550
0
LINE
8
Calque 1
10
42.111530
20
2836.344550
11
40.522033
21
2832.699718
0
LINE
8
Calque 1
10
40.522033
20
2832.699718
11
39.276560
21
2829.172380
0
LINE
8
Calque 1
10
39.276560
20
2829.172380
11
38.560193
21
2825.399293
0
LINE
8
Calque 1
10
38.560193
20
2825.399293
11
37.905070
21
2821.190950
0
LINE
8
Calque 1
10
37.905070
20
2821.190950
11
36.754678
21
2816.544785
0
LINE
8
Calque 1
10
36.754678
20
2816.544785
11
35.507280
21
2812.194090
0
LINE
8
Calque 1
10
35.507280
20
2812.194090
11
34.848920
21
2809.674860
0
LINE
8
Calque 1
10
34.848920
20
2809.674860
11
34.543510
21
2808.118370
0
LINE
8
Calque 1
10
34.543510
20
2808.118370
11
34.566770
21
2807.869290
0
LINE
8
Calque 1
10
34.566770
20
2807.869290
11
34.560070
21
2807.599020
0
LINE
8
Calque 1
10
34.560070
20
2807.599020
11
34.534230
21
2807.391280
0
LINE
8
Calque 1
10
34.534230
20
2807.391280
11
34.473250
21
2807.091560
0
LINE
8
Calque 1
10
34.473250
20
2807.091560
11
33.776140
21
2804.272090
0
LINE
8
Calque 1
10
33.776140
20
2804.272090
11
33.572530
21
2803.566710
0
LINE
8
Calque 1
10
33.572530
20
2803.566710
11
33.703280
21
2803.595610
0
LINE
8
Calque 1
10
33.703280
20
2803.595610
11
36.433860
21
2803.968200
0
LINE
8
Calque 1
10
36.433860
20
2803.968200
11
38.588165
21
2804.050434
0
LINE
8
Calque 1
10
38.588165
20
2804.050434
11
40.566940
21
2803.910300
0
LINE
8
Calque 1
10
40.566940
20
2803.910300
11
40.671330
21
2803.894800
0
LINE
8
Calque 1
10
40.671330
20
2803.894800
11
40.931260
21
2804.824980
0
LINE
8
Calque 1
10
40.931260
20
2804.824980
11
41.574329
21
2806.987876
0
LINE
8
Calque 1
10
41.574329
20
2806.987876
11
42.379750
21
2809.464490
0
LINE
8
Calque 1
10
42.379750
20
2809.464490
11
44.185320
21
2813.581098
0
LINE
8
Calque 1
10
44.185320
20
2813.581098
11
45.841040
21
2817.061960
0
LINE
8
Calque 1
10
45.841040
20
2817.061960
11
47.524140
21
2820.389920
0
LINE
8
Calque 1
10
47.524140
20
2820.389920
11
48.096715
21
2821.213329
0
LINE
8
Calque 1
10
48.096715
20
2821.213329
11
48.493070
21
2821.652370
0
LINE
8
Calque 1
10
48.493070
20
2821.652370
11
48.497670
21
2821.658370
0
LINE
8
Calque 1
10
48.497670
20
2821.658370
11
48.944453
21
2822.094354
0
LINE
8
Calque 1
10
48.944453
20
2822.094354
11
49.407690
21
2822.323450
0
LINE
8
Calque 1
10
49.407690
20
2822.323450
11
49.805818
21
2822.473433
0
LINE
8
Calque 1
10
49.805818
20
2822.473433
11
50.563180
21
2822.516720
0
LINE
8
Calque 1
10
50.563180
20
2822.516720
11
51.167698
21
2822.389891
0
LINE
8
Calque 1
10
51.167698
20
2822.389891
11
51.855090
21
2822.019590
0
LINE
8
Calque 1
10
51.855090
20
2822.019590
11
52.419376
21
2821.382200
0
LINE
8
Calque 1
10
52.419376
20
2821.382200
11
52.722220
21
2820.688410
0
LINE
8
Calque 1
10
52.722220
20
2820.688410
11
53.055591
21
2819.003866
0
LINE
8
Calque 1
10
53.055591
20
2819.003866
11
53.243595
21
2817.322503
0
LINE
8
Calque 1
10
53.243595
20
2817.322503
11
53.293149
21
2814.009403
0
LINE
8
Calque 1
10
53.293149
20
2814.009403
11
52.854000
21
2807.862310
0
LINE
8
Calque 1
10
52.854000
20
2807.862310
11
52.654010
21
2801.826500
0
LINE
8
Calque 1
10
52.654010
20
2801.826500
11
52.501560
21
2791.220400
0
LINE
8
Calque 1
10
52.501560
20
2791.220400
11
52.566670
21
2788.417470
0
LINE
8
Calque 1
10
52.566670
20
2788.417470
11
52.481410
21
2784.898310
0
LINE
8
Calque 1
10
52.481410
20
2784.898310
11
52.284520
21
2783.198670
0
LINE
8
Calque 1
10
52.284520
20
2783.198670
11
52.272120
21
2783.163570
0
LINE
8
Calque 1
10
52.272120
20
2783.163570
11
52.311390
21
2782.913970
0
LINE
8
Calque 1
10
52.311390
20
2782.913970
11
52.372370
21
2782.477310
0
LINE
8
Calque 1
10
52.372370
20
2782.477310
11
52.417330
21
2782.286620
0
LINE
8
Calque 1
10
52.417330
20
2782.286620
11
52.671060
21
2781.897500
0
LINE
8
Calque 1
10
52.671060
20
2781.897500
11
52.995881
21
2781.148790
0
LINE
8
Calque 1
10
52.995881
20
2781.148790
11
53.074140
21
2780.733740
0
LINE
8
Calque 1
10
53.074140
20
2780.733740
11
53.230200
21
2779.956010
0
LINE
8
Calque 1
10
53.230200
20
2779.956010
11
53.475660
21
2777.318450
0
LINE
8
Calque 1
10
53.475660
20
2777.318450
11
53.573850
21
2776.817190
0
LINE
8
Calque 1
10
53.573850
20
2776.817190
11
56.324580
21
2777.349450
0
LINE
8
Calque 1
10
56.324580
20
2777.349450
11
59.553729
21
2777.734283
0
LINE
8
Calque 1
10
59.553729
20
2777.734283
11
62.790340
21
2777.787150
0
LINE
8
Calque 1
10
62.790340
20
2777.787150
11
66.162230
21
2777.652790
0
LINE
8
Calque 1
10
66.162230
20
2777.652790
11
68.446755
21
2777.809590
0
LINE
8
Calque 1
10
68.446755
20
2777.809590
11
70.770730
21
2778.137000
0
LINE
8
Calque 1
10
70.770730
20
2778.137000
11
72.983000
21
2778.289450
0
LINE
8
Calque 1
10
72.983000
20
2778.289450
11
76.869580
21
2778.270850
0
LINE
8
Calque 1
10
76.869580
20
2778.270850
11
78.505723
21
2778.502066
0
LINE
8
Calque 1
10
78.505723
20
2778.502066
11
78.934608
21
2778.596308
0
LINE
8
Calque 1
10
78.934608
20
2778.596308
11
78.967650
21
2778.533370
0
LINE
8
Calque 1
10
78.967650
20
2778.533370
11
79.479756
21
2779.206426
0
LINE
8
Calque 1
10
79.479756
20
2779.206426
11
79.723670
21
2780.164280
0
LINE
8
Calque 1
10
79.723670
20
2780.164280
11
79.778449
21
2781.550373
0
LINE
8
Calque 1
10
79.778449
20
2781.550373
11
79.697830
21
2783.225590
0
LINE
8
Calque 1
10
79.697830
20
2783.225590
11
79.300960
21
2788.792690
0
LINE
8
Calque 1
10
79.300960
20
2788.792690
11
79.210530
21
2792.675140
0
LINE
8
Calque 1
10
79.210530
20
2792.675140
11
79.310976
21
2795.109386
0
LINE
8
Calque 1
10
79.310976
20
2795.109386
11
79.343330
21
2797.289330
0
LINE
8
Calque 1
10
79.343330
20
2797.289330
11
79.085454
21
2801.143648
0
LINE
8
Calque 1
10
79.085454
20
2801.143648
11
78.864290
21
2805.221150
0
LINE
8
Calque 1
10
78.864290
20
2805.221150
11
78.889620
21
2808.748060
0
LINE
8
Calque 1
10
78.889620
20
2808.748060
11
78.842070
21
2813.103350
0
LINE
8
Calque 1
10
78.842070
20
2813.103350
11
78.668440
21
2816.268530
0
LINE
8
Calque 1
10
78.668440
20
2816.268530
11
78.302570
21
2818.424990
0
LINE
8
Calque 1
10
78.302570
20
2818.424990
11
77.638530
21
2823.989510
0
LINE
8
Calque 1
10
77.638530
20
2823.989510
11
77.359711
21
2825.927543
0
LINE
8
Calque 1
10
77.359711
20
2825.927543
11
77.206000
21
2828.347900
0
LINE
8
Calque 1
10
77.206000
20
2828.347900
11
77.208100
21
2829.350420
0
LINE
8
Calque 1
10
77.208100
20
2829.350420
11
77.206000
21
2829.864090
0
LINE
8
Calque 1
10
77.206000
20
2829.864090
11
77.200406
21
2830.191953
0
LINE
8
Calque 1
10
77.200406
20
2830.191953
11
77.532080
21
2831.001480
0
LINE
8
Calque 1
10
77.532080
20
2831.001480
11
78.174148
21
2831.703131
0
LINE
8
Calque 1
10
78.174148
20
2831.703131
11
78.681883
21
2832.014212
0
LINE
8
Calque 1
10
78.681883
20
2832.014212
11
79.281320
21
2832.197280
0
LINE
8
Calque 1
10
79.281320
20
2832.197280
11
80.336010
21
2832.126656
0
LINE
8
Calque 1
10
80.336010
20
2832.126656
11
80.962360
21
2831.826240
0
LINE
8
Calque 1
10
80.962360
20
2831.826240
11
81.803264
21
2831.150418
0
LINE
8
Calque 1
10
81.803264
20
2831.150418
11
82.355946
21
2830.467635
0
LINE
8
Calque 1
10
82.355946
20
2830.467635
11
83.025280
21
2829.161800
0
LINE
8
Calque 1
10
83.025280
20
2829.161800
11
83.502770
21
2828.085900
0
LINE
8
Calque 1
10
83.502770
20
2828.085900
11
83.668454
21
2827.695021
0
LINE
8
Calque 1
10
83.668454
20
2827.695021
11
83.702169
21
2827.612220
0
LINE
8
Calque 1
10
83.702169
20
2827.612220
11
83.668650
21
2827.675070
0
LINE
8
Calque 1
10
83.668650
20
2827.675070
11
84.435530
21
2826.087060
0
LINE
8
Calque 1
10
84.435530
20
2826.087060
11
87.835320
21
2818.624980
0
LINE
8
Calque 1
10
87.835320
20
2818.624980
11
88.350540
21
2817.368210
0
LINE
8
Calque 1
10
88.350540
20
2817.368210
11
88.535540
21
2816.713980
0
LINE
8
Calque 1
10
88.535540
20
2816.713980
11
88.543840
21
2816.696980
0
LINE
8
Calque 1
10
88.543840
20
2816.696980
11
88.931930
21
2815.707890
0
LINE
8
Calque 1
10
88.931930
20
2815.707890
11
89.176360
21
2815.116720
0
LINE
8
Calque 1
10
89.176360
20
2815.116720
11
89.362390
21
2814.793740
0
LINE
8
Calque 1
10
89.362390
20
2814.793740
11
89.432670
21
2814.641290
0
LINE
8
Calque 1
10
89.432670
20
2814.641290
11
89.635760
21
2814.142100
0
LINE
8
Calque 1
10
89.635760
20
2814.142100
11
89.734980
21
2813.875450
0
LINE
8
Calque 1
10
89.734980
20
2813.875450
11
90.304450
21
2814.170520
0
LINE
8
Calque 1
10
90.304450
20
2814.170520
11
93.123920
21
2815.446410
0
LINE
8
Calque 1
10
93.123920
20
2815.446410
11
92.922053
21
2815.386845
0
LINE
8
Calque 1
10
92.922053
20
2815.386845
11
93.004761
21
2815.493944
0
LINE
8
Calque 1
10
93.004761
20
2815.493944
11
94.108350
21
2815.949740
0
LINE
8
Calque 1
10
94.108350
20
2815.949740
11
93.759451
21
2818.196658
0
LINE
8
Calque 1
10
93.759451
20
2818.196658
11
93.203500
21
2820.501400
0
LINE
8
Calque 1
10
93.203500
20
2820.501400
11
91.617030
21
2826.135160
0
LINE
8
Calque 1
10
91.617030
20
2826.135160
11
90.495075
21
2829.002936
0
LINE
8
Calque 1
10
90.495075
20
2829.002936
11
89.056470
21
2832.051080
0
LINE
8
Calque 1
10
89.056470
20
2832.051080
11
87.759900
21
2834.870030
0
LINE
8
Calque 1
10
87.759900
20
2834.870030
11
86.542398
21
2836.917183
0
LINE
8
Calque 1
10
86.542398
20
2836.917183
11
85.134740
21
2838.739050
0
LINE
8
Calque 1
10
85.134740
20
2838.739050
11
83.669611
21
2841.013789
0
LINE
8
Calque 1
10
83.669611
20
2841.013789
11
82.441370
21
2842.963080
0
LINE
8
Calque 1
10
82.441370
20
2842.963080
11
81.376830
21
2844.294260
0
LINE
8
Calque 1
10
81.376830
20
2844.294260
11
80.424466
21
2845.524986
0
LINE
8
Calque 1
10
80.424466
20
2845.524986
11
79.858060
21
2846.388190
0
LINE
8
Calque 1
10
79.858060
20
2846.388190
11
78.846240
21
2847.613960
0
LINE
8
Calque 1
10
78.846240
20
2847.613960
11
78.236460
21
2848.207200
0
LINE
8
Calque 1
10
78.236460
20
2848.207200
11
77.388960
21
2848.673840
0
LINE
8
Calque 1
10
77.388960
20
2848.673840
11
76.536321
21
2849.380381
0
LINE
8
Calque 1
10
76.536321
20
2849.380381
11
76.525732
21
2849.461260
0
LINE
8
Calque 1
10
76.525732
20
2849.461260
11
76.746620
21
2849.297060
0
LINE
8
Calque 1
10
76.746620
20
2849.297060
11
75.974580
21
2850.080470
0
LINE
8
Calque 1
10
75.974580
20
2850.080470
11
75.671750
21
2850.280980
0
LINE
8
Calque 1
10
75.671750
20
2850.280980
11
74.599470
21
2850.937270
0
LINE
8
Calque 1
10
74.599470
20
2850.937270
11
73.427450
21
2851.643680
0
LINE
8
Calque 1
10
73.427450
20
2851.643680
11
72.426990
21
2852.326330
0
LINE
8
Calque 1
10
72.426990
20
2852.326330
11
72.257082
21
2853.049409
0
LINE
8
Calque 1
10
72.257082
20
2853.049409
11
72.316400
21
2853.789810
0
LINE
8
Calque 1
10
72.316400
20
2853.789810
11
72.316400
21
2853.790000
0
LINE
8
Calque 1
10
88.535600
20
2816.714200
11
88.569190
21
2816.566410
0
LINE
8
Calque 1
10
88.569190
20
2816.566410
11
88.535600
21
2816.714200
0
LINE
8
Calque 1
10
88.535600
20
2816.714200
11
88.535600
21
2816.714200
0
LINE
8
Calque 1
10
52.272200
20
2783.163800
11
52.272200
21
2783.163800
0
LINE
8
Calque 1
10
52.272200
20
2783.163800
11
52.272200
21
2783.163800
0
LINE
8
Calque 1
10
64.248200
20
2852.072800
11
53.336700
21
2849.749940
0
LINE
8
Calque 1
10
53.336700
20
2849.749940
11
54.439103
21
2847.607646
0
LINE
8
Calque 1
10
54.439103
20
2847.607646
11
55.900890
21
2844.915610
0
LINE
8
Calque 1
10
55.900890
20
2844.915610
11
56.318213
21
2843.854215
0
LINE
8
Calque 1
10
56.318213
20
2843.854215
11
56.439360
21
2843.394260
0
LINE
8
Calque 1
10
56.439360
20
2843.394260
11
57.092030
21
2842.109580
0
LINE
8
Calque 1
10
57.092030
20
2842.109580
11
58.449050
21
2839.031730
0
LINE
8
Calque 1
10
58.449050
20
2839.031730
11
60.052570
21
2835.627290
0
LINE
8
Calque 1
10
60.052570
20
2835.627290
11
60.244290
21
2836.682010
0
LINE
8
Calque 1
10
60.244290
20
2836.682010
11
60.433430
21
2838.117580
0
LINE
8
Calque 1
10
60.433430
20
2838.117580
11
60.970350
21
2840.386170
0
LINE
8
Calque 1
10
60.970350
20
2840.386170
11
62.398680
21
2844.156490
0
LINE
8
Calque 1
10
62.398680
20
2844.156490
11
63.784640
21
2847.743860
0
LINE
8
Calque 1
10
63.784640
20
2847.743860
11
63.851671
21
2848.112402
0
LINE
8
Calque 1
10
63.851671
20
2848.112402
11
63.990320
21
2848.770160
0
LINE
8
Calque 1
10
63.990320
20
2848.770160
11
63.997020
21
2848.811460
0
LINE
8
Calque 1
10
63.997020
20
2848.811460
11
63.990320
21
2848.771160
0
LINE
8
Calque 1
10
63.990320
20
2848.771160
11
63.996020
21
2849.432100
0
LINE
8
Calque 1
10
63.996020
20
2849.432100
11
64.033230
21
2850.895060
0
LINE
8
Calque 1
10
64.033230
20
2850.895060
11
64.248720
21
2852.072770
0
LINE
8
Calque 1
10
64.248720
20
2852.072770
11
64.248200
21
2852.072800
0
LINE
8
Calque 1
10
73.327800
20
2734.150000
11
52.806100
21
2734.140000
0
LINE
8
Calque 1
10
52.806100
20
2734.140000
11
47.056600
21
2734.120000
0
LINE
8
Calque 1
10
47.056600
20
2734.120000
11
46.152200
21
2734.120000
0
LINE
8
Calque 1
10
46.152200
20
2734.120000
11
45.475800
21
2733.610000
0
LINE
8
Calque 1
10
45.475800
20
2733.610000
11
44.324400
21
2733.100000
0
LINE
8
Calque 1
10
44.324400
20
2733.100000
11
42.641800
21
2732.220000
0
LINE
8
Calque 1
10
42.641800
20
2732.220000
11
41.343200
21
2731.490000
0
LINE
8
Calque 1
10
41.343200
20
2731.490000
11
40.073500
21
2730.920000
0
LINE
8
Calque 1
10
40.073500
20
2730.920000
11
39.187450
21
2730.362500
0
LINE
8
Calque 1
10
39.187450
20
2730.362500
11
37.732600
21
2729.640000
0
LINE
8
Calque 1
10
37.732600
20
2729.640000
11
37.189500
21
2729.450000
0
LINE
8
Calque 1
10
37.189500
20
2729.450000
11
36.529000
21
2729.310000
0
LINE
8
Calque 1
10
36.529000
20
2729.310000
11
34.818575
21
2728.385000
0
LINE
8
Calque 1
10
34.818575
20
2728.385000
11
33.104400
21
2727.190000
0
LINE
8
Calque 1
10
33.104400
20
2727.190000
11
31.856500
21
2725.780000
0
LINE
8
Calque 1
10
31.856500
20
2725.780000
11
30.494650
21
2724.535000
0
LINE
8
Calque 1
10
30.494650
20
2724.535000
11
29.574400
21
2723.590000
0
LINE
8
Calque 1
10
29.574400
20
2723.590000
11
29.039850
21
2722.578750
0
LINE
8
Calque 1
10
29.039850
20
2722.578750
11
28.018400
21
2720.900000
0
LINE
8
Calque 1
10
28.018400
20
2720.900000
11
26.531700
21
2719.090000
0
LINE
8
Calque 1
10
26.531700
20
2719.090000
11
26.554328
21
2719.111406
0
LINE
8
Calque 1
10
26.554328
20
2719.111406
11
26.416625
21
2718.878750
0
LINE
8
Calque 1
10
26.416625
20
2718.878750
11
25.964800
21
2718.120000
0
LINE
8
Calque 1
10
25.964800
20
2718.120000
11
25.586000
21
2717.470000
0
LINE
8
Calque 1
10
25.586000
20
2717.470000
11
25.456300
21
2717.240000
0
LINE
8
Calque 1
10
25.456300
20
2717.240000
11
25.352500
21
2717.060000
0
LINE
8
Calque 1
10
25.352500
20
2717.060000
11
24.632600
21
2716.040000
0
LINE
8
Calque 1
10
24.632600
20
2716.040000
11
24.272900
21
2715.540000
0
LINE
8
Calque 1
10
24.272900
20
2715.540000
11
24.183000
21
2715.400000
0
LINE
8
Calque 1
10
24.183000
20
2715.400000
11
22.827000
21
2712.020000
0
LINE
8
Calque 1
10
22.827000
20
2712.020000
11
21.548788
21
2709.557500
0
LINE
8
Calque 1
10
21.548788
20
2709.557500
11
20.565700
21
2707.770000
0
LINE
8
Calque 1
10
20.565700
20
2707.770000
11
19.495087
21
2704.717500
0
LINE
8
Calque 1
10
19.495087
20
2704.717500
11
18.169400
21
2701.380000
0
LINE
8
Calque 1
10
18.169400
20
2701.380000
11
16.814637
21
2698.860000
0
LINE
8
Calque 1
10
16.814637
20
2698.860000
11
15.812000
21
2696.820000
0
LINE
8
Calque 1
10
15.812000
20
2696.820000
11
15.526475
21
2695.646250
0
LINE
8
Calque 1
10
15.526475
20
2695.646250
11
15.327200
21
2694.060000
0
LINE
8
Calque 1
10
15.327200
20
2694.060000
11
14.865175
21
2691.043750
0
LINE
8
Calque 1
10
14.865175
20
2691.043750
11
14.200200
21
2687.870000
0
LINE
8
Calque 1
10
14.200200
20
2687.870000
11
13.049800
21
2683.750000
0
LINE
8
Calque 1
10
13.049800
20
2683.750000
11
12.021075
21
2677.913750
0
LINE
8
Calque 1
10
12.021075
20
2677.913750
11
11.298500
21
2671.950000
0
LINE
8
Calque 1
10
11.298500
20
2671.950000
11
10.966387
21
2670.078750
0
LINE
8
Calque 1
10
10.966387
20
2670.078750
11
10.632400
21
2668.650000
0
LINE
8
Calque 1
10
10.632400
20
2668.650000
11
10.572500
21
2667.990000
0
LINE
8
Calque 1
10
10.572500
20
2667.990000
11
17.612200
21
2668.248750
0
LINE
8
Calque 1
10
17.612200
20
2668.248750
11
24.714300
21
2668.350000
0
LINE
8
Calque 1
10
24.714300
20
2668.350000
11
24.778300
21
2668.350000
0
LINE
8
Calque 1
10
24.778300
20
2668.350000
11
35.060450
21
2667.917500
0
LINE
8
Calque 1
10
35.060450
20
2667.917500
11
45.302100
21
2667.380000
0
LINE
8
Calque 1
10
45.302100
20
2667.380000
11
45.312000
21
2667.380000
0
LINE
8
Calque 1
10
45.312000
20
2667.380000
11
55.835900
21
2666.820000
0
LINE
8
Calque 1
10
55.835900
20
2666.820000
11
55.845700
21
2666.820000
0
LINE
8
Calque 1
10
55.845700
20
2666.820000
11
66.741412
21
2666.518750
0
LINE
8
Calque 1
10
66.741412
20
2666.518750
11
77.705900
21
2666.420000
0
LINE
8
Calque 1
10
77.705900
20
2666.420000
11
77.754900
21
2666.420000
0
LINE
8
Calque 1
10
77.754900
20
2666.420000
11
82.139238
21
2666.560000
0
LINE
8
Calque 1
10
82.139238
20
2666.560000
11
86.481500
21
2667.210000
0
LINE
8
Calque 1
10
86.481500
20
2667.210000
11
89.834208
21
2668.057344
0
LINE
8
Calque 1
10
89.834208
20
2668.057344
11
93.142638
21
2669.113750
0
LINE
8
Calque 1
10
93.142638
20
2669.113750
11
96.402748
21
2670.355781
0
LINE
8
Calque 1
10
96.402748
20
2670.355781
11
99.610500
21
2671.760000
0
LINE
8
Calque 1
10
99.610500
20
2671.760000
11
99.669900
21
2671.790000
0
LINE
8
Calque 1
10
99.669900
20
2671.790000
11
102.202987
21
2673.030000
0
LINE
8
Calque 1
10
102.202987
20
2673.030000
11
104.568000
21
2674.510000
0
LINE
8
Calque 1
10
104.568000
20
2674.510000
11
108.291375
21
2677.061250
0
LINE
8
Calque 1
10
108.291375
20
2677.061250
11
112.224000
21
2679.350000
0
LINE
8
Calque 1
10
112.224000
20
2679.350000
11
116.767375
21
2681.550000
0
LINE
8
Calque 1
10
116.767375
20
2681.550000
11
121.157000
21
2683.510000
0
LINE
8
Calque 1
10
121.157000
20
2683.510000
11
121.218000
21
2683.540000
0
LINE
8
Calque 1
10
121.218000
20
2683.540000
11
123.682500
21
2684.847500
0
LINE
8
Calque 1
10
123.682500
20
2684.847500
11
126.132000
21
2686.500000
0
LINE
8
Calque 1
10
126.132000
20
2686.500000
11
126.099000
21
2686.470000
0
LINE
8
Calque 1
10
126.099000
20
2686.470000
11
128.766500
21
2688.295781
0
LINE
8
Calque 1
10
128.766500
20
2688.295781
11
131.590000
21
2689.886250
0
LINE
8
Calque 1
10
131.590000
20
2689.886250
11
134.554500
21
2691.216094
0
LINE
8
Calque 1
10
134.554500
20
2691.216094
11
137.645000
21
2692.260000
0
LINE
8
Calque 1
10
137.645000
20
2692.260000
11
137.702000
21
2692.270000
0
LINE
8
Calque 1
10
137.702000
20
2692.270000
11
145.576125
21
2694.028750
0
LINE
8
Calque 1
10
145.576125
20
2694.028750
11
149.573141
21
2694.690156
0
LINE
8
Calque 1
10
149.573141
20
2694.690156
11
153.607000
21
2695.180000
0
LINE
8
Calque 1
10
153.607000
20
2695.180000
11
153.686000
21
2695.190000
0
LINE
8
Calque 1
10
153.686000
20
2695.190000
11
164.432219
21
2695.761562
0
LINE
8
Calque 1
10
164.432219
20
2695.761562
11
175.167000
21
2696.140000
0
LINE
8
Calque 1
10
175.167000
20
2696.140000
11
196.585000
21
2696.670000
0
LINE
8
Calque 1
10
196.585000
20
2696.670000
11
202.516375
21
2696.670000
0
LINE
8
Calque 1
10
202.516375
20
2696.670000
11
208.354000
21
2696.250000
0
LINE
8
Calque 1
10
208.354000
20
2696.250000
11
208.390000
21
2696.250000
0
LINE
8
Calque 1
10
208.390000
20
2696.250000
11
211.737578
21
2696.038125
0
LINE
8
Calque 1
10
211.737578
20
2696.038125
11
215.160625
21
2696.085000
0
LINE
8
Calque 1
10
215.160625
20
2696.085000
11
222.214000
21
2696.550000
0
LINE
8
Calque 1
10
222.214000
20
2696.550000
11
224.561953
21
2696.700156
0
LINE
8
Calque 1
10
224.561953
20
2696.700156
11
226.857125
21
2696.693750
0
LINE
8
Calque 1
10
226.857125
20
2696.693750
11
231.273000
21
2696.440000
0
LINE
8
Calque 1
10
231.273000
20
2696.440000
11
231.306000
21
2696.440000
0
LINE
8
Calque 1
10
231.306000
20
2696.440000
11
234.292000
21
2696.302500
0
LINE
8
Calque 1
10
234.292000
20
2696.302500
11
237.206000
21
2696.390000
0
LINE
8
Calque 1
10
237.206000
20
2696.390000
11
236.802000
21
2700.600000
0
LINE
8
Calque 1
10
236.802000
20
2700.600000
11
236.298000
21
2704.370000
0
LINE
8
Calque 1
10
236.298000
20
2704.370000
11
236.170000
21
2705.010000
0
LINE
8
Calque 1
10
236.170000
20
2705.010000
11
236.170000
21
2705.010000
0
LINE
8
Calque 1
10
236.170000
20
2705.010000
11
236.115000
21
2705.860000
0
LINE
8
Calque 1
10
236.115000
20
2705.860000
11
235.735000
21
2708.110000
0
LINE
8
Calque 1
10
235.735000
20
2708.110000
11
235.105000
21
2712.480000
0
LINE
8
Calque 1
10
235.105000
20
2712.480000
11
234.743000
21
2715.190000
0
LINE
8
Calque 1
10
234.743000
20
2715.190000
11
234.227000
21
2717.240000
0
LINE
8
Calque 1
10
234.227000
20
2717.240000
11
233.341000
21
2720.870000
0
LINE
8
Calque 1
10
233.341000
20
2720.870000
11
233.158000
21
2721.770000
0
LINE
8
Calque 1
10
233.158000
20
2721.770000
11
232.810000
21
2722.810000
0
LINE
8
Calque 1
10
232.810000
20
2722.810000
11
232.514000
21
2724.220000
0
LINE
8
Calque 1
10
232.514000
20
2724.220000
11
232.255000
21
2724.960000
0
LINE
8
Calque 1
10
232.255000
20
2724.960000
11
231.953000
21
2726.030000
0
LINE
8
Calque 1
10
231.953000
20
2726.030000
11
231.785000
21
2726.630000
0
LINE
8
Calque 1
10
231.785000
20
2726.630000
11
231.303000
21
2727.310000
0
LINE
8
Calque 1
10
231.303000
20
2727.310000
11
230.679000
21
2728.610000
0
LINE
8
Calque 1
10
230.679000
20
2728.610000
11
230.231000
21
2729.530000
0
LINE
8
Calque 1
10
230.231000
20
2729.530000
11
229.957000
21
2730.340000
0
LINE
8
Calque 1
10
229.957000
20
2730.340000
11
229.855000
21
2730.450000
0
LINE
8
Calque 1
10
229.855000
20
2730.450000
11
228.624000
21
2730.840000
0
LINE
8
Calque 1
10
228.624000
20
2730.840000
11
228.040500
21
2731.255000
0
LINE
8
Calque 1
10
228.040500
20
2731.255000
11
227.529000
21
2731.820000
0
LINE
8
Calque 1
10
227.529000
20
2731.820000
11
227.581000
21
2731.800000
0
LINE
8
Calque 1
10
227.581000
20
2731.800000
11
227.517000
21
2731.830000
0
LINE
8
Calque 1
10
227.517000
20
2731.830000
11
227.463000
21
2731.900000
0
LINE
8
Calque 1
10
227.463000
20
2731.900000
11
226.761000
21
2732.250000
0
LINE
8
Calque 1
10
226.761000
20
2732.250000
11
225.112000
21
2734.010000
0
LINE
8
Calque 1
10
225.112000
20
2734.010000
11
224.165000
21
2734.020000
0
LINE
8
Calque 1
10
224.165000
20
2734.020000
11
218.399000
21
2734.030000
0
LINE
8
Calque 1
10
218.399000
20
2734.030000
11
197.855000
21
2734.060000
0
LINE
8
Calque 1
10
197.855000
20
2734.060000
11
135.583000
21
2734.120000
0
LINE
8
Calque 1
10
135.583000
20
2734.120000
11
73.327800
21
2734.150000
0
LINE
8
Calque 1
10
73.327800
20
2734.150000
11
73.327800
21
2734.150000
0
LINE
8
Calque 1
10
10.572500
20
2667.990000
11
10.568300
21
2667.990000
0
LINE
8
Calque 1
10
10.568300
20
2667.990000
11
10.572500
21
2667.990000
0
LINE
8
Calque 1
10
10.572500
20
2667.990000
11
10.572500
21
2667.990000
0
LINE
8
Calque 1
10
10.572500
20
2667.990000
11
10.572500
21
2667.990000
0
LINE
8
Calque 1
10
222.008000
20
2659.530000
11
218.652500
21
2659.497500
0
LINE
8
Calque 1
10
218.652500
20
2659.497500
11
215.249000
21
2659.300000
0
LINE
8
Calque 1
10
215.249000
20
2659.300000
11
209.593219
21
2658.995156
0
LINE
8
Calque 1
10
209.593219
20
2658.995156
11
204.023500
21
2658.998750
0
LINE
8
Calque 1
10
204.023500
20
2658.998750
11
198.545281
21
2659.090469
0
LINE
8
Calque 1
10
198.545281
20
2659.090469
11
193.164000
21
2659.050000
0
LINE
8
Calque 1
10
193.164000
20
2659.050000
11
168.941000
21
2657.690000
0
LINE
8
Calque 1
10
168.941000
20
2657.690000
11
168.931000
21
2657.690000
0
LINE
8
Calque 1
10
168.931000
20
2657.690000
11
168.912000
21
2657.690000
0
LINE
8
Calque 1
10
168.912000
20
2657.690000
11
162.424000
21
2657.397500
0
LINE
8
Calque 1
10
162.424000
20
2657.397500
11
156.077000
21
2657.030000
0
LINE
8
Calque 1
10
156.077000
20
2657.030000
11
150.676594
21
2656.150156
0
LINE
8
Calque 1
10
150.676594
20
2656.150156
11
145.338250
21
2654.896250
0
LINE
8
Calque 1
10
145.338250
20
2654.896250
11
140.077531
21
2653.299219
0
LINE
8
Calque 1
10
140.077531
20
2653.299219
11
134.910000
21
2651.390000
0
LINE
8
Calque 1
10
134.910000
20
2651.390000
11
134.888000
21
2651.380000
0
LINE
8
Calque 1
10
134.888000
20
2651.380000
11
131.750000
21
2650.055000
0
LINE
8
Calque 1
10
131.750000
20
2650.055000
11
128.690000
21
2648.550000
0
LINE
8
Calque 1
10
128.690000
20
2648.550000
11
119.868125
21
2643.600000
0
LINE
8
Calque 1
10
119.868125
20
2643.600000
11
115.397141
21
2641.077188
0
LINE
8
Calque 1
10
115.397141
20
2641.077188
11
110.816000
21
2638.650000
0
LINE
8
Calque 1
10
110.816000
20
2638.650000
11
110.806000
21
2638.650000
0
LINE
8
Calque 1
10
110.806000
20
2638.650000
11
105.925625
21
2636.361250
0
LINE
8
Calque 1
10
105.925625
20
2636.361250
11
101.058000
21
2634.260000
0
LINE
8
Calque 1
10
101.058000
20
2634.260000
11
101.048000
21
2634.250000
0
LINE
8
Calque 1
10
101.048000
20
2634.250000
11
90.603300
21
2629.850000
0
LINE
8
Calque 1
10
90.603300
20
2629.850000
11
87.781888
21
2628.850000
0
LINE
8
Calque 1
10
87.781888
20
2628.850000
11
84.959200
21
2628.210000
0
LINE
8
Calque 1
10
84.959200
20
2628.210000
11
84.939000
21
2628.210000
0
LINE
8
Calque 1
10
84.939000
20
2628.210000
11
78.638100
21
2627.143750
0
LINE
8
Calque 1
10
78.638100
20
2627.143750
11
72.259200
21
2626.160000
0
LINE
8
Calque 1
10
72.259200
20
2626.160000
11
72.073600
21
2626.150000
0
LINE
8
Calque 1
10
72.073600
20
2626.150000
11
69.891175
21
2626.142500
0
LINE
8
Calque 1
10
69.891175
20
2626.142500
11
67.885300
21
2626.270000
0
LINE
8
Calque 1
10
67.885300
20
2626.270000
11
67.854300
21
2626.280000
0
LINE
8
Calque 1
10
67.854300
20
2626.280000
11
57.453025
21
2627.246250
0
LINE
8
Calque 1
10
57.453025
20
2627.246250
11
47.150600
21
2627.980000
0
LINE
8
Calque 1
10
47.150600
20
2627.980000
11
43.095875
21
2628.140000
0
LINE
8
Calque 1
10
43.095875
20
2628.140000
11
39.224000
21
2628.210000
0
LINE
8
Calque 1
10
39.224000
20
2628.210000
11
34.250600
21
2627.720000
0
LINE
8
Calque 1
10
34.250600
20
2627.720000
11
31.863650
21
2627.590000
0
LINE
8
Calque 1
10
31.863650
20
2627.590000
11
29.616800
21
2627.610000
0
LINE
8
Calque 1
10
29.616800
20
2627.610000
11
19.168300
21
2628.070000
0
LINE
8
Calque 1
10
19.168300
20
2628.070000
11
19.204000
21
2628.000000
0
LINE
8
Calque 1
10
19.204000
20
2628.000000
11
19.802900
21
2626.760000
0
LINE
8
Calque 1
10
19.802900
20
2626.760000
11
20.731600
21
2625.300000
0
LINE
8
Calque 1
10
20.731600
20
2625.300000
11
22.199200
21
2622.530000
0
LINE
8
Calque 1
10
22.199200
20
2622.530000
11
22.966000
21
2620.580000
0
LINE
8
Calque 1
10
22.966000
20
2620.580000
11
23.771200
21
2619.370000
0
LINE
8
Calque 1
10
23.771200
20
2619.370000
11
24.662100
21
2617.810000
0
LINE
8
Calque 1
10
24.662100
20
2617.810000
11
25.427900
21
2616.560000
0
LINE
8
Calque 1
10
25.427900
20
2616.560000
11
26.593938
21
2614.838750
0
LINE
8
Calque 1
10
26.593938
20
2614.838750
11
27.863400
21
2613.380000
0
LINE
8
Calque 1
10
27.863400
20
2613.380000
11
30.167900
21
2611.102500
0
LINE
8
Calque 1
10
30.167900
20
2611.102500
11
32.662600
21
2608.510000
0
LINE
8
Calque 1
10
32.662600
20
2608.510000
11
34.782525
21
2605.738750
0
LINE
8
Calque 1
10
34.782525
20
2605.738750
11
36.608600
21
2603.380000
0
LINE
8
Calque 1
10
36.608600
20
2603.380000
11
38.048395
21
2601.919844
0
LINE
8
Calque 1
10
38.048395
20
2601.919844
11
39.583188
21
2600.586250
0
LINE
8
Calque 1
10
39.583188
20
2600.586250
11
42.905400
21
2598.220000
0
LINE
8
Calque 1
10
42.905400
20
2598.220000
11
43.064600
21
2598.380000
0
LINE
8
Calque 1
10
43.064600
20
2598.380000
11
43.709437
21
2598.648750
0
LINE
8
Calque 1
10
43.709437
20
2598.648750
11
43.884700
21
2598.640000
0
LINE
8
Calque 1
10
43.884700
20
2598.640000
11
44.155400
21
2598.670000
0
LINE
8
Calque 1
10
44.155400
20
2598.670000
11
44.689300
21
2598.710000
0
LINE
8
Calque 1
10
44.689300
20
2598.710000
11
46.355800
21
2598.760000
0
LINE
8
Calque 1
10
46.355800
20
2598.760000
11
52.316700
21
2598.870000
0
LINE
8
Calque 1
10
52.316700
20
2598.870000
11
73.165000
21
2599.090000
0
LINE
8
Calque 1
10
73.165000
20
2599.090000
11
135.916000
21
2599.510000
0
LINE
8
Calque 1
10
135.916000
20
2599.510000
11
198.546000
21
2599.950000
0
LINE
8
Calque 1
10
198.546000
20
2599.950000
11
219.226000
21
2600.190000
0
LINE
8
Calque 1
10
219.226000
20
2600.190000
11
225.033000
21
2600.310000
0
LINE
8
Calque 1
10
225.033000
20
2600.310000
11
225.726000
21
2600.330000
0
LINE
8
Calque 1
10
225.726000
20
2600.330000
11
226.261000
21
2601.480000
0
LINE
8
Calque 1
10
226.261000
20
2601.480000
11
227.005000
21
2603.847500
0
LINE
8
Calque 1
10
227.005000
20
2603.847500
11
227.851000
21
2606.710000
0
LINE
8
Calque 1
10
227.851000
20
2606.710000
11
228.513000
21
2608.610000
0
LINE
8
Calque 1
10
228.513000
20
2608.610000
11
229.945000
21
2613.710000
0
LINE
8
Calque 1
10
229.945000
20
2613.710000
11
231.173000
21
2617.840000
0
LINE
8
Calque 1
10
231.173000
20
2617.840000
11
231.422000
21
2618.580000
0
LINE
8
Calque 1
10
231.422000
20
2618.580000
11
231.881000
21
2621.390000
0
LINE
8
Calque 1
10
231.881000
20
2621.390000
11
232.462000
21
2623.480000
0
LINE
8
Calque 1
10
232.462000
20
2623.480000
11
232.694000
21
2624.480000
0
LINE
8
Calque 1
10
232.694000
20
2624.480000
11
233.035000
21
2625.700000
0
LINE
8
Calque 1
10
233.035000
20
2625.700000
11
233.112000
21
2625.900000
0
LINE
8
Calque 1
10
233.112000
20
2625.900000
11
233.225000
21
2626.120000
0
LINE
8
Calque 1
10
233.225000
20
2626.120000
11
233.644000
21
2627.690000
0
LINE
8
Calque 1
10
233.644000
20
2627.690000
11
234.202000
21
2630.340000
0
LINE
8
Calque 1
10
234.202000
20
2630.340000
11
234.952000
21
2632.800000
0
LINE
8
Calque 1
10
234.952000
20
2632.800000
11
235.297000
21
2636.460000
0
LINE
8
Calque 1
10
235.297000
20
2636.460000
11
235.650000
21
2638.490000
0
LINE
8
Calque 1
10
235.650000
20
2638.490000
11
236.166000
21
2642.340000
0
LINE
8
Calque 1
10
236.166000
20
2642.340000
11
236.423000
21
2644.210000
0
LINE
8
Calque 1
10
236.423000
20
2644.210000
11
236.510125
21
2646.945000
0
LINE
8
Calque 1
10
236.510125
20
2646.945000
11
236.544000
21
2649.950000
0
LINE
8
Calque 1
10
236.544000
20
2649.950000
11
236.707625
21
2651.827500
0
LINE
8
Calque 1
10
236.707625
20
2651.827500
11
236.911000
21
2653.390000
0
LINE
8
Calque 1
10
236.911000
20
2653.390000
11
237.090000
21
2657.490000
0
LINE
8
Calque 1
10
237.090000
20
2657.490000
11
237.144000
21
2658.530000
0
LINE
8
Calque 1
10
237.144000
20
2658.530000
11
234.193000
21
2658.510000
0
LINE
8
Calque 1
10
234.193000
20
2658.510000
11
234.060000
21
2658.530000
0
LINE
8
Calque 1
10
234.060000
20
2658.530000
11
229.178250
21
2659.096250
0
LINE
8
Calque 1
10
229.178250
20
2659.096250
11
224.289000
21
2659.430000
0
LINE
8
Calque 1
10
224.289000
20
2659.430000
11
224.215000
21
2659.430000
0
LINE
8
Calque 1
10
224.215000
20
2659.430000
11
222.008000
21
2659.530000
0
LINE
8
Calque 1
10
222.008000
20
2659.530000
11
222.008000
21
2659.530000
0
LINE
8
Calque 1
10
44.922300
20
2473.160000
11
41.984500
21
2471.770000
0
LINE
8
Calque 1
10
41.984500
20
2471.770000
11
41.892875
21
2471.663750
0
LINE
8
Calque 1
10
41.892875
20
2471.663750
11
41.234700
21
2471.160000
0
LINE
8
Calque 1
10
41.234700
20
2471.160000
11
39.383725
21
2469.862500
0
LINE
8
Calque 1
10
39.383725
20
2469.862500
11
37.860200
21
2468.640000
0
LINE
8
Calque 1
10
37.860200
20
2468.640000
11
36.027037
21
2466.548750
0
LINE
8
Calque 1
10
36.027037
20
2466.548750
11
34.189600
21
2464.090000
0
LINE
8
Calque 1
10
34.189600
20
2464.090000
11
31.277200
21
2460.050000
0
LINE
8
Calque 1
10
31.277200
20
2460.050000
11
29.855500
21
2457.800000
0
LINE
8
Calque 1
10
29.855500
20
2457.800000
11
27.511000
21
2454.892500
0
LINE
8
Calque 1
10
27.511000
20
2454.892500
11
25.216000
21
2452.390000
0
LINE
8
Calque 1
10
25.216000
20
2452.390000
11
24.178400
21
2451.250000
0
LINE
8
Calque 1
10
24.178400
20
2451.250000
11
24.211633
21
2451.258281
0
LINE
8
Calque 1
10
24.211633
20
2451.258281
11
24.098737
21
2451.008750
0
LINE
8
Calque 1
10
24.098737
20
2451.008750
11
23.720500
21
2450.250000
0
LINE
8
Calque 1
10
23.720500
20
2450.250000
11
23.708600
21
2450.070000
0
LINE
8
Calque 1
10
23.708600
20
2450.070000
11
23.632700
21
2449.780000
0
LINE
8
Calque 1
10
23.632700
20
2449.780000
11
23.262100
21
2448.840000
0
LINE
8
Calque 1
10
23.262100
20
2448.840000
11
22.539487
21
2447.258750
0
LINE
8
Calque 1
10
22.539487
20
2447.258750
11
21.731000
21
2445.760000
0
LINE
8
Calque 1
10
21.731000
20
2445.760000
11
21.140800
21
2444.690000
0
LINE
8
Calque 1
10
21.140800
20
2444.690000
11
20.839000
21
2443.070000
0
LINE
8
Calque 1
10
20.839000
20
2443.070000
11
19.995150
21
2439.341250
0
LINE
8
Calque 1
10
19.995150
20
2439.341250
11
18.908900
21
2435.530000
0
LINE
8
Calque 1
10
18.908900
20
2435.530000
11
18.216187
21
2433.643750
0
LINE
8
Calque 1
10
18.216187
20
2433.643750
11
17.710000
21
2432.080000
0
LINE
8
Calque 1
10
17.710000
20
2432.080000
11
17.483438
21
2430.661250
0
LINE
8
Calque 1
10
17.483438
20
2430.661250
11
17.091500
21
2428.680000
0
LINE
8
Calque 1
10
17.091500
20
2428.680000
11
16.050738
21
2425.378750
0
LINE
8
Calque 1
10
16.050738
20
2425.378750
11
15.207300
21
2422.490000
0
LINE
8
Calque 1
10
15.207300
20
2422.490000
11
15.051300
21
2419.900000
0
LINE
8
Calque 1
10
15.051300
20
2419.900000
11
14.711200
21
2416.810000
0
LINE
8
Calque 1
10
14.711200
20
2416.810000
11
14.194000
21
2413.960000
0
LINE
8
Calque 1
10
14.194000
20
2413.960000
11
13.214200
21
2407.310000
0
LINE
8
Calque 1
10
13.214200
20
2407.310000
11
12.882400
21
2405.700000
0
LINE
8
Calque 1
10
12.882400
20
2405.700000
11
12.689775
21
2404.672500
0
LINE
8
Calque 1
10
12.689775
20
2404.672500
11
12.611600
21
2404.260000
0
LINE
8
Calque 1
10
12.611600
20
2404.260000
11
12.601300
21
2403.320000
0
LINE
8
Calque 1
10
12.601300
20
2403.320000
11
12.612100
21
2403.320000
0
LINE
8
Calque 1
10
12.612100
20
2403.320000
11
13.053500
21
2400.680000
0
LINE
8
Calque 1
10
13.053500
20
2400.680000
11
13.076200
21
2400.680000
0
LINE
8
Calque 1
10
13.076200
20
2400.680000
11
13.242100
21
2400.660000
0
LINE
8
Calque 1
10
13.242100
20
2400.660000
11
14.932513
21
2400.653750
0
LINE
8
Calque 1
10
14.932513
20
2400.653750
11
17.455800
21
2400.520000
0
LINE
8
Calque 1
10
17.455800
20
2400.520000
11
17.716200
21
2400.470000
0
LINE
8
Calque 1
10
17.716200
20
2400.470000
11
19.551287
21
2399.946250
0
LINE
8
Calque 1
10
19.551287
20
2399.946250
11
20.972900
21
2399.640000
0
LINE
8
Calque 1
10
20.972900
20
2399.640000
11
20.983700
21
2399.640000
0
LINE
8
Calque 1
10
20.983700
20
2399.640000
11
22.263905
21
2399.640781
0
LINE
8
Calque 1
10
22.263905
20
2399.640781
11
23.704263
21
2399.803750
0
LINE
8
Calque 1
10
23.704263
20
2399.803750
11
27.105300
21
2400.230000
0
LINE
8
Calque 1
10
27.105300
20
2400.230000
11
27.161100
21
2400.230000
0
LINE
8
Calque 1
10
27.161100
20
2400.230000
11
32.032200
21
2400.450000
0
LINE
8
Calque 1
10
32.032200
20
2400.450000
11
32.082300
21
2400.460000
0
LINE
8
Calque 1
10
32.082300
20
2400.460000
11
34.617838
21
2400.700000
0
LINE
8
Calque 1
10
34.617838
20
2400.700000
11
37.494400
21
2400.880000
0
LINE
8
Calque 1
10
37.494400
20
2400.880000
11
37.584300
21
2400.880000
0
LINE
8
Calque 1
10
37.584300
20
2400.880000
11
41.895600
21
2400.580000
0
LINE
8
Calque 1
10
41.895600
20
2400.580000
11
43.867750
21
2400.238750
0
LINE
8
Calque 1
10
43.867750
20
2400.238750
11
45.266000
21
2399.920000
0
LINE
8
Calque 1
10
45.266000
20
2399.920000
11
47.788300
21
2399.840000
0
LINE
8
Calque 1
10
47.788300
20
2399.840000
11
47.883400
21
2399.840000
0
LINE
8
Calque 1
10
47.883400
20
2399.840000
11
49.307588
21
2399.967500
0
LINE
8
Calque 1
10
49.307588
20
2399.967500
11
51.380300
21
2400.230000
0
LINE
8
Calque 1
10
51.380300
20
2400.230000
11
51.505900
21
2400.230000
0
LINE
8
Calque 1
10
51.505900
20
2400.230000
11
55.752700
21
2400.290000
0
LINE
8
Calque 1
10
55.752700
20
2400.290000
11
57.485300
21
2400.168750
0
LINE
8
Calque 1
10
57.485300
20
2400.168750
11
58.910100
21
2399.980000
0
LINE
8
Calque 1
10
58.910100
20
2399.980000
11
58.932800
21
2399.980000
0
LINE
8
Calque 1
10
58.932800
20
2399.980000
11
60.439453
21
2399.918437
0
LINE
8
Calque 1
10
60.439453
20
2399.918437
11
62.104750
21
2400.005000
0
LINE
8
Calque 1
10
62.104750
20
2400.005000
11
65.924700
21
2400.180000
0
LINE
8
Calque 1
10
65.924700
20
2400.180000
11
66.003700
21
2400.170000
0
LINE
8
Calque 1
10
66.003700
20
2400.170000
11
72.724200
21
2399.590000
0
LINE
8
Calque 1
10
72.724200
20
2399.590000
11
76.470850
21
2399.345000
0
LINE
8
Calque 1
10
76.470850
20
2399.345000
11
80.152700
21
2399.220000
0
LINE
8
Calque 1
10
80.152700
20
2399.220000
11
80.222000
21
2399.220000
0
LINE
8
Calque 1
10
80.222000
20
2399.220000
11
81.885000
21
2399.256250
0
LINE
8
Calque 1
10
81.885000
20
2399.256250
11
83.538100
21
2399.480000
0
LINE
8
Calque 1
10
83.538100
20
2399.480000
11
86.902550
21
2400.312500
0
LINE
8
Calque 1
10
86.902550
20
2400.312500
11
90.135600
21
2401.460000
0
LINE
8
Calque 1
10
90.135600
20
2401.460000
11
90.135600
21
2401.460000
0
LINE
8
Calque 1
10
90.135600
20
2401.460000
11
97.750600
21
2404.740000
0
LINE
8
Calque 1
10
97.750600
20
2404.740000
11
97.787800
21
2404.760000
0
LINE
8
Calque 1
10
97.787800
20
2404.760000
11
100.252166
21
2405.851719
0
LINE
8
Calque 1
10
100.252166
20
2405.851719
11
102.762975
21
2407.111250
0
LINE
8
Calque 1
10
102.762975
20
2407.111250
11
105.377247
21
2408.417656
0
LINE
8
Calque 1
10
105.377247
20
2408.417656
11
108.152000
21
2409.650000
0
LINE
8
Calque 1
10
108.152000
20
2409.650000
11
108.228000
21
2409.680000
0
LINE
8
Calque 1
10
108.228000
20
2409.680000
11
109.957125
21
2410.416250
0
LINE
8
Calque 1
10
109.957125
20
2410.416250
11
111.741000
21
2411.340000
0
LINE
8
Calque 1
10
111.741000
20
2411.340000
11
111.780000
21
2411.360000
0
LINE
8
Calque 1
10
111.780000
20
2411.360000
11
114.423875
21
2412.828750
0
LINE
8
Calque 1
10
114.423875
20
2412.828750
11
116.857000
21
2414.440000
0
LINE
8
Calque 1
10
116.857000
20
2414.440000
11
116.817000
21
2414.400000
0
LINE
8
Calque 1
10
116.817000
20
2414.400000
11
119.525750
21
2416.326250
0
LINE
8
Calque 1
10
119.525750
20
2416.326250
11
122.389000
21
2418.020000
0
LINE
8
Calque 1
10
122.389000
20
2418.020000
11
122.409000
21
2418.030000
0
LINE
8
Calque 1
10
122.409000
20
2418.030000
11
133.875000
21
2424.370000
0
LINE
8
Calque 1
10
133.875000
20
2424.370000
11
135.963500
21
2425.522500
0
LINE
8
Calque 1
10
135.963500
20
2425.522500
11
138.178000
21
2426.540000
0
LINE
8
Calque 1
10
138.178000
20
2426.540000
11
138.202000
21
2426.550000
0
LINE
8
Calque 1
10
138.202000
20
2426.550000
11
141.594625
21
2427.731250
0
LINE
8
Calque 1
10
141.594625
20
2427.731250
11
145.081000
21
2428.620000
0
LINE
8
Calque 1
10
145.081000
20
2428.620000
11
145.108000
21
2428.630000
0
LINE
8
Calque 1
10
145.108000
20
2428.630000
11
148.553375
21
2429.182500
0
LINE
8
Calque 1
10
148.553375
20
2429.182500
11
151.947000
21
2429.540000
0
LINE
8
Calque 1
10
151.947000
20
2429.540000
11
155.976125
21
2429.816250
0
LINE
8
Calque 1
10
155.976125
20
2429.816250
11
160.030000
21
2429.890000
0
LINE
8
Calque 1
10
160.030000
20
2429.890000
11
163.601750
21
2429.875000
0
LINE
8
Calque 1
10
163.601750
20
2429.875000
11
166.806000
21
2430.070000
0
LINE
8
Calque 1
10
166.806000
20
2430.070000
11
166.711000
21
2430.050000
0
LINE
8
Calque 1
10
166.711000
20
2430.050000
11
166.812000
21
2430.070000
0
LINE
8
Calque 1
10
166.812000
20
2430.070000
11
169.525625
21
2430.471250
0
LINE
8
Calque 1
10
169.525625
20
2430.471250
11
172.273000
21
2430.640000
0
LINE
8
Calque 1
10
172.273000
20
2430.640000
11
172.302000
21
2430.640000
0
LINE
8
Calque 1
10
172.302000
20
2430.640000
11
181.593000
21
2430.800000
0
LINE
8
Calque 1
10
181.593000
20
2430.800000
11
181.602000
21
2430.800000
0
LINE
8
Calque 1
10
181.602000
20
2430.800000
11
190.152000
21
2430.880000
0
LINE
8
Calque 1
10
190.152000
20
2430.880000
11
190.171000
21
2430.880000
0
LINE
8
Calque 1
10
190.171000
20
2430.880000
11
206.382000
21
2430.080000
0
LINE
8
Calque 1
10
206.382000
20
2430.080000
11
206.434000
21
2430.070000
0
LINE
8
Calque 1
10
206.434000
20
2430.070000
11
209.959125
21
2429.951250
0
LINE
8
Calque 1
10
209.959125
20
2429.951250
11
213.671000
21
2429.960000
0
LINE
8
Calque 1
10
213.671000
20
2429.960000
11
213.695000
21
2429.960000
0
LINE
8
Calque 1
10
213.695000
20
2429.960000
11
221.057250
21
2429.607500
0
LINE
8
Calque 1
10
221.057250
20
2429.607500
11
228.208000
21
2429.210000
0
LINE
8
Calque 1
10
228.208000
20
2429.210000
11
228.280000
21
2429.200000
0
LINE
8
Calque 1
10
228.280000
20
2429.200000
11
230.091625
21
2429.185000
0
LINE
8
Calque 1
10
230.091625
20
2429.185000
11
231.823000
21
2429.380000
0
LINE
8
Calque 1
10
231.823000
20
2429.380000
11
231.841000
21
2429.390000
0
LINE
8
Calque 1
10
231.841000
20
2429.390000
11
234.761750
21
2429.783750
0
LINE
8
Calque 1
10
234.761750
20
2429.783750
11
237.648000
21
2429.990000
0
LINE
8
Calque 1
10
237.648000
20
2429.990000
11
237.380000
21
2431.490000
0
LINE
8
Calque 1
10
237.380000
20
2431.490000
11
237.044000
21
2434.260000
0
LINE
8
Calque 1
10
237.044000
20
2434.260000
11
236.332000
21
2438.360000
0
LINE
8
Calque 1
10
236.332000
20
2438.360000
11
234.868000
21
2447.720000
0
LINE
8
Calque 1
10
234.868000
20
2447.720000
11
234.066125
21
2451.027500
0
LINE
8
Calque 1
10
234.066125
20
2451.027500
11
233.082000
21
2454.410000
0
LINE
8
Calque 1
10
233.082000
20
2454.410000
11
231.669000
21
2459.440000
0
LINE
8
Calque 1
10
231.669000
20
2459.440000
11
231.207500
21
2460.565000
0
LINE
8
Calque 1
10
231.207500
20
2460.565000
11
230.530000
21
2461.780000
0
LINE
8
Calque 1
10
230.530000
20
2461.780000
11
229.102750
21
2464.682500
0
LINE
8
Calque 1
10
229.102750
20
2464.682500
11
227.776000
21
2467.180000
0
LINE
8
Calque 1
10
227.776000
20
2467.180000
11
227.211000
21
2468.040000
0
LINE
8
Calque 1
10
227.211000
20
2468.040000
11
226.977000
21
2468.280000
0
LINE
8
Calque 1
10
226.977000
20
2468.280000
11
226.404000
21
2469.240000
0
LINE
8
Calque 1
10
226.404000
20
2469.240000
11
225.730000
21
2470.930000
0
LINE
8
Calque 1
10
225.730000
20
2470.930000
11
44.922300
21
2473.160000
0
LINE
8
Calque 1
10
44.922300
20
2473.160000
11
44.922300
21
2473.160000
0
LINE
8
Calque 1
10
169.812000
20
2393.390000
11
167.170031
21
2392.811562
0
LINE
8
Calque 1
10
167.170031
20
2392.811562
11
164.568000
21
2392.377500
0
LINE
8
Calque 1
10
164.568000
20
2392.377500
11
159.549000
21
2391.650000
0
LINE
8
Calque 1
10
159.549000
20
2391.650000
11
159.478000
21
2391.640000
0
LINE
8
Calque 1
10
159.478000
20
2391.640000
11
157.139000
21
2391.195000
0
LINE
8
Calque 1
10
157.139000
20
2391.195000
11
154.761000
21
2390.510000
0
LINE
8
Calque 1
10
154.761000
20
2390.510000
11
154.716000
21
2390.500000
0
LINE
8
Calque 1
10
154.716000
20
2390.500000
11
151.564000
21
2389.470000
0
LINE
8
Calque 1
10
151.564000
20
2389.470000
11
148.849875
21
2388.955000
0
LINE
8
Calque 1
10
148.849875
20
2388.955000
11
146.675000
21
2388.650000
0
LINE
8
Calque 1
10
146.675000
20
2388.650000
11
146.656000
21
2388.640000
0
LINE
8
Calque 1
10
146.656000
20
2388.640000
11
145.487187
21
2388.280000
0
LINE
8
Calque 1
10
145.487187
20
2388.280000
11
144.192000
21
2387.732500
0
LINE
8
Calque 1
10
144.192000
20
2387.732500
11
141.062000
21
2386.480000
0
LINE
8
Calque 1
10
141.062000
20
2386.480000
11
140.974000
21
2386.460000
0
LINE
8
Calque 1
10
140.974000
20
2386.460000
11
137.180000
21
2385.600000
0
LINE
8
Calque 1
10
137.180000
20
2385.600000
11
137.145000
21
2385.590000
0
LINE
8
Calque 1
10
137.145000
20
2385.590000
11
133.799125
21
2384.785000
0
LINE
8
Calque 1
10
133.799125
20
2384.785000
11
130.601000
21
2383.680000
0
LINE
8
Calque 1
10
130.601000
20
2383.680000
11
130.588000
21
2383.680000
0
LINE
8
Calque 1
10
130.588000
20
2383.680000
11
126.994750
21
2381.961250
0
LINE
8
Calque 1
10
126.994750
20
2381.961250
11
123.520000
21
2379.830000
0
LINE
8
Calque 1
10
123.520000
20
2379.830000
11
123.497000
21
2379.820000
0
LINE
8
Calque 1
10
123.497000
20
2379.820000
11
120.876500
21
2378.030000
0
LINE
8
Calque 1
10
120.876500
20
2378.030000
11
118.028000
21
2376.180000
0
LINE
8
Calque 1
10
118.028000
20
2376.180000
11
117.987000
21
2376.160000
0
LINE
8
Calque 1
10
117.987000
20
2376.160000
11
115.853813
21
2375.054375
0
LINE
8
Calque 1
10
115.853813
20
2375.054375
11
113.709750
21
2374.102500
0
LINE
8
Calque 1
10
113.709750
20
2374.102500
11
109.497000
21
2372.450000
0
LINE
8
Calque 1
10
109.497000
20
2372.450000
11
109.412000
21
2372.420000
0
LINE
8
Calque 1
10
109.412000
20
2372.420000
11
107.078500
21
2371.426250
0
LINE
8
Calque 1
10
107.078500
20
2371.426250
11
104.673000
21
2370.140000
0
LINE
8
Calque 1
10
104.673000
20
2370.140000
11
104.720000
21
2370.170000
0
LINE
8
Calque 1
10
104.720000
20
2370.170000
11
102.107788
21
2368.787500
0
LINE
8
Calque 1
10
102.107788
20
2368.787500
11
99.527300
21
2367.630000
0
LINE
8
Calque 1
10
99.527300
20
2367.630000
11
99.499400
21
2367.610000
0
LINE
8
Calque 1
10
99.499400
20
2367.610000
11
91.861600
21
2364.080000
0
LINE
8
Calque 1
10
91.861600
20
2364.080000
11
91.781500
21
2364.040000
0
LINE
8
Calque 1
10
91.781500
20
2364.040000
11
88.991825
21
2362.877500
0
LINE
8
Calque 1
10
88.991825
20
2362.877500
11
85.868100
21
2361.760000
0
LINE
8
Calque 1
10
85.868100
20
2361.760000
11
85.844400
21
2361.750000
0
LINE
8
Calque 1
10
85.844400
20
2361.750000
11
84.137364
21
2361.405000
0
LINE
8
Calque 1
10
84.137364
20
2361.405000
11
82.515762
21
2361.270000
0
LINE
8
Calque 1
10
82.515762
20
2361.270000
11
79.598200
21
2361.270000
0
LINE
8
Calque 1
10
79.598200
20
2361.270000
11
79.563100
21
2361.270000
0
LINE
8
Calque 1
10
79.563100
20
2361.270000
11
78.421550
21
2360.956250
0
LINE
8
Calque 1
10
78.421550
20
2360.956250
11
76.127100
21
2360.470000
0
LINE
8
Calque 1
10
76.127100
20
2360.470000
11
75.954000
21
2360.460000
0
LINE
8
Calque 1
10
75.954000
20
2360.460000
11
73.447563
21
2360.385000
0
LINE
8
Calque 1
10
73.447563
20
2360.385000
11
70.862300
21
2360.430000
0
LINE
8
Calque 1
10
70.862300
20
2360.430000
11
70.772400
21
2360.430000
0
LINE
8
Calque 1
10
70.772400
20
2360.430000
11
67.888400
21
2360.610000
0
LINE
8
Calque 1
10
67.888400
20
2360.610000
11
63.988900
21
2360.790000
0
LINE
8
Calque 1
10
63.988900
20
2360.790000
11
58.189200
21
2361.340000
0
LINE
8
Calque 1
10
58.189200
20
2361.340000
11
58.179400
21
2361.340000
0
LINE
8
Calque 1
10
58.179400
20
2361.340000
11
55.939163
21
2361.595000
0
LINE
8
Calque 1
10
55.939163
20
2361.595000
11
54.176000
21
2361.640000
0
LINE
8
Calque 1
10
54.176000
20
2361.640000
11
54.322300
21
2361.660000
0
LINE
8
Calque 1
10
54.322300
20
2361.660000
11
53.175742
21
2361.556562
0
LINE
8
Calque 1
10
53.175742
20
2361.556562
11
52.157913
21
2361.590000
0
LINE
8
Calque 1
10
52.157913
20
2361.590000
11
50.526100
21
2361.790000
0
LINE
8
Calque 1
10
50.526100
20
2361.790000
11
45.654100
21
2362.100000
0
LINE
8
Calque 1
10
45.654100
20
2362.100000
11
45.618900
21
2362.100000
0
LINE
8
Calque 1
10
45.618900
20
2362.100000
11
42.152500
21
2362.150000
0
LINE
8
Calque 1
10
42.152500
20
2362.150000
11
42.114700
21
2362.150000
0
LINE
8
Calque 1
10
42.114700
20
2362.150000
11
38.511900
21
2361.930000
0
LINE
8
Calque 1
10
38.511900
20
2361.930000
11
36.590870
21
2361.947812
0
LINE
8
Calque 1
10
36.590870
20
2361.947812
11
34.800913
21
2362.087500
0
LINE
8
Calque 1
10
34.800913
20
2362.087500
11
31.597600
21
2362.350000
0
LINE
8
Calque 1
10
31.597600
20
2362.350000
11
20.457700
21
2362.480000
0
LINE
8
Calque 1
10
20.457700
20
2362.480000
11
20.446300
21
2362.490000
0
LINE
8
Calque 1
10
20.446300
20
2362.490000
11
20.838000
21
2361.430000
0
LINE
8
Calque 1
10
20.838000
20
2361.430000
11
21.306200
21
2360.550000
0
LINE
8
Calque 1
10
21.306200
20
2360.550000
11
22.296800
21
2358.980000
0
LINE
8
Calque 1
10
22.296800
20
2358.980000
11
23.592900
21
2356.320000
0
LINE
8
Calque 1
10
23.592900
20
2356.320000
11
24.595400
21
2354.060000
0
LINE
8
Calque 1
10
24.595400
20
2354.060000
11
24.595400
21
2354.060000
0
LINE
8
Calque 1
10
24.595400
20
2354.060000
11
25.224300
21
2352.370000
0
LINE
8
Calque 1
10
25.224300
20
2352.370000
11
25.726600
21
2351.610000
0
LINE
8
Calque 1
10
25.726600
20
2351.610000
11
26.643900
21
2349.910000
0
LINE
8
Calque 1
10
26.643900
20
2349.910000
11
27.400900
21
2349.020000
0
LINE
8
Calque 1
10
27.400900
20
2349.020000
11
28.946000
21
2347.070000
0
LINE
8
Calque 1
10
28.946000
20
2347.070000
11
30.144750
21
2346.046250
0
LINE
8
Calque 1
10
30.144750
20
2346.046250
11
31.498900
21
2344.760000
0
LINE
8
Calque 1
10
31.498900
20
2344.760000
11
32.473287
21
2343.530000
0
LINE
8
Calque 1
10
32.473287
20
2343.530000
11
33.020700
21
2342.720000
0
LINE
8
Calque 1
10
33.020700
20
2342.720000
11
34.052700
21
2341.860000
0
LINE
8
Calque 1
10
34.052700
20
2341.860000
11
35.922900
21
2340.100000
0
LINE
8
Calque 1
10
35.922900
20
2340.100000
11
38.278300
21
2338.710000
0
LINE
8
Calque 1
10
38.278300
20
2338.710000
11
38.681513
21
2338.633750
0
LINE
8
Calque 1
10
38.681513
20
2338.633750
11
39.985700
21
2337.980000
0
LINE
8
Calque 1
10
39.985700
20
2337.980000
11
41.840900
21
2336.660000
0
LINE
8
Calque 1
10
41.840900
20
2336.660000
11
42.353175
21
2336.542500
0
LINE
8
Calque 1
10
42.353175
20
2336.542500
11
43.804000
21
2335.840000
0
LINE
8
Calque 1
10
43.804000
20
2335.840000
11
45.098500
21
2335.060000
0
LINE
8
Calque 1
10
45.098500
20
2335.060000
11
227.528000
21
2336.520000
0
LINE
8
Calque 1
10
227.528000
20
2336.520000
11
227.618000
21
2336.510000
0
LINE
8
Calque 1
10
227.618000
20
2336.510000
11
228.027000
21
2336.710000
0
LINE
8
Calque 1
10
228.027000
20
2336.710000
11
228.728000
21
2336.900000
0
LINE
8
Calque 1
10
228.728000
20
2336.900000
11
228.796000
21
2336.980000
0
LINE
8
Calque 1
10
228.796000
20
2336.980000
11
229.164000
21
2337.330000
0
LINE
8
Calque 1
10
229.164000
20
2337.330000
11
229.409000
21
2337.780000
0
LINE
8
Calque 1
10
229.409000
20
2337.780000
11
229.842000
21
2338.210000
0
LINE
8
Calque 1
10
229.842000
20
2338.210000
11
230.010000
21
2338.430000
0
LINE
8
Calque 1
10
230.010000
20
2338.430000
11
230.159000
21
2338.620000
0
LINE
8
Calque 1
10
230.159000
20
2338.620000
11
230.459000
21
2338.920000
0
LINE
8
Calque 1
10
230.459000
20
2338.920000
11
230.674000
21
2339.090000
0
LINE
8
Calque 1
10
230.674000
20
2339.090000
11
230.684000
21
2339.100000
0
LINE
8
Calque 1
10
230.684000
20
2339.100000
11
230.822000
21
2339.370000
0
LINE
8
Calque 1
10
230.822000
20
2339.370000
11
231.139000
21
2339.850000
0
LINE
8
Calque 1
10
231.139000
20
2339.850000
11
231.155000
21
2339.910000
0
LINE
8
Calque 1
10
231.155000
20
2339.910000
11
231.155000
21
2339.910000
0
LINE
8
Calque 1
10
231.155000
20
2339.910000
11
231.252000
21
2340.120000
0
LINE
8
Calque 1
10
231.252000
20
2340.120000
11
231.444000
21
2340.700000
0
LINE
8
Calque 1
10
231.444000
20
2340.700000
11
232.319000
21
2343.140000
0
LINE
8
Calque 1
10
232.319000
20
2343.140000
11
232.714000
21
2344.190000
0
LINE
8
Calque 1
10
232.714000
20
2344.190000
11
232.840000
21
2344.670000
0
LINE
8
Calque 1
10
232.840000
20
2344.670000
11
232.851000
21
2344.760000
0
LINE
8
Calque 1
10
232.851000
20
2344.760000
11
232.851000
21
2344.700000
0
LINE
8
Calque 1
10
232.851000
20
2344.700000
11
232.883000
21
2344.820000
0
LINE
8
Calque 1
10
232.883000
20
2344.820000
11
232.857000
21
2344.790000
0
LINE
8
Calque 1
10
232.857000
20
2344.790000
11
232.874000
21
2344.940000
0
LINE
8
Calque 1
10
232.874000
20
2344.940000
11
233.105000
21
2346.060000
0
LINE
8
Calque 1
10
233.105000
20
2346.060000
11
233.654000
21
2348.030000
0
LINE
8
Calque 1
10
233.654000
20
2348.030000
11
234.755000
21
2351.430000
0
LINE
8
Calque 1
10
234.755000
20
2351.430000
11
236.149000
21
2357.530000
0
LINE
8
Calque 1
10
236.149000
20
2357.530000
11
236.530000
21
2358.850000
0
LINE
8
Calque 1
10
236.530000
20
2358.850000
11
236.624000
21
2359.500000
0
LINE
8
Calque 1
10
236.624000
20
2359.500000
11
236.667000
21
2359.710000
0
LINE
8
Calque 1
10
236.667000
20
2359.710000
11
236.663000
21
2360.680000
0
LINE
8
Calque 1
10
236.663000
20
2360.680000
11
236.861000
21
2362.290000
0
LINE
8
Calque 1
10
236.861000
20
2362.290000
11
237.345000
21
2366.490000
0
LINE
8
Calque 1
10
237.345000
20
2366.490000
11
237.731000
21
2369.240000
0
LINE
8
Calque 1
10
237.731000
20
2369.240000
11
237.865000
21
2370.410000
0
LINE
8
Calque 1
10
237.865000
20
2370.410000
11
237.957000
21
2371.610000
0
LINE
8
Calque 1
10
237.957000
20
2371.610000
11
238.139000
21
2372.740000
0
LINE
8
Calque 1
10
238.139000
20
2372.740000
11
238.197000
21
2373.770000
0
LINE
8
Calque 1
10
238.197000
20
2373.770000
11
238.400000
21
2374.970000
0
LINE
8
Calque 1
10
238.400000
20
2374.970000
11
238.642000
21
2377.370000
0
LINE
8
Calque 1
10
238.642000
20
2377.370000
11
238.761000
21
2380.340000
0
LINE
8
Calque 1
10
238.761000
20
2380.340000
11
238.868000
21
2381.440000
0
LINE
8
Calque 1
10
238.868000
20
2381.440000
11
238.949625
21
2385.167500
0
LINE
8
Calque 1
10
238.949625
20
2385.167500
11
238.921000
21
2389.030000
0
LINE
8
Calque 1
10
238.921000
20
2389.030000
11
238.921000
21
2390.970000
0
LINE
8
Calque 1
10
238.921000
20
2390.970000
11
238.844000
21
2390.980000
0
LINE
8
Calque 1
10
238.844000
20
2390.980000
11
238.826000
21
2390.980000
0
LINE
8
Calque 1
10
238.826000
20
2390.980000
11
233.928000
21
2391.570000
0
LINE
8
Calque 1
10
233.928000
20
2391.570000
11
230.019000
21
2392.040000
0
LINE
8
Calque 1
10
230.019000
20
2392.040000
11
224.970000
21
2391.970000
0
LINE
8
Calque 1
10
224.970000
20
2391.970000
11
224.942000
21
2391.970000
0
LINE
8
Calque 1
10
224.942000
20
2391.970000
11
218.665000
21
2392.050000
0
LINE
8
Calque 1
10
218.665000
20
2392.050000
11
214.835000
21
2392.160000
0
LINE
8
Calque 1
10
214.835000
20
2392.160000
11
214.805000
21
2392.160000
0
LINE
8
Calque 1
10
214.805000
20
2392.160000
11
211.414500
21
2392.107500
0
LINE
8
Calque 1
10
211.414500
20
2392.107500
11
207.472000
21
2392.070000
0
LINE
8
Calque 1
10
207.472000
20
2392.070000
11
204.549000
21
2392.420000
0
LINE
8
Calque 1
10
204.549000
20
2392.420000
11
204.450000
21
2392.440000
0
LINE
8
Calque 1
10
204.450000
20
2392.440000
11
203.019000
21
2392.420000
0
LINE
8
Calque 1
10
203.019000
20
2392.420000
11
203.095000
21
2392.430000
0
LINE
8
Calque 1
10
203.095000
20
2392.430000
11
201.619250
21
2392.361250
0
LINE
8
Calque 1
10
201.619250
20
2392.361250
11
200.466000
21
2392.390000
0
LINE
8
Calque 1
10
200.466000
20
2392.390000
11
200.431000
21
2392.390000
0
LINE
8
Calque 1
10
200.431000
20
2392.390000
11
196.916375
21
2392.302500
0
LINE
8
Calque 1
10
196.916375
20
2392.302500
11
193.053000
21
2392.230000
0
LINE
8
Calque 1
10
193.053000
20
2392.230000
11
192.961000
21
2392.230000
0
LINE
8
Calque 1
10
192.961000
20
2392.230000
11
190.630125
21
2392.375000
0
LINE
8
Calque 1
10
190.630125
20
2392.375000
11
188.516000
21
2392.370000
0
LINE
8
Calque 1
10
188.516000
20
2392.370000
11
185.436875
21
2392.331250
0
LINE
8
Calque 1
10
185.436875
20
2392.331250
11
182.720000
21
2392.540000
0
LINE
8
Calque 1
10
182.720000
20
2392.540000
11
175.414000
21
2392.620000
0
LINE
8
Calque 1
10
175.414000
20
2392.620000
11
175.342000
21
2392.620000
0
LINE
8
Calque 1
10
175.342000
20
2392.620000
11
173.267000
21
2392.530000
0
LINE
8
Calque 1
10
173.267000
20
2392.530000
11
173.257000
21
2392.520000
0
LINE
8
Calque 1
10
173.257000
20
2392.520000
11
173.172000
21
2392.510000
0
LINE
8
Calque 1
10
173.172000
20
2392.510000
11
173.106000
21
2392.510000
0
LINE
8
Calque 1
10
173.106000
20
2392.510000
11
173.009000
21
2392.500000
0
LINE
8
Calque 1
10
173.009000
20
2392.500000
11
172.816000
21
2392.500000
0
LINE
8
Calque 1
10
172.816000
20
2392.500000
11
172.797000
21
2392.500000
0
LINE
8
Calque 1
10
172.797000
20
2392.500000
11
172.517000
21
2392.490000
0
LINE
8
Calque 1
10
172.517000
20
2392.490000
11
172.727000
21
2392.510000
0
LINE
8
Calque 1
10
172.727000
20
2392.510000
11
171.735750
21
2392.504062
0
LINE
8
Calque 1
10
171.735750
20
2392.504062
11
170.924500
21
2392.717500
0
LINE
8
Calque 1
10
170.924500
20
2392.717500
11
169.812000
21
2393.390000
0
LINE
8
Calque 1
10
169.812000
20
2393.390000
11
169.812000
21
2393.390000
0
LINE
8
Calque 1
10
236.667000
20
2359.710000
11
236.672000
21
2359.570000
0
LINE
8
Calque 1
10
236.672000
20
2359.570000
11
236.667000
21
2359.710000
0
LINE
8
Calque 1
10
236.667000
20
2359.710000
11
236.667000
21
2359.710000
0
LINE
8
Calque 1
10
413.739000
20
2980.580000
11
401.119937
21
2977.919219
0
LINE
8
Calque 1
10
401.119937
20
2977.919219
11
391.024055
21
2975.670957
0
LINE
8
Calque 1
10
391.024055
20
2975.670957
11
379.692500
21
2973.003750
0
LINE
8
Calque 1
10
379.692500
20
2973.003750
11
368.091695
21
2970.062324
0
LINE
8
Calque 1
10
368.091695
20
2970.062324
11
357.188063
21
2966.991406
0
LINE
8
Calque 1
10
357.188063
20
2966.991406
11
352.299692
21
2965.452615
0
LINE
8
Calque 1
10
352.299692
20
2965.452615
11
347.948023
21
2963.935723
0
LINE
8
Calque 1
10
347.948023
20
2963.935723
11
344.253858
21
2962.458821
0
LINE
8
Calque 1
10
344.253858
20
2962.458821
11
341.338000
21
2961.040000
0
LINE
8
Calque 1
10
341.338000
20
2961.040000
11
341.337000
21
2961.040000
0
LINE
8
Calque 1
10
341.337000
20
2961.040000
11
337.167750
21
2959.943750
0
LINE
8
Calque 1
10
337.167750
20
2959.943750
11
333.222000
21
2958.480000
0
LINE
8
Calque 1
10
333.222000
20
2958.480000
11
333.222000
21
2958.480000
0
LINE
8
Calque 1
10
333.222000
20
2958.480000
11
329.482250
21
2956.700000
0
LINE
8
Calque 1
10
329.482250
20
2956.700000
11
325.930000
21
2954.620000
0
LINE
8
Calque 1
10
325.930000
20
2954.620000
11
323.378691
21
2952.888066
0
LINE
8
Calque 1
10
323.378691
20
2952.888066
11
320.915291
21
2951.024063
0
LINE
8
Calque 1
10
320.915291
20
2951.024063
11
316.221641
21
2946.955625
0
LINE
8
Calque 1
10
316.221641
20
2946.955625
11
311.787889
21
2942.526250
0
LINE
8
Calque 1
10
311.787889
20
2942.526250
11
307.552875
21
2937.847500
0
LINE
8
Calque 1
10
307.552875
20
2937.847500
11
299.434422
21
2928.188125
0
LINE
8
Calque 1
10
299.434422
20
2928.188125
11
295.428662
21
2923.430625
0
LINE
8
Calque 1
10
295.428662
20
2923.430625
11
291.377000
21
2918.870000
0
LINE
8
Calque 1
10
291.377000
20
2918.870000
11
291.375000
21
2918.870000
0
LINE
8
Calque 1
10
291.375000
20
2918.870000
11
287.068875
21
2911.106250
0
LINE
8
Calque 1
10
287.068875
20
2911.106250
11
282.981000
21
2903.170000
0
LINE
8
Calque 1
10
282.981000
20
2903.170000
11
279.206375
21
2895.066250
0
LINE
8
Calque 1
10
279.206375
20
2895.066250
11
275.836000
21
2886.790000
0
LINE
8
Calque 1
10
275.836000
20
2886.790000
11
275.832000
21
2886.790000
0
LINE
8
Calque 1
10
275.832000
20
2886.790000
11
272.959125
21
2878.347500
0
LINE
8
Calque 1
10
272.959125
20
2878.347500
11
271.738828
21
2874.063437
0
LINE
8
Calque 1
10
271.738828
20
2874.063437
11
270.678000
21
2869.740000
0
LINE
8
Calque 1
10
270.678000
20
2869.740000
11
269.787500
21
2865.377500
0
LINE
8
Calque 1
10
269.787500
20
2865.377500
11
269.080000
21
2860.970000
0
LINE
8
Calque 1
10
269.080000
20
2860.970000
11
269.080000
21
2860.970000
0
LINE
8
Calque 1
10
269.080000
20
2860.970000
11
268.566750
21
2856.532500
0
LINE
8
Calque 1
10
268.566750
20
2856.532500
11
268.259000
21
2852.050000
0
LINE
8
Calque 1
10
268.259000
20
2852.050000
11
268.260000
21
2852.050000
0
LINE
8
Calque 1
10
268.260000
20
2852.050000
11
267.257875
21
2846.967500
0
LINE
8
Calque 1
10
267.257875
20
2846.967500
11
266.492000
21
2841.870000
0
LINE
8
Calque 1
10
266.492000
20
2841.870000
11
266.493000
21
2841.870000
0
LINE
8
Calque 1
10
266.493000
20
2841.870000
11
266.076000
21
2836.990000
0
LINE
8
Calque 1
10
266.076000
20
2836.990000
11
265.618000
21
2831.640000
0
LINE
8
Calque 1
10
265.618000
20
2831.640000
11
265.484469
21
2826.516094
0
LINE
8
Calque 1
10
265.484469
20
2826.516094
11
265.536000
21
2821.391250
0
LINE
8
Calque 1
10
265.536000
20
2821.391250
11
265.760031
21
2816.268281
0
LINE
8
Calque 1
10
265.760031
20
2816.268281
11
266.144000
21
2811.150000
0
LINE
8
Calque 1
10
266.144000
20
2811.150000
11
267.342875
21
2800.945000
0
LINE
8
Calque 1
10
267.342875
20
2800.945000
11
269.030000
21
2790.800000
0
LINE
8
Calque 1
10
269.030000
20
2790.800000
11
269.033000
21
2790.780000
0
LINE
8
Calque 1
10
269.033000
20
2790.780000
11
271.109875
21
2780.712500
0
LINE
8
Calque 1
10
271.109875
20
2780.712500
11
273.474000
21
2770.750000
0
LINE
8
Calque 1
10
273.474000
20
2770.750000
11
273.477000
21
2770.740000
0
LINE
8
Calque 1
10
273.477000
20
2770.740000
11
275.284125
21
2762.250000
0
LINE
8
Calque 1
10
275.284125
20
2762.250000
11
277.509000
21
2753.880000
0
LINE
8
Calque 1
10
277.509000
20
2753.880000
11
277.512000
21
2753.870000
0
LINE
8
Calque 1
10
277.512000
20
2753.870000
11
280.067750
21
2745.586250
0
LINE
8
Calque 1
10
280.067750
20
2745.586250
11
282.859000
21
2737.370000
0
LINE
8
Calque 1
10
282.859000
20
2737.370000
11
288.781000
21
2721.061250
0
LINE
8
Calque 1
10
288.781000
20
2721.061250
11
291.726250
21
2712.922344
0
LINE
8
Calque 1
10
291.726250
20
2712.922344
11
294.538000
21
2704.760000
0
LINE
8
Calque 1
10
294.538000
20
2704.760000
11
297.915934
21
2696.195547
0
LINE
8
Calque 1
10
297.915934
20
2696.195547
11
301.023281
21
2687.535000
0
LINE
8
Calque 1
10
301.023281
20
2687.535000
11
303.889738
21
2678.790078
0
LINE
8
Calque 1
10
303.889738
20
2678.790078
11
306.545000
21
2669.972500
0
LINE
8
Calque 1
10
306.545000
20
2669.972500
11
309.018762
21
2661.093984
0
LINE
8
Calque 1
10
309.018762
20
2661.093984
11
311.340719
21
2652.166250
0
LINE
8
Calque 1
10
311.340719
20
2652.166250
11
315.648000
21
2634.210000
0
LINE
8
Calque 1
10
315.648000
20
2634.210000
11
315.653000
21
2634.190000
0
LINE
8
Calque 1
10
315.653000
20
2634.190000
11
316.488484
21
2628.727344
0
LINE
8
Calque 1
10
316.488484
20
2628.727344
11
317.470125
21
2623.301250
0
LINE
8
Calque 1
10
317.470125
20
2623.301250
11
319.804000
21
2612.540000
0
LINE
8
Calque 1
10
319.804000
20
2612.540000
11
319.806000
21
2612.530000
0
LINE
8
Calque 1
10
319.806000
20
2612.530000
11
322.523500
21
2601.845000
0
LINE
8
Calque 1
10
322.523500
20
2601.845000
11
325.484000
21
2591.220000
0
LINE
8
Calque 1
10
325.484000
20
2591.220000
11
331.587125
21
2570.006250
0
LINE
8
Calque 1
10
331.587125
20
2570.006250
11
334.455453
21
2559.341719
0
LINE
8
Calque 1
10
334.455453
20
2559.341719
11
337.019000
21
2548.590000
0
LINE
8
Calque 1
10
337.019000
20
2548.590000
11
340.267375
21
2539.457500
0
LINE
8
Calque 1
10
340.267375
20
2539.457500
11
343.242000
21
2530.250000
0
LINE
8
Calque 1
10
343.242000
20
2530.250000
11
347.269469
21
2516.325625
0
LINE
8
Calque 1
10
347.269469
20
2516.325625
11
350.885750
21
2502.292500
0
LINE
8
Calque 1
10
350.885750
20
2502.292500
11
354.214406
21
2488.180625
0
LINE
8
Calque 1
10
354.214406
20
2488.180625
11
357.379000
21
2474.020000
0
LINE
8
Calque 1
10
357.379000
20
2474.020000
11
357.399000
21
2473.940000
0
LINE
8
Calque 1
10
357.399000
20
2473.940000
11
360.718828
21
2461.511406
0
LINE
8
Calque 1
10
360.718828
20
2461.511406
11
364.028625
21
2448.948750
0
LINE
8
Calque 1
10
364.028625
20
2448.948750
11
367.625109
21
2436.481719
0
LINE
8
Calque 1
10
367.625109
20
2436.481719
11
369.623584
21
2430.355840
0
LINE
8
Calque 1
10
369.623584
20
2430.355840
11
371.805000
21
2424.340000
0
LINE
8
Calque 1
10
371.805000
20
2424.340000
11
371.955000
21
2424.390000
0
LINE
8
Calque 1
10
371.955000
20
2424.390000
11
372.320500
21
2424.931250
0
LINE
8
Calque 1
10
372.320500
20
2424.931250
11
373.019000
21
2425.600000
0
LINE
8
Calque 1
10
373.019000
20
2425.600000
11
374.269000
21
2426.350000
0
LINE
8
Calque 1
10
374.269000
20
2426.350000
11
374.608250
21
2426.512500
0
LINE
8
Calque 1
10
374.608250
20
2426.512500
11
374.574000
21
2426.480000
0
LINE
8
Calque 1
10
374.574000
20
2426.480000
11
374.614000
21
2426.520000
0
LINE
8
Calque 1
10
374.614000
20
2426.520000
11
374.987000
21
2426.710000
0
LINE
8
Calque 1
10
374.987000
20
2426.710000
11
375.403000
21
2426.900000
0
LINE
8
Calque 1
10
375.403000
20
2426.900000
11
375.419000
21
2426.910000
0
LINE
8
Calque 1
10
375.419000
20
2426.910000
11
376.527000
21
2427.500000
0
LINE
8
Calque 1
10
376.527000
20
2427.500000
11
376.918000
21
2427.630000
0
LINE
8
Calque 1
10
376.918000
20
2427.630000
11
377.024000
21
2427.780000
0
LINE
8
Calque 1
10
377.024000
20
2427.780000
11
377.375000
21
2428.158750
0
LINE
8
Calque 1
10
377.375000
20
2428.158750
11
377.381000
21
2428.140000
0
LINE
8
Calque 1
10
377.381000
20
2428.140000
11
378.201000
21
2429.020000
0
LINE
8
Calque 1
10
378.201000
20
2429.020000
11
378.764000
21
2429.620000
0
LINE
8
Calque 1
10
378.764000
20
2429.620000
11
379.131000
21
2430.080000
0
LINE
8
Calque 1
10
379.131000
20
2430.080000
11
379.574000
21
2430.490000
0
LINE
8
Calque 1
10
379.574000
20
2430.490000
11
380.588000
21
2431.370000
0
LINE
8
Calque 1
10
380.588000
20
2431.370000
11
380.726000
21
2431.460000
0
LINE
8
Calque 1
10
380.726000
20
2431.460000
11
380.733000
21
2431.480000
0
LINE
8
Calque 1
10
380.733000
20
2431.480000
11
381.035000
21
2431.770000
0
LINE
8
Calque 1
10
381.035000
20
2431.770000
11
381.403000
21
2432.050000
0
LINE
8
Calque 1
10
381.403000
20
2432.050000
11
381.800000
21
2432.320000
0
LINE
8
Calque 1
10
381.800000
20
2432.320000
11
383.039000
21
2433.280000
0
LINE
8
Calque 1
10
383.039000
20
2433.280000
11
383.864000
21
2433.870000
0
LINE
8
Calque 1
10
383.864000
20
2433.870000
11
385.491000
21
2435.200000
0
LINE
8
Calque 1
10
385.491000
20
2435.200000
11
387.315000
21
2436.350000
0
LINE
8
Calque 1
10
387.315000
20
2436.350000
11
388.685000
21
2437.360000
0
LINE
8
Calque 1
10
388.685000
20
2437.360000
11
389.111000
21
2437.700000
0
LINE
8
Calque 1
10
389.111000
20
2437.700000
11
390.203000
21
2438.410000
0
LINE
8
Calque 1
10
390.203000
20
2438.410000
11
390.563375
21
2438.616250
0
LINE
8
Calque 1
10
390.563375
20
2438.616250
11
390.542000
21
2438.590000
0
LINE
8
Calque 1
10
390.542000
20
2438.590000
11
390.839000
21
2438.830000
0
LINE
8
Calque 1
10
390.839000
20
2438.830000
11
391.168000
21
2439.070000
0
LINE
8
Calque 1
10
391.168000
20
2439.070000
11
391.086375
21
2439.040000
0
LINE
8
Calque 1
10
391.086375
20
2439.040000
11
391.586000
21
2439.490000
0
LINE
8
Calque 1
10
391.586000
20
2439.490000
11
393.243000
21
2440.550000
0
LINE
8
Calque 1
10
393.243000
20
2440.550000
11
394.179000
21
2441.150000
0
LINE
8
Calque 1
10
394.179000
20
2441.150000
11
394.716125
21
2441.393750
0
LINE
8
Calque 1
10
394.716125
20
2441.393750
11
394.696000
21
2441.360000
0
LINE
8
Calque 1
10
394.696000
20
2441.360000
11
395.239000
21
2441.630000
0
LINE
8
Calque 1
10
395.239000
20
2441.630000
11
396.396000
21
2442.110000
0
LINE
8
Calque 1
10
396.396000
20
2442.110000
11
398.331000
21
2442.980000
0
LINE
8
Calque 1
10
398.331000
20
2442.980000
11
399.898000
21
2443.520000
0
LINE
8
Calque 1
10
399.898000
20
2443.520000
11
401.656000
21
2444.400000
0
LINE
8
Calque 1
10
401.656000
20
2444.400000
11
402.898000
21
2444.890000
0
LINE
8
Calque 1
10
402.898000
20
2444.890000
11
403.383000
21
2445.090000
0
LINE
8
Calque 1
10
403.383000
20
2445.090000
11
403.757125
21
2445.218750
0
LINE
8
Calque 1
10
403.757125
20
2445.218750
11
403.649000
21
2445.160000
0
LINE
8
Calque 1
10
403.649000
20
2445.160000
11
405.067000
21
2445.800000
0
LINE
8
Calque 1
10
405.067000
20
2445.800000
11
407.082000
21
2446.380000
0
LINE
8
Calque 1
10
407.082000
20
2446.380000
11
408.742000
21
2446.850000
0
LINE
8
Calque 1
10
408.742000
20
2446.850000
11
410.628000
21
2447.280000
0
LINE
8
Calque 1
10
410.628000
20
2447.280000
11
411.658000
21
2447.540000
0
LINE
8
Calque 1
10
411.658000
20
2447.540000
11
412.273000
21
2447.630000
0
LINE
8
Calque 1
10
412.273000
20
2447.630000
11
413.200000
21
2447.860000
0
LINE
8
Calque 1
10
413.200000
20
2447.860000
11
415.822000
21
2448.340000
0
LINE
8
Calque 1
10
415.822000
20
2448.340000
11
420.586000
21
2449.560000
0
LINE
8
Calque 1
10
420.586000
20
2449.560000
11
423.224000
21
2450.190000
0
LINE
8
Calque 1
10
423.224000
20
2450.190000
11
424.134000
21
2450.290000
0
LINE
8
Calque 1
10
424.134000
20
2450.290000
11
424.817000
21
2450.340000
0
LINE
8
Calque 1
10
424.817000
20
2450.340000
11
426.887000
21
2450.530000
0
LINE
8
Calque 1
10
426.887000
20
2450.530000
11
430.241000
21
2450.920000
0
LINE
8
Calque 1
10
430.241000
20
2450.920000
11
432.898000
21
2450.890000
0
LINE
8
Calque 1
10
432.898000
20
2450.890000
11
434.076000
21
2450.860000
0
LINE
8
Calque 1
10
434.076000
20
2450.860000
11
435.836000
21
2450.740000
0
LINE
8
Calque 1
10
435.836000
20
2450.740000
11
437.703000
21
2450.690000
0
LINE
8
Calque 1
10
437.703000
20
2450.690000
11
438.699000
21
2450.670000
0
LINE
8
Calque 1
10
438.699000
20
2450.670000
11
441.566000
21
2450.190000
0
LINE
8
Calque 1
10
441.566000
20
2450.190000
11
442.239000
21
2450.100000
0
LINE
8
Calque 1
10
442.239000
20
2450.100000
11
444.906000
21
2449.610000
0
LINE
8
Calque 1
10
444.906000
20
2449.610000
11
446.007000
21
2449.400000
0
LINE
8
Calque 1
10
446.007000
20
2449.400000
11
446.808000
21
2449.170000
0
LINE
8
Calque 1
10
446.808000
20
2449.170000
11
447.841000
21
2448.920000
0
LINE
8
Calque 1
10
447.841000
20
2448.920000
11
448.590000
21
2448.670000
0
LINE
8
Calque 1
10
448.590000
20
2448.670000
11
451.057000
21
2448.060000
0
LINE
8
Calque 1
10
451.057000
20
2448.060000
11
451.871000
21
2447.750000
0
LINE
8
Calque 1
10
451.871000
20
2447.750000
11
452.531000
21
2447.500000
0
LINE
8
Calque 1
10
452.531000
20
2447.500000
11
452.436000
21
2447.530000
0
LINE
8
Calque 1
10
452.436000
20
2447.530000
11
453.774000
21
2447.070000
0
LINE
8
Calque 1
10
453.774000
20
2447.070000
11
454.520000
21
2446.780000
0
LINE
8
Calque 1
10
454.520000
20
2446.780000
11
455.463000
21
2446.510000
0
LINE
8
Calque 1
10
455.463000
20
2446.510000
11
457.652000
21
2445.650000
0
LINE
8
Calque 1
10
457.652000
20
2445.650000
11
460.028000
21
2444.580000
0
LINE
8
Calque 1
10
460.028000
20
2444.580000
11
461.800000
21
2443.750000
0
LINE
8
Calque 1
10
461.800000
20
2443.750000
11
462.274000
21
2443.560000
0
LINE
8
Calque 1
10
462.274000
20
2443.560000
11
463.327000
21
2443.080000
0
LINE
8
Calque 1
10
463.327000
20
2443.080000
11
464.266000
21
2442.580000
0
LINE
8
Calque 1
10
464.266000
20
2442.580000
11
465.086000
21
2442.190000
0
LINE
8
Calque 1
10
465.086000
20
2442.190000
11
465.771000
21
2441.830000
0
LINE
8
Calque 1
10
465.771000
20
2441.830000
11
466.913000
21
2441.330000
0
LINE
8
Calque 1
10
466.913000
20
2441.330000
11
467.798000
21
2440.860000
0
LINE
8
Calque 1
10
467.798000
20
2440.860000
11
467.910000
21
2440.790000
0
LINE
8
Calque 1
10
467.910000
20
2440.790000
11
468.263000
21
2440.560000
0
LINE
8
Calque 1
10
468.263000
20
2440.560000
11
469.370000
21
2440.070000
0
LINE
8
Calque 1
10
469.370000
20
2440.070000
11
470.160000
21
2439.560000
0
LINE
8
Calque 1
10
470.160000
20
2439.560000
11
470.854000
21
2439.160000
0
LINE
8
Calque 1
10
470.854000
20
2439.160000
11
472.020000
21
2438.410000
0
LINE
8
Calque 1
10
472.020000
20
2438.410000
11
472.749000
21
2437.850000
0
LINE
8
Calque 1
10
472.749000
20
2437.850000
11
474.504000
21
2436.660000
0
LINE
8
Calque 1
10
474.504000
20
2436.660000
11
475.163000
21
2436.170000
0
LINE
8
Calque 1
10
475.163000
20
2436.170000
11
475.301750
21
2436.123750
0
LINE
8
Calque 1
10
475.301750
20
2436.123750
11
475.964000
21
2435.680000
0
LINE
8
Calque 1
10
475.964000
20
2435.680000
11
476.920000
21
2434.890000
0
LINE
8
Calque 1
10
476.920000
20
2434.890000
11
477.193000
21
2434.610000
0
LINE
8
Calque 1
10
477.193000
20
2434.610000
11
477.279000
21
2434.550000
0
LINE
8
Calque 1
10
477.279000
20
2434.550000
11
479.544000
21
2433.140000
0
LINE
8
Calque 1
10
479.544000
20
2433.140000
11
480.304000
21
2432.520000
0
LINE
8
Calque 1
10
480.304000
20
2432.520000
11
480.538000
21
2432.340000
0
LINE
8
Calque 1
10
480.538000
20
2432.340000
11
480.548000
21
2432.330000
0
LINE
8
Calque 1
10
480.548000
20
2432.330000
11
480.820000
21
2432.180000
0
LINE
8
Calque 1
10
480.820000
20
2432.180000
11
481.765000
21
2431.500000
0
LINE
8
Calque 1
10
481.765000
20
2431.500000
11
482.330000
21
2431.010000
0
LINE
8
Calque 1
10
482.330000
20
2431.010000
11
482.909000
21
2430.590000
0
LINE
8
Calque 1
10
482.909000
20
2430.590000
11
484.140000
21
2429.470000
0
LINE
8
Calque 1
10
484.140000
20
2429.470000
11
484.146000
21
2429.460000
0
LINE
8
Calque 1
10
484.146000
20
2429.460000
11
484.580000
21
2429.060000
0
LINE
8
Calque 1
10
484.580000
20
2429.060000
11
487.032000
21
2427.030000
0
LINE
8
Calque 1
10
487.032000
20
2427.030000
11
487.982000
21
2426.100000
0
LINE
8
Calque 1
10
487.982000
20
2426.100000
11
488.589000
21
2425.540000
0
LINE
8
Calque 1
10
488.589000
20
2425.540000
11
489.320000
21
2424.970000
0
LINE
8
Calque 1
10
489.320000
20
2424.970000
11
490.481000
21
2423.670000
0
LINE
8
Calque 1
10
490.481000
20
2423.670000
11
490.890000
21
2423.230000
0
LINE
8
Calque 1
10
490.890000
20
2423.230000
11
490.963000
21
2423.190000
0
LINE
8
Calque 1
10
490.963000
20
2423.190000
11
491.228000
21
2423.100000
0
LINE
8
Calque 1
10
491.228000
20
2423.100000
11
492.237000
21
2422.620000
0
LINE
8
Calque 1
10
492.237000
20
2422.620000
11
492.245000
21
2422.610000
0
LINE
8
Calque 1
10
492.245000
20
2422.610000
11
492.609000
21
2422.380000
0
LINE
8
Calque 1
10
492.609000
20
2422.380000
11
493.007000
21
2422.060000
0
LINE
8
Calque 1
10
493.007000
20
2422.060000
11
493.074000
21
2421.950000
0
LINE
8
Calque 1
10
493.074000
20
2421.950000
11
493.083000
21
2421.940000
0
LINE
8
Calque 1
10
493.083000
20
2421.940000
11
493.569000
21
2421.180000
0
LINE
8
Calque 1
10
493.569000
20
2421.180000
11
493.555375
21
2421.210000
0
LINE
8
Calque 1
10
493.555375
20
2421.210000
11
493.433000
21
2421.480000
0
LINE
8
Calque 1
10
493.433000
20
2421.480000
11
493.197000
21
2421.820000
0
LINE
8
Calque 1
10
493.197000
20
2421.820000
11
493.125000
21
2421.900000
0
LINE
8
Calque 1
10
493.125000
20
2421.900000
11
493.085000
21
2421.940000
0
LINE
8
Calque 1
10
493.085000
20
2421.940000
11
493.428000
21
2421.730000
0
LINE
8
Calque 1
10
493.428000
20
2421.730000
11
494.348000
21
2421.160000
0
LINE
8
Calque 1
10
494.348000
20
2421.160000
11
495.063000
21
2420.640000
0
LINE
8
Calque 1
10
495.063000
20
2420.640000
11
495.634875
21
2420.143750
0
LINE
8
Calque 1
10
495.634875
20
2420.143750
11
495.720000
21
2420.030000
0
LINE
8
Calque 1
10
495.720000
20
2420.030000
11
496.799000
21
2419.330000
0
LINE
8
Calque 1
10
496.799000
20
2419.330000
11
497.321000
21
2418.950000
0
LINE
8
Calque 1
10
497.321000
20
2418.950000
11
497.770625
21
2418.708750
0
LINE
8
Calque 1
10
497.770625
20
2418.708750
11
498.455000
21
2418.070000
0
LINE
8
Calque 1
10
498.455000
20
2418.070000
11
498.704000
21
2417.780000
0
LINE
8
Calque 1
10
498.704000
20
2417.780000
11
501.615859
21
2426.580469
0
LINE
8
Calque 1
10
501.615859
20
2426.580469
11
504.742125
21
2435.263750
0
LINE
8
Calque 1
10
504.742125
20
2435.263750
11
507.829578
21
2443.937656
0
LINE
8
Calque 1
10
507.829578
20
2443.937656
11
510.625000
21
2452.710000
0
LINE
8
Calque 1
10
510.625000
20
2452.710000
11
511.173000
21
2454.450000
0
LINE
8
Calque 1
10
511.173000
20
2454.450000
11
511.472000
21
2455.680000
0
LINE
8
Calque 1
10
511.472000
20
2455.680000
11
512.884000
21
2461.680000
0
LINE
8
Calque 1
10
512.884000
20
2461.680000
11
513.915000
21
2467.830000
0
LINE
8
Calque 1
10
513.915000
20
2467.830000
11
513.914000
21
2467.850000
0
LINE
8
Calque 1
10
513.914000
20
2467.850000
11
513.917000
21
2467.870000
0
LINE
8
Calque 1
10
513.917000
20
2467.870000
11
515.710453
21
2473.228437
0
LINE
8
Calque 1
10
515.710453
20
2473.228437
11
517.362625
21
2478.622500
0
LINE
8
Calque 1
10
517.362625
20
2478.622500
11
520.311000
21
2489.510000
0
LINE
8
Calque 1
10
520.311000
20
2489.510000
11
522.280969
21
2497.758730
0
LINE
8
Calque 1
10
522.280969
20
2497.758730
11
524.104500
21
2506.046719
0
LINE
8
Calque 1
10
524.104500
20
2506.046719
11
527.544000
21
2522.676250
0
LINE
8
Calque 1
10
527.544000
20
2522.676250
11
531.093000
21
2539.270156
0
LINE
8
Calque 1
10
531.093000
20
2539.270156
11
533.053406
21
2547.513613
0
LINE
8
Calque 1
10
533.053406
20
2547.513613
11
535.215000
21
2555.700000
0
LINE
8
Calque 1
10
535.215000
20
2555.700000
11
535.235000
21
2555.780000
0
LINE
8
Calque 1
10
535.235000
20
2555.780000
11
537.620719
21
2565.157813
0
LINE
8
Calque 1
10
537.620719
20
2565.157813
11
539.870500
21
2574.575000
0
LINE
8
Calque 1
10
539.870500
20
2574.575000
11
544.209000
21
2593.460000
0
LINE
8
Calque 1
10
544.209000
20
2593.460000
11
548.773875
21
2612.427500
0
LINE
8
Calque 1
10
548.773875
20
2612.427500
11
551.289891
21
2621.857813
0
LINE
8
Calque 1
10
551.289891
20
2621.857813
11
554.046000
21
2631.230000
0
LINE
8
Calque 1
10
554.046000
20
2631.230000
11
556.136359
21
2637.072773
0
LINE
8
Calque 1
10
556.136359
20
2637.072773
11
557.949875
21
2642.975313
0
LINE
8
Calque 1
10
557.949875
20
2642.975313
11
561.149500
21
2654.865000
0
LINE
8
Calque 1
10
561.149500
20
2654.865000
11
562.737172
21
2660.804805
0
LINE
8
Calque 1
10
562.737172
20
2660.804805
11
564.451125
21
2666.709687
0
LINE
8
Calque 1
10
564.451125
20
2666.709687
11
566.392141
21
2672.555977
0
LINE
8
Calque 1
10
566.392141
20
2672.555977
11
568.661000
21
2678.320000
0
LINE
8
Calque 1
10
568.661000
20
2678.320000
11
571.649891
21
2695.407656
0
LINE
8
Calque 1
10
571.649891
20
2695.407656
11
574.346375
21
2712.391250
0
LINE
8
Calque 1
10
574.346375
20
2712.391250
11
575.522299
21
2720.898223
0
LINE
8
Calque 1
10
575.522299
20
2720.898223
11
576.549922
21
2729.444219
0
LINE
8
Calque 1
10
576.549922
20
2729.444219
11
577.404178
21
2738.050918
0
LINE
8
Calque 1
10
577.404178
20
2738.050918
11
578.060000
21
2746.740000
0
LINE
8
Calque 1
10
578.060000
20
2746.740000
11
579.498062
21
2754.442344
0
LINE
8
Calque 1
10
579.498062
20
2754.442344
11
580.740750
21
2762.211250
0
LINE
8
Calque 1
10
580.740750
20
2762.211250
11
581.795562
21
2770.034531
0
LINE
8
Calque 1
10
581.795562
20
2770.034531
11
582.670000
21
2777.900000
0
LINE
8
Calque 1
10
582.670000
20
2777.900000
11
583.371344
21
2785.774844
0
LINE
8
Calque 1
10
583.371344
20
2785.774844
11
583.908250
21
2793.671250
0
LINE
8
Calque 1
10
583.908250
20
2793.671250
11
584.288031
21
2801.577031
0
LINE
8
Calque 1
10
584.288031
20
2801.577031
11
584.518000
21
2809.480000
0
LINE
8
Calque 1
10
584.518000
20
2809.480000
11
584.519000
21
2809.500000
0
LINE
8
Calque 1
10
584.519000
20
2809.500000
11
584.516000
21
2809.510000
0
LINE
8
Calque 1
10
584.516000
20
2809.510000
11
578.989125
21
2850.518750
0
LINE
8
Calque 1
10
578.989125
20
2850.518750
11
575.239000
21
2877.660000
0
LINE
8
Calque 1
10
575.239000
20
2877.660000
11
413.739000
21
2980.580000
0
LINE
8
Calque 1
10
413.739000
20
2980.580000
11
413.739000
21
2980.580000
0
LINE
8
Calque 1
10
431.017000
20
2446.150000
11
430.556000
21
2446.130000
0
LINE
8
Calque 1
10
430.556000
20
2446.130000
11
427.330000
21
2445.750000
0
LINE
8
Calque 1
10
427.330000
20
2445.750000
11
425.256000
21
2445.560000
0
LINE
8
Calque 1
10
425.256000
20
2445.560000
11
424.531000
21
2445.510000
0
LINE
8
Calque 1
10
424.531000
20
2445.510000
11
424.143500
21
2445.466250
0
LINE
8
Calque 1
10
424.143500
20
2445.466250
11
424.062000
21
2445.460000
0
LINE
8
Calque 1
10
424.062000
20
2445.460000
11
421.734000
21
2444.900000
0
LINE
8
Calque 1
10
421.734000
20
2444.900000
11
416.880000
21
2443.660000
0
LINE
8
Calque 1
10
416.880000
20
2443.660000
11
414.149000
21
2443.160000
0
LINE
8
Calque 1
10
414.149000
20
2443.160000
11
413.214000
21
2442.920000
0
LINE
8
Calque 1
10
413.214000
20
2442.920000
11
412.561000
21
2442.830000
0
LINE
8
Calque 1
10
412.561000
20
2442.830000
11
411.729000
21
2442.620000
0
LINE
8
Calque 1
10
411.729000
20
2442.620000
11
409.820000
21
2442.170000
0
LINE
8
Calque 1
10
409.820000
20
2442.170000
11
408.417000
21
2441.770000
0
LINE
8
Calque 1
10
408.417000
20
2441.770000
11
406.708000
21
2441.300000
0
LINE
8
Calque 1
10
406.708000
20
2441.300000
11
405.454000
21
2440.720000
0
LINE
8
Calque 1
10
405.454000
20
2440.720000
11
404.956000
21
2440.550000
0
LINE
8
Calque 1
10
404.956000
20
2440.550000
11
404.585000
21
2440.400000
0
LINE
8
Calque 1
10
404.585000
20
2440.400000
11
403.755000
21
2440.090000
0
LINE
8
Calque 1
10
403.755000
20
2440.090000
11
401.736000
21
2439.090000
0
LINE
8
Calque 1
10
401.736000
20
2439.090000
11
400.047000
21
2438.510000
0
LINE
8
Calque 1
10
400.047000
20
2438.510000
11
398.382000
21
2437.750000
0
LINE
8
Calque 1
10
398.382000
20
2437.750000
11
397.193000
21
2437.250000
0
LINE
8
Calque 1
10
397.193000
20
2437.250000
11
396.653000
21
2436.980000
0
LINE
8
Calque 1
10
396.653000
20
2436.980000
11
396.317000
21
2436.840000
0
LINE
8
Calque 1
10
396.317000
20
2436.840000
11
395.724000
21
2436.450000
0
LINE
8
Calque 1
10
395.724000
20
2436.450000
11
394.711000
21
2435.820000
0
LINE
8
Calque 1
10
394.711000
20
2435.820000
11
394.324000
21
2435.460000
0
LINE
8
Calque 1
10
394.324000
20
2435.460000
11
393.767000
21
2435.030000
0
LINE
8
Calque 1
10
393.767000
20
2435.030000
11
393.190000
21
2434.590000
0
LINE
8
Calque 1
10
393.190000
20
2434.590000
11
392.653000
21
2434.290000
0
LINE
8
Calque 1
10
392.653000
20
2434.290000
11
391.886000
21
2433.790000
0
LINE
8
Calque 1
10
391.886000
20
2433.790000
11
391.566000
21
2433.530000
0
LINE
8
Calque 1
10
391.566000
20
2433.530000
11
389.984000
21
2432.360000
0
LINE
8
Calque 1
10
389.984000
20
2432.360000
11
388.625000
21
2431.510000
0
LINE
8
Calque 1
10
388.625000
20
2431.510000
11
388.627000
21
2431.510000
0
LINE
8
Calque 1
10
388.627000
20
2431.510000
11
389.357000
21
2431.680000
0
LINE
8
Calque 1
10
389.357000
20
2431.680000
11
391.079000
21
2432.100000
0
LINE
8
Calque 1
10
391.079000
20
2432.100000
11
392.219000
21
2432.260000
0
LINE
8
Calque 1
10
392.219000
20
2432.260000
11
392.613875
21
2432.292500
0
LINE
8
Calque 1
10
392.613875
20
2432.292500
11
392.636000
21
2432.280000
0
LINE
8
Calque 1
10
392.636000
20
2432.280000
11
394.768000
21
2432.790000
0
LINE
8
Calque 1
10
394.768000
20
2432.790000
11
396.802000
21
2433.340000
0
LINE
8
Calque 1
10
396.802000
20
2433.340000
11
397.875000
21
2433.490000
0
LINE
8
Calque 1
10
397.875000
20
2433.490000
11
398.982000
21
2433.510000
0
LINE
8
Calque 1
10
398.982000
20
2433.510000
11
399.149000
21
2433.540000
0
LINE
8
Calque 1
10
399.149000
20
2433.540000
11
400.154000
21
2433.720000
0
LINE
8
Calque 1
10
400.154000
20
2433.720000
11
400.215000
21
2433.730000
0
LINE
8
Calque 1
10
400.215000
20
2433.730000
11
400.523000
21
2433.850000
0
LINE
8
Calque 1
10
400.523000
20
2433.850000
11
400.752000
21
2433.890000
0
LINE
8
Calque 1
10
400.752000
20
2433.890000
11
400.803000
21
2433.900000
0
LINE
8
Calque 1
10
400.803000
20
2433.900000
11
400.846000
21
2433.910000
0
LINE
8
Calque 1
10
400.846000
20
2433.910000
11
400.870000
21
2433.910000
0
LINE
8
Calque 1
10
400.870000
20
2433.910000
11
400.855000
21
2433.910000
0
LINE
8
Calque 1
10
400.855000
20
2433.910000
11
401.351000
21
2433.990000
0
LINE
8
Calque 1
10
401.351000
20
2433.990000
11
402.482000
21
2434.180000
0
LINE
8
Calque 1
10
402.482000
20
2434.180000
11
403.782000
21
2434.310000
0
LINE
8
Calque 1
10
403.782000
20
2434.310000
11
405.094000
21
2434.520000
0
LINE
8
Calque 1
10
405.094000
20
2434.520000
11
405.695000
21
2434.620000
0
LINE
8
Calque 1
10
405.695000
20
2434.620000
11
406.345000
21
2434.660000
0
LINE
8
Calque 1
10
406.345000
20
2434.660000
11
407.143000
21
2434.780000
0
LINE
8
Calque 1
10
407.143000
20
2434.780000
11
409.108000
21
2435.230000
0
LINE
8
Calque 1
10
409.108000
20
2435.230000
11
410.196000
21
2435.420000
0
LINE
8
Calque 1
10
410.196000
20
2435.420000
11
411.063000
21
2435.530000
0
LINE
8
Calque 1
10
411.063000
20
2435.530000
11
412.552000
21
2435.880000
0
LINE
8
Calque 1
10
412.552000
20
2435.880000
11
414.961000
21
2436.080000
0
LINE
8
Calque 1
10
414.961000
20
2436.080000
11
417.107000
21
2436.430000
0
LINE
8
Calque 1
10
417.107000
20
2436.430000
11
417.612000
21
2436.457500
0
LINE
8
Calque 1
10
417.612000
20
2436.457500
11
417.628000
21
2436.440000
0
LINE
8
Calque 1
10
417.628000
20
2436.440000
11
417.875000
21
2436.450000
0
LINE
8
Calque 1
10
417.875000
20
2436.450000
11
418.112000
21
2436.510000
0
LINE
8
Calque 1
10
418.112000
20
2436.510000
11
418.682000
21
2436.600000
0
LINE
8
Calque 1
10
418.682000
20
2436.600000
11
420.035000
21
2436.710000
0
LINE
8
Calque 1
10
420.035000
20
2436.710000
11
420.947000
21
2436.750000
0
LINE
8
Calque 1
10
420.947000
20
2436.750000
11
421.564000
21
2436.860000
0
LINE
8
Calque 1
10
421.564000
20
2436.860000
11
421.565000
21
2436.860000
0
LINE
8
Calque 1
10
421.565000
20
2436.860000
11
422.102000
21
2436.930000
0
LINE
8
Calque 1
10
422.102000
20
2436.930000
11
422.312000
21
2436.940000
0
LINE
8
Calque 1
10
422.312000
20
2436.940000
11
422.313000
21
2436.940000
0
LINE
8
Calque 1
10
422.313000
20
2436.940000
11
422.554000
21
2436.940000
0
LINE
8
Calque 1
10
422.554000
20
2436.940000
11
422.463000
21
2436.950000
0
LINE
8
Calque 1
10
422.463000
20
2436.950000
11
422.474000
21
2436.950000
0
LINE
8
Calque 1
10
422.474000
20
2436.950000
11
422.462000
21
2436.950000
0
LINE
8
Calque 1
10
422.462000
20
2436.950000
11
422.598000
21
2436.970000
0
LINE
8
Calque 1
10
422.598000
20
2436.970000
11
422.945000
21
2437.030000
0
LINE
8
Calque 1
10
422.945000
20
2437.030000
11
423.840000
21
2437.140000
0
LINE
8
Calque 1
10
423.840000
20
2437.140000
11
425.576000
21
2437.150000
0
LINE
8
Calque 1
10
425.576000
20
2437.150000
11
425.657000
21
2437.170000
0
LINE
8
Calque 1
10
425.657000
20
2437.170000
11
426.012000
21
2437.210000
0
LINE
8
Calque 1
10
426.012000
20
2437.210000
11
426.632000
21
2437.210000
0
LINE
8
Calque 1
10
426.632000
20
2437.210000
11
427.117000
21
2437.190000
0
LINE
8
Calque 1
10
427.117000
20
2437.190000
11
427.151000
21
2437.180000
0
LINE
8
Calque 1
10
427.151000
20
2437.180000
11
427.242000
21
2437.190000
0
LINE
8
Calque 1
10
427.242000
20
2437.190000
11
427.831000
21
2437.220000
0
LINE
8
Calque 1
10
427.831000
20
2437.220000
11
428.407000
21
2437.170000
0
LINE
8
Calque 1
10
428.407000
20
2437.170000
11
428.684000
21
2437.150000
0
LINE
8
Calque 1
10
428.684000
20
2437.150000
11
428.685000
21
2437.150000
0
LINE
8
Calque 1
10
428.685000
20
2437.150000
11
429.157000
21
2437.080000
0
LINE
8
Calque 1
10
429.157000
20
2437.080000
11
429.390000
21
2437.050000
0
LINE
8
Calque 1
10
429.390000
20
2437.050000
11
430.035000
21
2437.060000
0
LINE
8
Calque 1
10
430.035000
20
2437.060000
11
431.027000
21
2437.020000
0
LINE
8
Calque 1
10
431.027000
20
2437.020000
11
432.109000
21
2437.090000
0
LINE
8
Calque 1
10
432.109000
20
2437.090000
11
434.046000
21
2437.020000
0
LINE
8
Calque 1
10
434.046000
20
2437.020000
11
435.774000
21
2436.910000
0
LINE
8
Calque 1
10
435.774000
20
2436.910000
11
436.234000
21
2436.850000
0
LINE
8
Calque 1
10
436.234000
20
2436.850000
11
436.627000
21
2436.770000
0
LINE
8
Calque 1
10
436.627000
20
2436.770000
11
436.950000
21
2436.740000
0
LINE
8
Calque 1
10
436.950000
20
2436.740000
11
437.645000
21
2436.660000
0
LINE
8
Calque 1
10
437.645000
20
2436.660000
11
438.679000
21
2436.440000
0
LINE
8
Calque 1
10
438.679000
20
2436.440000
11
438.919000
21
2436.430000
0
LINE
8
Calque 1
10
438.919000
20
2436.430000
11
439.521000
21
2436.360000
0
LINE
8
Calque 1
10
439.521000
20
2436.360000
11
439.867000
21
2436.360000
0
LINE
8
Calque 1
10
439.867000
20
2436.360000
11
440.966000
21
2436.340000
0
LINE
8
Calque 1
10
440.966000
20
2436.340000
11
441.450000
21
2436.290000
0
LINE
8
Calque 1
10
441.450000
20
2436.290000
11
442.894000
21
2436.260000
0
LINE
8
Calque 1
10
442.894000
20
2436.260000
11
444.999000
21
2436.110000
0
LINE
8
Calque 1
10
444.999000
20
2436.110000
11
446.900000
21
2436.060000
0
LINE
8
Calque 1
10
446.900000
20
2436.060000
11
449.300000
21
2435.740000
0
LINE
8
Calque 1
10
449.300000
20
2435.740000
11
450.521000
21
2435.600000
0
LINE
8
Calque 1
10
450.521000
20
2435.600000
11
451.212000
21
2435.550000
0
LINE
8
Calque 1
10
451.212000
20
2435.550000
11
452.636000
21
2435.290000
0
LINE
8
Calque 1
10
452.636000
20
2435.290000
11
456.129000
21
2434.710000
0
LINE
8
Calque 1
10
456.129000
20
2434.710000
11
457.101000
21
2434.590000
0
LINE
8
Calque 1
10
457.101000
20
2434.590000
11
457.349125
21
2434.538750
0
LINE
8
Calque 1
10
457.349125
20
2434.538750
11
457.322000
21
2434.540000
0
LINE
8
Calque 1
10
457.322000
20
2434.540000
11
457.423000
21
2434.510000
0
LINE
8
Calque 1
10
457.423000
20
2434.510000
11
457.681000
21
2434.440000
0
LINE
8
Calque 1
10
457.681000
20
2434.440000
11
458.024125
21
2434.355000
0
LINE
8
Calque 1
10
458.024125
20
2434.355000
11
458.104141
21
2434.335938
0
LINE
8
Calque 1
10
458.104141
20
2434.335938
11
457.996000
21
2434.360000
0
LINE
8
Calque 1
10
457.996000
20
2434.360000
11
458.176000
21
2434.320000
0
LINE
8
Calque 1
10
458.176000
20
2434.320000
11
458.189000
21
2434.320000
0
LINE
8
Calque 1
10
458.189000
20
2434.320000
11
458.378000
21
2434.300000
0
LINE
8
Calque 1
10
458.378000
20
2434.300000
11
458.712000
21
2434.240000
0
LINE
8
Calque 1
10
458.712000
20
2434.240000
11
459.459000
21
2434.090000
0
LINE
8
Calque 1
10
459.459000
20
2434.090000
11
459.662000
21
2434.040000
0
LINE
8
Calque 1
10
459.662000
20
2434.040000
11
461.159000
21
2433.860000
0
LINE
8
Calque 1
10
461.159000
20
2433.860000
11
461.832000
21
2433.760000
0
LINE
8
Calque 1
10
461.832000
20
2433.760000
11
461.915000
21
2433.740000
0
LINE
8
Calque 1
10
461.915000
20
2433.740000
11
462.002000
21
2433.730000
0
LINE
8
Calque 1
10
462.002000
20
2433.730000
11
462.091500
21
2433.720000
0
LINE
8
Calque 1
10
462.091500
20
2433.720000
11
462.490000
21
2433.680000
0
LINE
8
Calque 1
10
462.490000
20
2433.680000
11
462.871000
21
2433.630000
0
LINE
8
Calque 1
10
462.871000
20
2433.630000
11
463.324000
21
2433.560000
0
LINE
8
Calque 1
10
463.324000
20
2433.560000
11
463.850875
21
2433.415000
0
LINE
8
Calque 1
10
463.850875
20
2433.415000
11
463.879000
21
2433.390000
0
LINE
8
Calque 1
10
463.879000
20
2433.390000
11
466.596000
21
2432.870000
0
LINE
8
Calque 1
10
466.596000
20
2432.870000
11
466.708000
21
2432.850000
0
LINE
8
Calque 1
10
466.708000
20
2432.850000
11
466.888000
21
2432.850000
0
LINE
8
Calque 1
10
466.888000
20
2432.850000
11
467.320000
21
2432.810000
0
LINE
8
Calque 1
10
467.320000
20
2432.810000
11
469.239000
21
2432.470000
0
LINE
8
Calque 1
10
469.239000
20
2432.470000
11
471.221000
21
2431.860000
0
LINE
8
Calque 1
10
471.221000
20
2431.860000
11
471.524000
21
2431.790000
0
LINE
8
Calque 1
10
471.524000
20
2431.790000
11
471.654000
21
2431.770000
0
LINE
8
Calque 1
10
471.654000
20
2431.770000
11
471.721000
21
2431.750000
0
LINE
8
Calque 1
10
471.721000
20
2431.750000
11
471.762000
21
2431.730000
0
LINE
8
Calque 1
10
471.762000
20
2431.730000
11
471.856000
21
2431.700000
0
LINE
8
Calque 1
10
471.856000
20
2431.700000
11
471.843000
21
2431.700000
0
LINE
8
Calque 1
10
471.843000
20
2431.700000
11
472.375000
21
2431.510000
0
LINE
8
Calque 1
10
472.375000
20
2431.510000
11
472.357500
21
2431.532500
0
LINE
8
Calque 1
10
472.357500
20
2431.532500
11
472.811000
21
2431.390000
0
LINE
8
Calque 1
10
472.811000
20
2431.390000
11
473.968000
21
2430.870000
0
LINE
8
Calque 1
10
473.968000
20
2430.870000
11
474.130000
21
2430.810000
0
LINE
8
Calque 1
10
474.130000
20
2430.810000
11
474.163000
21
2430.800000
0
LINE
8
Calque 1
10
474.163000
20
2430.800000
11
474.325000
21
2430.760000
0
LINE
8
Calque 1
10
474.325000
20
2430.760000
11
473.800000
21
2431.150000
0
LINE
8
Calque 1
10
473.800000
20
2431.150000
11
473.453000
21
2431.500000
0
LINE
8
Calque 1
10
473.453000
20
2431.500000
11
473.372000
21
2431.610000
0
LINE
8
Calque 1
10
473.372000
20
2431.610000
11
473.020000
21
2431.890000
0
LINE
8
Calque 1
10
473.020000
20
2431.890000
11
473.034125
21
2431.846250
0
LINE
8
Calque 1
10
473.034125
20
2431.846250
11
472.509000
21
2432.170000
0
LINE
8
Calque 1
10
472.509000
20
2432.170000
11
471.728000
21
2432.740000
0
LINE
8
Calque 1
10
471.728000
20
2432.740000
11
469.965000
21
2433.940000
0
LINE
8
Calque 1
10
469.965000
20
2433.940000
11
469.286000
21
2434.460000
0
LINE
8
Calque 1
10
469.286000
20
2434.460000
11
468.584000
21
2434.930000
0
LINE
8
Calque 1
10
468.584000
20
2434.930000
11
467.633000
21
2435.480000
0
LINE
8
Calque 1
10
467.633000
20
2435.480000
11
467.175000
21
2435.773750
0
LINE
8
Calque 1
10
467.175000
20
2435.773750
11
467.131000
21
2435.820000
0
LINE
8
Calque 1
10
467.131000
20
2435.820000
11
466.114000
21
2436.270000
0
LINE
8
Calque 1
10
466.114000
20
2436.270000
11
465.466000
21
2436.660000
0
LINE
8
Calque 1
10
465.466000
20
2436.660000
11
464.837000
21
2437.000000
0
LINE
8
Calque 1
10
464.837000
20
2437.000000
11
463.727000
21
2437.480000
0
LINE
8
Calque 1
10
463.727000
20
2437.480000
11
462.946000
21
2437.890000
0
LINE
8
Calque 1
10
462.946000
20
2437.890000
11
462.153000
21
2438.270000
0
LINE
8
Calque 1
10
462.153000
20
2438.270000
11
462.049000
21
2438.320000
0
LINE
8
Calque 1
10
462.049000
20
2438.320000
11
461.169000
21
2438.790000
0
LINE
8
Calque 1
10
461.169000
20
2438.790000
11
460.748000
21
2439.010000
0
LINE
8
Calque 1
10
460.748000
20
2439.010000
11
459.886000
21
2439.340000
0
LINE
8
Calque 1
10
459.886000
20
2439.340000
11
458.002000
21
2440.230000
0
LINE
8
Calque 1
10
458.002000
20
2440.230000
11
455.770000
21
2441.230000
0
LINE
8
Calque 1
10
455.770000
20
2441.230000
11
453.927000
21
2441.960000
0
LINE
8
Calque 1
10
453.927000
20
2441.960000
11
453.005000
21
2442.220000
0
LINE
8
Calque 1
10
453.005000
20
2442.220000
11
452.120000
21
2442.560000
0
LINE
8
Calque 1
10
452.120000
20
2442.560000
11
451.319250
21
2442.853750
0
LINE
8
Calque 1
10
451.319250
20
2442.853750
11
451.264000
21
2442.870000
0
LINE
8
Calque 1
10
451.264000
20
2442.870000
11
450.890000
21
2442.990000
0
LINE
8
Calque 1
10
450.890000
20
2442.990000
11
450.171000
21
2443.260000
0
LINE
8
Calque 1
10
450.171000
20
2443.260000
11
449.508000
21
2443.520000
0
LINE
8
Calque 1
10
449.508000
20
2443.520000
11
447.312000
21
2444.040000
0
LINE
8
Calque 1
10
447.312000
20
2444.040000
11
446.538000
21
2444.300000
0
LINE
8
Calque 1
10
446.538000
20
2444.300000
11
445.583000
21
2444.530000
0
LINE
8
Calque 1
10
445.583000
20
2444.530000
11
444.924000
21
2444.720000
0
LINE
8
Calque 1
10
444.924000
20
2444.720000
11
443.960000
21
2444.910000
0
LINE
8
Calque 1
10
443.960000
20
2444.910000
11
441.520000
21
2445.360000
0
LINE
8
Calque 1
10
441.520000
20
2445.360000
11
440.743000
21
2445.460000
0
LINE
8
Calque 1
10
440.743000
20
2445.460000
11
438.294000
21
2445.890000
0
LINE
8
Calque 1
10
438.294000
20
2445.890000
11
437.619000
21
2445.900000
0
LINE
8
Calque 1
10
437.619000
20
2445.900000
11
435.608000
21
2445.950000
0
LINE
8
Calque 1
10
435.608000
20
2445.950000
11
433.860000
21
2446.070000
0
LINE
8
Calque 1
10
433.860000
20
2446.070000
11
432.741000
21
2446.100000
0
LINE
8
Calque 1
10
432.741000
20
2446.100000
11
431.017000
21
2446.150000
0
LINE
8
Calque 1
10
431.017000
20
2446.150000
11
431.017000
21
2446.150000
0
LINE
8
Calque 1
10
428.407000
20
2437.170000
11
428.317000
21
2437.160000
0
LINE
8
Calque 1
10
428.317000
20
2437.160000
11
428.407000
21
2437.170000
0
LINE
8
Calque 1
10
428.407000
20
2437.170000
11
428.407000
21
2437.170000
0
LINE
8
Calque 1
10
404.956000
20
2440.550000
11
405.031000
21
2440.580000
0
LINE
8
Calque 1
10
405.031000
20
2440.580000
11
404.956000
21
2440.550000
0
LINE
8
Calque 1
10
404.956000
20
2440.550000
11
404.956000
21
2440.550000
0
LINE
8
Calque 1
10
403.020000
20
2345.610000
11
403.036000
21
2345.590000
0
LINE
8
Calque 1
10
403.036000
20
2345.590000
11
402.985000
21
2345.050000
0
LINE
8
Calque 1
10
402.985000
20
2345.050000
11
402.935000
21
2344.840000
0
LINE
8
Calque 1
10
402.935000
20
2344.840000
11
402.743000
21
2344.000000
0
LINE
8
Calque 1
10
402.743000
20
2344.000000
11
402.565000
21
2342.590000
0
LINE
8
Calque 1
10
402.565000
20
2342.590000
11
402.437000
21
2342.130000
0
LINE
8
Calque 1
10
402.437000
20
2342.130000
11
402.414000
21
2342.050000
0
LINE
8
Calque 1
10
402.414000
20
2342.050000
11
402.366000
21
2341.910000
0
LINE
8
Calque 1
10
402.366000
20
2341.910000
11
402.225000
21
2341.480000
0
LINE
8
Calque 1
10
402.225000
20
2341.480000
11
402.224000
21
2341.480000
0
LINE
8
Calque 1
10
402.224000
20
2341.480000
11
401.989750
21
2340.952500
0
LINE
8
Calque 1
10
401.989750
20
2340.952500
11
401.943000
21
2340.920000
0
LINE
8
Calque 1
10
401.943000
20
2340.920000
11
401.620000
21
2340.390000
0
LINE
8
Calque 1
10
401.620000
20
2340.390000
11
401.362125
21
2339.343750
0
LINE
8
Calque 1
10
401.362125
20
2339.343750
11
400.994000
21
2338.890000
0
LINE
8
Calque 1
10
400.994000
20
2338.890000
11
401.318000
21
2338.630000
0
LINE
8
Calque 1
10
401.318000
20
2338.630000
11
401.850000
21
2338.090000
0
LINE
8
Calque 1
10
401.850000
20
2338.090000
11
402.031000
21
2337.890000
0
LINE
8
Calque 1
10
402.031000
20
2337.890000
11
402.045000
21
2337.870000
0
LINE
8
Calque 1
10
402.045000
20
2337.870000
11
402.034000
21
2337.890000
0
LINE
8
Calque 1
10
402.034000
20
2337.890000
11
402.214000
21
2337.710000
0
LINE
8
Calque 1
10
402.214000
20
2337.710000
11
402.661000
21
2337.270000
0
LINE
8
Calque 1
10
402.661000
20
2337.270000
11
402.972000
21
2336.850000
0
LINE
8
Calque 1
10
402.972000
20
2336.850000
11
403.749000
21
2335.800000
0
LINE
8
Calque 1
10
403.749000
20
2335.800000
11
404.307000
21
2334.700000
0
LINE
8
Calque 1
10
404.307000
20
2334.700000
11
404.588000
21
2334.140000
0
LINE
8
Calque 1
10
404.588000
20
2334.140000
11
404.587000
21
2334.140000
0
LINE
8
Calque 1
10
404.587000
20
2334.140000
11
404.608000
21
2334.090000
0
LINE
8
Calque 1
10
404.608000
20
2334.090000
11
404.644000
21
2334.010000
0
LINE
8
Calque 1
10
404.644000
20
2334.010000
11
404.668000
21
2333.960000
0
LINE
8
Calque 1
10
404.668000
20
2333.960000
11
405.249000
21
2331.950000
0
LINE
8
Calque 1
10
405.249000
20
2331.950000
11
405.327000
21
2331.390000
0
LINE
8
Calque 1
10
405.327000
20
2331.390000
11
405.303000
21
2331.120000
0
LINE
8
Calque 1
10
405.303000
20
2331.120000
11
405.346000
21
2330.810000
0
LINE
8
Calque 1
10
405.346000
20
2330.810000
11
405.362000
21
2330.720000
0
LINE
8
Calque 1
10
405.362000
20
2330.720000
11
405.368250
21
2329.223750
0
LINE
8
Calque 1
10
405.368250
20
2329.223750
11
405.223000
21
2328.050000
0
LINE
8
Calque 1
10
405.223000
20
2328.050000
11
404.949000
21
2326.030000
0
LINE
8
Calque 1
10
404.949000
20
2326.030000
11
404.837000
21
2325.490000
0
LINE
8
Calque 1
10
404.837000
20
2325.490000
11
404.778000
21
2325.210000
0
LINE
8
Calque 1
10
404.778000
20
2325.210000
11
404.766000
21
2325.160000
0
LINE
8
Calque 1
10
404.766000
20
2325.160000
11
404.516000
21
2323.410000
0
LINE
8
Calque 1
10
404.516000
20
2323.410000
11
404.368000
21
2322.320000
0
LINE
8
Calque 1
10
404.368000
20
2322.320000
11
403.894625
21
2320.830000
0
LINE
8
Calque 1
10
403.894625
20
2320.830000
11
403.470000
21
2319.760000
0
LINE
8
Calque 1
10
403.470000
20
2319.760000
11
403.479125
21
2319.758750
0
LINE
8
Calque 1
10
403.479125
20
2319.758750
11
403.375000
21
2319.420000
0
LINE
8
Calque 1
10
403.375000
20
2319.420000
11
404.049000
21
2319.490000
0
LINE
8
Calque 1
10
404.049000
20
2319.490000
11
404.117000
21
2319.500000
0
LINE
8
Calque 1
10
404.117000
20
2319.500000
11
406.463000
21
2319.770000
0
LINE
8
Calque 1
10
406.463000
20
2319.770000
11
406.508000
21
2319.780000
0
LINE
8
Calque 1
10
406.508000
20
2319.780000
11
406.592000
21
2319.780000
0
LINE
8
Calque 1
10
406.592000
20
2319.780000
11
406.863000
21
2319.780000
0
LINE
8
Calque 1
10
406.863000
20
2319.780000
11
407.133000
21
2319.760000
0
LINE
8
Calque 1
10
407.133000
20
2319.760000
11
407.315000
21
2319.780000
0
LINE
8
Calque 1
10
407.315000
20
2319.780000
11
407.720000
21
2319.770000
0
LINE
8
Calque 1
10
407.720000
20
2319.770000
11
408.288000
21
2319.710000
0
LINE
8
Calque 1
10
408.288000
20
2319.710000
11
408.295000
21
2319.750000
0
LINE
8
Calque 1
10
408.295000
20
2319.750000
11
408.549000
21
2321.260000
0
LINE
8
Calque 1
10
408.549000
20
2321.260000
11
408.560000
21
2321.330000
0
LINE
8
Calque 1
10
408.560000
20
2321.330000
11
408.574000
21
2321.370000
0
LINE
8
Calque 1
10
408.574000
20
2321.370000
11
409.488000
21
2324.070000
0
LINE
8
Calque 1
10
409.488000
20
2324.070000
11
410.362000
21
2326.370000
0
LINE
8
Calque 1
10
410.362000
20
2326.370000
11
410.617000
21
2327.600000
0
LINE
8
Calque 1
10
410.617000
20
2327.600000
11
410.753000
21
2328.320000
0
LINE
8
Calque 1
10
410.753000
20
2328.320000
11
410.816000
21
2328.560000
0
LINE
8
Calque 1
10
410.816000
20
2328.560000
11
410.873000
21
2328.720000
0
LINE
8
Calque 1
10
410.873000
20
2328.720000
11
410.950000
21
2329.070000
0
LINE
8
Calque 1
10
410.950000
20
2329.070000
11
411.018000
21
2329.390000
0
LINE
8
Calque 1
10
411.018000
20
2329.390000
11
411.024000
21
2329.430000
0
LINE
8
Calque 1
10
411.024000
20
2329.430000
11
411.052000
21
2329.610000
0
LINE
8
Calque 1
10
411.052000
20
2329.610000
11
411.056000
21
2329.630000
0
LINE
8
Calque 1
10
411.056000
20
2329.630000
11
411.060000
21
2329.670000
0
LINE
8
Calque 1
10
411.060000
20
2329.670000
11
411.121000
21
2330.130000
0
LINE
8
Calque 1
10
411.121000
20
2330.130000
11
411.122000
21
2330.150000
0
LINE
8
Calque 1
10
411.122000
20
2330.150000
11
411.157000
21
2330.330000
0
LINE
8
Calque 1
10
411.157000
20
2330.330000
11
411.194000
21
2330.310000
0
LINE
8
Calque 1
10
411.194000
20
2330.310000
11
411.199000
21
2330.330000
0
LINE
8
Calque 1
10
411.199000
20
2330.330000
11
411.227000
21
2330.430000
0
LINE
8
Calque 1
10
411.227000
20
2330.430000
11
411.254000
21
2330.500000
0
LINE
8
Calque 1
10
411.254000
20
2330.500000
11
411.154000
21
2330.340000
0
LINE
8
Calque 1
10
411.154000
20
2330.340000
11
411.157000
21
2330.350000
0
LINE
8
Calque 1
10
411.157000
20
2330.350000
11
411.154000
21
2330.350000
0
LINE
8
Calque 1
10
411.154000
20
2330.350000
11
411.232000
21
2330.760000
0
LINE
8
Calque 1
10
411.232000
20
2330.760000
11
411.249000
21
2330.820000
0
LINE
8
Calque 1
10
411.249000
20
2330.820000
11
411.659000
21
2332.360000
0
LINE
8
Calque 1
10
411.659000
20
2332.360000
11
411.930000
21
2333.290000
0
LINE
8
Calque 1
10
411.930000
20
2333.290000
11
411.949000
21
2333.840000
0
LINE
8
Calque 1
10
411.949000
20
2333.840000
11
411.950000
21
2333.880000
0
LINE
8
Calque 1
10
411.950000
20
2333.880000
11
411.954000
21
2333.930000
0
LINE
8
Calque 1
10
411.954000
20
2333.930000
11
412.206000
21
2336.070000
0
LINE
8
Calque 1
10
412.206000
20
2336.070000
11
412.211000
21
2336.110000
0
LINE
8
Calque 1
10
412.211000
20
2336.110000
11
412.870000
21
2339.630000
0
LINE
8
Calque 1
10
412.870000
20
2339.630000
11
413.043000
21
2340.630000
0
LINE
8
Calque 1
10
413.043000
20
2340.630000
11
413.045000
21
2340.710000
0
LINE
8
Calque 1
10
413.045000
20
2340.710000
11
413.098000
21
2342.830000
0
LINE
8
Calque 1
10
413.098000
20
2342.830000
11
413.099000
21
2342.880000
0
LINE
8
Calque 1
10
413.099000
20
2342.880000
11
413.154000
21
2343.350000
0
LINE
8
Calque 1
10
413.154000
20
2343.350000
11
413.159000
21
2343.360000
0
LINE
8
Calque 1
10
413.159000
20
2343.360000
11
413.164000
21
2343.440000
0
LINE
8
Calque 1
10
413.164000
20
2343.440000
11
413.106000
21
2343.770000
0
LINE
8
Calque 1
10
413.106000
20
2343.770000
11
413.099000
21
2343.800000
0
LINE
8
Calque 1
10
413.099000
20
2343.800000
11
413.074000
21
2343.810000
0
LINE
8
Calque 1
10
413.074000
20
2343.810000
11
412.188000
21
2344.170000
0
LINE
8
Calque 1
10
412.188000
20
2344.170000
11
412.145000
21
2344.190000
0
LINE
8
Calque 1
10
412.145000
20
2344.190000
11
412.090000
21
2344.210000
0
LINE
8
Calque 1
10
412.090000
20
2344.210000
11
410.723000
21
2344.720000
0
LINE
8
Calque 1
10
410.723000
20
2344.720000
11
410.681000
21
2344.730000
0
LINE
8
Calque 1
10
410.681000
20
2344.730000
11
409.454000
21
2345.010000
0
LINE
8
Calque 1
10
409.454000
20
2345.010000
11
408.405000
21
2345.250000
0
LINE
8
Calque 1
10
408.405000
20
2345.250000
11
407.885000
21
2345.260000
0
LINE
8
Calque 1
10
407.885000
20
2345.260000
11
406.007000
21
2345.420000
0
LINE
8
Calque 1
10
406.007000
20
2345.420000
11
404.641000
21
2345.500000
0
LINE
8
Calque 1
10
404.641000
20
2345.500000
11
403.020000
21
2345.610000
0
LINE
8
Calque 1
10
403.020000
20
2345.610000
11
403.020000
21
2345.610000
0
LINE
8
Calque 1
10
411.194000
20
2330.310000
11
411.194000
21
2330.310000
0
LINE
8
Calque 1
10
411.194000
20
2330.310000
11
411.194000
21
2330.310000
0
LINE
8
Calque 1
10
411.194000
20
2330.310000
11
411.194000
21
2330.310000
0
LINE
8
Calque 1
10
324.558000
20
2240.070000
11
321.793771
21
2244.393266
0
LINE
8
Calque 1
10
321.793771
20
2244.393266
11
318.659409
21
2248.451914
0
LINE
8
Calque 1
10
318.659409
20
2248.451914
11
315.190778
21
2252.241296
0
LINE
8
Calque 1
10
315.190778
20
2252.241296
11
311.423741
21
2255.756763
0
LINE
8
Calque 1
10
311.423741
20
2255.756763
11
307.394162
21
2258.993665
0
LINE
8
Calque 1
10
307.394162
20
2258.993665
11
303.137903
21
2261.947355
0
LINE
8
Calque 1
10
303.137903
20
2261.947355
11
298.690828
21
2264.613183
0
LINE
8
Calque 1
10
298.690828
20
2264.613183
11
294.088800
21
2266.986500
0
LINE
8
Calque 1
10
294.088800
20
2266.986500
11
294.087800
21
2266.988500
0
LINE
8
Calque 1
10
294.087800
20
2266.988500
11
288.401538
21
2269.567481
0
LINE
8
Calque 1
10
288.401538
20
2269.567481
11
282.641726
21
2271.971221
0
LINE
8
Calque 1
10
282.641726
20
2271.971221
11
276.813534
21
2274.200748
0
LINE
8
Calque 1
10
276.813534
20
2274.200748
11
270.922134
21
2276.257091
0
LINE
8
Calque 1
10
270.922134
20
2276.257091
11
264.972697
21
2278.141277
0
LINE
8
Calque 1
10
264.972697
20
2278.141277
11
258.970394
21
2279.854334
0
LINE
8
Calque 1
10
258.970394
20
2279.854334
11
252.920396
21
2281.397291
0
LINE
8
Calque 1
10
252.920396
20
2281.397291
11
246.827875
21
2282.771175
0
LINE
8
Calque 1
10
246.827875
20
2282.771175
11
240.698001
21
2283.977015
0
LINE
8
Calque 1
10
240.698001
20
2283.977015
11
234.535946
21
2285.015838
0
LINE
8
Calque 1
10
234.535946
20
2285.015838
11
228.346882
21
2285.888673
0
LINE
8
Calque 1
10
228.346882
20
2285.888673
11
222.135978
21
2286.596547
0
LINE
8
Calque 1
10
222.135978
20
2286.596547
11
215.908407
21
2287.140489
0
LINE
8
Calque 1
10
215.908407
20
2287.140489
11
209.669339
21
2287.521526
0
LINE
8
Calque 1
10
209.669339
20
2287.521526
11
203.423947
21
2287.740687
0
LINE
8
Calque 1
10
203.423947
20
2287.740687
11
197.177400
21
2287.799000
0
LINE
8
Calque 1
10
197.177400
20
2287.799000
11
197.176400
21
2287.801000
0
LINE
8
Calque 1
10
197.176400
20
2287.801000
11
188.885400
21
2287.641899
0
LINE
8
Calque 1
10
188.885400
20
2287.641899
11
180.597175
21
2287.210301
0
LINE
8
Calque 1
10
180.597175
20
2287.210301
11
172.317163
21
2286.532240
0
LINE
8
Calque 1
10
172.317163
20
2286.532240
11
164.050800
21
2285.633750
0
LINE
8
Calque 1
10
164.050800
20
2285.633750
11
164.040600
21
2285.631750
0
LINE
8
Calque 1
10
164.040600
20
2285.631750
11
152.860271
21
2284.113767
0
LINE
8
Calque 1
10
152.860271
20
2284.113767
11
141.737820
21
2282.196062
0
LINE
8
Calque 1
10
141.737820
20
2282.196062
11
130.697637
21
2279.863405
0
LINE
8
Calque 1
10
130.697637
20
2279.863405
11
119.764113
21
2277.100564
0
LINE
8
Calque 1
10
119.764113
20
2277.100564
11
108.961636
21
2273.892308
0
LINE
8
Calque 1
10
108.961636
20
2273.892308
11
98.314598
21
2270.223408
0
LINE
8
Calque 1
10
98.314598
20
2270.223408
11
87.847390
21
2266.078632
0
LINE
8
Calque 1
10
87.847390
20
2266.078632
11
77.584400
21
2261.442750
0
LINE
8
Calque 1
10
77.584400
20
2261.442750
11
77.584400
21
2261.440000
0
LINE
8
Calque 1
10
77.584400
20
2261.440000
11
70.145426
21
2257.675014
0
LINE
8
Calque 1
10
70.145426
20
2257.675014
11
62.944000
21
2253.595980
0
LINE
8
Calque 1
10
62.944000
20
2253.595980
11
57.460513
21
2249.984661
0
LINE
8
Calque 1
10
57.460513
20
2249.984661
11
52.194866
21
2246.058114
0
LINE
8
Calque 1
10
52.194866
20
2246.058114
11
47.162567
21
2241.832754
0
LINE
8
Calque 1
10
47.162567
20
2241.832754
11
42.379125
21
2237.324996
0
LINE
8
Calque 1
10
42.379125
20
2237.324996
11
37.860049
21
2232.551255
0
LINE
8
Calque 1
10
37.860049
20
2232.551255
11
33.620847
21
2227.527945
0
LINE
8
Calque 1
10
33.620847
20
2227.527945
11
29.677028
21
2222.271482
0
LINE
8
Calque 1
10
29.677028
20
2222.271482
11
26.044100
21
2216.798280
0
LINE
8
Calque 1
10
26.044100
20
2216.798280
11
22.709840
21
2211.038180
0
LINE
8
Calque 1
10
22.709840
20
2211.038180
11
19.388494
21
2204.477100
0
LINE
8
Calque 1
10
19.388494
20
2204.477100
11
17.898470
21
2201.135109
0
LINE
8
Calque 1
10
17.898470
20
2201.135109
11
16.545940
21
2197.744780
0
LINE
8
Calque 1
10
16.545940
20
2197.744780
11
16.531180
21
2197.706380
0
LINE
8
Calque 1
10
16.531180
20
2197.706380
11
16.012833
21
2196.127790
0
LINE
8
Calque 1
10
16.012833
20
2196.127790
11
18.586537
21
2195.929491
0
LINE
8
Calque 1
10
18.586537
20
2195.929491
11
21.164612
21
2195.893800
0
LINE
8
Calque 1
10
21.164612
20
2195.893800
11
23.736798
21
2196.027091
0
LINE
8
Calque 1
10
23.736798
20
2196.027091
11
26.292833
21
2196.335740
0
LINE
8
Calque 1
10
26.292833
20
2196.335740
11
31.187157
21
2197.464519
0
LINE
8
Calque 1
10
31.187157
20
2197.464519
11
36.092788
21
2198.919913
0
LINE
8
Calque 1
10
36.092788
20
2198.919913
11
41.062716
21
2200.506199
0
LINE
8
Calque 1
10
41.062716
20
2200.506199
11
46.149933
21
2202.027660
0
LINE
8
Calque 1
10
46.149933
20
2202.027660
11
45.976553
21
2201.972360
0
LINE
8
Calque 1
10
45.976553
20
2201.972360
11
47.367628
21
2202.396866
0
LINE
8
Calque 1
10
47.367628
20
2202.396866
11
48.840274
21
2202.674136
0
LINE
8
Calque 1
10
48.840274
20
2202.674136
11
50.377535
21
2202.759049
0
LINE
8
Calque 1
10
50.377535
20
2202.759049
11
51.962453
21
2202.606480
0
LINE
8
Calque 1
10
51.962453
20
2202.606480
11
52.018253
21
2202.595780
0
LINE
8
Calque 1
10
52.018253
20
2202.595780
11
54.300355
21
2201.892418
0
LINE
8
Calque 1
10
54.300355
20
2201.892418
11
55.442618
21
2201.280039
0
LINE
8
Calque 1
10
55.442618
20
2201.280039
11
56.525623
21
2200.434000
0
LINE
8
Calque 1
10
56.525623
20
2200.434000
11
57.259303
21
2199.469030
0
LINE
8
Calque 1
10
57.259303
20
2199.469030
11
57.604153
21
2198.472930
0
LINE
8
Calque 1
10
57.604153
20
2198.472930
11
57.688542
21
2197.632483
0
LINE
8
Calque 1
10
57.688542
20
2197.632483
11
57.640353
21
2196.928070
0
LINE
8
Calque 1
10
57.640353
20
2196.928070
11
57.447173
21
2196.250850
0
LINE
8
Calque 1
10
57.447173
20
2196.250850
11
56.698483
21
2194.802781
0
LINE
8
Calque 1
10
56.698483
20
2194.802781
11
55.822503
21
2193.454638
0
LINE
8
Calque 1
10
55.822503
20
2193.454638
11
53.771863
21
2191.054680
0
LINE
8
Calque 1
10
53.771863
20
2191.054680
11
51.590856
21
2189.121391
0
LINE
8
Calque 1
10
51.590856
20
2189.121391
11
49.227636
21
2187.533130
0
LINE
8
Calque 1
10
49.227636
20
2187.533130
11
46.755263
21
2186.230717
0
LINE
8
Calque 1
10
46.755263
20
2186.230717
11
44.246803
21
2185.154970
0
LINE
8
Calque 1
10
44.246803
20
2185.154970
11
44.191403
21
2185.134870
0
LINE
8
Calque 1
10
44.191403
20
2185.134870
11
35.405994
21
2182.057000
0
LINE
8
Calque 1
10
35.405994
20
2182.057000
11
30.922325
21
2180.664913
0
LINE
8
Calque 1
10
30.922325
20
2180.664913
11
26.360403
21
2179.442540
0
LINE
8
Calque 1
10
26.360403
20
2179.442540
11
26.308403
21
2179.430540
0
LINE
8
Calque 1
10
26.308403
20
2179.430540
11
20.676906
21
2178.491644
0
LINE
8
Calque 1
10
20.676906
20
2178.491644
11
14.994003
21
2178.054310
0
LINE
8
Calque 1
10
14.994003
20
2178.054310
11
15.937208
21
2174.864781
0
LINE
8
Calque 1
10
15.937208
20
2174.864781
11
17.174199
21
2171.761793
0
LINE
8
Calque 1
10
17.174199
20
2171.761793
11
18.684665
21
2168.764288
0
LINE
8
Calque 1
10
18.684665
20
2168.764288
11
20.448293
21
2165.891210
0
LINE
8
Calque 1
10
20.448293
20
2165.891210
11
24.751922
21
2165.613932
0
LINE
8
Calque 1
10
24.751922
20
2165.613932
11
29.118123
21
2165.589030
0
LINE
8
Calque 1
10
29.118123
20
2165.589030
11
29.168623
21
2165.589550
0
LINE
8
Calque 1
10
29.168623
20
2165.589550
11
32.999137
21
2165.743676
0
LINE
8
Calque 1
10
32.999137
20
2165.743676
11
36.667793
21
2166.325820
0
LINE
8
Calque 1
10
36.667793
20
2166.325820
11
36.709793
21
2166.334820
0
LINE
8
Calque 1
10
36.709793
20
2166.334820
11
39.157806
21
2167.023902
0
LINE
8
Calque 1
10
39.157806
20
2167.023902
11
41.716028
21
2167.915760
0
LINE
8
Calque 1
10
41.716028
20
2167.915760
11
44.436332
21
2168.827463
0
LINE
8
Calque 1
10
44.436332
20
2168.827463
11
47.370593
21
2169.576080
0
LINE
8
Calque 1
10
47.370593
20
2169.576080
11
49.070693
21
2169.856571
0
LINE
8
Calque 1
10
49.070693
20
2169.856571
11
50.796297
21
2169.698126
0
LINE
8
Calque 1
10
50.796297
20
2169.698126
11
52.436076
21
2169.060958
0
LINE
8
Calque 1
10
52.436076
20
2169.060958
11
53.878703
21
2167.905280
0
LINE
8
Calque 1
10
53.878703
20
2167.905280
11
54.473184
21
2167.170362
0
LINE
8
Calque 1
10
54.473184
20
2167.170362
11
54.901013
21
2166.379578
0
LINE
8
Calque 1
10
54.901013
20
2166.379578
11
55.170426
21
2165.550441
0
LINE
8
Calque 1
10
55.170426
20
2165.550441
11
55.289662
21
2164.700461
0
LINE
8
Calque 1
10
55.289662
20
2164.700461
11
55.110551
21
2163.008019
0
LINE
8
Calque 1
10
55.110551
20
2163.008019
11
54.429583
21
2161.442340
0
LINE
8
Calque 1
10
54.429583
20
2161.442340
11
54.338083
21
2161.307190
0
LINE
8
Calque 1
10
54.338083
20
2161.307190
11
53.224802
21
2160.009089
0
LINE
8
Calque 1
10
53.224802
20
2160.009089
11
52.035233
21
2158.964889
0
LINE
8
Calque 1
10
52.035233
20
2158.964889
11
49.746873
21
2157.361600
0
LINE
8
Calque 1
10
49.746873
20
2157.361600
11
49.682673
21
2157.318800
0
LINE
8
Calque 1
10
49.682673
20
2157.318800
11
43.533443
21
2153.356756
0
LINE
8
Calque 1
10
43.533443
20
2153.356756
11
40.324673
21
2151.431859
0
LINE
8
Calque 1
10
40.324673
20
2151.431859
11
36.967273
21
2149.652330
0
LINE
8
Calque 1
10
36.967273
20
2149.652330
11
36.902773
21
2149.622030
0
LINE
8
Calque 1
10
36.902773
20
2149.622030
11
36.600993
21
2149.503920
0
LINE
8
Calque 1
10
36.600993
20
2149.503920
11
41.125492
21
2146.360513
0
LINE
8
Calque 1
10
41.125492
20
2146.360513
11
45.836839
21
2143.486144
0
LINE
8
Calque 1
10
45.836839
20
2143.486144
11
50.710713
21
2140.888387
0
LINE
8
Calque 1
10
50.710713
20
2140.888387
11
55.722793
21
2138.574820
0
LINE
8
Calque 1
10
55.722793
20
2138.574820
11
59.501457
21
2137.061806
0
LINE
8
Calque 1
10
59.501457
20
2137.061806
11
63.344943
21
2135.657460
0
LINE
8
Calque 1
10
63.344943
20
2135.657460
11
66.656793
21
2139.597170
0
LINE
8
Calque 1
10
66.656793
20
2139.597170
11
69.381448
21
2142.573604
0
LINE
8
Calque 1
10
69.381448
20
2142.573604
11
72.322943
21
2145.372910
0
LINE
8
Calque 1
10
72.322943
20
2145.372910
11
73.927710
21
2146.791912
0
LINE
8
Calque 1
10
73.927710
20
2146.791912
11
75.738679
21
2148.222983
0
LINE
8
Calque 1
10
75.738679
20
2148.222983
11
77.855950
21
2149.450672
0
LINE
8
Calque 1
10
77.855950
20
2149.450672
11
79.060730
21
2149.920921
0
LINE
8
Calque 1
10
79.060730
20
2149.920921
11
80.379623
21
2150.259530
0
LINE
8
Calque 1
10
80.379623
20
2150.259530
11
80.938121
21
2150.365010
0
LINE
8
Calque 1
10
80.938121
20
2150.365010
11
81.852403
21
2150.388410
0
LINE
8
Calque 1
10
81.852403
20
2150.388410
11
83.090049
21
2150.024186
0
LINE
8
Calque 1
10
83.090049
20
2150.024186
11
84.215443
21
2149.186300
0
LINE
8
Calque 1
10
84.215443
20
2149.186300
11
84.819602
21
2148.269513
0
LINE
8
Calque 1
10
84.819602
20
2148.269513
11
84.871485
21
2148.078743
0
LINE
8
Calque 1
10
84.871485
20
2148.078743
11
84.823033
21
2148.113930
0
LINE
8
Calque 1
10
84.823033
20
2148.113930
11
85.076114
21
2147.693120
0
LINE
8
Calque 1
10
85.076114
20
2147.693120
11
85.492703
21
2146.746230
0
LINE
8
Calque 1
10
85.492703
20
2146.746230
11
85.678273
21
2145.942200
0
LINE
8
Calque 1
10
85.678273
20
2145.942200
11
85.814693
21
2145.122920
0
LINE
8
Calque 1
10
85.814693
20
2145.122920
11
86.006753
21
2143.809450
0
LINE
8
Calque 1
10
86.006753
20
2143.809450
11
86.258478
21
2142.063353
0
LINE
8
Calque 1
10
86.258478
20
2142.063353
11
86.381383
21
2139.781980
0
LINE
8
Calque 1
10
86.381383
20
2139.781980
11
86.177835
21
2138.400325
0
LINE
8
Calque 1
10
86.177835
20
2138.400325
11
85.779235
21
2137.236991
0
LINE
8
Calque 1
10
85.779235
20
2137.236991
11
84.877133
21
2135.482420
0
LINE
8
Calque 1
10
84.877133
20
2135.482420
11
83.712475
21
2132.937194
0
LINE
8
Calque 1
10
83.712475
20
2132.937194
11
82.351713
21
2130.074170
0
LINE
8
Calque 1
10
82.351713
20
2130.074170
11
86.296993
21
2129.161960
0
LINE
8
Calque 1
10
86.296993
20
2129.161960
11
88.418253
21
2128.767220
0
LINE
8
Calque 1
10
88.418253
20
2128.767220
11
90.108864
21
2131.060618
0
LINE
8
Calque 1
10
90.108864
20
2131.060618
11
91.128869
21
2132.135701
0
LINE
8
Calque 1
10
91.128869
20
2132.135701
11
92.308913
21
2133.133590
0
LINE
8
Calque 1
10
92.308913
20
2133.133590
11
94.125573
21
2134.253450
0
LINE
8
Calque 1
10
94.125573
20
2134.253450
11
94.575837
21
2134.567931
0
LINE
8
Calque 1
10
94.575837
20
2134.567931
11
95.613733
21
2135.063680
0
LINE
8
Calque 1
10
95.613733
20
2135.063680
11
96.977494
21
2135.401898
0
LINE
8
Calque 1
10
96.977494
20
2135.401898
11
98.273913
21
2135.495216
0
LINE
8
Calque 1
10
98.273913
20
2135.495216
11
100.571273
21
2135.265170
0
LINE
8
Calque 1
10
100.571273
20
2135.265170
11
101.770778
21
2135.078981
0
LINE
8
Calque 1
10
101.770778
20
2135.078981
11
102.604674
21
2134.842877
0
LINE
8
Calque 1
10
102.604674
20
2134.842877
11
103.572533
21
2134.411840
0
LINE
8
Calque 1
10
103.572533
20
2134.411840
11
104.363871
21
2133.875084
0
LINE
8
Calque 1
10
104.363871
20
2133.875084
11
104.920747
21
2133.289644
0
LINE
8
Calque 1
10
104.920747
20
2133.289644
11
105.622123
21
2132.102040
0
LINE
8
Calque 1
10
105.622123
20
2132.102040
11
106.388403
21
2130.088400
0
LINE
8
Calque 1
10
106.388403
20
2130.088400
11
106.183103
21
2130.599990
0
LINE
8
Calque 1
10
106.183103
20
2130.599990
11
106.409143
21
2130.007880
0
LINE
8
Calque 1
10
106.409143
20
2130.007880
11
106.418143
21
2129.970580
0
LINE
8
Calque 1
10
106.418143
20
2129.970580
11
106.420143
21
2129.947180
0
LINE
8
Calque 1
10
106.420143
20
2129.947180
11
106.419233
21
2129.928780
0
LINE
8
Calque 1
10
106.419233
20
2129.928780
11
106.422233
21
2129.904080
0
LINE
8
Calque 1
10
106.422233
20
2129.904080
11
106.436633
21
2129.833080
0
LINE
8
Calque 1
10
106.436633
20
2129.833080
11
106.484633
21
2129.589910
0
LINE
8
Calque 1
10
106.484633
20
2129.589910
11
106.629343
21
2128.841050
0
LINE
8
Calque 1
10
106.629343
20
2128.841050
11
106.777183
21
2128.024780
0
LINE
8
Calque 1
10
106.777183
20
2128.024780
11
106.832983
21
2127.666750
0
LINE
8
Calque 1
10
106.832983
20
2127.666750
11
106.866683
21
2127.070990
0
LINE
8
Calque 1
10
106.866683
20
2127.070990
11
106.703753
21
2126.128400
0
LINE
8
Calque 1
10
106.703753
20
2126.128400
11
115.532563
21
2125.221040
0
LINE
8
Calque 1
10
115.532563
20
2125.221040
11
115.543763
21
2125.221710
0
LINE
8
Calque 1
10
115.543763
20
2125.221710
11
126.593988
21
2124.329010
0
LINE
8
Calque 1
10
126.593988
20
2124.329010
11
137.623363
21
2123.574970
0
LINE
8
Calque 1
10
137.623363
20
2123.574970
11
147.280461
21
2123.256194
0
LINE
8
Calque 1
10
147.280461
20
2123.256194
11
156.940625
21
2123.313656
0
LINE
8
Calque 1
10
156.940625
20
2123.313656
11
166.588358
21
2123.755548
0
LINE
8
Calque 1
10
166.588358
20
2123.755548
11
176.208163
21
2124.590060
0
LINE
8
Calque 1
10
176.208163
20
2124.590060
11
176.245963
21
2124.595060
0
LINE
8
Calque 1
10
176.245963
20
2124.595060
11
186.665904
21
2125.706764
0
LINE
8
Calque 1
10
186.665904
20
2125.706764
11
197.014313
21
2127.202024
0
LINE
8
Calque 1
10
197.014313
20
2127.202024
11
207.247897
21
2129.187475
0
LINE
8
Calque 1
10
207.247897
20
2129.187475
11
212.308101
21
2130.397345
0
LINE
8
Calque 1
10
212.308101
20
2130.397345
11
217.323363
21
2131.769750
0
LINE
8
Calque 1
10
217.323363
20
2131.769750
11
217.359863
21
2131.780450
0
LINE
8
Calque 1
10
217.359863
20
2131.780450
11
227.412397
21
2134.664253
0
LINE
8
Calque 1
10
227.412397
20
2134.664253
11
237.384138
21
2137.789896
0
LINE
8
Calque 1
10
237.384138
20
2137.789896
11
247.255191
21
2141.190266
0
LINE
8
Calque 1
10
247.255191
20
2141.190266
11
257.005663
21
2144.898250
0
LINE
8
Calque 1
10
257.005663
20
2144.898250
11
257.014663
21
2144.903250
0
LINE
8
Calque 1
10
257.014663
20
2144.903250
11
262.893337
21
2147.425138
0
LINE
8
Calque 1
10
262.893337
20
2147.425138
11
268.684872
21
2150.140657
0
LINE
8
Calque 1
10
268.684872
20
2150.140657
11
274.375828
21
2153.054187
0
LINE
8
Calque 1
10
274.375828
20
2153.054187
11
279.952763
21
2156.170106
0
LINE
8
Calque 1
10
279.952763
20
2156.170106
11
285.402235
21
2159.492793
0
LINE
8
Calque 1
10
285.402235
20
2159.492793
11
290.710804
21
2163.026627
0
LINE
8
Calque 1
10
290.710804
20
2163.026627
11
295.865027
21
2166.775987
0
LINE
8
Calque 1
10
295.865027
20
2166.775987
11
300.851463
21
2170.745250
0
LINE
8
Calque 1
10
300.851463
20
2170.745250
11
300.884363
21
2170.772350
0
LINE
8
Calque 1
10
300.884363
20
2170.772350
11
307.804049
21
2176.603222
0
LINE
8
Calque 1
10
307.804049
20
2176.603222
11
311.121232
21
2179.659267
0
LINE
8
Calque 1
10
311.121232
20
2179.659267
11
314.307775
21
2182.825534
0
LINE
8
Calque 1
10
314.307775
20
2182.825534
11
317.337030
21
2186.114383
0
LINE
8
Calque 1
10
317.337030
20
2186.114383
11
320.182346
21
2189.538178
0
LINE
8
Calque 1
10
320.182346
20
2189.538178
11
322.817073
21
2193.109280
0
LINE
8
Calque 1
10
322.817073
20
2193.109280
11
325.214563
21
2196.840050
0
LINE
8
Calque 1
10
325.214563
20
2196.840050
11
326.520005
21
2199.331623
0
LINE
8
Calque 1
10
326.520005
20
2199.331623
11
327.636850
21
2201.908264
0
LINE
8
Calque 1
10
327.636850
20
2201.908264
11
328.567048
21
2204.557742
0
LINE
8
Calque 1
10
328.567048
20
2204.557742
11
329.312544
21
2207.267825
0
LINE
8
Calque 1
10
329.312544
20
2207.267825
11
329.875286
21
2210.026283
0
LINE
8
Calque 1
10
329.875286
20
2210.026283
11
330.257223
21
2212.820886
0
LINE
8
Calque 1
10
330.257223
20
2212.820886
11
330.460300
21
2215.639402
0
LINE
8
Calque 1
10
330.460300
20
2215.639402
11
330.486467
21
2218.469600
0
LINE
8
Calque 1
10
330.486467
20
2218.469600
11
330.337669
21
2221.299250
0
LINE
8
Calque 1
10
330.337669
20
2221.299250
11
330.015855
21
2224.116120
0
LINE
8
Calque 1
10
330.015855
20
2224.116120
11
329.522972
21
2226.907981
0
LINE
8
Calque 1
10
329.522972
20
2226.907981
11
328.860968
21
2229.662600
0
LINE
8
Calque 1
10
328.860968
20
2229.662600
11
328.031789
21
2232.367747
0
LINE
8
Calque 1
10
328.031789
20
2232.367747
11
327.037384
21
2235.011192
0
LINE
8
Calque 1
10
327.037384
20
2235.011192
11
325.879699
21
2237.580703
0
LINE
8
Calque 1
10
325.879699
20
2237.580703
11
324.560683
21
2240.064050
0
LINE
8
Calque 1
10
324.560683
20
2240.064050
11
324.558683
21
2240.067050
0
LINE
8
Calque 1
10
324.558683
20
2240.067050
11
324.558000
21
2240.070000
0
LINE
8
Calque 1
10
255.195000
20
2249.391290
11
255.195000
21
2249.390000
0
LINE
8
Calque 1
10
255.195000
20
2249.390000
11
255.623200
21
2248.490340
0
LINE
8
Calque 1
10
255.623200
20
2248.490340
11
255.672700
21
2247.776010
0
LINE
8
Calque 1
10
255.672700
20
2247.776010
11
255.378100
21
2246.806816
0
LINE
8
Calque 1
10
255.378100
20
2246.806816
11
254.977565
21
2246.241298
0
LINE
8
Calque 1
10
254.977565
20
2246.241298
11
254.349310
21
2245.770790
0
LINE
8
Calque 1
10
254.349310
20
2245.770790
11
253.645844
21
2245.523344
0
LINE
8
Calque 1
10
253.645844
20
2245.523344
11
253.056855
21
2245.490941
0
LINE
8
Calque 1
10
253.056855
20
2245.490941
11
252.269570
21
2245.701990
0
LINE
8
Calque 1
10
252.269570
20
2245.701990
11
251.635310
21
2246.069750
0
LINE
8
Calque 1
10
251.635310
20
2246.069750
11
250.993958
21
2246.634112
0
LINE
8
Calque 1
10
250.993958
20
2246.634112
11
250.674370
21
2247.037750
0
LINE
8
Calque 1
10
250.674370
20
2247.037750
11
250.179660
21
2247.642420
0
LINE
8
Calque 1
10
250.179660
20
2247.642420
11
248.618540
21
2249.489550
0
LINE
8
Calque 1
10
248.618540
20
2249.489550
11
247.225960
21
2250.745980
0
LINE
8
Calque 1
10
247.225960
20
2250.745980
11
245.251030
21
2252.923450
0
LINE
8
Calque 1
10
245.251030
20
2252.923450
11
245.309187
21
2252.845533
0
LINE
8
Calque 1
10
245.309187
20
2252.845533
11
245.066111
21
2253.035312
0
LINE
8
Calque 1
10
245.066111
20
2253.035312
11
244.092825
21
2253.861946
0
LINE
8
Calque 1
10
244.092825
20
2253.861946
11
243.164307
21
2254.691327
0
LINE
8
Calque 1
10
243.164307
20
2254.691327
11
242.977190
21
2254.884540
0
LINE
8
Calque 1
10
242.977190
20
2254.884540
11
243.113690
21
2254.811430
0
LINE
8
Calque 1
10
243.113690
20
2254.811430
11
240.377419
21
2256.486565
0
LINE
8
Calque 1
10
240.377419
20
2256.486565
11
237.382120
21
2257.975400
0
LINE
8
Calque 1
10
237.382120
20
2257.975400
11
232.107550
21
2260.132820
0
LINE
8
Calque 1
10
232.107550
20
2260.132820
11
227.004741
21
2262.131191
0
LINE
8
Calque 1
10
227.004741
20
2262.131191
11
221.888350
21
2263.880360
0
LINE
8
Calque 1
10
221.888350
20
2263.880360
11
219.990980
21
2264.383490
0
LINE
8
Calque 1
10
219.990980
20
2264.383490
11
215.247966
21
2265.601310
0
LINE
8
Calque 1
10
215.247966
20
2265.601310
11
210.537390
21
2266.622990
0
LINE
8
Calque 1
10
210.537390
20
2266.622990
11
203.907990
21
2267.588250
0
LINE
8
Calque 1
10
203.907990
20
2267.588250
11
198.961029
21
2268.139246
0
LINE
8
Calque 1
10
198.961029
20
2268.139246
11
193.749190
21
2268.447940
0
LINE
8
Calque 1
10
193.749190
20
2268.447940
11
191.245435
21
2268.538356
0
LINE
8
Calque 1
10
191.245435
20
2268.538356
11
188.895190
21
2268.505540
0
LINE
8
Calque 1
10
188.895190
20
2268.505540
11
181.682874
21
2267.920611
0
LINE
8
Calque 1
10
181.682874
20
2267.920611
11
174.386490
21
2267.236930
0
LINE
8
Calque 1
10
174.386490
20
2267.236930
11
173.439439
21
2267.343474
0
LINE
8
Calque 1
10
173.439439
20
2267.343474
11
172.634691
21
2267.789426
0
LINE
8
Calque 1
10
172.634691
20
2267.789426
11
172.055880
21
2268.504597
0
LINE
8
Calque 1
10
172.055880
20
2268.504597
11
171.786640
21
2269.418800
0
LINE
8
Calque 1
10
171.786640
20
2269.418800
11
171.893177
21
2270.365827
0
LINE
8
Calque 1
10
171.893177
20
2270.365827
11
172.339108
21
2271.170563
0
LINE
8
Calque 1
10
172.339108
20
2271.170563
11
173.054249
21
2271.749377
0
LINE
8
Calque 1
10
173.054249
20
2271.749377
11
173.968420
21
2272.018640
0
LINE
8
Calque 1
10
173.968420
20
2272.018640
11
181.234520
21
2272.700500
0
LINE
8
Calque 1
10
181.234520
20
2272.700500
11
188.598420
21
2273.296410
0
LINE
8
Calque 1
10
188.598420
20
2273.296410
11
191.347457
21
2273.339939
0
LINE
8
Calque 1
10
191.347457
20
2273.339939
11
193.945730
21
2273.244410
0
LINE
8
Calque 1
10
193.945730
20
2273.244410
11
199.373159
21
2272.919516
0
LINE
8
Calque 1
10
199.373159
20
2272.919516
11
204.507030
21
2272.350970
0
LINE
8
Calque 1
10
204.507030
20
2272.350970
11
211.414540
21
2271.342210
0
LINE
8
Calque 1
10
211.414540
20
2271.342210
11
216.378125
21
2270.267005
0
LINE
8
Calque 1
10
216.378125
20
2270.267005
11
221.222700
21
2269.022780
0
LINE
8
Calque 1
10
221.222700
20
2269.022780
11
223.293780
21
2268.470160
0
LINE
8
Calque 1
10
223.293780
20
2268.470160
11
228.679814
21
2266.630359
0
LINE
8
Calque 1
10
228.679814
20
2266.630359
11
233.910380
21
2264.582110
0
LINE
8
Calque 1
10
233.910380
20
2264.582110
11
239.396270
21
2262.332460
0
LINE
8
Calque 1
10
239.396270
20
2262.332460
11
242.662487
21
2260.712115
0
LINE
8
Calque 1
10
242.662487
20
2260.712115
11
245.889060
21
2258.728440
0
LINE
8
Calque 1
10
245.889060
20
2258.728440
11
247.451448
21
2257.494114
0
LINE
8
Calque 1
10
247.451448
20
2257.494114
11
248.631260
21
2256.332200
0
LINE
8
Calque 1
10
248.631260
20
2256.332200
11
250.584610
21
2254.175690
0
LINE
8
Calque 1
10
250.584610
20
2254.175690
11
252.017490
21
2252.879270
0
LINE
8
Calque 1
10
252.017490
20
2252.879270
11
253.094410
21
2251.695520
0
LINE
8
Calque 1
10
253.094410
20
2251.695520
11
253.916540
21
2250.655620
0
LINE
8
Calque 1
10
253.916540
20
2250.655620
11
254.339850
21
2250.137430
0
LINE
8
Calque 1
10
254.339850
20
2250.137430
11
254.438750
21
2250.038230
0
LINE
8
Calque 1
10
254.438750
20
2250.038230
11
255.194890
21
2249.389950
0
LINE
8
Calque 1
10
255.194890
20
2249.389950
11
255.195000
21
2249.391290
0
LINE
8
Calque 1
10
231.466900
20
2235.484190
11
231.467000
21
2235.480000
0
LINE
8
Calque 1
10
231.467000
20
2235.480000
11
231.694530
21
2235.043910
0
LINE
8
Calque 1
10
231.694530
20
2235.043910
11
231.851900
21
2234.411550
0
LINE
8
Calque 1
10
231.851900
20
2234.411550
11
231.836300
21
2233.777200
0
LINE
8
Calque 1
10
231.836300
20
2233.777200
11
231.725530
21
2233.343870
0
LINE
8
Calque 1
10
231.725530
20
2233.343870
11
231.490620
21
2232.863930
0
LINE
8
Calque 1
10
231.490620
20
2232.863930
11
230.832669
21
2232.148911
0
LINE
8
Calque 1
10
230.832669
20
2232.148911
11
230.353960
21
2231.920080
0
LINE
8
Calque 1
10
230.353960
20
2231.920080
11
229.891220
21
2231.784180
0
LINE
8
Calque 1
10
229.891220
20
2231.784180
11
229.515680
21
2231.739280
0
LINE
8
Calque 1
10
229.515680
20
2231.739280
11
229.166290
21
2231.735280
0
LINE
8
Calque 1
10
229.166290
20
2231.735280
11
228.792620
21
2231.749880
0
LINE
8
Calque 1
10
228.792620
20
2231.749880
11
227.691567
21
2232.170256
0
LINE
8
Calque 1
10
227.691567
20
2232.170256
11
226.923390
21
2233.064090
0
LINE
8
Calque 1
10
226.923390
20
2233.064090
11
226.754360
21
2233.190860
0
LINE
8
Calque 1
10
226.754360
20
2233.190860
11
226.484070
21
2233.393420
0
LINE
8
Calque 1
10
226.484070
20
2233.393420
11
225.159800
21
2234.430310
0
LINE
8
Calque 1
10
225.159800
20
2234.430310
11
222.349340
21
2236.853970
0
LINE
8
Calque 1
10
222.349340
20
2236.853970
11
220.458940
21
2238.772596
0
LINE
8
Calque 1
10
220.458940
20
2238.772596
11
218.744370
21
2240.296970
0
LINE
8
Calque 1
10
218.744370
20
2240.296970
11
217.403199
21
2241.145100
0
LINE
8
Calque 1
10
217.403199
20
2241.145100
11
215.700040
21
2241.792560
0
LINE
8
Calque 1
10
215.700040
20
2241.792560
11
215.650580
21
2241.802350
0
LINE
8
Calque 1
10
215.650580
20
2241.802350
11
215.227076
21
2241.935576
0
LINE
8
Calque 1
10
215.227076
20
2241.935576
11
213.735794
21
2242.416311
0
LINE
8
Calque 1
10
213.735794
20
2242.416311
11
211.521100
21
2243.142700
0
LINE
8
Calque 1
10
211.521100
20
2243.142700
11
208.836200
21
2243.743690
0
LINE
8
Calque 1
10
208.836200
20
2243.743690
11
201.796240
21
2245.793050
0
LINE
8
Calque 1
10
201.796240
20
2245.793050
11
197.747407
21
2246.639657
0
LINE
8
Calque 1
10
197.747407
20
2246.639657
11
193.546010
21
2247.178270
0
LINE
8
Calque 1
10
193.546010
20
2247.178270
11
190.514095
21
2247.314796
0
LINE
8
Calque 1
10
190.514095
20
2247.314796
11
187.267200
21
2247.305890
0
LINE
8
Calque 1
10
187.267200
20
2247.305890
11
177.941410
21
2247.288990
0
LINE
8
Calque 1
10
177.941410
20
2247.288990
11
174.183026
21
2247.096563
0
LINE
8
Calque 1
10
174.183026
20
2247.096563
11
170.260246
21
2246.754789
0
LINE
8
Calque 1
10
170.260246
20
2246.754789
11
162.595710
21
2245.947700
0
LINE
8
Calque 1
10
162.595710
20
2245.947700
11
161.663433
21
2246.037136
0
LINE
8
Calque 1
10
161.663433
20
2246.037136
11
160.836370
21
2246.476575
0
LINE
8
Calque 1
10
160.836370
20
2246.476575
11
160.240467
21
2247.199099
0
LINE
8
Calque 1
10
160.240467
20
2247.199099
11
159.966470
21
2248.094680
0
LINE
8
Calque 1
10
159.966470
20
2248.094680
11
160.056068
21
2249.026860
0
LINE
8
Calque 1
10
160.056068
20
2249.026860
11
160.495589
21
2249.853786
0
LINE
8
Calque 1
10
160.495589
20
2249.853786
11
161.218116
21
2250.449556
0
LINE
8
Calque 1
10
161.218116
20
2250.449556
11
162.113640
21
2250.723460
0
LINE
8
Calque 1
10
162.113640
20
2250.723460
11
169.773529
21
2251.534185
0
LINE
8
Calque 1
10
169.773529
20
2251.534185
11
173.828514
21
2251.885883
0
LINE
8
Calque 1
10
173.828514
20
2251.885883
11
177.821040
21
2252.087450
0
LINE
8
Calque 1
10
177.821040
20
2252.087450
11
187.269810
21
2252.106050
0
LINE
8
Calque 1
10
187.269810
20
2252.106050
11
190.546230
21
2252.119815
0
LINE
8
Calque 1
10
190.546230
20
2252.119815
11
194.028720
21
2251.954270
0
LINE
8
Calque 1
10
194.028720
20
2251.954270
11
198.513577
21
2251.379601
0
LINE
8
Calque 1
10
198.513577
20
2251.379601
11
203.030850
21
2250.431530
0
LINE
8
Calque 1
10
203.030850
20
2250.431530
11
210.019460
21
2248.395500
0
LINE
8
Calque 1
10
210.019460
20
2248.395500
11
212.735370
21
2247.786150
0
LINE
8
Calque 1
10
212.735370
20
2247.786150
11
217.349600
21
2246.300070
0
LINE
8
Calque 1
10
217.349600
20
2246.300070
11
219.530246
21
2245.416480
0
LINE
8
Calque 1
10
219.530246
20
2245.416480
11
221.565970
21
2244.180300
0
LINE
8
Calque 1
10
221.565970
20
2244.180300
11
223.859941
21
2242.181597
0
LINE
8
Calque 1
10
223.859941
20
2242.181597
11
225.701820
21
2240.288990
0
LINE
8
Calque 1
10
225.701820
20
2240.288990
11
228.123050
21
2238.205700
0
LINE
8
Calque 1
10
228.123050
20
2238.205700
11
229.357120
21
2237.240240
0
LINE
8
Calque 1
10
229.357120
20
2237.240240
11
229.458610
21
2237.188440
0
LINE
8
Calque 1
10
229.458610
20
2237.188440
11
229.473710
21
2237.182440
0
LINE
8
Calque 1
10
229.473710
20
2237.182440
11
229.392210
21
2237.217640
0
LINE
8
Calque 1
10
229.392210
20
2237.217640
11
229.423810
21
2237.192940
0
LINE
8
Calque 1
10
229.423810
20
2237.192940
11
229.522610
21
2237.115740
0
LINE
8
Calque 1
10
229.522610
20
2237.115740
11
229.518610
21
2237.149540
0
LINE
8
Calque 1
10
229.518610
20
2237.149540
11
230.427920
21
2236.510970
0
LINE
8
Calque 1
10
230.427920
20
2236.510970
11
231.011630
21
2236.022750
0
LINE
8
Calque 1
10
231.011630
20
2236.022750
11
231.263370
21
2235.758720
0
LINE
8
Calque 1
10
231.263370
20
2235.758720
11
231.471310
21
2235.482570
0
LINE
8
Calque 1
10
231.471310
20
2235.482570
11
231.466900
21
2235.484190
0
LINE
8
Calque 1
10
221.297400
20
2221.979790
11
221.298400
21
2221.977790
0
LINE
8
Calque 1
10
221.298400
20
2221.977790
11
221.704550
21
2221.228310
0
LINE
8
Calque 1
10
221.704550
20
2221.228310
11
222.282690
21
2220.030940
0
LINE
8
Calque 1
10
222.282690
20
2220.030940
11
222.559618
21
2219.136292
0
LINE
8
Calque 1
10
222.559618
20
2219.136292
11
222.473062
21
2218.203773
0
LINE
8
Calque 1
10
222.473062
20
2218.203773
11
222.036203
21
2217.375379
0
LINE
8
Calque 1
10
222.036203
20
2217.375379
11
221.315560
21
2216.777250
0
LINE
8
Calque 1
10
221.315560
20
2216.777250
11
220.420841
21
2216.500509
0
LINE
8
Calque 1
10
220.420841
20
2216.500509
11
219.488329
21
2216.587270
0
LINE
8
Calque 1
10
219.488329
20
2216.587270
11
218.660022
21
2217.024321
0
LINE
8
Calque 1
10
218.660022
20
2217.024321
11
218.062050
21
2217.745110
0
LINE
8
Calque 1
10
218.062050
20
2217.745110
11
216.902160
21
2219.936090
0
LINE
8
Calque 1
10
216.902160
20
2219.936090
11
215.880450
21
2220.808740
0
LINE
8
Calque 1
10
215.880450
20
2220.808740
11
212.468210
21
2223.182120
0
LINE
8
Calque 1
10
212.468210
20
2223.182120
11
209.424387
21
2224.731296
0
LINE
8
Calque 1
10
209.424387
20
2224.731296
11
206.071850
21
2226.198550
0
LINE
8
Calque 1
10
206.071850
20
2226.198550
11
202.603461
21
2227.454426
0
LINE
8
Calque 1
10
202.603461
20
2227.454426
11
199.103461
21
2228.414116
0
LINE
8
Calque 1
10
199.103461
20
2228.414116
11
195.510680
21
2229.161574
0
LINE
8
Calque 1
10
195.510680
20
2229.161574
11
191.763950
21
2229.780750
0
LINE
8
Calque 1
10
191.763950
20
2229.780750
11
187.191610
21
2230.447870
0
LINE
8
Calque 1
10
187.191610
20
2230.447870
11
184.677160
21
2230.408031
0
LINE
8
Calque 1
10
184.677160
20
2230.408031
11
181.719850
21
2230.244240
0
LINE
8
Calque 1
10
181.719850
20
2230.244240
11
179.886940
21
2230.212940
0
LINE
8
Calque 1
10
179.886940
20
2230.212940
11
176.322760
21
2230.490070
0
LINE
8
Calque 1
10
176.322760
20
2230.490070
11
174.423885
21
2230.393093
0
LINE
8
Calque 1
10
174.423885
20
2230.393093
11
172.125320
21
2230.211260
0
LINE
8
Calque 1
10
172.125320
20
2230.211260
11
170.427530
21
2230.231160
0
LINE
8
Calque 1
10
170.427530
20
2230.231160
11
169.671930
21
2230.121890
0
LINE
8
Calque 1
10
169.671930
20
2230.121890
11
168.856771
21
2230.121215
0
LINE
8
Calque 1
10
168.856771
20
2230.121215
11
169.111000
21
2230.160290
0
LINE
8
Calque 1
10
169.111000
20
2230.160290
11
168.367820
21
2230.145290
0
LINE
8
Calque 1
10
168.367820
20
2230.145290
11
166.100705
21
2229.982389
0
LINE
8
Calque 1
10
166.100705
20
2229.982389
11
163.542020
21
2229.986430
0
LINE
8
Calque 1
10
163.542020
20
2229.986430
11
163.206230
21
2230.034830
0
LINE
8
Calque 1
10
163.206230
20
2230.034830
11
162.812720
21
2229.995030
0
LINE
8
Calque 1
10
162.812720
20
2229.995030
11
161.932790
21
2230.154710
0
LINE
8
Calque 1
10
161.932790
20
2230.154710
11
161.259520
21
2230.561215
0
LINE
8
Calque 1
10
161.259520
20
2230.561215
11
160.666140
21
2231.273810
0
LINE
8
Calque 1
10
160.666140
20
2231.273810
11
160.385769
21
2232.045356
0
LINE
8
Calque 1
10
160.385769
20
2232.045356
11
160.363198
21
2232.665948
0
LINE
8
Calque 1
10
160.363198
20
2232.665948
11
160.613140
21
2233.434880
0
LINE
8
Calque 1
10
160.613140
20
2233.434880
11
161.089226
21
2234.198948
0
LINE
8
Calque 1
10
161.089226
20
2234.198948
11
161.165682
21
2234.242939
0
LINE
8
Calque 1
10
161.165682
20
2234.242939
11
161.069360
21
2234.099870
0
LINE
8
Calque 1
10
161.069360
20
2234.099870
11
161.684965
21
2234.536196
0
LINE
8
Calque 1
10
161.684965
20
2234.536196
11
162.405620
21
2234.759820
0
LINE
8
Calque 1
10
162.405620
20
2234.759820
11
162.241100
21
2234.744120
0
LINE
8
Calque 1
10
162.241100
20
2234.744120
11
162.496560
21
2234.803820
0
LINE
8
Calque 1
10
162.496560
20
2234.803820
11
162.870730
21
2234.860520
0
LINE
8
Calque 1
10
162.870730
20
2234.860520
11
163.183620
21
2234.894420
0
LINE
8
Calque 1
10
163.183620
20
2234.894420
11
163.933080
21
2234.784700
0
LINE
8
Calque 1
10
163.933080
20
2234.784700
11
163.953580
21
2234.773200
0
LINE
8
Calque 1
10
163.953580
20
2234.773200
11
165.870459
21
2234.786835
0
LINE
8
Calque 1
10
165.870459
20
2234.786835
11
168.055950
21
2234.934480
0
LINE
8
Calque 1
10
168.055950
20
2234.934480
11
169.198890
21
2234.958880
0
LINE
8
Calque 1
10
169.198890
20
2234.958880
11
169.409640
21
2234.954880
0
LINE
8
Calque 1
10
169.409640
20
2234.954880
11
169.968810
21
2235.021780
0
LINE
8
Calque 1
10
169.968810
20
2235.021780
11
171.899780
21
2235.005280
0
LINE
8
Calque 1
10
171.899780
20
2235.005280
11
173.983293
21
2235.189298
0
LINE
8
Calque 1
10
173.983293
20
2235.189298
11
176.470410
21
2235.287740
0
LINE
8
Calque 1
10
176.470410
20
2235.287740
11
179.997490
21
2235.011850
0
LINE
8
Calque 1
10
179.997490
20
2235.011850
11
181.620420
21
2235.043050
0
LINE
8
Calque 1
10
181.620420
20
2235.043050
11
184.366349
21
2235.218191
0
LINE
8
Calque 1
10
184.366349
20
2235.218191
11
187.565120
21
2235.232720
0
LINE
8
Calque 1
10
187.565120
20
2235.232720
11
190.136650
21
2234.911855
0
LINE
8
Calque 1
10
190.136650
20
2234.911855
11
192.483810
21
2234.525710
0
LINE
8
Calque 1
10
192.483810
20
2234.525710
11
196.380233
21
2233.881789
0
LINE
8
Calque 1
10
196.380233
20
2233.881789
11
200.223180
21
2233.081321
0
LINE
8
Calque 1
10
200.223180
20
2233.081321
11
204.050993
21
2232.030565
0
LINE
8
Calque 1
10
204.050993
20
2232.030565
11
207.902010
21
2230.635780
0
LINE
8
Calque 1
10
207.902010
20
2230.635780
11
211.395485
21
2229.122934
0
LINE
8
Calque 1
10
211.395485
20
2229.122934
11
214.953130
21
2227.288480
0
LINE
8
Calque 1
10
214.953130
20
2227.288480
11
216.932066
21
2225.989414
0
LINE
8
Calque 1
10
216.932066
20
2225.989414
11
218.775170
21
2224.637330
0
LINE
8
Calque 1
10
218.775170
20
2224.637330
11
219.697984
21
2223.922430
0
LINE
8
Calque 1
10
219.697984
20
2223.922430
11
220.758070
21
2222.794430
0
LINE
8
Calque 1
10
220.758070
20
2222.794430
11
221.298110
21
2221.979050
0
LINE
8
Calque 1
10
221.298110
20
2221.979050
11
221.297400
21
2221.979790
0
LINE
8
Calque 1
10
210.295800
20
2212.140870
11
210.294800
21
2212.142870
0
LINE
8
Calque 1
10
210.294800
20
2212.142870
11
211.286150
21
2209.963790
0
LINE
8
Calque 1
10
211.286150
20
2209.963790
11
211.521480
21
2209.133590
0
LINE
8
Calque 1
10
211.521480
20
2209.133590
11
211.796030
21
2206.580660
0
LINE
8
Calque 1
10
211.796030
20
2206.580660
11
211.785337
21
2206.873451
0
LINE
8
Calque 1
10
211.785337
20
2206.873451
11
211.875425
21
2206.818264
0
LINE
8
Calque 1
10
211.875425
20
2206.818264
11
212.251250
21
2205.592190
0
LINE
8
Calque 1
10
212.251250
20
2205.592190
11
212.310850
21
2205.333000
0
LINE
8
Calque 1
10
212.310850
20
2205.333000
11
212.512740
21
2204.368320
0
LINE
8
Calque 1
10
212.512740
20
2204.368320
11
212.500840
21
2204.291020
0
LINE
8
Calque 1
10
212.500840
20
2204.291020
11
212.708454
21
2203.656003
0
LINE
8
Calque 1
10
212.708454
20
2203.656003
11
212.749800
21
2202.430420
0
LINE
8
Calque 1
10
212.749800
20
2202.430420
11
212.596560
21
2201.488640
0
LINE
8
Calque 1
10
212.596560
20
2201.488640
11
212.491390
21
2200.798400
0
LINE
8
Calque 1
10
212.491390
20
2200.798400
11
212.084021
21
2199.578950
0
LINE
8
Calque 1
10
212.084021
20
2199.578950
11
211.528240
21
2198.688541
0
LINE
8
Calque 1
10
211.528240
20
2198.688541
11
210.461740
21
2197.584650
0
LINE
8
Calque 1
10
210.461740
20
2197.584650
11
209.839620
21
2196.805990
0
LINE
8
Calque 1
10
209.839620
20
2196.805990
11
208.688699
21
2195.721276
0
LINE
8
Calque 1
10
208.688699
20
2195.721276
11
207.610130
21
2194.868380
0
LINE
8
Calque 1
10
207.610130
20
2194.868380
11
205.941860
21
2193.521520
0
LINE
8
Calque 1
10
205.941860
20
2193.521520
11
204.308517
21
2192.536146
0
LINE
8
Calque 1
10
204.308517
20
2192.536146
11
202.853240
21
2191.911350
0
LINE
8
Calque 1
10
202.853240
20
2191.911350
11
201.174050
21
2191.170400
0
LINE
8
Calque 1
10
201.174050
20
2191.170400
11
199.912890
21
2190.816400
0
LINE
8
Calque 1
10
199.912890
20
2190.816400
11
199.849290
21
2190.811463
0
LINE
8
Calque 1
10
199.849290
20
2190.811463
11
199.962690
21
2190.826400
0
LINE
8
Calque 1
10
199.962690
20
2190.826400
11
199.729470
21
2190.766300
0
LINE
8
Calque 1
10
199.729470
20
2190.766300
11
198.594019
21
2190.411689
0
LINE
8
Calque 1
10
198.594019
20
2190.411689
11
197.055090
21
2190.049870
0
LINE
8
Calque 1
10
197.055090
20
2190.049870
11
194.447700
21
2189.726000
0
LINE
8
Calque 1
10
194.447700
20
2189.726000
11
193.326250
21
2189.714000
0
LINE
8
Calque 1
10
193.326250
20
2189.714000
11
191.716189
21
2189.582729
0
LINE
8
Calque 1
10
191.716189
20
2189.582729
11
189.764780
21
2189.529660
0
LINE
8
Calque 1
10
189.764780
20
2189.529660
11
186.916020
21
2189.639240
0
LINE
8
Calque 1
10
186.916020
20
2189.639240
11
185.658330
21
2189.583240
0
LINE
8
Calque 1
10
185.658330
20
2189.583240
11
184.719790
21
2189.644040
0
LINE
8
Calque 1
10
184.719790
20
2189.644040
11
181.250780
21
2189.720140
0
LINE
8
Calque 1
10
181.250780
20
2189.720140
11
178.380740
21
2189.751840
0
LINE
8
Calque 1
10
178.380740
20
2189.751840
11
174.908580
21
2190.030800
0
LINE
8
Calque 1
10
174.908580
20
2190.030800
11
172.363950
21
2190.127400
0
LINE
8
Calque 1
10
172.363950
20
2190.127400
11
171.328790
21
2190.255350
0
LINE
8
Calque 1
10
171.328790
20
2190.255350
11
170.874960
21
2190.271450
0
LINE
8
Calque 1
10
170.874960
20
2190.271450
11
170.458220
21
2190.205650
0
LINE
8
Calque 1
10
170.458220
20
2190.205650
11
170.265450
21
2190.204740
0
LINE
8
Calque 1
10
170.265450
20
2190.204740
11
170.054010
21
2190.213740
0
LINE
8
Calque 1
10
170.054010
20
2190.213740
11
169.285120
21
2190.259740
0
LINE
8
Calque 1
10
169.285120
20
2190.259740
11
167.153480
21
2190.439050
0
LINE
8
Calque 1
10
167.153480
20
2190.439050
11
165.622040
21
2190.445050
0
LINE
8
Calque 1
10
165.622040
20
2190.445050
11
165.536640
21
2190.447050
0
LINE
8
Calque 1
10
165.536640
20
2190.447050
11
163.848730
21
2190.514950
0
LINE
8
Calque 1
10
163.848730
20
2190.514950
11
163.837530
21
2190.514280
0
LINE
8
Calque 1
10
163.837530
20
2190.514280
11
162.205080
21
2190.591580
0
LINE
8
Calque 1
10
162.205080
20
2190.591580
11
162.117280
21
2190.597580
0
LINE
8
Calque 1
10
162.117280
20
2190.597580
11
160.726740
21
2190.716670
0
LINE
8
Calque 1
10
160.726740
20
2190.716670
11
156.350510
21
2190.783970
0
LINE
8
Calque 1
10
156.350510
20
2190.783970
11
150.489240
21
2191.347790
0
LINE
8
Calque 1
10
150.489240
20
2191.347790
11
148.757900
21
2191.441390
0
LINE
8
Calque 1
10
148.757900
20
2191.441390
11
147.178630
21
2191.481390
0
LINE
8
Calque 1
10
147.178630
20
2191.481390
11
144.128510
21
2191.903760
0
LINE
8
Calque 1
10
144.128510
20
2191.903760
11
141.205250
21
2192.428590
0
LINE
8
Calque 1
10
141.205250
20
2192.428590
11
139.239459
21
2193.121168
0
LINE
8
Calque 1
10
139.239459
20
2193.121168
11
137.602160
21
2193.978130
0
LINE
8
Calque 1
10
137.602160
20
2193.978130
11
136.382960
21
2194.650240
0
LINE
8
Calque 1
10
136.382960
20
2194.650240
11
135.403950
21
2195.474740
0
LINE
8
Calque 1
10
135.403950
20
2195.474740
11
134.724920
21
2195.922260
0
LINE
8
Calque 1
10
134.724920
20
2195.922260
11
133.300228
21
2197.232689
0
LINE
8
Calque 1
10
133.300228
20
2197.232689
11
132.154850
21
2198.701330
0
LINE
8
Calque 1
10
132.154850
20
2198.701330
11
131.612466
21
2199.698564
0
LINE
8
Calque 1
10
131.612466
20
2199.698564
11
131.243269
21
2200.828543
0
LINE
8
Calque 1
10
131.243269
20
2200.828543
11
131.097382
21
2202.039135
0
LINE
8
Calque 1
10
131.097382
20
2202.039135
11
131.224930
21
2203.278210
0
LINE
8
Calque 1
10
131.224930
20
2203.278210
11
131.361504
21
2203.955589
0
LINE
8
Calque 1
10
131.361504
20
2203.955589
11
131.844120
21
2205.116140
0
LINE
8
Calque 1
10
131.844120
20
2205.116140
11
133.105280
21
2207.062750
0
LINE
8
Calque 1
10
133.105280
20
2207.062750
11
133.589799
21
2207.830711
0
LINE
8
Calque 1
10
133.589799
20
2207.830711
11
134.272040
21
2208.700650
0
LINE
8
Calque 1
10
134.272040
20
2208.700650
11
135.620704
21
2210.004775
0
LINE
8
Calque 1
10
135.620704
20
2210.004775
11
136.765990
21
2210.998610
0
LINE
8
Calque 1
10
136.765990
20
2210.998610
11
137.725618
21
2211.942239
0
LINE
8
Calque 1
10
137.725618
20
2211.942239
11
139.018080
21
2213.053080
0
LINE
8
Calque 1
10
139.018080
20
2213.053080
11
141.825040
21
2214.927880
0
LINE
8
Calque 1
10
141.825040
20
2214.927880
11
144.304893
21
2216.208298
0
LINE
8
Calque 1
10
144.304893
20
2216.208298
11
146.584840
21
2217.076860
0
LINE
8
Calque 1
10
146.584840
20
2217.076860
11
148.180536
21
2217.775989
0
LINE
8
Calque 1
10
148.180536
20
2217.775989
11
150.260980
21
2218.526200
0
LINE
8
Calque 1
10
150.260980
20
2218.526200
11
153.416150
21
2219.211700
0
LINE
8
Calque 1
10
153.416150
20
2219.211700
11
154.199540
21
2219.441420
0
LINE
8
Calque 1
10
154.199540
20
2219.441420
11
154.840980
21
2219.655410
0
LINE
8
Calque 1
10
154.840980
20
2219.655410
11
155.550030
21
2219.826700
0
LINE
8
Calque 1
10
155.550030
20
2219.826700
11
155.958490
21
2219.864400
0
LINE
8
Calque 1
10
155.958490
20
2219.864400
11
156.900940
21
2220.061220
0
LINE
8
Calque 1
10
156.900940
20
2220.061220
11
157.790040
21
2220.079820
0
LINE
8
Calque 1
10
157.790040
20
2220.079820
11
157.998010
21
2220.113420
0
LINE
8
Calque 1
10
157.998010
20
2220.113420
11
159.783310
21
2220.382180
0
LINE
8
Calque 1
10
159.783310
20
2220.382180
11
160.986160
21
2220.507380
0
LINE
8
Calque 1
10
160.986160
20
2220.507380
11
161.945270
21
2220.655960
0
LINE
8
Calque 1
10
161.945270
20
2220.655960
11
162.914050
21
2220.619160
0
LINE
8
Calque 1
10
162.914050
20
2220.619160
11
164.646640
21
2220.829430
0
LINE
8
Calque 1
10
164.646640
20
2220.829430
11
165.337488
21
2220.826293
0
LINE
8
Calque 1
10
165.337488
20
2220.826293
11
165.415480
21
2220.795930
0
LINE
8
Calque 1
10
165.415480
20
2220.795930
11
165.857890
21
2220.818030
0
LINE
8
Calque 1
10
165.857890
20
2220.818030
11
166.881880
21
2220.826030
0
LINE
8
Calque 1
10
166.881880
20
2220.826030
11
167.550040
21
2220.752930
0
LINE
8
Calque 1
10
167.550040
20
2220.752930
11
168.269690
21
2220.794230
0
LINE
8
Calque 1
10
168.269690
20
2220.794230
11
170.935520
21
2220.716330
0
LINE
8
Calque 1
10
170.935520
20
2220.716330
11
171.853090
21
2220.745430
0
LINE
8
Calque 1
10
171.853090
20
2220.745430
11
176.457020
21
2220.526790
0
LINE
8
Calque 1
10
176.457020
20
2220.526790
11
178.938254
21
2220.451326
0
LINE
8
Calque 1
10
178.938254
20
2220.451326
11
181.585050
21
2220.236580
0
LINE
8
Calque 1
10
181.585050
20
2220.236580
11
182.711440
21
2220.034220
0
LINE
8
Calque 1
10
182.711440
20
2220.034220
11
183.326580
21
2219.915570
0
LINE
8
Calque 1
10
183.326580
20
2219.915570
11
189.307520
21
2219.126680
0
LINE
8
Calque 1
10
189.307520
20
2219.126680
11
190.387590
21
2218.868330
0
LINE
8
Calque 1
10
190.387590
20
2218.868330
11
190.610970
21
2218.864330
0
LINE
8
Calque 1
10
190.610970
20
2218.864330
11
191.273421
21
2218.805736
0
LINE
8
Calque 1
10
191.273421
20
2218.805736
11
192.175340
21
2218.524580
0
LINE
8
Calque 1
10
192.175340
20
2218.524580
11
192.635070
21
2218.372300
0
LINE
8
Calque 1
10
192.635070
20
2218.372300
11
194.443250
21
2217.971030
0
LINE
8
Calque 1
10
194.443250
20
2217.971030
11
195.675200
21
2217.826630
0
LINE
8
Calque 1
10
195.675200
20
2217.826630
11
198.321950
21
2217.101540
0
LINE
8
Calque 1
10
198.321950
20
2217.101540
11
198.859561
21
2216.894614
0
LINE
8
Calque 1
10
198.859561
20
2216.894614
11
198.911510
21
2216.853580
0
LINE
8
Calque 1
10
198.911510
20
2216.853580
11
199.983290
21
2216.632210
0
LINE
8
Calque 1
10
199.983290
20
2216.632210
11
202.267426
21
2216.315018
0
LINE
8
Calque 1
10
202.267426
20
2216.315018
11
205.088090
21
2215.741430
0
LINE
8
Calque 1
10
205.088090
20
2215.741430
11
206.777071
21
2215.092984
0
LINE
8
Calque 1
10
206.777071
20
2215.092984
11
207.929930
21
2214.438620
0
LINE
8
Calque 1
10
207.929930
20
2214.438620
11
208.527889
21
2214.197290
0
LINE
8
Calque 1
10
208.527889
20
2214.197290
11
209.102806
21
2213.779871
0
LINE
8
Calque 1
10
209.102806
20
2213.779871
11
209.741020
21
2213.043120
0
LINE
8
Calque 1
10
209.741020
20
2213.043120
11
210.292190
21
2212.140470
0
LINE
8
Calque 1
10
210.292190
20
2212.140470
11
210.295800
21
2212.140870
0
LINE
8
Calque 1
10
193.165100
20
2180.546370
11
193.492536
21
2180.012203
0
LINE
8
Calque 1
10
193.492536
20
2180.012203
11
193.670560
21
2179.411490
0
LINE
8
Calque 1
10
193.670560
20
2179.411490
11
193.633888
21
2178.475759
0
LINE
8
Calque 1
10
193.633888
20
2178.475759
11
193.241914
21
2177.625293
0
LINE
8
Calque 1
10
193.241914
20
2177.625293
11
192.554313
21
2176.989571
0
LINE
8
Calque 1
10
192.554313
20
2176.989571
11
191.675770
21
2176.665380
0
LINE
8
Calque 1
10
191.675770
20
2176.665380
11
187.215780
21
2175.959900
0
LINE
8
Calque 1
10
187.215780
20
2175.959900
11
183.746340
21
2175.201540
0
LINE
8
Calque 1
10
183.746340
20
2175.201540
11
179.887116
21
2174.421715
0
LINE
8
Calque 1
10
179.887116
20
2174.421715
11
174.870830
21
2173.537580
0
LINE
8
Calque 1
10
174.870830
20
2173.537580
11
169.608431
21
2173.016532
0
LINE
8
Calque 1
10
169.608431
20
2173.016532
11
164.359598
21
2172.769886
0
LINE
8
Calque 1
10
164.359598
20
2172.769886
11
159.124680
21
2172.749615
0
LINE
8
Calque 1
10
159.124680
20
2172.749615
11
153.904030
21
2172.907690
0
LINE
8
Calque 1
10
153.904030
20
2172.907690
11
151.295150
21
2173.005990
0
LINE
8
Calque 1
10
151.295150
20
2173.005990
11
149.093620
21
2173.109750
0
LINE
8
Calque 1
10
149.093620
20
2173.109750
11
146.740094
21
2173.222500
0
LINE
8
Calque 1
10
146.740094
20
2173.222500
11
143.787370
21
2173.550650
0
LINE
8
Calque 1
10
143.787370
20
2173.550650
11
141.380161
21
2174.160806
0
LINE
8
Calque 1
10
141.380161
20
2174.160806
11
139.162350
21
2175.007820
0
LINE
8
Calque 1
10
139.162350
20
2175.007820
11
137.754010
21
2175.657111
0
LINE
8
Calque 1
10
137.754010
20
2175.657111
11
136.431890
21
2176.201320
0
LINE
8
Calque 1
10
136.431890
20
2176.201320
11
134.591671
21
2176.569590
0
LINE
8
Calque 1
10
134.591671
20
2176.569590
11
132.276110
21
2176.636930
0
LINE
8
Calque 1
10
132.276110
20
2176.636930
11
130.514229
21
2176.739919
0
LINE
8
Calque 1
10
130.514229
20
2176.739919
11
128.683430
21
2177.037840
0
LINE
8
Calque 1
10
128.683430
20
2177.037840
11
128.448520
21
2177.101540
0
LINE
8
Calque 1
10
128.448520
20
2177.101540
11
128.217870
21
2177.175440
0
LINE
8
Calque 1
10
128.217870
20
2177.175440
11
127.543760
21
2177.437840
0
LINE
8
Calque 1
10
127.543760
20
2177.437840
11
127.046430
21
2177.711030
0
LINE
8
Calque 1
10
127.046430
20
2177.711030
11
126.663620
21
2177.980831
0
LINE
8
Calque 1
10
126.663620
20
2177.980831
11
126.154570
21
2178.668780
0
LINE
8
Calque 1
10
126.154570
20
2178.668780
11
125.912105
21
2179.341266
0
LINE
8
Calque 1
10
125.912105
20
2179.341266
11
125.884050
21
2180.225740
0
LINE
8
Calque 1
10
125.884050
20
2180.225740
11
126.190746
21
2181.075209
0
LINE
8
Calque 1
10
126.190746
20
2181.075209
11
126.655190
21
2181.665080
0
LINE
8
Calque 1
10
126.655190
20
2181.665080
11
127.413249
21
2182.176485
0
LINE
8
Calque 1
10
127.413249
20
2182.176485
11
127.920350
21
2182.310760
0
LINE
8
Calque 1
10
127.920350
20
2182.310760
11
129.013917
21
2182.236024
0
LINE
8
Calque 1
10
129.013917
20
2182.236024
11
129.960200
21
2181.682830
0
LINE
8
Calque 1
10
129.960200
20
2181.682830
11
132.441330
21
2181.433780
0
LINE
8
Calque 1
10
132.441330
20
2181.433780
11
135.049254
21
2181.347955
0
LINE
8
Calque 1
10
135.049254
20
2181.347955
11
136.465839
21
2181.155905
0
LINE
8
Calque 1
10
136.465839
20
2181.155905
11
138.020500
21
2180.730980
0
LINE
8
Calque 1
10
138.020500
20
2180.730980
11
139.674982
21
2180.059211
0
LINE
8
Calque 1
10
139.674982
20
2180.059211
11
141.008270
21
2179.439020
0
LINE
8
Calque 1
10
141.008270
20
2179.439020
11
142.845058
21
2178.719310
0
LINE
8
Calque 1
10
142.845058
20
2178.719310
11
144.693980
21
2178.264170
0
LINE
8
Calque 1
10
144.693980
20
2178.264170
11
149.359760
21
2177.902220
0
LINE
8
Calque 1
10
149.359760
20
2177.902220
11
151.234650
21
2177.805020
0
LINE
8
Calque 1
10
151.234650
20
2177.805020
11
154.117160
21
2177.702960
0
LINE
8
Calque 1
10
154.117160
20
2177.702960
11
159.194997
21
2177.549450
0
LINE
8
Calque 1
10
159.194997
20
2177.549450
11
164.244274
21
2177.569115
0
LINE
8
Calque 1
10
164.244274
20
2177.569115
11
169.266293
21
2177.804682
0
LINE
8
Calque 1
10
169.266293
20
2177.804682
11
174.262360
21
2178.298880
0
LINE
8
Calque 1
10
174.262360
20
2178.298880
11
182.783410
21
2179.903790
0
LINE
8
Calque 1
10
182.783410
20
2179.903790
11
186.345340
21
2180.679750
0
LINE
8
Calque 1
10
186.345340
20
2180.679750
11
190.925160
21
2181.406070
0
LINE
8
Calque 1
10
190.925160
20
2181.406070
11
191.556430
21
2181.421920
0
LINE
8
Calque 1
10
191.556430
20
2181.421920
11
192.160265
21
2181.276212
0
LINE
8
Calque 1
10
192.160265
20
2181.276212
11
192.706532
21
2180.980510
0
LINE
8
Calque 1
10
192.706532
20
2180.980510
11
193.165100
21
2180.546380
0
LINE
8
Calque 1
10
193.165100
20
2180.546380
11
193.165100
21
2180.546370
0
LINE
8
Calque 1
10
188.916460
20
2162.648870
11
188.916430
21
2162.648910
0
LINE
8
Calque 1
10
188.916430
20
2162.648910
11
189.007736
21
2161.700323
0
LINE
8
Calque 1
10
189.007736
20
2161.700323
11
188.737604
21
2160.820873
0
LINE
8
Calque 1
10
188.737604
20
2160.820873
11
188.157427
21
2160.106872
0
LINE
8
Calque 1
10
188.157427
20
2160.106872
11
187.318600
21
2159.654630
0
LINE
8
Calque 1
10
187.318600
20
2159.654630
11
185.019250
21
2158.958420
0
LINE
8
Calque 1
10
185.019250
20
2158.958420
11
182.733542
21
2158.535716
0
LINE
8
Calque 1
10
182.733542
20
2158.535716
11
180.755770
21
2158.253600
0
LINE
8
Calque 1
10
180.755770
20
2158.253600
11
177.458240
21
2157.635680
0
LINE
8
Calque 1
10
177.458240
20
2157.635680
11
172.982056
21
2156.710462
0
LINE
8
Calque 1
10
172.982056
20
2156.710462
11
168.288560
21
2155.952240
0
LINE
8
Calque 1
10
168.288560
20
2155.952240
11
163.587905
21
2155.581288
0
LINE
8
Calque 1
10
163.587905
20
2155.581288
11
159.093890
21
2155.289670
0
LINE
8
Calque 1
10
159.093890
20
2155.289670
11
158.909013
21
2155.270095
0
LINE
8
Calque 1
10
158.909013
20
2155.270095
11
158.214570
21
2155.200270
0
LINE
8
Calque 1
10
158.214570
20
2155.200270
11
156.315200
21
2155.008280
0
LINE
8
Calque 1
10
156.315200
20
2155.008280
11
153.131200
21
2154.702330
0
LINE
8
Calque 1
10
153.131200
20
2154.702330
11
149.646842
21
2154.713941
0
LINE
8
Calque 1
10
149.646842
20
2154.713941
11
146.430130
21
2154.920320
0
LINE
8
Calque 1
10
146.430130
20
2154.920320
11
143.231414
21
2155.088814
0
LINE
8
Calque 1
10
143.231414
20
2155.088814
11
139.887760
21
2155.392840
0
LINE
8
Calque 1
10
139.887760
20
2155.392840
11
137.012595
21
2155.859318
0
LINE
8
Calque 1
10
137.012595
20
2155.859318
11
134.192210
21
2156.471820
0
LINE
8
Calque 1
10
134.192210
20
2156.471820
11
132.731630
21
2156.847630
0
LINE
8
Calque 1
10
132.731630
20
2156.847630
11
132.435550
21
2156.975040
0
LINE
8
Calque 1
10
132.435550
20
2156.975040
11
132.312800
21
2157.005640
0
LINE
8
Calque 1
10
132.312800
20
2157.005640
11
130.411830
21
2157.448810
0
LINE
8
Calque 1
10
130.411830
20
2157.448810
11
126.110310
21
2158.238270
0
LINE
8
Calque 1
10
126.110310
20
2158.238270
11
120.979746
21
2159.343064
0
LINE
8
Calque 1
10
120.979746
20
2159.343064
11
115.973210
21
2160.760420
0
LINE
8
Calque 1
10
115.973210
20
2160.760420
11
114.968970
21
2161.087010
0
LINE
8
Calque 1
10
114.968970
20
2161.087010
11
114.270124
21
2161.310921
0
LINE
8
Calque 1
10
114.270124
20
2161.310921
11
114.018900
21
2161.392970
0
LINE
8
Calque 1
10
114.018900
20
2161.392970
11
114.010905
21
2161.388270
0
LINE
8
Calque 1
10
114.010905
20
2161.388270
11
113.786940
21
2161.423770
0
LINE
8
Calque 1
10
113.786940
20
2161.423770
11
113.451750
21
2161.470170
0
LINE
8
Calque 1
10
113.451750
20
2161.470170
11
113.061420
21
2161.562270
0
LINE
8
Calque 1
10
113.061420
20
2161.562270
11
112.502990
21
2161.816290
0
LINE
8
Calque 1
10
112.502990
20
2161.816290
11
111.853166
21
2162.370654
0
LINE
8
Calque 1
10
111.853166
20
2162.370654
11
111.534701
21
2162.916443
0
LINE
8
Calque 1
10
111.534701
20
2162.916443
11
111.361060
21
2163.694180
0
LINE
8
Calque 1
10
111.361060
20
2163.694180
11
111.481212
21
2164.639489
0
LINE
8
Calque 1
10
111.481212
20
2164.639489
11
111.938616
21
2165.437668
0
LINE
8
Calque 1
10
111.938616
20
2165.437668
11
112.661917
21
2166.006126
0
LINE
8
Calque 1
10
112.661917
20
2166.006126
11
113.579760
21
2166.262270
0
LINE
8
Calque 1
10
113.579760
20
2166.262270
11
114.465842
21
2166.144139
0
LINE
8
Calque 1
10
114.465842
20
2166.144139
11
115.247230
21
2165.709940
0
LINE
8
Calque 1
10
115.247230
20
2165.709940
11
115.019540
21
2165.904300
0
LINE
8
Calque 1
10
115.019540
20
2165.904300
11
114.499920
21
2166.141920
0
LINE
8
Calque 1
10
114.499920
20
2166.141920
11
114.250130
21
2166.203520
0
LINE
8
Calque 1
10
114.250130
20
2166.203520
11
114.386560
21
2166.186220
0
LINE
8
Calque 1
10
114.386560
20
2166.186220
11
115.347570
21
2166.005910
0
LINE
8
Calque 1
10
115.347570
20
2166.005910
11
116.455350
21
2165.650780
0
LINE
8
Calque 1
10
116.455350
20
2165.650780
11
117.138468
21
2165.428884
0
LINE
8
Calque 1
10
117.138468
20
2165.428884
11
117.397550
21
2165.343840
0
LINE
8
Calque 1
10
117.397550
20
2165.343840
11
122.154764
21
2163.997006
0
LINE
8
Calque 1
10
122.154764
20
2163.997006
11
126.940740
21
2162.965750
0
LINE
8
Calque 1
10
126.940740
20
2162.965750
11
131.474540
21
2162.129570
0
LINE
8
Calque 1
10
131.474540
20
2162.129570
11
133.482600
21
2161.661120
0
LINE
8
Calque 1
10
133.482600
20
2161.661120
11
133.936070
21
2161.535080
0
LINE
8
Calque 1
10
133.936070
20
2161.535080
11
134.396200
21
2161.371710
0
LINE
8
Calque 1
10
134.396200
20
2161.371710
11
135.319890
21
2161.137030
0
LINE
8
Calque 1
10
135.319890
20
2161.137030
11
140.511640
21
2160.151460
0
LINE
8
Calque 1
10
140.511640
20
2160.151460
11
143.523231
21
2159.881809
0
LINE
8
Calque 1
10
143.523231
20
2159.881809
11
146.698300
21
2159.712260
0
LINE
8
Calque 1
10
146.698300
20
2159.712260
11
149.898748
21
2159.514244
0
LINE
8
Calque 1
10
149.898748
20
2159.514244
11
152.840250
21
2159.493070
0
LINE
8
Calque 1
10
152.840250
20
2159.493070
11
155.834910
21
2159.783980
0
LINE
8
Calque 1
10
155.834910
20
2159.783980
11
157.730390
21
2159.975510
0
LINE
8
Calque 1
10
157.730390
20
2159.975510
11
158.668610
21
2160.070310
0
LINE
8
Calque 1
10
158.668610
20
2160.070310
11
163.315264
21
2160.377891
0
LINE
8
Calque 1
10
163.315264
20
2160.377891
11
167.743120
21
2160.720790
0
LINE
8
Calque 1
10
167.743120
20
2160.720790
11
172.053171
21
2161.422944
0
LINE
8
Calque 1
10
172.053171
20
2161.422944
11
176.509210
21
2162.340670
0
LINE
8
Calque 1
10
176.509210
20
2162.340670
11
179.926660
21
2162.981280
0
LINE
8
Calque 1
10
179.926660
20
2162.981280
11
183.868180
21
2163.618370
0
LINE
8
Calque 1
10
183.868180
20
2163.618370
11
185.923220
21
2164.246930
0
LINE
8
Calque 1
10
185.923220
20
2164.246930
11
186.871822
21
2164.338237
0
LINE
8
Calque 1
10
186.871822
20
2164.338237
11
187.751283
21
2164.068094
0
LINE
8
Calque 1
10
187.751283
20
2164.068094
11
188.465287
21
2163.487899
0
LINE
8
Calque 1
10
188.465287
20
2163.487899
11
188.917520
21
2162.649050
0
LINE
8
Calque 1
10
188.917520
20
2162.649050
11
188.916460
21
2162.648870
0
LINE
8
Calque 1
10
190.618000
20
2146.363070
11
190.827450
21
2145.450490
0
LINE
8
Calque 1
10
190.827450
20
2145.450490
11
190.666107
21
2144.511382
0
LINE
8
Calque 1
10
190.666107
20
2144.511382
11
190.174293
21
2143.733982
0
LINE
8
Calque 1
10
190.174293
20
2143.733982
11
189.426893
21
2143.197677
0
LINE
8
Calque 1
10
189.426893
20
2143.197677
11
188.498790
21
2142.981850
0
LINE
8
Calque 1
10
188.498790
20
2142.981850
11
186.277575
21
2142.824765
0
LINE
8
Calque 1
10
186.277575
20
2142.824765
11
184.049689
21
2142.509124
0
LINE
8
Calque 1
10
184.049689
20
2142.509124
11
179.501130
21
2141.556450
0
LINE
8
Calque 1
10
179.501130
20
2141.556450
11
178.326380
21
2141.248180
0
LINE
8
Calque 1
10
178.326380
20
2141.248180
11
174.483520
21
2140.567200
0
LINE
8
Calque 1
10
174.483520
20
2140.567200
11
164.760820
21
2138.865820
0
LINE
8
Calque 1
10
164.760820
20
2138.865820
11
161.487215
21
2138.284242
0
LINE
8
Calque 1
10
161.487215
20
2138.284242
11
158.045820
21
2137.808940
0
LINE
8
Calque 1
10
158.045820
20
2137.808940
11
153.460120
21
2137.550600
0
LINE
8
Calque 1
10
153.460120
20
2137.550600
11
144.424410
21
2137.325910
0
LINE
8
Calque 1
10
144.424410
20
2137.325910
11
137.135485
21
2137.618521
0
LINE
8
Calque 1
10
137.135485
20
2137.618521
11
129.975710
21
2138.192960
0
LINE
8
Calque 1
10
129.975710
20
2138.192960
11
127.769212
21
2138.375369
0
LINE
8
Calque 1
10
127.769212
20
2138.375369
11
125.758120
21
2138.382240
0
LINE
8
Calque 1
10
125.758120
20
2138.382240
11
124.027630
21
2138.329540
0
LINE
8
Calque 1
10
124.027630
20
2138.329540
11
121.874340
21
2138.316740
0
LINE
8
Calque 1
10
121.874340
20
2138.316740
11
117.837610
21
2138.698150
0
LINE
8
Calque 1
10
117.837610
20
2138.698150
11
116.390295
21
2138.909025
0
LINE
8
Calque 1
10
116.390295
20
2138.909025
11
114.846560
21
2139.377810
0
LINE
8
Calque 1
10
114.846560
20
2139.377810
11
113.372310
21
2140.113280
0
LINE
8
Calque 1
10
113.372310
20
2140.113280
11
112.896160
21
2140.201180
0
LINE
8
Calque 1
10
112.896160
20
2140.201180
11
111.709480
21
2140.252380
0
LINE
8
Calque 1
10
111.709480
20
2140.252380
11
110.573250
21
2140.432370
0
LINE
8
Calque 1
10
110.573250
20
2140.432370
11
110.007980
21
2140.535040
0
LINE
8
Calque 1
10
110.007980
20
2140.535040
11
109.648330
21
2140.621540
0
LINE
8
Calque 1
10
109.648330
20
2140.621540
11
109.228410
21
2140.782460
0
LINE
8
Calque 1
10
109.228410
20
2140.782460
11
108.632390
21
2141.189610
0
LINE
8
Calque 1
10
108.632390
20
2141.189610
11
108.062617
21
2142.035182
0
LINE
8
Calque 1
10
108.062617
20
2142.035182
11
107.880254
21
2142.715206
0
LINE
8
Calque 1
10
107.880254
20
2142.715206
11
107.929120
21
2143.517700
0
LINE
8
Calque 1
10
107.929120
20
2143.517700
11
108.313541
21
2144.341594
0
LINE
8
Calque 1
10
108.313541
20
2144.341594
11
108.848060
21
2144.912880
0
LINE
8
Calque 1
10
108.848060
20
2144.912880
11
109.330580
21
2145.166520
0
LINE
8
Calque 1
10
109.330580
20
2145.166520
11
110.341244
21
2145.391351
0
LINE
8
Calque 1
10
110.341244
20
2145.391351
11
111.352570
21
2145.169520
0
LINE
8
Calque 1
10
111.352570
20
2145.169520
11
111.377070
21
2145.165520
0
LINE
8
Calque 1
10
111.377070
20
2145.165520
11
112.228170
21
2145.025580
0
LINE
8
Calque 1
10
112.228170
20
2145.025580
11
112.866530
21
2145.002080
0
LINE
8
Calque 1
10
112.866530
20
2145.002080
11
114.388520
21
2144.806120
0
LINE
8
Calque 1
10
114.388520
20
2144.806120
11
115.986375
21
2144.227899
0
LINE
8
Calque 1
10
115.986375
20
2144.227899
11
116.688580
21
2143.812300
0
LINE
8
Calque 1
10
116.688580
20
2143.812300
11
117.387108
21
2143.588391
0
LINE
8
Calque 1
10
117.387108
20
2143.588391
11
118.391920
21
2143.467420
0
LINE
8
Calque 1
10
118.391920
20
2143.467420
11
122.153170
21
2143.109540
0
LINE
8
Calque 1
10
122.153170
20
2143.109540
11
123.893520
21
2143.128540
0
LINE
8
Calque 1
10
123.893520
20
2143.128540
11
125.683850
21
2143.182940
0
LINE
8
Calque 1
10
125.683850
20
2143.182940
11
127.969435
21
2143.166600
0
LINE
8
Calque 1
10
127.969435
20
2143.166600
11
130.379400
21
2142.977220
0
LINE
8
Calque 1
10
130.379400
20
2142.977220
11
137.462384
21
2142.409859
0
LINE
8
Calque 1
10
137.462384
20
2142.409859
11
144.447800
21
2142.126890
0
LINE
8
Calque 1
10
144.447800
20
2142.126890
11
153.222050
21
2142.345640
0
LINE
8
Calque 1
10
153.222050
20
2142.345640
11
157.576280
21
2142.587280
0
LINE
8
Calque 1
10
157.576280
20
2142.587280
11
160.689882
21
2143.021222
0
LINE
8
Calque 1
10
160.689882
20
2143.021222
11
163.932440
21
2143.595100
0
LINE
8
Calque 1
10
163.932440
20
2143.595100
11
173.671320
21
2145.299270
0
LINE
8
Calque 1
10
173.671320
20
2145.299270
11
177.342520
21
2145.947950
0
LINE
8
Calque 1
10
177.342520
20
2145.947950
11
178.406510
21
2146.231070
0
LINE
8
Calque 1
10
178.406510
20
2146.231070
11
183.247436
21
2147.245534
0
LINE
8
Calque 1
10
183.247436
20
2147.245534
11
185.762428
21
2147.599654
0
LINE
8
Calque 1
10
185.762428
20
2147.599654
11
188.359750
21
2147.780950
0
LINE
8
Calque 1
10
188.359750
20
2147.780950
11
189.283365
21
2147.625261
0
LINE
8
Calque 1
10
189.283365
20
2147.625261
11
190.077050
21
2147.127900
0
LINE
8
Calque 1
10
190.077050
20
2147.127900
11
190.077000
21
2147.120000
0
LINE
8
Calque 1
10
190.077000
20
2147.120000
11
190.619340
21
2146.356650
0
LINE
8
Calque 1
10
190.619340
20
2146.356650
11
190.618000
21
2146.363070
0
LINE
8
Calque 1
10
206.691000
20
2853.160000
11
204.448000
21
2852.720000
0
LINE
8
Calque 1
10
204.448000
20
2852.720000
11
203.025000
21
2852.570000
0
LINE
8
Calque 1
10
203.025000
20
2852.570000
11
207.052000
21
2849.770000
0
LINE
8
Calque 1
10
207.052000
20
2849.770000
11
209.036438
21
2848.199375
0
LINE
8
Calque 1
10
209.036438
20
2848.199375
11
210.938000
21
2846.460000
0
LINE
8
Calque 1
10
210.938000
20
2846.460000
11
213.638000
21
2843.400000
0
LINE
8
Calque 1
10
213.638000
20
2843.400000
11
214.410000
21
2842.310000
0
LINE
8
Calque 1
10
214.410000
20
2842.310000
11
214.673000
21
2843.190000
0
LINE
8
Calque 1
10
214.673000
20
2843.190000
11
214.766500
21
2844.587500
0
LINE
8
Calque 1
10
214.766500
20
2844.587500
11
214.650000
21
2846.870000
0
LINE
8
Calque 1
10
214.650000
20
2846.870000
11
214.469375
21
2848.777500
0
LINE
8
Calque 1
10
214.469375
20
2848.777500
11
214.252000
21
2849.860000
0
LINE
8
Calque 1
10
214.252000
20
2849.860000
11
213.199000
21
2851.290000
0
LINE
8
Calque 1
10
213.199000
20
2851.290000
11
212.816000
21
2851.740000
0
LINE
8
Calque 1
10
212.816000
20
2851.740000
11
211.124000
21
2852.520000
0
LINE
8
Calque 1
10
211.124000
20
2852.520000
11
208.977000
21
2853.100000
0
LINE
8
Calque 1
10
208.977000
20
2853.100000
11
207.967000
21
2853.070000
0
LINE
8
Calque 1
10
207.967000
20
2853.070000
11
206.691000
21
2853.160000
0
LINE
8
Calque 1
10
206.691000
20
2853.160000
11
206.691000
21
2853.160000
0
LINE
8
Calque 1
10
195.679000
20
2847.790000
11
195.290000
21
2847.160000
0
LINE
8
Calque 1
10
195.290000
20
2847.160000
11
194.139000
21
2844.540000
0
LINE
8
Calque 1
10
194.139000
20
2844.540000
11
193.220000
21
2842.130000
0
LINE
8
Calque 1
10
193.220000
20
2842.130000
11
193.190000
21
2842.050000
0
LINE
8
Calque 1
10
193.190000
20
2842.050000
11
192.594000
21
2840.750000
0
LINE
8
Calque 1
10
192.594000
20
2840.750000
11
192.338000
21
2839.910000
0
LINE
8
Calque 1
10
192.338000
20
2839.910000
11
191.767875
21
2836.726250
0
LINE
8
Calque 1
10
191.767875
20
2836.726250
11
191.290000
21
2833.220000
0
LINE
8
Calque 1
10
191.290000
20
2833.220000
11
190.456000
21
2828.080000
0
LINE
8
Calque 1
10
190.456000
20
2828.080000
11
189.874000
21
2824.480000
0
LINE
8
Calque 1
10
189.874000
20
2824.480000
11
189.790000
21
2823.410000
0
LINE
8
Calque 1
10
189.790000
20
2823.410000
11
189.842000
21
2823.040000
0
LINE
8
Calque 1
10
189.842000
20
2823.040000
11
189.848000
21
2821.660000
0
LINE
8
Calque 1
10
189.848000
20
2821.660000
11
189.811000
21
2820.890000
0
LINE
8
Calque 1
10
189.811000
20
2820.890000
11
191.151000
21
2821.140000
0
LINE
8
Calque 1
10
191.151000
20
2821.140000
11
191.839000
21
2821.400000
0
LINE
8
Calque 1
10
191.839000
20
2821.400000
11
192.595000
21
2821.550000
0
LINE
8
Calque 1
10
192.595000
20
2821.550000
11
193.869000
21
2821.900000
0
LINE
8
Calque 1
10
193.869000
20
2821.900000
11
194.766000
21
2822.030000
0
LINE
8
Calque 1
10
194.766000
20
2822.030000
11
194.773000
21
2822.030000
0
LINE
8
Calque 1
10
194.773000
20
2822.030000
11
194.914000
21
2822.090000
0
LINE
8
Calque 1
10
194.914000
20
2822.090000
11
196.472000
21
2823.150000
0
LINE
8
Calque 1
10
196.472000
20
2823.150000
11
198.260000
21
2824.140000
0
LINE
8
Calque 1
10
198.260000
20
2824.140000
11
198.612000
21
2824.470000
0
LINE
8
Calque 1
10
198.612000
20
2824.470000
11
199.415000
21
2825.440000
0
LINE
8
Calque 1
10
199.415000
20
2825.440000
11
201.112125
21
2827.212500
0
LINE
8
Calque 1
10
201.112125
20
2827.212500
11
202.972000
21
2828.910000
0
LINE
8
Calque 1
10
202.972000
20
2828.910000
11
205.168000
21
2830.390000
0
LINE
8
Calque 1
10
205.168000
20
2830.390000
11
206.122000
21
2831.040000
0
LINE
8
Calque 1
10
206.122000
20
2831.040000
11
206.346000
21
2831.250000
0
LINE
8
Calque 1
10
206.346000
20
2831.250000
11
210.056000
21
2836.570000
0
LINE
8
Calque 1
10
210.056000
20
2836.570000
11
209.031000
21
2836.980000
0
LINE
8
Calque 1
10
209.031000
20
2836.980000
11
207.949500
21
2837.697500
0
LINE
8
Calque 1
10
207.949500
20
2837.697500
11
207.372000
21
2838.160000
0
LINE
8
Calque 1
10
207.372000
20
2838.160000
11
205.010000
21
2839.720000
0
LINE
8
Calque 1
10
205.010000
20
2839.720000
11
201.345000
21
2842.580000
0
LINE
8
Calque 1
10
201.345000
20
2842.580000
11
198.470500
21
2844.982500
0
LINE
8
Calque 1
10
198.470500
20
2844.982500
11
197.047219
21
2846.317813
0
LINE
8
Calque 1
10
197.047219
20
2846.317813
11
195.680000
21
2847.790000
0
LINE
8
Calque 1
10
195.680000
20
2847.790000
11
195.679000
21
2847.790000
0
LINE
8
Calque 1
10
195.679000
20
2847.790000
11
195.679000
21
2847.790000
0
LINE
8
Calque 1
10
206.346000
20
2831.250000
11
206.181000
21
2831.000000
0
LINE
8
Calque 1
10
206.181000
20
2831.000000
11
206.346000
21
2831.250000
0
LINE
8
Calque 1
10
206.346000
20
2831.250000
11
206.346000
21
2831.250000
0
LINE
8
Calque 1
10
194.773000
20
2822.030000
11
194.773000
21
2822.030000
0
LINE
8
Calque 1
10
194.773000
20
2822.030000
11
194.773000
21
2822.030000
0
LINE
8
Calque 1
10
163.135000
20
2802.320000
11
161.575000
21
2802.310000
0
LINE
8
Calque 1
10
161.575000
20
2802.310000
11
159.891000
21
2802.210000
0
LINE
8
Calque 1
10
159.891000
20
2802.210000
11
158.395000
21
2800.410000
0
LINE
8
Calque 1
10
158.395000
20
2800.410000
11
158.395000
21
2800.410000
0
LINE
8
Calque 1
10
158.395000
20
2800.410000
11
160.080000
21
2800.120000
0
LINE
8
Calque 1
10
160.080000
20
2800.120000
11
161.670875
21
2799.463750
0
LINE
8
Calque 1
10
161.670875
20
2799.463750
11
162.934000
21
2798.800000
0
LINE
8
Calque 1
10
162.934000
20
2798.800000
11
165.224750
21
2797.416250
0
LINE
8
Calque 1
10
165.224750
20
2797.416250
11
167.340000
21
2795.740000
0
LINE
8
Calque 1
10
167.340000
20
2795.740000
11
167.869000
21
2795.280000
0
LINE
8
Calque 1
10
167.869000
20
2795.280000
11
168.633000
21
2794.570000
0
LINE
8
Calque 1
10
168.633000
20
2794.570000
11
169.461000
21
2793.570000
0
LINE
8
Calque 1
10
169.461000
20
2793.570000
11
170.817750
21
2792.187500
0
LINE
8
Calque 1
10
170.817750
20
2792.187500
11
172.374000
21
2790.340000
0
LINE
8
Calque 1
10
172.374000
20
2790.340000
11
172.434000
21
2790.620000
0
LINE
8
Calque 1
10
172.434000
20
2790.620000
11
172.119000
21
2793.720000
0
LINE
8
Calque 1
10
172.119000
20
2793.720000
11
171.541000
21
2796.110000
0
LINE
8
Calque 1
10
171.541000
20
2796.110000
11
171.286000
21
2797.200000
0
LINE
8
Calque 1
10
171.286000
20
2797.200000
11
170.636000
21
2798.180000
0
LINE
8
Calque 1
10
170.636000
20
2798.180000
11
169.636000
21
2799.340000
0
LINE
8
Calque 1
10
169.636000
20
2799.340000
11
168.605750
21
2800.125000
0
LINE
8
Calque 1
10
168.605750
20
2800.125000
11
166.917000
21
2801.180000
0
LINE
8
Calque 1
10
166.917000
20
2801.180000
11
165.165250
21
2801.987500
0
LINE
8
Calque 1
10
165.165250
20
2801.987500
11
164.294000
21
2802.300000
0
LINE
8
Calque 1
10
164.294000
20
2802.300000
11
163.135000
21
2802.320000
0
LINE
8
Calque 1
10
163.135000
20
2802.320000
11
163.135000
21
2802.320000
0
LINE
8
Calque 1
10
154.711000
20
2795.220000
11
153.528000
21
2792.970000
0
LINE
8
Calque 1
10
153.528000
20
2792.970000
11
152.202000
21
2790.210000
0
LINE
8
Calque 1
10
152.202000
20
2790.210000
11
151.562000
21
2788.180000
0
LINE
8
Calque 1
10
151.562000
20
2788.180000
11
150.963000
21
2786.610000
0
LINE
8
Calque 1
10
150.963000
20
2786.610000
11
150.397375
21
2784.222500
0
LINE
8
Calque 1
10
150.397375
20
2784.222500
11
149.711000
21
2781.430000
0
LINE
8
Calque 1
10
149.711000
20
2781.430000
11
148.727000
21
2778.930000
0
LINE
8
Calque 1
10
148.727000
20
2778.930000
11
147.323250
21
2775.290000
0
LINE
8
Calque 1
10
147.323250
20
2775.290000
11
146.170000
21
2771.800000
0
LINE
8
Calque 1
10
146.170000
20
2771.800000
11
145.674000
21
2769.830000
0
LINE
8
Calque 1
10
145.674000
20
2769.830000
11
145.454000
21
2768.760000
0
LINE
8
Calque 1
10
145.454000
20
2768.760000
11
145.437000
21
2768.450000
0
LINE
8
Calque 1
10
145.437000
20
2768.450000
11
145.452000
21
2768.380000
0
LINE
8
Calque 1
10
145.452000
20
2768.380000
11
147.235000
21
2769.630000
0
LINE
8
Calque 1
10
147.235000
20
2769.630000
11
148.811625
21
2770.416250
0
LINE
8
Calque 1
10
148.811625
20
2770.416250
11
149.858000
21
2770.850000
0
LINE
8
Calque 1
10
149.858000
20
2770.850000
11
152.065000
21
2772.170000
0
LINE
8
Calque 1
10
152.065000
20
2772.170000
11
153.850375
21
2772.910000
0
LINE
8
Calque 1
10
153.850375
20
2772.910000
11
155.113000
21
2773.350000
0
LINE
8
Calque 1
10
155.113000
20
2773.350000
11
155.242000
21
2773.400000
0
LINE
8
Calque 1
10
155.242000
20
2773.400000
11
155.603000
21
2773.640000
0
LINE
8
Calque 1
10
155.603000
20
2773.640000
11
156.768000
21
2774.240000
0
LINE
8
Calque 1
10
156.768000
20
2774.240000
11
157.481125
21
2774.547500
0
LINE
8
Calque 1
10
157.481125
20
2774.547500
11
157.622000
21
2774.570000
0
LINE
8
Calque 1
10
157.622000
20
2774.570000
11
158.520000
21
2775.130000
0
LINE
8
Calque 1
10
158.520000
20
2775.130000
11
160.090000
21
2775.940000
0
LINE
8
Calque 1
10
160.090000
20
2775.940000
11
160.946000
21
2776.600000
0
LINE
8
Calque 1
10
160.946000
20
2776.600000
11
163.301000
21
2778.210000
0
LINE
8
Calque 1
10
163.301000
20
2778.210000
11
164.177000
21
2778.950000
0
LINE
8
Calque 1
10
164.177000
20
2778.950000
11
165.062000
21
2779.530000
0
LINE
8
Calque 1
10
165.062000
20
2779.530000
11
166.444625
21
2781.035000
0
LINE
8
Calque 1
10
166.444625
20
2781.035000
11
167.966000
21
2782.960000
0
LINE
8
Calque 1
10
167.966000
20
2782.960000
11
167.988000
21
2782.990000
0
LINE
8
Calque 1
10
167.988000
20
2782.990000
11
167.653000
21
2783.140000
0
LINE
8
Calque 1
10
167.653000
20
2783.140000
11
166.562453
21
2783.759687
0
LINE
8
Calque 1
10
166.562453
20
2783.759687
11
165.689875
21
2784.437500
0
LINE
8
Calque 1
10
165.689875
20
2784.437500
11
164.440000
21
2785.630000
0
LINE
8
Calque 1
10
164.440000
20
2785.630000
11
158.763000
21
2790.860000
0
LINE
8
Calque 1
10
158.763000
20
2790.860000
11
156.621500
21
2793.036250
0
LINE
8
Calque 1
10
156.621500
20
2793.036250
11
154.711000
21
2795.220000
0
LINE
8
Calque 1
10
154.711000
20
2795.220000
11
154.711000
21
2795.220000
0
LINE
8
Calque 1
10
1.999880
20
2298.000000
11
248.000000
21
2298.000000
0
LINE
8
Calque 1
10
248.000000
20
2298.000000
11
348.000000
21
2298.000000
0
LINE
8
Calque 1
10
348.000000
20
2298.000000
11
348.000000
21
2102.000000
0
LINE
8
Calque 1
10
348.000000
20
2102.000000
11
1.999880
21
2102.000000
0
LINE
8
Calque 1
10
1.999880
20
2102.000000
11
1.999880
21
2298.000000
0
LINE
8
Calque 1
10
1.999880
20
2748.000000
11
123.000000
21
2748.000000
0
LINE
8
Calque 1
10
123.000000
20
2748.000000
11
248.000000
21
2748.000000
0
LINE
8
Calque 1
10
248.000000
20
2748.000000
11
248.000000
21
2302.000000
0
LINE
8
Calque 1
10
248.000000
20
2302.000000
11
1.999880
21
2302.000000
0
LINE
8
Calque 1
10
1.999880
20
2302.000000
11
1.999880
21
2748.000000
0
LINE
8
Calque 1
10
127.000000
20
2873.000000
11
248.000000
21
2873.000000
0
LINE
8
Calque 1
10
248.000000
20
2873.000000
11
248.000000
21
2752.000000
0
LINE
8
Calque 1
10
248.000000
20
2752.000000
11
127.000000
21
2752.000000
0
LINE
8
Calque 1
10
127.000000
20
2752.000000
11
127.000000
21
2873.000000
0
LINE
8
Calque 1
10
1.999880
20
2873.000000
11
123.000000
21
2873.000000
0
LINE
8
Calque 1
10
123.000000
20
2873.000000
11
123.000000
21
2752.000000
0
LINE
8
Calque 1
10
123.000000
20
2752.000000
11
1.999880
21
2752.000000
0
LINE
8
Calque 1
10
1.999880
20
2752.000000
11
1.999880
21
2873.000000
0
LINE
8
Calque 1
10
252.000000
20
2998.000000
11
598.000000
21
2998.000000
0
LINE
8
Calque 1
10
598.000000
20
2998.000000
11
598.000000
21
2302.000000
0
LINE
8
Calque 1
10
598.000000
20
2302.000000
11
352.000000
21
2302.000000
0
LINE
8
Calque 1
10
352.000000
20
2302.000000
11
252.000000
21
2302.000000
0
LINE
8
Calque 1
10
252.000000
20
2302.000000
11
252.000000
21
2752.000000
0
LINE
8
Calque 1
10
252.000000
20
2752.000000
11
252.000000
21
2873.000000
0
LINE
8
Calque 1
10
252.000000
20
2873.000000
11
252.000000
21
2877.000000
0
LINE
8
Calque 1
10
252.000000
20
2877.000000
11
252.000000
21
2998.000000
0
LINE
8
Calque 1
10
127.000000
20
2998.000000
11
248.000000
21
2998.000000
0
LINE
8
Calque 1
10
248.000000
20
2998.000000
11
248.000000
21
2877.000000
0
LINE
8
Calque 1
10
248.000000
20
2877.000000
11
127.000000
21
2877.000000
0
LINE
8
Calque 1
10
127.000000
20
2877.000000
11
127.000000
21
2998.000000
0
LINE
8
Calque 1
10
1.999880
20
2998.000000
11
123.000000
21
2998.000000
0
LINE
8
Calque 1
10
123.000000
20
2998.000000
11
123.000000
21
2877.000000
0
LINE
8
Calque 1
10
123.000000
20
2877.000000
11
1.999880
21
2877.000000
0
LINE
8
Calque 1
10
1.999880
20
2877.000000
11
1.999880
21
2998.000000
 0 
ENDSEC
 0 
EOF