999
dxfrw 0.6.3
  0
SECTION
  2
HEADER
  9
$ACADVER
  1
AC1021
  9
$DWGCODEPAGE
  3
ANSI_1252
  9
$INSBASE
 10
0
 20
0
 30
0
  9
$EXTMIN
 10
-160.625
 20
-161.25
 30
0
  9
$EXTMAX
 10
1020
 20
60.625
 30
0
  9
$LIMMIN
 10
0
 20
0
  9
$LIMMAX
 10
420
 20
297
  9
$ORTHOMODE
 70
    0
  9
$REGENMODE
 70
    1
  9
$FILLMODE
 70
    1
  9
$QTEXTMODE
 70
    0
  9
$MIRRTEXT
 70
    0
  9
$LTSCALE
 40
1
  9
$ATTMODE
 70
    0
  9
$TEXTSIZE
 40
2.5
  9
$TRACEWID
 40
15.68
  9
$TEXTSTYLE
  7
STANDARD
  9
$CLAYER
  8
arbre1
  9
$CELTYPE
  6
BYLAYER
  9
$CECOLOR
 62
  256
  9
$CELTSCALE
 40
1
  9
$DISPSILH
 70
    0
  9
$DIMSCALE
 40
1
  9
$DIMASZ
 40
2.5
  9
$DIMEXO
 40
0.625
  9
$DIMDLI
 40
3.75
  9
$DIMRND
 40
0
  9
$DIMDLE
 40
0
  9
$DIMEXE
 40
1.25
  9
$DIMTP
 40
0
  9
$DIMTM
 40
0
  9
$DIMTXT
 40
10
  9
$DIMCEN
 40
2.5
  9
$DIMTSZ
 40
0
  9
$DIMTOL
 70
    0
  9
$DIMLIM
 70
    0
  9
$DIMTIH
 70
    0
  9
$DIMTOH
 70
    0
  9
$DIMSE1
 70
    0
  9
$DIMSE2
 70
    0
  9
$DIMTAD
 70
    1
  9
$DIMZIN
 70
    8
  9
$DIMBLK
  1

  9
$DIMASO
 70
    1
  9
$DIMSHO
 70
    1
  9
$DIMPOST
  1

  9
$DIMAPOST
  1

  9
$DIMALT
 70
    0
  9
$DIMALTD
 70
    3
  9
$DIMALTF
 40
0.03937
  9
$DIMLFAC
 40
1
  9
$DIMTOFL
 70
    1
  9
$DIMTVP
 40
0
  9
$DIMTIX
 70
    0
  9
$DIMSOXD
 70
    0
  9
$DIMSAH
 70
    0
  9
$DIMBLK1
  1

  9
$DIMBLK2
  1

  9
$DIMSTYLE
  2
STANDARD
  9
$DIMCLRD
 70
    0
  9
$DIMCLRE
 70
    0
  9
$DIMCLRT
 70
    0
  9
$DIMTFAC
 40
1
  9
$DIMGAP
 40
0.625
  9
$DIMJUST
 70
    0
  9
$DIMSD1
 70
    0
  9
$DIMSD2
 70
    0
  9
$DIMTOLJ
 70
    0
  9
$DIMTZIN
 70
    8
  9
$DIMALTZ
 70
    0
  9
$DIMALTTZ
 70
    0
  9
$DIMUPT
 70
    0
  9
$DIMDEC
 70
    2
  9
$DIMTDEC
 70
    2
  9
$DIMALTU
 70
    2
  9
$DIMALTTD
 70
    3
  9
$DIMTXSTY
  7
STANDARD
  9
$DIMAUNIT
 70
    0
  9
$DIMADEC
 70
    0
  9
$DIMALTRND
 40
0
  9
$DIMAZIN
 70
    0
  9
$DIMDSEP
 70
   44
  9
$DIMATFIT
 70
    3
  9
$DIMFRAC
 70
    0
  9
$DIMLDRBLK
  1
STANDARD
  9
$DIMLUNIT
 70
    2
  9
$DIMLWD
 70
   -2
  9
$DIMLWE
 70
   -2
  9
$DIMTMOVE
 70
    0
  9
$DIMFXL
 40
1
  9
$DIMFXLON
 70
    0
  9
$DIMJOGANG
 40
0.7854
  9
$DIMTFILL
 70
    0
  9
$DIMTFILLCLR
 70
    0
  9
$DIMARCSYM
 70
    0
  9
$DIMLTYPE
  6

  9
$DIMLTEX1
  6

  9
$DIMLTEX2
  6

  9
$LUNITS
 70
    2
  9
$LUPREC
 70
    4
  9
$SKETCHINC
 40
1
  9
$FILLETRAD
 40
0
  9
$AUNITS
 70
    0
  9
$AUPREC
 70
    2
  9
$MENU
  1
.
  9
$ELEVATION
 40
0
  9
$PELEVATION
 40
0
  9
$THICKNESS
 40
0
  9
$LIMCHECK
 70
    0
  9
$CHAMFERA
 40
0
  9
$CHAMFERB
 40
0
  9
$CHAMFERC
 40
0
  9
$CHAMFERD
 40
0
  9
$SKPOLY
 70
    0
  9
$USRTIMER
 70
    1
  9
$ANGBASE
 50
0
  9
$ANGDIR
 70
    0
  9
$PDMODE
 70
   34
  9
$PDSIZE
 40
0
  9
$PLINEWID
 40
0
  9
$SPLFRAME
 70
    0
  9
$SPLINETYPE
 70
    2
  9
$SPLINESEGS
 70
    8
  9
$HANDSEED
  5
20000
  9
$SURFTAB1
 70
    6
  9
$SURFTAB2
 70
    6
  9
$SURFTYPE
 70
    6
  9
$SURFU
 70
    6
  9
$SURFV
 70
    6
  9
$UCSBASE
  2

  9
$UCSNAME
  2

  9
$UCSORG
 10
0
 20
0
 30
0
  9
$UCSXDIR
 10
1
 20
0
 30
0
  9
$UCSYDIR
 10
0
 20
1
 30
0
  9
$UCSORTHOREF
  2

  9
$UCSORTHOVIEW
 70
    0
  9
$UCSORGTOP
 10
0
 20
0
 30
0
  9
$UCSORGBOTTOM
 10
0
 20
0
 30
0
  9
$UCSORGLEFT
 10
0
 20
0
 30
0
  9
$UCSORGRIGHT
 10
0
 20
0
 30
0
  9
$UCSORGFRONT
 10
0
 20
0
 30
0
  9
$UCSORGBACK
 10
0
 20
0
 30
0
  9
$PUCSBASE
  2

  9
$PUCSNAME
  2

  9
$PUCSORG
 10
0
 20
0
 30
0
  9
$PUCSXDIR
 10
1
 20
0
 30
0
  9
$PUCSYDIR
 10
0
 20
1
 30
0
  9
$PUCSORTHOREF
  2

  9
$PUCSORTHOVIEW
 70
    0
  9
$PUCSORGTOP
 10
0
 20
0
 30
0
  9
$PUCSORGBOTTOM
 10
0
 20
0
 30
0
  9
$PUCSORGLEFT
 10
0
 20
0
 30
0
  9
$PUCSORGRIGHT
 10
0
 20
0
 30
0
  9
$PUCSORGFRONT
 10
0
 20
0
 30
0
  9
$PUCSORGBACK
 10
0
 20
0
 30
0
  9
$USERI1
 70
    0
  9
$USERI2
 70
    0
  9
$USERI3
 70
    0
  9
$USERI4
 70
    0
  9
$USERI5
 70
    0
  9
$USERR1
 40
0
  9
$USERR2
 40
0
  9
$USERR3
 40
0
  9
$USERR4
 40
0
  9
$USERR5
 40
0
  9
$WORLDVIEW
 70
    1
  9
$SHADEDGE
 70
    3
  9
$SHADEDIF
 70
   70
  9
$TILEMODE
 70
    1
  9
$MAXACTVP
 70
   64
  9
$PINSBASE
 10
0
 20
0
 30
0
  9
$PLIMCHECK
 70
    0
  9
$PEXTMIN
 10
0
 20
0
 30
0
  9
$PEXTMAX
 10
0
 20
0
 30
0
  9
$SNAPSTYLE
 70
    0
  9
$PLIMMIN
 10
0
 20
0
  9
$PLIMMAX
 10
297
 20
210
  9
$UNITMODE
 70
    0
  9
$VISRETAIN
 70
    1
  9
$PLINEGEN
 70
    0
  9
$PSLTSCALE
 70
    1
  9
$TREEDEPTH
 70
 3020
  9
$CMLSTYLE
  2
Standard
  9
$CMLJUST
 70
    0
  9
$CMLSCALE
 40
20
  9
$PROXYGRAPHICS
 70
    1
  9
$MEASUREMENT
 70
    1
  9
$CELWEIGHT
370
   -1
  9
$ENDCAPS
280
    0
  9
$JOINSTYLE
280
    0
  9
$LWDISPLAY
290
    0
  9
$INSUNITS
 70
    0
  9
$HYPERLINKBASE
  1

  9
$STYLESHEET
  1

  9
$XEDIT
290
    1
  9
$CEPSNTYPE
380
    0
  9
$PSTYLEMODE
290
    1
  9
$EXTNAMES
290
    1
  9
$PSVPSCALE
 40
0
  9
$OLESTARTUP
290
    0
  9
$SORTENTS
280
  127
  9
$INDEXCTL
280
    0
  9
$HIDETEXT
280
    1
  9
$XCLIPFRAME
290
    0
  9
$HALOGAP
280
    0
  9
$OBSCOLOR
 70
  257
  9
$OBSLTYPE
280
    0
  9
$INTERSECTIONDISPLAY
280
    0
  9
$INTERSECTIONCOLOR
 70
  257
  9
$DIMASSOC
280
    1
  9
$PROJECTNAME
  1

  9
$CAMERADISPLAY
290
    0
  9
$LENSLENGTH
 40
50
  9
$CAMERAHEIGHT
 40
0
  9
$STEPSPERSEC
 40
2
  9
$STEPSIZE
 40
50
  9
$3DDWFPREC
 40
2
  9
$PSOLWIDTH
 40
5
  9
$PSOLHEIGHT
 40
80
  9
$LOFTANG1
 40
1.570796326794897
  9
$LOFTANG2
 40
1.570796326794897
  9
$LOFTMAG1
 40
0
  9
$LOFTMAG2
 40
0
  9
$LOFTPARAM
 70
    7
  9
$LOFTNORMALS
280
    1
  9
$LATITUDE
 40
1
  9
$LONGITUDE
 40
1
  9
$NORTHDIRECTION
 40
0
  9
$TIMEZONE
 70
-8000
  9
$LIGHTGLYPHDISPLAY
280
    1
  9
$TILEMODELIGHTSYNCH
280
    1
  9
$SOLIDHIST
280
    1
  9
$SHOWHIST
280
    1
  9
$DWFFRAME
280
    2
  9
$DGNFRAME
280
    0
  9
$REALWORLDSCALE
290
    1
  9
$INTERFERECOLOR
 62
    1
  9
$CSHADOW
280
    0
  9
$SHADOWPLANELOCATION
 40
0
  0
ENDSEC
  0
SECTION
  2
CLASSES
  0
ENDSEC
  0
SECTION
  2
TABLES
  0
TABLE
  2
VPORT
  5
8
330
0
100
AcDbSymbolTable
 70
    1
  0
VPORT
  5
31
330
2
100
AcDbSymbolTableRecord
100
AcDbViewportTableRecord
  2
*ACTIVE
 70
    0
 10
0
 20
0
 11
1
 21
1
 12
329.5836998958829
 22
114.5163703028068
 13
0
 23
0
 14
10
 24
10
 15
10
 25
10
 16
0
 26
0
 36
1
 17
0
 27
0
 37
0
 40
507.6426903057348
 41
1.888583218707015
 42
50
 43
0
 44
0
 50
0
 51
0
 71
    0
 72
  100
 73
    1
 74
    3
 75
    0
 76
    1
 77
    0
 78
    0
281
    0
 65
    1
110
0
120
0
130
0
111
1
121
0
131
0
112
0
122
1
132
0
 79
    0
146
0
348
10020
 60
    7
 61
    5
292
1
282
    1
141
0
142
0
 63
  250
421
3358443
  0
ENDTAB
  0
TABLE
  2
LTYPE
  5
5
330
0
100
AcDbSymbolTable
 70
    4
  0
LTYPE
  5
14
330
5
100
AcDbSymbolTableRecord
100
AcDbLinetypeTableRecord
  2
ByBlock
 70
    0
  3

 72
   65
 73
    0
 40
0
  0
LTYPE
  5
15
330
5
100
AcDbSymbolTableRecord
100
AcDbLinetypeTableRecord
  2
ByLayer
 70
    0
  3

 72
   65
 73
    0
 40
0
  0
LTYPE
  5
16
330
5
100
AcDbSymbolTableRecord
100
AcDbLinetypeTableRecord
  2
Continuous
 70
    0
  3
Solid line
 72
   65
 73
    0
 40
0
  0
LTYPE
  5
32
330
5
100
AcDbSymbolTableRecord
100
AcDbLinetypeTableRecord
  2
DOT
 70
    0
  3
Dot . . . . . . . . . . . . . . . . . . . . . .
 72
   65
 73
    2
 40
6.35
 49
0
 74
    0
 49
-6.35
 74
    0
  0
LTYPE
  5
33
330
5
100
AcDbSymbolTableRecord
100
AcDbLinetypeTableRecord
  2
DOTTINY
 70
    0
  3
Dot (.15x) .....................................
 72
   65
 73
    2
 40
0.9525
 49
0
 74
    0
 49
-0.9525
 74
    0
  0
LTYPE
  5
34
330
5
100
AcDbSymbolTableRecord
100
AcDbLinetypeTableRecord
  2
DOT2
 70
    0
  3
Dot (.5x) .....................................
 72
   65
 73
    2
 40
3.175
 49
0
 74
    0
 49
-3.175
 74
    0
  0
LTYPE
  5
35
330
5
100
AcDbSymbolTableRecord
100
AcDbLinetypeTableRecord
  2
DOTX2
 70
    0
  3
Dot (2x) .  .  .  .  .  .  .  .  .  .  .  .  .
 72
   65
 73
    2
 40
12.7
 49
0
 74
    0
 49
-12.7
 74
    0
  0
LTYPE
  5
36
330
5
100
AcDbSymbolTableRecord
100
AcDbLinetypeTableRecord
  2
DASHED
 70
    0
  3
Dashed _ _ _ _ _ _ _ _ _ _ _ _ _ _ _ _ _
 72
   65
 73
    2
 40
19.05
 49
12.7
 74
    0
 49
-6.35
 74
    0
  0
LTYPE
  5
37
330
5
100
AcDbSymbolTableRecord
100
AcDbLinetypeTableRecord
  2
DASHEDTINY
 70
    0
  3
Dashed (.15x) _ _ _ _ _ _ _ _ _ _ _ _ _ _ _ _ _
 72
   65
 73
    2
 40
2.8575
 49
1.905
 74
    0
 49
-0.9525
 74
    0
  0
LTYPE
  5
38
330
5
100
AcDbSymbolTableRecord
100
AcDbLinetypeTableRecord
  2
DASHED2
 70
    0
  3
Dashed (.5x) _ _ _ _ _ _ _ _ _ _ _ _ _ _ _ _ _
 72
   65
 73
    2
 40
9.524999999999999
 49
6.35
 74
    0
 49
-3.175
 74
    0
  0
LTYPE
  5
39
330
5
100
AcDbSymbolTableRecord
100
AcDbLinetypeTableRecord
  2
DASHEDX2
 70
    0
  3
Dashed (2x) ____  ____  ____  ____  ____  ___
 72
   65
 73
    2
 40
38.09999999999999
 49
25.4
 74
    0
 49
-12.7
 74
    0
  0
LTYPE
  5
3A
330
5
100
AcDbSymbolTableRecord
100
AcDbLinetypeTableRecord
  2
DASHDOT
 70
    0
  3
Dash dot __ . __ . __ . __ . __ . __ . __ . __
 72
   65
 73
    4
 40
25.4
 49
12.7
 74
    0
 49
-6.35
 74
    0
 49
0
 74
    0
 49
-6.35
 74
    0
  0
LTYPE
  5
3B
330
5
100
AcDbSymbolTableRecord
100
AcDbLinetypeTableRecord
  2
DASHDOTTINY
 70
    0
  3
Dash dot (.15x) _._._._._._._._._._._._._._._.
 72
   65
 73
    4
 40
3.81
 49
1.905
 74
    0
 49
-0.9525
 74
    0
 49
0
 74
    0
 49
-0.9525
 74
    0
  0
LTYPE
  5
3C
330
5
100
AcDbSymbolTableRecord
100
AcDbLinetypeTableRecord
  2
DASHDOT2
 70
    0
  3
Dash dot (.5x) _._._._._._._._._._._._._._._.
 72
   65
 73
    4
 40
12.7
 49
6.35
 74
    0
 49
-3.175
 74
    0
 49
0
 74
    0
 49
-3.175
 74
    0
  0
LTYPE
  5
3D
330
5
100
AcDbSymbolTableRecord
100
AcDbLinetypeTableRecord
  2
DASHDOTX2
 70
    0
  3
Dash dot (2x) ____  .  ____  .  ____  .  ___
 72
   65
 73
    4
 40
50.8
 49
25.4
 74
    0
 49
-12.7
 74
    0
 49
0
 74
    0
 49
-12.7
 74
    0
  0
LTYPE
  5
3E
330
5
100
AcDbSymbolTableRecord
100
AcDbLinetypeTableRecord
  2
DIVIDE
 70
    0
  3
Divide ____ . . ____ . . ____ . . ____ . . ____
 72
   65
 73
    6
 40
31.75
 49
12.7
 74
    0
 49
-6.35
 74
    0
 49
0
 74
    0
 49
-6.35
 74
    0
 49
0
 74
    0
 49
-6.35
 74
    0
  0
LTYPE
  5
3F
330
5
100
AcDbSymbolTableRecord
100
AcDbLinetypeTableRecord
  2
DIVIDETINY
 70
    0
  3
Divide (.15x) __..__..__..__..__..__..__..__.._
 72
   65
 73
    6
 40
4.7625
 49
1.905
 74
    0
 49
-0.9525
 74
    0
 49
0
 74
    0
 49
-0.9525
 74
    0
 49
0
 74
    0
 49
-0.9525
 74
    0
  0
LTYPE
  5
40
330
5
100
AcDbSymbolTableRecord
100
AcDbLinetypeTableRecord
  2
DIVIDE2
 70
    0
  3
Divide (.5x) __..__..__..__..__..__..__..__.._
 72
   65
 73
    6
 40
15.875
 49
6.35
 74
    0
 49
-3.175
 74
    0
 49
0
 74
    0
 49
-3.175
 74
    0
 49
0
 74
    0
 49
-3.175
 74
    0
  0
LTYPE
  5
41
330
5
100
AcDbSymbolTableRecord
100
AcDbLinetypeTableRecord
  2
DIVIDEX2
 70
    0
  3
Divide (2x) ________  .  .  ________  .  .  _
 72
   65
 73
    6
 40
63.5
 49
25.4
 74
    0
 49
-12.7
 74
    0
 49
0
 74
    0
 49
-12.7
 74
    0
 49
0
 74
    0
 49
-12.7
 74
    0
  0
LTYPE
  5
42
330
5
100
AcDbSymbolTableRecord
100
AcDbLinetypeTableRecord
  2
BORDER
 70
    0
  3
Border __ __ . __ __ . __ __ . __ __ . __ __ .
 72
   65
 73
    6
 40
44.45
 49
12.7
 74
    0
 49
-6.35
 74
    0
 49
12.7
 74
    0
 49
-6.35
 74
    0
 49
0
 74
    0
 49
-6.35
 74
    0
  0
LTYPE
  5
43
330
5
100
AcDbSymbolTableRecord
100
AcDbLinetypeTableRecord
  2
BORDERTINY
 70
    0
  3
Border (.15x) __.__.__.__.__.__.__.__.__.__.__.
 72
   65
 73
    6
 40
6.6675
 49
1.905
 74
    0
 49
-0.9525
 74
    0
 49
1.905
 74
    0
 49
-0.9525
 74
    0
 49
0
 74
    0
 49
-0.9525
 74
    0
  0
LTYPE
  5
44
330
5
100
AcDbSymbolTableRecord
100
AcDbLinetypeTableRecord
  2
BORDER2
 70
    0
  3
Border (.5x) __.__.__.__.__.__.__.__.__.__.__.
 72
   65
 73
    6
 40
22.225
 49
6.35
 74
    0
 49
-3.175
 74
    0
 49
6.35
 74
    0
 49
-3.175
 74
    0
 49
0
 74
    0
 49
-3.175
 74
    0
  0
LTYPE
  5
45
330
5
100
AcDbSymbolTableRecord
100
AcDbLinetypeTableRecord
  2
BORDERX2
 70
    0
  3
Border (2x) ____  ____  .  ____  ____  .  ___
 72
   65
 73
    6
 40
88.89999999999999
 49
25.4
 74
    0
 49
-12.7
 74
    0
 49
25.4
 74
    0
 49
-12.7
 74
    0
 49
0
 74
    0
 49
-12.7
 74
    0
  0
LTYPE
  5
46
330
5
100
AcDbSymbolTableRecord
100
AcDbLinetypeTableRecord
  2
CENTER
 70
    0
  3
Center ____ _ ____ _ ____ _ ____ _ ____ _ ____
 72
   65
 73
    4
 40
50.8
 49
31.75
 74
    0
 49
-6.35
 74
    0
 49
6.35
 74
    0
 49
-6.35
 74
    0
  0
LTYPE
  5
47
330
5
100
AcDbSymbolTableRecord
100
AcDbLinetypeTableRecord
  2
CENTERTINY
 70
    0
  3
Center (.15x) ___ _ ___ _ ___ _ ___ _ ___ _ ___
 72
   65
 73
    4
 40
7.619999999999999
 49
4.7625
 74
    0
 49
-0.9525
 74
    0
 49
0.9525
 74
    0
 49
-0.9525
 74
    0
  0
LTYPE
  5
48
330
5
100
AcDbSymbolTableRecord
100
AcDbLinetypeTableRecord
  2
CENTER2
 70
    0
  3
Center (.5x) ___ _ ___ _ ___ _ ___ _ ___ _ ___
 72
   65
 73
    4
 40
28.575
 49
19.05
 74
    0
 49
-3.175
 74
    0
 49
3.175
 74
    0
 49
-3.175
 74
    0
  0
LTYPE
  5
49
330
5
100
AcDbSymbolTableRecord
100
AcDbLinetypeTableRecord
  2
CENTERX2
 70
    0
  3
Center (2x) ________  __  ________  __  _____
 72
   65
 73
    4
 40
101.6
 49
63.5
 74
    0
 49
-12.7
 74
    0
 49
12.7
 74
    0
 49
-12.7
 74
    0
  0
ENDTAB
  0
TABLE
  2
LAYER
  5
2
330
0
100
AcDbSymbolTable
 70
    1
  0
LAYER
  5
10
330
2
100
AcDbSymbolTableRecord
100
AcDbLayerTableRecord
  2
0
 70
    5
 62
    5
  6
CONTINUOUS
370
    0
390
F
  0
LAYER
  5
4A
330
2
100
AcDbSymbolTableRecord
100
AcDbLayerTableRecord
  2
arbre
 70
    0
 62
    7
  6
CONTINUOUS
370
   25
390
F
  0
LAYER
  5
4B
330
2
100
AcDbSymbolTableRecord
100
AcDbLayerTableRecord
  2
arbre1
 70
    1
 62
    6
  6
CONTINUOUS
370
    0
390
F
1001
LibreCad
1070
    1
  0
LAYER
  5
4C
330
2
100
AcDbSymbolTableRecord
100
AcDbLayerTableRecord
  2
cotes
 70
    0
 62
    7
  6
CONTINUOUS
370
    0
390
F
  0
ENDTAB
  0
TABLE
  2
STYLE
  5
3
330
0
100
AcDbSymbolTable
 70
    3
  0
STYLE
  5
4D
330
2
100
AcDbSymbolTableRecord
100
AcDbTextStyleTableRecord
  2
Standard
 70
    0
 40
0
 41
1
 50
0
 71
    0
 42
1
  3
txt
  4

  0
ENDTAB
  0
TABLE
  2
VIEW
  5
6
330
0
100
AcDbSymbolTable
 70
    0
  0
ENDTAB
  0
TABLE
  2
UCS
  5
7
330
0
100
AcDbSymbolTable
 70
    0
  0
ENDTAB
  0
TABLE
  2
APPID
  5
9
330
0
100
AcDbSymbolTable
 70
    1
  0
APPID
  5
12
330
9
100
AcDbSymbolTableRecord
100
AcDbRegAppTableRecord
  2
ACAD
 70
    0
  0
APPID
  5
4E
330
9
100
AcDbSymbolTableRecord
100
AcDbRegAppTableRecord
  2
LibreCad
 70
    0
  0
ENDTAB
  0
TABLE
  2
DIMSTYLE
  5
A
330
0
100
AcDbSymbolTable
 70
    1
100
AcDbDimStyleTable
 71
    1
  0
DIMSTYLE
105
4F
330
A
100
AcDbSymbolTableRecord
100
AcDbDimStyleTableRecord
  2
Standard
 70
    0
 40
1
 41
5
 42
0.625
 43
0.38
 44
1.25
 45
0
 46
0
 47
0
 48
0
 49
1
140
10
141
0.09
142
0
143
25.4
144
1
145
0
146
1
147
0.625
148
0
 71
    0
 72
    0
 73
    0
 74
    1
 75
    0
 76
    0
 77
    0
 78
    9
 79
    0
170
    0
171
    2
172
    0
173
    0
174
    0
175
    0
176
    0
177
    0
178
    0
179
    1
271
    2
272
    4
273
    2
274
    2
275
    0
276
    0
277
    2
278
    0
279
    0
280
    0
281
    0
282
    0
283
    1
284
    0
285
    0
286
    0
288
    0
289
    3
340
standard
341

371
   -2
372
   -2
  0
ENDTAB
  0
TABLE
  2
BLOCK_RECORD
  5
1
330
0
100
AcDbSymbolTable
 70
    2
  0
BLOCK_RECORD
  5
1F
330
1
100
AcDbSymbolTableRecord
100
AcDbBlockTableRecord
  2
*Model_Space
 70
    0
280
    1
281
    0
  0
BLOCK_RECORD
  5
1E
330
1
100
AcDbSymbolTableRecord
100
AcDbBlockTableRecord
  2
*Paper_Space
 70
    0
280
    1
281
    0
  0
BLOCK_RECORD
  5
50
330
1
100
AcDbSymbolTableRecord
100
AcDbBlockTableRecord
  2
*D19
 70
    0
280
    1
281
    0
  0
BLOCK_RECORD
  5
53
330
1
100
AcDbSymbolTableRecord
100
AcDbBlockTableRecord
  2
*D18
 70
    0
280
    1
281
    0
  0
BLOCK_RECORD
  5
56
330
1
100
AcDbSymbolTableRecord
100
AcDbBlockTableRecord
  2
*D7
 70
    0
280
    1
281
    0
  0
BLOCK_RECORD
  5
59
330
1
100
AcDbSymbolTableRecord
100
AcDbBlockTableRecord
  2
*D11
 70
    0
280
    1
281
    0
  0
BLOCK_RECORD
  5
5C
330
1
100
AcDbSymbolTableRecord
100
AcDbBlockTableRecord
  2
*D9
 70
    0
280
    1
281
    0
  0
BLOCK_RECORD
  5
5F
330
1
100
AcDbSymbolTableRecord
100
AcDbBlockTableRecord
  2
*D24
 70
    0
280
    1
281
    0
  0
BLOCK_RECORD
  5
62
330
1
100
AcDbSymbolTableRecord
100
AcDbBlockTableRecord
  2
*D2
 70
    0
280
    1
281
    0
  0
BLOCK_RECORD
  5
65
330
1
100
AcDbSymbolTableRecord
100
AcDbBlockTableRecord
  2
*D5
 70
    0
280
    1
281
    0
  0
BLOCK_RECORD
  5
68
330
1
100
AcDbSymbolTableRecord
100
AcDbBlockTableRecord
  2
*D20
 70
    0
280
    1
281
    0
  0
BLOCK_RECORD
  5
6B
330
1
100
AcDbSymbolTableRecord
100
AcDbBlockTableRecord
  2
*D4
 70
    0
280
    1
281
    0
  0
BLOCK_RECORD
  5
6E
330
1
100
AcDbSymbolTableRecord
100
AcDbBlockTableRecord
  2
*D16
 70
    0
280
    1
281
    0
  0
BLOCK_RECORD
  5
71
330
1
100
AcDbSymbolTableRecord
100
AcDbBlockTableRecord
  2
*D3
 70
    0
280
    1
281
    0
  0
BLOCK_RECORD
  5
74
330
1
100
AcDbSymbolTableRecord
100
AcDbBlockTableRecord
  2
*D23
 70
    0
280
    1
281
    0
  0
BLOCK_RECORD
  5
77
330
1
100
AcDbSymbolTableRecord
100
AcDbBlockTableRecord
  2
*D13
 70
    0
280
    1
281
    0
  0
BLOCK_RECORD
  5
7A
330
1
100
AcDbSymbolTableRecord
100
AcDbBlockTableRecord
  2
*D12
 70
    0
280
    1
281
    0
  0
BLOCK_RECORD
  5
7D
330
1
100
AcDbSymbolTableRecord
100
AcDbBlockTableRecord
  2
*D17
 70
    0
280
    1
281
    0
  0
BLOCK_RECORD
  5
80
330
1
100
AcDbSymbolTableRecord
100
AcDbBlockTableRecord
  2
*D10
 70
    0
280
    1
281
    0
  0
BLOCK_RECORD
  5
83
330
1
100
AcDbSymbolTableRecord
100
AcDbBlockTableRecord
  2
*D22
 70
    0
280
    1
281
    0
  0
BLOCK_RECORD
  5
86
330
1
100
AcDbSymbolTableRecord
100
AcDbBlockTableRecord
  2
*D14
 70
    0
280
    1
281
    0
  0
BLOCK_RECORD
  5
89
330
1
100
AcDbSymbolTableRecord
100
AcDbBlockTableRecord
  2
*D8
 70
    0
280
    1
281
    0
  0
BLOCK_RECORD
  5
8C
330
1
100
AcDbSymbolTableRecord
100
AcDbBlockTableRecord
  2
*D1
 70
    0
280
    1
281
    0
  0
BLOCK_RECORD
  5
8F
330
1
100
AcDbSymbolTableRecord
100
AcDbBlockTableRecord
  2
*D6
 70
    0
280
    1
281
    0
  0
BLOCK_RECORD
  5
92
330
1
100
AcDbSymbolTableRecord
100
AcDbBlockTableRecord
  2
*D15
 70
    0
280
    1
281
    0
  0
BLOCK_RECORD
  5
95
330
1
100
AcDbSymbolTableRecord
100
AcDbBlockTableRecord
  2
*D21
 70
    0
280
    1
281
    0
  0
ENDTAB
  0
ENDSEC
  0
SECTION
  2
BLOCKS
  0
BLOCK
  5
20
330
1F
100
AcDbEntity
  8
0
100
AcDbBlockBegin
  2
*Model_Space
 70
    0
 10
0
 20
0
 30
0
  3
*Model_Space
  1

  0
ENDBLK
  5
21
330
1F
100
AcDbEntity
  8
0
100
AcDbBlockEnd
  0
BLOCK
  5
1C
330
1B
100
AcDbEntity
  8
0
100
AcDbBlockBegin
  2
*Paper_Space
 70
    0
 10
0
 20
0
 30
0
  3
*Paper_Space
  1

  0
ENDBLK
  5
1D
330
1F
100
AcDbEntity
  8
0
100
AcDbBlockEnd
  0
BLOCK
  5
51
330
50
100
AcDbEntity
  8
0
100
AcDbBlockBegin
  2
*D19
 70
    1
 10
0
 20
0
  3
*D19
  1

  0
LINE
  5
98
100
AcDbEntity
  8
cotes
  6
ByBlock
 62
    0
370
   -2
100
AcDbLine
 10
-146.5
 20
-120
 11
-125
 21
-120
  0
MTEXT
  5
99
100
AcDbEntity
  8
cotes
  6
CONTINUOUS
 62
    0
370
   -2
100
AcDbMText
 10
-127.708333333333
 20
-114.375
 30
0
 40
10
 41
13.33333333333395
 71
    5
 72
    1
  1
1.5
  7
standard
210
0
220
0
230
1
 50
0
 73
    2
 44
1
  0
SOLID
  5
9A
100
AcDbEntity
  8
cotes
  6
ByBlock
 62
    0
370
   -2
100
AcDbTrace
 10
-136.5
 20
-120
 30
0
 11
-141.5
 21
-120.8325693155457
 31
0
 12
-141.5
 22
-119.1674306844543
 32
0
 13
-141.5
 23
-119.1674306844543
 33
0
  0
SOLID
  5
9B
100
AcDbEntity
  8
cotes
  6
ByBlock
 62
    0
370
   -2
100
AcDbTrace
 10
-135
 20
-120
 30
0
 11
-130
 21
-119.1674306844543
 31
0
 12
-130
 22
-120.8325693155457
 32
0
 13
-130
 23
-120.8325693155457
 33
0
  0
LINE
  5
9C
100
AcDbEntity
  8
cotes
  6
ByBlock
 62
    0
370
   -2
100
AcDbLine
 10
-136.5
 20
-139.375
 11
-136.5
 21
-118.75
  0
LINE
  5
9D
100
AcDbEntity
  8
cotes
  6
ByBlock
 62
    0
370
   -2
100
AcDbLine
 10
-135
 20
-139.375
 11
-135
 21
-118.75
  0
ENDBLK
  5
52
330
50
100
AcDbEntity
  8
0
100
AcDbBlockEnd
  0
BLOCK
  5
54
330
53
100
AcDbEntity
  8
0
100
AcDbBlockBegin
  2
*D18
 70
    1
 10
0
 20
0
  3
*D18
  1

  0
LINE
  5
9E
100
AcDbEntity
  8
cotes
  6
ByBlock
 62
    0
370
   -2
100
AcDbLine
 10
-150
 20
-55
 11
-150
 21
-85
  0
MTEXT
  5
9F
100
AcDbEntity
  8
cotes
  6
CONTINUOUS
 62
    0
370
   -2
100
AcDbMText
 10
-155.625
 20
-70
 30
0
 40
10
 41
10
 71
    5
 72
    1
  1
10
  7
standard
210
0
220
0
230
1
 50
90
 73
    2
 44
1
  0
SOLID
  5
A0
100
AcDbEntity
  8
cotes
  6
ByBlock
 62
    0
370
   -2
100
AcDbTrace
 10
-150
 20
-65
 30
0
 11
-150.8325693155457
 21
-60
 31
0
 12
-149.1674306844543
 22
-60
 32
0
 13
-149.1674306844543
 23
-60
 33
0
  0
SOLID
  5
A1
100
AcDbEntity
  8
cotes
  6
ByBlock
 62
    0
370
   -2
100
AcDbTrace
 10
-150
 20
-75
 30
0
 11
-149.1674306844543
 21
-80
 31
0
 12
-150.8325693155457
 22
-80
 32
0
 13
-150.8325693155457
 23
-80
 33
0
  0
LINE
  5
A2
100
AcDbEntity
  8
cotes
  6
ByBlock
 62
    0
370
   -2
100
AcDbLine
 10
-140.625
 20
-65
 11
-151.25
 21
-65
  0
LINE
  5
A3
100
AcDbEntity
  8
cotes
  6
ByBlock
 62
    0
370
   -2
100
AcDbLine
 10
-140.625
 20
-75
 11
-151.25
 21
-75
  0
ENDBLK
  5
55
330
53
100
AcDbEntity
  8
0
100
AcDbBlockEnd
  0
BLOCK
  5
57
330
56
100
AcDbEntity
  8
0
100
AcDbBlockBegin
  2
*D7
 70
    1
 10
0
 20
0
  3
*D7
  1

  0
LINE
  5
A4
100
AcDbEntity
  8
cotes
  6
ByBlock
 62
    0
370
   -2
100
AcDbLine
 10
444.7499999999999
 20
-60
 11
532.75
 21
-60
  0
MTEXT
  5
A5
100
AcDbEntity
  8
cotes
  6
CONTINUOUS
 62
    0
370
   -2
100
AcDbMText
 10
488.75
 20
-54.375
 30
0
 40
10
 41
12.22222222222222
 71
    5
 72
    1
  1
88
  7
standard
210
0
220
0
230
1
 50
0
 73
    2
 44
1
  0
SOLID
  5
A6
100
AcDbEntity
  8
cotes
  6
ByBlock
 62
    0
370
   -2
100
AcDbTrace
 10
444.7499999999999
 20
-60
 30
0
 11
449.7499999999999
 21
-59.16743068445432
 31
0
 12
449.7499999999999
 22
-60.83256931554568
 32
0
 13
449.7499999999999
 23
-60.83256931554568
 33
0
  0
SOLID
  5
A7
100
AcDbEntity
  8
cotes
  6
ByBlock
 62
    0
370
   -2
100
AcDbTrace
 10
532.75
 20
-60
 30
0
 11
527.75
 21
-60.83256931554568
 31
0
 12
527.75
 22
-59.16743068445432
 32
0
 13
527.75
 23
-59.16743068445432
 33
0
  0
LINE
  5
A8
100
AcDbEntity
  8
cotes
  6
ByBlock
 62
    0
370
   -2
100
AcDbLine
 10
444.7499999999999
 20
-69.375
 11
444.7499999999999
 21
-58.75
  0
LINE
  5
A9
100
AcDbEntity
  8
cotes
  6
ByBlock
 62
    0
370
   -2
100
AcDbLine
 10
532.75
 20
-69.375
 11
532.75
 21
-58.75
  0
ENDBLK
  5
58
330
56
100
AcDbEntity
  8
0
100
AcDbBlockEnd
  0
BLOCK
  5
5A
330
59
100
AcDbEntity
  8
0
100
AcDbBlockBegin
  2
*D11
 70
    1
 10
0
 20
0
  3
*D11
  1

  0
LINE
  5
AA
100
AcDbEntity
  8
cotes
  6
ByBlock
 62
    0
370
   -2
100
AcDbLine
 10
-62.75
 20
-130
 11
1020
 21
-130
  0
MTEXT
  5
AB
100
AcDbEntity
  8
cotes
  6
CONTINUOUS
 62
    0
370
   -2
100
AcDbMText
 10
478.625
 20
-124.375
 30
0
 40
10
 41
44.44444444444507
 71
    5
 72
    1
  1
1082.75
  7
standard
210
0
220
0
230
1
 50
0
 73
    2
 44
1
  0
SOLID
  5
AC
100
AcDbEntity
  8
cotes
  6
ByBlock
 62
    0
370
   -2
100
AcDbTrace
 10
-62.75
 20
-130
 30
0
 11
-57.75
 21
-129.1674306844543
 31
0
 12
-57.75
 22
-130.8325693155457
 32
0
 13
-57.75
 23
-130.8325693155457
 33
0
  0
SOLID
  5
AD
100
AcDbEntity
  8
cotes
  6
ByBlock
 62
    0
370
   -2
100
AcDbTrace
 10
1020
 20
-130
 30
0
 11
1015
 21
-130.8325693155457
 31
0
 12
1015
 22
-129.1674306844543
 32
0
 13
1015
 23
-129.1674306844543
 33
0
  0
LINE
  5
AE
100
AcDbEntity
  8
cotes
  6
ByBlock
 62
    0
370
   -2
100
AcDbLine
 10
-62.75
 20
-139.375
 11
-62.75
 21
-128.75
  0
LINE
  5
AF
100
AcDbEntity
  8
cotes
  6
ByBlock
 62
    0
370
   -2
100
AcDbLine
 10
1020
 20
-139.375
 11
1020
 21
-128.75
  0
ENDBLK
  5
5B
330
59
100
AcDbEntity
  8
0
100
AcDbBlockEnd
  0
BLOCK
  5
5D
330
5C
100
AcDbEntity
  8
0
100
AcDbBlockBegin
  2
*D9
 70
    1
 10
0
 20
0
  3
*D9
  1

  0
LINE
  5
B0
100
AcDbEntity
  8
cotes
  6
ByBlock
 62
    0
370
   -2
100
AcDbLine
 10
534.75
 20
-30
 11
560
 21
-30
  0
MTEXT
  5
B1
100
AcDbEntity
  8
cotes
  6
CONTINUOUS
 62
    0
370
   -2
100
AcDbMText
 10
562.2916666666673
 20
-24.375
 30
0
 40
10
 41
23.33333333333457
 71
    5
 72
    1
  1
5.25
  7
standard
210
0
220
0
230
1
 50
0
 73
    2
 44
1
  0
SOLID
  5
B2
100
AcDbEntity
  8
cotes
  6
ByBlock
 62
    0
370
   -2
100
AcDbTrace
 10
544.75
 20
-30
 30
0
 11
539.75
 21
-30.83256931554568
 31
0
 12
539.75
 22
-29.16743068445432
 32
0
 13
539.75
 23
-29.16743068445432
 33
0
  0
SOLID
  5
B3
100
AcDbEntity
  8
cotes
  6
ByBlock
 62
    0
370
   -2
100
AcDbTrace
 10
550
 20
-30
 30
0
 11
555
 21
-29.16743068445432
 31
0
 12
555
 22
-30.83256931554568
 32
0
 13
555
 23
-30.83256931554568
 33
0
  0
LINE
  5
B4
100
AcDbEntity
  8
cotes
  6
ByBlock
 62
    0
370
   -2
100
AcDbLine
 10
544.75
 20
-69.375
 11
544.75
 21
-28.75
  0
LINE
  5
B5
100
AcDbEntity
  8
cotes
  6
ByBlock
 62
    0
370
   -2
100
AcDbLine
 10
550
 20
-69.375
 11
550
 21
-28.75
  0
ENDBLK
  5
5E
330
5C
100
AcDbEntity
  8
0
100
AcDbBlockEnd
  0
BLOCK
  5
60
330
5F
100
AcDbEntity
  8
0
100
AcDbBlockBegin
  2
*D24
 70
    1
 10
0
 20
0
  3
*D24
  1

  0
LINE
  5
B6
100
AcDbEntity
  8
cotes
  6
ByBlock
 62
    0
370
   -2
100
AcDbLine
 10
29.5
 20
10
 11
130
 21
10
  0
MTEXT
  5
B7
100
AcDbEntity
  8
cotes
  6
CONTINUOUS
 62
    0
370
   -2
100
AcDbMText
 10
79.75
 20
15.625
 30
0
 40
10
 41
28.88888888888951
 71
    5
 72
    1
  1
100.5
  7
standard
210
0
220
0
230
1
 50
0
 73
    2
 44
1
  0
SOLID
  5
B8
100
AcDbEntity
  8
cotes
  6
ByBlock
 62
    0
370
   -2
100
AcDbTrace
 10
29.5
 20
10
 30
0
 11
34.5
 21
10.83256931554568
 31
0
 12
34.5
 22
9.167430684454319
 32
0
 13
34.5
 23
9.167430684454319
 33
0
  0
SOLID
  5
B9
100
AcDbEntity
  8
cotes
  6
ByBlock
 62
    0
370
   -2
100
AcDbTrace
 10
130
 20
10
 30
0
 11
125
 21
9.167430684454319
 31
0
 12
125
 22
10.83256931554568
 32
0
 13
125
 23
10.83256931554568
 33
0
  0
LINE
  5
BA
100
AcDbEntity
  8
cotes
  6
ByBlock
 62
    0
370
   -2
100
AcDbLine
 10
29.5
 20
0.6249999999999994
 11
29.5
 21
11.25
  0
LINE
  5
BB
100
AcDbEntity
  8
cotes
  6
ByBlock
 62
    0
370
   -2
100
AcDbLine
 10
130
 20
0.625
 11
130
 21
11.25
  0
ENDBLK
  5
61
330
5F
100
AcDbEntity
  8
0
100
AcDbBlockEnd
  0
BLOCK
  5
63
330
62
100
AcDbEntity
  8
0
100
AcDbBlockBegin
  2
*D2
 70
    1
 10
0
 20
0
  3
*D2
  1

  0
LINE
  5
BC
100
AcDbEntity
  8
cotes
  6
ByBlock
 62
    0
370
   -2
100
AcDbLine
 10
-39.00000000000001
 20
10
 11
-17.5
 21
10
  0
MTEXT
  5
BD
100
AcDbEntity
  8
cotes
  6
CONTINUOUS
 62
    0
370
   -2
100
AcDbMText
 10
-28.25
 20
15.625
 30
0
 40
10
 41
21.11111111111173
 71
    5
 72
    1
  1
21.5
  7
standard
210
0
220
0
230
1
 50
0
 73
    2
 44
1
  0
SOLID
  5
BE
100
AcDbEntity
  8
cotes
  6
ByBlock
 62
    0
370
   -2
100
AcDbTrace
 10
-39.00000000000001
 20
10
 30
0
 11
-34.00000000000001
 21
10.83256931554568
 31
0
 12
-34.00000000000001
 22
9.167430684454319
 32
0
 13
-34.00000000000001
 23
9.167430684454319
 33
0
  0
SOLID
  5
BF
100
AcDbEntity
  8
cotes
  6
ByBlock
 62
    0
370
   -2
100
AcDbTrace
 10
-17.5
 20
10
 30
0
 11
-22.5
 21
9.167430684454319
 31
0
 12
-22.5
 22
10.83256931554568
 32
0
 13
-22.5
 23
10.83256931554568
 33
0
  0
LINE
  5
C0
100
AcDbEntity
  8
cotes
  6
ByBlock
 62
    0
370
   -2
100
AcDbLine
 10
-39.00000000000001
 20
0.6249999999999997
 11
-39.00000000000001
 21
11.25
  0
LINE
  5
C1
100
AcDbEntity
  8
cotes
  6
ByBlock
 62
    0
370
   -2
100
AcDbLine
 10
-17.5
 20
0.625
 11
-17.5
 21
11.25
  0
ENDBLK
  5
64
330
62
100
AcDbEntity
  8
0
100
AcDbBlockEnd
  0
BLOCK
  5
66
330
65
100
AcDbEntity
  8
0
100
AcDbBlockBegin
  2
*D5
 70
    1
 10
0
 20
0
  3
*D5
  1

  0
LINE
  5
C2
100
AcDbEntity
  8
cotes
  6
ByBlock
 62
    0
370
   -2
100
AcDbLine
 10
-80.00000000000006
 20
-60
 11
432.7499999999999
 21
-60
  0
MTEXT
  5
C3
100
AcDbEntity
  8
cotes
  6
CONTINUOUS
 62
    0
370
   -2
100
AcDbMText
 10
176.3749999999999
 20
-54.375
 30
0
 40
10
 41
36.66666666666791
 71
    5
 72
    1
  1
512.75
  7
standard
210
0
220
0
230
1
 50
0
 73
    2
 44
1
  0
SOLID
  5
C4
100
AcDbEntity
  8
cotes
  6
ByBlock
 62
    0
370
   -2
100
AcDbTrace
 10
-80.00000000000006
 20
-60
 30
0
 11
-75.00000000000006
 21
-59.16743068445432
 31
0
 12
-75.00000000000006
 22
-60.83256931554568
 32
0
 13
-75.00000000000006
 23
-60.83256931554568
 33
0
  0
SOLID
  5
C5
100
AcDbEntity
  8
cotes
  6
ByBlock
 62
    0
370
   -2
100
AcDbTrace
 10
432.7499999999999
 20
-60
 30
0
 11
427.7499999999999
 21
-60.83256931554568
 31
0
 12
427.7499999999999
 22
-59.16743068445432
 32
0
 13
427.7499999999999
 23
-59.16743068445432
 33
0
  0
LINE
  5
C6
100
AcDbEntity
  8
cotes
  6
ByBlock
 62
    0
370
   -2
100
AcDbLine
 10
-80
 20
-69.375
 11
-80.00000000000007
 21
-58.75
  0
LINE
  5
C7
100
AcDbEntity
  8
cotes
  6
ByBlock
 62
    0
370
   -2
100
AcDbLine
 10
432.7499999999999
 20
-69.375
 11
432.7499999999999
 21
-58.75
  0
ENDBLK
  5
67
330
65
100
AcDbEntity
  8
0
100
AcDbBlockEnd
  0
BLOCK
  5
69
330
68
100
AcDbEntity
  8
0
100
AcDbBlockBegin
  2
*D20
 70
    1
 10
0
 20
0
  3
*D20
  1

  0
LINE
  5
C8
100
AcDbEntity
  8
cotes
  6
ByBlock
 62
    0
370
   -2
100
AcDbLine
 10
-150
 20
-125
 11
-150
 21
-155
  0
MTEXT
  5
C9
100
AcDbEntity
  8
cotes
  6
CONTINUOUS
 62
    0
370
   -2
100
AcDbMText
 10
-155.625
 20
-140
 30
0
 40
10
 41
10
 71
    5
 72
    1
  1
10
  7
standard
210
0
220
0
230
1
 50
90
 73
    2
 44
1
  0
SOLID
  5
CA
100
AcDbEntity
  8
cotes
  6
ByBlock
 62
    0
370
   -2
100
AcDbTrace
 10
-150
 20
-135
 30
0
 11
-150.8325693155457
 21
-130
 31
0
 12
-149.1674306844543
 22
-130
 32
0
 13
-149.1674306844543
 23
-130
 33
0
  0
SOLID
  5
CB
100
AcDbEntity
  8
cotes
  6
ByBlock
 62
    0
370
   -2
100
AcDbTrace
 10
-150
 20
-145
 30
0
 11
-149.1674306844543
 21
-150
 31
0
 12
-150.8325693155457
 22
-150
 32
0
 13
-150.8325693155457
 23
-150
 33
0
  0
LINE
  5
CC
100
AcDbEntity
  8
cotes
  6
ByBlock
 62
    0
370
   -2
100
AcDbLine
 10
-140.625
 20
-135
 11
-151.25
 21
-135
  0
LINE
  5
CD
100
AcDbEntity
  8
cotes
  6
ByBlock
 62
    0
370
   -2
100
AcDbLine
 10
-140.625
 20
-145
 11
-151.25
 21
-145
  0
ENDBLK
  5
6A
330
68
100
AcDbEntity
  8
0
100
AcDbBlockEnd
  0
BLOCK
  5
6C
330
6B
100
AcDbEntity
  8
0
100
AcDbBlockBegin
  2
*D4
 70
    1
 10
0
 20
0
  3
*D4
  1

  0
LINE
  5
CE
100
AcDbEntity
  8
cotes
  6
ByBlock
 62
    0
370
   -2
100
AcDbLine
 10
-61.00000000000001
 20
30
 11
-29.00000000000001
 21
30
  0
MTEXT
  5
CF
100
AcDbEntity
  8
cotes
  6
CONTINUOUS
 62
    0
370
   -2
100
AcDbMText
 10
-45.00000000000001
 20
35.625
 30
0
 40
10
 41
10
 71
    5
 72
    1
  1
12
  7
standard
210
0
220
0
230
1
 50
0
 73
    2
 44
1
  0
SOLID
  5
D0
100
AcDbEntity
  8
cotes
  6
ByBlock
 62
    0
370
   -2
100
AcDbTrace
 10
-51.00000000000001
 20
30
 30
0
 11
-56.00000000000001
 21
29.16743068445432
 31
0
 12
-56.00000000000001
 22
30.83256931554568
 32
0
 13
-56.00000000000001
 23
30.83256931554568
 33
0
  0
SOLID
  5
D1
100
AcDbEntity
  8
cotes
  6
ByBlock
 62
    0
370
   -2
100
AcDbTrace
 10
-39.00000000000001
 20
30
 30
0
 11
-34.00000000000001
 21
30.83256931554568
 31
0
 12
-34.00000000000001
 22
29.16743068445432
 32
0
 13
-34.00000000000001
 23
29.16743068445432
 33
0
  0
LINE
  5
D2
100
AcDbEntity
  8
cotes
  6
ByBlock
 62
    0
370
   -2
100
AcDbLine
 10
-51.00000000000001
 20
0.6250000000000002
 11
-51.00000000000001
 21
31.25
  0
LINE
  5
D3
100
AcDbEntity
  8
cotes
  6
ByBlock
 62
    0
370
   -2
100
AcDbLine
 10
-39.00000000000001
 20
0.6249999999999997
 11
-39.00000000000001
 21
31.25
  0
ENDBLK
  5
6D
330
6B
100
AcDbEntity
  8
0
100
AcDbBlockEnd
  0
BLOCK
  5
6F
330
6E
100
AcDbEntity
  8
0
100
AcDbBlockBegin
  2
*D16
 70
    1
 10
0
 20
0
  3
*D16
  1

  0
LINE
  5
D4
100
AcDbEntity
  8
cotes
  6
ByBlock
 62
    0
370
   -2
100
AcDbLine
 10
-150
 20
15
 11
-150
 21
-15
  0
MTEXT
  5
D5
100
AcDbEntity
  8
cotes
  6
CONTINUOUS
 62
    0
370
   -2
100
AcDbMText
 10
-155.625
 20
1.132953034370449e-15
 30
0
 40
10
 41
10
 71
    5
 72
    1
  1
10
  7
standard
210
0
220
0
230
1
 50
90
 73
    2
 44
1
  0
SOLID
  5
D6
100
AcDbEntity
  8
cotes
  6
ByBlock
 62
    0
370
   -2
100
AcDbTrace
 10
-150
 20
5.000000000000001
 30
0
 11
-150.8325693155457
 21
10
 31
0
 12
-149.1674306844543
 22
10
 32
0
 13
-149.1674306844543
 23
10
 33
0
  0
SOLID
  5
D7
100
AcDbEntity
  8
cotes
  6
ByBlock
 62
    0
370
   -2
100
AcDbTrace
 10
-150
 20
-5
 30
0
 11
-149.1674306844543
 21
-10
 31
0
 12
-150.8325693155457
 22
-10
 32
0
 13
-150.8325693155457
 23
-10
 33
0
  0
LINE
  5
D8
100
AcDbEntity
  8
cotes
  6
ByBlock
 62
    0
370
   -2
100
AcDbLine
 10
-140.625
 20
5
 11
-151.25
 21
5.000000000000001
  0
LINE
  5
D9
100
AcDbEntity
  8
cotes
  6
ByBlock
 62
    0
370
   -2
100
AcDbLine
 10
-140.625
 20
-5
 11
-151.25
 21
-5
  0
ENDBLK
  5
70
330
6E
100
AcDbEntity
  8
0
100
AcDbBlockEnd
  0
BLOCK
  5
72
330
71
100
AcDbEntity
  8
0
100
AcDbBlockBegin
  2
*D3
 70
    1
 10
0
 20
0
  3
*D3
  1

  0
LINE
  5
DA
100
AcDbEntity
  8
cotes
  6
ByBlock
 62
    0
370
   -2
100
AcDbLine
 10
-80
 20
10
 11
-51.00000000000001
 21
10
  0
MTEXT
  5
DB
100
AcDbEntity
  8
cotes
  6
CONTINUOUS
 62
    0
370
   -2
100
AcDbMText
 10
-65.5
 20
15.625
 30
0
 40
10
 41
12.22222222222222
 71
    5
 72
    1
  1
29
  7
standard
210
0
220
0
230
1
 50
0
 73
    2
 44
1
  0
SOLID
  5
DC
100
AcDbEntity
  8
cotes
  6
ByBlock
 62
    0
370
   -2
100
AcDbTrace
 10
-80
 20
10
 30
0
 11
-75
 21
10.83256931554568
 31
0
 12
-75
 22
9.167430684454319
 32
0
 13
-75
 23
9.167430684454319
 33
0
  0
SOLID
  5
DD
100
AcDbEntity
  8
cotes
  6
ByBlock
 62
    0
370
   -2
100
AcDbTrace
 10
-51.00000000000001
 20
10
 30
0
 11
-56.00000000000001
 21
9.167430684454319
 31
0
 12
-56.00000000000001
 22
10.83256931554568
 32
0
 13
-56.00000000000001
 23
10.83256931554568
 33
0
  0
LINE
  5
DE
100
AcDbEntity
  8
cotes
  6
ByBlock
 62
    0
370
   -2
100
AcDbLine
 10
-80
 20
0.625
 11
-80
 21
11.25
  0
LINE
  5
DF
100
AcDbEntity
  8
cotes
  6
ByBlock
 62
    0
370
   -2
100
AcDbLine
 10
-51.00000000000001
 20
0.6250000000000002
 11
-51.00000000000001
 21
11.25
  0
ENDBLK
  5
73
330
71
100
AcDbEntity
  8
0
100
AcDbBlockEnd
  0
BLOCK
  5
75
330
74
100
AcDbEntity
  8
0
100
AcDbBlockBegin
  2
*D23
 70
    1
 10
0
 20
0
  3
*D23
  1

  0
LINE
  5
E0
100
AcDbEntity
  8
cotes
  6
ByBlock
 62
    0
370
   -2
100
AcDbLine
 10
7.5
 20
50
 11
39.5
 21
50
  0
MTEXT
  5
E1
100
AcDbEntity
  8
cotes
  6
CONTINUOUS
 62
    0
370
   -2
100
AcDbMText
 10
23.5
 20
55.625
 30
0
 40
10
 41
10
 71
    5
 72
    1
  1
12
  7
standard
210
0
220
0
230
1
 50
0
 73
    2
 44
1
  0
SOLID
  5
E2
100
AcDbEntity
  8
cotes
  6
ByBlock
 62
    0
370
   -2
100
AcDbTrace
 10
17.5
 20
50
 30
0
 11
12.5
 21
49.16743068445432
 31
0
 12
12.5
 22
50.83256931554568
 32
0
 13
12.5
 23
50.83256931554568
 33
0
  0
SOLID
  5
E3
100
AcDbEntity
  8
cotes
  6
ByBlock
 62
    0
370
   -2
100
AcDbTrace
 10
29.5
 20
50
 30
0
 11
34.5
 21
50.83256931554568
 31
0
 12
34.5
 22
49.16743068445432
 32
0
 13
34.5
 23
49.16743068445432
 33
0
  0
LINE
  5
E4
100
AcDbEntity
  8
cotes
  6
ByBlock
 62
    0
370
   -2
100
AcDbLine
 10
17.5
 20
0.6249999999999997
 11
17.5
 21
51.25
  0
LINE
  5
E5
100
AcDbEntity
  8
cotes
  6
ByBlock
 62
    0
370
   -2
100
AcDbLine
 10
29.5
 20
0.6249999999999991
 11
29.5
 21
51.25
  0
ENDBLK
  5
76
330
74
100
AcDbEntity
  8
0
100
AcDbBlockEnd
  0
BLOCK
  5
78
330
77
100
AcDbEntity
  8
0
100
AcDbBlockBegin
  2
*D13
 70
    1
 10
0
 20
0
  3
*D13
  1

  0
LINE
  5
E6
100
AcDbEntity
  8
cotes
  6
ByBlock
 62
    0
370
   -2
100
AcDbLine
 10
-84.75
 20
-120
 11
-52.75
 21
-120
  0
MTEXT
  5
E7
100
AcDbEntity
  8
cotes
  6
CONTINUOUS
 62
    0
370
   -2
100
AcDbMText
 10
-69
 20
-115
 30
0
 40
10
 41
10
 71
    5
 72
    1
  1
12
  7
standard
210
0
220
0
230
1
 50
0
 73
    2
 44
1
  0
SOLID
  5
E8
100
AcDbEntity
  8
cotes
  6
ByBlock
 62
    0
370
   -2
100
AcDbTrace
 10
-74.75
 20
-120
 30
0
 11
-79.75
 21
-120.8325693155457
 31
0
 12
-79.75
 22
-119.1674306844543
 32
0
 13
-79.75
 23
-119.1674306844543
 33
0
  0
SOLID
  5
E9
100
AcDbEntity
  8
cotes
  6
ByBlock
 62
    0
370
   -2
100
AcDbTrace
 10
-62.75
 20
-120
 30
0
 11
-57.75
 21
-119.1674306844543
 31
0
 12
-57.75
 22
-120.8325693155457
 32
0
 13
-57.75
 23
-120.8325693155457
 33
0
  0
LINE
  5
EA
100
AcDbEntity
  8
cotes
  6
ByBlock
 62
    0
370
   -2
100
AcDbLine
 10
-74.75
 20
-139.375
 11
-74.75
 21
-118.75
  0
LINE
  5
EB
100
AcDbEntity
  8
cotes
  6
ByBlock
 62
    0
370
   -2
100
AcDbLine
 10
-62.75
 20
-139.375
 11
-62.75
 21
-118.75
  0
ENDBLK
  5
79
330
77
100
AcDbEntity
  8
0
100
AcDbBlockEnd
  0
BLOCK
  5
7B
330
7A
100
AcDbEntity
  8
0
100
AcDbBlockBegin
  2
*D12
 70
    1
 10
0
 20
0
  3
*D12
  1

  0
LINE
  5
EC
100
AcDbEntity
  8
cotes
  6
ByBlock
 62
    0
370
   -2
100
AcDbLine
 10
-80
 20
-160
 11
1020
 21
-160
  0
MTEXT
  5
ED
100
AcDbEntity
  8
cotes
  6
CONTINUOUS
 62
    0
370
   -2
100
AcDbMText
 10
470
 20
-154.375
 30
0
 40
10
 41
23.33333333333334
 71
    5
 72
    1
  1
1100
  7
standard
210
0
220
0
230
1
 50
0
 73
    2
 44
1
  0
SOLID
  5
EE
100
AcDbEntity
  8
cotes
  6
ByBlock
 62
    0
370
   -2
100
AcDbTrace
 10
-80
 20
-160
 30
0
 11
-75
 21
-159.1674306844543
 31
0
 12
-75
 22
-160.8325693155457
 32
0
 13
-75
 23
-160.8325693155457
 33
0
  0
SOLID
  5
EF
100
AcDbEntity
  8
cotes
  6
ByBlock
 62
    0
370
   -2
100
AcDbTrace
 10
1020
 20
-160
 30
0
 11
1015
 21
-160.8325693155457
 31
0
 12
1015
 22
-159.1674306844543
 32
0
 13
1015
 23
-159.1674306844543
 33
0
  0
LINE
  5
F0
100
AcDbEntity
  8
cotes
  6
ByBlock
 62
    0
370
   -2
100
AcDbLine
 10
-80
 20
-140.625
 11
-80
 21
-161.25
  0
LINE
  5
F1
100
AcDbEntity
  8
cotes
  6
ByBlock
 62
    0
370
   -2
100
AcDbLine
 10
1020
 20
-140.625
 11
1020
 21
-161.25
  0
ENDBLK
  5
7C
330
7A
100
AcDbEntity
  8
0
100
AcDbBlockEnd
  0
BLOCK
  5
7E
330
7D
100
AcDbEntity
  8
0
100
AcDbBlockBegin
  2
*D17
 70
    1
 10
0
 20
0
  3
*D17
  1

  0
LINE
  5
F2
100
AcDbEntity
  8
cotes
  6
ByBlock
 62
    0
370
   -2
100
AcDbLine
 10
-146.5
 20
-50
 11
-125
 21
-50
  0
MTEXT
  5
F3
100
AcDbEntity
  8
cotes
  6
CONTINUOUS
 62
    0
370
   -2
100
AcDbMText
 10
-127.708333333333
 20
-44.375
 30
0
 40
10
 41
13.33333333333395
 71
    5
 72
    1
  1
1.5
  7
standard
210
0
220
0
230
1
 50
0
 73
    2
 44
1
  0
SOLID
  5
F4
100
AcDbEntity
  8
cotes
  6
ByBlock
 62
    0
370
   -2
100
AcDbTrace
 10
-136.5
 20
-50
 30
0
 11
-141.5
 21
-50.83256931554568
 31
0
 12
-141.5
 22
-49.16743068445432
 32
0
 13
-141.5
 23
-49.16743068445432
 33
0
  0
SOLID
  5
F5
100
AcDbEntity
  8
cotes
  6
ByBlock
 62
    0
370
   -2
100
AcDbTrace
 10
-135
 20
-50
 30
0
 11
-130
 21
-49.16743068445432
 31
0
 12
-130
 22
-50.83256931554568
 32
0
 13
-130
 23
-50.83256931554568
 33
0
  0
LINE
  5
F6
100
AcDbEntity
  8
cotes
  6
ByBlock
 62
    0
370
   -2
100
AcDbLine
 10
-136.5
 20
-69.375
 11
-136.5
 21
-48.75
  0
LINE
  5
F7
100
AcDbEntity
  8
cotes
  6
ByBlock
 62
    0
370
   -2
100
AcDbLine
 10
-135
 20
-69.375
 11
-135
 21
-48.75
  0
ENDBLK
  5
7F
330
7D
100
AcDbEntity
  8
0
100
AcDbBlockEnd
  0
BLOCK
  5
81
330
80
100
AcDbEntity
  8
0
100
AcDbBlockBegin
  2
*D10
 70
    1
 10
0
 20
0
  3
*D10
  1

  0
LINE
  5
F8
100
AcDbEntity
  8
cotes
  6
ByBlock
 62
    0
370
   -2
100
AcDbLine
 10
-80
 20
-90
 11
550
 21
-90
  0
MTEXT
  5
F9
100
AcDbEntity
  8
cotes
  6
CONTINUOUS
 62
    0
370
   -2
100
AcDbMText
 10
235
 20
-84.375
 30
0
 40
10
 41
20.00000000000124
 71
    5
 72
    1
  1
630
  7
standard
210
0
220
0
230
1
 50
0
 73
    2
 44
1
  0
SOLID
  5
FA
100
AcDbEntity
  8
cotes
  6
ByBlock
 62
    0
370
   -2
100
AcDbTrace
 10
-80
 20
-90
 30
0
 11
-75
 21
-89.16743068445432
 31
0
 12
-75
 22
-90.83256931554568
 32
0
 13
-75
 23
-90.83256931554568
 33
0
  0
SOLID
  5
FB
100
AcDbEntity
  8
cotes
  6
ByBlock
 62
    0
370
   -2
100
AcDbTrace
 10
550
 20
-90
 30
0
 11
545
 21
-90.83256931554568
 31
0
 12
545
 22
-89.16743068445432
 32
0
 13
545
 23
-89.16743068445432
 33
0
  0
LINE
  5
FC
100
AcDbEntity
  8
cotes
  6
ByBlock
 62
    0
370
   -2
100
AcDbLine
 10
-80
 20
-69.925
 11
-80
 21
-91.25
  0
LINE
  5
FD
100
AcDbEntity
  8
cotes
  6
ByBlock
 62
    0
370
   -2
100
AcDbLine
 10
550
 20
-70.625
 11
550
 21
-91.25
  0
ENDBLK
  5
82
330
80
100
AcDbEntity
  8
0
100
AcDbBlockEnd
  0
BLOCK
  5
84
330
83
100
AcDbEntity
  8
0
100
AcDbBlockBegin
  2
*D22
 70
    1
 10
0
 20
0
  3
*D22
  1

  0
LINE
  5
FE
100
AcDbEntity
  8
cotes
  6
ByBlock
 62
    0
370
   -2
100
AcDbLine
 10
-17.5
 20
30
 11
17.5
 21
30
  0
MTEXT
  5
FF
100
AcDbEntity
  8
cotes
  6
CONTINUOUS
 62
    0
370
   -2
100
AcDbMText
 10
3.444319122601931e-16
 20
35.625
 30
0
 40
10
 41
12.22222222222346
 71
    5
 72
    1
  1
35
  7
standard
210
0
220
0
230
1
 50
0
 73
    2
 44
1
  0
SOLID
  5
100
100
AcDbEntity
  8
cotes
  6
ByBlock
 62
    0
370
   -2
100
AcDbTrace
 10
-17.5
 20
30
 30
0
 11
-12.5
 21
30.83256931554568
 31
0
 12
-12.5
 22
29.16743068445432
 32
0
 13
-12.5
 23
29.16743068445432
 33
0
  0
SOLID
  5
101
100
AcDbEntity
  8
cotes
  6
ByBlock
 62
    0
370
   -2
100
AcDbTrace
 10
17.5
 20
30
 30
0
 11
12.5
 21
29.16743068445432
 31
0
 12
12.5
 22
30.83256931554568
 32
0
 13
12.5
 23
30.83256931554568
 33
0
  0
LINE
  5
102
100
AcDbEntity
  8
cotes
  6
ByBlock
 62
    0
370
   -2
100
AcDbLine
 10
-17.5
 20
0.625
 11
-17.5
 21
31.25
  0
LINE
  5
103
100
AcDbEntity
  8
cotes
  6
ByBlock
 62
    0
370
   -2
100
AcDbLine
 10
17.5
 20
0.625
 11
17.5
 21
31.25
  0
ENDBLK
  5
85
330
83
100
AcDbEntity
  8
0
100
AcDbBlockEnd
  0
BLOCK
  5
87
330
86
100
AcDbEntity
  8
0
100
AcDbBlockBegin
  2
*D14
 70
    1
 10
0
 20
0
  3
*D14
  1

  0
LINE
  5
104
100
AcDbEntity
  8
cotes
  6
ByBlock
 62
    0
370
   -2
100
AcDbLine
 10
-90
 20
-110
 11
-64.75
 21
-110
  0
MTEXT
  5
105
100
AcDbEntity
  8
cotes
  6
CONTINUOUS
 62
    0
370
   -2
100
AcDbMText
 10
-85.08333333333272
 20
-105
 30
0
 40
10
 41
23.33333333333457
 71
    5
 72
    1
  1
5.25
  7
standard
210
0
220
0
230
1
 50
0
 73
    2
 44
1
  0
SOLID
  5
106
100
AcDbEntity
  8
cotes
  6
ByBlock
 62
    0
370
   -2
100
AcDbTrace
 10
-80
 20
-110
 30
0
 11
-85
 21
-110.8325693155457
 31
0
 12
-85
 22
-109.1674306844543
 32
0
 13
-85
 23
-109.1674306844543
 33
0
  0
SOLID
  5
107
100
AcDbEntity
  8
cotes
  6
ByBlock
 62
    0
370
   -2
100
AcDbTrace
 10
-74.75
 20
-110
 30
0
 11
-69.75
 21
-109.1674306844543
 31
0
 12
-69.75
 22
-110.8325693155457
 32
0
 13
-69.75
 23
-110.8325693155457
 33
0
  0
LINE
  5
108
100
AcDbEntity
  8
cotes
  6
ByBlock
 62
    0
370
   -2
100
AcDbLine
 10
-80
 20
-139.375
 11
-80
 21
-108.75
  0
LINE
  5
109
100
AcDbEntity
  8
cotes
  6
ByBlock
 62
    0
370
   -2
100
AcDbLine
 10
-74.75
 20
-139.375
 11
-74.75
 21
-108.75
  0
ENDBLK
  5
88
330
86
100
AcDbEntity
  8
0
100
AcDbBlockEnd
  0
BLOCK
  5
8A
330
89
100
AcDbEntity
  8
0
100
AcDbBlockBegin
  2
*D8
 70
    1
 10
0
 20
0
  3
*D8
  1

  0
LINE
  5
10A
100
AcDbEntity
  8
cotes
  6
ByBlock
 62
    0
370
   -2
100
AcDbLine
 10
522.75
 20
-50
 11
554.75
 21
-50
  0
MTEXT
  5
10B
100
AcDbEntity
  8
cotes
  6
CONTINUOUS
 62
    0
370
   -2
100
AcDbMText
 10
538.75
 20
-44.375
 30
0
 40
10
 41
10
 71
    5
 72
    1
  1
12
  7
standard
210
0
220
0
230
1
 50
0
 73
    2
 44
1
  0
SOLID
  5
10C
100
AcDbEntity
  8
cotes
  6
ByBlock
 62
    0
370
   -2
100
AcDbTrace
 10
532.75
 20
-50
 30
0
 11
527.75
 21
-50.83256931554568
 31
0
 12
527.75
 22
-49.16743068445432
 32
0
 13
527.75
 23
-49.16743068445432
 33
0
  0
SOLID
  5
10D
100
AcDbEntity
  8
cotes
  6
ByBlock
 62
    0
370
   -2
100
AcDbTrace
 10
544.75
 20
-50
 30
0
 11
549.75
 21
-49.16743068445432
 31
0
 12
549.75
 22
-50.83256931554568
 32
0
 13
549.75
 23
-50.83256931554568
 33
0
  0
LINE
  5
10E
100
AcDbEntity
  8
cotes
  6
ByBlock
 62
    0
370
   -2
100
AcDbLine
 10
532.75
 20
-69.375
 11
532.75
 21
-48.75
  0
LINE
  5
10F
100
AcDbEntity
  8
cotes
  6
ByBlock
 62
    0
370
   -2
100
AcDbLine
 10
544.75
 20
-69.375
 11
544.75
 21
-48.75
  0
ENDBLK
  5
8B
330
89
100
AcDbEntity
  8
0
100
AcDbBlockEnd
  0
BLOCK
  5
8D
330
8C
100
AcDbEntity
  8
0
100
AcDbBlockBegin
  2
*D1
 70
    1
 10
0
 20
0
  3
*D1
  1

  0
LINE
  5
110
100
AcDbEntity
  8
cotes
  6
ByBlock
 62
    0
370
   -2
100
AcDbLine
 10
130
 20
-20
 11
-80
 21
-20
  0
MTEXT
  5
111
100
AcDbEntity
  8
cotes
  6
CONTINUOUS
 62
    0
370
   -2
100
AcDbMText
 10
25
 20
-14.375
 30
0
 40
10
 41
17.77777777777778
 71
    5
 72
    1
  1
210
  7
standard
210
0
220
0
230
1
 50
0
 73
    2
 44
1
  0
SOLID
  5
112
100
AcDbEntity
  8
cotes
  6
ByBlock
 62
    0
370
   -2
100
AcDbTrace
 10
130
 20
-20
 30
0
 11
125
 21
-20.83256931554568
 31
0
 12
125
 22
-19.16743068445432
 32
0
 13
125
 23
-19.16743068445432
 33
0
  0
SOLID
  5
113
100
AcDbEntity
  8
cotes
  6
ByBlock
 62
    0
370
   -2
100
AcDbTrace
 10
-80
 20
-20
 30
0
 11
-75
 21
-19.16743068445432
 31
0
 12
-75
 22
-20.83256931554568
 32
0
 13
-75
 23
-20.83256931554568
 33
0
  0
LINE
  5
114
100
AcDbEntity
  8
cotes
  6
ByBlock
 62
    0
370
   -2
100
AcDbLine
 10
130
 20
-0.625
 11
130
 21
-21.25
  0
LINE
  5
115
100
AcDbEntity
  8
cotes
  6
ByBlock
 62
    0
370
   -2
100
AcDbLine
 10
-80
 20
-0.625
 11
-80
 21
-21.25
  0
ENDBLK
  5
8E
330
8C
100
AcDbEntity
  8
0
100
AcDbBlockEnd
  0
BLOCK
  5
90
330
8F
100
AcDbEntity
  8
0
100
AcDbBlockBegin
  2
*D6
 70
    1
 10
0
 20
0
  3
*D6
  1

  0
LINE
  5
116
100
AcDbEntity
  8
cotes
  6
ByBlock
 62
    0
370
   -2
100
AcDbLine
 10
422.7499999999999
 20
-50
 11
454.7499999999999
 21
-50
  0
MTEXT
  5
117
100
AcDbEntity
  8
cotes
  6
CONTINUOUS
 62
    0
370
   -2
100
AcDbMText
 10
438.7499999999999
 20
-44.375
 30
0
 40
10
 41
10
 71
    5
 72
    1
  1
12
  7
standard
210
0
220
0
230
1
 50
0
 73
    2
 44
1
  0
SOLID
  5
118
100
AcDbEntity
  8
cotes
  6
ByBlock
 62
    0
370
   -2
100
AcDbTrace
 10
432.7499999999999
 20
-50
 30
0
 11
427.7499999999999
 21
-50.83256931554568
 31
0
 12
427.7499999999999
 22
-49.16743068445432
 32
0
 13
427.7499999999999
 23
-49.16743068445432
 33
0
  0
SOLID
  5
119
100
AcDbEntity
  8
cotes
  6
ByBlock
 62
    0
370
   -2
100
AcDbTrace
 10
444.7499999999999
 20
-50
 30
0
 11
449.7499999999999
 21
-49.16743068445432
 31
0
 12
449.7499999999999
 22
-50.83256931554568
 32
0
 13
449.7499999999999
 23
-50.83256931554568
 33
0
  0
LINE
  5
11A
100
AcDbEntity
  8
cotes
  6
ByBlock
 62
    0
370
   -2
100
AcDbLine
 10
432.7499999999999
 20
-69.375
 11
432.7499999999999
 21
-48.75
  0
LINE
  5
11B
100
AcDbEntity
  8
cotes
  6
ByBlock
 62
    0
370
   -2
100
AcDbLine
 10
444.7499999999999
 20
-69.375
 11
444.7499999999999
 21
-48.75
  0
ENDBLK
  5
91
330
8F
100
AcDbEntity
  8
0
100
AcDbBlockEnd
  0
BLOCK
  5
93
330
92
100
AcDbEntity
  8
0
100
AcDbBlockBegin
  2
*D15
 70
    1
 10
0
 20
0
  3
*D15
  1

  0
LINE
  5
11C
100
AcDbEntity
  8
cotes
  6
ByBlock
 62
    0
370
   -2
100
AcDbLine
 10
-146.5
 20
20
 11
-125
 21
20
  0
MTEXT
  5
11D
100
AcDbEntity
  8
cotes
  6
CONTINUOUS
 62
    0
370
   -2
100
AcDbMText
 10
-127.708333333333
 20
25.625
 30
0
 40
10
 41
13.33333333333395
 71
    5
 72
    1
  1
1.5
  7
standard
210
0
220
0
230
1
 50
0
 73
    2
 44
1
  0
SOLID
  5
11E
100
AcDbEntity
  8
cotes
  6
ByBlock
 62
    0
370
   -2
100
AcDbTrace
 10
-136.5
 20
20
 30
0
 11
-141.5
 21
19.16743068445432
 31
0
 12
-141.5
 22
20.83256931554568
 32
0
 13
-141.5
 23
20.83256931554568
 33
0
  0
SOLID
  5
11F
100
AcDbEntity
  8
cotes
  6
ByBlock
 62
    0
370
   -2
100
AcDbTrace
 10
-135
 20
20
 30
0
 11
-130
 21
20.83256931554568
 31
0
 12
-130
 22
19.16743068445432
 32
0
 13
-130
 23
19.16743068445432
 33
0
  0
LINE
  5
120
100
AcDbEntity
  8
cotes
  6
ByBlock
 62
    0
370
   -2
100
AcDbLine
 10
-136.5
 20
0.625
 11
-136.5
 21
21.25
  0
LINE
  5
121
100
AcDbEntity
  8
cotes
  6
ByBlock
 62
    0
370
   -2
100
AcDbLine
 10
-135
 20
0.625
 11
-135
 21
21.25
  0
ENDBLK
  5
94
330
92
100
AcDbEntity
  8
0
100
AcDbBlockEnd
  0
BLOCK
  5
96
330
95
100
AcDbEntity
  8
0
100
AcDbBlockBegin
  2
*D21
 70
    1
 10
0
 20
0
  3
*D21
  1

  0
LINE
  5
122
100
AcDbEntity
  8
cotes
  6
ByBlock
 62
    0
370
   -2
100
AcDbLine
 10
-90
 20
11.5
 11
-90
 21
-11.5
  0
MTEXT
  5
123
100
AcDbEntity
  8
cotes
  6
CONTINUOUS
 62
    0
370
   -2
100
AcDbMText
 10
-95.625
 20
4.347222222222533
 30
0
 40
10
 41
4.444444444445065
 71
    5
 72
    1
  1
3
  7
standard
210
0
220
0
230
1
 50
90
 73
    2
 44
1
  0
SOLID
  5
124
100
AcDbEntity
  8
cotes
  6
ByBlock
 62
    0
370
   -2
100
AcDbTrace
 10
-90
 20
1.5
 30
0
 11
-90.83256931554568
 21
6.5
 31
0
 12
-89.16743068445432
 22
6.5
 32
0
 13
-89.16743068445432
 23
6.5
 33
0
  0
SOLID
  5
125
100
AcDbEntity
  8
cotes
  6
ByBlock
 62
    0
370
   -2
100
AcDbTrace
 10
-90
 20
-1.5
 30
0
 11
-89.16743068445432
 21
-6.5
 31
0
 12
-90.83256931554568
 22
-6.5
 32
0
 13
-90.83256931554568
 23
-6.5
 33
0
  0
LINE
  5
126
100
AcDbEntity
  8
cotes
  6
ByBlock
 62
    0
370
   -2
100
AcDbLine
 10
22.875
 20
1.5
 11
-91.25
 21
1.5
  0
LINE
  5
127
100
AcDbEntity
  8
cotes
  6
ByBlock
 62
    0
370
   -2
100
AcDbLine
 10
22.875
 20
-1.5
 11
-91.25
 21
-1.5
  0
ENDBLK
  5
97
330
95
100
AcDbEntity
  8
0
100
AcDbBlockEnd
  0
ENDSEC
  0
SECTION
  2
ENTITIES
  0
LWPOLYLINE
  5
128
100
AcDbEntity
  8
0
  6
ByLayer
 62
  256
370
   -1
100
AcDbPolyline
 90
    4
 70
    1
 43
0
 10
-5
 20
-270
 10
5
 20
-270
 10
5
 20
270
 10
-5
 20
270
  0
LWPOLYLINE
  5
129
100
AcDbEntity
  8
0
  6
ByLayer
 62
  256
370
   -1
100
AcDbPolyline
 90
    4
 70
    1
 43
0
 10
-20
 20
-30
 10
-5
 20
-30
 10
-5
 20
30
 10
-20
 20
30
  0
LWPOLYLINE
  5
12A
100
AcDbEntity
  8
0
  6
ByLayer
 62
  256
370
   -1
100
AcDbPolyline
 90
    4
 70
    1
 43
0
 10
-30
 20
-7.5
 10
-20
 20
-7.5
 10
-20
 20
7.5
 10
-30
 20
7.5
  0
LWPOLYLINE
  5
12B
100
AcDbEntity
  8
0
  6
ByLayer
 62
  256
370
   -1
100
AcDbPolyline
 90
    4
 70
    1
 43
0
 10
-60
 20
-33
 10
-30
 20
-33
 10
-30
 20
33
 10
-60
 20
33
  0
LWPOLYLINE
  5
12C
100
AcDbEntity
  8
0
  6
ByLayer
 62
  256
370
   -1
100
AcDbPolyline
 90
    4
 70
    1
 43
0
 10
-70
 20
-7.5
 10
-60
 20
-7.5
 10
-60
 20
7.5
 10
-70
 20
7.5
  0
LWPOLYLINE
  5
12D
100
AcDbEntity
  8
0
  6
ByLayer
 62
  256
370
   -1
100
AcDbPolyline
 90
    4
 70
    1
 43
0
 10
105
 20
-30
 10
120
 20
-30
 10
120
 20
30
 10
105
 20
30
  0
LWPOLYLINE
  5
12E
100
AcDbEntity
  8
arbre
  6
ByLayer
 62
  256
370
   -1
100
AcDbPolyline
 90
    4
 70
    1
 43
0
 10
-80
 20
5
 10
130
 20
5
 10
130
 20
-5
 10
-80
 20
-5
  0
ARC
  5
12F
100
AcDbEntity
  8
arbre
  6
ByLayer
 62
  256
370
   -1
100
AcDbCircle
 10
-49.50000000000001
 20
0
 40
1.5
100
AcDbArc
 50
90
 51
270
  0
ARC
  5
130
100
AcDbEntity
  8
arbre
  6
ByLayer
 62
  256
370
   -1
100
AcDbCircle
 10
-40.50000000000001
 20
0
 40
1.5
100
AcDbArc
 50
270
 51
90
  0
LINE
  5
131
100
AcDbEntity
  8
arbre
  6
ByLayer
 62
  256
370
   -1
100
AcDbLine
 10
-49.50000000000001
 20
1.5
 11
-40.50000000000001
 21
1.5
  0
LINE
  5
132
100
AcDbEntity
  8
arbre
  6
ByLayer
 62
  256
370
   -1
100
AcDbLine
 10
-49.50000000000001
 20
-1.5
 11
-40.50000000000001
 21
-1.5
  0
LWPOLYLINE
  5
133
100
AcDbEntity
  8
0
  6
ByLayer
 62
  256
370
   -1
100
AcDbPolyline
 90
    4
 70
    1
 43
0
 10
11
 20
245
 10
7
 20
245
 10
7
 20
-245
 10
11
 20
-245
  0
CIRCLE
  5
134
100
AcDbEntity
  8
arbre
  6
ByLayer
 62
  256
370
   -1
100
AcDbCircle
 10
-17.5
 20
0
 40
1.5
  0
DIMENSION
  5
135
100
AcDbEntity
  8
cotes
  6
ByLayer
 62
  256
370
   -1
100
AcDbDimension
  2
*D1
 10
-80
 20
-20
 30
0
 11
25
 21
-14.375
 31
0
 70
   32
 71
    5
  3
Standard
 53
0
210
0
220
0
230
1
100
AcDbAlignedDimension
 13
130
 23
0
 33
0
 14
-80
 24
0
 34
0
100
AcDbRotatedDimension
  0
LWPOLYLINE
  5
136
100
AcDbEntity
  8
0
  6
ByLayer
 62
  256
370
   -1
100
AcDbPolyline
 90
    4
 70
    1
 43
0
 10
-60.00000000000004
 20
-719.5
 10
-30.00000000000004
 20
-719.5
 10
-30.00000000000004
 20
-653.5
 10
-60.00000000000004
 20
-653.5
  0
LWPOLYLINE
  5
137
100
AcDbEntity
  8
0
  6
ByLayer
 62
  256
370
   -1
100
AcDbPolyline
 90
    4
 70
    1
 43
0
 10
-70.00000000000004
 20
-694
 10
-60.00000000000004
 20
-694
 10
-60.00000000000004
 20
-679
 10
-70.00000000000004
 20
-679
  0
LWPOLYLINE
  5
138
100
AcDbEntity
  8
0
  6
ByLayer
 62
  256
370
   -1
100
AcDbPolyline
 90
    4
 70
    1
 43
0
 10
-30.00000000000004
 20
-694
 10
-20.00000000000004
 20
-694
 10
-20.00000000000004
 20
-679
 10
-30.00000000000004
 20
-679
  0
LWPOLYLINE
  5
139
100
AcDbEntity
  8
0
  6
ByLayer
 62
  256
370
   -1
100
AcDbPolyline
 90
    4
 70
    1
 43
0
 10
6.25
 20
-669
 10
23.75
 20
-669
 10
23.75
 20
-704
 10
6.25
 20
-704
  0
LWPOLYLINE
  5
13A
100
AcDbEntity
  8
0
  6
ByLayer
 62
  256
370
   -1
100
AcDbPolyline
 90
    4
 70
    1
 43
0
 10
23.75
 20
-694
 10
33.75
 20
-694
 10
33.75
 20
-679
 10
23.75
 20
-679
  0
LWPOLYLINE
  5
13B
100
AcDbEntity
  8
0
  6
ByLayer
 62
  256
370
   -1
100
AcDbPolyline
 90
    4
 70
    1
 43
0
 10
-543.75
 20
-669
 10
-526.25
 20
-669
 10
-526.25
 20
-704
 10
-543.75
 20
-704
  0
LWPOLYLINE
  5
13C
100
AcDbEntity
  8
0
  6
ByLayer
 62
  256
370
   -1
100
AcDbPolyline
 90
    4
 70
    1
 43
0
 10
-526.25
 20
-694
 10
-516.25
 20
-694
 10
-516.25
 20
-679
 10
-526.25
 20
-679
  0
LWPOLYLINE
  5
13D
100
AcDbEntity
  8
0
  6
ByLayer
 62
  256
370
   -1
100
AcDbPolyline
 90
    4
 70
    1
 43
0
 10
-553.75
 20
-694
 10
-543.75
 20
-694
 10
-543.75
 20
-679
 10
-553.75
 20
-679
  0
LWPOLYLINE
  5
13E
100
AcDbEntity
  8
0
  6
ByLayer
 62
  256
370
   -1
100
AcDbPolyline
 90
    4
 70
    1
 43
0
 10
43.75
 20
-672.5
 10
88.75
 20
-672.5
 10
88.75
 20
-700.5
 10
43.75
 20
-700.5
  0
DIMENSION
  5
13F
100
AcDbEntity
  8
cotes
  6
ByLayer
 62
  256
370
   -1
100
AcDbDimension
  2
*D2
 10
-20
 20
10
 30
0
 11
-28.25
 21
15.625
 31
0
 70
   32
 71
    5
  3
Standard
 53
0
210
0
220
0
230
1
100
AcDbAlignedDimension
 13
-39.00000000000001
 23
-3.673940397442059e-16
 33
0
 14
-17.5
 24
0
 34
0
100
AcDbRotatedDimension
  0
DIMENSION
  5
140
100
AcDbEntity
  8
cotes
  6
ByLayer
 62
  256
370
   -1
100
AcDbDimension
  2
*D3
 10
-50
 20
10
 30
0
 11
-65.5
 21
15.625
 31
0
 70
   32
 71
    5
  3
Standard
 53
0
210
0
220
0
230
1
100
AcDbAlignedDimension
 13
-80
 23
0
 33
0
 14
-51.00000000000001
 24
1.83697019872103e-16
 34
0
100
AcDbRotatedDimension
  0
DIMENSION
  5
141
100
AcDbEntity
  8
cotes
  6
ByLayer
 62
  256
370
   -1
100
AcDbDimension
  2
*D4
 10
-40
 20
30
 30
0
 11
-45.00000000000001
 21
35.625
 31
0
 70
   32
 71
    5
  3
Standard
 53
0
210
0
220
0
230
1
100
AcDbAlignedDimension
 13
-51.00000000000001
 23
1.83697019872103e-16
 33
0
 14
-39.00000000000001
 24
-3.673940397442059e-16
 34
0
100
AcDbRotatedDimension
  0
ARC
  5
142
100
AcDbEntity
  8
arbre
  6
ByLayer
 62
  256
370
   -1
100
AcDbCircle
 10
434.2499999999999
 20
-70
 40
1.5
100
AcDbArc
 50
90
 51
270
  0
ARC
  5
143
100
AcDbEntity
  8
arbre
  6
ByLayer
 62
  256
370
   -1
100
AcDbCircle
 10
443.2499999999999
 20
-70
 40
1.5
100
AcDbArc
 50
270
 51
90
  0
LINE
  5
144
100
AcDbEntity
  8
arbre
  6
ByLayer
 62
  256
370
   -1
100
AcDbLine
 10
434.2499999999999
 20
-68.5
 11
443.2499999999999
 21
-68.5
  0
LINE
  5
145
100
AcDbEntity
  8
arbre
  6
ByLayer
 62
  256
370
   -1
100
AcDbLine
 10
434.2499999999999
 20
-71.5
 11
443.2499999999999
 21
-71.5
  0
LWPOLYLINE
  5
146
100
AcDbEntity
  8
arbre
  6
ByLayer
 62
  256
370
   -1
100
AcDbPolyline
 90
    4
 70
    1
 43
0
 10
550
 20
-65
 10
-80
 20
-65
 10
-80
 20
-75
 10
550
 20
-75
  0
ARC
  5
147
100
AcDbEntity
  8
arbre
  6
ByLayer
 62
  256
370
   -1
100
AcDbCircle
 10
534.25
 20
-70
 40
1.5
100
AcDbArc
 50
90
 51
270
  0
ARC
  5
148
100
AcDbEntity
  8
arbre
  6
ByLayer
 62
  256
370
   -1
100
AcDbCircle
 10
543.25
 20
-70
 40
1.5
100
AcDbArc
 50
270
 51
90
  0
LINE
  5
149
100
AcDbEntity
  8
arbre
  6
ByLayer
 62
  256
370
   -1
100
AcDbLine
 10
534.25
 20
-68.5
 11
543.25
 21
-68.5
  0
LINE
  5
14A
100
AcDbEntity
  8
arbre
  6
ByLayer
 62
  256
370
   -1
100
AcDbLine
 10
534.25
 20
-71.5
 11
543.25
 21
-71.5
  0
DIMENSION
  5
14B
100
AcDbEntity
  8
cotes
  6
ByLayer
 62
  256
370
   -1
100
AcDbDimension
  2
*D5
 10
432.7499999999999
 20
-60
 30
0
 11
176.3749999999999
 21
-54.375
 31
0
 70
   32
 71
    5
  3
Standard
 53
0
210
0
220
0
230
1
100
AcDbAlignedDimension
 13
-80
 23
-70
 33
0
 14
432.7499999999999
 24
-70
 34
0
100
AcDbRotatedDimension
  0
DIMENSION
  5
14C
100
AcDbEntity
  8
cotes
  6
ByLayer
 62
  256
370
   -1
100
AcDbDimension
  2
*D6
 10
444.7499999999999
 20
-50
 30
0
 11
438.7499999999999
 21
-44.375
 31
0
 70
   32
 71
    5
  3
Standard
 53
0
210
0
220
0
230
1
100
AcDbAlignedDimension
 13
432.7499999999999
 23
-70
 33
0
 14
444.7499999999999
 24
-70
 34
0
100
AcDbRotatedDimension
  0
DIMENSION
  5
14D
100
AcDbEntity
  8
cotes
  6
ByLayer
 62
  256
370
   -1
100
AcDbDimension
  2
*D7
 10
532.75
 20
-60
 30
0
 11
488.75
 21
-54.375
 31
0
 70
   32
 71
    5
  3
Standard
 53
0
210
0
220
0
230
1
100
AcDbAlignedDimension
 13
444.7499999999999
 23
-70
 33
0
 14
532.75
 24
-70
 34
0
100
AcDbRotatedDimension
  0
DIMENSION
  5
14E
100
AcDbEntity
  8
cotes
  6
ByLayer
 62
  256
370
   -1
100
AcDbDimension
  2
*D8
 10
544.75
 20
-50
 30
0
 11
538.75
 21
-44.375
 31
0
 70
   32
 71
    5
  3
Standard
 53
0
210
0
220
0
230
1
100
AcDbAlignedDimension
 13
532.75
 23
-70
 33
0
 14
544.75
 24
-70
 34
0
100
AcDbRotatedDimension
  0
DIMENSION
  5
14F
100
AcDbEntity
  8
cotes
  6
ByLayer
 62
  256
370
   -1
100
AcDbDimension
  2
*D9
 10
550
 20
-30
 30
0
 11
547.375
 21
-24.375
 31
0
 70
   32
 71
    5
  3
Standard
 53
0
210
0
220
0
230
1
100
AcDbAlignedDimension
 13
544.75
 23
-70
 33
0
 14
550
 24
-70
 34
0
100
AcDbRotatedDimension
  0
DIMENSION
  5
150
100
AcDbEntity
  8
cotes
  6
ByLayer
 62
  256
370
   -1
100
AcDbDimension
  2
*D10
 10
550
 20
-90
 30
0
 11
235
 21
-84.375
 31
0
 70
   32
 71
    5
  3
Standard
 53
0
210
0
220
0
230
1
100
AcDbAlignedDimension
 13
-80
 23
-69.3
 33
0
 14
550
 24
-70
 34
0
100
AcDbRotatedDimension
  0
LWPOLYLINE
  5
151
100
AcDbEntity
  8
arbre
  6
ByLayer
 62
  256
370
   -1
100
AcDbPolyline
 90
    4
 70
    1
 43
0
 10
-80
 20
-145
 10
1020
 20
-145
 10
1020
 20
-135
 10
-80
 20
-135
  0
ARC
  5
152
100
AcDbEntity
  8
arbre
  6
ByLayer
 62
  256
370
   -1
100
AcDbCircle
 10
-73.25
 20
-140
 40
1.5
100
AcDbArc
 50
90
 51
270
  0
ARC
  5
153
100
AcDbEntity
  8
arbre
  6
ByLayer
 62
  256
370
   -1
100
AcDbCircle
 10
-64.25
 20
-140
 40
1.5
100
AcDbArc
 50
270
 51
90
  0
LINE
  5
154
100
AcDbEntity
  8
arbre
  6
ByLayer
 62
  256
370
   -1
100
AcDbLine
 10
-73.25
 20
-138.5
 11
-64.25
 21
-138.5
  0
LINE
  5
155
100
AcDbEntity
  8
arbre
  6
ByLayer
 62
  256
370
   -1
100
AcDbLine
 10
-73.25
 20
-141.5
 11
-64.25
 21
-141.5
  0
DIMENSION
  5
156
100
AcDbEntity
  8
cotes
  6
ByLayer
 62
  256
370
   -1
100
AcDbDimension
  2
*D11
 10
1020
 20
-130
 30
0
 11
478.625
 21
-124.375
 31
0
 70
   32
 71
    5
  3
Standard
 53
0
210
0
220
0
230
1
100
AcDbAlignedDimension
 13
-62.75
 23
-140
 33
0
 14
1020
 24
-140
 34
0
100
AcDbRotatedDimension
  0
DIMENSION
  5
157
100
AcDbEntity
  8
cotes
  6
ByLayer
 62
  256
370
   -1
100
AcDbDimension
  2
*D12
 10
1020
 20
-160
 30
0
 11
470
 21
-154.375
 31
0
 70
   32
 71
    5
  3
Standard
 53
0
210
0
220
0
230
1
100
AcDbAlignedDimension
 13
-80
 23
-140
 33
0
 14
1020
 24
-140
 34
0
100
AcDbRotatedDimension
  0
DIMENSION
  5
158
100
AcDbEntity
  8
cotes
  6
ByLayer
 62
  256
370
   -1
100
AcDbDimension
  2
*D13
 10
-70
 20
-120
 30
0
 11
-69
 21
-115
 31
0
 70
   32
 71
    5
  3
Standard
 53
0
210
0
220
0
230
1
100
AcDbAlignedDimension
 13
-74.75
 23
-140
 33
0
 14
-62.75
 24
-140
 34
0
100
AcDbRotatedDimension
  0
DIMENSION
  5
159
100
AcDbEntity
  8
cotes
  6
ByLayer
 62
  256
370
   -1
100
AcDbDimension
  2
*D14
 10
-70
 20
-110
 30
0
 11
-100
 21
-105
 31
0
 70
   32
 71
    5
  3
Standard
 53
0
210
0
220
0
230
1
100
AcDbAlignedDimension
 13
-80
 23
-140
 33
0
 14
-74.75
 24
-140
 34
0
100
AcDbRotatedDimension
  0
CIRCLE
  5
15A
100
AcDbEntity
  8
arbre
  6
ByLayer
 62
  256
370
   -1
100
AcDbCircle
 10
-140
 20
0
 40
5
  0
LINE
  5
15B
100
AcDbEntity
  8
arbre
  6
ByLayer
 62
  256
370
   -1
100
AcDbLine
 10
-135.2303039929157
 20
1.5
 11
-136.5
 21
1.5
  0
LINE
  5
15C
100
AcDbEntity
  8
arbre
  6
ByLayer
 62
  256
370
   -1
100
AcDbLine
 10
-136.5
 20
1.5
 11
-136.5
 21
-1.5
  0
LINE
  5
15D
100
AcDbEntity
  8
arbre
  6
ByLayer
 62
  256
370
   -1
100
AcDbLine
 10
-136.5
 20
-1.5
 11
-135.2303039929155
 21
-1.499999999999993
  0
DIMENSION
  5
15E
100
AcDbEntity
  8
cotes
  6
ByLayer
 62
  256
370
   -1
100
AcDbDimension
  2
*D15
 10
-135
 20
20
 30
0
 11
-135.75
 21
25.625
 31
0
 70
   32
 71
    5
  3
Standard
 53
0
210
0
220
0
230
1
100
AcDbAlignedDimension
 13
-136.5
 23
0
 33
0
 14
-135
 24
0
 34
0
100
AcDbRotatedDimension
  0
DIMENSION
  5
15F
100
AcDbEntity
  8
cotes
  6
ByLayer
 62
  256
370
   -1
100
AcDbDimension
  2
*D16
 10
-150
 20
-4.999999999999999
 30
0
 11
-155.625
 21
1.132953034370449e-15
 31
0
 70
   32
 71
    5
  3
Standard
 53
0
210
0
220
0
230
1
100
AcDbAlignedDimension
 13
-140
 23
5
 33
0
 14
-140
 24
-5
 34
0
 50
90
100
AcDbRotatedDimension
  0
CIRCLE
  5
160
100
AcDbEntity
  8
arbre
  6
ByLayer
 62
  256
370
   -1
100
AcDbCircle
 10
-140
 20
-70
 40
5
  0
LINE
  5
161
100
AcDbEntity
  8
arbre
  6
ByLayer
 62
  256
370
   -1
100
AcDbLine
 10
-135.2303039929157
 20
-68.5
 11
-136.5
 21
-68.5
  0
LINE
  5
162
100
AcDbEntity
  8
arbre
  6
ByLayer
 62
  256
370
   -1
100
AcDbLine
 10
-136.5
 20
-68.5
 11
-136.5
 21
-71.5
  0
LINE
  5
163
100
AcDbEntity
  8
arbre
  6
ByLayer
 62
  256
370
   -1
100
AcDbLine
 10
-136.5
 20
-71.5
 11
-135.2303039929155
 21
-71.5
  0
DIMENSION
  5
164
100
AcDbEntity
  8
cotes
  6
ByLayer
 62
  256
370
   -1
100
AcDbDimension
  2
*D17
 10
-135
 20
-50
 30
0
 11
-135.75
 21
-44.375
 31
0
 70
   32
 71
    5
  3
Standard
 53
0
210
0
220
0
230
1
100
AcDbAlignedDimension
 13
-136.5
 23
-70
 33
0
 14
-135
 24
-70
 34
0
100
AcDbRotatedDimension
  0
DIMENSION
  5
165
100
AcDbEntity
  8
cotes
  6
ByLayer
 62
  256
370
   -1
100
AcDbDimension
  2
*D18
 10
-150
 20
-75
 30
0
 11
-155.625
 21
-70
 31
0
 70
   32
 71
    5
  3
Standard
 53
0
210
0
220
0
230
1
100
AcDbAlignedDimension
 13
-140
 23
-65
 33
0
 14
-140
 24
-75
 34
0
 50
90
100
AcDbRotatedDimension
  0
CIRCLE
  5
166
100
AcDbEntity
  8
arbre
  6
ByLayer
 62
  256
370
   -1
100
AcDbCircle
 10
-140
 20
-140
 40
5
  0
LINE
  5
167
100
AcDbEntity
  8
arbre
  6
ByLayer
 62
  256
370
   -1
100
AcDbLine
 10
-135.2303039929157
 20
-138.5
 11
-136.5
 21
-138.5
  0
LINE
  5
168
100
AcDbEntity
  8
arbre
  6
ByLayer
 62
  256
370
   -1
100
AcDbLine
 10
-136.5
 20
-138.5
 11
-136.5
 21
-141.5
  0
LINE
  5
169
100
AcDbEntity
  8
arbre
  6
ByLayer
 62
  256
370
   -1
100
AcDbLine
 10
-136.5
 20
-141.5
 11
-135.2303039929155
 21
-141.5
  0
DIMENSION
  5
16A
100
AcDbEntity
  8
cotes
  6
ByLayer
 62
  256
370
   -1
100
AcDbDimension
  2
*D19
 10
-135
 20
-120
 30
0
 11
-135.75
 21
-114.375
 31
0
 70
   32
 71
    5
  3
Standard
 53
0
210
0
220
0
230
1
100
AcDbAlignedDimension
 13
-136.5
 23
-140
 33
0
 14
-135
 24
-140
 34
0
100
AcDbRotatedDimension
  0
DIMENSION
  5
16B
100
AcDbEntity
  8
cotes
  6
ByLayer
 62
  256
370
   -1
100
AcDbDimension
  2
*D20
 10
-150
 20
-145
 30
0
 11
-155.625
 21
-140
 31
0
 70
   32
 71
    5
  3
Standard
 53
0
210
0
220
0
230
1
100
AcDbAlignedDimension
 13
-140
 23
-135
 33
0
 14
-140
 24
-145
 34
0
 50
90
100
AcDbRotatedDimension
  0
LWPOLYLINE
  5
16C
100
AcDbEntity
  8
0
  6
ByLayer
 62
  256
370
   -1
100
AcDbPolyline
 90
    4
 70
    1
 43
0
 10
11
 20
-35
 10
36
 20
-35
 10
36
 20
35
 10
11
 20
35
  0
LWPOLYLINE
  5
16D
100
AcDbEntity
  8
0
  6
ByLayer
 62
  256
370
   -1
100
AcDbPolyline
 90
    4
 70
    1
 43
0
 10
36
 20
-7.5
 10
46
 20
-7.5
 10
46
 20
7.5
 10
36
 20
7.5
  0
ARC
  5
16E
100
AcDbEntity
  8
arbre
  6
ByLayer
 62
  256
370
   -1
100
AcDbCircle
 10
19
 20
-1.83697019872103e-16
 40
1.5
100
AcDbArc
 50
90
 51
270
  0
ARC
  5
16F
100
AcDbEntity
  8
arbre
  6
ByLayer
 62
  256
370
   -1
100
AcDbCircle
 10
28
 20
-1.83697019872103e-16
 40
1.5
100
AcDbArc
 50
270
 51
90
  0
LINE
  5
170
100
AcDbEntity
  8
arbre
  6
ByLayer
 62
  256
370
   -1
100
AcDbLine
 10
19
 20
1.5
 11
28
 21
1.5
  0
LINE
  5
171
100
AcDbEntity
  8
arbre
  6
ByLayer
 62
  256
370
   -1
100
AcDbLine
 10
19
 20
-1.5
 11
28
 21
-1.5
  0
DIMENSION
  5
172
100
AcDbEntity
  8
cotes
  6
ByLayer
 62
  256
370
   -1
100
AcDbDimension
  2
*D21
 10
-90
 20
-1.499999999999988
 30
0
 11
-95.625
 21
5.778415220578705e-16
 31
0
 70
   32
 71
    5
  3
Standard
 53
0
210
0
220
0
230
1
100
AcDbAlignedDimension
 13
23.5
 23
1.5
 33
0
 14
23.5
 24
-1.5
 34
0
 50
90
100
AcDbRotatedDimension
  0
DIMENSION
  5
173
100
AcDbEntity
  8
cotes
  6
ByLayer
 62
  256
370
   -1
100
AcDbDimension
  2
*D22
 10
0
 20
30
 30
0
 11
3.444319122601931e-16
 21
35.625
 31
0
 70
   32
 71
    5
  3
Standard
 53
0
210
0
220
0
230
1
100
AcDbAlignedDimension
 13
-17.5
 23
0
 33
0
 14
17.5
 24
0
 34
0
100
AcDbRotatedDimension
  0
DIMENSION
  5
174
100
AcDbEntity
  8
cotes
  6
ByLayer
 62
  256
370
   -1
100
AcDbDimension
  2
*D23
 10
32
 20
50
 30
0
 11
23.5
 21
55.625
 31
0
 70
   32
 71
    5
  3
Standard
 53
0
210
0
220
0
230
1
100
AcDbAlignedDimension
 13
17.5
 23
-3.67394039744206e-16
 33
0
 14
29.5
 24
-9.184850993605148e-16
 34
0
100
AcDbRotatedDimension
  0
DIMENSION
  5
175
100
AcDbEntity
  8
cotes
  6
ByLayer
 62
  256
370
   -1
100
AcDbDimension
  2
*D24
 10
130
 20
10
 30
0
 11
79.75
 21
15.625
 31
0
 70
   32
 71
    5
  3
Standard
 53
0
210
0
220
0
230
1
100
AcDbAlignedDimension
 13
29.5
 23
-5.51091059616309e-16
 33
0
 14
130
 24
0
 34
0
100
AcDbRotatedDimension
  0
LINE
  5
176
100
AcDbEntity
  8
arbre1
  6
ByLayer
 62
  256
370
   -1
100
AcDbLine
 10
-12
 20
0
 11
58
 21
0
  0
LINE
  5
177
100
AcDbEntity
  8
arbre1
  6
ByLayer
 62
  256
370
   -1
100
AcDbLine
 10
-11.99999999999999
 20
136.5
 11
58.00000000000001
 21
136.5
  0
ENDSEC
  0
SECTION
  2
OBJECTS
  0
DICTIONARY
  5
C
330
0
100
AcDbDictionary
281
    1
  3
ACAD_GROUP
350
D
  0
DICTIONARY
  5
D
330
C
100
AcDbDictionary
281
    1
  0
PLOTSETTINGS
  5
178
100
AcDbPlotSettings
  6
1x1
 40
0
 41
0
 42
0
 43
0
  0
ENDSEC
  0
EOF
