999
dxfrw 0.6.3
  0
SECTION
  2
HEADER
  9
$ACADVER
  1
AC1021
  9
$DWGCODEPAGE
  3
ANSI_1252
  9
$INSBASE
 10
0
 20
0
 30
0
  9
$EXTMIN
 10
-1000
 20
-500
 30
0
  9
$EXTMAX
 10
500
 20
500
 30
0
  9
$LIMMIN
 10
0
 20
0
  9
$LIMMAX
 10
420
 20
297
  9
$ORTHOMODE
 70
    0
  9
$REGENMODE
 70
    1
  9
$FILLMODE
 70
    1
  9
$QTEXTMODE
 70
    0
  9
$MIRRTEXT
 70
    0
  9
$LTSCALE
 40
1
  9
$ATTMODE
 70
    0
  9
$TEXTSIZE
 40
2.5
  9
$TRACEWID
 40
15.68
  9
$TEXTSTYLE
  7
STANDARD
  9
$CLAYER
  8
decoupe
  9
$CELTYPE
  6
BYLAYER
  9
$CECOLOR
 62
  256
  9
$CELTSCALE
 40
1
  9
$DISPSILH
 70
    0
  9
$DIMSCALE
 40
2.5
  9
$DIMASZ
 40
2.5
  9
$DIMEXO
 40
0.625
  9
$DIMDLI
 40
3.75
  9
$DIMRND
 40
0
  9
$DIMDLE
 40
0
  9
$DIMEXE
 40
1.25
  9
$DIMTP
 40
0
  9
$DIMTM
 40
0
  9
$DIMTXT
 40
5
  9
$DIMCEN
 40
2.5
  9
$DIMTSZ
 40
0
  9
$DIMTOL
 70
    0
  9
$DIMLIM
 70
    0
  9
$DIMTIH
 70
    0
  9
$DIMTOH
 70
    0
  9
$DIMSE1
 70
    0
  9
$DIMSE2
 70
    0
  9
$DIMTAD
 70
    1
  9
$DIMZIN
 70
    1
  9
$DIMBLK
  1

  9
$DIMASO
 70
    1
  9
$DIMSHO
 70
    1
  9
$DIMPOST
  1

  9
$DIMAPOST
  1

  9
$DIMALT
 70
    0
  9
$DIMALTD
 70
    3
  9
$DIMALTF
 40
0.03937
  9
$DIMLFAC
 40
1
  9
$DIMTOFL
 70
    1
  9
$DIMTVP
 40
0
  9
$DIMTIX
 70
    0
  9
$DIMSOXD
 70
    0
  9
$DIMSAH
 70
    0
  9
$DIMBLK1
  1

  9
$DIMBLK2
  1

  9
$DIMSTYLE
  2
STANDARD
  9
$DIMCLRD
 70
    0
  9
$DIMCLRE
 70
    0
  9
$DIMCLRT
 70
    0
  9
$DIMTFAC
 40
1
  9
$DIMGAP
 40
0.625
  9
$DIMJUST
 70
    0
  9
$DIMSD1
 70
    0
  9
$DIMSD2
 70
    0
  9
$DIMTOLJ
 70
    0
  9
$DIMTZIN
 70
    8
  9
$DIMALTZ
 70
    0
  9
$DIMALTTZ
 70
    0
  9
$DIMUPT
 70
    0
  9
$DIMDEC
 70
    1
  9
$DIMTDEC
 70
    2
  9
$DIMALTU
 70
    2
  9
$DIMALTTD
 70
    3
  9
$DIMTXSTY
  7
standard
  9
$DIMAUNIT
 70
    0
  9
$DIMADEC
 70
    2
  9
$DIMALTRND
 40
0
  9
$DIMAZIN
 70
    0
  9
$DIMDSEP
 70
   44
  9
$DIMATFIT
 70
    3
  9
$DIMFRAC
 70
    0
  9
$DIMLDRBLK
  1
STANDARD
  9
$DIMLUNIT
 70
    2
  9
$DIMLWD
 70
   -2
  9
$DIMLWE
 70
   -2
  9
$DIMTMOVE
 70
    0
  9
$DIMFXL
 40
1
  9
$DIMFXLON
 70
    0
  9
$DIMJOGANG
 40
0.7854
  9
$DIMTFILL
 70
    0
  9
$DIMTFILLCLR
 70
    0
  9
$DIMARCSYM
 70
    0
  9
$DIMLTYPE
  6

  9
$DIMLTEX1
  6

  9
$DIMLTEX2
  6

  9
$LUNITS
 70
    2
  9
$LUPREC
 70
    4
  9
$SKETCHINC
 40
1
  9
$FILLETRAD
 40
0
  9
$AUNITS
 70
    0
  9
$AUPREC
 70
    2
  9
$MENU
  1
.
  9
$ELEVATION
 40
0
  9
$PELEVATION
 40
0
  9
$THICKNESS
 40
0
  9
$LIMCHECK
 70
    0
  9
$CHAMFERA
 40
0
  9
$CHAMFERB
 40
0
  9
$CHAMFERC
 40
0
  9
$CHAMFERD
 40
0
  9
$SKPOLY
 70
    0
  9
$USRTIMER
 70
    1
  9
$ANGBASE
 50
0
  9
$ANGDIR
 70
    0
  9
$PDMODE
 70
   34
  9
$PDSIZE
 40
0
  9
$PLINEWID
 40
0
  9
$SPLFRAME
 70
    0
  9
$SPLINETYPE
 70
    2
  9
$SPLINESEGS
 70
    8
  9
$HANDSEED
  5
20000
  9
$SURFTAB1
 70
    6
  9
$SURFTAB2
 70
    6
  9
$SURFTYPE
 70
    6
  9
$SURFU
 70
    6
  9
$SURFV
 70
    6
  9
$UCSBASE
  2

  9
$UCSNAME
  2

  9
$UCSORG
 10
0
 20
0
 30
0
  9
$UCSXDIR
 10
1
 20
0
 30
0
  9
$UCSYDIR
 10
0
 20
1
 30
0
  9
$UCSORTHOREF
  2

  9
$UCSORTHOVIEW
 70
    0
  9
$UCSORGTOP
 10
0
 20
0
 30
0
  9
$UCSORGBOTTOM
 10
0
 20
0
 30
0
  9
$UCSORGLEFT
 10
0
 20
0
 30
0
  9
$UCSORGRIGHT
 10
0
 20
0
 30
0
  9
$UCSORGFRONT
 10
0
 20
0
 30
0
  9
$UCSORGBACK
 10
0
 20
0
 30
0
  9
$PUCSBASE
  2

  9
$PUCSNAME
  2

  9
$PUCSORG
 10
0
 20
0
 30
0
  9
$PUCSXDIR
 10
1
 20
0
 30
0
  9
$PUCSYDIR
 10
0
 20
1
 30
0
  9
$PUCSORTHOREF
  2

  9
$PUCSORTHOVIEW
 70
    0
  9
$PUCSORGTOP
 10
0
 20
0
 30
0
  9
$PUCSORGBOTTOM
 10
0
 20
0
 30
0
  9
$PUCSORGLEFT
 10
0
 20
0
 30
0
  9
$PUCSORGRIGHT
 10
0
 20
0
 30
0
  9
$PUCSORGFRONT
 10
0
 20
0
 30
0
  9
$PUCSORGBACK
 10
0
 20
0
 30
0
  9
$USERI1
 70
    0
  9
$USERI2
 70
    0
  9
$USERI3
 70
    0
  9
$USERI4
 70
    0
  9
$USERI5
 70
    0
  9
$USERR1
 40
0
  9
$USERR2
 40
0
  9
$USERR3
 40
0
  9
$USERR4
 40
0
  9
$USERR5
 40
0
  9
$WORLDVIEW
 70
    1
  9
$SHADEDGE
 70
    3
  9
$SHADEDIF
 70
   70
  9
$TILEMODE
 70
    1
  9
$MAXACTVP
 70
   64
  9
$PINSBASE
 10
190.1666666666667
 20
105
 30
0
  9
$PLIMCHECK
 70
    0
  9
$PEXTMIN
 10
0
 20
0
 30
0
  9
$PEXTMAX
 10
0
 20
0
 30
0
  9
$GRIDMODE
 70
    1
  9
$SNAPSTYLE
 70
    0
  9
$GRIDUNIT
 10
0
 20
0
  9
$PLIMMIN
 10
0
 20
0
  9
$PLIMMAX
 10
297
 20
210
  9
$UNITMODE
 70
    0
  9
$VISRETAIN
 70
    1
  9
$PLINEGEN
 70
    0
  9
$PSLTSCALE
 70
    1
  9
$TREEDEPTH
 70
 3020
  9
$CMLSTYLE
  2
Standard
  9
$CMLJUST
 70
    0
  9
$CMLSCALE
 40
20
  9
$PROXYGRAPHICS
 70
    1
  9
$MEASUREMENT
 70
    1
  9
$CELWEIGHT
370
   -1
  9
$ENDCAPS
280
    0
  9
$JOINSTYLE
280
    0
  9
$LWDISPLAY
290
    0
  9
$INSUNITS
 70
    0
  9
$HYPERLINKBASE
  1

  9
$STYLESHEET
  1

  9
$XEDIT
290
    1
  9
$CEPSNTYPE
380
    0
  9
$PSTYLEMODE
290
    1
  9
$EXTNAMES
290
    1
  9
$PSVPSCALE
 40
0.1666666666666667
  9
$OLESTARTUP
290
    0
  9
$SORTENTS
280
  127
  9
$INDEXCTL
280
    0
  9
$HIDETEXT
280
    1
  9
$XCLIPFRAME
290
    0
  9
$HALOGAP
280
    0
  9
$OBSCOLOR
 70
  257
  9
$OBSLTYPE
280
    0
  9
$INTERSECTIONDISPLAY
280
    0
  9
$INTERSECTIONCOLOR
 70
  257
  9
$DIMASSOC
280
    1
  9
$PROJECTNAME
  1

  9
$CAMERADISPLAY
290
    0
  9
$LENSLENGTH
 40
50
  9
$CAMERAHEIGHT
 40
0
  9
$STEPSPERSEC
 40
2
  9
$STEPSIZE
 40
50
  9
$3DDWFPREC
 40
2
  9
$PSOLWIDTH
 40
5
  9
$PSOLHEIGHT
 40
80
  9
$LOFTANG1
 40
1.570796326794897
  9
$LOFTANG2
 40
1.570796326794897
  9
$LOFTMAG1
 40
0
  9
$LOFTMAG2
 40
0
  9
$LOFTPARAM
 70
    7
  9
$LOFTNORMALS
280
    1
  9
$LATITUDE
 40
1
  9
$LONGITUDE
 40
1
  9
$NORTHDIRECTION
 40
0
  9
$TIMEZONE
 70
-8000
  9
$LIGHTGLYPHDISPLAY
280
    1
  9
$TILEMODELIGHTSYNCH
280
    1
  9
$SOLIDHIST
280
    1
  9
$SHOWHIST
280
    1
  9
$DWFFRAME
280
    2
  9
$DGNFRAME
280
    0
  9
$REALWORLDSCALE
290
    1
  9
$INTERFERECOLOR
 62
    1
  9
$CSHADOW
280
    0
  9
$SHADOWPLANELOCATION
 40
0
  0
ENDSEC
  0
SECTION
  2
CLASSES
  0
ENDSEC
  0
SECTION
  2
TABLES
  0
TABLE
  2
VPORT
  5
8
330
0
100
AcDbSymbolTable
 70
    1
  0
VPORT
  5
31
330
2
100
AcDbSymbolTableRecord
100
AcDbViewportTableRecord
  2
*ACTIVE
 70
    0
 10
0
 20
0
 11
1
 21
1
 12
593.1949893840381
 22
330.1085101125338
 13
0
 23
0
 14
10
 24
10
 15
10
 25
10
 16
0
 26
0
 36
1
 17
0
 27
0
 37
0
 40
1602.526767273573
 41
1.930087390761548
 42
50
 43
0
 44
0
 50
0
 51
0
 71
    0
 72
  100
 73
    1
 74
    3
 75
    0
 76
    1
 77
    0
 78
    0
281
    0
 65
    1
110
0
120
0
130
0
111
1
121
0
131
0
112
0
122
1
132
0
 79
    0
146
0
348
10020
 60
    7
 61
    5
292
1
282
    1
141
0
142
0
 63
  250
421
3358443
  0
ENDTAB
  0
TABLE
  2
LTYPE
  5
5
330
0
100
AcDbSymbolTable
 70
    4
  0
LTYPE
  5
14
330
5
100
AcDbSymbolTableRecord
100
AcDbLinetypeTableRecord
  2
ByBlock
 70
    0
  3

 72
   65
 73
    0
 40
0
  0
LTYPE
  5
15
330
5
100
AcDbSymbolTableRecord
100
AcDbLinetypeTableRecord
  2
ByLayer
 70
    0
  3

 72
   65
 73
    0
 40
0
  0
LTYPE
  5
16
330
5
100
AcDbSymbolTableRecord
100
AcDbLinetypeTableRecord
  2
Continuous
 70
    0
  3
Solid line
 72
   65
 73
    0
 40
0
  0
LTYPE
  5
32
330
5
100
AcDbSymbolTableRecord
100
AcDbLinetypeTableRecord
  2
DOT
 70
    0
  3
Dot . . . . . . . . . . . . . . . . . . . . . .
 72
   65
 73
    2
 40
6.35
 49
0
 74
    0
 49
-6.35
 74
    0
  0
LTYPE
  5
33
330
5
100
AcDbSymbolTableRecord
100
AcDbLinetypeTableRecord
  2
DOTTINY
 70
    0
  3
Dot (.15x) .....................................
 72
   65
 73
    2
 40
0.9525
 49
0
 74
    0
 49
-0.9525
 74
    0
  0
LTYPE
  5
34
330
5
100
AcDbSymbolTableRecord
100
AcDbLinetypeTableRecord
  2
DOT2
 70
    0
  3
Dot (.5x) .....................................
 72
   65
 73
    2
 40
3.175
 49
0
 74
    0
 49
-3.175
 74
    0
  0
LTYPE
  5
35
330
5
100
AcDbSymbolTableRecord
100
AcDbLinetypeTableRecord
  2
DOTX2
 70
    0
  3
Dot (2x) .  .  .  .  .  .  .  .  .  .  .  .  .
 72
   65
 73
    2
 40
12.7
 49
0
 74
    0
 49
-12.7
 74
    0
  0
LTYPE
  5
36
330
5
100
AcDbSymbolTableRecord
100
AcDbLinetypeTableRecord
  2
DASHED
 70
    0
  3
Dashed _ _ _ _ _ _ _ _ _ _ _ _ _ _ _ _ _
 72
   65
 73
    2
 40
19.05
 49
12.7
 74
    0
 49
-6.35
 74
    0
  0
LTYPE
  5
37
330
5
100
AcDbSymbolTableRecord
100
AcDbLinetypeTableRecord
  2
DASHEDTINY
 70
    0
  3
Dashed (.15x) _ _ _ _ _ _ _ _ _ _ _ _ _ _ _ _ _
 72
   65
 73
    2
 40
2.8575
 49
1.905
 74
    0
 49
-0.9525
 74
    0
  0
LTYPE
  5
38
330
5
100
AcDbSymbolTableRecord
100
AcDbLinetypeTableRecord
  2
DASHED2
 70
    0
  3
Dashed (.5x) _ _ _ _ _ _ _ _ _ _ _ _ _ _ _ _ _
 72
   65
 73
    2
 40
9.524999999999999
 49
6.35
 74
    0
 49
-3.175
 74
    0
  0
LTYPE
  5
39
330
5
100
AcDbSymbolTableRecord
100
AcDbLinetypeTableRecord
  2
DASHEDX2
 70
    0
  3
Dashed (2x) ____  ____  ____  ____  ____  ___
 72
   65
 73
    2
 40
38.09999999999999
 49
25.4
 74
    0
 49
-12.7
 74
    0
  0
LTYPE
  5
3A
330
5
100
AcDbSymbolTableRecord
100
AcDbLinetypeTableRecord
  2
DASHDOT
 70
    0
  3
Dash dot __ . __ . __ . __ . __ . __ . __ . __
 72
   65
 73
    4
 40
25.4
 49
12.7
 74
    0
 49
-6.35
 74
    0
 49
0
 74
    0
 49
-6.35
 74
    0
  0
LTYPE
  5
3B
330
5
100
AcDbSymbolTableRecord
100
AcDbLinetypeTableRecord
  2
DASHDOTTINY
 70
    0
  3
Dash dot (.15x) _._._._._._._._._._._._._._._.
 72
   65
 73
    4
 40
3.81
 49
1.905
 74
    0
 49
-0.9525
 74
    0
 49
0
 74
    0
 49
-0.9525
 74
    0
  0
LTYPE
  5
3C
330
5
100
AcDbSymbolTableRecord
100
AcDbLinetypeTableRecord
  2
DASHDOT2
 70
    0
  3
Dash dot (.5x) _._._._._._._._._._._._._._._.
 72
   65
 73
    4
 40
12.7
 49
6.35
 74
    0
 49
-3.175
 74
    0
 49
0
 74
    0
 49
-3.175
 74
    0
  0
LTYPE
  5
3D
330
5
100
AcDbSymbolTableRecord
100
AcDbLinetypeTableRecord
  2
DASHDOTX2
 70
    0
  3
Dash dot (2x) ____  .  ____  .  ____  .  ___
 72
   65
 73
    4
 40
50.8
 49
25.4
 74
    0
 49
-12.7
 74
    0
 49
0
 74
    0
 49
-12.7
 74
    0
  0
LTYPE
  5
3E
330
5
100
AcDbSymbolTableRecord
100
AcDbLinetypeTableRecord
  2
DIVIDE
 70
    0
  3
Divide ____ . . ____ . . ____ . . ____ . . ____
 72
   65
 73
    6
 40
31.75
 49
12.7
 74
    0
 49
-6.35
 74
    0
 49
0
 74
    0
 49
-6.35
 74
    0
 49
0
 74
    0
 49
-6.35
 74
    0
  0
LTYPE
  5
3F
330
5
100
AcDbSymbolTableRecord
100
AcDbLinetypeTableRecord
  2
DIVIDETINY
 70
    0
  3
Divide (.15x) __..__..__..__..__..__..__..__.._
 72
   65
 73
    6
 40
4.7625
 49
1.905
 74
    0
 49
-0.9525
 74
    0
 49
0
 74
    0
 49
-0.9525
 74
    0
 49
0
 74
    0
 49
-0.9525
 74
    0
  0
LTYPE
  5
40
330
5
100
AcDbSymbolTableRecord
100
AcDbLinetypeTableRecord
  2
DIVIDE2
 70
    0
  3
Divide (.5x) __..__..__..__..__..__..__..__.._
 72
   65
 73
    6
 40
15.875
 49
6.35
 74
    0
 49
-3.175
 74
    0
 49
0
 74
    0
 49
-3.175
 74
    0
 49
0
 74
    0
 49
-3.175
 74
    0
  0
LTYPE
  5
41
330
5
100
AcDbSymbolTableRecord
100
AcDbLinetypeTableRecord
  2
DIVIDEX2
 70
    0
  3
Divide (2x) ________  .  .  ________  .  .  _
 72
   65
 73
    6
 40
63.5
 49
25.4
 74
    0
 49
-12.7
 74
    0
 49
0
 74
    0
 49
-12.7
 74
    0
 49
0
 74
    0
 49
-12.7
 74
    0
  0
LTYPE
  5
42
330
5
100
AcDbSymbolTableRecord
100
AcDbLinetypeTableRecord
  2
BORDER
 70
    0
  3
Border __ __ . __ __ . __ __ . __ __ . __ __ .
 72
   65
 73
    6
 40
44.45
 49
12.7
 74
    0
 49
-6.35
 74
    0
 49
12.7
 74
    0
 49
-6.35
 74
    0
 49
0
 74
    0
 49
-6.35
 74
    0
  0
LTYPE
  5
43
330
5
100
AcDbSymbolTableRecord
100
AcDbLinetypeTableRecord
  2
BORDERTINY
 70
    0
  3
Border (.15x) __.__.__.__.__.__.__.__.__.__.__.
 72
   65
 73
    6
 40
6.6675
 49
1.905
 74
    0
 49
-0.9525
 74
    0
 49
1.905
 74
    0
 49
-0.9525
 74
    0
 49
0
 74
    0
 49
-0.9525
 74
    0
  0
LTYPE
  5
44
330
5
100
AcDbSymbolTableRecord
100
AcDbLinetypeTableRecord
  2
BORDER2
 70
    0
  3
Border (.5x) __.__.__.__.__.__.__.__.__.__.__.
 72
   65
 73
    6
 40
22.225
 49
6.35
 74
    0
 49
-3.175
 74
    0
 49
6.35
 74
    0
 49
-3.175
 74
    0
 49
0
 74
    0
 49
-3.175
 74
    0
  0
LTYPE
  5
45
330
5
100
AcDbSymbolTableRecord
100
AcDbLinetypeTableRecord
  2
BORDERX2
 70
    0
  3
Border (2x) ____  ____  .  ____  ____  .  ___
 72
   65
 73
    6
 40
88.89999999999999
 49
25.4
 74
    0
 49
-12.7
 74
    0
 49
25.4
 74
    0
 49
-12.7
 74
    0
 49
0
 74
    0
 49
-12.7
 74
    0
  0
LTYPE
  5
46
330
5
100
AcDbSymbolTableRecord
100
AcDbLinetypeTableRecord
  2
CENTER
 70
    0
  3
Center ____ _ ____ _ ____ _ ____ _ ____ _ ____
 72
   65
 73
    4
 40
50.8
 49
31.75
 74
    0
 49
-6.35
 74
    0
 49
6.35
 74
    0
 49
-6.35
 74
    0
  0
LTYPE
  5
47
330
5
100
AcDbSymbolTableRecord
100
AcDbLinetypeTableRecord
  2
CENTERTINY
 70
    0
  3
Center (.15x) ___ _ ___ _ ___ _ ___ _ ___ _ ___
 72
   65
 73
    4
 40
7.619999999999999
 49
4.7625
 74
    0
 49
-0.9525
 74
    0
 49
0.9525
 74
    0
 49
-0.9525
 74
    0
  0
LTYPE
  5
48
330
5
100
AcDbSymbolTableRecord
100
AcDbLinetypeTableRecord
  2
CENTER2
 70
    0
  3
Center (.5x) ___ _ ___ _ ___ _ ___ _ ___ _ ___
 72
   65
 73
    4
 40
28.575
 49
19.05
 74
    0
 49
-3.175
 74
    0
 49
3.175
 74
    0
 49
-3.175
 74
    0
  0
LTYPE
  5
49
330
5
100
AcDbSymbolTableRecord
100
AcDbLinetypeTableRecord
  2
CENTERX2
 70
    0
  3
Center (2x) ________  __  ________  __  _____
 72
   65
 73
    4
 40
101.6
 49
63.5
 74
    0
 49
-12.7
 74
    0
 49
12.7
 74
    0
 49
-12.7
 74
    0
  0
ENDTAB
  0
TABLE
  2
LAYER
  5
2
330
0
100
AcDbSymbolTable
 70
    1
  0
LAYER
  5
10
330
2
100
AcDbSymbolTableRecord
100
AcDbLayerTableRecord
  2
0
 70
    0
 62
    7
  6
CONTINUOUS
370
    0
390
F
  0
LAYER
  5
4A
330
2
100
AcDbSymbolTableRecord
100
AcDbLayerTableRecord
  2
HACHURES
 70
    0
 62
    7
  6
CONTINUOUS
370
    0
390
F
  0
LAYER
  5
4B
330
2
100
AcDbSymbolTableRecord
100
AcDbLayerTableRecord
  2
decoupe
 70
    0
 62
    7
  6
CONTINUOUS
370
    0
390
F
  0
LAYER
  5
4C
330
2
100
AcDbSymbolTableRecord
100
AcDbLayerTableRecord
  2
gravure
 70
    0
 62
    7
  6
CONTINUOUS
370
    0
390
F
  0
LAYER
  5
4D
330
2
100
AcDbSymbolTableRecord
100
AcDbLayerTableRecord
  2
noname
 70
    0
 62
    6
  6
CONTINUOUS
370
    0
390
F
1001
LibreCad
1070
    1
  0
ENDTAB
  0
TABLE
  2
STYLE
  5
3
330
0
100
AcDbSymbolTable
 70
    3
  0
STYLE
  5
4E
330
2
100
AcDbSymbolTableRecord
100
AcDbTextStyleTableRecord
  2
standard
 70
    0
 40
0
 41
1
 50
0
 71
    0
 42
1
  3
standard
  4

  0
ENDTAB
  0
TABLE
  2
VIEW
  5
6
330
0
100
AcDbSymbolTable
 70
    0
  0
ENDTAB
  0
TABLE
  2
UCS
  5
7
330
0
100
AcDbSymbolTable
 70
    0
  0
ENDTAB
  0
TABLE
  2
APPID
  5
9
330
0
100
AcDbSymbolTable
 70
    1
  0
APPID
  5
12
330
9
100
AcDbSymbolTableRecord
100
AcDbRegAppTableRecord
  2
ACAD
 70
    0
  0
APPID
  5
4F
330
9
100
AcDbSymbolTableRecord
100
AcDbRegAppTableRecord
  2
LibreCad
 70
    0
  0
ENDTAB
  0
TABLE
  2
DIMSTYLE
  5
A
330
0
100
AcDbSymbolTable
 70
    1
100
AcDbDimStyleTable
 71
    1
  0
DIMSTYLE
105
50
330
A
100
AcDbSymbolTableRecord
100
AcDbDimStyleTableRecord
  2
Standard
 70
    0
 40
2.5
 41
2.5
 42
0.625
 43
0.38
 44
1.25
 45
0
 46
0
 47
0
 48
0
 49
1
140
5
141
0.09
142
0
143
25.4
144
1
145
0
146
1
147
0.625
148
0
 71
    0
 72
    0
 73
    0
 74
    1
 75
    0
 76
    0
 77
    0
 78
    1
 79
    0
170
    0
171
    2
172
    0
173
    0
174
    0
175
    0
176
    0
177
    0
178
    0
179
    2
271
    1
272
    4
273
    2
274
    2
275
    0
276
    0
277
    2
278
   44
279
    0
280
    0
281
    0
282
    0
283
    1
284
    0
285
    0
286
    0
288
    0
289
    3
340
standard
341

371
   -2
372
   -2
  0
ENDTAB
  0
TABLE
  2
BLOCK_RECORD
  5
1
330
0
100
AcDbSymbolTable
 70
    2
  0
BLOCK_RECORD
  5
1F
330
1
100
AcDbSymbolTableRecord
100
AcDbBlockTableRecord
  2
*Model_Space
 70
    0
280
    1
281
    0
  0
BLOCK_RECORD
  5
1E
330
1
100
AcDbSymbolTableRecord
100
AcDbBlockTableRecord
  2
*Paper_Space
 70
    0
280
    1
281
    0
  0
BLOCK_RECORD
  5
51
330
1
100
AcDbSymbolTableRecord
100
AcDbBlockTableRecord
  2
*D7
 70
    0
280
    1
281
    0
  0
BLOCK_RECORD
  5
54
330
1
100
AcDbSymbolTableRecord
100
AcDbBlockTableRecord
  2
*D11
 70
    0
280
    1
281
    0
  0
BLOCK_RECORD
  5
57
330
1
100
AcDbSymbolTableRecord
100
AcDbBlockTableRecord
  2
*D10
 70
    0
280
    1
281
    0
  0
BLOCK_RECORD
  5
5A
330
1
100
AcDbSymbolTableRecord
100
AcDbBlockTableRecord
  2
*D13
 70
    0
280
    1
281
    0
  0
BLOCK_RECORD
  5
5D
330
1
100
AcDbSymbolTableRecord
100
AcDbBlockTableRecord
  2
*D3
 70
    0
280
    1
281
    0
  0
BLOCK_RECORD
  5
60
330
1
100
AcDbSymbolTableRecord
100
AcDbBlockTableRecord
  2
*D5
 70
    0
280
    1
281
    0
  0
BLOCK_RECORD
  5
63
330
1
100
AcDbSymbolTableRecord
100
AcDbBlockTableRecord
  2
*D26
 70
    0
280
    1
281
    0
  0
BLOCK_RECORD
  5
66
330
1
100
AcDbSymbolTableRecord
100
AcDbBlockTableRecord
  2
*D15
 70
    0
280
    1
281
    0
  0
BLOCK_RECORD
  5
69
330
1
100
AcDbSymbolTableRecord
100
AcDbBlockTableRecord
  2
*D29
 70
    0
280
    1
281
    0
  0
BLOCK_RECORD
  5
6C
330
1
100
AcDbSymbolTableRecord
100
AcDbBlockTableRecord
  2
*D19
 70
    0
280
    1
281
    0
  0
BLOCK_RECORD
  5
6F
330
1
100
AcDbSymbolTableRecord
100
AcDbBlockTableRecord
  2
*D21
 70
    0
280
    1
281
    0
  0
BLOCK_RECORD
  5
72
330
1
100
AcDbSymbolTableRecord
100
AcDbBlockTableRecord
  2
*D16
 70
    0
280
    1
281
    0
  0
BLOCK_RECORD
  5
75
330
1
100
AcDbSymbolTableRecord
100
AcDbBlockTableRecord
  2
*D20
 70
    0
280
    1
281
    0
  0
BLOCK_RECORD
  5
78
330
1
100
AcDbSymbolTableRecord
100
AcDbBlockTableRecord
  2
*D33
 70
    0
280
    1
281
    0
  0
BLOCK_RECORD
  5
7B
330
1
100
AcDbSymbolTableRecord
100
AcDbBlockTableRecord
  2
*D4
 70
    0
280
    1
281
    0
  0
BLOCK_RECORD
  5
7E
330
1
100
AcDbSymbolTableRecord
100
AcDbBlockTableRecord
  2
*D28
 70
    0
280
    1
281
    0
  0
BLOCK_RECORD
  5
81
330
1
100
AcDbSymbolTableRecord
100
AcDbBlockTableRecord
  2
*D35
 70
    0
280
    1
281
    0
  0
BLOCK_RECORD
  5
84
330
1
100
AcDbSymbolTableRecord
100
AcDbBlockTableRecord
  2
*D6
 70
    0
280
    1
281
    0
  0
BLOCK_RECORD
  5
87
330
1
100
AcDbSymbolTableRecord
100
AcDbBlockTableRecord
  2
*D32
 70
    0
280
    1
281
    0
  0
BLOCK_RECORD
  5
8A
330
1
100
AcDbSymbolTableRecord
100
AcDbBlockTableRecord
  2
*D18
 70
    0
280
    1
281
    0
  0
BLOCK_RECORD
  5
8D
330
1
100
AcDbSymbolTableRecord
100
AcDbBlockTableRecord
  2
*D25
 70
    0
280
    1
281
    0
  0
BLOCK_RECORD
  5
90
330
1
100
AcDbSymbolTableRecord
100
AcDbBlockTableRecord
  2
*D30
 70
    0
280
    1
281
    0
  0
BLOCK_RECORD
  5
93
330
1
100
AcDbSymbolTableRecord
100
AcDbBlockTableRecord
  2
*D23
 70
    0
280
    1
281
    0
  0
BLOCK_RECORD
  5
96
330
1
100
AcDbSymbolTableRecord
100
AcDbBlockTableRecord
  2
*D8
 70
    0
280
    1
281
    0
  0
BLOCK_RECORD
  5
99
330
1
100
AcDbSymbolTableRecord
100
AcDbBlockTableRecord
  2
*D9
 70
    0
280
    1
281
    0
  0
BLOCK_RECORD
  5
9C
330
1
100
AcDbSymbolTableRecord
100
AcDbBlockTableRecord
  2
*D36
 70
    0
280
    1
281
    0
  0
BLOCK_RECORD
  5
9F
330
1
100
AcDbSymbolTableRecord
100
AcDbBlockTableRecord
  2
*D1
 70
    0
280
    1
281
    0
  0
BLOCK_RECORD
  5
A2
330
1
100
AcDbSymbolTableRecord
100
AcDbBlockTableRecord
  2
*D12
 70
    0
280
    1
281
    0
  0
BLOCK_RECORD
  5
A5
330
1
100
AcDbSymbolTableRecord
100
AcDbBlockTableRecord
  2
*D14
 70
    0
280
    1
281
    0
  0
BLOCK_RECORD
  5
A8
330
1
100
AcDbSymbolTableRecord
100
AcDbBlockTableRecord
  2
*D24
 70
    0
280
    1
281
    0
  0
BLOCK_RECORD
  5
AB
330
1
100
AcDbSymbolTableRecord
100
AcDbBlockTableRecord
  2
*D27
 70
    0
280
    1
281
    0
  0
BLOCK_RECORD
  5
AE
330
1
100
AcDbSymbolTableRecord
100
AcDbBlockTableRecord
  2
*D31
 70
    0
280
    1
281
    0
  0
BLOCK_RECORD
  5
B1
330
1
100
AcDbSymbolTableRecord
100
AcDbBlockTableRecord
  2
*D34
 70
    0
280
    1
281
    0
  0
BLOCK_RECORD
  5
B4
330
1
100
AcDbSymbolTableRecord
100
AcDbBlockTableRecord
  2
*D2
 70
    0
280
    1
281
    0
  0
BLOCK_RECORD
  5
B7
330
1
100
AcDbSymbolTableRecord
100
AcDbBlockTableRecord
  2
*D22
 70
    0
280
    1
281
    0
  0
BLOCK_RECORD
  5
BA
330
1
100
AcDbSymbolTableRecord
100
AcDbBlockTableRecord
  2
*D17
 70
    0
280
    1
281
    0
  0
ENDTAB
  0
ENDSEC
  0
SECTION
  2
BLOCKS
  0
BLOCK
  5
20
330
1F
100
AcDbEntity
  8
0
100
AcDbBlockBegin
  2
*Model_Space
 70
    0
 10
0
 20
0
 30
0
  3
*Model_Space
  1

  0
ENDBLK
  5
21
330
1F
100
AcDbEntity
  8
0
100
AcDbBlockEnd
  0
BLOCK
  5
1C
330
1B
100
AcDbEntity
  8
0
100
AcDbBlockBegin
  2
*Paper_Space
 70
    0
 10
0
 20
0
 30
0
  3
*Paper_Space
  1

  0
ENDBLK
  5
1D
330
1F
100
AcDbEntity
  8
0
100
AcDbBlockEnd
  0
BLOCK
  5
52
330
51
100
AcDbEntity
  8
0
100
AcDbBlockBegin
  2
*D7
 70
    1
 10
0
 20
0
  3
*D7
  1

  0
LINE
  5
BD
100
AcDbEntity
  8
0
  6
ByBlock
 62
    0
370
   -2
100
AcDbLine
 10
40
 20
-430
 11
220
 21
-430
  0
MTEXT
  5
BE
100
AcDbEntity
  8
0
  6
CONTINUOUS
 62
    0
370
   -2
100
AcDbMText
 10
130
 20
-422.1875
 30
0
 40
12.5
 41
36.80555555555556
 71
    5
 72
    1
  1
180,0
  7
standard
210
0
220
0
230
1
 50
0
 73
    2
 44
1
  0
SOLID
  5
BF
100
AcDbEntity
  8
0
  6
ByBlock
 62
    0
370
   -2
100
AcDbTrace
 10
40
 20
-430
 30
0
 11
46.25
 21
-428.9592883555679
 31
0
 12
46.25
 22
-431.0407116444321
 32
0
 13
46.25
 23
-431.0407116444321
 33
0
  0
SOLID
  5
C0
100
AcDbEntity
  8
0
  6
ByBlock
 62
    0
370
   -2
100
AcDbTrace
 10
220
 20
-430
 30
0
 11
213.75
 21
-431.0407116444321
 31
0
 12
213.75
 22
-428.9592883555679
 32
0
 13
213.75
 23
-428.9592883555679
 33
0
  0
LINE
  5
C1
100
AcDbEntity
  8
0
  6
ByBlock
 62
    0
370
   -2
100
AcDbLine
 10
40
 20
-251.5625
 11
40
 21
-433.125
  0
LINE
  5
C2
100
AcDbEntity
  8
0
  6
ByBlock
 62
    0
370
   -2
100
AcDbLine
 10
220
 20
-251.5625
 11
220
 21
-433.125
  0
ENDBLK
  5
53
330
51
100
AcDbEntity
  8
0
100
AcDbBlockEnd
  0
BLOCK
  5
55
330
54
100
AcDbEntity
  8
0
100
AcDbBlockBegin
  2
*D11
 70
    1
 10
0
 20
0
  3
*D11
  1

  0
LINE
  5
C3
100
AcDbEntity
  8
0
  6
ByBlock
 62
    0
370
   -2
100
AcDbLine
 10
79.99999999999977
 20
-60
 11
180
 21
-60
  0
MTEXT
  5
C4
100
AcDbEntity
  8
0
  6
CONTINUOUS
 62
    0
370
   -2
100
AcDbMText
 10
130
 20
-52.1875
 30
0
 40
12.5
 41
36.80555555555556
 71
    5
 72
    1
  1
100,0
  7
standard
210
0
220
0
230
1
 50
0
 73
    2
 44
1
  0
SOLID
  5
C5
100
AcDbEntity
  8
0
  6
ByBlock
 62
    0
370
   -2
100
AcDbTrace
 10
79.99999999999977
 20
-60
 30
0
 11
86.24999999999977
 21
-58.9592883555679
 31
0
 12
86.24999999999977
 22
-61.0407116444321
 32
0
 13
86.24999999999977
 23
-61.0407116444321
 33
0
  0
SOLID
  5
C6
100
AcDbEntity
  8
0
  6
ByBlock
 62
    0
370
   -2
100
AcDbTrace
 10
180
 20
-60
 30
0
 11
173.75
 21
-61.0407116444321
 31
0
 12
173.75
 22
-58.9592883555679
 32
0
 13
173.75
 23
-58.9592883555679
 33
0
  0
LINE
  5
C7
100
AcDbEntity
  8
0
  6
ByBlock
 62
    0
370
   -2
100
AcDbLine
 10
79.99999999999977
 20
-248.4375000000001
 11
79.99999999999977
 21
-56.875
  0
LINE
  5
C8
100
AcDbEntity
  8
0
  6
ByBlock
 62
    0
370
   -2
100
AcDbLine
 10
180
 20
-248.4375
 11
180
 21
-56.875
  0
ENDBLK
  5
56
330
54
100
AcDbEntity
  8
0
100
AcDbBlockEnd
  0
BLOCK
  5
58
330
57
100
AcDbEntity
  8
0
100
AcDbBlockBegin
  2
*D10
 70
    1
 10
0
 20
0
  3
*D10
  1

  0
LINE
  5
C9
100
AcDbEntity
  8
0
  6
ByBlock
 62
    0
370
   -2
100
AcDbLine
 10
90
 20
-100
 11
170
 21
-100
  0
MTEXT
  5
CA
100
AcDbEntity
  8
0
  6
CONTINUOUS
 62
    0
370
   -2
100
AcDbMText
 10
130
 20
-92.1875
 30
0
 40
12.5
 41
29.86111111111111
 71
    5
 72
    1
  1
80,0
  7
standard
210
0
220
0
230
1
 50
0
 73
    2
 44
1
  0
SOLID
  5
CB
100
AcDbEntity
  8
0
  6
ByBlock
 62
    0
370
   -2
100
AcDbTrace
 10
90
 20
-100
 30
0
 11
96.25
 21
-98.95928835556791
 31
0
 12
96.25
 22
-101.0407116444321
 32
0
 13
96.25
 23
-101.0407116444321
 33
0
  0
SOLID
  5
CC
100
AcDbEntity
  8
0
  6
ByBlock
 62
    0
370
   -2
100
AcDbTrace
 10
170
 20
-100
 30
0
 11
163.75
 21
-101.0407116444321
 31
0
 12
163.75
 22
-98.95928835556789
 32
0
 13
163.75
 23
-98.95928835556789
 33
0
  0
LINE
  5
CD
100
AcDbEntity
  8
0
  6
ByBlock
 62
    0
370
   -2
100
AcDbLine
 10
90
 20
-248.4375
 11
90
 21
-96.875
  0
LINE
  5
CE
100
AcDbEntity
  8
0
  6
ByBlock
 62
    0
370
   -2
100
AcDbLine
 10
170
 20
-248.4375
 11
170
 21
-96.875
  0
ENDBLK
  5
59
330
57
100
AcDbEntity
  8
0
100
AcDbBlockEnd
  0
BLOCK
  5
5B
330
5A
100
AcDbEntity
  8
0
100
AcDbBlockBegin
  2
*D13
 70
    1
 10
0
 20
0
  3
*D13
  1

  0
LINE
  5
CF
100
AcDbEntity
  8
0
  6
CONTINUOUS
 62
    7
370
    0
100
AcDbLine
 10
-44.5
 20
-267.5459234917793
 11
-34
 21
-280
  0
SOLID
  5
D0
100
AcDbEntity
  8
0
  6
CONTINUOUS
 62
    7
370
    0
100
AcDbTrace
 10
-44.5
 20
-267.5459234917793
 30
0
 11
-39.67571548154904
 21
-271.653460419415
 31
0
 12
-41.26704127359177
 22
-272.9951031181265
 32
0
 13
-41.26704127359177
 23
-272.9951031181265
 33
0
  0
ENDBLK
  5
5C
330
5A
100
AcDbEntity
  8
0
100
AcDbBlockEnd
  0
BLOCK
  5
5E
330
5D
100
AcDbEntity
  8
0
100
AcDbBlockBegin
  2
*D3
 70
    1
 10
0
 20
0
  3
*D3
  1

  0
LINE
  5
D1
100
AcDbEntity
  8
0
  6
ByBlock
 62
    0
370
   -2
100
AcDbLine
 10
-454
 20
-390
 11
-286
 21
-390
  0
MTEXT
  5
D2
100
AcDbEntity
  8
0
  6
CONTINUOUS
 62
    0
370
   -2
100
AcDbMText
 10
-370
 20
-382.1875
 30
0
 40
12.5
 41
36.80555555555632
 71
    5
 72
    1
  1
168,0
  7
standard
210
0
220
0
230
1
 50
0
 73
    2
 44
1
  0
SOLID
  5
D3
100
AcDbEntity
  8
0
  6
ByBlock
 62
    0
370
   -2
100
AcDbTrace
 10
-454
 20
-390
 30
0
 11
-447.75
 21
-388.9592883555679
 31
0
 12
-447.75
 22
-391.0407116444321
 32
0
 13
-447.75
 23
-391.0407116444321
 33
0
  0
SOLID
  5
D4
100
AcDbEntity
  8
0
  6
ByBlock
 62
    0
370
   -2
100
AcDbTrace
 10
-286
 20
-390
 30
0
 11
-292.25
 21
-391.0407116444321
 31
0
 12
-292.25
 22
-388.9592883555679
 32
0
 13
-292.25
 23
-388.9592883555679
 33
0
  0
LINE
  5
D5
100
AcDbEntity
  8
0
  6
ByBlock
 62
    0
370
   -2
100
AcDbLine
 10
-454
 20
-251.5625
 11
-454
 21
-393.125
  0
LINE
  5
D6
100
AcDbEntity
  8
0
  6
ByBlock
 62
    0
370
   -2
100
AcDbLine
 10
-286
 20
-251.5625
 11
-286
 21
-393.125
  0
ENDBLK
  5
5F
330
5D
100
AcDbEntity
  8
0
100
AcDbBlockEnd
  0
BLOCK
  5
61
330
60
100
AcDbEntity
  8
0
100
AcDbBlockBegin
  2
*D5
 70
    1
 10
0
 20
0
  3
*D5
  1

  0
LINE
  5
D7
100
AcDbEntity
  8
0
  6
ByBlock
 62
    0
370
   -2
100
AcDbLine
 10
-440.5
 20
-140
 11
-299.5
 21
-140
  0
MTEXT
  5
D8
100
AcDbEntity
  8
0
  6
CONTINUOUS
 62
    0
370
   -2
100
AcDbMText
 10
-370
 20
-132.1875
 30
0
 40
12.5
 41
35.41666666666666
 71
    5
 72
    1
  1
141,0
  7
standard
210
0
220
0
230
1
 50
0
 73
    2
 44
1
  0
SOLID
  5
D9
100
AcDbEntity
  8
0
  6
ByBlock
 62
    0
370
   -2
100
AcDbTrace
 10
-440.5
 20
-140
 30
0
 11
-434.25
 21
-138.9592883555679
 31
0
 12
-434.25
 22
-141.0407116444321
 32
0
 13
-434.25
 23
-141.0407116444321
 33
0
  0
SOLID
  5
DA
100
AcDbEntity
  8
0
  6
ByBlock
 62
    0
370
   -2
100
AcDbTrace
 10
-299.5
 20
-140
 30
0
 11
-305.75
 21
-141.0407116444321
 31
0
 12
-305.75
 22
-138.9592883555679
 32
0
 13
-305.75
 23
-138.9592883555679
 33
0
  0
LINE
  5
DB
100
AcDbEntity
  8
0
  6
ByBlock
 62
    0
370
   -2
100
AcDbLine
 10
-440.5
 20
-248.4375
 11
-440.5
 21
-136.875
  0
LINE
  5
DC
100
AcDbEntity
  8
0
  6
ByBlock
 62
    0
370
   -2
100
AcDbLine
 10
-299.5
 20
-248.4375
 11
-299.5
 21
-136.875
  0
ENDBLK
  5
62
330
60
100
AcDbEntity
  8
0
100
AcDbBlockEnd
  0
BLOCK
  5
64
330
63
100
AcDbEntity
  8
0
100
AcDbBlockBegin
  2
*D26
 70
    1
 10
0
 20
0
  3
*D26
  1

  0
LINE
  5
DD
100
AcDbEntity
  8
0
  6
ByBlock
 62
    0
370
   -2
100
AcDbLine
 10
-960
 20
-430
 11
-780
 21
-430
  0
MTEXT
  5
DE
100
AcDbEntity
  8
0
  6
CONTINUOUS
 62
    0
370
   -2
100
AcDbMText
 10
-870
 20
-422.1875
 30
0
 40
12.5
 41
36.80555555555556
 71
    5
 72
    1
  1
180,0
  7
standard
210
0
220
0
230
1
 50
0
 73
    2
 44
1
  0
SOLID
  5
DF
100
AcDbEntity
  8
0
  6
ByBlock
 62
    0
370
   -2
100
AcDbTrace
 10
-960
 20
-430
 30
0
 11
-953.75
 21
-428.9592883555679
 31
0
 12
-953.75
 22
-431.0407116444321
 32
0
 13
-953.75
 23
-431.0407116444321
 33
0
  0
SOLID
  5
E0
100
AcDbEntity
  8
0
  6
ByBlock
 62
    0
370
   -2
100
AcDbTrace
 10
-780
 20
-430
 30
0
 11
-786.25
 21
-431.0407116444321
 31
0
 12
-786.25
 22
-428.9592883555679
 32
0
 13
-786.25
 23
-428.9592883555679
 33
0
  0
LINE
  5
E1
100
AcDbEntity
  8
0
  6
ByBlock
 62
    0
370
   -2
100
AcDbLine
 10
-960
 20
-251.5625
 11
-960
 21
-433.125
  0
LINE
  5
E2
100
AcDbEntity
  8
0
  6
ByBlock
 62
    0
370
   -2
100
AcDbLine
 10
-780
 20
-251.5625
 11
-780
 21
-433.125
  0
ENDBLK
  5
65
330
63
100
AcDbEntity
  8
0
100
AcDbBlockEnd
  0
BLOCK
  5
67
330
66
100
AcDbEntity
  8
0
100
AcDbBlockBegin
  2
*D15
 70
    1
 10
0
 20
0
  3
*D15
  1

  0
LINE
  5
E3
100
AcDbEntity
  8
0
  6
CONTINUOUS
 62
    7
370
    0
100
AcDbLine
 10
-44.5
 20
-255.8701957852151
 11
-24
 21
-250
  0
SOLID
  5
E4
100
AcDbEntity
  8
0
  6
CONTINUOUS
 62
    7
370
    0
100
AcDbTrace
 10
-44.5
 20
-255.8701957852151
 30
0
 11
-38.77798134936139
 21
-253.149151263602
 31
0
 12
-38.20499255885595
 22
-255.150152701228
 32
0
 13
-38.20499255885595
 23
-255.150152701228
 33
0
  0
ENDBLK
  5
68
330
66
100
AcDbEntity
  8
0
100
AcDbBlockEnd
  0
BLOCK
  5
6A
330
69
100
AcDbEntity
  8
0
100
AcDbBlockBegin
  2
*D29
 70
    1
 10
0
 20
0
  3
*D29
  1

  0
LINE
  5
E5
100
AcDbEntity
  8
0
  6
CONTINUOUS
 62
    7
370
    0
100
AcDbLine
 10
-566
 20
-277
 11
-560
 21
-293
  0
SOLID
  5
E6
100
AcDbEntity
  8
0
  6
CONTINUOUS
 62
    7
370
    0
100
AcDbTrace
 10
-566
 20
-277
 30
0
 11
-562.8310298119549
 21
-282.4866391055124
 31
0
 12
-564.7799271681902
 22
-283.2174756141006
 32
0
 13
-564.7799271681902
 23
-283.2174756141006
 33
0
  0
ENDBLK
  5
6B
330
69
100
AcDbEntity
  8
0
100
AcDbBlockEnd
  0
BLOCK
  5
6D
330
6C
100
AcDbEntity
  8
0
100
AcDbBlockBegin
  2
*D19
 70
    1
 10
0
 20
0
  3
*D19
  1

  0
LINE
  5
E7
100
AcDbEntity
  8
0
  6
CONTINUOUS
 62
    7
370
    0
100
AcDbLine
 10
-54.94507657620443
 20
-230
 11
-60
 21
-207
  0
SOLID
  5
E8
100
AcDbEntity
  8
0
  6
CONTINUOUS
 62
    7
370
    0
100
AcDbTrace
 10
-54.94507657620443
 20
-230
 30
0
 11
-57.30312986682282
 21
-224.1190846456134
 31
0
 12
-55.27022521625656
 22
-223.6722943266355
 32
0
 13
-55.27022521625656
 23
-223.6722943266355
 33
0
  0
ENDBLK
  5
6E
330
6C
100
AcDbEntity
  8
0
100
AcDbBlockEnd
  0
BLOCK
  5
70
330
6F
100
AcDbEntity
  8
0
100
AcDbBlockBegin
  2
*D21
 70
    1
 10
0
 20
0
  3
*D21
  1

  0
LINE
  5
E9
100
AcDbEntity
  8
0
  6
CONTINUOUS
 62
    7
370
    0
100
AcDbLine
 10
454.224597578145
 20
-271
 11
466
 21
-290
  0
SOLID
  5
EA
100
AcDbEntity
  8
0
  6
CONTINUOUS
 62
    7
370
    0
100
AcDbTrace
 10
454.224597578145
 20
-271
 30
0
 11
458.4016413753686
 21
-275.764229826838
 31
0
 12
456.6324424200333
 22
-276.86070507228
 32
0
 13
456.6324424200333
 23
-276.86070507228
 33
0
  0
ENDBLK
  5
71
330
6F
100
AcDbEntity
  8
0
100
AcDbBlockEnd
  0
BLOCK
  5
73
330
72
100
AcDbEntity
  8
0
100
AcDbBlockBegin
  2
*D16
 70
    1
 10
0
 20
0
  3
*D16
  1

  0
LINE
  5
EB
100
AcDbEntity
  8
0
  6
CONTINUOUS
 62
    7
370
    0
100
AcDbLine
 10
-44.5
 20
-249.9902401349199
 11
-24
 21
-250
  0
SOLID
  5
EC
100
AcDbEntity
  8
0
  6
CONTINUOUS
 62
    7
370
    0
100
AcDbTrace
 10
-44.5
 20
-249.9902401349199
 30
0
 11
-38.24950523495053
 21
-248.9525041767178
 31
0
 12
-38.25049618169061
 22
-251.0339272296916
 32
0
 13
-38.25049618169061
 23
-251.0339272296916
 33
0
  0
ENDBLK
  5
74
330
72
100
AcDbEntity
  8
0
100
AcDbBlockEnd
  0
BLOCK
  5
76
330
75
100
AcDbEntity
  8
0
100
AcDbBlockBegin
  2
*D20
 70
    1
 10
0
 20
0
  3
*D20
  1

  0
LINE
  5
ED
100
AcDbEntity
  8
0
  6
CONTINUOUS
 62
    7
370
    0
100
AcDbLine
 10
433.5647268213297
 20
-277
 11
440
 21
-293
  0
SOLID
  5
EE
100
AcDbEntity
  8
0
  6
CONTINUOUS
 62
    7
370
    0
100
AcDbTrace
 10
433.5647268213297
 20
-277
 30
0
 11
436.8624752555613
 21
-282.4102158913836
 31
0
 12
434.9313937367033
 22
-283.1869057103919
 32
0
 13
434.9313937367033
 23
-283.1869057103919
 33
0
  0
ENDBLK
  5
77
330
75
100
AcDbEntity
  8
0
100
AcDbBlockEnd
  0
BLOCK
  5
79
330
78
100
AcDbEntity
  8
0
100
AcDbBlockBegin
  2
*D33
 70
    1
 10
0
 20
0
  3
*D33
  1

  0
LINE
  5
EF
100
AcDbEntity
  8
decoupe
  6
CONTINUOUS
 62
    7
370
    0
100
AcDbLine
 10
-544.5
 20
-255.8419893812442
 11
-531.3066295185401
 21
-234.7990324752353
  0
SOLID
  5
F0
100
AcDbEntity
  8
decoupe
  6
CONTINUOUS
 62
    7
370
    0
100
AcDbTrace
 10
-544.5
 20
-255.8419893812442
 30
0
 11
-542.0617350873689
 21
-249.9938747326854
 31
0
 12
-540.2982573667921
 22
-251.0995280402169
 32
0
 13
-540.2982573667921
 23
-251.0995280402169
 33
0
  0
ENDBLK
  5
7A
330
78
100
AcDbEntity
  8
0
100
AcDbBlockEnd
  0
BLOCK
  5
7C
330
7B
100
AcDbEntity
  8
0
100
AcDbBlockBegin
  2
*D4
 70
    1
 10
0
 20
0
  3
*D4
  1

  0
LINE
  5
F1
100
AcDbEntity
  8
0
  6
ByBlock
 62
    0
370
   -2
100
AcDbLine
 10
-465.5
 20
-470
 11
-274.5
 21
-470
  0
MTEXT
  5
F2
100
AcDbEntity
  8
0
  6
CONTINUOUS
 62
    0
370
   -2
100
AcDbMText
 10
-370
 20
-462.1875
 30
0
 40
12.5
 41
34.02777777777777
 71
    5
 72
    1
  1
191,0
  7
standard
210
0
220
0
230
1
 50
0
 73
    2
 44
1
  0
SOLID
  5
F3
100
AcDbEntity
  8
0
  6
ByBlock
 62
    0
370
   -2
100
AcDbTrace
 10
-465.5
 20
-470
 30
0
 11
-459.25
 21
-468.9592883555679
 31
0
 12
-459.25
 22
-471.0407116444321
 32
0
 13
-459.25
 23
-471.0407116444321
 33
0
  0
SOLID
  5
F4
100
AcDbEntity
  8
0
  6
ByBlock
 62
    0
370
   -2
100
AcDbTrace
 10
-274.5
 20
-470
 30
0
 11
-280.75
 21
-471.0407116444321
 31
0
 12
-280.75
 22
-468.9592883555679
 32
0
 13
-280.75
 23
-468.9592883555679
 33
0
  0
LINE
  5
F5
100
AcDbEntity
  8
0
  6
ByBlock
 62
    0
370
   -2
100
AcDbLine
 10
-465.5
 20
-251.5625
 11
-465.5
 21
-473.125
  0
LINE
  5
F6
100
AcDbEntity
  8
0
  6
ByBlock
 62
    0
370
   -2
100
AcDbLine
 10
-274.5
 20
-251.5625
 11
-274.5
 21
-473.125
  0
ENDBLK
  5
7D
330
7B
100
AcDbEntity
  8
0
100
AcDbBlockEnd
  0
BLOCK
  5
7F
330
7E
100
AcDbEntity
  8
0
100
AcDbBlockBegin
  2
*D28
 70
    1
 10
0
 20
0
  3
*D28
  1

  0
LINE
  5
F7
100
AcDbEntity
  8
0
  6
ByBlock
 62
    0
370
   -2
100
AcDbLine
 10
-965.5
 20
-470
 11
-774.5
 21
-470
  0
MTEXT
  5
F8
100
AcDbEntity
  8
0
  6
CONTINUOUS
 62
    0
370
   -2
100
AcDbMText
 10
-870
 20
-462.1875
 30
0
 40
12.5
 41
34.02777777777777
 71
    5
 72
    1
  1
191,0
  7
standard
210
0
220
0
230
1
 50
0
 73
    2
 44
1
  0
SOLID
  5
F9
100
AcDbEntity
  8
0
  6
ByBlock
 62
    0
370
   -2
100
AcDbTrace
 10
-965.5
 20
-470
 30
0
 11
-959.25
 21
-468.9592883555679
 31
0
 12
-959.25
 22
-471.0407116444321
 32
0
 13
-959.25
 23
-471.0407116444321
 33
0
  0
SOLID
  5
FA
100
AcDbEntity
  8
0
  6
ByBlock
 62
    0
370
   -2
100
AcDbTrace
 10
-774.5
 20
-470
 30
0
 11
-780.75
 21
-471.0407116444321
 31
0
 12
-780.75
 22
-468.9592883555679
 32
0
 13
-780.75
 23
-468.9592883555679
 33
0
  0
LINE
  5
FB
100
AcDbEntity
  8
0
  6
ByBlock
 62
    0
370
   -2
100
AcDbLine
 10
-965.5
 20
-251.5625
 11
-965.5
 21
-473.125
  0
LINE
  5
FC
100
AcDbEntity
  8
0
  6
ByBlock
 62
    0
370
   -2
100
AcDbLine
 10
-774.5
 20
-251.5625
 11
-774.5
 21
-473.125
  0
ENDBLK
  5
80
330
7E
100
AcDbEntity
  8
0
100
AcDbBlockEnd
  0
BLOCK
  5
82
330
81
100
AcDbEntity
  8
0
100
AcDbBlockBegin
  2
*D35
 70
    1
 10
0
 20
0
  3
*D35
  1

  0
LINE
  5
FD
100
AcDbEntity
  8
decoupe
  6
ByBlock
 62
    0
370
   -2
100
AcDbLine
 10
-942.5
 20
-59.99999999999997
 11
-797.5
 21
-59.99999999999997
  0
MTEXT
  5
FE
100
AcDbEntity
  8
decoupe
  6
CONTINUOUS
 62
    0
370
   -2
100
AcDbMText
 10
-870
 20
-52.18749999999997
 30
0
 40
12.5
 41
38.19444444444522
 71
    5
 72
    1
  1
145,0
  7
standard
210
0
220
0
230
1
 50
0
 73
    2
 44
1
  0
SOLID
  5
FF
100
AcDbEntity
  8
decoupe
  6
ByBlock
 62
    0
370
   -2
100
AcDbTrace
 10
-942.5
 20
-59.99999999999997
 30
0
 11
-936.25
 21
-58.95928835556787
 31
0
 12
-936.25
 22
-61.04071164443207
 32
0
 13
-936.25
 23
-61.04071164443207
 33
0
  0
SOLID
  5
100
100
AcDbEntity
  8
decoupe
  6
ByBlock
 62
    0
370
   -2
100
AcDbTrace
 10
-797.5
 20
-59.99999999999997
 30
0
 11
-803.75
 21
-61.04071164443207
 31
0
 12
-803.75
 22
-58.95928835556787
 32
0
 13
-803.75
 23
-58.95928835556787
 33
0
  0
LINE
  5
101
100
AcDbEntity
  8
decoupe
  6
ByBlock
 62
    0
370
   -2
100
AcDbLine
 10
-942.5
 20
-248.4375
 11
-942.5
 21
-56.87499999999997
  0
LINE
  5
102
100
AcDbEntity
  8
decoupe
  6
ByBlock
 62
    0
370
   -2
100
AcDbLine
 10
-797.5
 20
-248.4375
 11
-797.5
 21
-56.87499999999997
  0
ENDBLK
  5
83
330
81
100
AcDbEntity
  8
0
100
AcDbBlockEnd
  0
BLOCK
  5
85
330
84
100
AcDbEntity
  8
0
100
AcDbBlockBegin
  2
*D6
 70
    1
 10
0
 20
0
  3
*D6
  1

  0
LINE
  5
103
100
AcDbEntity
  8
0
  6
ByBlock
 62
    0
370
   -2
100
AcDbLine
 10
-450.4999999999998
 20
-60
 11
-289.5000000000002
 21
-60
  0
MTEXT
  5
104
100
AcDbEntity
  8
0
  6
CONTINUOUS
 62
    0
370
   -2
100
AcDbMText
 10
-370
 20
-52.1875
 30
0
 40
12.5
 41
34.02777777777855
 71
    5
 72
    1
  1
161,0
  7
standard
210
0
220
0
230
1
 50
0
 73
    2
 44
1
  0
SOLID
  5
105
100
AcDbEntity
  8
0
  6
ByBlock
 62
    0
370
   -2
100
AcDbTrace
 10
-450.4999999999998
 20
-60
 30
0
 11
-444.2499999999998
 21
-58.9592883555679
 31
0
 12
-444.2499999999998
 22
-61.0407116444321
 32
0
 13
-444.2499999999998
 23
-61.0407116444321
 33
0
  0
SOLID
  5
106
100
AcDbEntity
  8
0
  6
ByBlock
 62
    0
370
   -2
100
AcDbTrace
 10
-289.5000000000002
 20
-60
 30
0
 11
-295.7500000000002
 21
-61.0407116444321
 31
0
 12
-295.7500000000002
 22
-58.9592883555679
 32
0
 13
-295.7500000000002
 23
-58.9592883555679
 33
0
  0
LINE
  5
107
100
AcDbEntity
  8
0
  6
ByBlock
 62
    0
370
   -2
100
AcDbLine
 10
-450.4999999999998
 20
-248.4375000000001
 11
-450.4999999999998
 21
-56.875
  0
LINE
  5
108
100
AcDbEntity
  8
0
  6
ByBlock
 62
    0
370
   -2
100
AcDbLine
 10
-289.5000000000002
 20
-248.4374999999998
 11
-289.5000000000002
 21
-56.875
  0
ENDBLK
  5
86
330
84
100
AcDbEntity
  8
0
100
AcDbBlockEnd
  0
BLOCK
  5
88
330
87
100
AcDbEntity
  8
0
100
AcDbBlockBegin
  2
*D32
 70
    1
 10
0
 20
0
  3
*D32
  1

  0
LINE
  5
109
100
AcDbEntity
  8
0
  6
CONTINUOUS
 62
    7
370
    0
100
AcDbLine
 10
-556.9450765762044
 20
-247
 11
-562
 21
-224
  0
SOLID
  5
10A
100
AcDbEntity
  8
0
  6
CONTINUOUS
 62
    7
370
    0
100
AcDbTrace
 10
-556.9450765762044
 20
-247
 30
0
 11
-559.3031298668228
 21
-241.1190846456134
 31
0
 12
-557.2702252162566
 22
-240.6722943266355
 32
0
 13
-557.2702252162566
 23
-240.6722943266355
 33
0
  0
ENDBLK
  5
89
330
87
100
AcDbEntity
  8
0
100
AcDbBlockEnd
  0
BLOCK
  5
8B
330
8A
100
AcDbEntity
  8
0
100
AcDbBlockBegin
  2
*D18
 70
    1
 10
0
 20
0
  3
*D18
  1

  0
LINE
  5
10B
100
AcDbEntity
  8
0
  6
CONTINUOUS
 62
    7
370
    0
100
AcDbLine
 10
-44.5
 20
-238.0814691976133
 11
-34
 21
-220
  0
SOLID
  5
10C
100
AcDbEntity
  8
0
  6
CONTINUOUS
 62
    7
370
    0
100
AcDbTrace
 10
-44.5
 20
-238.0814691976133
 30
0
 11
-42.26138358506331
 21
-232.1540602127673
 31
0
 12
-40.46143852256775
 22
-233.199297353049
 32
0
 13
-40.46143852256775
 23
-233.199297353049
 33
0
  0
ENDBLK
  5
8C
330
8A
100
AcDbEntity
  8
0
100
AcDbBlockEnd
  0
BLOCK
  5
8E
330
8D
100
AcDbEntity
  8
0
100
AcDbBlockBegin
  2
*D25
 70
    1
 10
0
 20
0
  3
*D25
  1

  0
LINE
  5
10D
100
AcDbEntity
  8
0
  6
ByBlock
 62
    0
370
   -2
100
AcDbLine
 10
91
 20
-140
 11
169
 21
-140
  0
MTEXT
  5
10E
100
AcDbEntity
  8
0
  6
CONTINUOUS
 62
    0
370
   -2
100
AcDbMText
 10
130
 20
-132.1875
 30
0
 40
12.5
 41
29.86111111111111
 71
    5
 72
    1
  1
78,0
  7
standard
210
0
220
0
230
1
 50
0
 73
    2
 44
1
  0
SOLID
  5
10F
100
AcDbEntity
  8
0
  6
ByBlock
 62
    0
370
   -2
100
AcDbTrace
 10
91
 20
-140
 30
0
 11
97.25
 21
-138.9592883555679
 31
0
 12
97.25
 22
-141.0407116444321
 32
0
 13
97.25
 23
-141.0407116444321
 33
0
  0
SOLID
  5
110
100
AcDbEntity
  8
0
  6
ByBlock
 62
    0
370
   -2
100
AcDbTrace
 10
169
 20
-140
 30
0
 11
162.75
 21
-141.0407116444321
 31
0
 12
162.75
 22
-138.9592883555679
 32
0
 13
162.75
 23
-138.9592883555679
 33
0
  0
LINE
  5
111
100
AcDbEntity
  8
0
  6
ByBlock
 62
    0
370
   -2
100
AcDbLine
 10
91
 20
-248.4375
 11
91
 21
-136.875
  0
LINE
  5
112
100
AcDbEntity
  8
0
  6
ByBlock
 62
    0
370
   -2
100
AcDbLine
 10
169
 20
-248.4375
 11
169
 21
-136.875
  0
ENDBLK
  5
8F
330
8D
100
AcDbEntity
  8
0
100
AcDbBlockEnd
  0
BLOCK
  5
91
330
90
100
AcDbEntity
  8
0
100
AcDbBlockBegin
  2
*D30
 70
    1
 10
0
 20
0
  3
*D30
  1

  0
LINE
  5
113
100
AcDbEntity
  8
0
  6
CONTINUOUS
 62
    7
370
    0
100
AcDbLine
 10
-544.5
 20
-267.5459234917793
 11
-534
 21
-280
  0
SOLID
  5
114
100
AcDbEntity
  8
0
  6
CONTINUOUS
 62
    7
370
    0
100
AcDbTrace
 10
-544.5
 20
-267.5459234917793
 30
0
 11
-539.675715481549
 21
-271.653460419415
 31
0
 12
-541.2670412735918
 22
-272.9951031181265
 32
0
 13
-541.2670412735918
 23
-272.9951031181265
 33
0
  0
ENDBLK
  5
92
330
90
100
AcDbEntity
  8
0
100
AcDbBlockEnd
  0
BLOCK
  5
94
330
93
100
AcDbEntity
  8
0
100
AcDbBlockBegin
  2
*D23
 70
    1
 10
0
 20
0
  3
*D23
  1

  0
LINE
  5
115
100
AcDbEntity
  8
0
  6
CONTINUOUS
 62
    7
370
    0
100
AcDbLine
 10
455.5
 20
-258.4467636397228
 11
466
 21
-250
  0
SOLID
  5
116
100
AcDbEntity
  8
0
  6
CONTINUOUS
 62
    7
370
    0
100
AcDbTrace
 10
455.5
 20
-258.4467636397228
 30
0
 11
459.7175051635705
 21
-253.7183145364636
 31
0
 12
461.0221594358184
 22
-255.3401037142951
 32
0
 13
461.0221594358184
 23
-255.3401037142951
 33
0
  0
ENDBLK
  5
95
330
93
100
AcDbEntity
  8
0
100
AcDbBlockEnd
  0
BLOCK
  5
97
330
96
100
AcDbEntity
  8
0
100
AcDbBlockBegin
  2
*D8
 70
    1
 10
0
 20
0
  3
*D8
  1

  0
LINE
  5
117
100
AcDbEntity
  8
0
  6
ByBlock
 62
    0
370
   -2
100
AcDbLine
 10
46
 20
-390
 11
214
 21
-390
  0
MTEXT
  5
118
100
AcDbEntity
  8
0
  6
CONTINUOUS
 62
    0
370
   -2
100
AcDbMText
 10
130
 20
-382.1875
 30
0
 40
12.5
 41
36.80555555555632
 71
    5
 72
    1
  1
168,0
  7
standard
210
0
220
0
230
1
 50
0
 73
    2
 44
1
  0
SOLID
  5
119
100
AcDbEntity
  8
0
  6
ByBlock
 62
    0
370
   -2
100
AcDbTrace
 10
46
 20
-390
 30
0
 11
52.25
 21
-388.9592883555679
 31
0
 12
52.25
 22
-391.0407116444321
 32
0
 13
52.25
 23
-391.0407116444321
 33
0
  0
SOLID
  5
11A
100
AcDbEntity
  8
0
  6
ByBlock
 62
    0
370
   -2
100
AcDbTrace
 10
214
 20
-390
 30
0
 11
207.75
 21
-391.0407116444321
 31
0
 12
207.75
 22
-388.9592883555679
 32
0
 13
207.75
 23
-388.9592883555679
 33
0
  0
LINE
  5
11B
100
AcDbEntity
  8
0
  6
ByBlock
 62
    0
370
   -2
100
AcDbLine
 10
46
 20
-251.5625
 11
46
 21
-393.125
  0
LINE
  5
11C
100
AcDbEntity
  8
0
  6
ByBlock
 62
    0
370
   -2
100
AcDbLine
 10
214
 20
-251.5625
 11
214
 21
-393.125
  0
ENDBLK
  5
98
330
96
100
AcDbEntity
  8
0
100
AcDbBlockEnd
  0
BLOCK
  5
9A
330
99
100
AcDbEntity
  8
0
100
AcDbBlockBegin
  2
*D9
 70
    1
 10
0
 20
0
  3
*D9
  1

  0
LINE
  5
11D
100
AcDbEntity
  8
0
  6
ByBlock
 62
    0
370
   -2
100
AcDbLine
 10
34.5
 20
-470
 11
225.5
 21
-470
  0
MTEXT
  5
11E
100
AcDbEntity
  8
0
  6
CONTINUOUS
 62
    0
370
   -2
100
AcDbMText
 10
130
 20
-462.1875
 30
0
 40
12.5
 41
34.02777777777777
 71
    5
 72
    1
  1
191,0
  7
standard
210
0
220
0
230
1
 50
0
 73
    2
 44
1
  0
SOLID
  5
11F
100
AcDbEntity
  8
0
  6
ByBlock
 62
    0
370
   -2
100
AcDbTrace
 10
34.5
 20
-470
 30
0
 11
40.75
 21
-468.9592883555679
 31
0
 12
40.75
 22
-471.0407116444321
 32
0
 13
40.75
 23
-471.0407116444321
 33
0
  0
SOLID
  5
120
100
AcDbEntity
  8
0
  6
ByBlock
 62
    0
370
   -2
100
AcDbTrace
 10
225.5
 20
-470
 30
0
 11
219.25
 21
-471.0407116444321
 31
0
 12
219.25
 22
-468.9592883555679
 32
0
 13
219.25
 23
-468.9592883555679
 33
0
  0
LINE
  5
121
100
AcDbEntity
  8
0
  6
ByBlock
 62
    0
370
   -2
100
AcDbLine
 10
34.5
 20
-251.5625
 11
34.5
 21
-473.125
  0
LINE
  5
122
100
AcDbEntity
  8
0
  6
ByBlock
 62
    0
370
   -2
100
AcDbLine
 10
225.5
 20
-251.5625
 11
225.5
 21
-473.125
  0
ENDBLK
  5
9B
330
99
100
AcDbEntity
  8
0
100
AcDbBlockEnd
  0
BLOCK
  5
9D
330
9C
100
AcDbEntity
  8
0
100
AcDbBlockBegin
  2
*D36
 70
    1
 10
0
 20
0
  3
*D36
  1

  0
LINE
  5
123
100
AcDbEntity
  8
decoupe
  6
ByBlock
 62
    0
370
   -2
100
AcDbLine
 10
-934
 20
-248.4375
 11
-934
 21
-136.875
  0
LINE
  5
124
100
AcDbEntity
  8
decoupe
  6
ByBlock
 62
    0
370
   -2
100
AcDbLine
 10
-806
 20
-248.4375
 11
-806
 21
-136.875
  0
LINE
  5
125
100
AcDbEntity
  8
decoupe
  6
ByBlock
 62
    0
370
   -2
100
AcDbLine
 10
-934
 20
-140
 11
-806
 21
-140
  0
MTEXT
  5
126
100
AcDbEntity
  8
decoupe
  6
CONTINUOUS
 62
    0
370
   -2
100
AcDbMText
 10
-870
 20
-132.1875
 30
0
 40
12.5
 41
36.80555555555556
 71
    5
 72
    1
  1
128,0
  7
standard
210
0
220
0
230
1
 50
0
 73
    2
 44
1
  0
SOLID
  5
127
100
AcDbEntity
  8
decoupe
  6
ByBlock
 62
    0
370
   -2
100
AcDbTrace
 10
-934
 20
-140
 30
0
 11
-927.75
 21
-138.9592883555679
 31
0
 12
-927.75
 22
-141.0407116444321
 32
0
 13
-927.75
 23
-141.0407116444321
 33
0
  0
SOLID
  5
128
100
AcDbEntity
  8
decoupe
  6
ByBlock
 62
    0
370
   -2
100
AcDbTrace
 10
-806
 20
-140
 30
0
 11
-812.25
 21
-141.0407116444321
 31
0
 12
-812.25
 22
-138.9592883555679
 32
0
 13
-812.25
 23
-138.9592883555679
 33
0
  0
ENDBLK
  5
9E
330
9C
100
AcDbEntity
  8
0
100
AcDbBlockEnd
  0
BLOCK
  5
A0
330
9F
100
AcDbEntity
  8
0
100
AcDbBlockBegin
  2
*D1
 70
    1
 10
0
 20
0
  3
*D1
  1

  0
LINE
  5
129
100
AcDbEntity
  8
0
  6
ByBlock
 62
    0
370
   -2
100
AcDbLine
 10
-447
 20
-100
 11
-293
 21
-100
  0
MTEXT
  5
12A
100
AcDbEntity
  8
0
  6
CONTINUOUS
 62
    0
370
   -2
100
AcDbMText
 10
-370
 20
-92.1875
 30
0
 40
12.5
 41
38.19444444444522
 71
    5
 72
    1
  1
154,0
  7
standard
210
0
220
0
230
1
 50
0
 73
    2
 44
1
  0
SOLID
  5
12B
100
AcDbEntity
  8
0
  6
ByBlock
 62
    0
370
   -2
100
AcDbTrace
 10
-447
 20
-100
 30
0
 11
-440.75
 21
-98.95928835556791
 31
0
 12
-440.75
 22
-101.0407116444321
 32
0
 13
-440.75
 23
-101.0407116444321
 33
0
  0
SOLID
  5
12C
100
AcDbEntity
  8
0
  6
ByBlock
 62
    0
370
   -2
100
AcDbTrace
 10
-293
 20
-100
 30
0
 11
-299.25
 21
-101.0407116444321
 31
0
 12
-299.25
 22
-98.95928835556789
 32
0
 13
-299.25
 23
-98.95928835556789
 33
0
  0
LINE
  5
12D
100
AcDbEntity
  8
0
  6
ByBlock
 62
    0
370
   -2
100
AcDbLine
 10
-447
 20
-248.4375
 11
-447
 21
-96.875
  0
LINE
  5
12E
100
AcDbEntity
  8
0
  6
ByBlock
 62
    0
370
   -2
100
AcDbLine
 10
-293
 20
-248.4375
 11
-293
 21
-96.875
  0
ENDBLK
  5
A1
330
9F
100
AcDbEntity
  8
0
100
AcDbBlockEnd
  0
BLOCK
  5
A3
330
A2
100
AcDbEntity
  8
0
100
AcDbBlockBegin
  2
*D12
 70
    1
 10
0
 20
0
  3
*D12
  1

  0
LINE
  5
12F
100
AcDbEntity
  8
0
  6
CONTINUOUS
 62
    7
370
    0
100
AcDbLine
 10
-66
 20
-277
 11
-60
 21
-293
  0
SOLID
  5
130
100
AcDbEntity
  8
0
  6
CONTINUOUS
 62
    7
370
    0
100
AcDbTrace
 10
-66
 20
-277
 30
0
 11
-62.83102981195491
 21
-282.4866391055124
 31
0
 12
-64.77992716819018
 22
-283.2174756141006
 32
0
 13
-64.77992716819018
 23
-283.2174756141006
 33
0
  0
ENDBLK
  5
A4
330
A2
100
AcDbEntity
  8
0
100
AcDbBlockEnd
  0
BLOCK
  5
A6
330
A5
100
AcDbEntity
  8
0
100
AcDbBlockBegin
  2
*D14
 70
    1
 10
0
 20
0
  3
*D14
  1

  0
LINE
  5
131
100
AcDbEntity
  8
0
  6
CONTINUOUS
 62
    7
370
    0
100
AcDbLine
 10
-44.5
 20
-262.0478707089428
 11
-24
 21
-250
  0
SOLID
  5
132
100
AcDbEntity
  8
0
  6
CONTINUOUS
 62
    7
370
    0
100
AcDbTrace
 10
-44.5
 20
-262.0478707089428
 30
0
 11
-39.63895900927827
 21
-257.9838995951946
 31
0
 12
-38.58434788214183
 22
-259.7783683962459
 32
0
 13
-38.58434788214183
 23
-259.7783683962459
 33
0
  0
ENDBLK
  5
A7
330
A5
100
AcDbEntity
  8
0
100
AcDbBlockEnd
  0
BLOCK
  5
A9
330
A8
100
AcDbEntity
  8
0
100
AcDbBlockBegin
  2
*D24
 70
    1
 10
0
 20
0
  3
*D24
  1

  0
LINE
  5
133
100
AcDbEntity
  8
0
  6
CONTINUOUS
 62
    7
370
    0
100
AcDbLine
 10
441
 20
-251
 11
440
 21
-237
  0
SOLID
  5
134
100
AcDbEntity
  8
0
  6
CONTINUOUS
 62
    7
370
    0
100
AcDbTrace
 10
441
 20
-251
 30
0
 11
439.5166390538216
 21
-244.8400307606118
 31
0
 12
441.5927728213295
 22
-244.6917354915041
 32
0
 13
441.5927728213295
 23
-244.6917354915041
 33
0
  0
ENDBLK
  5
AA
330
A8
100
AcDbEntity
  8
0
100
AcDbBlockEnd
  0
BLOCK
  5
AC
330
AB
100
AcDbEntity
  8
0
100
AcDbBlockBegin
  2
*D27
 70
    1
 10
0
 20
0
  3
*D27
  1

  0
LINE
  5
135
100
AcDbEntity
  8
0
  6
ByBlock
 62
    0
370
   -2
100
AcDbLine
 10
-954
 20
-390
 11
-786
 21
-390
  0
MTEXT
  5
136
100
AcDbEntity
  8
0
  6
CONTINUOUS
 62
    0
370
   -2
100
AcDbMText
 10
-870
 20
-382.1875
 30
0
 40
12.5
 41
36.80555555555632
 71
    5
 72
    1
  1
168,0
  7
standard
210
0
220
0
230
1
 50
0
 73
    2
 44
1
  0
SOLID
  5
137
100
AcDbEntity
  8
0
  6
ByBlock
 62
    0
370
   -2
100
AcDbTrace
 10
-954
 20
-390
 30
0
 11
-947.75
 21
-388.9592883555679
 31
0
 12
-947.75
 22
-391.0407116444321
 32
0
 13
-947.75
 23
-391.0407116444321
 33
0
  0
SOLID
  5
138
100
AcDbEntity
  8
0
  6
ByBlock
 62
    0
370
   -2
100
AcDbTrace
 10
-786
 20
-390
 30
0
 11
-792.25
 21
-391.0407116444321
 31
0
 12
-792.25
 22
-388.9592883555679
 32
0
 13
-792.25
 23
-388.9592883555679
 33
0
  0
LINE
  5
139
100
AcDbEntity
  8
0
  6
ByBlock
 62
    0
370
   -2
100
AcDbLine
 10
-954
 20
-251.5625
 11
-954
 21
-393.125
  0
LINE
  5
13A
100
AcDbEntity
  8
0
  6
ByBlock
 62
    0
370
   -2
100
AcDbLine
 10
-786
 20
-251.5625
 11
-786
 21
-393.125
  0
ENDBLK
  5
AD
330
AB
100
AcDbEntity
  8
0
100
AcDbBlockEnd
  0
BLOCK
  5
AF
330
AE
100
AcDbEntity
  8
0
100
AcDbBlockBegin
  2
*D31
 70
    1
 10
0
 20
0
  3
*D31
  1

  0
LINE
  5
13B
100
AcDbEntity
  8
0
  6
CONTINUOUS
 62
    7
370
    0
100
AcDbLine
 10
-544.5
 20
-262.0478707089428
 11
-524
 21
-250
  0
SOLID
  5
13C
100
AcDbEntity
  8
0
  6
CONTINUOUS
 62
    7
370
    0
100
AcDbTrace
 10
-544.5
 20
-262.0478707089428
 30
0
 11
-539.6389590092783
 21
-257.9838995951946
 31
0
 12
-538.5843478821419
 22
-259.7783683962459
 32
0
 13
-538.5843478821419
 23
-259.7783683962459
 33
0
  0
ENDBLK
  5
B0
330
AE
100
AcDbEntity
  8
0
100
AcDbBlockEnd
  0
BLOCK
  5
B2
330
B1
100
AcDbEntity
  8
0
100
AcDbBlockBegin
  2
*D34
 70
    1
 10
0
 20
0
  3
*D34
  1

  0
LINE
  5
13D
100
AcDbEntity
  8
decoupe
  6
ByBlock
 62
    0
370
   -2
100
AcDbLine
 10
-939
 20
-99.99999999999997
 11
-801
 21
-99.99999999999997
  0
MTEXT
  5
13E
100
AcDbEntity
  8
decoupe
  6
CONTINUOUS
 62
    0
370
   -2
100
AcDbMText
 10
-870
 20
-92.18749999999997
 30
0
 40
12.5
 41
36.80555555555632
 71
    5
 72
    1
  1
138,0
  7
standard
210
0
220
0
230
1
 50
0
 73
    2
 44
1
  0
SOLID
  5
13F
100
AcDbEntity
  8
decoupe
  6
ByBlock
 62
    0
370
   -2
100
AcDbTrace
 10
-939
 20
-99.99999999999997
 30
0
 11
-932.75
 21
-98.95928835556788
 31
0
 12
-932.75
 22
-101.0407116444321
 32
0
 13
-932.75
 23
-101.0407116444321
 33
0
  0
SOLID
  5
140
100
AcDbEntity
  8
decoupe
  6
ByBlock
 62
    0
370
   -2
100
AcDbTrace
 10
-801
 20
-99.99999999999997
 30
0
 11
-807.25
 21
-101.0407116444321
 31
0
 12
-807.25
 22
-98.95928835556786
 32
0
 13
-807.25
 23
-98.95928835556786
 33
0
  0
LINE
  5
141
100
AcDbEntity
  8
decoupe
  6
ByBlock
 62
    0
370
   -2
100
AcDbLine
 10
-939
 20
-248.4375
 11
-939
 21
-96.87499999999997
  0
LINE
  5
142
100
AcDbEntity
  8
decoupe
  6
ByBlock
 62
    0
370
   -2
100
AcDbLine
 10
-801
 20
-248.4375
 11
-801
 21
-96.87499999999997
  0
ENDBLK
  5
B3
330
B1
100
AcDbEntity
  8
0
100
AcDbBlockEnd
  0
BLOCK
  5
B5
330
B4
100
AcDbEntity
  8
0
100
AcDbBlockBegin
  2
*D2
 70
    1
 10
0
 20
0
  3
*D2
  1

  0
LINE
  5
143
100
AcDbEntity
  8
0
  6
ByBlock
 62
    0
370
   -2
100
AcDbLine
 10
-460
 20
-430
 11
-280
 21
-430
  0
MTEXT
  5
144
100
AcDbEntity
  8
0
  6
CONTINUOUS
 62
    0
370
   -2
100
AcDbMText
 10
-370
 20
-422.1875
 30
0
 40
12.5
 41
36.80555555555556
 71
    5
 72
    1
  1
180,0
  7
standard
210
0
220
0
230
1
 50
0
 73
    2
 44
1
  0
SOLID
  5
145
100
AcDbEntity
  8
0
  6
ByBlock
 62
    0
370
   -2
100
AcDbTrace
 10
-460
 20
-430
 30
0
 11
-453.75
 21
-428.9592883555679
 31
0
 12
-453.75
 22
-431.0407116444321
 32
0
 13
-453.75
 23
-431.0407116444321
 33
0
  0
SOLID
  5
146
100
AcDbEntity
  8
0
  6
ByBlock
 62
    0
370
   -2
100
AcDbTrace
 10
-280
 20
-430
 30
0
 11
-286.25
 21
-431.0407116444321
 31
0
 12
-286.25
 22
-428.9592883555679
 32
0
 13
-286.25
 23
-428.9592883555679
 33
0
  0
LINE
  5
147
100
AcDbEntity
  8
0
  6
ByBlock
 62
    0
370
   -2
100
AcDbLine
 10
-460
 20
-251.5625
 11
-460
 21
-433.125
  0
LINE
  5
148
100
AcDbEntity
  8
0
  6
ByBlock
 62
    0
370
   -2
100
AcDbLine
 10
-280
 20
-251.5625
 11
-280
 21
-433.125
  0
ENDBLK
  5
B6
330
B4
100
AcDbEntity
  8
0
100
AcDbBlockEnd
  0
BLOCK
  5
B8
330
B7
100
AcDbEntity
  8
0
100
AcDbBlockBegin
  2
*D22
 70
    1
 10
0
 20
0
  3
*D22
  1

  0
LINE
  5
149
100
AcDbEntity
  8
0
  6
CONTINUOUS
 62
    7
370
    0
100
AcDbLine
 10
455.5
 20
-262.5053817032288
 11
476
 21
-270
  0
SOLID
  5
14A
100
AcDbEntity
  8
0
  6
CONTINUOUS
 62
    7
370
    0
100
AcDbTrace
 10
455.5
 20
-262.5053817032288
 30
0
 11
461.7273578809892
 21
-263.6739682635392
 31
0
 12
461.0126719157765
 22
-265.628845978015
 32
0
 13
461.0126719157765
 23
-265.628845978015
 33
0
  0
ENDBLK
  5
B9
330
B7
100
AcDbEntity
  8
0
100
AcDbBlockEnd
  0
BLOCK
  5
BB
330
BA
100
AcDbEntity
  8
0
100
AcDbBlockBegin
  2
*D17
 70
    1
 10
0
 20
0
  3
*D17
  1

  0
LINE
  5
14B
100
AcDbEntity
  8
0
  6
CONTINUOUS
 62
    7
370
    0
100
AcDbLine
 10
-44.5
 20
-244.2591441213411
 11
-24
 21
-250
  0
SOLID
  5
14C
100
AcDbEntity
  8
0
  6
CONTINUOUS
 62
    7
370
    0
100
AcDbTrace
 10
-44.5
 20
-244.2591441213411
 30
0
 11
-38.20089432108223
 21
-244.9424071546471
 31
0
 12
-38.7621859238864
 22
-246.946721162992
 32
0
 13
-38.7621859238864
 23
-246.946721162992
 33
0
  0
ENDBLK
  5
BC
330
BA
100
AcDbEntity
  8
0
100
AcDbBlockEnd
  0
ENDSEC
  0
SECTION
  2
ENTITIES
  0
HATCH
  5
14D
100
AcDbEntity
  8
HACHURES
  6
ByLayer
 62
  256
370
   -1
100
AcDbHatch
 10
0
 20
0
 30
0
210
0
220
0
230
1
  2
ansi31
 70
    0
 71
    0
 91
    1
 92
    0
 93
    4
 72
    1
 10
-53
 20
-271
 11
-53
 21
-230
 72
    1
 10
-53
 20
-230
 11
-47
 21
-230
 72
    1
 10
-47
 20
-230
 11
-47
 21
-271
 72
    1
 10
-47
 20
-271
 11
-53
 21
-271
 97
    0
 75
    0
 76
    1
 52
1.570796326794897
 41
1
 77
    0
 78
    0
 98
    0
  0
HATCH
  5
14E
100
AcDbEntity
  8
HACHURES
  6
ByLayer
 62
  256
370
   -1
100
AcDbHatch
 10
0
 20
0
 30
0
210
0
220
0
230
1
  2
ansi31
 70
    0
 71
    0
 91
    1
 92
    0
 93
    4
 72
    1
 10
407.25
 20
-277
 11
407.25
 21
-271
 72
    1
 10
407.25
 20
-271
 11
412.75
 21
-271
 72
    1
 10
412.75
 20
-271
 11
412.75
 21
-277
 72
    1
 10
412.75
 20
-277
 11
407.25
 21
-277
 97
    0
 75
    0
 76
    1
 52
1.570796326794897
 41
1
 77
    0
 78
    0
 98
    0
  0
HATCH
  5
14F
100
AcDbEntity
  8
HACHURES
  6
ByLayer
 62
  256
370
   -1
100
AcDbHatch
 10
0
 20
0
 30
0
210
0
220
0
230
1
  2
ansi31
 70
    0
 71
    0
 91
    1
 92
    0
 93
    4
 72
    1
 10
446.9999999999991
 20
-271
 11
446.9999999999991
 21
-252
 72
    1
 10
446.9999999999991
 20
-252
 11
453
 21
-252
 72
    1
 10
453
 20
-252
 11
453
 21
-271
 72
    1
 10
453
 20
-271
 11
446.9999999999991
 21
-271
 97
    0
 75
    0
 76
    1
 52
1.570796326794897
 41
1
 77
    0
 78
    0
 98
    0
  0
HATCH
  5
150
100
AcDbEntity
  8
HACHURES
  6
ByLayer
 62
  256
370
   -1
100
AcDbHatch
 10
0
 20
0
 30
0
210
0
220
0
230
1
  2
ansi31
 70
    0
 71
    0
 91
    1
 92
    0
 93
    4
 72
    1
 10
408.5
 20
-258
 11
411.5
 21
-258
 72
    1
 10
411.5
 20
-258
 11
411.5
 21
-252
 72
    1
 10
411.5
 20
-252
 11
408.5
 21
-252
 72
    1
 10
408.5
 20
-252
 11
408.5
 21
-258
 97
    0
 75
    0
 76
    1
 52
1.570796326794897
 41
1
 77
    0
 78
    0
 98
    0
  0
HATCH
  5
151
100
AcDbEntity
  8
HACHURES
  6
ByLayer
 62
  256
370
   -1
100
AcDbHatch
 10
0
 20
0
 30
0
210
0
220
0
230
1
  2
ansi31
 70
    0
 71
    0
 91
    1
 92
    0
 93
    4
 72
    1
 10
411.5
 20
-259
 11
408.5
 21
-259
 72
    1
 10
408.5
 20
-259
 11
408.5
 21
-265
 72
    1
 10
408.5
 20
-265
 11
411.5
 21
-265
 72
    1
 10
411.5
 20
-265
 11
411.5
 21
-259
 97
    0
 75
    0
 76
    1
 52
1.570796326794897
 41
1
 77
    0
 78
    0
 98
    0
  0
HATCH
  5
152
100
AcDbEntity
  8
HACHURES
  6
ByLayer
 62
  256
370
   -1
100
AcDbHatch
 10
0
 20
0
 30
0
210
0
220
0
230
1
  2
ansi31
 70
    0
 71
    0
 91
    1
 92
    0
 93
    4
 72
    1
 10
408.5
 20
-271
 11
411.5
 21
-271
 72
    1
 10
411.5
 20
-271
 11
411.5
 21
-265
 72
    1
 10
411.5
 20
-265
 11
408.5
 21
-265
 72
    1
 10
408.5
 20
-265
 11
408.5
 21
-271
 97
    0
 75
    0
 76
    1
 52
1.570796326794897
 41
1
 77
    0
 78
    0
 98
    0
  0
HATCH
  5
153
100
AcDbEntity
  8
HACHURES
  6
ByLayer
 62
  256
370
   -1
100
AcDbHatch
 10
0
 20
0
 30
0
210
0
220
0
230
1
  2
ansi31
 70
    0
 71
    0
 91
    1
 92
    0
 93
    4
 72
    1
 10
-61
 20
-236
 11
-58
 21
-236
 72
    1
 10
-58
 20
-236
 11
-58
 21
-230
 72
    1
 10
-58
 20
-230
 11
-61
 21
-230
 72
    1
 10
-61
 20
-230
 11
-61
 21
-236
 97
    0
 75
    0
 76
    1
 52
1.570796326794897
 41
1
 77
    0
 78
    0
 98
    0
  0
HATCH
  5
154
100
AcDbEntity
  8
HACHURES
  6
ByLayer
 62
  256
370
   -1
100
AcDbHatch
 10
0
 20
0
 30
0
210
0
220
0
230
1
  2
ansi31
 70
    0
 71
    0
 91
    1
 92
    0
 93
    4
 72
    1
 10
-62.25
 20
-277
 11
-56
 21
-277
 72
    1
 10
-56
 20
-277
 11
-56
 21
-271
 72
    1
 10
-56
 20
-271
 11
-62.25
 21
-271
 72
    1
 10
-62.25
 20
-271
 11
-62.25
 21
-277
 97
    0
 75
    0
 76
    1
 52
1.570796326794897
 41
1
 77
    0
 78
    0
 98
    0
  0
HATCH
  5
155
100
AcDbEntity
  8
HACHURES
  6
ByLayer
 62
  256
370
   -1
100
AcDbHatch
 10
0
 20
0
 30
0
210
0
220
0
230
1
  2
ansi31
 70
    0
 71
    0
 91
    1
 92
    0
 93
    4
 72
    1
 10
-61
 20
-271
 11
-58
 21
-271
 72
    1
 10
-58
 20
-271
 11
-58
 21
-241
 72
    1
 10
-58
 20
-241
 11
-61
 21
-241
 72
    1
 10
-61
 20
-241
 11
-61
 21
-271
 97
    0
 75
    0
 76
    1
 52
1.570796326794897
 41
1
 77
    0
 78
    0
 98
    0
  0
HATCH
  5
156
100
AcDbEntity
  8
HACHURES
  6
ByLayer
 62
  256
370
   -1
100
AcDbHatch
 10
0
 20
0
 30
0
210
0
220
0
230
1
  2
ansi31
 70
    0
 71
    0
 91
    1
 92
    0
 93
    4
 72
    1
 10
-62.25
 20
-277
 11
-56
 21
-277
 72
    1
 10
-56
 20
-277
 11
-56
 21
-271
 72
    1
 10
-56
 20
-271
 11
-62.25
 21
-271
 72
    1
 10
-62.25
 20
-271
 11
-62.25
 21
-277
 97
    0
 75
    0
 76
    1
 52
1.570796326794897
 41
3
 77
    0
 78
    0
 98
    0
  0
LWPOLYLINE
  5
157
100
AcDbEntity
  8
0
  6
ByLayer
 62
  256
370
   -1
100
AcDbPolyline
 90
    4
 70
    1
 43
0
 10
-500
 20
-500
 10
0
 20
-500
 10
0
 20
0
 10
-500
 20
0
  0
LWPOLYLINE
  5
158
100
AcDbEntity
  8
0
  6
ByLayer
 62
  256
370
   -1
100
AcDbPolyline
 90
    4
 70
    1
 43
0
 10
0
 20
0
 10
500
 20
0
 10
500
 20
-500
 10
0
 20
-500
  0
CIRCLE
  5
159
100
AcDbEntity
  8
0
  6
ByLayer
 62
  256
370
   -1
100
AcDbCircle
 10
-370
 20
-250
 40
95.5
  0
CIRCLE
  5
15A
100
AcDbEntity
  8
0
  6
ByLayer
 62
  256
370
   -1
100
AcDbCircle
 10
-370
 20
-250
 40
84
  0
CIRCLE
  5
15B
100
AcDbEntity
  8
0
  6
ByLayer
 62
  256
370
   -1
100
AcDbCircle
 10
-370
 20
-340
 40
3
  0
CIRCLE
  5
15C
100
AcDbEntity
  8
0
  6
ByLayer
 62
  256
370
   -1
100
AcDbCircle
 10
-292.0577136594011
 20
-205
 40
3
  0
CIRCLE
  5
15D
100
AcDbEntity
  8
0
  6
ByLayer
 62
  256
370
   -1
100
AcDbCircle
 10
-447.9422863405989
 20
-205
 40
3
  0
DIMENSION
  5
15E
100
AcDbEntity
  8
0
  6
ByLayer
 62
  256
370
   -1
100
AcDbDimension
  2
*D1
 10
-293
 20
-100
 30
0
 11
-370
 21
-92.1875
 31
0
 70
   32
 71
    5
  3
Standard
 53
0
210
0
220
0
230
1
100
AcDbAlignedDimension
 13
-447
 23
-250
 33
0
 14
-293
 24
-250
 34
0
100
AcDbRotatedDimension
  0
DIMENSION
  5
15F
100
AcDbEntity
  8
0
  6
ByLayer
 62
  256
370
   -1
100
AcDbDimension
  2
*D2
 10
-280
 20
-430
 30
0
 11
-370
 21
-422.1875
 31
0
 70
   32
 71
    5
  3
Standard
 53
0
210
0
220
0
230
1
100
AcDbAlignedDimension
 13
-460
 23
-250
 33
0
 14
-280
 24
-250
 34
0
100
AcDbRotatedDimension
  0
DIMENSION
  5
160
100
AcDbEntity
  8
0
  6
ByLayer
 62
  256
370
   -1
100
AcDbDimension
  2
*D3
 10
-290
 20
-390
 30
0
 11
-370
 21
-382.1875
 31
0
 70
   32
 71
    5
  3
Standard
 53
0
210
0
220
0
230
1
100
AcDbAlignedDimension
 13
-454
 23
-250
 33
0
 14
-286
 24
-250
 34
0
100
AcDbRotatedDimension
  0
DIMENSION
  5
161
100
AcDbEntity
  8
0
  6
ByLayer
 62
  256
370
   -1
100
AcDbDimension
  2
*D4
 10
-270
 20
-470
 30
0
 11
-370
 21
-462.1875
 31
0
 70
   32
 71
    5
  3
Standard
 53
0
210
0
220
0
230
1
100
AcDbAlignedDimension
 13
-465.5
 23
-250
 33
0
 14
-274.5
 24
-250
 34
0
100
AcDbRotatedDimension
  0
MTEXT
  5
162
100
AcDbEntity
  8
0
  6
ByLayer
 62
  256
370
   -1
100
AcDbMText
 10
-370
 20
-80
 30
0
 40
10
 41
51.11111111111189
 71
    8
 72
    1
  1
lentille=
  7
standard
210
0
220
0
230
1
 50
0
 73
    2
 44
1
  0
MTEXT
  5
163
100
AcDbEntity
  8
0
  6
ByLayer
 62
  256
370
   -1
100
AcDbMText
 10
-370
 20
-450
 30
0
 40
10
 41
98.88888888889167
 71
    8
 72
    1
  1
encombrement=
  7
standard
210
0
220
0
230
1
 50
0
 73
    2
 44
1
  0
CIRCLE
  5
164
100
AcDbEntity
  8
0
  6
ByLayer
 62
  256
370
   -1
100
AcDbCircle
 10
-370
 20
-250
 40
70.5
  0
DIMENSION
  5
165
100
AcDbEntity
  8
0
  6
ByLayer
 62
  256
370
   -1
100
AcDbDimension
  2
*D5
 10
-299.5
 20
-140
 30
0
 11
-370
 21
-132.1875
 31
0
 70
   32
 71
    5
  3
Standard
 53
0
210
0
220
0
230
1
100
AcDbAlignedDimension
 13
-440.5
 23
-250
 33
0
 14
-299.5
 24
-250
 34
0
100
AcDbRotatedDimension
  0
MTEXT
  5
166
100
AcDbEntity
  8
0
  6
ByLayer
 62
  256
370
   -1
100
AcDbMText
 10
-370
 20
-120
 30
0
 40
10
 41
47.77777777777779
 71
    8
 72
    1
  1
pupille=
  7
standard
210
0
220
0
230
1
 50
0
 73
    2
 44
1
  0
MTEXT
  5
167
100
AcDbEntity
  8
0
  6
ByLayer
 62
  256
370
   -1
100
AcDbMText
 10
-370
 20
-370
 30
0
 40
10
 41
63.05555555555648
 71
    8
 72
    1
  1
 interne
  7
standard
210
0
220
0
230
1
 50
0
 73
    2
 44
1
  0
CIRCLE
  5
168
100
AcDbEntity
  8
0
  6
ByLayer
 62
  256
370
   -1
100
AcDbCircle
 10
-450.4999999999998
 20
-250.0000000000001
 40
1.5
  0
CIRCLE
  5
169
100
AcDbEntity
  8
0
  6
ByLayer
 62
  256
370
   -1
100
AcDbCircle
 10
-329.75
 20
-180.2849549953527
 40
1.5
  0
CIRCLE
  5
16A
100
AcDbEntity
  8
0
  6
ByLayer
 62
  256
370
   -1
100
AcDbCircle
 10
-329.7500000000002
 20
-319.7150450046472
 40
1.5
  0
CIRCLE
  5
16B
100
AcDbEntity
  8
0
  6
ByLayer
 62
  256
370
   -1
100
AcDbCircle
 10
-410.2499999999998
 20
-180.284954995353
 40
1.5
  0
CIRCLE
  5
16C
100
AcDbEntity
  8
0
  6
ByLayer
 62
  256
370
   -1
100
AcDbCircle
 10
-289.5000000000002
 20
-249.9999999999998
 40
1.5
  0
CIRCLE
  5
16D
100
AcDbEntity
  8
0
  6
ByLayer
 62
  256
370
   -1
100
AcDbCircle
 10
-410.25
 20
-319.7150450046473
 40
1.5
  0
MTEXT
  5
16E
100
AcDbEntity
  8
0
  6
ByLayer
 62
  256
370
   -1
100
AcDbMText
 10
-370
 20
-410
 30
0
 40
10
 41
139.1666706984291
 71
    8
 72
    1
  1
vis de fixation (M6)=
  7
standard
210
0
220
0
230
1
 50
0
 73
    2
 44
1
  0
CIRCLE
  5
16F
100
AcDbEntity
  8
0
  6
DASHED
 62
  256
370
   -1
100
AcDbCircle
 10
-370
 20
-250
 40
77
  0
CIRCLE
  5
170
100
AcDbEntity
  8
0
  6
DASHED
 62
  256
370
   -1
100
AcDbCircle
 10
-370
 20
-250
 40
80.49999999999972
  0
CIRCLE
  5
171
100
AcDbEntity
  8
0
  6
DASHED
 62
  256
370
   -1
100
AcDbCircle
 10
-370
 20
-250
 40
90
  0
DIMENSION
  5
172
100
AcDbEntity
  8
0
  6
ByLayer
 62
  256
370
   -1
100
AcDbDimension
  2
*D6
 10
-289.5000000000002
 20
-60
 30
0
 11
-370
 21
-52.1875
 31
0
 70
   32
 71
    5
  3
Standard
 53
0
210
0
220
0
230
1
100
AcDbAlignedDimension
 13
-450.4999999999998
 23
-250.0000000000001
 33
0
 14
-289.5000000000002
 24
-249.9999999999998
 34
0
100
AcDbRotatedDimension
  0
MTEXT
  5
173
100
AcDbEntity
  8
0
  6
ByLayer
 62
  256
370
   -1
100
AcDbMText
 10
-370
 20
-40
 30
0
 40
10
 41
140.2777869524122
 71
    8
 72
    1
  1
vis de serrage (M3)=
  7
standard
210
0
220
0
230
1
 50
0
 73
    2
 44
1
  0
CIRCLE
  5
174
100
AcDbEntity
  8
0
  6
ByLayer
 62
  256
370
   -1
100
AcDbCircle
 10
130
 20
-250
 40
95.5
  0
CIRCLE
  5
175
100
AcDbEntity
  8
0
  6
ByLayer
 62
  256
370
   -1
100
AcDbCircle
 10
130
 20
-250
 40
84
  0
CIRCLE
  5
176
100
AcDbEntity
  8
0
  6
ByLayer
 62
  256
370
   -1
100
AcDbCircle
 10
130
 20
-340
 40
3
  0
CIRCLE
  5
177
100
AcDbEntity
  8
0
  6
ByLayer
 62
  256
370
   -1
100
AcDbCircle
 10
207.9422863405998
 20
-205
 40
3
  0
CIRCLE
  5
178
100
AcDbEntity
  8
0
  6
ByLayer
 62
  256
370
   -1
100
AcDbCircle
 10
52.05771365940109
 20
-205
 40
3
  0
DIMENSION
  5
179
100
AcDbEntity
  8
0
  6
ByLayer
 62
  256
370
   -1
100
AcDbDimension
  2
*D7
 10
220
 20
-430
 30
0
 11
130
 21
-422.1875
 31
0
 70
   32
 71
    5
  3
Standard
 53
0
210
0
220
0
230
1
100
AcDbAlignedDimension
 13
40
 23
-250
 33
0
 14
220
 24
-250
 34
0
100
AcDbRotatedDimension
  0
DIMENSION
  5
17A
100
AcDbEntity
  8
0
  6
ByLayer
 62
  256
370
   -1
100
AcDbDimension
  2
*D8
 10
210
 20
-390
 30
0
 11
130
 21
-382.1875
 31
0
 70
   32
 71
    5
  3
Standard
 53
0
210
0
220
0
230
1
100
AcDbAlignedDimension
 13
46
 23
-250
 33
0
 14
214
 24
-250
 34
0
100
AcDbRotatedDimension
  0
DIMENSION
  5
17B
100
AcDbEntity
  8
0
  6
ByLayer
 62
  256
370
   -1
100
AcDbDimension
  2
*D9
 10
230
 20
-470
 30
0
 11
130
 21
-462.1875
 31
0
 70
   32
 71
    5
  3
Standard
 53
0
210
0
220
0
230
1
100
AcDbAlignedDimension
 13
34.5
 23
-250
 33
0
 14
225.5
 24
-250
 34
0
100
AcDbRotatedDimension
  0
MTEXT
  5
17C
100
AcDbEntity
  8
0
  6
ByLayer
 62
  256
370
   -1
100
AcDbMText
 10
130
 20
-450
 30
0
 40
10
 41
98.88888888889167
 71
    8
 72
    1
  1
encombrement=
  7
standard
210
0
220
0
230
1
 50
0
 73
    2
 44
1
  0
MTEXT
  5
17D
100
AcDbEntity
  8
0
  6
ByLayer
 62
  256
370
   -1
100
AcDbMText
 10
130
 20
-410
 30
0
 40
10
 41
122.7777829206507
 71
    8
 72
    1
  1
trous de fixation=
  7
standard
210
0
220
0
230
1
 50
0
 73
    2
 44
1
  0
DIMENSION
  5
17E
100
AcDbEntity
  8
0
  6
ByLayer
 62
  256
370
   -1
100
AcDbDimension
  2
*D10
 10
170
 20
-100
 30
0
 11
130
 21
-92.1875
 31
0
 70
   32
 71
    5
  3
Standard
 53
0
210
0
220
0
230
1
100
AcDbAlignedDimension
 13
90
 23
-250
 33
0
 14
170
 24
-250
 34
0
100
AcDbRotatedDimension
  0
MTEXT
  5
17F
100
AcDbEntity
  8
0
  6
ByLayer
 62
  256
370
   -1
100
AcDbMText
 10
130
 20
-80
 30
0
 40
10
 41
51.11111111111189
 71
    8
 72
    1
  1
lentille=
  7
standard
210
0
220
0
230
1
 50
0
 73
    2
 44
1
  0
MTEXT
  5
180
100
AcDbEntity
  8
0
  6
ByLayer
 62
  256
370
   -1
100
AcDbMText
 10
130
 20
-120
 30
0
 40
10
 41
47.77777777777779
 71
    8
 72
    1
  1
pupille=
  7
standard
210
0
220
0
230
1
 50
0
 73
    2
 44
1
  0
MTEXT
  5
181
100
AcDbEntity
  8
0
  6
ByLayer
 62
  256
370
   -1
100
AcDbMText
 10
130
 20
-370
 30
0
 40
10
 41
63.05555555555648
 71
    8
 72
    1
  1
 interne
  7
standard
210
0
220
0
230
1
 50
0
 73
    2
 44
1
  0
CIRCLE
  5
182
100
AcDbEntity
  8
0
  6
ByLayer
 62
  256
370
   -1
100
AcDbCircle
 10
105
 20
-206.698729810778
 40
1.5
  0
CIRCLE
  5
183
100
AcDbEntity
  8
0
  6
ByLayer
 62
  256
370
   -1
100
AcDbCircle
 10
155.0000000000002
 20
-206.698729810778
 40
1.5
  0
CIRCLE
  5
184
100
AcDbEntity
  8
0
  6
ByLayer
 62
  256
370
   -1
100
AcDbCircle
 10
180.0000000000002
 20
-249.9999999999999
 40
1.5
  0
CIRCLE
  5
185
100
AcDbEntity
  8
0
  6
ByLayer
 62
  256
370
   -1
100
AcDbCircle
 10
155
 20
-293.301270189222
 40
1.5
  0
CIRCLE
  5
186
100
AcDbEntity
  8
0
  6
ByLayer
 62
  256
370
   -1
100
AcDbCircle
 10
104.9999999999998
 20
-293.301270189222
 40
1.5
  0
CIRCLE
  5
187
100
AcDbEntity
  8
0
  6
ByLayer
 62
  256
370
   -1
100
AcDbCircle
 10
79.99999999999977
 20
-250.0000000000001
 40
1.5
  0
CIRCLE
  5
188
100
AcDbEntity
  8
0
  6
DASHED
 62
  256
370
   -1
100
AcDbCircle
 10
130
 20
-250
 40
90
  0
CIRCLE
  5
189
100
AcDbEntity
  8
0
  6
DASHED
 62
  256
370
   -1
100
AcDbCircle
 10
130
 20
-250
 40
40
  0
CIRCLE
  5
18A
100
AcDbEntity
  8
0
  6
DASHED
 62
  256
370
   -1
100
AcDbCircle
 10
130
 20
-250
 40
50
  0
DIMENSION
  5
18B
100
AcDbEntity
  8
0
  6
ByLayer
 62
  256
370
   -1
100
AcDbDimension
  2
*D11
 10
180
 20
-60
 30
0
 11
130
 21
-52.1875
 31
0
 70
   32
 71
    5
  3
Standard
 53
0
210
0
220
0
230
1
100
AcDbAlignedDimension
 13
79.99999999999977
 23
-250.0000000000001
 33
0
 14
180
 24
-250
 34
0
100
AcDbRotatedDimension
  0
MTEXT
  5
18C
100
AcDbEntity
  8
0
  6
ByLayer
 62
  256
370
   -1
100
AcDbMText
 10
130
 20
-40
 30
0
 40
10
 41
140.2777869524122
 71
    8
 72
    1
  1
vis de serrage (M3)=
  7
standard
210
0
220
0
230
1
 50
0
 73
    2
 44
1
  0
LWPOLYLINE
  5
18D
100
AcDbEntity
  8
0
  6
ByLayer
 62
  256
370
   -1
100
AcDbPolyline
 90
    4
 70
    1
 43
0
 10
320
 20
-265
 10
264.5
 20
-265
 10
264.5
 20
-259
 10
320
 20
-259
  0
LWPOLYLINE
  5
18E
100
AcDbEntity
  8
0
  6
ByLayer
 62
  256
370
   -1
100
AcDbPolyline
 90
    4
 70
    1
 43
0
 10
400
 20
-265
 10
320
 20
-265
 10
320
 20
-258
 10
400
 20
-258
  0
LWPOLYLINE
  5
18F
100
AcDbEntity
  8
0
  6
ByLayer
 62
  256
370
   -1
100
AcDbPolyline
 90
    4
 70
    1
 43
0
 10
300
 20
-258
 10
264.5
 20
-258
 10
264.5
 20
-259
 10
300
 20
-259
  0
LWPOLYLINE
  5
190
100
AcDbEntity
  8
0
  6
ByLayer
 62
  256
370
   -1
100
AcDbPolyline
 90
    4
 70
    1
 43
0
 10
400
 20
-265
 10
455.5
 20
-265
 10
455.5
 20
-259
 10
400
 20
-259
  0
LWPOLYLINE
  5
191
100
AcDbEntity
  8
0
  6
ByLayer
 62
  256
370
   -1
100
AcDbPolyline
 90
    4
 70
    1
 43
0
 10
420
 20
-258
 10
455.5
 20
-258
 10
455.5
 20
-259
 10
420
 20
-259
  0
LWPOLYLINE
  5
192
100
AcDbEntity
  8
HACHURES
  6
ByLayer
 62
  256
370
   -1
100
AcDbPolyline
 90
    4
 70
    1
 43
0
 10
446.9999999999991
 20
-252
 10
453
 20
-252
 10
453
 20
-271
 10
446.9999999999991
 20
-271
  0
LWPOLYLINE
  5
193
100
AcDbEntity
  8
HACHURES
  6
ByLayer
 62
  256
370
   -1
100
AcDbPolyline
 90
    4
 70
    1
 43
0
 10
408.5
 20
-258
 10
411.5
 20
-258
 10
411.5
 20
-252
 10
408.5
 20
-252
  0
LWPOLYLINE
  5
194
100
AcDbEntity
  8
HACHURES
  6
ByLayer
 62
  256
370
   -1
100
AcDbPolyline
 90
    4
 70
    1
 43
0
 10
408.5
 20
-265
 10
411.5
 20
-265
 10
411.5
 20
-259
 10
408.5
 20
-259
  0
LWPOLYLINE
  5
195
100
AcDbEntity
  8
HACHURES
  6
ByLayer
 62
  256
370
   -1
100
AcDbPolyline
 90
    4
 70
    1
 43
0
 10
408.5
 20
-271
 10
411.5
 20
-271
 10
411.5
 20
-265
 10
408.5
 20
-265
  0
LWPOLYLINE
  5
196
100
AcDbEntity
  8
0
  6
ByLayer
 62
  256
370
   -1
100
AcDbPolyline
 90
    4
 70
    1
 43
0
 10
-217
 20
-236
 10
-63
 20
-236
 10
-63
 20
-265
 10
-217
 20
-265
  0
LWPOLYLINE
  5
197
100
AcDbEntity
  8
0
  6
ByLayer
 62
  256
370
   -1
100
AcDbPolyline
 90
    4
 70
    1
 43
0
 10
-44.5
 20
-241
 10
-63
 20
-241
 10
-63
 20
-247
 10
-44.5
 20
-247
  0
LWPOLYLINE
  5
198
100
AcDbEntity
  8
0
  6
ByLayer
 62
  256
370
   -1
100
AcDbPolyline
 90
    4
 70
    1
 43
0
 10
-63
 20
-247
 10
-44.5
 20
-247
 10
-44.5
 20
-253
 10
-63
 20
-253
  0
LWPOLYLINE
  5
199
100
AcDbEntity
  8
0
  6
ByLayer
 62
  256
370
   -1
100
AcDbPolyline
 90
    4
 70
    1
 43
0
 10
-44.5
 20
-253
 10
-63
 20
-253
 10
-63
 20
-259
 10
-44.5
 20
-259
  0
LWPOLYLINE
  5
19A
100
AcDbEntity
  8
0
  6
ByLayer
 62
  256
370
   -1
100
AcDbPolyline
 90
    4
 70
    1
 43
0
 10
-44.5
 20
-259
 10
-63
 20
-259
 10
-63
 20
-265
 10
-44.5
 20
-265
  0
LWPOLYLINE
  5
19B
100
AcDbEntity
  8
0
  6
ByLayer
 62
  256
370
   -1
100
AcDbPolyline
 90
    4
 70
    1
 43
0
 10
-44.5
 20
-265
 10
-69.28932188134513
 20
-265
 10
-69.28932188134513
 20
-271
 10
-44.5
 20
-271
  0
LWPOLYLINE
  5
19C
100
AcDbEntity
  8
0
  6
ByLayer
 62
  256
370
   -1
100
AcDbPolyline
 90
    4
 70
    1
 43
0
 10
-56
 20
-271
 10
-69.28932188134513
 20
-271
 10
-69.28932188134513
 20
-277
 10
-56
 20
-277
  0
LWPOLYLINE
  5
19D
100
AcDbEntity
  8
0
  6
ByLayer
 62
  256
370
   -1
100
AcDbPolyline
 90
    4
 70
    1
 43
0
 10
-44.5
 20
-230
 10
-69.28932188134513
 20
-230
 10
-69.28932188134513
 20
-236
 10
-44.5
 20
-236
  0
LWPOLYLINE
  5
19E
100
AcDbEntity
  8
0
  6
ByLayer
 62
  256
370
   -1
100
AcDbPolyline
 90
    4
 70
    1
 43
0
 10
-56
 20
-236
 10
-44.5
 20
-236
 10
-44.5
 20
-241
 10
-56
 20
-241
  0
LWPOLYLINE
  5
19F
100
AcDbEntity
  8
0
  6
ByLayer
 62
  256
370
   -1
100
AcDbPolyline
 90
    4
 70
    1
 43
0
 10
-235.5
 20
-241
 10
-217
 20
-241
 10
-217
 20
-247
 10
-235.5
 20
-247
  0
LWPOLYLINE
  5
1A0
100
AcDbEntity
  8
0
  6
ByLayer
 62
  256
370
   -1
100
AcDbPolyline
 90
    4
 70
    1
 43
0
 10
-217
 20
-247
 10
-235.5
 20
-247
 10
-235.5
 20
-253
 10
-217
 20
-253
  0
LWPOLYLINE
  5
1A1
100
AcDbEntity
  8
0
  6
ByLayer
 62
  256
370
   -1
100
AcDbPolyline
 90
    4
 70
    1
 43
0
 10
-235.5
 20
-253
 10
-217
 20
-253
 10
-217
 20
-259
 10
-235.5
 20
-259
  0
LWPOLYLINE
  5
1A2
100
AcDbEntity
  8
0
  6
ByLayer
 62
  256
370
   -1
100
AcDbPolyline
 90
    4
 70
    1
 43
0
 10
-235.5
 20
-259
 10
-217
 20
-259
 10
-217
 20
-265
 10
-235.5
 20
-265
  0
LWPOLYLINE
  5
1A3
100
AcDbEntity
  8
0
  6
ByLayer
 62
  256
370
   -1
100
AcDbPolyline
 90
    4
 70
    1
 43
0
 10
-235.5
 20
-265
 10
-210.7106781186549
 20
-265
 10
-210.7106781186549
 20
-271
 10
-235.5
 20
-271
  0
LWPOLYLINE
  5
1A4
100
AcDbEntity
  8
0
  6
ByLayer
 62
  256
370
   -1
100
AcDbPolyline
 90
    4
 70
    1
 43
0
 10
-224
 20
-271
 10
-210.7106781186549
 20
-271
 10
-210.7106781186549
 20
-277
 10
-224
 20
-277
  0
LWPOLYLINE
  5
1A5
100
AcDbEntity
  8
0
  6
ByLayer
 62
  256
370
   -1
100
AcDbPolyline
 90
    4
 70
    1
 43
0
 10
-235.5
 20
-230
 10
-210.7106781186549
 20
-230
 10
-210.7106781186549
 20
-236
 10
-235.5
 20
-236
  0
LWPOLYLINE
  5
1A6
100
AcDbEntity
  8
0
  6
ByLayer
 62
  256
370
   -1
100
AcDbPolyline
 90
    4
 70
    1
 43
0
 10
-224
 20
-236
 10
-235.5
 20
-236
 10
-235.5
 20
-241
 10
-224
 20
-241
  0
LWPOLYLINE
  5
1A7
100
AcDbEntity
  8
0
  6
ByLayer
 62
  256
370
   -1
100
AcDbPolyline
 90
    4
 70
    1
 43
0
 10
-224
 20
-236
 10
-235.5
 20
-236
 10
-235.5
 20
-241
 10
-224
 20
-241
  0
LWPOLYLINE
  5
1A8
100
AcDbEntity
  8
HACHURES
  6
ByLayer
 62
  256
370
   -1
100
AcDbPolyline
 90
    4
 70
    1
 43
0
 10
-62.25
 20
-277
 10
-56
 20
-277
 10
-56
 20
-271
 10
-62.25
 20
-271
  0
LWPOLYLINE
  5
1A9
100
AcDbEntity
  8
HACHURES
  6
ByLayer
 62
  256
370
   -1
100
AcDbPolyline
 90
    4
 70
    1
 43
0
 10
-61
 20
-271
 10
-58
 20
-271
 10
-58
 20
-241
 10
-61
 20
-241
  0
LWPOLYLINE
  5
1AA
100
AcDbEntity
  8
HACHURES
  6
ByLayer
 62
  256
370
   -1
100
AcDbPolyline
 90
    4
 70
    1
 43
0
 10
-61
 20
-236
 10
-58
 20
-236
 10
-58
 20
-230
 10
-61
 20
-230
  0
LWPOLYLINE
  5
1AB
100
AcDbEntity
  8
HACHURES
  6
ByLayer
 62
  256
370
   -1
100
AcDbPolyline
 90
    4
 70
    1
 43
0
 10
-53
 20
-230
 10
-47
 20
-230
 10
-47
 20
-271
 10
-53
 20
-271
  0
MTEXT
  5
1AC
100
AcDbEntity
  8
0
  6
ByLayer
 62
  256
370
   -1
100
AcDbMText
 10
-30
 20
-280
 30
0
 40
10
 41
5.555555555555555
 71
    5
 72
    1
  1
B
  7
standard
210
0
220
0
230
1
 50
0
 73
    2
 44
1
  0
MTEXT
  5
1AD
100
AcDbEntity
  8
0
  6
ByLayer
 62
  256
370
   -1
100
AcDbMText
 10
-20
 20
-250
 30
0
 40
10
 41
4.444444444445065
 71
    5
 72
    1
  1
C
  7
standard
210
0
220
0
230
1
 50
0
 73
    2
 44
1
  0
MTEXT
  5
1AE
100
AcDbEntity
  8
0
  6
ByLayer
 62
  256
370
   -1
100
AcDbMText
 10
-30
 20
-220
 30
0
 40
10
 41
5.555555555556176
 71
    5
 72
    1
  1
D
  7
standard
210
0
220
0
230
1
 50
0
 73
    2
 44
1
  0
MTEXT
  5
1AF
100
AcDbEntity
  8
0
  6
ByLayer
 62
  256
370
   -1
100
AcDbMText
 10
-60
 20
-200
 30
0
 40
10
 41
5.555555555555555
 71
    5
 72
    1
  1
B
  7
standard
210
0
220
0
230
1
 50
0
 73
    2
 44
1
  0
MTEXT
  5
1B0
100
AcDbEntity
  8
0
  6
ByLayer
 62
  256
370
   -1
100
AcDbMText
 10
440
 20
-300
 30
0
 40
10
 41
6.666666666666667
 71
    5
 72
    1
  1
A
  7
standard
210
0
220
0
230
1
 50
0
 73
    2
 44
1
  0
MTEXT
  5
1B1
100
AcDbEntity
  8
0
  6
ByLayer
 62
  256
370
   -1
100
AcDbMText
 10
470
 20
-290
 30
0
 40
10
 41
5.555555555555555
 71
    5
 72
    1
  1
B
  7
standard
210
0
220
0
230
1
 50
0
 73
    2
 44
1
  0
MTEXT
  5
1B2
100
AcDbEntity
  8
0
  6
ByLayer
 62
  256
370
   -1
100
AcDbMText
 10
480
 20
-270
 30
0
 40
10
 41
4.444444444445065
 71
    5
 72
    1
  1
C
  7
standard
210
0
220
0
230
1
 50
0
 73
    2
 44
1
  0
MTEXT
  5
1B3
100
AcDbEntity
  8
0
  6
ByLayer
 62
  256
370
   -1
100
AcDbMText
 10
470
 20
-250
 30
0
 40
10
 41
5.555555555556176
 71
    5
 72
    1
  1
D
  7
standard
210
0
220
0
230
1
 50
0
 73
    2
 44
1
  0
MTEXT
  5
1B4
100
AcDbEntity
  8
0
  6
ByLayer
 62
  256
370
   -1
100
AcDbMText
 10
440
 20
-230
 30
0
 40
10
 41
5.555555555555555
 71
    5
 72
    1
  1
B
  7
standard
210
0
220
0
230
1
 50
0
 73
    2
 44
1
  0
MTEXT
  5
1B5
100
AcDbEntity
  8
0
  6
ByLayer
 62
  256
370
   -1
100
AcDbMText
 10
-60
 20
-300
 30
0
 40
10
 41
6.666666666666667
 71
    5
 72
    1
  1
A
  7
standard
210
0
220
0
230
1
 50
0
 73
    2
 44
1
  0
LEADER
  5
1B6
100
AcDbEntity
  8
0
  6
ByLayer
 62
  256
370
   -1
100
AcDbLeader
  3
Standard
 71
    1
 72
    0
 73
    3
 74
    0
 75
    0
 40
1
 41
10
 76
2
 76
2
 10
-66
 20
-277
 30
0
 10
-60
 20
-293
 30
0
  0
LEADER
  5
1B7
100
AcDbEntity
  8
0
  6
ByLayer
 62
  256
370
   -1
100
AcDbLeader
  3
Standard
 71
    1
 72
    0
 73
    3
 74
    0
 75
    0
 40
1
 41
10
 76
2
 76
2
 10
-44.5
 20
-267.5459234917793
 30
0
 10
-34
 20
-280
 30
0
  0
LEADER
  5
1B8
100
AcDbEntity
  8
0
  6
ByLayer
 62
  256
370
   -1
100
AcDbLeader
  3
Standard
 71
    1
 72
    0
 73
    3
 74
    0
 75
    0
 40
1
 41
10
 76
2
 76
2
 10
-44.5
 20
-262.0478707089428
 30
0
 10
-24
 20
-250
 30
0
  0
LEADER
  5
1B9
100
AcDbEntity
  8
0
  6
ByLayer
 62
  256
370
   -1
100
AcDbLeader
  3
Standard
 71
    1
 72
    0
 73
    3
 74
    0
 75
    0
 40
1
 41
10
 76
2
 76
2
 10
-44.5
 20
-255.8701957852151
 30
0
 10
-24
 20
-250
 30
0
  0
LEADER
  5
1BA
100
AcDbEntity
  8
0
  6
ByLayer
 62
  256
370
   -1
100
AcDbLeader
  3
Standard
 71
    1
 72
    0
 73
    3
 74
    0
 75
    0
 40
1
 41
10
 76
2
 76
2
 10
-44.5
 20
-249.9902401349199
 30
0
 10
-24
 20
-250
 30
0
  0
LEADER
  5
1BB
100
AcDbEntity
  8
0
  6
ByLayer
 62
  256
370
   -1
100
AcDbLeader
  3
Standard
 71
    1
 72
    0
 73
    3
 74
    0
 75
    0
 40
1
 41
10
 76
2
 76
2
 10
-44.5
 20
-244.2591441213411
 30
0
 10
-24
 20
-250
 30
0
  0
LEADER
  5
1BC
100
AcDbEntity
  8
0
  6
ByLayer
 62
  256
370
   -1
100
AcDbLeader
  3
Standard
 71
    1
 72
    0
 73
    3
 74
    0
 75
    0
 40
1
 41
10
 76
2
 76
2
 10
-44.5
 20
-238.0814691976133
 30
0
 10
-34
 20
-220
 30
0
  0
LEADER
  5
1BD
100
AcDbEntity
  8
0
  6
ByLayer
 62
  256
370
   -1
100
AcDbLeader
  3
Standard
 71
    1
 72
    0
 73
    3
 74
    0
 75
    0
 40
1
 41
10
 76
2
 76
2
 10
-54.94507657620443
 20
-230
 30
0
 10
-60
 20
-207
 30
0
  0
LEADER
  5
1BE
100
AcDbEntity
  8
0
  6
ByLayer
 62
  256
370
   -1
100
AcDbLeader
  3
Standard
 71
    1
 72
    0
 73
    3
 74
    0
 75
    0
 40
1
 41
10
 76
2
 76
2
 10
433.5647268213297
 20
-277
 30
0
 10
440
 20
-293
 30
0
  0
LEADER
  5
1BF
100
AcDbEntity
  8
0
  6
ByLayer
 62
  256
370
   -1
100
AcDbLeader
  3
Standard
 71
    1
 72
    0
 73
    3
 74
    0
 75
    0
 40
1
 41
10
 76
2
 76
2
 10
454.224597578145
 20
-271
 30
0
 10
466
 20
-290
 30
0
  0
LEADER
  5
1C0
100
AcDbEntity
  8
0
  6
ByLayer
 62
  256
370
   -1
100
AcDbLeader
  3
Standard
 71
    1
 72
    0
 73
    3
 74
    0
 75
    0
 40
1
 41
10
 76
2
 76
2
 10
455.5
 20
-262.5053817032288
 30
0
 10
476
 20
-270
 30
0
  0
LEADER
  5
1C1
100
AcDbEntity
  8
0
  6
ByLayer
 62
  256
370
   -1
100
AcDbLeader
  3
Standard
 71
    1
 72
    0
 73
    3
 74
    0
 75
    0
 40
1
 41
10
 76
2
 76
2
 10
455.5
 20
-258.4467636397228
 30
0
 10
466
 20
-250
 30
0
  0
LEADER
  5
1C2
100
AcDbEntity
  8
0
  6
ByLayer
 62
  256
370
   -1
100
AcDbLeader
  3
Standard
 71
    1
 72
    0
 73
    3
 74
    0
 75
    0
 40
1
 41
10
 76
2
 76
2
 10
441
 20
-251
 30
0
 10
440
 20
-237
 30
0
  0
MTEXT
  5
1C3
100
AcDbEntity
  8
gravure
  6
ByLayer
 62
  256
370
   -1
100
AcDbMText
 10
-311.5
 20
416.6839560914018
 30
0
 40
5
 41
26.11111111111142
 71
    5
 72
    1
  1
154V1/A
  7
standard
210
0
220
0
230
1
 50
329.9999999999999
 73
    2
 44
1
  0
MTEXT
  5
1C4
100
AcDbEntity
  8
gravure
  6
ByLayer
 62
  256
370
   -1
100
AcDbMText
 10
-111.5
 20
416.6839560914018
 30
0
 40
5
 41
25.55555555555587
 71
    5
 72
    1
  1
154V1/B
  7
standard
210
0
220
0
230
1
 50
329.9999999999999
 73
    2
 44
1
  0
MTEXT
  5
1C5
100
AcDbEntity
  8
gravure
  6
ByLayer
 62
  256
370
   -1
100
AcDbMText
 10
-105.1249980457869
 20
227.725781117919
 30
0
 40
5
 41
25.55555555555618
 71
    5
 72
    1
  1
154V1/D
  7
standard
210
0
220
0
230
1
 50
329.9999999999999
 73
    2
 44
1
  0
MTEXT
  5
1C6
100
AcDbEntity
  8
gravure
  6
ByLayer
 62
  256
370
   -1
100
AcDbMText
 10
-306.875
 20
224.6946910764079
 30
0
 40
5
 41
25.00000000000031
 71
    5
 72
    1
  1
154V1/C
  7
standard
210
0
220
0
230
1
 50
329.9999999999999
 73
    2
 44
1
  0
LWPOLYLINE
  5
1C7
100
AcDbEntity
  8
0
  6
ByLayer
 62
  256
370
   -1
100
AcDbPolyline
 90
    4
 70
    1
 43
0
 10
-500
 20
500
 10
0
 20
500
 10
0
 20
0
 10
-500
 20
0
  0
LWPOLYLINE
  5
1C8
100
AcDbEntity
  8
0
  6
ByLayer
 62
  256
370
   -1
100
AcDbPolyline
 90
    4
 70
    1
 43
0
 10
0
 20
0
 10
500
 20
0
 10
500
 20
500
 10
0
 20
500
  0
MTEXT
  5
1C9
100
AcDbEntity
  8
0
  6
ByLayer
 62
  256
370
   -1
100
AcDbMText
 10
-100
 20
-480
 30
0
 40
20
 41
135.0000000000013
 71
    5
 72
    1
  1
FUT 154V1
  7
standard
210
0
220
0
230
1
 50
0
 73
    2
 44
1
  0
MTEXT
  5
1CA
100
AcDbEntity
  8
0
  6
ByLayer
 62
  256
370
   -1
100
AcDbMText
 10
400
 20
-480
 30
0
 40
20
 41
121.6666666666667
 71
    5
 72
    1
  1
FUT 80V1
  7
standard
210
0
220
0
230
1
 50
0
 73
    2
 44
1
  0
LWPOLYLINE
  5
1CB
100
AcDbEntity
  8
0
  6
ByLayer
 62
  256
370
   -1
100
AcDbPolyline
 90
    4
 70
    1
 43
0
 10
-200
 20
-500
 10
0
 20
-500
 10
0
 20
-460
 10
-200
 20
-460
  0
LWPOLYLINE
  5
1CC
100
AcDbEntity
  8
0
  6
ByLayer
 62
  256
370
   -1
100
AcDbPolyline
 90
    4
 70
    1
 43
0
 10
300
 20
-500
 10
500
 20
-500
 10
500
 20
-460
 10
300
 20
-460
  0
LINE
  5
1CD
100
AcDbEntity
  8
HACHURES
  6
ByLayer
 62
  256
370
   -1
100
AcDbLine
 10
408.5
 20
-252
 11
408.5
 21
-258
  0
LINE
  5
1CE
100
AcDbEntity
  8
HACHURES
  6
ByLayer
 62
  256
370
   -1
100
AcDbLine
 10
411.5
 20
-252
 11
411.5
 21
-258
  0
LINE
  5
1CF
100
AcDbEntity
  8
HACHURES
  6
ByLayer
 62
  256
370
   -1
100
AcDbLine
 10
408.5
 20
-259
 11
408.5
 21
-265
  0
LINE
  5
1D0
100
AcDbEntity
  8
HACHURES
  6
ByLayer
 62
  256
370
   -1
100
AcDbLine
 10
411.5
 20
-259
 11
411.5
 21
-265
  0
LINE
  5
1D1
100
AcDbEntity
  8
HACHURES
  6
ByLayer
 62
  256
370
   -1
100
AcDbLine
 10
408.5
 20
-265
 11
408.5
 21
-271
  0
LINE
  5
1D2
100
AcDbEntity
  8
HACHURES
  6
ByLayer
 62
  256
370
   -1
100
AcDbLine
 10
411.5
 20
-265
 11
411.5
 21
-271
  0
LINE
  5
1D3
100
AcDbEntity
  8
HACHURES
  6
ByLayer
 62
  256
370
   -1
100
AcDbLine
 10
-61
 20
-241
 11
-61
 21
-247
  0
LINE
  5
1D4
100
AcDbEntity
  8
HACHURES
  6
ByLayer
 62
  256
370
   -1
100
AcDbLine
 10
-58
 20
-241
 11
-58
 21
-247
  0
LINE
  5
1D5
100
AcDbEntity
  8
HACHURES
  6
ByLayer
 62
  256
370
   -1
100
AcDbLine
 10
-61
 20
-230
 11
-61
 21
-236
  0
LINE
  5
1D6
100
AcDbEntity
  8
HACHURES
  6
ByLayer
 62
  256
370
   -1
100
AcDbLine
 10
-58
 20
-230
 11
-58
 21
-236
  0
LINE
  5
1D7
100
AcDbEntity
  8
HACHURES
  6
ByLayer
 62
  256
370
   -1
100
AcDbLine
 10
-61
 20
-247
 11
-61
 21
-253
  0
LINE
  5
1D8
100
AcDbEntity
  8
HACHURES
  6
ByLayer
 62
  256
370
   -1
100
AcDbLine
 10
-58
 20
-247
 11
-58
 21
-253
  0
LINE
  5
1D9
100
AcDbEntity
  8
HACHURES
  6
ByLayer
 62
  256
370
   -1
100
AcDbLine
 10
-61
 20
-253
 11
-61
 21
-259
  0
LINE
  5
1DA
100
AcDbEntity
  8
HACHURES
  6
ByLayer
 62
  256
370
   -1
100
AcDbLine
 10
-58
 20
-253
 11
-58
 21
-259
  0
LINE
  5
1DB
100
AcDbEntity
  8
HACHURES
  6
ByLayer
 62
  256
370
   -1
100
AcDbLine
 10
-61
 20
-259
 11
-61
 21
-265
  0
LINE
  5
1DC
100
AcDbEntity
  8
HACHURES
  6
ByLayer
 62
  256
370
   -1
100
AcDbLine
 10
-58
 20
-259
 11
-58
 21
-265
  0
LINE
  5
1DD
100
AcDbEntity
  8
HACHURES
  6
ByLayer
 62
  256
370
   -1
100
AcDbLine
 10
-61
 20
-265
 11
-61
 21
-271
  0
LINE
  5
1DE
100
AcDbEntity
  8
HACHURES
  6
ByLayer
 62
  256
370
   -1
100
AcDbLine
 10
-58
 20
-265
 11
-58
 21
-271
  0
LINE
  5
1DF
100
AcDbEntity
  8
HACHURES
  6
ByLayer
 62
  256
370
   -1
100
AcDbLine
 10
-62.25
 20
-271
 11
-62.25
 21
-277
  0
LINE
  5
1E0
100
AcDbEntity
  8
HACHURES
  6
ByLayer
 62
  256
370
   -1
100
AcDbLine
 10
-53
 20
-230
 11
-53
 21
-271
  0
LINE
  5
1E1
100
AcDbEntity
  8
HACHURES
  6
ByLayer
 62
  256
370
   -1
100
AcDbLine
 10
407.25
 20
-271
 11
407.25
 21
-277
  0
LINE
  5
1E2
100
AcDbEntity
  8
HACHURES
  6
ByLayer
 62
  256
370
   -1
100
AcDbLine
 10
412.75
 20
-271
 11
412.75
 21
-277
  0
LWPOLYLINE
  5
1E3
100
AcDbEntity
  8
HACHURES
  6
ByLayer
 62
  256
370
   -1
100
AcDbPolyline
 90
    4
 70
    1
 43
0
 10
407.25
 20
-271
 10
412.75
 20
-271
 10
412.75
 20
-277
 10
407.25
 20
-277
  0
CIRCLE
  5
1E4
100
AcDbEntity
  8
decoupe
  6
ByLayer
 62
  256
370
   -1
100
AcDbCircle
 10
-350
 20
350
 40
70.5
  0
CIRCLE
  5
1E5
100
AcDbEntity
  8
decoupe
  6
ByLayer
 62
  256
370
   -1
100
AcDbCircle
 10
-150
 20
350
 40
70.5
  0
CIRCLE
  5
1E6
100
AcDbEntity
  8
decoupe
  6
ByLayer
 62
  256
370
   -1
100
AcDbCircle
 10
-150
 20
350
 40
95.5
  0
CIRCLE
  5
1E7
100
AcDbEntity
  8
decoupe
  6
ByLayer
 62
  256
370
   -1
100
AcDbCircle
 10
-150
 20
150
 40
84
  0
CIRCLE
  5
1E8
100
AcDbEntity
  8
decoupe
  6
ByLayer
 62
  256
370
   -1
100
AcDbCircle
 10
-150
 20
150
 40
95.5
  0
LINE
  5
1E9
100
AcDbEntity
  8
decoupe
  6
ByLayer
 62
  256
370
   -1
100
AcDbLine
 10
-416.965045004647
 20
308.162286759728
 11
-416.965045004647
 21
311.3377132402709
  0
LINE
  5
1EA
100
AcDbEntity
  8
decoupe
  6
ByLayer
 62
  256
370
   -1
100
AcDbLine
 10
-416.965045004647
 20
311.3377132402709
 11
-419.715045004647
 21
312.9254264805429
  0
LINE
  5
1EB
100
AcDbEntity
  8
decoupe
  6
ByLayer
 62
  256
370
   -1
100
AcDbLine
 10
-419.715045004647
 20
312.9254264805429
 11
-424.082139436236
 21
310.4040833348899
  0
LINE
  5
1EC
100
AcDbEntity
  8
decoupe
  6
ByLayer
 62
  256
370
   -1
100
AcDbLine
 10
-416.965045004647
 20
308.162286759728
 11
-421.332139436236
 21
305.6409436140741
  0
ARC
  5
1ED
100
AcDbEntity
  8
decoupe
  6
ByLayer
 62
  256
370
   -1
100
AcDbCircle
 10
-350
 20
350
 40
84.00000000000149
100
AcDbArc
 50
151.8760899151068
 51
208.1239100848923
  0
LINE
  5
1EE
100
AcDbEntity
  8
decoupe
  6
ByLayer
 62
  256
370
   -1
100
AcDbLine
 10
-419.715045004647
 20
387.0745735194564
 11
-416.965045004647
 21
388.6622867597284
  0
LINE
  5
1EF
100
AcDbEntity
  8
decoupe
  6
ByLayer
 62
  256
370
   -1
100
AcDbLine
 10
-416.965045004647
 20
388.6622867597284
 11
-416.965045004647
 21
391.8377132402716
  0
LINE
  5
1F0
100
AcDbEntity
  8
decoupe
  6
ByLayer
 62
  256
370
   -1
100
AcDbLine
 10
-416.965045004647
 20
391.8377132402713
 11
-421.3321394362351
 21
394.3590563859264
  0
LINE
  5
1F1
100
AcDbEntity
  8
decoupe
  6
ByLayer
 62
  256
370
   -1
100
AcDbLine
 10
-419.715045004647
 20
387.0745735194566
 11
-424.082139436236
 21
389.5959166651114
  0
ARC
  5
1F2
100
AcDbEntity
  8
decoupe
  6
ByLayer
 62
  256
370
   -1
100
AcDbCircle
 10
-350
 20
350
 40
84.00000000000149
100
AcDbArc
 50
91.87608991510682
 51
148.1239100848924
  0
LINE
  5
1F3
100
AcDbEntity
  8
decoupe
  6
ByLayer
 62
  256
370
   -1
100
AcDbLine
 10
-352.75
 20
428.9122867597282
 11
-350
 21
427.3245735194571
  0
LINE
  5
1F4
100
AcDbEntity
  8
decoupe
  6
ByLayer
 62
  256
370
   -1
100
AcDbLine
 10
-350
 20
427.3245735194571
 11
-347.25
 21
428.9122867597284
  0
LINE
  5
1F5
100
AcDbEntity
  8
decoupe
  6
ByLayer
 62
  256
370
   -1
100
AcDbLine
 10
-347.25
 20
428.9122867597287
 11
-347.2499999999991
 21
433.9549730510362
  0
LINE
  5
1F6
100
AcDbEntity
  8
decoupe
  6
ByLayer
 62
  256
370
   -1
100
AcDbLine
 10
-352.75
 20
428.912286759728
 11
-352.75
 21
433.9549730510369
  0
ARC
  5
1F7
100
AcDbEntity
  8
decoupe
  6
ByLayer
 62
  256
370
   -1
100
AcDbCircle
 10
-350
 20
350
 40
84.00000000000149
100
AcDbArc
 50
31.87608991510678
 51
88.12391008489237
  0
LINE
  5
1F8
100
AcDbEntity
  8
decoupe
  6
ByLayer
 62
  256
370
   -1
100
AcDbLine
 10
-283.034954995353
 20
391.8377132402716
 11
-283.034954995353
 21
388.6622867597284
  0
LINE
  5
1F9
100
AcDbEntity
  8
decoupe
  6
ByLayer
 62
  256
370
   -1
100
AcDbLine
 10
-283.034954995353
 20
388.6622867597284
 11
-280.284954995353
 21
387.0745735194569
  0
LINE
  5
1FA
100
AcDbEntity
  8
decoupe
  6
ByLayer
 62
  256
370
   -1
100
AcDbLine
 10
-280.284954995353
 20
387.0745735194571
 11
-275.917860563764
 21
389.5959166651098
  0
LINE
  5
1FB
100
AcDbEntity
  8
decoupe
  6
ByLayer
 62
  256
370
   -1
100
AcDbLine
 10
-283.034954995353
 20
391.8377132402713
 11
-278.667860563764
 21
394.3590563859254
  0
ARC
  5
1FC
100
AcDbEntity
  8
decoupe
  6
ByLayer
 62
  256
370
   -1
100
AcDbCircle
 10
-350
 20
350
 40
84.00000000000149
100
AcDbArc
 50
331.8760899151068
 51
28.12391008489233
  0
LINE
  5
1FD
100
AcDbEntity
  8
decoupe
  6
ByLayer
 62
  256
370
   -1
100
AcDbLine
 10
-280.284954995353
 20
312.9254264805429
 11
-283.034954995353
 21
311.3377132402709
  0
LINE
  5
1FE
100
AcDbEntity
  8
decoupe
  6
ByLayer
 62
  256
370
   -1
100
AcDbLine
 10
-283.034954995353
 20
311.3377132402709
 11
-283.034954995353
 21
308.162286759728
  0
LINE
  5
1FF
100
AcDbEntity
  8
decoupe
  6
ByLayer
 62
  256
370
   -1
100
AcDbLine
 10
-283.034954995353
 20
308.162286759728
 11
-278.6678605637649
 21
305.640943614073
  0
LINE
  5
200
100
AcDbEntity
  8
decoupe
  6
ByLayer
 62
  256
370
   -1
100
AcDbLine
 10
-280.284954995353
 20
312.9254264805429
 11
-275.917860563764
 21
310.404083334889
  0
ARC
  5
201
100
AcDbEntity
  8
decoupe
  6
ByLayer
 62
  256
370
   -1
100
AcDbCircle
 10
-350
 20
350
 40
84.00000000000149
100
AcDbArc
 50
271.8760899151069
 51
328.1239100848924
  0
LINE
  5
202
100
AcDbEntity
  8
decoupe
  6
ByLayer
 62
  256
370
   -1
100
AcDbLine
 10
-347.25
 20
271.087713240272
 11
-350
 21
272.6754264805429
  0
LINE
  5
203
100
AcDbEntity
  8
decoupe
  6
ByLayer
 62
  256
370
   -1
100
AcDbLine
 10
-350
 20
272.6754264805429
 11
-352.75
 21
271.0877132402709
  0
LINE
  5
204
100
AcDbEntity
  8
decoupe
  6
ByLayer
 62
  256
370
   -1
100
AcDbLine
 10
-352.75
 20
271.0877132402709
 11
-352.7500000000009
 21
266.0450269489641
  0
LINE
  5
205
100
AcDbEntity
  8
decoupe
  6
ByLayer
 62
  256
370
   -1
100
AcDbLine
 10
-347.25
 20
271.087713240272
 11
-347.25
 21
266.0450269489629
  0
ARC
  5
206
100
AcDbEntity
  8
decoupe
  6
ByLayer
 62
  256
370
   -1
100
AcDbCircle
 10
-350
 20
350
 40
84.00000000000149
100
AcDbArc
 50
211.876089915107
 51
268.1239100848925
  0
CIRCLE
  5
207
100
AcDbEntity
  8
decoupe
  6
ByLayer
 62
  256
370
   -1
100
AcDbCircle
 10
-219.715045004647
 20
309.75
 40
1.5
  0
CIRCLE
  5
208
100
AcDbEntity
  8
decoupe
  6
ByLayer
 62
  256
370
   -1
100
AcDbCircle
 10
-150
 20
430.5
 40
1.5
  0
CIRCLE
  5
209
100
AcDbEntity
  8
decoupe
  6
ByLayer
 62
  256
370
   -1
100
AcDbCircle
 10
-80.28495499535302
 20
309.75
 40
1.5
  0
CIRCLE
  5
20A
100
AcDbEntity
  8
decoupe
  6
ByLayer
 62
  256
370
   -1
100
AcDbCircle
 10
-219.715045004647
 20
390.2499999999998
 40
1.5
  0
CIRCLE
  5
20B
100
AcDbEntity
  8
decoupe
  6
ByLayer
 62
  256
370
   -1
100
AcDbCircle
 10
-80.28495499535302
 20
390.25
 40
1.5
  0
CIRCLE
  5
20C
100
AcDbEntity
  8
decoupe
  6
ByLayer
 62
  256
370
   -1
100
AcDbCircle
 10
-150
 20
269.5
 40
1.5
  0
CIRCLE
  5
20D
100
AcDbEntity
  8
decoupe
  6
ByLayer
 62
  256
370
   -1
100
AcDbCircle
 10
-195
 20
272.0577136594011
 40
3
  0
CIRCLE
  5
20E
100
AcDbEntity
  8
decoupe
  6
ByLayer
 62
  256
370
   -1
100
AcDbCircle
 10
-60
 20
350.0000000000002
 40
3
  0
CIRCLE
  5
20F
100
AcDbEntity
  8
decoupe
  6
ByLayer
 62
  256
370
   -1
100
AcDbCircle
 10
-195
 20
427.9422863405994
 40
3
  0
CIRCLE
  5
210
100
AcDbEntity
  8
decoupe
  6
ByLayer
 62
  256
370
   -1
100
AcDbCircle
 10
-195
 20
72.05771365940109
 40
3
  0
CIRCLE
  5
211
100
AcDbEntity
  8
decoupe
  6
ByLayer
 62
  256
370
   -1
100
AcDbCircle
 10
-60
 20
150
 40
3
  0
CIRCLE
  5
212
100
AcDbEntity
  8
decoupe
  6
ByLayer
 62
  256
370
   -1
100
AcDbCircle
 10
-195
 20
227.9422863405989
 40
3
  0
CIRCLE
  5
213
100
AcDbEntity
  8
decoupe
  6
ByLayer
 62
  256
370
   -1
100
AcDbCircle
 10
-350
 20
150
 40
95.5
  0
CIRCLE
  5
214
100
AcDbEntity
  8
decoupe
  6
ByLayer
 62
  256
370
   -1
100
AcDbCircle
 10
-395
 20
72.05771365940109
 40
3
  0
CIRCLE
  5
215
100
AcDbEntity
  8
decoupe
  6
ByLayer
 62
  256
370
   -1
100
AcDbCircle
 10
-260
 20
150
 40
3
  0
CIRCLE
  5
216
100
AcDbEntity
  8
decoupe
  6
ByLayer
 62
  256
370
   -1
100
AcDbCircle
 10
-395
 20
227.9422863405989
 40
3
  0
CIRCLE
  5
217
100
AcDbEntity
  8
decoupe
  6
ByLayer
 62
  256
370
   -1
100
AcDbCircle
 10
-419.715045004647
 20
109.75
 40
1.5
  0
CIRCLE
  5
218
100
AcDbEntity
  8
decoupe
  6
ByLayer
 62
  256
370
   -1
100
AcDbCircle
 10
-350
 20
230.5
 40
1.5
  0
CIRCLE
  5
219
100
AcDbEntity
  8
decoupe
  6
ByLayer
 62
  256
370
   -1
100
AcDbCircle
 10
-280.284954995353
 20
109.75
 40
1.5
  0
CIRCLE
  5
21A
100
AcDbEntity
  8
decoupe
  6
ByLayer
 62
  256
370
   -1
100
AcDbCircle
 10
-419.715045004647
 20
190.25
 40
1.5
  0
CIRCLE
  5
21B
100
AcDbEntity
  8
decoupe
  6
ByLayer
 62
  256
370
   -1
100
AcDbCircle
 10
-280.284954995353
 20
190.25
 40
1.5
  0
CIRCLE
  5
21C
100
AcDbEntity
  8
decoupe
  6
ByLayer
 62
  256
370
   -1
100
AcDbCircle
 10
-350
 20
69.5
 40
1.5
  0
CIRCLE
  5
21D
100
AcDbEntity
  8
decoupe
  6
ByLayer
 62
  256
370
   -1
100
AcDbCircle
 10
350
 20
350
 40
95.5
  0
CIRCLE
  5
21E
100
AcDbEntity
  8
decoupe
  6
ByLayer
 62
  256
370
   -1
100
AcDbCircle
 10
350
 20
150
 40
95.5
  0
CIRCLE
  5
21F
100
AcDbEntity
  8
decoupe
  6
ByLayer
 62
  256
370
   -1
100
AcDbCircle
 10
305
 20
272.0577136594011
 40
3
  0
CIRCLE
  5
220
100
AcDbEntity
  8
decoupe
  6
ByLayer
 62
  256
370
   -1
100
AcDbCircle
 10
440
 20
350.0000000000002
 40
3
  0
CIRCLE
  5
221
100
AcDbEntity
  8
decoupe
  6
ByLayer
 62
  256
370
   -1
100
AcDbCircle
 10
305
 20
427.9422863405994
 40
3
  0
CIRCLE
  5
222
100
AcDbEntity
  8
decoupe
  6
ByLayer
 62
  256
370
   -1
100
AcDbCircle
 10
305
 20
72.05771365940109
 40
3
  0
CIRCLE
  5
223
100
AcDbEntity
  8
decoupe
  6
ByLayer
 62
  256
370
   -1
100
AcDbCircle
 10
440
 20
150
 40
3
  0
CIRCLE
  5
224
100
AcDbEntity
  8
decoupe
  6
ByLayer
 62
  256
370
   -1
100
AcDbCircle
 10
305
 20
227.9422863405989
 40
3
  0
CIRCLE
  5
225
100
AcDbEntity
  8
decoupe
  6
ByLayer
 62
  256
370
   -1
100
AcDbCircle
 10
150
 20
150
 40
95.5
  0
CIRCLE
  5
226
100
AcDbEntity
  8
decoupe
  6
ByLayer
 62
  256
370
   -1
100
AcDbCircle
 10
105
 20
72.05771365940109
 40
3
  0
CIRCLE
  5
227
100
AcDbEntity
  8
decoupe
  6
ByLayer
 62
  256
370
   -1
100
AcDbCircle
 10
240
 20
150
 40
3
  0
CIRCLE
  5
228
100
AcDbEntity
  8
decoupe
  6
ByLayer
 62
  256
370
   -1
100
AcDbCircle
 10
105
 20
227.9422863405989
 40
3
  0
CIRCLE
  5
229
100
AcDbEntity
  8
decoupe
  6
ByLayer
 62
  256
370
   -1
100
AcDbCircle
 10
350
 20
150
 40
60
  0
CIRCLE
  5
22A
100
AcDbEntity
  8
decoupe
  6
ByLayer
 62
  256
370
   -1
100
AcDbCircle
 10
150
 20
350
 40
84.00000000000139
  0
CIRCLE
  5
22B
100
AcDbEntity
  8
decoupe
  6
ByLayer
 62
  256
370
   -1
100
AcDbCircle
 10
350
 20
400
 40
1.5
  0
CIRCLE
  5
22C
100
AcDbEntity
  8
decoupe
  6
ByLayer
 62
  256
370
   -1
100
AcDbCircle
 10
393.3012701892221
 20
375
 40
1.5
  0
CIRCLE
  5
22D
100
AcDbEntity
  8
decoupe
  6
ByLayer
 62
  256
370
   -1
100
AcDbCircle
 10
393.3012701892221
 20
325
 40
1.5
  0
CIRCLE
  5
22E
100
AcDbEntity
  8
decoupe
  6
ByLayer
 62
  256
370
   -1
100
AcDbCircle
 10
350
 20
300
 40
1.5
  0
CIRCLE
  5
22F
100
AcDbEntity
  8
decoupe
  6
ByLayer
 62
  256
370
   -1
100
AcDbCircle
 10
306.6987298107779
 20
325
 40
1.5
  0
CIRCLE
  5
230
100
AcDbEntity
  8
decoupe
  6
ByLayer
 62
  256
370
   -1
100
AcDbCircle
 10
306.6987298107779
 20
375
 40
1.5
  0
LINE
  5
231
100
AcDbEntity
  8
decoupe
  6
ByLayer
 62
  256
370
   -1
100
AcDbLine
 10
147.2500000000018
 20
398.4122867597284
 11
150.0000000000018
 21
396.8245735194573
  0
LINE
  5
232
100
AcDbEntity
  8
decoupe
  6
ByLayer
 62
  256
370
   -1
100
AcDbLine
 10
150.0000000000018
 20
396.8245735194573
 11
152.7500000000018
 21
398.4122867597287
  0
LINE
  5
233
100
AcDbEntity
  8
decoupe
  6
ByLayer
 62
  256
370
   -1
100
AcDbLine
 10
152.7500000000018
 20
398.4122867597293
 11
152.7500000000014
 21
401.587713240272
  0
LINE
  5
234
100
AcDbEntity
  8
decoupe
  6
ByLayer
 62
  256
370
   -1
100
AcDbLine
 10
152.7500000000014
 20
401.587713240272
 11
150.0000000000014
 21
403.1754264805436
  0
LINE
  5
235
100
AcDbEntity
  8
decoupe
  6
ByLayer
 62
  256
370
   -1
100
AcDbLine
 10
150.0000000000014
 20
403.1754264805436
 11
147.2500000000018
 21
401.5877132402718
  0
LINE
  5
236
100
AcDbEntity
  8
decoupe
  6
ByLayer
 62
  256
370
   -1
100
AcDbLine
 10
147.2500000000018
 20
401.5877132402718
 11
147.2500000000018
 21
398.4122867597289
  0
LINE
  5
237
100
AcDbEntity
  8
decoupe
  6
ByLayer
 62
  256
370
   -1
100
AcDbLine
 10
106.6987298107792
 20
371.8245735194587
 11
109.4487298107788
 21
373.4122867597303
  0
LINE
  5
238
100
AcDbEntity
  8
decoupe
  6
ByLayer
 62
  256
370
   -1
100
AcDbLine
 10
109.4487298107788
 20
373.4122867597303
 11
109.4487298107788
 21
376.5877132402732
  0
LINE
  5
239
100
AcDbEntity
  8
decoupe
  6
ByLayer
 62
  256
370
   -1
100
AcDbLine
 10
109.4487298107783
 20
376.5877132402734
 11
106.6987298107783
 21
378.1754264805445
  0
LINE
  5
23A
100
AcDbEntity
  8
decoupe
  6
ByLayer
 62
  256
370
   -1
100
AcDbLine
 10
106.6987298107783
 20
378.1754264805445
 11
103.9487298107783
 21
376.5877132402729
  0
LINE
  5
23B
100
AcDbEntity
  8
decoupe
  6
ByLayer
 62
  256
370
   -1
100
AcDbLine
 10
103.9487298107783
 20
376.5877132402729
 11
103.9487298107788
 21
373.4122867597303
  0
LINE
  5
23C
100
AcDbEntity
  8
decoupe
  6
ByLayer
 62
  256
370
   -1
100
AcDbLine
 10
103.9487298107788
 20
373.4122867597303
 11
106.6987298107788
 21
371.8245735194587
  0
LINE
  5
23D
100
AcDbEntity
  8
decoupe
  6
ByLayer
 62
  256
370
   -1
100
AcDbLine
 10
109.4487298107774
 20
323.4122867597303
 11
109.448729810777
 21
326.5877132402729
  0
LINE
  5
23E
100
AcDbEntity
  8
decoupe
  6
ByLayer
 62
  256
370
   -1
100
AcDbLine
 10
109.448729810777
 20
326.5877132402729
 11
106.698729810777
 21
328.1754264805445
  0
LINE
  5
23F
100
AcDbEntity
  8
decoupe
  6
ByLayer
 62
  256
370
   -1
100
AcDbLine
 10
106.6987298107765
 20
328.175426480544
 11
103.948729810777
 21
326.5877132402725
  0
LINE
  5
240
100
AcDbEntity
  8
decoupe
  6
ByLayer
 62
  256
370
   -1
100
AcDbLine
 10
103.948729810777
 20
326.5877132402725
 11
103.948729810777
 21
323.4122867597293
  0
LINE
  5
241
100
AcDbEntity
  8
decoupe
  6
ByLayer
 62
  256
370
   -1
100
AcDbLine
 10
103.948729810777
 20
323.4122867597293
 11
106.698729810777
 21
321.8245735194585
  0
LINE
  5
242
100
AcDbEntity
  8
decoupe
  6
ByLayer
 62
  256
370
   -1
100
AcDbLine
 10
106.698729810777
 20
321.8245735194585
 11
109.448729810777
 21
323.41228675973
  0
LINE
  5
243
100
AcDbEntity
  8
decoupe
  6
ByLayer
 62
  256
370
   -1
100
AcDbLine
 10
152.7499999999982
 20
301.5877132402716
 11
149.9999999999982
 21
303.1754264805427
  0
LINE
  5
244
100
AcDbEntity
  8
decoupe
  6
ByLayer
 62
  256
370
   -1
100
AcDbLine
 10
149.9999999999982
 20
303.1754264805427
 11
147.2499999999982
 21
301.5877132402713
  0
LINE
  5
245
100
AcDbEntity
  8
decoupe
  6
ByLayer
 62
  256
370
   -1
100
AcDbLine
 10
147.2499999999982
 20
301.5877132402707
 11
147.2499999999986
 21
298.412286759728
  0
LINE
  5
246
100
AcDbEntity
  8
decoupe
  6
ByLayer
 62
  256
370
   -1
100
AcDbLine
 10
147.2499999999986
 20
298.412286759728
 11
149.9999999999986
 21
296.8245735194564
  0
LINE
  5
247
100
AcDbEntity
  8
decoupe
  6
ByLayer
 62
  256
370
   -1
100
AcDbLine
 10
149.9999999999986
 20
296.8245735194564
 11
152.7499999999982
 21
298.4122867597282
  0
LINE
  5
248
100
AcDbEntity
  8
decoupe
  6
ByLayer
 62
  256
370
   -1
100
AcDbLine
 10
152.7499999999982
 20
298.4122867597282
 11
152.7499999999982
 21
301.5877132402711
  0
LINE
  5
249
100
AcDbEntity
  8
decoupe
  6
ByLayer
 62
  256
370
   -1
100
AcDbLine
 10
193.3012701892208
 20
328.1754264805413
 11
190.5512701892212
 21
326.5877132402697
  0
LINE
  5
24A
100
AcDbEntity
  8
decoupe
  6
ByLayer
 62
  256
370
   -1
100
AcDbLine
 10
190.5512701892212
 20
326.5877132402697
 11
190.5512701892212
 21
323.4122867597268
  0
LINE
  5
24B
100
AcDbEntity
  8
decoupe
  6
ByLayer
 62
  256
370
   -1
100
AcDbLine
 10
190.5512701892217
 20
323.4122867597266
 11
193.3012701892217
 21
321.8245735194555
  0
LINE
  5
24C
100
AcDbEntity
  8
decoupe
  6
ByLayer
 62
  256
370
   -1
100
AcDbLine
 10
193.3012701892217
 20
321.8245735194555
 11
196.0512701892217
 21
323.4122867597271
  0
LINE
  5
24D
100
AcDbEntity
  8
decoupe
  6
ByLayer
 62
  256
370
   -1
100
AcDbLine
 10
196.0512701892217
 20
323.4122867597271
 11
196.0512701892212
 21
326.5877132402697
  0
LINE
  5
24E
100
AcDbEntity
  8
decoupe
  6
ByLayer
 62
  256
370
   -1
100
AcDbLine
 10
196.0512701892212
 20
326.5877132402697
 11
193.3012701892212
 21
328.1754264805413
  0
LINE
  5
24F
100
AcDbEntity
  8
decoupe
  6
ByLayer
 62
  256
370
   -1
100
AcDbLine
 10
190.5512701892226
 20
376.5877132402697
 11
190.551270189223
 21
373.4122867597271
  0
LINE
  5
250
100
AcDbEntity
  8
decoupe
  6
ByLayer
 62
  256
370
   -1
100
AcDbLine
 10
190.551270189223
 20
373.4122867597271
 11
193.301270189223
 21
371.8245735194555
  0
LINE
  5
251
100
AcDbEntity
  8
decoupe
  6
ByLayer
 62
  256
370
   -1
100
AcDbLine
 10
193.3012701892235
 20
371.824573519456
 11
196.051270189223
 21
373.4122867597275
  0
LINE
  5
252
100
AcDbEntity
  8
decoupe
  6
ByLayer
 62
  256
370
   -1
100
AcDbLine
 10
196.051270189223
 20
373.4122867597275
 11
196.051270189223
 21
376.5877132402707
  0
LINE
  5
253
100
AcDbEntity
  8
decoupe
  6
ByLayer
 62
  256
370
   -1
100
AcDbLine
 10
196.051270189223
 20
376.5877132402707
 11
193.301270189223
 21
378.1754264805415
  0
LINE
  5
254
100
AcDbEntity
  8
decoupe
  6
ByLayer
 62
  256
370
   -1
100
AcDbLine
 10
193.301270189223
 20
378.1754264805415
 11
190.551270189223
 21
376.5877132402702
  0
CIRCLE
  5
255
100
AcDbEntity
  8
decoupe
  6
ByLayer
 62
  256
370
   -1
100
AcDbCircle
 10
150
 20
200
 40
1.5
  0
CIRCLE
  5
256
100
AcDbEntity
  8
decoupe
  6
ByLayer
 62
  256
370
   -1
100
AcDbCircle
 10
193.3012701892221
 20
175
 40
1.5
  0
CIRCLE
  5
257
100
AcDbEntity
  8
decoupe
  6
ByLayer
 62
  256
370
   -1
100
AcDbCircle
 10
193.3012701892221
 20
125
 40
1.5
  0
CIRCLE
  5
258
100
AcDbEntity
  8
decoupe
  6
ByLayer
 62
  256
370
   -1
100
AcDbCircle
 10
150
 20
100
 40
1.5
  0
CIRCLE
  5
259
100
AcDbEntity
  8
decoupe
  6
ByLayer
 62
  256
370
   -1
100
AcDbCircle
 10
106.6987298107779
 20
125
 40
1.5
  0
CIRCLE
  5
25A
100
AcDbEntity
  8
decoupe
  6
ByLayer
 62
  256
370
   -1
100
AcDbCircle
 10
106.6987298107779
 20
175
 40
1.5
  0
CIRCLE
  5
25B
100
AcDbEntity
  8
decoupe
  6
ByLayer
 62
  256
370
   -1
100
AcDbCircle
 10
130
 20
-250
 40
39
  0
DIMENSION
  5
25C
100
AcDbEntity
  8
0
  6
ByLayer
 62
  256
370
   -1
100
AcDbDimension
  2
*D25
 10
167
 20
-140
 30
0
 11
130
 21
-132.1875
 31
0
 70
   32
 71
    5
  3
Standard
 53
0
210
0
220
0
230
1
100
AcDbAlignedDimension
 13
91
 23
-250
 33
0
 14
169
 24
-250
 34
0
100
AcDbRotatedDimension
  0
LINE
  5
25D
100
AcDbEntity
  8
noname
  6
ByLayer
 62
  256
370
   -1
100
AcDbLine
 10
321
 20
-265
 11
321
 21
-258
  0
LINE
  5
25E
100
AcDbEntity
  8
noname
  6
ByLayer
 62
  256
370
   -1
100
AcDbLine
 10
399
 20
-259
 11
399
 21
-265
  0
LWPOLYLINE
  5
25F
100
AcDbEntity
  8
0
  6
ByLayer
 62
  256
370
   -1
100
AcDbPolyline
 90
    4
 70
    1
 43
0
 10
455.5
 20
-252
 10
399
 20
-252
 10
399
 20
-258
 10
455.5
 20
-258
  0
LWPOLYLINE
  5
260
100
AcDbEntity
  8
0
  6
ByLayer
 62
  256
370
   -1
100
AcDbPolyline
 90
    4
 70
    1
 43
0
 10
455.5
 20
-265
 10
399
 20
-265
 10
399
 20
-271
 10
455.5
 20
-271
  0
LWPOLYLINE
  5
261
100
AcDbEntity
  8
0
  6
ByLayer
 62
  256
370
   -1
100
AcDbPolyline
 90
    4
 70
    1
 43
0
 10
444
 20
-271
 10
399
 20
-271
 10
399
 20
-277
 10
444
 20
-277
  0
LWPOLYLINE
  5
262
100
AcDbEntity
  8
0
  6
ByLayer
 62
  256
370
   -1
100
AcDbPolyline
 90
    4
 70
    1
 43
0
 10
264.5
 20
-252
 10
321
 20
-252
 10
321
 20
-258
 10
264.5
 20
-258
  0
LWPOLYLINE
  5
263
100
AcDbEntity
  8
0
  6
ByLayer
 62
  256
370
   -1
100
AcDbPolyline
 90
    4
 70
    1
 43
0
 10
264.5
 20
-265
 10
321
 20
-265
 10
321
 20
-271
 10
264.5
 20
-271
  0
LWPOLYLINE
  5
264
100
AcDbEntity
  8
0
  6
ByLayer
 62
  256
370
   -1
100
AcDbPolyline
 90
    4
 70
    1
 43
0
 10
276
 20
-271
 10
321
 20
-271
 10
321
 20
-277
 10
276
 20
-277
  0
CIRCLE
  5
265
100
AcDbEntity
  8
decoupe
  6
ByLayer
 62
  256
370
   -1
100
AcDbCircle
 10
150
 20
350
 40
39
  0
CIRCLE
  5
266
100
AcDbEntity
  8
decoupe
  6
ByLayer
 62
  256
370
   -1
100
AcDbCircle
 10
350
 20
350
 40
39
  0
MTEXT
  5
267
100
AcDbEntity
  8
gravure
  6
ByLayer
 62
  256
370
   -1
100
AcDbMText
 10
388.5
 20
416.6839560914018
 30
0
 40
5
 41
22.22222222222222
 71
    5
 72
    1
  1
80V1/B
  7
standard
210
0
220
0
230
1
 50
329.9999999999999
 73
    2
 44
1
  0
MTEXT
  5
268
100
AcDbEntity
  8
gravure
  6
ByLayer
 62
  256
370
   -1
100
AcDbMText
 10
188.5
 20
416.6839560914018
 30
0
 40
5
 41
22.77777777777778
 71
    5
 72
    1
  1
80V1/A
  7
standard
210
0
220
0
230
1
 50
329.9999999999999
 73
    2
 44
1
  0
MTEXT
  5
269
100
AcDbEntity
  8
gravure
  6
ByLayer
 62
  256
370
   -1
100
AcDbMText
 10
394.8750019542131
 20
227.725781117919
 30
0
 40
5
 41
22.22222222222253
 71
    5
 72
    1
  1
80V1/D
  7
standard
210
0
220
0
230
1
 50
329.9999999999999
 73
    2
 44
1
  0
MTEXT
  5
26A
100
AcDbEntity
  8
gravure
  6
ByLayer
 62
  256
370
   -1
100
AcDbMText
 10
193.125
 20
224.6946910764079
 30
0
 40
5
 41
21.66666666666666
 71
    5
 72
    1
  1
80V1/C
  7
standard
210
0
220
0
230
1
 50
329.9999999999999
 73
    2
 44
1
  0
CIRCLE
  5
26B
100
AcDbEntity
  8
decoupe
  6
ByLayer
 62
  256
370
   -1
100
AcDbCircle
 10
-350
 20
150
 40
77.25
  0
CIRCLE
  5
26C
100
AcDbEntity
  8
decoupe
  6
ByLayer
 62
  256
370
   -1
100
AcDbCircle
 10
150
 20
150
 40
40.25
  0
LWPOLYLINE
  5
26D
100
AcDbEntity
  8
0
  6
ByLayer
 62
  256
370
   -1
100
AcDbPolyline
 90
    4
 70
    1
 43
0
 10
-1000
 20
-500
 10
-500
 20
-500
 10
-500
 20
0
 10
-1000
 20
0
  0
CIRCLE
  5
26E
100
AcDbEntity
  8
0
  6
ByLayer
 62
  256
370
   -1
100
AcDbCircle
 10
-870
 20
-250
 40
95.5
  0
CIRCLE
  5
26F
100
AcDbEntity
  8
0
  6
ByLayer
 62
  256
370
   -1
100
AcDbCircle
 10
-870
 20
-250
 40
84
  0
CIRCLE
  5
270
100
AcDbEntity
  8
0
  6
ByLayer
 62
  256
370
   -1
100
AcDbCircle
 10
-870
 20
-340
 40
3
  0
CIRCLE
  5
271
100
AcDbEntity
  8
0
  6
ByLayer
 62
  256
370
   -1
100
AcDbCircle
 10
-792.0577136594011
 20
-205
 40
3
  0
CIRCLE
  5
272
100
AcDbEntity
  8
0
  6
ByLayer
 62
  256
370
   -1
100
AcDbCircle
 10
-947.9422863405989
 20
-205
 40
3
  0
DIMENSION
  5
273
100
AcDbEntity
  8
0
  6
ByLayer
 62
  256
370
   -1
100
AcDbDimension
  2
*D26
 10
-780
 20
-430
 30
0
 11
-870
 21
-422.1875
 31
0
 70
   32
 71
    5
  3
Standard
 53
0
210
0
220
0
230
1
100
AcDbAlignedDimension
 13
-960
 23
-250
 33
0
 14
-780
 24
-250
 34
0
100
AcDbRotatedDimension
  0
DIMENSION
  5
274
100
AcDbEntity
  8
0
  6
ByLayer
 62
  256
370
   -1
100
AcDbDimension
  2
*D27
 10
-790
 20
-390
 30
0
 11
-870
 21
-382.1875
 31
0
 70
   32
 71
    5
  3
Standard
 53
0
210
0
220
0
230
1
100
AcDbAlignedDimension
 13
-954
 23
-250
 33
0
 14
-786
 24
-250
 34
0
100
AcDbRotatedDimension
  0
DIMENSION
  5
275
100
AcDbEntity
  8
0
  6
ByLayer
 62
  256
370
   -1
100
AcDbDimension
  2
*D28
 10
-770
 20
-470
 30
0
 11
-870
 21
-462.1875
 31
0
 70
   32
 71
    5
  3
Standard
 53
0
210
0
220
0
230
1
100
AcDbAlignedDimension
 13
-965.5
 23
-250
 33
0
 14
-774.5
 24
-250
 34
0
100
AcDbRotatedDimension
  0
MTEXT
  5
276
100
AcDbEntity
  8
0
  6
ByLayer
 62
  256
370
   -1
100
AcDbMText
 10
-870
 20
-80
 30
0
 40
10
 41
51.11111111111189
 71
    8
 72
    1
  1
lentille=
  7
standard
210
0
220
0
230
1
 50
0
 73
    2
 44
1
  0
MTEXT
  5
277
100
AcDbEntity
  8
0
  6
ByLayer
 62
  256
370
   -1
100
AcDbMText
 10
-870
 20
-450
 30
0
 40
10
 41
98.88888888889167
 71
    8
 72
    1
  1
encombrement=
  7
standard
210
0
220
0
230
1
 50
0
 73
    2
 44
1
  0
MTEXT
  5
278
100
AcDbEntity
  8
0
  6
ByLayer
 62
  256
370
   -1
100
AcDbMText
 10
-870
 20
-120
 30
0
 40
10
 41
47.77777777777779
 71
    8
 72
    1
  1
pupille=
  7
standard
210
0
220
0
230
1
 50
0
 73
    2
 44
1
  0
MTEXT
  5
279
100
AcDbEntity
  8
0
  6
ByLayer
 62
  256
370
   -1
100
AcDbMText
 10
-870
 20
-370
 30
0
 40
10
 41
63.05555555555648
 71
    8
 72
    1
  1
 interne
  7
standard
210
0
220
0
230
1
 50
0
 73
    2
 44
1
  0
MTEXT
  5
27A
100
AcDbEntity
  8
0
  6
ByLayer
 62
  256
370
   -1
100
AcDbMText
 10
-870
 20
-410
 30
0
 40
10
 41
139.1666706984291
 71
    8
 72
    1
  1
vis de fixation (M6)=
  7
standard
210
0
220
0
230
1
 50
0
 73
    2
 44
1
  0
CIRCLE
  5
27B
100
AcDbEntity
  8
0
  6
DASHED
 62
  256
370
   -1
100
AcDbCircle
 10
-870
 20
-250
 40
90
  0
MTEXT
  5
27C
100
AcDbEntity
  8
0
  6
ByLayer
 62
  256
370
   -1
100
AcDbMText
 10
-870
 20
-40
 30
0
 40
10
 41
140.2777869524122
 71
    8
 72
    1
  1
vis de serrage (M3)=
  7
standard
210
0
220
0
230
1
 50
0
 73
    2
 44
1
  0
MTEXT
  5
27D
100
AcDbEntity
  8
0
  6
ByLayer
 62
  256
370
   -1
100
AcDbMText
 10
-530
 20
-280
 30
0
 40
10
 41
5.555555555555555
 71
    5
 72
    1
  1
B
  7
standard
210
0
220
0
230
1
 50
0
 73
    2
 44
1
  0
MTEXT
  5
27E
100
AcDbEntity
  8
0
  6
ByLayer
 62
  256
370
   -1
100
AcDbMText
 10
-520
 20
-250
 30
0
 40
10
 41
4.444444444445065
 71
    5
 72
    1
  1
C
  7
standard
210
0
220
0
230
1
 50
0
 73
    2
 44
1
  0
MTEXT
  5
27F
100
AcDbEntity
  8
0
  6
ByLayer
 62
  256
370
   -1
100
AcDbMText
 10
-560
 20
-300
 30
0
 40
10
 41
6.666666666666667
 71
    5
 72
    1
  1
A
  7
standard
210
0
220
0
230
1
 50
0
 73
    2
 44
1
  0
LEADER
  5
280
100
AcDbEntity
  8
0
  6
ByLayer
 62
  256
370
   -1
100
AcDbLeader
  3
Standard
 71
    1
 72
    0
 73
    3
 74
    0
 75
    0
 40
1
 41
10
 76
2
 76
2
 10
-566
 20
-277
 30
0
 10
-560
 20
-293
 30
0
  0
LEADER
  5
281
100
AcDbEntity
  8
0
  6
ByLayer
 62
  256
370
   -1
100
AcDbLeader
  3
Standard
 71
    1
 72
    0
 73
    3
 74
    0
 75
    0
 40
1
 41
10
 76
2
 76
2
 10
-544.5
 20
-267.5459234917793
 30
0
 10
-534
 20
-280
 30
0
  0
LEADER
  5
282
100
AcDbEntity
  8
0
  6
ByLayer
 62
  256
370
   -1
100
AcDbLeader
  3
Standard
 71
    1
 72
    0
 73
    3
 74
    0
 75
    0
 40
1
 41
10
 76
2
 76
2
 10
-544.5
 20
-262.0478707089428
 30
0
 10
-524
 20
-250
 30
0
  0
LWPOLYLINE
  5
283
100
AcDbEntity
  8
0
  6
ByLayer
 62
  256
370
   -1
100
AcDbPolyline
 90
    4
 70
    1
 43
0
 10
-1000
 20
500
 10
-500
 20
500
 10
-500
 20
0
 10
-1000
 20
0
  0
LWPOLYLINE
  5
284
100
AcDbEntity
  8
0
  6
ByLayer
 62
  256
370
   -1
100
AcDbPolyline
 90
    4
 70
    1
 43
0
 10
-700
 20
-500
 10
-500
 20
-500
 10
-500
 20
-460
 10
-700
 20
-460
  0
CIRCLE
  5
285
100
AcDbEntity
  8
decoupe
  6
ByLayer
 62
  256
370
   -1
100
AcDbCircle
 10
-650
 20
350
 40
95.5
  0
CIRCLE
  5
286
100
AcDbEntity
  8
decoupe
  6
ByLayer
 62
  256
370
   -1
100
AcDbCircle
 10
-650
 20
150
 40
95.5
  0
CIRCLE
  5
287
100
AcDbEntity
  8
decoupe
  6
ByLayer
 62
  256
370
   -1
100
AcDbCircle
 10
-695
 20
272.0577136594011
 40
3
  0
CIRCLE
  5
288
100
AcDbEntity
  8
decoupe
  6
ByLayer
 62
  256
370
   -1
100
AcDbCircle
 10
-560
 20
350.0000000000002
 40
3
  0
CIRCLE
  5
289
100
AcDbEntity
  8
decoupe
  6
ByLayer
 62
  256
370
   -1
100
AcDbCircle
 10
-695
 20
427.9422863405994
 40
3
  0
CIRCLE
  5
28A
100
AcDbEntity
  8
decoupe
  6
ByLayer
 62
  256
370
   -1
100
AcDbCircle
 10
-695
 20
72.05771365940109
 40
3
  0
CIRCLE
  5
28B
100
AcDbEntity
  8
decoupe
  6
ByLayer
 62
  256
370
   -1
100
AcDbCircle
 10
-560
 20
150
 40
3
  0
CIRCLE
  5
28C
100
AcDbEntity
  8
decoupe
  6
ByLayer
 62
  256
370
   -1
100
AcDbCircle
 10
-695
 20
227.9422863405989
 40
3
  0
CIRCLE
  5
28D
100
AcDbEntity
  8
decoupe
  6
ByLayer
 62
  256
370
   -1
100
AcDbCircle
 10
-850
 20
150
 40
95.5
  0
CIRCLE
  5
28E
100
AcDbEntity
  8
decoupe
  6
ByLayer
 62
  256
370
   -1
100
AcDbCircle
 10
-895
 20
72.05771365940109
 40
3
  0
CIRCLE
  5
28F
100
AcDbEntity
  8
decoupe
  6
ByLayer
 62
  256
370
   -1
100
AcDbCircle
 10
-760
 20
150
 40
3
  0
CIRCLE
  5
290
100
AcDbEntity
  8
decoupe
  6
ByLayer
 62
  256
370
   -1
100
AcDbCircle
 10
-895
 20
227.9422863405989
 40
3
  0
LINE
  5
291
100
AcDbEntity
  8
decoupe
  6
ByLayer
 62
  256
370
   -1
100
AcDbLine
 10
-571
 20
-265
 11
-571
 21
-253
  0
LINE
  5
292
100
AcDbEntity
  8
decoupe
  6
ByLayer
 62
  256
370
   -1
100
AcDbLine
 10
-709
 20
-253
 11
-571
 21
-253
  0
LINE
  5
293
100
AcDbEntity
  8
decoupe
  6
ByLayer
 62
  256
370
   -1
100
AcDbLine
 10
-571
 20
-265
 11
-709
 21
-265
  0
LWPOLYLINE
  5
294
100
AcDbEntity
  8
decoupe
  6
ByLayer
 62
  256
370
   -1
100
AcDbPolyline
 90
    4
 70
    1
 43
0
 10
-544.5
 20
-259
 10
-571
 20
-259
 10
-571
 20
-265
 10
-544.5
 20
-265
  0
LWPOLYLINE
  5
295
100
AcDbEntity
  8
decoupe
  6
ByLayer
 62
  256
370
   -1
100
AcDbPolyline
 90
    4
 70
    1
 43
0
 10
-544.5
 20
-271
 10
-576
 20
-271
 10
-576
 20
-265
 10
-544.5
 20
-265
  0
LWPOLYLINE
  5
296
100
AcDbEntity
  8
decoupe
  6
ByLayer
 62
  256
370
   -1
100
AcDbPolyline
 90
    4
 70
    1
 43
0
 10
-556
 20
-271
 10
-576
 20
-271
 10
-576
 20
-277
 10
-556
 20
-277
  0
LINE
  5
297
100
AcDbEntity
  8
decoupe
  6
ByLayer
 62
  256
370
   -1
100
AcDbLine
 10
-709
 20
-265
 11
-709
 21
-253
  0
LINE
  5
298
100
AcDbEntity
  8
decoupe
  6
ByLayer
 62
  256
370
   -1
100
AcDbLine
 10
-564
 20
-259
 11
-564
 21
-253
  0
LWPOLYLINE
  5
299
100
AcDbEntity
  8
decoupe
  6
ByLayer
 62
  256
370
   -1
100
AcDbPolyline
 90
    4
 70
    1
 43
0
 10
-564
 20
-253
 10
-544.5
 20
-253
 10
-544.5
 20
-259
 10
-564
 20
-259
  0
LWPOLYLINE
  5
29A
100
AcDbEntity
  8
decoupe
  6
ByLayer
 62
  256
370
   -1
100
AcDbPolyline
 90
    4
 70
    1
 43
0
 10
-544.5
 20
-253
 10
-576
 20
-253
 10
-576
 20
-247
 10
-544.5
 20
-247
  0
LWPOLYLINE
  5
29B
100
AcDbEntity
  8
decoupe
  6
ByLayer
 62
  256
370
   -1
100
AcDbPolyline
 90
    4
 70
    1
 43
0
 10
-569
 20
-247
 10
-566
 20
-247
 10
-566
 20
-253
 10
-569
 20
-253
  0
LWPOLYLINE
  5
29C
100
AcDbEntity
  8
decoupe
  6
ByLayer
 62
  256
370
   -1
100
AcDbPolyline
 90
    4
 70
    1
 43
0
 10
-569
 20
-259
 10
-566
 20
-259
 10
-566
 20
-277
 10
-569
 20
-277
  0
LWPOLYLINE
  5
29D
100
AcDbEntity
  8
decoupe
  6
ByLayer
 62
  256
370
   -1
100
AcDbPolyline
 90
    4
 70
    1
 43
0
 10
-546
 20
-271
 10
-552
 20
-271
 10
-552
 20
-247
 10
-546
 20
-247
  0
MTEXT
  5
29E
100
AcDbEntity
  8
0
  6
ByLayer
 62
  256
370
   -1
100
AcDbMText
 10
-562
 20
-217
 30
0
 40
10
 41
5.555555555555555
 71
    5
 72
    1
  1
B
  7
standard
210
0
220
0
230
1
 50
0
 73
    2
 44
1
  0
LEADER
  5
29F
100
AcDbEntity
  8
0
  6
ByLayer
 62
  256
370
   -1
100
AcDbLeader
  3
Standard
 71
    1
 72
    0
 73
    3
 74
    0
 75
    0
 40
1
 41
10
 76
2
 76
2
 10
-556.9450765762044
 20
-247
 30
0
 10
-562
 20
-224
 30
0
  0
MTEXT
  5
2A0
100
AcDbEntity
  8
decoupe
  6
ByLayer
 62
  256
370
   -1
100
AcDbMText
 10
-530
 20
-230
 30
0
 40
10
 41
5.555555555556176
 71
    1
 72
    1
  1
D
  7
standard
210
0
220
0
230
1
 50
0
 73
    2
 44
1
  0
LEADER
  5
2A1
100
AcDbEntity
  8
decoupe
  6
ByLayer
 62
  256
370
   -1
100
AcDbLeader
  3
Standard
 71
    1
 72
    0
 73
    3
 74
    0
 75
    0
 40
1
 41
10
 76
2
 76
2
 10
-544.5
 20
-255.8419893812442
 30
0
 10
-531.3066295185401
 20
-234.7990324752353
 30
0
  0
LINE
  5
2A2
100
AcDbEntity
  8
HACHURES
  6
ByLayer
 62
  256
370
   -1
100
AcDbLine
 10
-47
 20
-230
 11
-47
 21
-271
  0
LWPOLYLINE
  5
2A3
100
AcDbEntity
  8
decoupe
  6
ByLayer
 62
  256
370
   -1
100
AcDbPolyline
 90
    4
 70
    1
 43
0
 10
-735.5
 20
-259
 10
-709
 20
-259
 10
-709
 20
-265
 10
-735.5
 20
-265
  0
LWPOLYLINE
  5
2A4
100
AcDbEntity
  8
decoupe
  6
ByLayer
 62
  256
370
   -1
100
AcDbPolyline
 90
    4
 70
    1
 43
0
 10
-735.5
 20
-271
 10
-704
 20
-271
 10
-704
 20
-265
 10
-735.5
 20
-265
  0
LWPOLYLINE
  5
2A5
100
AcDbEntity
  8
decoupe
  6
ByLayer
 62
  256
370
   -1
100
AcDbPolyline
 90
    4
 70
    1
 43
0
 10
-724
 20
-271
 10
-704
 20
-271
 10
-704
 20
-277
 10
-724
 20
-277
  0
LWPOLYLINE
  5
2A6
100
AcDbEntity
  8
decoupe
  6
ByLayer
 62
  256
370
   -1
100
AcDbPolyline
 90
    4
 70
    1
 43
0
 10
-716
 20
-253
 10
-735.5
 20
-253
 10
-735.5
 20
-259
 10
-716
 20
-259
  0
LWPOLYLINE
  5
2A7
100
AcDbEntity
  8
decoupe
  6
ByLayer
 62
  256
370
   -1
100
AcDbPolyline
 90
    4
 70
    1
 43
0
 10
-735.5
 20
-253
 10
-704
 20
-253
 10
-704
 20
-247
 10
-735.5
 20
-247
  0
CIRCLE
  5
2A8
100
AcDbEntity
  8
decoupe
  6
ByLayer
 62
  256
370
   -1
100
AcDbCircle
 10
-870
 20
-250
 40
69
  0
CIRCLE
  5
2A9
100
AcDbEntity
  8
decoupe
  6
ByLayer
 62
  256
370
   -1
100
AcDbCircle
 10
-870
 20
-250
 40
72.5
  0
DIMENSION
  5
2AA
100
AcDbEntity
  8
decoupe
  6
ByLayer
 62
  256
370
   -1
100
AcDbDimension
  2
*D34
 10
-801
 20
-99.99999999999997
 30
0
 11
-870
 21
-92.18749999999997
 31
0
 70
   32
 71
    5
  3
Standard
 53
0
210
0
220
0
230
1
100
AcDbAlignedDimension
 13
-939
 23
-250
 33
0
 14
-801
 24
-250
 34
0
100
AcDbRotatedDimension
  0
DIMENSION
  5
2AB
100
AcDbEntity
  8
decoupe
  6
ByLayer
 62
  256
370
   -1
100
AcDbDimension
  2
*D35
 10
-797.5
 20
-59.99999999999997
 30
0
 11
-870
 21
-52.18749999999997
 31
0
 70
   32
 71
    5
  3
Standard
 53
0
210
0
220
0
230
1
100
AcDbAlignedDimension
 13
-942.5
 23
-250
 33
0
 14
-797.5
 24
-250
 34
0
100
AcDbRotatedDimension
  0
CIRCLE
  5
2AC
100
AcDbEntity
  8
decoupe
  6
ByLayer
 62
  256
370
   -1
100
AcDbCircle
 10
-870
 20
-250
 40
64
  0
DIMENSION
  5
2AD
100
AcDbEntity
  8
decoupe
  6
ByLayer
 62
  256
370
   -1
100
AcDbDimension
  2
*D36
 10
-806
 20
-140
 30
0
 11
-870
 21
-132.1875
 31
0
 70
   33
 71
    5
  3
Standard
 53
0
210
0
220
0
230
1
100
AcDbAlignedDimension
 13
-934
 23
-250
 33
0
 14
-806
 24
-250
 34
0
  0
CIRCLE
  5
2AE
100
AcDbEntity
  8
decoupe
  6
ByLayer
 62
  256
370
   -1
100
AcDbCircle
 10
-942.5
 20
-250
 40
1.5
  0
CIRCLE
  5
2AF
100
AcDbEntity
  8
decoupe
  6
ByLayer
 62
  256
370
   -1
100
AcDbCircle
 10
-906.25
 20
-312.7868417743718
 40
1.5
  0
CIRCLE
  5
2B0
100
AcDbEntity
  8
decoupe
  6
ByLayer
 62
  256
370
   -1
100
AcDbCircle
 10
-833.75
 20
-312.7868417743718
 40
1.5
  0
CIRCLE
  5
2B1
100
AcDbEntity
  8
decoupe
  6
ByLayer
 62
  256
370
   -1
100
AcDbCircle
 10
-797.5
 20
-250
 40
1.5
  0
CIRCLE
  5
2B2
100
AcDbEntity
  8
decoupe
  6
ByLayer
 62
  256
370
   -1
100
AcDbCircle
 10
-833.75
 20
-187.2131582256282
 40
1.5
  0
CIRCLE
  5
2B3
100
AcDbEntity
  8
decoupe
  6
ByLayer
 62
  256
370
   -1
100
AcDbCircle
 10
-906.25
 20
-187.2131582256282
 40
1.5
  0
MTEXT
  5
2B4
100
AcDbEntity
  8
0
  6
ByLayer
 62
  256
370
   -1
100
AcDbMText
 10
-600
 20
-480
 30
0
 40
20
 41
132.777777777779
 71
    5
 72
    1
  1
FUT 138V1
  7
standard
210
0
220
0
230
1
 50
0
 73
    2
 44
1
  0
CIRCLE
  5
2B5
100
AcDbEntity
  8
decoupe
  6
ByLayer
 62
  256
370
   -1
100
AcDbCircle
 10
-850
 20
350
 40
84
  0
CIRCLE
  5
2B6
100
AcDbEntity
  8
decoupe
  6
ByLayer
 62
  256
370
   -1
100
AcDbCircle
 10
-850
 20
350
 40
64
  0
CIRCLE
  5
2B7
100
AcDbEntity
  8
decoupe
  6
ByLayer
 62
  256
370
   -1
100
AcDbCircle
 10
-650
 20
350
 40
64
  0
CIRCLE
  5
2B8
100
AcDbEntity
  8
decoupe
  6
ByLayer
 62
  256
370
   -1
100
AcDbCircle
 10
-850
 20
150
 40
69
  0
CIRCLE
  5
2B9
100
AcDbEntity
  8
decoupe
  6
ByLayer
 62
  256
370
   -1
100
AcDbCircle
 10
-650
 20
150
 40
76
  0
CIRCLE
  5
2BA
100
AcDbEntity
  8
decoupe
  6
ByLayer
 62
  256
370
   -1
100
AcDbCircle
 10
-712.4015424124892
 20
313.0906853959287
 40
1.5
  0
CIRCLE
  5
2BB
100
AcDbEntity
  8
decoupe
  6
ByLayer
 62
  256
370
   -1
100
AcDbCircle
 10
-649.2363671228469
 20
277.5040217334166
 40
1.5
  0
CIRCLE
  5
2BC
100
AcDbEntity
  8
decoupe
  6
ByLayer
 62
  256
370
   -1
100
AcDbCircle
 10
-586.8348247103577
 20
314.4133363374879
 40
1.5
  0
CIRCLE
  5
2BD
100
AcDbEntity
  8
decoupe
  6
ByLayer
 62
  256
370
   -1
100
AcDbCircle
 10
-587.5984575875108
 20
386.9093146040713
 40
1.5
  0
CIRCLE
  5
2BE
100
AcDbEntity
  8
decoupe
  6
ByLayer
 62
  256
370
   -1
100
AcDbCircle
 10
-650.7636328771531
 20
422.4959782665834
 40
1.5
  0
CIRCLE
  5
2BF
100
AcDbEntity
  8
decoupe
  6
ByLayer
 62
  256
370
   -1
100
AcDbCircle
 10
-713.1651752896423
 20
385.5866636625122
 40
1.5
  0
CIRCLE
  5
2C0
100
AcDbEntity
  8
decoupe
  6
ByLayer
 62
  256
370
   -1
100
AcDbCircle
 10
-912.4015424124892
 20
113.0906853959287
 40
1.5
  0
CIRCLE
  5
2C1
100
AcDbEntity
  8
decoupe
  6
ByLayer
 62
  256
370
   -1
100
AcDbCircle
 10
-849.2363671228469
 20
77.50402173341661
 40
1.5
  0
CIRCLE
  5
2C2
100
AcDbEntity
  8
decoupe
  6
ByLayer
 62
  256
370
   -1
100
AcDbCircle
 10
-786.8348247103577
 20
114.4133363374879
 40
1.5
  0
CIRCLE
  5
2C3
100
AcDbEntity
  8
decoupe
  6
ByLayer
 62
  256
370
   -1
100
AcDbCircle
 10
-787.5984575875108
 20
186.9093146040713
 40
1.5
  0
CIRCLE
  5
2C4
100
AcDbEntity
  8
decoupe
  6
ByLayer
 62
  256
370
   -1
100
AcDbCircle
 10
-850.7636328771531
 20
222.4959782665834
 40
1.5
  0
CIRCLE
  5
2C5
100
AcDbEntity
  8
decoupe
  6
ByLayer
 62
  256
370
   -1
100
AcDbCircle
 10
-913.1651752896423
 20
185.5866636625122
 40
1.5
  0
LINE
  5
2C6
100
AcDbEntity
  8
decoupe
  6
ByLayer
 62
  256
370
   -1
100
AcDbLine
 10
150.0000000000018
 20
396.8245735194573
 11
152.7500000000018
 21
398.4122867597293
  0
LINE
  5
2C7
100
AcDbEntity
  8
decoupe
  6
ByLayer
 62
  256
370
   -1
100
AcDbLine
 10
-853.5136328771529
 20
420.9082650263112
 11
-850.7636328771529
 21
419.3205517860401
  0
LINE
  5
2C8
100
AcDbEntity
  8
decoupe
  6
ByLayer
 62
  256
370
   -1
100
AcDbLine
 10
-848.0136328771529
 20
420.9082650263121
 11
-848.0136328771533
 21
424.0836915068548
  0
LINE
  5
2C9
100
AcDbEntity
  8
decoupe
  6
ByLayer
 62
  256
370
   -1
100
AcDbLine
 10
-848.0136328771533
 20
424.0836915068548
 11
-850.7636328771533
 21
425.6714047471264
  0
LINE
  5
2CA
100
AcDbEntity
  8
decoupe
  6
ByLayer
 62
  256
370
   -1
100
AcDbLine
 10
-850.7636328771533
 20
425.6714047471264
 11
-853.5136328771529
 21
424.0836915068546
  0
LINE
  5
2CB
100
AcDbEntity
  8
decoupe
  6
ByLayer
 62
  256
370
   -1
100
AcDbLine
 10
-853.5136328771529
 20
424.0836915068546
 11
-853.5136328771529
 21
420.9082650263117
  0
LINE
  5
2CC
100
AcDbEntity
  8
decoupe
  6
ByLayer
 62
  256
370
   -1
100
AcDbLine
 10
-850.7636328771529
 20
419.3205517860401
 11
-848.0136328771529
 21
420.9082650263121
  0
LINE
  5
2CD
100
AcDbEntity
  8
decoupe
  6
ByLayer
 62
  256
370
   -1
100
AcDbLine
 10
-913.1651752896415
 20
382.411237181969
 11
-910.415175289642
 21
383.9989504222407
  0
LINE
  5
2CE
100
AcDbEntity
  8
decoupe
  6
ByLayer
 62
  256
370
   -1
100
AcDbLine
 10
-910.4151752896423
 20
387.1743769027839
 11
-913.1651752896424
 21
388.7620901430549
  0
LINE
  5
2CF
100
AcDbEntity
  8
decoupe
  6
ByLayer
 62
  256
370
   -1
100
AcDbLine
 10
-913.1651752896424
 20
388.7620901430549
 11
-915.9151752896425
 21
387.1743769027834
  0
LINE
  5
2D0
100
AcDbEntity
  8
decoupe
  6
ByLayer
 62
  256
370
   -1
100
AcDbLine
 10
-915.9151752896425
 20
387.1743769027834
 11
-915.915175289642
 21
383.9989504222407
  0
LINE
  5
2D1
100
AcDbEntity
  8
decoupe
  6
ByLayer
 62
  256
370
   -1
100
AcDbLine
 10
-915.915175289642
 20
383.9989504222407
 11
-913.165175289642
 21
382.4112371819693
  0
LINE
  5
2D2
100
AcDbEntity
  8
decoupe
  6
ByLayer
 62
  256
370
   -1
100
AcDbLine
 10
-910.415175289642
 20
383.9989504222407
 11
-910.4151752896423
 21
387.1743769027839
  0
LINE
  5
2D3
100
AcDbEntity
  8
decoupe
  6
ByLayer
 62
  256
370
   -1
100
AcDbLine
 10
-909.6515424124888
 20
311.5029721556578
 11
-909.6515424124891
 21
314.6783986362005
  0
LINE
  5
2D4
100
AcDbEntity
  8
decoupe
  6
ByLayer
 62
  256
370
   -1
100
AcDbLine
 10
-912.4015424124894
 20
316.2661118764718
 11
-915.1515424124891
 21
314.6783986362
  0
LINE
  5
2D5
100
AcDbEntity
  8
decoupe
  6
ByLayer
 62
  256
370
   -1
100
AcDbLine
 10
-915.1515424124891
 20
314.6783986362
 11
-915.1515424124892
 21
311.502972155657
  0
LINE
  5
2D6
100
AcDbEntity
  8
decoupe
  6
ByLayer
 62
  256
370
   -1
100
AcDbLine
 10
-915.1515424124892
 20
311.502972155657
 11
-912.4015424124891
 21
309.9152589153861
  0
LINE
  5
2D7
100
AcDbEntity
  8
decoupe
  6
ByLayer
 62
  256
370
   -1
100
AcDbLine
 10
-912.4015424124891
 20
309.9152589153861
 11
-909.6515424124891
 21
311.5029721556576
  0
LINE
  5
2D8
100
AcDbEntity
  8
decoupe
  6
ByLayer
 62
  256
370
   -1
100
AcDbLine
 10
-909.6515424124891
 20
314.6783986362005
 11
-912.4015424124894
 21
316.2661118764718
  0
LINE
  5
2D9
100
AcDbEntity
  8
decoupe
  6
ByLayer
 62
  256
370
   -1
100
AcDbLine
 10
-846.4863671228471
 20
279.0917349736888
 11
-849.2363671228471
 21
280.6794482139599
  0
LINE
  5
2DA
100
AcDbEntity
  8
decoupe
  6
ByLayer
 62
  256
370
   -1
100
AcDbLine
 10
-851.9863671228471
 20
279.0917349736879
 11
-851.9863671228467
 21
275.9163084931452
  0
LINE
  5
2DB
100
AcDbEntity
  8
decoupe
  6
ByLayer
 62
  256
370
   -1
100
AcDbLine
 10
-851.9863671228467
 20
275.9163084931452
 11
-849.2363671228467
 21
274.3285952528736
  0
LINE
  5
2DC
100
AcDbEntity
  8
decoupe
  6
ByLayer
 62
  256
370
   -1
100
AcDbLine
 10
-849.2363671228467
 20
274.3285952528736
 11
-846.4863671228471
 21
275.9163084931454
  0
LINE
  5
2DD
100
AcDbEntity
  8
decoupe
  6
ByLayer
 62
  256
370
   -1
100
AcDbLine
 10
-846.4863671228471
 20
275.9163084931454
 11
-846.4863671228471
 21
279.0917349736883
  0
LINE
  5
2DE
100
AcDbEntity
  8
decoupe
  6
ByLayer
 62
  256
370
   -1
100
AcDbLine
 10
-849.2363671228471
 20
280.6794482139599
 11
-851.9863671228471
 21
279.0917349736879
  0
LINE
  5
2DF
100
AcDbEntity
  8
decoupe
  6
ByLayer
 62
  256
370
   -1
100
AcDbLine
 10
-786.8348247103585
 20
317.5887628180309
 11
-789.5848247103581
 21
316.0010495777593
  0
LINE
  5
2E0
100
AcDbEntity
  8
decoupe
  6
ByLayer
 62
  256
370
   -1
100
AcDbLine
 10
-789.5848247103577
 20
312.8256230972161
 11
-786.8348247103576
 21
311.2379098569451
  0
LINE
  5
2E1
100
AcDbEntity
  8
decoupe
  6
ByLayer
 62
  256
370
   -1
100
AcDbLine
 10
-786.8348247103576
 20
311.2379098569451
 11
-784.0848247103575
 21
312.8256230972165
  0
LINE
  5
2E2
100
AcDbEntity
  8
decoupe
  6
ByLayer
 62
  256
370
   -1
100
AcDbLine
 10
-784.0848247103575
 20
312.8256230972165
 11
-784.084824710358
 21
316.0010495777593
  0
LINE
  5
2E3
100
AcDbEntity
  8
decoupe
  6
ByLayer
 62
  256
370
   -1
100
AcDbLine
 10
-784.084824710358
 20
316.0010495777593
 11
-786.834824710358
 21
317.5887628180307
  0
LINE
  5
2E4
100
AcDbEntity
  8
decoupe
  6
ByLayer
 62
  256
370
   -1
100
AcDbLine
 10
-789.5848247103581
 20
316.0010495777593
 11
-789.5848247103577
 21
312.8256230972161
  0
LINE
  5
2E5
100
AcDbEntity
  8
decoupe
  6
ByLayer
 62
  256
370
   -1
100
AcDbLine
 10
-790.3484575875112
 20
388.4970278443421
 11
-790.3484575875109
 21
385.3216013637994
  0
LINE
  5
2E6
100
AcDbEntity
  8
decoupe
  6
ByLayer
 62
  256
370
   -1
100
AcDbLine
 10
-787.5984575875104
 20
383.7338881235282
 11
-784.8484575875109
 21
385.3216013638
  0
LINE
  5
2E7
100
AcDbEntity
  8
decoupe
  6
ByLayer
 62
  256
370
   -1
100
AcDbLine
 10
-784.8484575875109
 20
385.3216013638
 11
-784.8484575875108
 21
388.4970278443429
  0
LINE
  5
2E8
100
AcDbEntity
  8
decoupe
  6
ByLayer
 62
  256
370
   -1
100
AcDbLine
 10
-784.8484575875108
 20
388.4970278443429
 11
-787.5984575875109
 21
390.0847410846139
  0
LINE
  5
2E9
100
AcDbEntity
  8
decoupe
  6
ByLayer
 62
  256
370
   -1
100
AcDbLine
 10
-787.5984575875109
 20
390.0847410846139
 11
-790.3484575875108
 21
388.4970278443424
  0
LINE
  5
2EA
100
AcDbEntity
  8
decoupe
  6
ByLayer
 62
  256
370
   -1
100
AcDbLine
 10
-790.3484575875109
 20
385.3216013637994
 11
-787.5984575875104
 21
383.7338881235282
  0
MTEXT
  5
2EB
100
AcDbEntity
  8
gravure
  6
ByLayer
 62
  256
370
   -1
100
AcDbMText
 10
-811.5
 20
416.6839560914018
 30
0
 40
5
 41
25.55555555555587
 71
    5
 72
    1
  1
138V1/A
  7
standard
210
0
220
0
230
1
 50
329.9999999999999
 73
    2
 44
1
  0
MTEXT
  5
2EC
100
AcDbEntity
  8
gravure
  6
ByLayer
 62
  256
370
   -1
100
AcDbMText
 10
-611.5
 20
416.6839560914018
 30
0
 40
5
 41
25.00000000000031
 71
    5
 72
    1
  1
138V1/B
  7
standard
210
0
220
0
230
1
 50
329.9999999999999
 73
    2
 44
1
  0
MTEXT
  5
2ED
100
AcDbEntity
  8
gravure
  6
ByLayer
 62
  256
370
   -1
100
AcDbMText
 10
-806.875
 20
224.6946910764079
 30
0
 40
5
 41
24.44444444444476
 71
    5
 72
    1
  1
138V1/C
  7
standard
210
0
220
0
230
1
 50
329.9999999999999
 73
    2
 44
1
  0
MTEXT
  5
2EE
100
AcDbEntity
  8
gravure
  6
ByLayer
 62
  256
370
   -1
100
AcDbMText
 10
-605.1249980457869
 20
227.725781117919
 30
0
 40
5
 41
25.00000000000062
 71
    5
 72
    1
  1
138V1/D
  7
standard
210
0
220
0
230
1
 50
329.9999999999999
 73
    2
 44
1
  0
ENDSEC
  0
SECTION
  2
OBJECTS
  0
DICTIONARY
  5
C
330
0
100
AcDbDictionary
281
    1
  3
ACAD_GROUP
350
D
  0
DICTIONARY
  5
D
330
C
100
AcDbDictionary
281
    1
  0
PLOTSETTINGS
  5
2EF
100
AcDbPlotSettings
  6
1x1
 40
0
 41
0
 42
0
 43
0
  0
ENDSEC
  0
EOF
