999
dxfrw 0.6.3
  0
SECTION
  2
HEADER
  9
$ACADVER
  1
AC1021
  9
$DWGCODEPAGE
  3
ANSI_1252
  9
$INSBASE
 10
0
 20
0
 30
0
  9
$EXTMIN
 10
-295.5
 20
-95.5
 30
0
  9
$EXTMAX
 10
95.5
 20
295.5
 30
0
  9
$LIMMIN
 10
0
 20
0
  9
$LIMMAX
 10
420
 20
297
  9
$ORTHOMODE
 70
    0
  9
$REGENMODE
 70
    1
  9
$FILLMODE
 70
    1
  9
$QTEXTMODE
 70
    0
  9
$MIRRTEXT
 70
    0
  9
$LTSCALE
 40
1
  9
$ATTMODE
 70
    0
  9
$TEXTSIZE
 40
2.5
  9
$TRACEWID
 40
15.68
  9
$TEXTSTYLE
  7
STANDARD
  9
$CLAYER
  8
0
  9
$CELTYPE
  6
BYLAYER
  9
$CECOLOR
 62
  256
  9
$CELTSCALE
 40
1
  9
$DISPSILH
 70
    0
  9
$DIMSCALE
 40
2.5
  9
$DIMASZ
 40
2.5
  9
$DIMEXO
 40
0.625
  9
$DIMDLI
 40
3.75
  9
$DIMRND
 40
0
  9
$DIMDLE
 40
0
  9
$DIMEXE
 40
1.25
  9
$DIMTP
 40
0
  9
$DIMTM
 40
0
  9
$DIMTXT
 40
5
  9
$DIMCEN
 40
2.5
  9
$DIMTSZ
 40
0
  9
$DIMTOL
 70
    0
  9
$DIMLIM
 70
    0
  9
$DIMTIH
 70
    0
  9
$DIMTOH
 70
    0
  9
$DIMSE1
 70
    0
  9
$DIMSE2
 70
    0
  9
$DIMTAD
 70
    1
  9
$DIMZIN
 70
    1
  9
$DIMBLK
  1

  9
$DIMASO
 70
    1
  9
$DIMSHO
 70
    1
  9
$DIMPOST
  1

  9
$DIMAPOST
  1

  9
$DIMALT
 70
    0
  9
$DIMALTD
 70
    3
  9
$DIMALTF
 40
0.03937
  9
$DIMLFAC
 40
1
  9
$DIMTOFL
 70
    1
  9
$DIMTVP
 40
0
  9
$DIMTIX
 70
    0
  9
$DIMSOXD
 70
    0
  9
$DIMSAH
 70
    0
  9
$DIMBLK1
  1

  9
$DIMBLK2
  1

  9
$DIMSTYLE
  2
STANDARD
  9
$DIMCLRD
 70
    0
  9
$DIMCLRE
 70
    0
  9
$DIMCLRT
 70
    0
  9
$DIMTFAC
 40
1
  9
$DIMGAP
 40
0.625
  9
$DIMJUST
 70
    0
  9
$DIMSD1
 70
    0
  9
$DIMSD2
 70
    0
  9
$DIMTOLJ
 70
    0
  9
$DIMTZIN
 70
    8
  9
$DIMALTZ
 70
    0
  9
$DIMALTTZ
 70
    0
  9
$DIMUPT
 70
    0
  9
$DIMDEC
 70
    1
  9
$DIMTDEC
 70
    2
  9
$DIMALTU
 70
    2
  9
$DIMALTTD
 70
    3
  9
$DIMTXSTY
  7
standard
  9
$DIMAUNIT
 70
    0
  9
$DIMADEC
 70
    2
  9
$DIMALTRND
 40
0
  9
$DIMAZIN
 70
    0
  9
$DIMDSEP
 70
   44
  9
$DIMATFIT
 70
    3
  9
$DIMFRAC
 70
    0
  9
$DIMLDRBLK
  1
STANDARD
  9
$DIMLUNIT
 70
    2
  9
$DIMLWD
 70
   -2
  9
$DIMLWE
 70
   -2
  9
$DIMTMOVE
 70
    0
  9
$DIMFXL
 40
1
  9
$DIMFXLON
 70
    0
  9
$DIMJOGANG
 40
0.7854
  9
$DIMTFILL
 70
    0
  9
$DIMTFILLCLR
 70
    0
  9
$DIMARCSYM
 70
    0
  9
$DIMLTYPE
  6

  9
$DIMLTEX1
  6

  9
$DIMLTEX2
  6

  9
$LUNITS
 70
    2
  9
$LUPREC
 70
    4
  9
$SKETCHINC
 40
1
  9
$FILLETRAD
 40
0
  9
$AUNITS
 70
    0
  9
$AUPREC
 70
    2
  9
$MENU
  1
.
  9
$ELEVATION
 40
0
  9
$PELEVATION
 40
0
  9
$THICKNESS
 40
0
  9
$LIMCHECK
 70
    0
  9
$CHAMFERA
 40
0
  9
$CHAMFERB
 40
0
  9
$CHAMFERC
 40
0
  9
$CHAMFERD
 40
0
  9
$SKPOLY
 70
    0
  9
$USRTIMER
 70
    1
  9
$ANGBASE
 50
0
  9
$ANGDIR
 70
    0
  9
$PDMODE
 70
   34
  9
$PDSIZE
 40
0
  9
$PLINEWID
 40
0
  9
$SPLFRAME
 70
    0
  9
$SPLINETYPE
 70
    2
  9
$SPLINESEGS
 70
    8
  9
$HANDSEED
  5
20000
  9
$SURFTAB1
 70
    6
  9
$SURFTAB2
 70
    6
  9
$SURFTYPE
 70
    6
  9
$SURFU
 70
    6
  9
$SURFV
 70
    6
  9
$UCSBASE
  2

  9
$UCSNAME
  2

  9
$UCSORG
 10
0
 20
0
 30
0
  9
$UCSXDIR
 10
1
 20
0
 30
0
  9
$UCSYDIR
 10
0
 20
1
 30
0
  9
$UCSORTHOREF
  2

  9
$UCSORTHOVIEW
 70
    0
  9
$UCSORGTOP
 10
0
 20
0
 30
0
  9
$UCSORGBOTTOM
 10
0
 20
0
 30
0
  9
$UCSORGLEFT
 10
0
 20
0
 30
0
  9
$UCSORGRIGHT
 10
0
 20
0
 30
0
  9
$UCSORGFRONT
 10
0
 20
0
 30
0
  9
$UCSORGBACK
 10
0
 20
0
 30
0
  9
$PUCSBASE
  2

  9
$PUCSNAME
  2

  9
$PUCSORG
 10
0
 20
0
 30
0
  9
$PUCSXDIR
 10
1
 20
0
 30
0
  9
$PUCSYDIR
 10
0
 20
1
 30
0
  9
$PUCSORTHOREF
  2

  9
$PUCSORTHOVIEW
 70
    0
  9
$PUCSORGTOP
 10
0
 20
0
 30
0
  9
$PUCSORGBOTTOM
 10
0
 20
0
 30
0
  9
$PUCSORGLEFT
 10
0
 20
0
 30
0
  9
$PUCSORGRIGHT
 10
0
 20
0
 30
0
  9
$PUCSORGFRONT
 10
0
 20
0
 30
0
  9
$PUCSORGBACK
 10
0
 20
0
 30
0
  9
$USERI1
 70
    0
  9
$USERI2
 70
    0
  9
$USERI3
 70
    0
  9
$USERI4
 70
    0
  9
$USERI5
 70
    0
  9
$USERR1
 40
0
  9
$USERR2
 40
0
  9
$USERR3
 40
0
  9
$USERR4
 40
0
  9
$USERR5
 40
0
  9
$WORLDVIEW
 70
    1
  9
$SHADEDGE
 70
    3
  9
$SHADEDIF
 70
   70
  9
$TILEMODE
 70
    1
  9
$MAXACTVP
 70
   64
  9
$PINSBASE
 10
148.5
 20
105
 30
0
  9
$PLIMCHECK
 70
    0
  9
$PEXTMIN
 10
0
 20
0
 30
0
  9
$PEXTMAX
 10
0
 20
0
 30
0
  9
$GRIDMODE
 70
    1
  9
$SNAPSTYLE
 70
    0
  9
$GRIDUNIT
 10
0
 20
0
  9
$PLIMMIN
 10
0
 20
0
  9
$PLIMMAX
 10
297
 20
210
  9
$UNITMODE
 70
    0
  9
$VISRETAIN
 70
    1
  9
$PLINEGEN
 70
    0
  9
$PSLTSCALE
 70
    1
  9
$TREEDEPTH
 70
 3020
  9
$CMLSTYLE
  2
Standard
  9
$CMLJUST
 70
    0
  9
$CMLSCALE
 40
20
  9
$PROXYGRAPHICS
 70
    1
  9
$MEASUREMENT
 70
    1
  9
$CELWEIGHT
370
   -1
  9
$ENDCAPS
280
    0
  9
$JOINSTYLE
280
    0
  9
$LWDISPLAY
290
    0
  9
$INSUNITS
 70
    0
  9
$HYPERLINKBASE
  1

  9
$STYLESHEET
  1

  9
$XEDIT
290
    1
  9
$CEPSNTYPE
380
    0
  9
$PSTYLEMODE
290
    1
  9
$EXTNAMES
290
    1
  9
$PSVPSCALE
 40
0.21
  9
$OLESTARTUP
290
    0
  9
$SORTENTS
280
  127
  9
$INDEXCTL
280
    0
  9
$HIDETEXT
280
    1
  9
$XCLIPFRAME
290
    0
  9
$HALOGAP
280
    0
  9
$OBSCOLOR
 70
  257
  9
$OBSLTYPE
280
    0
  9
$INTERSECTIONDISPLAY
280
    0
  9
$INTERSECTIONCOLOR
 70
  257
  9
$DIMASSOC
280
    1
  9
$PROJECTNAME
  1

  9
$CAMERADISPLAY
290
    0
  9
$LENSLENGTH
 40
50
  9
$CAMERAHEIGHT
 40
0
  9
$STEPSPERSEC
 40
2
  9
$STEPSIZE
 40
50
  9
$3DDWFPREC
 40
2
  9
$PSOLWIDTH
 40
5
  9
$PSOLHEIGHT
 40
80
  9
$LOFTANG1
 40
1.570796326794897
  9
$LOFTANG2
 40
1.570796326794897
  9
$LOFTMAG1
 40
0
  9
$LOFTMAG2
 40
0
  9
$LOFTPARAM
 70
    7
  9
$LOFTNORMALS
280
    1
  9
$LATITUDE
 40
1
  9
$LONGITUDE
 40
1
  9
$NORTHDIRECTION
 40
0
  9
$TIMEZONE
 70
-8000
  9
$LIGHTGLYPHDISPLAY
280
    1
  9
$TILEMODELIGHTSYNCH
280
    1
  9
$SOLIDHIST
280
    1
  9
$SHOWHIST
280
    1
  9
$DWFFRAME
280
    2
  9
$DGNFRAME
280
    0
  9
$REALWORLDSCALE
290
    1
  9
$INTERFERECOLOR
 62
    1
  9
$CSHADOW
280
    0
  9
$SHADOWPLANELOCATION
 40
0
  0
ENDSEC
  0
SECTION
  2
CLASSES
  0
ENDSEC
  0
SECTION
  2
TABLES
  0
TABLE
  2
VPORT
  5
8
330
0
100
AcDbSymbolTable
 70
    1
  0
VPORT
  5
31
330
2
100
AcDbSymbolTableRecord
100
AcDbViewportTableRecord
  2
*ACTIVE
 70
    0
 10
0
 20
0
 11
1
 21
1
 12
79.98814396151056
 22
76.4351398447692
 13
0
 23
0
 14
10
 24
10
 15
10
 25
10
 16
0
 26
0
 36
1
 17
0
 27
0
 37
0
 40
139.7514952584934
 41
1.842242503259452
 42
50
 43
0
 44
0
 50
0
 51
0
 71
    0
 72
  100
 73
    1
 74
    3
 75
    0
 76
    1
 77
    0
 78
    0
281
    0
 65
    1
110
0
120
0
130
0
111
1
121
0
131
0
112
0
122
1
132
0
 79
    0
146
0
348
10020
 60
    7
 61
    5
292
1
282
    1
141
0
142
0
 63
  250
421
3358443
  0
ENDTAB
  0
TABLE
  2
LTYPE
  5
5
330
0
100
AcDbSymbolTable
 70
    4
  0
LTYPE
  5
14
330
5
100
AcDbSymbolTableRecord
100
AcDbLinetypeTableRecord
  2
ByBlock
 70
    0
  3

 72
   65
 73
    0
 40
0
  0
LTYPE
  5
15
330
5
100
AcDbSymbolTableRecord
100
AcDbLinetypeTableRecord
  2
ByLayer
 70
    0
  3

 72
   65
 73
    0
 40
0
  0
LTYPE
  5
16
330
5
100
AcDbSymbolTableRecord
100
AcDbLinetypeTableRecord
  2
Continuous
 70
    0
  3
Solid line
 72
   65
 73
    0
 40
0
  0
LTYPE
  5
32
330
5
100
AcDbSymbolTableRecord
100
AcDbLinetypeTableRecord
  2
DOT
 70
    0
  3
Dot . . . . . . . . . . . . . . . . . . . . . .
 72
   65
 73
    2
 40
6.35
 49
0
 74
    0
 49
-6.35
 74
    0
  0
LTYPE
  5
33
330
5
100
AcDbSymbolTableRecord
100
AcDbLinetypeTableRecord
  2
DOTTINY
 70
    0
  3
Dot (.15x) .....................................
 72
   65
 73
    2
 40
0.9525
 49
0
 74
    0
 49
-0.9525
 74
    0
  0
LTYPE
  5
34
330
5
100
AcDbSymbolTableRecord
100
AcDbLinetypeTableRecord
  2
DOT2
 70
    0
  3
Dot (.5x) .....................................
 72
   65
 73
    2
 40
3.175
 49
0
 74
    0
 49
-3.175
 74
    0
  0
LTYPE
  5
35
330
5
100
AcDbSymbolTableRecord
100
AcDbLinetypeTableRecord
  2
DOTX2
 70
    0
  3
Dot (2x) .  .  .  .  .  .  .  .  .  .  .  .  .
 72
   65
 73
    2
 40
12.7
 49
0
 74
    0
 49
-12.7
 74
    0
  0
LTYPE
  5
36
330
5
100
AcDbSymbolTableRecord
100
AcDbLinetypeTableRecord
  2
DASHED
 70
    0
  3
Dashed _ _ _ _ _ _ _ _ _ _ _ _ _ _ _ _ _
 72
   65
 73
    2
 40
19.05
 49
12.7
 74
    0
 49
-6.35
 74
    0
  0
LTYPE
  5
37
330
5
100
AcDbSymbolTableRecord
100
AcDbLinetypeTableRecord
  2
DASHEDTINY
 70
    0
  3
Dashed (.15x) _ _ _ _ _ _ _ _ _ _ _ _ _ _ _ _ _
 72
   65
 73
    2
 40
2.8575
 49
1.905
 74
    0
 49
-0.9525
 74
    0
  0
LTYPE
  5
38
330
5
100
AcDbSymbolTableRecord
100
AcDbLinetypeTableRecord
  2
DASHED2
 70
    0
  3
Dashed (.5x) _ _ _ _ _ _ _ _ _ _ _ _ _ _ _ _ _
 72
   65
 73
    2
 40
9.524999999999999
 49
6.35
 74
    0
 49
-3.175
 74
    0
  0
LTYPE
  5
39
330
5
100
AcDbSymbolTableRecord
100
AcDbLinetypeTableRecord
  2
DASHEDX2
 70
    0
  3
Dashed (2x) ____  ____  ____  ____  ____  ___
 72
   65
 73
    2
 40
38.09999999999999
 49
25.4
 74
    0
 49
-12.7
 74
    0
  0
LTYPE
  5
3A
330
5
100
AcDbSymbolTableRecord
100
AcDbLinetypeTableRecord
  2
DASHDOT
 70
    0
  3
Dash dot __ . __ . __ . __ . __ . __ . __ . __
 72
   65
 73
    4
 40
25.4
 49
12.7
 74
    0
 49
-6.35
 74
    0
 49
0
 74
    0
 49
-6.35
 74
    0
  0
LTYPE
  5
3B
330
5
100
AcDbSymbolTableRecord
100
AcDbLinetypeTableRecord
  2
DASHDOTTINY
 70
    0
  3
Dash dot (.15x) _._._._._._._._._._._._._._._.
 72
   65
 73
    4
 40
3.81
 49
1.905
 74
    0
 49
-0.9525
 74
    0
 49
0
 74
    0
 49
-0.9525
 74
    0
  0
LTYPE
  5
3C
330
5
100
AcDbSymbolTableRecord
100
AcDbLinetypeTableRecord
  2
DASHDOT2
 70
    0
  3
Dash dot (.5x) _._._._._._._._._._._._._._._.
 72
   65
 73
    4
 40
12.7
 49
6.35
 74
    0
 49
-3.175
 74
    0
 49
0
 74
    0
 49
-3.175
 74
    0
  0
LTYPE
  5
3D
330
5
100
AcDbSymbolTableRecord
100
AcDbLinetypeTableRecord
  2
DASHDOTX2
 70
    0
  3
Dash dot (2x) ____  .  ____  .  ____  .  ___
 72
   65
 73
    4
 40
50.8
 49
25.4
 74
    0
 49
-12.7
 74
    0
 49
0
 74
    0
 49
-12.7
 74
    0
  0
LTYPE
  5
3E
330
5
100
AcDbSymbolTableRecord
100
AcDbLinetypeTableRecord
  2
DIVIDE
 70
    0
  3
Divide ____ . . ____ . . ____ . . ____ . . ____
 72
   65
 73
    6
 40
31.75
 49
12.7
 74
    0
 49
-6.35
 74
    0
 49
0
 74
    0
 49
-6.35
 74
    0
 49
0
 74
    0
 49
-6.35
 74
    0
  0
LTYPE
  5
3F
330
5
100
AcDbSymbolTableRecord
100
AcDbLinetypeTableRecord
  2
DIVIDETINY
 70
    0
  3
Divide (.15x) __..__..__..__..__..__..__..__.._
 72
   65
 73
    6
 40
4.7625
 49
1.905
 74
    0
 49
-0.9525
 74
    0
 49
0
 74
    0
 49
-0.9525
 74
    0
 49
0
 74
    0
 49
-0.9525
 74
    0
  0
LTYPE
  5
40
330
5
100
AcDbSymbolTableRecord
100
AcDbLinetypeTableRecord
  2
DIVIDE2
 70
    0
  3
Divide (.5x) __..__..__..__..__..__..__..__.._
 72
   65
 73
    6
 40
15.875
 49
6.35
 74
    0
 49
-3.175
 74
    0
 49
0
 74
    0
 49
-3.175
 74
    0
 49
0
 74
    0
 49
-3.175
 74
    0
  0
LTYPE
  5
41
330
5
100
AcDbSymbolTableRecord
100
AcDbLinetypeTableRecord
  2
DIVIDEX2
 70
    0
  3
Divide (2x) ________  .  .  ________  .  .  _
 72
   65
 73
    6
 40
63.5
 49
25.4
 74
    0
 49
-12.7
 74
    0
 49
0
 74
    0
 49
-12.7
 74
    0
 49
0
 74
    0
 49
-12.7
 74
    0
  0
LTYPE
  5
42
330
5
100
AcDbSymbolTableRecord
100
AcDbLinetypeTableRecord
  2
BORDER
 70
    0
  3
Border __ __ . __ __ . __ __ . __ __ . __ __ .
 72
   65
 73
    6
 40
44.45
 49
12.7
 74
    0
 49
-6.35
 74
    0
 49
12.7
 74
    0
 49
-6.35
 74
    0
 49
0
 74
    0
 49
-6.35
 74
    0
  0
LTYPE
  5
43
330
5
100
AcDbSymbolTableRecord
100
AcDbLinetypeTableRecord
  2
BORDERTINY
 70
    0
  3
Border (.15x) __.__.__.__.__.__.__.__.__.__.__.
 72
   65
 73
    6
 40
6.6675
 49
1.905
 74
    0
 49
-0.9525
 74
    0
 49
1.905
 74
    0
 49
-0.9525
 74
    0
 49
0
 74
    0
 49
-0.9525
 74
    0
  0
LTYPE
  5
44
330
5
100
AcDbSymbolTableRecord
100
AcDbLinetypeTableRecord
  2
BORDER2
 70
    0
  3
Border (.5x) __.__.__.__.__.__.__.__.__.__.__.
 72
   65
 73
    6
 40
22.225
 49
6.35
 74
    0
 49
-3.175
 74
    0
 49
6.35
 74
    0
 49
-3.175
 74
    0
 49
0
 74
    0
 49
-3.175
 74
    0
  0
LTYPE
  5
45
330
5
100
AcDbSymbolTableRecord
100
AcDbLinetypeTableRecord
  2
BORDERX2
 70
    0
  3
Border (2x) ____  ____  .  ____  ____  .  ___
 72
   65
 73
    6
 40
88.89999999999999
 49
25.4
 74
    0
 49
-12.7
 74
    0
 49
25.4
 74
    0
 49
-12.7
 74
    0
 49
0
 74
    0
 49
-12.7
 74
    0
  0
LTYPE
  5
46
330
5
100
AcDbSymbolTableRecord
100
AcDbLinetypeTableRecord
  2
CENTER
 70
    0
  3
Center ____ _ ____ _ ____ _ ____ _ ____ _ ____
 72
   65
 73
    4
 40
50.8
 49
31.75
 74
    0
 49
-6.35
 74
    0
 49
6.35
 74
    0
 49
-6.35
 74
    0
  0
LTYPE
  5
47
330
5
100
AcDbSymbolTableRecord
100
AcDbLinetypeTableRecord
  2
CENTERTINY
 70
    0
  3
Center (.15x) ___ _ ___ _ ___ _ ___ _ ___ _ ___
 72
   65
 73
    4
 40
7.619999999999999
 49
4.7625
 74
    0
 49
-0.9525
 74
    0
 49
0.9525
 74
    0
 49
-0.9525
 74
    0
  0
LTYPE
  5
48
330
5
100
AcDbSymbolTableRecord
100
AcDbLinetypeTableRecord
  2
CENTER2
 70
    0
  3
Center (.5x) ___ _ ___ _ ___ _ ___ _ ___ _ ___
 72
   65
 73
    4
 40
28.575
 49
19.05
 74
    0
 49
-3.175
 74
    0
 49
3.175
 74
    0
 49
-3.175
 74
    0
  0
LTYPE
  5
49
330
5
100
AcDbSymbolTableRecord
100
AcDbLinetypeTableRecord
  2
CENTERX2
 70
    0
  3
Center (2x) ________  __  ________  __  _____
 72
   65
 73
    4
 40
101.6
 49
63.5
 74
    0
 49
-12.7
 74
    0
 49
12.7
 74
    0
 49
-12.7
 74
    0
  0
ENDTAB
  0
TABLE
  2
LAYER
  5
2
330
0
100
AcDbSymbolTable
 70
    1
  0
LAYER
  5
10
330
2
100
AcDbSymbolTableRecord
100
AcDbLayerTableRecord
  2
0
 70
    0
 62
    7
  6
CONTINUOUS
370
    0
390
F
  0
LAYER
  5
4A
330
2
100
AcDbSymbolTableRecord
100
AcDbLayerTableRecord
  2
decoupe
 70
    0
 62
    7
  6
CONTINUOUS
370
    0
390
F
  0
LAYER
  5
4B
330
2
100
AcDbSymbolTableRecord
100
AcDbLayerTableRecord
  2
gravure
 70
    0
 62
    7
  6
CONTINUOUS
370
    0
390
F
  0
ENDTAB
  0
TABLE
  2
STYLE
  5
3
330
0
100
AcDbSymbolTable
 70
    3
  0
STYLE
  5
4C
330
2
100
AcDbSymbolTableRecord
100
AcDbTextStyleTableRecord
  2
Standard
 70
    0
 40
0
 41
1
 50
0
 71
    0
 42
1
  3
txt
  4

  0
ENDTAB
  0
TABLE
  2
VIEW
  5
6
330
0
100
AcDbSymbolTable
 70
    0
  0
ENDTAB
  0
TABLE
  2
UCS
  5
7
330
0
100
AcDbSymbolTable
 70
    0
  0
ENDTAB
  0
TABLE
  2
APPID
  5
9
330
0
100
AcDbSymbolTable
 70
    1
  0
APPID
  5
12
330
9
100
AcDbSymbolTableRecord
100
AcDbRegAppTableRecord
  2
ACAD
 70
    0
  0
APPID
  5
4D
330
9
100
AcDbSymbolTableRecord
100
AcDbRegAppTableRecord
  2
LibreCad
 70
    0
  0
ENDTAB
  0
TABLE
  2
DIMSTYLE
  5
A
330
0
100
AcDbSymbolTable
 70
    1
100
AcDbDimStyleTable
 71
    1
  0
DIMSTYLE
105
4E
330
A
100
AcDbSymbolTableRecord
100
AcDbDimStyleTableRecord
  2
Standard
 70
    0
 40
2.5
 41
2.5
 42
0.625
 43
0.38
 44
1.25
 45
0
 46
0
 47
0
 48
0
 49
1
140
5
141
0.09
142
0
143
25.4
144
1
145
0
146
1
147
0.625
148
0
 71
    0
 72
    0
 73
    0
 74
    1
 75
    0
 76
    0
 77
    0
 78
    1
 79
    0
170
    0
171
    2
172
    0
173
    0
174
    0
175
    0
176
    0
177
    0
178
    0
179
    2
271
    1
272
    4
273
    2
274
    2
275
    0
276
    0
277
    2
278
   44
279
    0
280
    0
281
    0
282
    0
283
    1
284
    0
285
    0
286
    0
288
    0
289
    3
340
standard
341

371
   -2
372
   -2
  0
ENDTAB
  0
TABLE
  2
BLOCK_RECORD
  5
1
330
0
100
AcDbSymbolTable
 70
    2
  0
BLOCK_RECORD
  5
1F
330
1
100
AcDbSymbolTableRecord
100
AcDbBlockTableRecord
  2
*Model_Space
 70
    0
280
    1
281
    0
  0
BLOCK_RECORD
  5
1E
330
1
100
AcDbSymbolTableRecord
100
AcDbBlockTableRecord
  2
*Paper_Space
 70
    0
280
    1
281
    0
  0
ENDTAB
  0
ENDSEC
  0
SECTION
  2
BLOCKS
  0
BLOCK
  5
20
330
1F
100
AcDbEntity
  8
0
100
AcDbBlockBegin
  2
*Model_Space
 70
    0
 10
0
 20
0
 30
0
  3
*Model_Space
  1

  0
ENDBLK
  5
21
330
1F
100
AcDbEntity
  8
0
100
AcDbBlockEnd
  0
BLOCK
  5
1C
330
1B
100
AcDbEntity
  8
0
100
AcDbBlockBegin
  2
*Paper_Space
 70
    0
 10
0
 20
0
 30
0
  3
*Paper_Space
  1

  0
ENDBLK
  5
1D
330
1F
100
AcDbEntity
  8
0
100
AcDbBlockEnd
  0
ENDSEC
  0
SECTION
  2
ENTITIES
  0
CIRCLE
  5
4F
100
AcDbEntity
  8
decoupe
  6
ByLayer
 62
  256
370
   -1
100
AcDbCircle
 10
-200
 20
200
 40
70.5
  0
CIRCLE
  5
50
100
AcDbEntity
  8
decoupe
  6
ByLayer
 62
  256
370
   -1
100
AcDbCircle
 10
0
 20
200
 40
70.5
  0
CIRCLE
  5
51
100
AcDbEntity
  8
decoupe
  6
ByLayer
 62
  256
370
   -1
100
AcDbCircle
 10
0
 20
200
 40
95.5
  0
CIRCLE
  5
52
100
AcDbEntity
  8
decoupe
  6
ByLayer
 62
  256
370
   -1
100
AcDbCircle
 10
0
 20
0
 40
84
  0
CIRCLE
  5
53
100
AcDbEntity
  8
decoupe
  6
ByLayer
 62
  256
370
   -1
100
AcDbCircle
 10
0
 20
0
 40
95.5
  0
LINE
  5
54
100
AcDbEntity
  8
decoupe
  6
ByLayer
 62
  256
370
   -1
100
AcDbLine
 10
-266.965045004647
 20
158.162286759728
 11
-266.965045004647
 21
161.3377132402709
  0
LINE
  5
55
100
AcDbEntity
  8
decoupe
  6
ByLayer
 62
  256
370
   -1
100
AcDbLine
 10
-266.965045004647
 20
161.3377132402709
 11
-269.715045004647
 21
162.9254264805429
  0
LINE
  5
56
100
AcDbEntity
  8
decoupe
  6
ByLayer
 62
  256
370
   -1
100
AcDbLine
 10
-269.715045004647
 20
162.9254264805429
 11
-274.082139436236
 21
160.4040833348899
  0
LINE
  5
57
100
AcDbEntity
  8
decoupe
  6
ByLayer
 62
  256
370
   -1
100
AcDbLine
 10
-266.965045004647
 20
158.162286759728
 11
-271.332139436236
 21
155.6409436140741
  0
ARC
  5
58
100
AcDbEntity
  8
decoupe
  6
ByLayer
 62
  256
370
   -1
100
AcDbCircle
 10
-200
 20
200
 40
84.00000000000149
100
AcDbArc
 50
151.8760899151068
 51
208.1239100848923
  0
LINE
  5
59
100
AcDbEntity
  8
decoupe
  6
ByLayer
 62
  256
370
   -1
100
AcDbLine
 10
-269.715045004647
 20
237.0745735194564
 11
-266.965045004647
 21
238.6622867597284
  0
LINE
  5
5A
100
AcDbEntity
  8
decoupe
  6
ByLayer
 62
  256
370
   -1
100
AcDbLine
 10
-266.965045004647
 20
238.6622867597284
 11
-266.965045004647
 21
241.8377132402716
  0
LINE
  5
5B
100
AcDbEntity
  8
decoupe
  6
ByLayer
 62
  256
370
   -1
100
AcDbLine
 10
-266.965045004647
 20
241.8377132402713
 11
-271.3321394362351
 21
244.3590563859264
  0
LINE
  5
5C
100
AcDbEntity
  8
decoupe
  6
ByLayer
 62
  256
370
   -1
100
AcDbLine
 10
-269.715045004647
 20
237.0745735194566
 11
-274.082139436236
 21
239.5959166651114
  0
ARC
  5
5D
100
AcDbEntity
  8
decoupe
  6
ByLayer
 62
  256
370
   -1
100
AcDbCircle
 10
-200
 20
200
 40
84.00000000000149
100
AcDbArc
 50
91.87608991510682
 51
148.1239100848924
  0
LINE
  5
5E
100
AcDbEntity
  8
decoupe
  6
ByLayer
 62
  256
370
   -1
100
AcDbLine
 10
-202.75
 20
278.9122867597282
 11
-200
 21
277.3245735194571
  0
LINE
  5
5F
100
AcDbEntity
  8
decoupe
  6
ByLayer
 62
  256
370
   -1
100
AcDbLine
 10
-200
 20
277.3245735194571
 11
-197.25
 21
278.9122867597284
  0
LINE
  5
60
100
AcDbEntity
  8
decoupe
  6
ByLayer
 62
  256
370
   -1
100
AcDbLine
 10
-197.25
 20
278.9122867597287
 11
-197.2499999999991
 21
283.9549730510362
  0
LINE
  5
61
100
AcDbEntity
  8
decoupe
  6
ByLayer
 62
  256
370
   -1
100
AcDbLine
 10
-202.75
 20
278.912286759728
 11
-202.75
 21
283.9549730510369
  0
ARC
  5
62
100
AcDbEntity
  8
decoupe
  6
ByLayer
 62
  256
370
   -1
100
AcDbCircle
 10
-200
 20
200
 40
84.00000000000149
100
AcDbArc
 50
31.87608991510678
 51
88.12391008489237
  0
LINE
  5
63
100
AcDbEntity
  8
decoupe
  6
ByLayer
 62
  256
370
   -1
100
AcDbLine
 10
-133.034954995353
 20
241.8377132402716
 11
-133.034954995353
 21
238.6622867597284
  0
LINE
  5
64
100
AcDbEntity
  8
decoupe
  6
ByLayer
 62
  256
370
   -1
100
AcDbLine
 10
-133.034954995353
 20
238.6622867597284
 11
-130.284954995353
 21
237.0745735194569
  0
LINE
  5
65
100
AcDbEntity
  8
decoupe
  6
ByLayer
 62
  256
370
   -1
100
AcDbLine
 10
-130.284954995353
 20
237.0745735194571
 11
-125.917860563764
 21
239.5959166651098
  0
LINE
  5
66
100
AcDbEntity
  8
decoupe
  6
ByLayer
 62
  256
370
   -1
100
AcDbLine
 10
-133.034954995353
 20
241.8377132402713
 11
-128.667860563764
 21
244.3590563859254
  0
ARC
  5
67
100
AcDbEntity
  8
decoupe
  6
ByLayer
 62
  256
370
   -1
100
AcDbCircle
 10
-200
 20
200
 40
84.00000000000149
100
AcDbArc
 50
331.8760899151068
 51
28.12391008489233
  0
LINE
  5
68
100
AcDbEntity
  8
decoupe
  6
ByLayer
 62
  256
370
   -1
100
AcDbLine
 10
-130.284954995353
 20
162.9254264805429
 11
-133.034954995353
 21
161.3377132402709
  0
LINE
  5
69
100
AcDbEntity
  8
decoupe
  6
ByLayer
 62
  256
370
   -1
100
AcDbLine
 10
-133.034954995353
 20
161.3377132402709
 11
-133.034954995353
 21
158.162286759728
  0
LINE
  5
6A
100
AcDbEntity
  8
decoupe
  6
ByLayer
 62
  256
370
   -1
100
AcDbLine
 10
-133.034954995353
 20
158.162286759728
 11
-128.6678605637649
 21
155.640943614073
  0
LINE
  5
6B
100
AcDbEntity
  8
decoupe
  6
ByLayer
 62
  256
370
   -1
100
AcDbLine
 10
-130.284954995353
 20
162.9254264805429
 11
-125.917860563764
 21
160.404083334889
  0
ARC
  5
6C
100
AcDbEntity
  8
decoupe
  6
ByLayer
 62
  256
370
   -1
100
AcDbCircle
 10
-200
 20
200
 40
84.00000000000149
100
AcDbArc
 50
271.8760899151069
 51
328.1239100848924
  0
LINE
  5
6D
100
AcDbEntity
  8
decoupe
  6
ByLayer
 62
  256
370
   -1
100
AcDbLine
 10
-197.25
 20
121.087713240272
 11
-200
 21
122.6754264805429
  0
LINE
  5
6E
100
AcDbEntity
  8
decoupe
  6
ByLayer
 62
  256
370
   -1
100
AcDbLine
 10
-200
 20
122.6754264805429
 11
-202.75
 21
121.0877132402709
  0
LINE
  5
6F
100
AcDbEntity
  8
decoupe
  6
ByLayer
 62
  256
370
   -1
100
AcDbLine
 10
-202.75
 20
121.0877132402709
 11
-202.7500000000009
 21
116.0450269489641
  0
LINE
  5
70
100
AcDbEntity
  8
decoupe
  6
ByLayer
 62
  256
370
   -1
100
AcDbLine
 10
-197.25
 20
121.087713240272
 11
-197.25
 21
116.0450269489629
  0
ARC
  5
71
100
AcDbEntity
  8
decoupe
  6
ByLayer
 62
  256
370
   -1
100
AcDbCircle
 10
-200
 20
200
 40
84.00000000000149
100
AcDbArc
 50
211.876089915107
 51
268.1239100848925
  0
CIRCLE
  5
72
100
AcDbEntity
  8
decoupe
  6
ByLayer
 62
  256
370
   -1
100
AcDbCircle
 10
-69.71504500464701
 20
159.75
 40
1.5
  0
CIRCLE
  5
73
100
AcDbEntity
  8
decoupe
  6
ByLayer
 62
  256
370
   -1
100
AcDbCircle
 10
0
 20
280.5
 40
1.5
  0
CIRCLE
  5
74
100
AcDbEntity
  8
decoupe
  6
ByLayer
 62
  256
370
   -1
100
AcDbCircle
 10
69.71504500464698
 20
159.75
 40
1.5
  0
CIRCLE
  5
75
100
AcDbEntity
  8
decoupe
  6
ByLayer
 62
  256
370
   -1
100
AcDbCircle
 10
-69.71504500464701
 20
240.2499999999998
 40
1.5
  0
CIRCLE
  5
76
100
AcDbEntity
  8
decoupe
  6
ByLayer
 62
  256
370
   -1
100
AcDbCircle
 10
69.71504500464698
 20
240.25
 40
1.5
  0
CIRCLE
  5
77
100
AcDbEntity
  8
decoupe
  6
ByLayer
 62
  256
370
   -1
100
AcDbCircle
 10
0
 20
119.5
 40
1.5
  0
CIRCLE
  5
78
100
AcDbEntity
  8
decoupe
  6
ByLayer
 62
  256
370
   -1
100
AcDbCircle
 10
-45
 20
122.0577136594011
 40
3
  0
CIRCLE
  5
79
100
AcDbEntity
  8
decoupe
  6
ByLayer
 62
  256
370
   -1
100
AcDbCircle
 10
90
 20
200.0000000000002
 40
3
  0
CIRCLE
  5
7A
100
AcDbEntity
  8
decoupe
  6
ByLayer
 62
  256
370
   -1
100
AcDbCircle
 10
-45
 20
277.9422863405994
 40
3
  0
CIRCLE
  5
7B
100
AcDbEntity
  8
decoupe
  6
ByLayer
 62
  256
370
   -1
100
AcDbCircle
 10
-45
 20
-77.94228634059891
 40
3
  0
CIRCLE
  5
7C
100
AcDbEntity
  8
decoupe
  6
ByLayer
 62
  256
370
   -1
100
AcDbCircle
 10
90
 20
0
 40
3
  0
CIRCLE
  5
7D
100
AcDbEntity
  8
decoupe
  6
ByLayer
 62
  256
370
   -1
100
AcDbCircle
 10
-45
 20
77.94228634059891
 40
3
  0
CIRCLE
  5
7E
100
AcDbEntity
  8
decoupe
  6
ByLayer
 62
  256
370
   -1
100
AcDbCircle
 10
-200
 20
0
 40
77
  0
CIRCLE
  5
7F
100
AcDbEntity
  8
decoupe
  6
ByLayer
 62
  256
370
   -1
100
AcDbCircle
 10
-200
 20
0
 40
95.5
  0
CIRCLE
  5
80
100
AcDbEntity
  8
decoupe
  6
ByLayer
 62
  256
370
   -1
100
AcDbCircle
 10
-245
 20
-77.94228634059891
 40
3
  0
CIRCLE
  5
81
100
AcDbEntity
  8
decoupe
  6
ByLayer
 62
  256
370
   -1
100
AcDbCircle
 10
-110
 20
0
 40
3
  0
CIRCLE
  5
82
100
AcDbEntity
  8
decoupe
  6
ByLayer
 62
  256
370
   -1
100
AcDbCircle
 10
-245
 20
77.94228634059891
 40
3
  0
CIRCLE
  5
83
100
AcDbEntity
  8
decoupe
  6
ByLayer
 62
  256
370
   -1
100
AcDbCircle
 10
-269.715045004647
 20
-40.25
 40
1.5
  0
CIRCLE
  5
84
100
AcDbEntity
  8
decoupe
  6
ByLayer
 62
  256
370
   -1
100
AcDbCircle
 10
-200
 20
80.5
 40
1.5
  0
CIRCLE
  5
85
100
AcDbEntity
  8
decoupe
  6
ByLayer
 62
  256
370
   -1
100
AcDbCircle
 10
-130.284954995353
 20
-40.25
 40
1.5
  0
CIRCLE
  5
86
100
AcDbEntity
  8
decoupe
  6
ByLayer
 62
  256
370
   -1
100
AcDbCircle
 10
-269.715045004647
 20
40.25
 40
1.5
  0
CIRCLE
  5
87
100
AcDbEntity
  8
decoupe
  6
ByLayer
 62
  256
370
   -1
100
AcDbCircle
 10
-130.284954995353
 20
40.25
 40
1.5
  0
CIRCLE
  5
88
100
AcDbEntity
  8
decoupe
  6
ByLayer
 62
  256
370
   -1
100
AcDbCircle
 10
-200
 20
-80.5
 40
1.5
  0
LINE
  5
89
100
AcDbEntity
  8
gravure
  6
ByLayer
 62
  256
370
   -1
100
AcDbLine
 10
-172.1119983271858
 20
274.4145469299914
 11
-170.5941923229809
 21
274.8212418230852
  0
LINE
  5
8A
100
AcDbEntity
  8
gravure
  6
ByLayer
 62
  256
370
   -1
100
AcDbLine
 10
-170.5941923229809
 20
274.8212418230852
 11
-173.0941923229809
 21
270.491114804163
  0
LINE
  5
8B
100
AcDbEntity
  8
gravure
  6
ByLayer
 62
  256
370
   -1
100
AcDbLine
 10
-167.2263157527081
 20
272.8767973786407
 11
-169.1508166500068
 21
273.9879084897519
  0
LINE
  5
8C
100
AcDbEntity
  8
gravure
  6
ByLayer
 62
  256
370
   -1
100
AcDbLine
 10
-169.1508166500068
 20
273.9879084897519
 11
-170.261927761118
 21
272.0634075924531
  0
LINE
  5
8D
100
AcDbEntity
  8
gravure
  6
ByLayer
 62
  256
370
   -1
100
AcDbLine
 10
-170.261927761118
 20
272.0634075924531
 11
-169.2996773124686
 21
271.5078520368975
  0
ARC
  5
8E
100
AcDbEntity
  8
gravure
  6
ByLayer
 62
  256
370
   -1
100
AcDbCircle
 10
-169.8552317341089
 20
270.5456018920798
 40
1.111110281027884
100
AcDbArc
 50
329.9999571957129
 51
60.00004280428686
  0
LINE
  5
8F
100
AcDbEntity
  8
gravure
  6
ByLayer
 62
  256
370
   -1
100
AcDbLine
 10
-168.8929824193747
 20
269.9900460326926
 11
-169.1707601971525
 21
269.5089208083679
  0
ARC
  5
90
100
AcDbEntity
  8
gravure
  6
ByLayer
 62
  256
370
   -1
100
AcDbCircle
 10
-170.1330103419702
 20
270.0644752300083
 40
1.111110281027884
100
AcDbArc
 50
239.999957195713
 51
330.0000428042869
  0
LINE
  5
91
100
AcDbEntity
  8
gravure
  6
ByLayer
 62
  256
370
   -1
100
AcDbLine
 10
-170.6885662013575
 20
269.1022259152741
 11
-171.6508166500068
 21
269.6577814708297
  0
LINE
  5
92
100
AcDbEntity
  8
gravure
  6
ByLayer
 62
  256
370
   -1
100
AcDbLine
 10
-164.8206896310844
 20
271.4879084897517
 11
-167.7273845241782
 21
268.6755874750344
  0
LINE
  5
93
100
AcDbEntity
  8
gravure
  6
ByLayer
 62
  256
370
   -1
100
AcDbLine
 10
-167.7273845241782
 20
268.6755874750344
 11
-165.3217584025548
 21
267.2866985861456
  0
LINE
  5
94
100
AcDbEntity
  8
gravure
  6
ByLayer
 62
  256
370
   -1
100
AcDbLine
 10
-165.4878906834862
 20
268.6656157014616
 11
-166.5990017945974
 21
266.7411148041629
  0
LINE
  5
95
100
AcDbEntity
  8
gravure
  6
ByLayer
 62
  256
370
   -1
100
AcDbLine
 10
-161.9339382851363
 20
269.8212418230851
 11
-162.9905626121622
 21
264.6577814708295
  0
LINE
  5
96
100
AcDbEntity
  8
gravure
  6
ByLayer
 62
  256
370
   -1
100
AcDbLine
 10
-162.9905626121622
 20
264.6577814708295
 11
-159.0471869391881
 21
268.1545751564184
  0
LINE
  5
97
100
AcDbEntity
  8
gravure
  6
ByLayer
 62
  256
370
   -1
100
AcDbLine
 10
-158.1593668217696
 20
266.3589913744357
 11
-156.6415608175647
 21
266.7656862675295
  0
LINE
  5
98
100
AcDbEntity
  8
gravure
  6
ByLayer
 62
  256
370
   -1
100
AcDbLine
 10
-156.6415608175647
 20
266.7656862675295
 11
-159.1415608175647
 21
262.4355592486073
  0
LINE
  5
99
100
AcDbEntity
  8
gravure
  6
ByLayer
 62
  256
370
   -1
100
AcDbLine
 10
-157.6981851445906
 20
261.6022259152739
 11
-153.2736842472919
 21
264.821241823085
  0
LINE
  5
9A
100
AcDbEntity
  8
gravure
  6
ByLayer
 62
  256
370
   -1
100
AcDbLine
 10
-153.2349424804436
 20
260.629122309419
 11
-151.1500825458775
 21
259.4254278649746
  0
LINE
  5
9B
100
AcDbEntity
  8
gravure
  6
ByLayer
 62
  256
370
   -1
100
AcDbLine
 10
-154.3303085743179
 20
259.6577814708295
 11
-150.3869329013438
 21
263.1545751564183
  0
LINE
  5
9C
100
AcDbEntity
  8
gravure
  6
ByLayer
 62
  256
370
   -1
100
AcDbLine
 10
-150.3869329013438
 20
263.1545751564183
 11
-151.4435572283697
 21
257.9911148041628
  0
LINE
  5
9D
100
AcDbEntity
  8
gravure
  6
ByLayer
 62
  256
370
   -1
100
AcDbLine
 10
28.12856428497651
 20
274.2756580411025
 11
29.64637028918143
 21
274.6823529341963
  0
LINE
  5
9E
100
AcDbEntity
  8
gravure
  6
ByLayer
 62
  256
370
   -1
100
AcDbLine
 10
29.64637028918143
 20
274.6823529341963
 11
27.14637028918142
 21
270.3522259152742
  0
LINE
  5
9F
100
AcDbEntity
  8
gravure
  6
ByLayer
 62
  256
370
   -1
100
AcDbLine
 10
33.01424685945425
 20
272.7379084897519
 11
31.0897459621555
 21
273.849019600863
  0
LINE
  5
A0
100
AcDbEntity
  8
gravure
  6
ByLayer
 62
  256
370
   -1
100
AcDbLine
 10
31.0897459621555
 20
273.849019600863
 11
29.97863485104438
 21
271.9245187035642
  0
LINE
  5
A1
100
AcDbEntity
  8
gravure
  6
ByLayer
 62
  256
370
   -1
100
AcDbLine
 10
29.97863485104438
 20
271.9245187035642
 11
30.94088529969375
 21
271.3689631480087
  0
ARC
  5
A2
100
AcDbEntity
  8
gravure
  6
ByLayer
 62
  256
370
   -1
100
AcDbCircle
 10
30.38533087805341
 20
270.406713003191
 40
1.111110281027884
100
AcDbArc
 50
329.9999571957129
 51
60.00004280428686
  0
LINE
  5
A3
100
AcDbEntity
  8
gravure
  6
ByLayer
 62
  256
370
   -1
100
AcDbLine
 10
31.34758019278759
 20
269.8511571438038
 11
31.06980241500978
 21
269.3700319194791
  0
ARC
  5
A4
100
AcDbEntity
  8
gravure
  6
ByLayer
 62
  256
370
   -1
100
AcDbCircle
 10
30.1075522701921
 20
269.9255863411195
 40
1.111110281027884
100
AcDbArc
 50
239.999957195713
 51
330.0000428042869
  0
LINE
  5
A5
100
AcDbEntity
  8
gravure
  6
ByLayer
 62
  256
370
   -1
100
AcDbLine
 10
29.55199641080486
 20
268.9633370263853
 11
28.58974596215549
 21
269.5188925819408
  0
LINE
  5
A6
100
AcDbEntity
  8
gravure
  6
ByLayer
 62
  256
370
   -1
100
AcDbLine
 10
35.41987298107795
 20
271.3490196008628
 11
32.51317808798411
 21
268.5366985861455
  0
LINE
  5
A7
100
AcDbEntity
  8
gravure
  6
ByLayer
 62
  256
370
   -1
100
AcDbLine
 10
32.51317808798411
 20
268.5366985861455
 11
34.91880420960755
 21
267.1478096972567
  0
LINE
  5
A8
100
AcDbEntity
  8
gravure
  6
ByLayer
 62
  256
370
   -1
100
AcDbLine
 10
34.75267192867609
 20
268.5267268125727
 11
33.64156081756497
 21
266.6022259152739
  0
LINE
  5
A9
100
AcDbEntity
  8
gravure
  6
ByLayer
 62
  256
370
   -1
100
AcDbLine
 10
38.30662432702608
 20
269.6823529341962
 11
37.25000000000014
 21
264.5188925819406
  0
LINE
  5
AA
100
AcDbEntity
  8
gravure
  6
ByLayer
 62
  256
370
   -1
100
AcDbLine
 10
37.25000000000014
 20
264.5188925819406
 11
41.19337567297421
 21
268.0156862675295
  0
LINE
  5
AB
100
AcDbEntity
  8
gravure
  6
ByLayer
 62
  256
370
   -1
100
AcDbLine
 10
42.08119579039272
 20
266.2201024855468
 11
43.59900179459764
 21
266.6267973786406
  0
LINE
  5
AC
100
AcDbEntity
  8
gravure
  6
ByLayer
 62
  256
370
   -1
100
AcDbLine
 10
43.59900179459764
 20
266.6267973786406
 11
41.09900179459763
 21
262.2966703597184
  0
LINE
  5
AD
100
AcDbEntity
  8
gravure
  6
ByLayer
 62
  256
370
   -1
100
AcDbLine
 10
42.54237746757169
 20
261.463337026385
 11
46.96687836487045
 21
264.6823529341961
  0
LINE
  5
AE
100
AcDbEntity
  8
gravure
  6
ByLayer
 62
  256
370
   -1
100
AcDbLine
 10
48.50195598754511
 20
261.2300742591196
 11
47.2991429267334
 21
261.924518703564
  0
ARC
  5
AF
100
AcDbEntity
  8
gravure
  6
ByLayer
 62
  256
370
   -1
100
AcDbCircle
 10
49.05751154310068
 20
262.192324707769
 40
1.111111111111111
100
AcDbArc
 50
239.9999999999999
 51
59.99999999999988
  0
LINE
  5
B0
100
AcDbEntity
  8
gravure
  6
ByLayer
 62
  256
370
   -1
100
AcDbLine
 10
49.61306709865623
 20
263.1545751564183
 11
48.41025403784451
 21
263.8490196008628
  0
LINE
  5
B1
100
AcDbEntity
  8
gravure
  6
ByLayer
 62
  256
370
   -1
100
AcDbLine
 10
48.41025403784451
 20
263.8490196008628
 11
45.9102540378445
 21
259.5188925819406
  0
LINE
  5
B2
100
AcDbEntity
  8
gravure
  6
ByLayer
 62
  256
370
   -1
100
AcDbLine
 10
45.9102540378445
 20
259.5188925819406
 11
47.11306709865622
 21
258.8244481374961
  0
ARC
  5
B3
100
AcDbEntity
  8
gravure
  6
ByLayer
 62
  256
370
   -1
100
AcDbCircle
 10
47.80751154310068
 20
260.0272611983079
 40
1.388888888888889
100
AcDbArc
 50
239.9999999999999
 51
59.99999999999988
  0
LINE
  5
B4
100
AcDbEntity
  8
gravure
  6
ByLayer
 62
  256
370
   -1
100
AcDbLine
 10
34.50356623918946
 20
85.3174830676198
 11
36.0213722433944
 21
85.72417796071362
  0
LINE
  5
B5
100
AcDbEntity
  8
gravure
  6
ByLayer
 62
  256
370
   -1
100
AcDbLine
 10
36.0213722433944
 20
85.72417796071362
 11
33.52137224339439
 21
81.39405094179143
  0
LINE
  5
B6
100
AcDbEntity
  8
gravure
  6
ByLayer
 62
  256
370
   -1
100
AcDbLine
 10
39.3892488136672
 20
83.77973351626916
 11
37.46474791636845
 21
84.89084462738028
  0
LINE
  5
B7
100
AcDbEntity
  8
gravure
  6
ByLayer
 62
  256
370
   -1
100
AcDbLine
 10
37.46474791636845
 20
84.89084462738028
 11
36.35363680525734
 21
82.96634373008152
  0
LINE
  5
B8
100
AcDbEntity
  8
gravure
  6
ByLayer
 62
  256
370
   -1
100
AcDbLine
 10
36.35363680525734
 20
82.96634373008152
 11
37.31588725390672
 21
82.41078817452596
  0
ARC
  5
B9
100
AcDbEntity
  8
gravure
  6
ByLayer
 62
  256
370
   -1
100
AcDbCircle
 10
36.76033283226636
 20
81.44853802970826
 40
1.111110281027884
100
AcDbArc
 50
329.9999571957129
 51
60.00004280428686
  0
LINE
  5
BA
100
AcDbEntity
  8
gravure
  6
ByLayer
 62
  256
370
   -1
100
AcDbLine
 10
37.72258214700054
 20
80.89298217032105
 11
37.44480436922275
 21
80.41185694599635
  0
ARC
  5
BB
100
AcDbEntity
  8
gravure
  6
ByLayer
 62
  256
370
   -1
100
AcDbCircle
 10
36.48255422440504
 20
80.96741136763671
 40
1.111110281027884
100
AcDbArc
 50
239.999957195713
 51
330.0000428042869
  0
LINE
  5
BC
100
AcDbEntity
  8
gravure
  6
ByLayer
 62
  256
370
   -1
100
AcDbLine
 10
35.92699836501782
 20
80.00516205290253
 11
34.96474791636845
 21
80.56071760845809
  0
LINE
  5
BD
100
AcDbEntity
  8
gravure
  6
ByLayer
 62
  256
370
   -1
100
AcDbLine
 10
41.79487493529091
 20
82.39084462738012
 11
38.88818004219709
 21
79.57852361266286
  0
LINE
  5
BE
100
AcDbEntity
  8
gravure
  6
ByLayer
 62
  256
370
   -1
100
AcDbLine
 10
38.88818004219709
 20
79.57852361266286
 11
41.29380616382053
 21
78.18963472377398
  0
LINE
  5
BF
100
AcDbEntity
  8
gravure
  6
ByLayer
 62
  256
370
   -1
100
AcDbLine
 10
41.12767388288905
 20
79.56855183909002
 11
40.01656277177793
 21
77.64405094179126
  0
LINE
  5
C0
100
AcDbEntity
  8
gravure
  6
ByLayer
 62
  256
370
   -1
100
AcDbLine
 10
44.68162628123904
 20
80.72417796071343
 11
43.6250019542131
 21
75.56071760845792
  0
LINE
  5
C1
100
AcDbEntity
  8
gravure
  6
ByLayer
 62
  256
370
   -1
100
AcDbLine
 10
43.6250019542131
 20
75.56071760845792
 11
47.56837762718717
 21
79.05751129404676
  0
LINE
  5
C2
100
AcDbEntity
  8
gravure
  6
ByLayer
 62
  256
370
   -1
100
AcDbLine
 10
48.45619774460567
 20
77.26192751206406
 11
49.9740037488106
 21
77.66862240515788
  0
LINE
  5
C3
100
AcDbEntity
  8
gravure
  6
ByLayer
 62
  256
370
   -1
100
AcDbLine
 10
49.9740037488106
 20
77.66862240515788
 11
47.4740037488106
 21
73.33849538623569
  0
LINE
  5
C4
100
AcDbEntity
  8
gravure
  6
ByLayer
 62
  256
370
   -1
100
AcDbLine
 10
48.91737942178465
 20
72.50516205290235
 11
53.34188031908341
 21
75.72417796071342
  0
LINE
  5
C5
100
AcDbEntity
  8
gravure
  6
ByLayer
 62
  256
370
   -1
100
AcDbLine
 10
52.28525599205746
 20
70.56071760845791
 11
53.72863166503153
 21
69.72738427512458
  0
ARC
  5
C6
100
AcDbEntity
  8
gravure
  6
ByLayer
 62
  256
370
   -1
100
AcDbCircle
 10
54.28418752441875
 20
70.68963358985874
 40
1.111110281027884
100
AcDbArc
 50
239.999957195713
 51
330.0000428042869
  0
LINE
  5
C7
100
AcDbEntity
  8
gravure
  6
ByLayer
 62
  256
370
   -1
100
AcDbLine
 10
55.24643766923646
 20
70.13407916821839
 11
56.63532655812536
 21
72.53970528984182
  0
ARC
  5
C8
100
AcDbEntity
  8
gravure
  6
ByLayer
 62
  256
370
   -1
100
AcDbCircle
 10
55.67307724339118
 20
73.09526114922903
 40
1.111110281027884
100
AcDbArc
 50
329.9999571957129
 51
60.00004280428686
  0
LINE
  5
C9
100
AcDbEntity
  8
gravure
  6
ByLayer
 62
  256
370
   -1
100
AcDbLine
 10
56.22863166503154
 20
74.05751129404676
 11
54.78525599205747
 21
74.89084462738009
  0
LINE
  5
CA
100
AcDbEntity
  8
gravure
  6
ByLayer
 62
  256
370
   -1
100
AcDbLine
 10
54.78525599205747
 20
74.89084462738009
 11
52.28525599205746
 21
70.56071760845791
  0
LINE
  5
CB
100
AcDbEntity
  8
gravure
  6
ByLayer
 62
  256
370
   -1
100
AcDbLine
 10
-167.0058731028612
 20
82.14750413721973
 11
-165.4880670986562
 21
82.55419903031354
  0
LINE
  5
CC
100
AcDbEntity
  8
gravure
  6
ByLayer
 62
  256
370
   -1
100
AcDbLine
 10
-165.4880670986562
 20
82.55419903031354
 11
-167.9880670986562
 21
78.22407201139136
  0
LINE
  5
CD
100
AcDbEntity
  8
gravure
  6
ByLayer
 62
  256
370
   -1
100
AcDbLine
 10
-162.1201905283834
 20
80.60975458586908
 11
-164.0446914256822
 21
81.7208656969802
  0
LINE
  5
CE
100
AcDbEntity
  8
gravure
  6
ByLayer
 62
  256
370
   -1
100
AcDbLine
 10
-164.0446914256822
 20
81.7208656969802
 11
-165.1558025367933
 21
79.79636479968144
  0
LINE
  5
CF
100
AcDbEntity
  8
gravure
  6
ByLayer
 62
  256
370
   -1
100
AcDbLine
 10
-165.1558025367933
 20
79.79636479968144
 11
-164.1935520881439
 21
79.24080924412588
  0
ARC
  5
D0
100
AcDbEntity
  8
gravure
  6
ByLayer
 62
  256
370
   -1
100
AcDbCircle
 10
-164.7491065097843
 20
78.27855909930818
 40
1.111110281027884
100
AcDbArc
 50
329.9999571957129
 51
60.00004280428686
  0
LINE
  5
D1
100
AcDbEntity
  8
gravure
  6
ByLayer
 62
  256
370
   -1
100
AcDbLine
 10
-163.7868571950501
 20
77.72300323992096
 11
-164.0646349728279
 21
77.24187801559627
  0
ARC
  5
D2
100
AcDbEntity
  8
gravure
  6
ByLayer
 62
  256
370
   -1
100
AcDbCircle
 10
-165.0268851176456
 20
77.79743243723664
 40
1.111110281027884
100
AcDbArc
 50
239.999957195713
 51
330.0000428042869
  0
LINE
  5
D3
100
AcDbEntity
  8
gravure
  6
ByLayer
 62
  256
370
   -1
100
AcDbLine
 10
-165.5824409770328
 20
76.83518312250246
 11
-166.5446914256822
 21
77.39073867805801
  0
LINE
  5
D4
100
AcDbEntity
  8
gravure
  6
ByLayer
 62
  256
370
   -1
100
AcDbLine
 10
-159.7145644067597
 20
79.22086569698004
 11
-162.6212592998535
 21
76.40854468226279
  0
LINE
  5
D5
100
AcDbEntity
  8
gravure
  6
ByLayer
 62
  256
370
   -1
100
AcDbLine
 10
-162.6212592998535
 20
76.40854468226279
 11
-160.2156331782301
 21
75.0196557933739
  0
LINE
  5
D6
100
AcDbEntity
  8
gravure
  6
ByLayer
 62
  256
370
   -1
100
AcDbLine
 10
-160.3817654591615
 20
76.39857290868994
 11
-161.4928765702727
 21
74.47407201139119
  0
LINE
  5
D7
100
AcDbEntity
  8
gravure
  6
ByLayer
 62
  256
370
   -1
100
AcDbLine
 10
-156.8278130608116
 20
77.55419903031337
 11
-157.8844373878376
 21
72.39073867805786
  0
LINE
  5
D8
100
AcDbEntity
  8
gravure
  6
ByLayer
 62
  256
370
   -1
100
AcDbLine
 10
-157.8844373878376
 20
72.39073867805786
 11
-153.9410617148635
 21
75.8875323636467
  0
LINE
  5
D9
100
AcDbEntity
  8
gravure
  6
ByLayer
 62
  256
370
   -1
100
AcDbLine
 10
-153.053241597445
 20
74.09194858166398
 11
-151.53543559324
 21
74.4986434747578
  0
LINE
  5
DA
100
AcDbEntity
  8
gravure
  6
ByLayer
 62
  256
370
   -1
100
AcDbLine
 10
-151.53543559324
 20
74.4986434747578
 11
-154.03543559324
 21
70.16851645583561
  0
LINE
  5
DB
100
AcDbEntity
  8
gravure
  6
ByLayer
 62
  256
370
   -1
100
AcDbLine
 10
-152.592059920266
 20
69.33518312250227
 11
-148.1675590229672
 21
72.55419903031334
  0
LINE
  5
DC
100
AcDbEntity
  8
gravure
  6
ByLayer
 62
  256
370
   -1
100
AcDbLine
 10
-147.2996824526944
 20
66.27962756694671
 11
-148.2619329013438
 21
66.83518312250227
  0
ARC
  5
DD
100
AcDbEntity
  8
gravure
  6
ByLayer
 62
  256
370
   -1
100
AcDbCircle
 10
-147.7063784797034
 20
67.79743326731999
 40
1.111110281027884
100
AcDbArc
 50
149.9999571957129
 51
240.0000428042869
  0
LINE
  5
DE
100
AcDbEntity
  8
gravure
  6
ByLayer
 62
  256
370
   -1
100
AcDbLine
 10
-148.6686277944376
 20
68.3529891267072
 11
-147.2797389055487
 21
70.75861524833064
  0
ARC
  5
DF
100
AcDbEntity
  8
gravure
  6
ByLayer
 62
  256
370
   -1
100
AcDbCircle
 10
-146.317488760731
 20
70.20306082669028
 40
1.111110281027884
100
AcDbArc
 50
59.9999571957129
 51
150.0000428042868
  0
LINE
  5
E0
100
AcDbEntity
  8
gravure
  6
ByLayer
 62
  256
370
   -1
100
AcDbLine
 10
-145.7619329013438
 20
71.16531014142446
 11
-144.7996824526944
 21
70.6097545858689
  0
ENDSEC
  0
SECTION
  2
OBJECTS
  0
DICTIONARY
  5
C
330
0
100
AcDbDictionary
281
    1
  3
ACAD_GROUP
350
D
  0
DICTIONARY
  5
D
330
C
100
AcDbDictionary
281
    1
  0
PLOTSETTINGS
  5
E1
100
AcDbPlotSettings
  6
1x1
 40
0
 41
0
 42
0
 43
0
  0
ENDSEC
  0
EOF
