999
dxfrw 0.6.3
  0
SECTION
  2
HEADER
  9
$ACADVER
  1
AC1021
  9
$DWGCODEPAGE
  3
ANSI_1252
  9
$INSBASE
 10
0
 20
0
 30
0
  9
$EXTMIN
 10
-295.5
 20
-95.5
 30
0
  9
$EXTMAX
 10
95.5
 20
295.5
 30
0
  9
$LIMMIN
 10
0
 20
0
  9
$LIMMAX
 10
420
 20
297
  9
$ORTHOMODE
 70
    0
  9
$REGENMODE
 70
    1
  9
$FILLMODE
 70
    1
  9
$QTEXTMODE
 70
    0
  9
$MIRRTEXT
 70
    0
  9
$LTSCALE
 40
1
  9
$ATTMODE
 70
    0
  9
$TEXTSIZE
 40
2.5
  9
$TRACEWID
 40
15.68
  9
$TEXTSTYLE
  7
STANDARD
  9
$CLAYER
  8
0
  9
$CELTYPE
  6
BYLAYER
  9
$CECOLOR
 62
  256
  9
$CELTSCALE
 40
1
  9
$DISPSILH
 70
    0
  9
$DIMSCALE
 40
2.5
  9
$DIMASZ
 40
2.5
  9
$DIMEXO
 40
0.625
  9
$DIMDLI
 40
3.75
  9
$DIMRND
 40
0
  9
$DIMDLE
 40
0
  9
$DIMEXE
 40
1.25
  9
$DIMTP
 40
0
  9
$DIMTM
 40
0
  9
$DIMTXT
 40
5
  9
$DIMCEN
 40
2.5
  9
$DIMTSZ
 40
0
  9
$DIMTOL
 70
    0
  9
$DIMLIM
 70
    0
  9
$DIMTIH
 70
    0
  9
$DIMTOH
 70
    0
  9
$DIMSE1
 70
    0
  9
$DIMSE2
 70
    0
  9
$DIMTAD
 70
    1
  9
$DIMZIN
 70
    1
  9
$DIMBLK
  1

  9
$DIMASO
 70
    1
  9
$DIMSHO
 70
    1
  9
$DIMPOST
  1

  9
$DIMAPOST
  1

  9
$DIMALT
 70
    0
  9
$DIMALTD
 70
    3
  9
$DIMALTF
 40
0.03937
  9
$DIMLFAC
 40
1
  9
$DIMTOFL
 70
    1
  9
$DIMTVP
 40
0
  9
$DIMTIX
 70
    0
  9
$DIMSOXD
 70
    0
  9
$DIMSAH
 70
    0
  9
$DIMBLK1
  1

  9
$DIMBLK2
  1

  9
$DIMSTYLE
  2
STANDARD
  9
$DIMCLRD
 70
    0
  9
$DIMCLRE
 70
    0
  9
$DIMCLRT
 70
    0
  9
$DIMTFAC
 40
1
  9
$DIMGAP
 40
0.625
  9
$DIMJUST
 70
    0
  9
$DIMSD1
 70
    0
  9
$DIMSD2
 70
    0
  9
$DIMTOLJ
 70
    0
  9
$DIMTZIN
 70
    8
  9
$DIMALTZ
 70
    0
  9
$DIMALTTZ
 70
    0
  9
$DIMUPT
 70
    0
  9
$DIMDEC
 70
    1
  9
$DIMTDEC
 70
    2
  9
$DIMALTU
 70
    2
  9
$DIMALTTD
 70
    3
  9
$DIMTXSTY
  7
standard
  9
$DIMAUNIT
 70
    0
  9
$DIMADEC
 70
    2
  9
$DIMALTRND
 40
0
  9
$DIMAZIN
 70
    0
  9
$DIMDSEP
 70
   44
  9
$DIMATFIT
 70
    3
  9
$DIMFRAC
 70
    0
  9
$DIMLDRBLK
  1
STANDARD
  9
$DIMLUNIT
 70
    2
  9
$DIMLWD
 70
   -2
  9
$DIMLWE
 70
   -2
  9
$DIMTMOVE
 70
    0
  9
$DIMFXL
 40
1
  9
$DIMFXLON
 70
    0
  9
$DIMJOGANG
 40
0.7854
  9
$DIMTFILL
 70
    0
  9
$DIMTFILLCLR
 70
    0
  9
$DIMARCSYM
 70
    0
  9
$DIMLTYPE
  6

  9
$DIMLTEX1
  6

  9
$DIMLTEX2
  6

  9
$LUNITS
 70
    2
  9
$LUPREC
 70
    4
  9
$SKETCHINC
 40
1
  9
$FILLETRAD
 40
0
  9
$AUNITS
 70
    0
  9
$AUPREC
 70
    2
  9
$MENU
  1
.
  9
$ELEVATION
 40
0
  9
$PELEVATION
 40
0
  9
$THICKNESS
 40
0
  9
$LIMCHECK
 70
    0
  9
$CHAMFERA
 40
0
  9
$CHAMFERB
 40
0
  9
$CHAMFERC
 40
0
  9
$CHAMFERD
 40
0
  9
$SKPOLY
 70
    0
  9
$USRTIMER
 70
    1
  9
$ANGBASE
 50
0
  9
$ANGDIR
 70
    0
  9
$PDMODE
 70
   34
  9
$PDSIZE
 40
0
  9
$PLINEWID
 40
0
  9
$SPLFRAME
 70
    0
  9
$SPLINETYPE
 70
    2
  9
$SPLINESEGS
 70
    8
  9
$HANDSEED
  5
20000
  9
$SURFTAB1
 70
    6
  9
$SURFTAB2
 70
    6
  9
$SURFTYPE
 70
    6
  9
$SURFU
 70
    6
  9
$SURFV
 70
    6
  9
$UCSBASE
  2

  9
$UCSNAME
  2

  9
$UCSORG
 10
0
 20
0
 30
0
  9
$UCSXDIR
 10
1
 20
0
 30
0
  9
$UCSYDIR
 10
0
 20
1
 30
0
  9
$UCSORTHOREF
  2

  9
$UCSORTHOVIEW
 70
    0
  9
$UCSORGTOP
 10
0
 20
0
 30
0
  9
$UCSORGBOTTOM
 10
0
 20
0
 30
0
  9
$UCSORGLEFT
 10
0
 20
0
 30
0
  9
$UCSORGRIGHT
 10
0
 20
0
 30
0
  9
$UCSORGFRONT
 10
0
 20
0
 30
0
  9
$UCSORGBACK
 10
0
 20
0
 30
0
  9
$PUCSBASE
  2

  9
$PUCSNAME
  2

  9
$PUCSORG
 10
0
 20
0
 30
0
  9
$PUCSXDIR
 10
1
 20
0
 30
0
  9
$PUCSYDIR
 10
0
 20
1
 30
0
  9
$PUCSORTHOREF
  2

  9
$PUCSORTHOVIEW
 70
    0
  9
$PUCSORGTOP
 10
0
 20
0
 30
0
  9
$PUCSORGBOTTOM
 10
0
 20
0
 30
0
  9
$PUCSORGLEFT
 10
0
 20
0
 30
0
  9
$PUCSORGRIGHT
 10
0
 20
0
 30
0
  9
$PUCSORGFRONT
 10
0
 20
0
 30
0
  9
$PUCSORGBACK
 10
0
 20
0
 30
0
  9
$USERI1
 70
    0
  9
$USERI2
 70
    0
  9
$USERI3
 70
    0
  9
$USERI4
 70
    0
  9
$USERI5
 70
    0
  9
$USERR1
 40
0
  9
$USERR2
 40
0
  9
$USERR3
 40
0
  9
$USERR4
 40
0
  9
$USERR5
 40
0
  9
$WORLDVIEW
 70
    1
  9
$SHADEDGE
 70
    3
  9
$SHADEDIF
 70
   70
  9
$TILEMODE
 70
    1
  9
$MAXACTVP
 70
   64
  9
$PINSBASE
 10
148.5
 20
105
 30
0
  9
$PLIMCHECK
 70
    0
  9
$PEXTMIN
 10
0
 20
0
 30
0
  9
$PEXTMAX
 10
0
 20
0
 30
0
  9
$GRIDMODE
 70
    1
  9
$SNAPSTYLE
 70
    0
  9
$GRIDUNIT
 10
0
 20
0
  9
$PLIMMIN
 10
0
 20
0
  9
$PLIMMAX
 10
297
 20
210
  9
$UNITMODE
 70
    0
  9
$VISRETAIN
 70
    1
  9
$PLINEGEN
 70
    0
  9
$PSLTSCALE
 70
    1
  9
$TREEDEPTH
 70
 3020
  9
$CMLSTYLE
  2
Standard
  9
$CMLJUST
 70
    0
  9
$CMLSCALE
 40
20
  9
$PROXYGRAPHICS
 70
    1
  9
$MEASUREMENT
 70
    1
  9
$CELWEIGHT
370
   -1
  9
$ENDCAPS
280
    0
  9
$JOINSTYLE
280
    0
  9
$LWDISPLAY
290
    0
  9
$INSUNITS
 70
    0
  9
$HYPERLINKBASE
  1

  9
$STYLESHEET
  1

  9
$XEDIT
290
    1
  9
$CEPSNTYPE
380
    0
  9
$PSTYLEMODE
290
    1
  9
$EXTNAMES
290
    1
  9
$PSVPSCALE
 40
0.21
  9
$OLESTARTUP
290
    0
  9
$SORTENTS
280
  127
  9
$INDEXCTL
280
    0
  9
$HIDETEXT
280
    1
  9
$XCLIPFRAME
290
    0
  9
$HALOGAP
280
    0
  9
$OBSCOLOR
 70
  257
  9
$OBSLTYPE
280
    0
  9
$INTERSECTIONDISPLAY
280
    0
  9
$INTERSECTIONCOLOR
 70
  257
  9
$DIMASSOC
280
    1
  9
$PROJECTNAME
  1

  9
$CAMERADISPLAY
290
    0
  9
$LENSLENGTH
 40
50
  9
$CAMERAHEIGHT
 40
0
  9
$STEPSPERSEC
 40
2
  9
$STEPSIZE
 40
50
  9
$3DDWFPREC
 40
2
  9
$PSOLWIDTH
 40
5
  9
$PSOLHEIGHT
 40
80
  9
$LOFTANG1
 40
1.570796326794897
  9
$LOFTANG2
 40
1.570796326794897
  9
$LOFTMAG1
 40
0
  9
$LOFTMAG2
 40
0
  9
$LOFTPARAM
 70
    7
  9
$LOFTNORMALS
280
    1
  9
$LATITUDE
 40
1
  9
$LONGITUDE
 40
1
  9
$NORTHDIRECTION
 40
0
  9
$TIMEZONE
 70
-8000
  9
$LIGHTGLYPHDISPLAY
280
    1
  9
$TILEMODELIGHTSYNCH
280
    1
  9
$SOLIDHIST
280
    1
  9
$SHOWHIST
280
    1
  9
$DWFFRAME
280
    2
  9
$DGNFRAME
280
    0
  9
$REALWORLDSCALE
290
    1
  9
$INTERFERECOLOR
 62
    1
  9
$CSHADOW
280
    0
  9
$SHADOWPLANELOCATION
 40
0
  0
ENDSEC
  0
SECTION
  2
CLASSES
  0
ENDSEC
  0
SECTION
  2
TABLES
  0
TABLE
  2
VPORT
  5
8
330
0
100
AcDbSymbolTable
 70
    1
  0
VPORT
  5
31
330
2
100
AcDbSymbolTableRecord
100
AcDbViewportTableRecord
  2
*ACTIVE
 70
    0
 10
0
 20
0
 11
1
 21
1
 12
243.8618201343762
 22
185.514513476458
 13
0
 23
0
 14
10
 24
10
 15
10
 25
10
 16
0
 26
0
 36
1
 17
0
 27
0
 37
0
 40
573.7485154695294
 41
1.842242503259452
 42
50
 43
0
 44
0
 50
0
 51
0
 71
    0
 72
  100
 73
    1
 74
    3
 75
    0
 76
    1
 77
    0
 78
    0
281
    0
 65
    1
110
0
120
0
130
0
111
1
121
0
131
0
112
0
122
1
132
0
 79
    0
146
0
348
10020
 60
    7
 61
    5
292
1
282
    1
141
0
142
0
 63
  250
421
3358443
  0
ENDTAB
  0
TABLE
  2
LTYPE
  5
5
330
0
100
AcDbSymbolTable
 70
    4
  0
LTYPE
  5
14
330
5
100
AcDbSymbolTableRecord
100
AcDbLinetypeTableRecord
  2
ByBlock
 70
    0
  3

 72
   65
 73
    0
 40
0
  0
LTYPE
  5
15
330
5
100
AcDbSymbolTableRecord
100
AcDbLinetypeTableRecord
  2
ByLayer
 70
    0
  3

 72
   65
 73
    0
 40
0
  0
LTYPE
  5
16
330
5
100
AcDbSymbolTableRecord
100
AcDbLinetypeTableRecord
  2
Continuous
 70
    0
  3
Solid line
 72
   65
 73
    0
 40
0
  0
LTYPE
  5
32
330
5
100
AcDbSymbolTableRecord
100
AcDbLinetypeTableRecord
  2
DOT
 70
    0
  3
Dot . . . . . . . . . . . . . . . . . . . . . .
 72
   65
 73
    2
 40
6.35
 49
0
 74
    0
 49
-6.35
 74
    0
  0
LTYPE
  5
33
330
5
100
AcDbSymbolTableRecord
100
AcDbLinetypeTableRecord
  2
DOTTINY
 70
    0
  3
Dot (.15x) .....................................
 72
   65
 73
    2
 40
0.9525
 49
0
 74
    0
 49
-0.9525
 74
    0
  0
LTYPE
  5
34
330
5
100
AcDbSymbolTableRecord
100
AcDbLinetypeTableRecord
  2
DOT2
 70
    0
  3
Dot (.5x) .....................................
 72
   65
 73
    2
 40
3.175
 49
0
 74
    0
 49
-3.175
 74
    0
  0
LTYPE
  5
35
330
5
100
AcDbSymbolTableRecord
100
AcDbLinetypeTableRecord
  2
DOTX2
 70
    0
  3
Dot (2x) .  .  .  .  .  .  .  .  .  .  .  .  .
 72
   65
 73
    2
 40
12.7
 49
0
 74
    0
 49
-12.7
 74
    0
  0
LTYPE
  5
36
330
5
100
AcDbSymbolTableRecord
100
AcDbLinetypeTableRecord
  2
DASHED
 70
    0
  3
Dashed _ _ _ _ _ _ _ _ _ _ _ _ _ _ _ _ _
 72
   65
 73
    2
 40
19.05
 49
12.7
 74
    0
 49
-6.35
 74
    0
  0
LTYPE
  5
37
330
5
100
AcDbSymbolTableRecord
100
AcDbLinetypeTableRecord
  2
DASHEDTINY
 70
    0
  3
Dashed (.15x) _ _ _ _ _ _ _ _ _ _ _ _ _ _ _ _ _
 72
   65
 73
    2
 40
2.8575
 49
1.905
 74
    0
 49
-0.9525
 74
    0
  0
LTYPE
  5
38
330
5
100
AcDbSymbolTableRecord
100
AcDbLinetypeTableRecord
  2
DASHED2
 70
    0
  3
Dashed (.5x) _ _ _ _ _ _ _ _ _ _ _ _ _ _ _ _ _
 72
   65
 73
    2
 40
9.524999999999999
 49
6.35
 74
    0
 49
-3.175
 74
    0
  0
LTYPE
  5
39
330
5
100
AcDbSymbolTableRecord
100
AcDbLinetypeTableRecord
  2
DASHEDX2
 70
    0
  3
Dashed (2x) ____  ____  ____  ____  ____  ___
 72
   65
 73
    2
 40
38.09999999999999
 49
25.4
 74
    0
 49
-12.7
 74
    0
  0
LTYPE
  5
3A
330
5
100
AcDbSymbolTableRecord
100
AcDbLinetypeTableRecord
  2
DASHDOT
 70
    0
  3
Dash dot __ . __ . __ . __ . __ . __ . __ . __
 72
   65
 73
    4
 40
25.4
 49
12.7
 74
    0
 49
-6.35
 74
    0
 49
0
 74
    0
 49
-6.35
 74
    0
  0
LTYPE
  5
3B
330
5
100
AcDbSymbolTableRecord
100
AcDbLinetypeTableRecord
  2
DASHDOTTINY
 70
    0
  3
Dash dot (.15x) _._._._._._._._._._._._._._._.
 72
   65
 73
    4
 40
3.81
 49
1.905
 74
    0
 49
-0.9525
 74
    0
 49
0
 74
    0
 49
-0.9525
 74
    0
  0
LTYPE
  5
3C
330
5
100
AcDbSymbolTableRecord
100
AcDbLinetypeTableRecord
  2
DASHDOT2
 70
    0
  3
Dash dot (.5x) _._._._._._._._._._._._._._._.
 72
   65
 73
    4
 40
12.7
 49
6.35
 74
    0
 49
-3.175
 74
    0
 49
0
 74
    0
 49
-3.175
 74
    0
  0
LTYPE
  5
3D
330
5
100
AcDbSymbolTableRecord
100
AcDbLinetypeTableRecord
  2
DASHDOTX2
 70
    0
  3
Dash dot (2x) ____  .  ____  .  ____  .  ___
 72
   65
 73
    4
 40
50.8
 49
25.4
 74
    0
 49
-12.7
 74
    0
 49
0
 74
    0
 49
-12.7
 74
    0
  0
LTYPE
  5
3E
330
5
100
AcDbSymbolTableRecord
100
AcDbLinetypeTableRecord
  2
DIVIDE
 70
    0
  3
Divide ____ . . ____ . . ____ . . ____ . . ____
 72
   65
 73
    6
 40
31.75
 49
12.7
 74
    0
 49
-6.35
 74
    0
 49
0
 74
    0
 49
-6.35
 74
    0
 49
0
 74
    0
 49
-6.35
 74
    0
  0
LTYPE
  5
3F
330
5
100
AcDbSymbolTableRecord
100
AcDbLinetypeTableRecord
  2
DIVIDETINY
 70
    0
  3
Divide (.15x) __..__..__..__..__..__..__..__.._
 72
   65
 73
    6
 40
4.7625
 49
1.905
 74
    0
 49
-0.9525
 74
    0
 49
0
 74
    0
 49
-0.9525
 74
    0
 49
0
 74
    0
 49
-0.9525
 74
    0
  0
LTYPE
  5
40
330
5
100
AcDbSymbolTableRecord
100
AcDbLinetypeTableRecord
  2
DIVIDE2
 70
    0
  3
Divide (.5x) __..__..__..__..__..__..__..__.._
 72
   65
 73
    6
 40
15.875
 49
6.35
 74
    0
 49
-3.175
 74
    0
 49
0
 74
    0
 49
-3.175
 74
    0
 49
0
 74
    0
 49
-3.175
 74
    0
  0
LTYPE
  5
41
330
5
100
AcDbSymbolTableRecord
100
AcDbLinetypeTableRecord
  2
DIVIDEX2
 70
    0
  3
Divide (2x) ________  .  .  ________  .  .  _
 72
   65
 73
    6
 40
63.5
 49
25.4
 74
    0
 49
-12.7
 74
    0
 49
0
 74
    0
 49
-12.7
 74
    0
 49
0
 74
    0
 49
-12.7
 74
    0
  0
LTYPE
  5
42
330
5
100
AcDbSymbolTableRecord
100
AcDbLinetypeTableRecord
  2
BORDER
 70
    0
  3
Border __ __ . __ __ . __ __ . __ __ . __ __ .
 72
   65
 73
    6
 40
44.45
 49
12.7
 74
    0
 49
-6.35
 74
    0
 49
12.7
 74
    0
 49
-6.35
 74
    0
 49
0
 74
    0
 49
-6.35
 74
    0
  0
LTYPE
  5
43
330
5
100
AcDbSymbolTableRecord
100
AcDbLinetypeTableRecord
  2
BORDERTINY
 70
    0
  3
Border (.15x) __.__.__.__.__.__.__.__.__.__.__.
 72
   65
 73
    6
 40
6.6675
 49
1.905
 74
    0
 49
-0.9525
 74
    0
 49
1.905
 74
    0
 49
-0.9525
 74
    0
 49
0
 74
    0
 49
-0.9525
 74
    0
  0
LTYPE
  5
44
330
5
100
AcDbSymbolTableRecord
100
AcDbLinetypeTableRecord
  2
BORDER2
 70
    0
  3
Border (.5x) __.__.__.__.__.__.__.__.__.__.__.
 72
   65
 73
    6
 40
22.225
 49
6.35
 74
    0
 49
-3.175
 74
    0
 49
6.35
 74
    0
 49
-3.175
 74
    0
 49
0
 74
    0
 49
-3.175
 74
    0
  0
LTYPE
  5
45
330
5
100
AcDbSymbolTableRecord
100
AcDbLinetypeTableRecord
  2
BORDERX2
 70
    0
  3
Border (2x) ____  ____  .  ____  ____  .  ___
 72
   65
 73
    6
 40
88.89999999999999
 49
25.4
 74
    0
 49
-12.7
 74
    0
 49
25.4
 74
    0
 49
-12.7
 74
    0
 49
0
 74
    0
 49
-12.7
 74
    0
  0
LTYPE
  5
46
330
5
100
AcDbSymbolTableRecord
100
AcDbLinetypeTableRecord
  2
CENTER
 70
    0
  3
Center ____ _ ____ _ ____ _ ____ _ ____ _ ____
 72
   65
 73
    4
 40
50.8
 49
31.75
 74
    0
 49
-6.35
 74
    0
 49
6.35
 74
    0
 49
-6.35
 74
    0
  0
LTYPE
  5
47
330
5
100
AcDbSymbolTableRecord
100
AcDbLinetypeTableRecord
  2
CENTERTINY
 70
    0
  3
Center (.15x) ___ _ ___ _ ___ _ ___ _ ___ _ ___
 72
   65
 73
    4
 40
7.619999999999999
 49
4.7625
 74
    0
 49
-0.9525
 74
    0
 49
0.9525
 74
    0
 49
-0.9525
 74
    0
  0
LTYPE
  5
48
330
5
100
AcDbSymbolTableRecord
100
AcDbLinetypeTableRecord
  2
CENTER2
 70
    0
  3
Center (.5x) ___ _ ___ _ ___ _ ___ _ ___ _ ___
 72
   65
 73
    4
 40
28.575
 49
19.05
 74
    0
 49
-3.175
 74
    0
 49
3.175
 74
    0
 49
-3.175
 74
    0
  0
LTYPE
  5
49
330
5
100
AcDbSymbolTableRecord
100
AcDbLinetypeTableRecord
  2
CENTERX2
 70
    0
  3
Center (2x) ________  __  ________  __  _____
 72
   65
 73
    4
 40
101.6
 49
63.5
 74
    0
 49
-12.7
 74
    0
 49
12.7
 74
    0
 49
-12.7
 74
    0
  0
ENDTAB
  0
TABLE
  2
LAYER
  5
2
330
0
100
AcDbSymbolTable
 70
    1
  0
LAYER
  5
10
330
2
100
AcDbSymbolTableRecord
100
AcDbLayerTableRecord
  2
0
 70
    0
 62
    7
  6
CONTINUOUS
370
    0
390
F
  0
LAYER
  5
4A
330
2
100
AcDbSymbolTableRecord
100
AcDbLayerTableRecord
  2
decoupe
 70
    0
 62
    7
  6
CONTINUOUS
370
    0
390
F
  0
LAYER
  5
4B
330
2
100
AcDbSymbolTableRecord
100
AcDbLayerTableRecord
  2
gravure
 70
    0
 62
    7
  6
CONTINUOUS
370
    0
390
F
  0
ENDTAB
  0
TABLE
  2
STYLE
  5
3
330
0
100
AcDbSymbolTable
 70
    3
  0
STYLE
  5
4C
330
2
100
AcDbSymbolTableRecord
100
AcDbTextStyleTableRecord
  2
Standard
 70
    0
 40
0
 41
1
 50
0
 71
    0
 42
1
  3
txt
  4

  0
ENDTAB
  0
TABLE
  2
VIEW
  5
6
330
0
100
AcDbSymbolTable
 70
    0
  0
ENDTAB
  0
TABLE
  2
UCS
  5
7
330
0
100
AcDbSymbolTable
 70
    0
  0
ENDTAB
  0
TABLE
  2
APPID
  5
9
330
0
100
AcDbSymbolTable
 70
    1
  0
APPID
  5
12
330
9
100
AcDbSymbolTableRecord
100
AcDbRegAppTableRecord
  2
ACAD
 70
    0
  0
APPID
  5
4D
330
9
100
AcDbSymbolTableRecord
100
AcDbRegAppTableRecord
  2
LibreCad
 70
    0
  0
ENDTAB
  0
TABLE
  2
DIMSTYLE
  5
A
330
0
100
AcDbSymbolTable
 70
    1
100
AcDbDimStyleTable
 71
    1
  0
DIMSTYLE
105
4E
330
A
100
AcDbSymbolTableRecord
100
AcDbDimStyleTableRecord
  2
Standard
 70
    0
 40
2.5
 41
2.5
 42
0.625
 43
0.38
 44
1.25
 45
0
 46
0
 47
0
 48
0
 49
1
140
5
141
0.09
142
0
143
25.4
144
1
145
0
146
1
147
0.625
148
0
 71
    0
 72
    0
 73
    0
 74
    1
 75
    0
 76
    0
 77
    0
 78
    1
 79
    0
170
    0
171
    2
172
    0
173
    0
174
    0
175
    0
176
    0
177
    0
178
    0
179
    2
271
    1
272
    4
273
    2
274
    2
275
    0
276
    0
277
    2
278
   44
279
    0
280
    0
281
    0
282
    0
283
    1
284
    0
285
    0
286
    0
288
    0
289
    3
340
standard
341

371
   -2
372
   -2
  0
ENDTAB
  0
TABLE
  2
BLOCK_RECORD
  5
1
330
0
100
AcDbSymbolTable
 70
    2
  0
BLOCK_RECORD
  5
1F
330
1
100
AcDbSymbolTableRecord
100
AcDbBlockTableRecord
  2
*Model_Space
 70
    0
280
    1
281
    0
  0
BLOCK_RECORD
  5
1E
330
1
100
AcDbSymbolTableRecord
100
AcDbBlockTableRecord
  2
*Paper_Space
 70
    0
280
    1
281
    0
  0
ENDTAB
  0
ENDSEC
  0
SECTION
  2
BLOCKS
  0
BLOCK
  5
20
330
1F
100
AcDbEntity
  8
0
100
AcDbBlockBegin
  2
*Model_Space
 70
    0
 10
0
 20
0
 30
0
  3
*Model_Space
  1

  0
ENDBLK
  5
21
330
1F
100
AcDbEntity
  8
0
100
AcDbBlockEnd
  0
BLOCK
  5
1C
330
1B
100
AcDbEntity
  8
0
100
AcDbBlockBegin
  2
*Paper_Space
 70
    0
 10
0
 20
0
 30
0
  3
*Paper_Space
  1

  0
ENDBLK
  5
1D
330
1F
100
AcDbEntity
  8
0
100
AcDbBlockEnd
  0
ENDSEC
  0
SECTION
  2
ENTITIES
  0
CIRCLE
  5
4F
100
AcDbEntity
  8
decoupe
  6
ByLayer
 62
  256
370
   -1
100
AcDbCircle
 10
0
 20
200
 40
95.5
  0
CIRCLE
  5
50
100
AcDbEntity
  8
decoupe
  6
ByLayer
 62
  256
370
   -1
100
AcDbCircle
 10
0
 20
0
 40
95.5
  0
CIRCLE
  5
51
100
AcDbEntity
  8
decoupe
  6
ByLayer
 62
  256
370
   -1
100
AcDbCircle
 10
-45
 20
122.0577136594011
 40
3
  0
CIRCLE
  5
52
100
AcDbEntity
  8
decoupe
  6
ByLayer
 62
  256
370
   -1
100
AcDbCircle
 10
90
 20
200.0000000000002
 40
3
  0
CIRCLE
  5
53
100
AcDbEntity
  8
decoupe
  6
ByLayer
 62
  256
370
   -1
100
AcDbCircle
 10
-45
 20
277.9422863405994
 40
3
  0
CIRCLE
  5
54
100
AcDbEntity
  8
decoupe
  6
ByLayer
 62
  256
370
   -1
100
AcDbCircle
 10
-45
 20
-77.94228634059891
 40
3
  0
CIRCLE
  5
55
100
AcDbEntity
  8
decoupe
  6
ByLayer
 62
  256
370
   -1
100
AcDbCircle
 10
90
 20
0
 40
3
  0
CIRCLE
  5
56
100
AcDbEntity
  8
decoupe
  6
ByLayer
 62
  256
370
   -1
100
AcDbCircle
 10
-45
 20
77.94228634059891
 40
3
  0
CIRCLE
  5
57
100
AcDbEntity
  8
decoupe
  6
ByLayer
 62
  256
370
   -1
100
AcDbCircle
 10
-200
 20
0
 40
95.5
  0
CIRCLE
  5
58
100
AcDbEntity
  8
decoupe
  6
ByLayer
 62
  256
370
   -1
100
AcDbCircle
 10
-245
 20
-77.94228634059891
 40
3
  0
CIRCLE
  5
59
100
AcDbEntity
  8
decoupe
  6
ByLayer
 62
  256
370
   -1
100
AcDbCircle
 10
-110
 20
0
 40
3
  0
CIRCLE
  5
5A
100
AcDbEntity
  8
decoupe
  6
ByLayer
 62
  256
370
   -1
100
AcDbCircle
 10
-245
 20
77.94228634059891
 40
3
  0
CIRCLE
  5
5B
100
AcDbEntity
  8
decoupe
  6
ByLayer
 62
  256
370
   -1
100
AcDbCircle
 10
-200
 20
0
 40
40
  0
CIRCLE
  5
5C
100
AcDbEntity
  8
decoupe
  6
ByLayer
 62
  256
370
   -1
100
AcDbCircle
 10
0
 20
0
 40
60
  0
CIRCLE
  5
5D
100
AcDbEntity
  8
decoupe
  6
ByLayer
 62
  256
370
   -1
100
AcDbCircle
 10
-200
 20
200
 40
84.00000000000139
  0
CIRCLE
  5
5E
100
AcDbEntity
  8
decoupe
  6
ByLayer
 62
  256
370
   -1
100
AcDbCircle
 10
0
 20
250
 40
1.5
  0
CIRCLE
  5
5F
100
AcDbEntity
  8
decoupe
  6
ByLayer
 62
  256
370
   -1
100
AcDbCircle
 10
43.30127018922212
 20
225
 40
1.5
  0
CIRCLE
  5
60
100
AcDbEntity
  8
decoupe
  6
ByLayer
 62
  256
370
   -1
100
AcDbCircle
 10
43.30127018922212
 20
175
 40
1.5
  0
CIRCLE
  5
61
100
AcDbEntity
  8
decoupe
  6
ByLayer
 62
  256
370
   -1
100
AcDbCircle
 10
0
 20
150
 40
1.5
  0
CIRCLE
  5
62
100
AcDbEntity
  8
decoupe
  6
ByLayer
 62
  256
370
   -1
100
AcDbCircle
 10
-43.30127018922212
 20
175
 40
1.5
  0
CIRCLE
  5
63
100
AcDbEntity
  8
decoupe
  6
ByLayer
 62
  256
370
   -1
100
AcDbCircle
 10
-43.30127018922212
 20
225
 40
1.5
  0
LINE
  5
64
100
AcDbEntity
  8
decoupe
  6
ByLayer
 62
  256
370
   -1
100
AcDbLine
 10
-202.7499999999982
 20
248.4122867597284
 11
-199.9999999999982
 21
246.8245735194573
  0
LINE
  5
65
100
AcDbEntity
  8
decoupe
  6
ByLayer
 62
  256
370
   -1
100
AcDbLine
 10
-199.9999999999982
 20
246.8245735194573
 11
-197.2499999999982
 21
248.4122867597287
  0
LINE
  5
66
100
AcDbEntity
  8
decoupe
  6
ByLayer
 62
  256
370
   -1
100
AcDbLine
 10
-197.2499999999982
 20
248.4122867597293
 11
-197.2499999999986
 21
251.587713240272
  0
LINE
  5
67
100
AcDbEntity
  8
decoupe
  6
ByLayer
 62
  256
370
   -1
100
AcDbLine
 10
-197.2499999999986
 20
251.587713240272
 11
-199.9999999999986
 21
253.1754264805436
  0
LINE
  5
68
100
AcDbEntity
  8
decoupe
  6
ByLayer
 62
  256
370
   -1
100
AcDbLine
 10
-199.9999999999986
 20
253.1754264805436
 11
-202.7499999999982
 21
251.5877132402718
  0
LINE
  5
69
100
AcDbEntity
  8
decoupe
  6
ByLayer
 62
  256
370
   -1
100
AcDbLine
 10
-202.7499999999982
 20
251.5877132402718
 11
-202.7499999999982
 21
248.4122867597289
  0
LINE
  5
6A
100
AcDbEntity
  8
decoupe
  6
ByLayer
 62
  256
370
   -1
100
AcDbLine
 10
-243.3012701892208
 20
221.8245735194587
 11
-240.5512701892212
 21
223.4122867597303
  0
LINE
  5
6B
100
AcDbEntity
  8
decoupe
  6
ByLayer
 62
  256
370
   -1
100
AcDbLine
 10
-240.5512701892212
 20
223.4122867597303
 11
-240.5512701892212
 21
226.5877132402732
  0
LINE
  5
6C
100
AcDbEntity
  8
decoupe
  6
ByLayer
 62
  256
370
   -1
100
AcDbLine
 10
-240.5512701892217
 20
226.5877132402734
 11
-243.3012701892217
 21
228.1754264805445
  0
LINE
  5
6D
100
AcDbEntity
  8
decoupe
  6
ByLayer
 62
  256
370
   -1
100
AcDbLine
 10
-243.3012701892217
 20
228.1754264805445
 11
-246.0512701892217
 21
226.5877132402729
  0
LINE
  5
6E
100
AcDbEntity
  8
decoupe
  6
ByLayer
 62
  256
370
   -1
100
AcDbLine
 10
-246.0512701892217
 20
226.5877132402729
 11
-246.0512701892212
 21
223.4122867597303
  0
LINE
  5
6F
100
AcDbEntity
  8
decoupe
  6
ByLayer
 62
  256
370
   -1
100
AcDbLine
 10
-246.0512701892212
 20
223.4122867597303
 11
-243.3012701892212
 21
221.8245735194587
  0
LINE
  5
70
100
AcDbEntity
  8
decoupe
  6
ByLayer
 62
  256
370
   -1
100
AcDbLine
 10
-240.5512701892226
 20
173.4122867597303
 11
-240.551270189223
 21
176.5877132402729
  0
LINE
  5
71
100
AcDbEntity
  8
decoupe
  6
ByLayer
 62
  256
370
   -1
100
AcDbLine
 10
-240.551270189223
 20
176.5877132402729
 11
-243.301270189223
 21
178.1754264805445
  0
LINE
  5
72
100
AcDbEntity
  8
decoupe
  6
ByLayer
 62
  256
370
   -1
100
AcDbLine
 10
-243.3012701892235
 20
178.175426480544
 11
-246.051270189223
 21
176.5877132402725
  0
LINE
  5
73
100
AcDbEntity
  8
decoupe
  6
ByLayer
 62
  256
370
   -1
100
AcDbLine
 10
-246.051270189223
 20
176.5877132402725
 11
-246.051270189223
 21
173.4122867597293
  0
LINE
  5
74
100
AcDbEntity
  8
decoupe
  6
ByLayer
 62
  256
370
   -1
100
AcDbLine
 10
-246.051270189223
 20
173.4122867597293
 11
-243.301270189223
 21
171.8245735194585
  0
LINE
  5
75
100
AcDbEntity
  8
decoupe
  6
ByLayer
 62
  256
370
   -1
100
AcDbLine
 10
-243.301270189223
 20
171.8245735194585
 11
-240.551270189223
 21
173.41228675973
  0
LINE
  5
76
100
AcDbEntity
  8
decoupe
  6
ByLayer
 62
  256
370
   -1
100
AcDbLine
 10
-197.2500000000018
 20
151.5877132402716
 11
-200.0000000000018
 21
153.1754264805427
  0
LINE
  5
77
100
AcDbEntity
  8
decoupe
  6
ByLayer
 62
  256
370
   -1
100
AcDbLine
 10
-200.0000000000018
 20
153.1754264805427
 11
-202.7500000000018
 21
151.5877132402713
  0
LINE
  5
78
100
AcDbEntity
  8
decoupe
  6
ByLayer
 62
  256
370
   -1
100
AcDbLine
 10
-202.7500000000018
 20
151.5877132402707
 11
-202.7500000000014
 21
148.412286759728
  0
LINE
  5
79
100
AcDbEntity
  8
decoupe
  6
ByLayer
 62
  256
370
   -1
100
AcDbLine
 10
-202.7500000000014
 20
148.412286759728
 11
-200.0000000000014
 21
146.8245735194564
  0
LINE
  5
7A
100
AcDbEntity
  8
decoupe
  6
ByLayer
 62
  256
370
   -1
100
AcDbLine
 10
-200.0000000000014
 20
146.8245735194564
 11
-197.2500000000018
 21
148.4122867597282
  0
LINE
  5
7B
100
AcDbEntity
  8
decoupe
  6
ByLayer
 62
  256
370
   -1
100
AcDbLine
 10
-197.2500000000018
 20
148.4122867597282
 11
-197.2500000000018
 21
151.5877132402711
  0
LINE
  5
7C
100
AcDbEntity
  8
decoupe
  6
ByLayer
 62
  256
370
   -1
100
AcDbLine
 10
-156.6987298107792
 20
178.1754264805413
 11
-159.4487298107788
 21
176.5877132402697
  0
LINE
  5
7D
100
AcDbEntity
  8
decoupe
  6
ByLayer
 62
  256
370
   -1
100
AcDbLine
 10
-159.4487298107788
 20
176.5877132402697
 11
-159.4487298107788
 21
173.4122867597268
  0
LINE
  5
7E
100
AcDbEntity
  8
decoupe
  6
ByLayer
 62
  256
370
   -1
100
AcDbLine
 10
-159.4487298107783
 20
173.4122867597266
 11
-156.6987298107783
 21
171.8245735194555
  0
LINE
  5
7F
100
AcDbEntity
  8
decoupe
  6
ByLayer
 62
  256
370
   -1
100
AcDbLine
 10
-156.6987298107783
 20
171.8245735194555
 11
-153.9487298107783
 21
173.4122867597271
  0
LINE
  5
80
100
AcDbEntity
  8
decoupe
  6
ByLayer
 62
  256
370
   -1
100
AcDbLine
 10
-153.9487298107783
 20
173.4122867597271
 11
-153.9487298107788
 21
176.5877132402697
  0
LINE
  5
81
100
AcDbEntity
  8
decoupe
  6
ByLayer
 62
  256
370
   -1
100
AcDbLine
 10
-153.9487298107788
 20
176.5877132402697
 11
-156.6987298107788
 21
178.1754264805413
  0
LINE
  5
82
100
AcDbEntity
  8
decoupe
  6
ByLayer
 62
  256
370
   -1
100
AcDbLine
 10
-159.4487298107774
 20
226.5877132402697
 11
-159.448729810777
 21
223.4122867597271
  0
LINE
  5
83
100
AcDbEntity
  8
decoupe
  6
ByLayer
 62
  256
370
   -1
100
AcDbLine
 10
-159.448729810777
 20
223.4122867597271
 11
-156.698729810777
 21
221.8245735194555
  0
LINE
  5
84
100
AcDbEntity
  8
decoupe
  6
ByLayer
 62
  256
370
   -1
100
AcDbLine
 10
-156.6987298107765
 20
221.824573519456
 11
-153.948729810777
 21
223.4122867597275
  0
LINE
  5
85
100
AcDbEntity
  8
decoupe
  6
ByLayer
 62
  256
370
   -1
100
AcDbLine
 10
-153.948729810777
 20
223.4122867597275
 11
-153.948729810777
 21
226.5877132402707
  0
LINE
  5
86
100
AcDbEntity
  8
decoupe
  6
ByLayer
 62
  256
370
   -1
100
AcDbLine
 10
-153.948729810777
 20
226.5877132402707
 11
-156.698729810777
 21
228.1754264805415
  0
LINE
  5
87
100
AcDbEntity
  8
decoupe
  6
ByLayer
 62
  256
370
   -1
100
AcDbLine
 10
-156.698729810777
 20
228.1754264805415
 11
-159.448729810777
 21
226.5877132402702
  0
CIRCLE
  5
88
100
AcDbEntity
  8
decoupe
  6
ByLayer
 62
  256
370
   -1
100
AcDbCircle
 10
-200
 20
50
 40
1.5
  0
CIRCLE
  5
89
100
AcDbEntity
  8
decoupe
  6
ByLayer
 62
  256
370
   -1
100
AcDbCircle
 10
-156.6987298107779
 20
25
 40
1.5
  0
CIRCLE
  5
8A
100
AcDbEntity
  8
decoupe
  6
ByLayer
 62
  256
370
   -1
100
AcDbCircle
 10
-156.6987298107779
 20
-25
 40
1.5
  0
CIRCLE
  5
8B
100
AcDbEntity
  8
decoupe
  6
ByLayer
 62
  256
370
   -1
100
AcDbCircle
 10
-200
 20
-50
 40
1.5
  0
CIRCLE
  5
8C
100
AcDbEntity
  8
decoupe
  6
ByLayer
 62
  256
370
   -1
100
AcDbCircle
 10
-243.3012701892221
 20
-25
 40
1.5
  0
CIRCLE
  5
8D
100
AcDbEntity
  8
decoupe
  6
ByLayer
 62
  256
370
   -1
100
AcDbCircle
 10
-243.3012701892221
 20
25
 40
1.5
  0
CIRCLE
  5
8E
100
AcDbEntity
  8
decoupe
  6
ByLayer
 62
  256
370
   -1
100
AcDbCircle
 10
-200
 20
200
 40
39
  0
CIRCLE
  5
8F
100
AcDbEntity
  8
decoupe
  6
ByLayer
 62
  256
370
   -1
100
AcDbCircle
 10
0
 20
200
 40
39
  0
LINE
  5
90
100
AcDbEntity
  8
gravure
  6
ByLayer
 62
  256
370
   -1
100
AcDbLine
 10
-170.1330106458018
 20
270.0644763639234
 11
-169.855232868024
 21
270.5456015882481
  0
ARC
  5
91
100
AcDbEntity
  8
gravure
  6
ByLayer
 62
  256
370
   -1
100
AcDbCircle
 10
-170.8174833166734
 20
271.1011571438037
 40
1.111111111111111
100
AcDbArc
 50
330
 51
150
  0
LINE
  5
92
100
AcDbEntity
  8
gravure
  6
ByLayer
 62
  256
370
   -1
100
AcDbLine
 10
-171.7797337653228
 20
271.6567126993592
 11
-172.0575115431006
 21
271.1755874750345
  0
ARC
  5
93
100
AcDbEntity
  8
gravure
  6
ByLayer
 62
  256
370
   -1
100
AcDbCircle
 10
-171.0952610944512
 20
270.6200319194789
 40
1.111111111111111
100
AcDbArc
 50
150
 51
330
  0
ARC
  5
94
100
AcDbEntity
  8
gravure
  6
ByLayer
 62
  256
370
   -1
100
AcDbCircle
 10
-169.7063722055623
 20
273.0256580411024
 40
1.111111111111111
100
AcDbArc
 50
239.9999999999999
 51
59.99999999999999
  0
ARC
  5
95
100
AcDbEntity
  8
gravure
  6
ByLayer
 62
  256
370
   -1
100
AcDbCircle
 10
-169.7063722055623
 20
273.0256580411024
 40
1.111111111111111
100
AcDbArc
 50
59.99999999999999
 51
239.9999999999999
  0
ARC
  5
96
100
AcDbEntity
  8
gravure
  6
ByLayer
 62
  256
370
   -1
100
AcDbCircle
 10
-166.1301623019561
 20
271.4420575149015
 40
0.6944444444444444
100
AcDbArc
 50
6.869897645843999
 51
113.130102354156
  0
ARC
  5
97
100
AcDbEntity
  8
gravure
  6
ByLayer
 62
  256
370
   -1
100
AcDbCircle
 10
-163.9056261216234
 20
268.0728449802907
 40
4.722222222222222
100
AcDbArc
 50
121.927513064147
 51
178.0724869358529
  0
ARC
  5
98
100
AcDbEntity
  8
gravure
  6
ByLayer
 62
  256
370
   -1
100
AcDbCircle
 10
-167.9357178575117
 20
268.314743556791
 40
0.6944444444444444
100
AcDbArc
 50
186.869897645844
 51
293.130102354156
  0
ARC
  5
99
100
AcDbEntity
  8
gravure
  6
ByLayer
 62
  256
370
   -1
100
AcDbCircle
 10
-170.1602540378444
 20
271.6839560914018
 40
4.722222222222222
100
AcDbArc
 50
301.927513064147
 51
358.072486935853
  0
LINE
  5
9A
100
AcDbEntity
  8
gravure
  6
ByLayer
 62
  256
370
   -1
100
AcDbLine
 10
-163.3773139581105
 20
270.6545751564184
 11
-164.4339382851364
 21
265.4911148041629
  0
LINE
  5
9B
100
AcDbEntity
  8
gravure
  6
ByLayer
 62
  256
370
   -1
100
AcDbLine
 10
-164.4339382851364
 20
265.4911148041629
 11
-160.4905626121623
 21
268.9879084897518
  0
LINE
  5
9C
100
AcDbEntity
  8
gravure
  6
ByLayer
 62
  256
370
   -1
100
AcDbLine
 10
-159.6027424947438
 20
267.192324707769
 11
-158.0849364905389
 21
267.5990196008628
  0
LINE
  5
9D
100
AcDbEntity
  8
gravure
  6
ByLayer
 62
  256
370
   -1
100
AcDbLine
 10
-158.0849364905389
 20
267.5990196008628
 11
-160.5849364905389
 21
263.2688925819407
  0
LINE
  5
9E
100
AcDbEntity
  8
gravure
  6
ByLayer
 62
  256
370
   -1
100
AcDbLine
 10
-159.1415608175649
 20
262.4355592486074
 11
-154.7170599202661
 21
265.6545751564184
  0
LINE
  5
9F
100
AcDbEntity
  8
gravure
  6
ByLayer
 62
  256
370
   -1
100
AcDbLine
 10
-154.6783181534178
 20
261.4624556427524
 11
-152.5934582188517
 21
260.258761198308
  0
LINE
  5
A0
100
AcDbEntity
  8
gravure
  6
ByLayer
 62
  256
370
   -1
100
AcDbLine
 10
-155.773684247292
 20
260.4911148041629
 11
-151.830308574318
 21
263.9879084897518
  0
LINE
  5
A1
100
AcDbEntity
  8
gravure
  6
ByLayer
 62
  256
370
   -1
100
AcDbLine
 10
-151.830308574318
 20
263.9879084897518
 11
-152.8869329013439
 21
258.8244481374962
  0
LINE
  5
A2
100
AcDbEntity
  8
gravure
  6
ByLayer
 62
  256
370
   -1
100
AcDbLine
 10
30.10755196636054
 20
269.9255874750345
 11
30.38532974413834
 21
270.4067126993592
  0
ARC
  5
A3
100
AcDbEntity
  8
gravure
  6
ByLayer
 62
  256
370
   -1
100
AcDbCircle
 10
29.42307929548896
 20
270.9622682549148
 40
1.111111111111111
100
AcDbArc
 50
330
 51
150
  0
LINE
  5
A4
100
AcDbEntity
  8
gravure
  6
ByLayer
 62
  256
370
   -1
100
AcDbLine
 10
28.46082884683958
 20
271.5178238104703
 11
28.18305106906178
 21
271.0366985861456
  0
ARC
  5
A5
100
AcDbEntity
  8
gravure
  6
ByLayer
 62
  256
370
   -1
100
AcDbCircle
 10
29.14530151771116
 20
270.48114303059
 40
1.111111111111111
100
AcDbArc
 50
150
 51
330
  0
ARC
  5
A6
100
AcDbEntity
  8
gravure
  6
ByLayer
 62
  256
370
   -1
100
AcDbCircle
 10
30.53419040660008
 20
272.8867691522135
 40
1.111111111111111
100
AcDbArc
 50
239.9999999999999
 51
59.99999999999999
  0
ARC
  5
A7
100
AcDbEntity
  8
gravure
  6
ByLayer
 62
  256
370
   -1
100
AcDbCircle
 10
30.53419040660008
 20
272.8867691522135
 40
1.111111111111111
100
AcDbArc
 50
59.99999999999999
 51
239.9999999999999
  0
ARC
  5
A8
100
AcDbEntity
  8
gravure
  6
ByLayer
 62
  256
370
   -1
100
AcDbCircle
 10
34.1104003102062
 20
271.3031686260126
 40
0.6944444444444444
100
AcDbArc
 50
6.869897645843999
 51
113.130102354156
  0
ARC
  5
A9
100
AcDbEntity
  8
gravure
  6
ByLayer
 62
  256
370
   -1
100
AcDbCircle
 10
36.33493649053891
 20
267.9339560914018
 40
4.722222222222222
100
AcDbArc
 50
121.927513064147
 51
178.0724869358529
  0
ARC
  5
AA
100
AcDbEntity
  8
gravure
  6
ByLayer
 62
  256
370
   -1
100
AcDbCircle
 10
32.30484475465066
 20
268.1758546679022
 40
0.6944444444444444
100
AcDbArc
 50
186.869897645844
 51
293.130102354156
  0
ARC
  5
AB
100
AcDbEntity
  8
gravure
  6
ByLayer
 62
  256
370
   -1
100
AcDbCircle
 10
30.08030857431796
 20
271.5450672025129
 40
4.722222222222222
100
AcDbArc
 50
301.927513064147
 51
358.072486935853
  0
LINE
  5
AC
100
AcDbEntity
  8
gravure
  6
ByLayer
 62
  256
370
   -1
100
AcDbLine
 10
36.86324865405187
 20
270.5156862675296
 11
35.80662432702594
 21
265.3522259152741
  0
LINE
  5
AD
100
AcDbEntity
  8
gravure
  6
ByLayer
 62
  256
370
   -1
100
AcDbLine
 10
35.80662432702594
 20
265.3522259152741
 11
39.75000000000001
 21
268.8490196008629
  0
LINE
  5
AE
100
AcDbEntity
  8
gravure
  6
ByLayer
 62
  256
370
   -1
100
AcDbLine
 10
40.63782011741852
 20
267.0534358188802
 11
42.15562612162344
 21
267.460130711974
  0
LINE
  5
AF
100
AcDbEntity
  8
gravure
  6
ByLayer
 62
  256
370
   -1
100
AcDbLine
 10
42.15562612162344
 20
267.460130711974
 11
39.65562612162344
 21
263.1300036930518
  0
LINE
  5
B0
100
AcDbEntity
  8
gravure
  6
ByLayer
 62
  256
370
   -1
100
AcDbLine
 10
41.09900179459751
 20
262.2966703597185
 11
45.52350269189626
 21
265.5156862675295
  0
LINE
  5
B1
100
AcDbEntity
  8
gravure
  6
ByLayer
 62
  256
370
   -1
100
AcDbLine
 10
47.05858031457092
 20
262.063407592453
 11
45.8557672537592
 21
262.7578520368974
  0
ARC
  5
B2
100
AcDbEntity
  8
gravure
  6
ByLayer
 62
  256
370
   -1
100
AcDbCircle
 10
47.6141358701265
 20
263.0256580411024
 40
1.111111111111111
100
AcDbArc
 50
239.9999999999999
 51
59.99999999999999
  0
LINE
  5
B3
100
AcDbEntity
  8
gravure
  6
ByLayer
 62
  256
370
   -1
100
AcDbLine
 10
48.16969142568204
 20
263.9879084897518
 11
46.96687836487032
 21
264.6823529341962
  0
LINE
  5
B4
100
AcDbEntity
  8
gravure
  6
ByLayer
 62
  256
370
   -1
100
AcDbLine
 10
46.96687836487032
 20
264.6823529341962
 11
44.46687836487032
 21
260.352225915274
  0
LINE
  5
B5
100
AcDbEntity
  8
gravure
  6
ByLayer
 62
  256
370
   -1
100
AcDbLine
 10
44.46687836487032
 20
260.352225915274
 11
45.66969142568203
 21
259.6577814708295
  0
ARC
  5
B6
100
AcDbEntity
  8
gravure
  6
ByLayer
 62
  256
370
   -1
100
AcDbCircle
 10
46.3641358701265
 20
260.8605945316413
 40
1.388888888888889
100
AcDbArc
 50
239.9999999999999
 51
59.99999999999999
  0
LINE
  5
B7
100
AcDbEntity
  8
gravure
  6
ByLayer
 62
  256
370
   -1
100
AcDbLine
 10
36.48255392057349
 20
80.96741250155182
 11
36.76033169835127
 21
81.44853772587651
  0
ARC
  5
B8
100
AcDbEntity
  8
gravure
  6
ByLayer
 62
  256
370
   -1
100
AcDbCircle
 10
35.79808124970189
 20
82.00409328143206
 40
1.111111111111111
100
AcDbArc
 50
330
 51
150
  0
LINE
  5
B9
100
AcDbEntity
  8
gravure
  6
ByLayer
 62
  256
370
   -1
100
AcDbLine
 10
34.83583080105252
 20
82.55964883698762
 11
34.55805302327474
 21
82.07852361266293
  0
ARC
  5
BA
100
AcDbEntity
  8
gravure
  6
ByLayer
 62
  256
370
   -1
100
AcDbCircle
 10
35.52030347192412
 20
81.52296805710738
 40
1.111111111111111
100
AcDbArc
 50
150
 51
330
  0
ARC
  5
BB
100
AcDbEntity
  8
gravure
  6
ByLayer
 62
  256
370
   -1
100
AcDbCircle
 10
36.909192360813
 20
83.9285941787308
 40
1.111111111111111
100
AcDbArc
 50
239.9999999999999
 51
59.99999999999999
  0
ARC
  5
BC
100
AcDbEntity
  8
gravure
  6
ByLayer
 62
  256
370
   -1
100
AcDbCircle
 10
36.909192360813
 20
83.9285941787308
 40
1.111111111111111
100
AcDbArc
 50
59.99999999999999
 51
239.9999999999999
  0
ARC
  5
BD
100
AcDbEntity
  8
gravure
  6
ByLayer
 62
  256
370
   -1
100
AcDbCircle
 10
40.48540226441915
 20
82.34499365252988
 40
0.6944444444444444
100
AcDbArc
 50
6.869897645843999
 51
113.130102354156
  0
ARC
  5
BE
100
AcDbEntity
  8
gravure
  6
ByLayer
 62
  256
370
   -1
100
AcDbCircle
 10
42.70993844475184
 20
78.97578111791908
 40
4.722222222222222
100
AcDbArc
 50
121.927513064147
 51
178.0724869358529
  0
ARC
  5
BF
100
AcDbEntity
  8
gravure
  6
ByLayer
 62
  256
370
   -1
100
AcDbCircle
 10
38.67984670886359
 20
79.2176796944194
 40
0.6944444444444444
100
AcDbArc
 50
186.869897645844
 51
293.130102354156
  0
ARC
  5
C0
100
AcDbEntity
  8
gravure
  6
ByLayer
 62
  256
370
   -1
100
AcDbCircle
 10
36.4553105285309
 20
82.5868922290302
 40
4.722222222222222
100
AcDbArc
 50
301.927513064147
 51
358.072486935853
  0
LINE
  5
C1
100
AcDbEntity
  8
gravure
  6
ByLayer
 62
  256
370
   -1
100
AcDbLine
 10
43.23825060826481
 20
81.55751129404686
 11
42.18162628123888
 21
76.39405094179133
  0
LINE
  5
C2
100
AcDbEntity
  8
gravure
  6
ByLayer
 62
  256
370
   -1
100
AcDbLine
 10
42.18162628123888
 20
76.39405094179133
 11
46.12500195421295
 21
79.89084462738019
  0
LINE
  5
C3
100
AcDbEntity
  8
gravure
  6
ByLayer
 62
  256
370
   -1
100
AcDbLine
 10
47.01282207163145
 20
78.09526084539748
 11
48.53062807583638
 21
78.5019557384913
  0
LINE
  5
C4
100
AcDbEntity
  8
gravure
  6
ByLayer
 62
  256
370
   -1
100
AcDbLine
 10
48.53062807583638
 20
78.5019557384913
 11
46.03062807583638
 21
74.17182871956911
  0
LINE
  5
C5
100
AcDbEntity
  8
gravure
  6
ByLayer
 62
  256
370
   -1
100
AcDbLine
 10
47.47400374881045
 20
73.33849538623576
 11
51.8985046461092
 21
76.55751129404685
  0
LINE
  5
C6
100
AcDbEntity
  8
gravure
  6
ByLayer
 62
  256
370
   -1
100
AcDbLine
 10
50.84188031908326
 20
71.39405094179132
 11
52.28525599205732
 21
70.56071760845799
  0
ARC
  5
C7
100
AcDbEntity
  8
gravure
  6
ByLayer
 62
  256
370
   -1
100
AcDbCircle
 10
52.84081185144455
 20
71.52296692319217
 40
1.111110281027884
100
AcDbArc
 50
239.999957195713
 51
330.000042804287
  0
LINE
  5
C8
100
AcDbEntity
  8
gravure
  6
ByLayer
 62
  256
370
   -1
100
AcDbLine
 10
53.80306199626226
 20
70.96741250155181
 11
55.19195088515114
 21
73.37303862317525
  0
ARC
  5
C9
100
AcDbEntity
  8
gravure
  6
ByLayer
 62
  256
370
   -1
100
AcDbCircle
 10
54.22970157041697
 20
73.92859448256246
 40
1.111110281027884
100
AcDbArc
 50
329.9999571957131
 51
60.00004280428696
  0
LINE
  5
CA
100
AcDbEntity
  8
gravure
  6
ByLayer
 62
  256
370
   -1
100
AcDbLine
 10
54.78525599205732
 20
74.89084462738018
 11
53.34188031908326
 21
75.72417796071352
  0
LINE
  5
CB
100
AcDbEntity
  8
gravure
  6
ByLayer
 62
  256
370
   -1
100
AcDbLine
 10
53.34188031908326
 20
75.72417796071352
 11
50.84188031908326
 21
71.39405094179132
  0
LINE
  5
CC
100
AcDbEntity
  8
gravure
  6
ByLayer
 62
  256
370
   -1
100
AcDbLine
 10
-165.0268854214771
 20
77.79743357115174
 11
-164.7491076436993
 21
78.27855879547644
  0
ARC
  5
CD
100
AcDbEntity
  8
gravure
  6
ByLayer
 62
  256
370
   -1
100
AcDbCircle
 10
-165.7113580923487
 20
78.834114351032
 40
1.111111111111111
100
AcDbArc
 50
330
 51
150
  0
LINE
  5
CE
100
AcDbEntity
  8
gravure
  6
ByLayer
 62
  256
370
   -1
100
AcDbLine
 10
-166.6736085409981
 20
79.38966990658756
 11
-166.9513863187758
 21
78.90854468226287
  0
ARC
  5
CF
100
AcDbEntity
  8
gravure
  6
ByLayer
 62
  256
370
   -1
100
AcDbCircle
 10
-165.9891358701265
 20
78.35298912670731
 40
1.111111111111111
100
AcDbArc
 50
150
 51
330
  0
ARC
  5
D0
100
AcDbEntity
  8
gravure
  6
ByLayer
 62
  256
370
   -1
100
AcDbCircle
 10
-164.6002469812376
 20
80.75861524833074
 40
1.111111111111111
100
AcDbArc
 50
239.9999999999999
 51
59.99999999999999
  0
ARC
  5
D1
100
AcDbEntity
  8
gravure
  6
ByLayer
 62
  256
370
   -1
100
AcDbCircle
 10
-164.6002469812376
 20
80.75861524833074
 40
1.111111111111111
100
AcDbArc
 50
59.99999999999999
 51
239.9999999999999
  0
ARC
  5
D2
100
AcDbEntity
  8
gravure
  6
ByLayer
 62
  256
370
   -1
100
AcDbCircle
 10
-161.0240370776314
 20
79.1750147221298
 40
0.6944444444444444
100
AcDbArc
 50
6.869897645843999
 51
113.130102354156
  0
ARC
  5
D3
100
AcDbEntity
  8
gravure
  6
ByLayer
 62
  256
370
   -1
100
AcDbCircle
 10
-158.7995008972987
 20
75.80580218751901
 40
4.722222222222222
100
AcDbArc
 50
121.927513064147
 51
178.0724869358529
  0
ARC
  5
D4
100
AcDbEntity
  8
gravure
  6
ByLayer
 62
  256
370
   -1
100
AcDbCircle
 10
-162.829592633187
 20
76.04770076401932
 40
0.6944444444444444
100
AcDbArc
 50
186.869897645844
 51
293.130102354156
  0
ARC
  5
D5
100
AcDbEntity
  8
gravure
  6
ByLayer
 62
  256
370
   -1
100
AcDbCircle
 10
-165.0541288135197
 20
79.41691329863012
 40
4.722222222222222
100
AcDbArc
 50
301.927513064147
 51
358.072486935853
  0
LINE
  5
D6
100
AcDbEntity
  8
gravure
  6
ByLayer
 62
  256
370
   -1
100
AcDbLine
 10
-158.2711887337858
 20
78.38753236364678
 11
-159.3278130608117
 21
73.22407201139126
  0
LINE
  5
D7
100
AcDbEntity
  8
gravure
  6
ByLayer
 62
  256
370
   -1
100
AcDbLine
 10
-159.3278130608117
 20
73.22407201139126
 11
-155.3844373878376
 21
76.7208656969801
  0
LINE
  5
D8
100
AcDbEntity
  8
gravure
  6
ByLayer
 62
  256
370
   -1
100
AcDbLine
 10
-154.4966172704191
 20
74.9252819149974
 11
-152.9788112662142
 21
75.33197680809123
  0
LINE
  5
D9
100
AcDbEntity
  8
gravure
  6
ByLayer
 62
  256
370
   -1
100
AcDbLine
 10
-152.9788112662142
 20
75.33197680809123
 11
-155.4788112662142
 21
71.00184978916903
  0
LINE
  5
DA
100
AcDbEntity
  8
gravure
  6
ByLayer
 62
  256
370
   -1
100
AcDbLine
 10
-154.0354355932402
 20
70.1685164558357
 11
-149.6109346959414
 21
73.38753236364678
  0
LINE
  5
DB
100
AcDbEntity
  8
gravure
  6
ByLayer
 62
  256
370
   -1
100
AcDbLine
 10
-148.7430581256686
 20
67.11296090028014
 11
-149.705308574318
 21
67.6685164558357
  0
ARC
  5
DC
100
AcDbEntity
  8
gravure
  6
ByLayer
 62
  256
370
   -1
100
AcDbCircle
 10
-149.1497541526776
 20
68.63076660065342
 40
1.111110281027884
100
AcDbArc
 50
149.9999571957131
 51
240.0000428042869
  0
LINE
  5
DD
100
AcDbEntity
  8
gravure
  6
ByLayer
 62
  256
370
   -1
100
AcDbLine
 10
-150.1120034674118
 20
69.18632246004064
 11
-148.7231145785229
 21
71.59194858166407
  0
ARC
  5
DE
100
AcDbEntity
  8
gravure
  6
ByLayer
 62
  256
370
   -1
100
AcDbCircle
 10
-147.7608644337052
 20
71.0363941600237
 40
1.111110281027884
100
AcDbArc
 50
59.99995719571301
 51
150.000042804287
  0
LINE
  5
DF
100
AcDbEntity
  8
gravure
  6
ByLayer
 62
  256
370
   -1
100
AcDbLine
 10
-147.205308574318
 20
71.9986434747579
 11
-146.2430581256686
 21
71.44308791920233
  0
ENDSEC
  0
SECTION
  2
OBJECTS
  0
DICTIONARY
  5
C
330
0
100
AcDbDictionary
281
    1
  3
ACAD_GROUP
350
D
  0
DICTIONARY
  5
D
330
C
100
AcDbDictionary
281
    1
  0
PLOTSETTINGS
  5
E0
100
AcDbPlotSettings
  6
1x1
 40
0
 41
0
 42
0
 43
0
  0
ENDSEC
  0
EOF
