999
dxfrw 0.6.3
  0
SECTION
  2
HEADER
  9
$ACADVER
  1
AC1021
  9
$DWGCODEPAGE
  3
ANSI_1252
  9
$INSBASE
 10
0
 20
0
 30
0
  9
$EXTMIN
 10
-466.0254037844387
 20
-2350.879532511287
 30
0
  9
$EXTMAX
 10
4310
 20
1600
 30
0
  9
$LIMMIN
 10
0
 20
0
  9
$LIMMAX
 10
420
 20
297
  9
$ORTHOMODE
 70
    0
  9
$REGENMODE
 70
    1
  9
$FILLMODE
 70
    1
  9
$QTEXTMODE
 70
    0
  9
$MIRRTEXT
 70
    0
  9
$LTSCALE
 40
1
  9
$ATTMODE
 70
    0
  9
$TEXTSIZE
 40
2.5
  9
$TRACEWID
 40
15.68
  9
$TEXTSTYLE
  7
STANDARD
  9
$CLAYER
  8
draft
  9
$CELTYPE
  6
BYLAYER
  9
$CECOLOR
 62
  256
  9
$CELTSCALE
 40
1
  9
$DISPSILH
 70
    0
  9
$DIMSCALE
 40
2.5
  9
$DIMASZ
 40
2.5
  9
$DIMEXO
 40
0.625
  9
$DIMDLI
 40
3.75
  9
$DIMRND
 40
0
  9
$DIMDLE
 40
0
  9
$DIMEXE
 40
1.25
  9
$DIMTP
 40
0
  9
$DIMTM
 40
0
  9
$DIMTXT
 40
15
  9
$DIMCEN
 40
2.5
  9
$DIMTSZ
 40
0
  9
$DIMTOL
 70
    0
  9
$DIMLIM
 70
    0
  9
$DIMTIH
 70
    0
  9
$DIMTOH
 70
    0
  9
$DIMSE1
 70
    0
  9
$DIMSE2
 70
    0
  9
$DIMTAD
 70
    1
  9
$DIMZIN
 70
    1
  9
$DIMBLK
  1

  9
$DIMASO
 70
    1
  9
$DIMSHO
 70
    1
  9
$DIMPOST
  1

  9
$DIMAPOST
  1

  9
$DIMALT
 70
    0
  9
$DIMALTD
 70
    3
  9
$DIMALTF
 40
0.03937
  9
$DIMLFAC
 40
1
  9
$DIMTOFL
 70
    1
  9
$DIMTVP
 40
0
  9
$DIMTIX
 70
    0
  9
$DIMSOXD
 70
    0
  9
$DIMSAH
 70
    0
  9
$DIMBLK1
  1

  9
$DIMBLK2
  1

  9
$DIMSTYLE
  2
STANDARD
  9
$DIMCLRD
 70
    0
  9
$DIMCLRE
 70
    0
  9
$DIMCLRT
 70
    0
  9
$DIMTFAC
 40
1
  9
$DIMGAP
 40
0.625
  9
$DIMJUST
 70
    0
  9
$DIMSD1
 70
    0
  9
$DIMSD2
 70
    0
  9
$DIMTOLJ
 70
    0
  9
$DIMTZIN
 70
    8
  9
$DIMALTZ
 70
    0
  9
$DIMALTTZ
 70
    0
  9
$DIMUPT
 70
    0
  9
$DIMDEC
 70
    1
  9
$DIMTDEC
 70
    2
  9
$DIMALTU
 70
    2
  9
$DIMALTTD
 70
    3
  9
$DIMTXSTY
  7
STANDARD
  9
$DIMAUNIT
 70
    0
  9
$DIMADEC
 70
    2
  9
$DIMALTRND
 40
0
  9
$DIMAZIN
 70
    0
  9
$DIMDSEP
 70
   44
  9
$DIMATFIT
 70
    3
  9
$DIMFRAC
 70
    0
  9
$DIMLDRBLK
  1
STANDARD
  9
$DIMLUNIT
 70
    2
  9
$DIMLWD
 70
   -2
  9
$DIMLWE
 70
   -2
  9
$DIMTMOVE
 70
    0
  9
$DIMFXL
 40
1
  9
$DIMFXLON
 70
    0
  9
$DIMJOGANG
 40
0.7854
  9
$DIMTFILL
 70
    0
  9
$DIMTFILLCLR
 70
    0
  9
$DIMARCSYM
 70
    0
  9
$DIMLTYPE
  6

  9
$DIMLTEX1
  6

  9
$DIMLTEX2
  6

  9
$LUNITS
 70
    2
  9
$LUPREC
 70
    4
  9
$SKETCHINC
 40
1
  9
$FILLETRAD
 40
0
  9
$AUNITS
 70
    0
  9
$AUPREC
 70
    2
  9
$MENU
  1
.
  9
$ELEVATION
 40
0
  9
$PELEVATION
 40
0
  9
$THICKNESS
 40
0
  9
$LIMCHECK
 70
    0
  9
$CHAMFERA
 40
0
  9
$CHAMFERB
 40
0
  9
$CHAMFERC
 40
0
  9
$CHAMFERD
 40
0
  9
$SKPOLY
 70
    0
  9
$USRTIMER
 70
    1
  9
$ANGBASE
 50
0
  9
$ANGDIR
 70
    0
  9
$PDMODE
 70
   34
  9
$PDSIZE
 40
0
  9
$PLINEWID
 40
0
  9
$SPLFRAME
 70
    0
  9
$SPLINETYPE
 70
    2
  9
$SPLINESEGS
 70
    8
  9
$HANDSEED
  5
20000
  9
$SURFTAB1
 70
    6
  9
$SURFTAB2
 70
    6
  9
$SURFTYPE
 70
    6
  9
$SURFU
 70
    6
  9
$SURFV
 70
    6
  9
$UCSBASE
  2

  9
$UCSNAME
  2

  9
$UCSORG
 10
0
 20
0
 30
0
  9
$UCSXDIR
 10
1
 20
0
 30
0
  9
$UCSYDIR
 10
0
 20
1
 30
0
  9
$UCSORTHOREF
  2

  9
$UCSORTHOVIEW
 70
    0
  9
$UCSORGTOP
 10
0
 20
0
 30
0
  9
$UCSORGBOTTOM
 10
0
 20
0
 30
0
  9
$UCSORGLEFT
 10
0
 20
0
 30
0
  9
$UCSORGRIGHT
 10
0
 20
0
 30
0
  9
$UCSORGFRONT
 10
0
 20
0
 30
0
  9
$UCSORGBACK
 10
0
 20
0
 30
0
  9
$PUCSBASE
  2

  9
$PUCSNAME
  2

  9
$PUCSORG
 10
0
 20
0
 30
0
  9
$PUCSXDIR
 10
1
 20
0
 30
0
  9
$PUCSYDIR
 10
0
 20
1
 30
0
  9
$PUCSORTHOREF
  2

  9
$PUCSORTHOVIEW
 70
    0
  9
$PUCSORGTOP
 10
0
 20
0
 30
0
  9
$PUCSORGBOTTOM
 10
0
 20
0
 30
0
  9
$PUCSORGLEFT
 10
0
 20
0
 30
0
  9
$PUCSORGRIGHT
 10
0
 20
0
 30
0
  9
$PUCSORGFRONT
 10
0
 20
0
 30
0
  9
$PUCSORGBACK
 10
0
 20
0
 30
0
  9
$USERI1
 70
    0
  9
$USERI2
 70
    0
  9
$USERI3
 70
    0
  9
$USERI4
 70
    0
  9
$USERI5
 70
    0
  9
$USERR1
 40
0
  9
$USERR2
 40
0
  9
$USERR3
 40
0
  9
$USERR4
 40
0
  9
$USERR5
 40
0
  9
$WORLDVIEW
 70
    1
  9
$SHADEDGE
 70
    3
  9
$SHADEDIF
 70
   70
  9
$TILEMODE
 70
    1
  9
$MAXACTVP
 70
   64
  9
$PINSBASE
 10
0
 20
0
 30
0
  9
$PLIMCHECK
 70
    0
  9
$PEXTMIN
 10
0
 20
0
 30
0
  9
$PEXTMAX
 10
0
 20
0
 30
0
  9
$GRIDMODE
 70
    1
  9
$SNAPSTYLE
 70
    0
  9
$PLIMMIN
 10
0
 20
0
  9
$PLIMMAX
 10
297
 20
210
  9
$UNITMODE
 70
    0
  9
$VISRETAIN
 70
    1
  9
$PLINEGEN
 70
    0
  9
$PSLTSCALE
 70
    1
  9
$TREEDEPTH
 70
 3020
  9
$CMLSTYLE
  2
Standard
  9
$CMLJUST
 70
    0
  9
$CMLSCALE
 40
20
  9
$PROXYGRAPHICS
 70
    1
  9
$MEASUREMENT
 70
    1
  9
$CELWEIGHT
370
   -1
  9
$ENDCAPS
280
    0
  9
$JOINSTYLE
280
    0
  9
$LWDISPLAY
290
    0
  9
$INSUNITS
 70
    0
  9
$HYPERLINKBASE
  1

  9
$STYLESHEET
  1

  9
$XEDIT
290
    1
  9
$CEPSNTYPE
380
    0
  9
$PSTYLEMODE
290
    1
  9
$EXTNAMES
290
    1
  9
$PSVPSCALE
 40
0
  9
$OLESTARTUP
290
    0
  9
$SORTENTS
280
  127
  9
$INDEXCTL
280
    0
  9
$HIDETEXT
280
    1
  9
$XCLIPFRAME
290
    0
  9
$HALOGAP
280
    0
  9
$OBSCOLOR
 70
  257
  9
$OBSLTYPE
280
    0
  9
$INTERSECTIONDISPLAY
280
    0
  9
$INTERSECTIONCOLOR
 70
  257
  9
$DIMASSOC
280
    1
  9
$PROJECTNAME
  1

  9
$CAMERADISPLAY
290
    0
  9
$LENSLENGTH
 40
50
  9
$CAMERAHEIGHT
 40
0
  9
$STEPSPERSEC
 40
2
  9
$STEPSIZE
 40
50
  9
$3DDWFPREC
 40
2
  9
$PSOLWIDTH
 40
5
  9
$PSOLHEIGHT
 40
80
  9
$LOFTANG1
 40
1.570796326794897
  9
$LOFTANG2
 40
1.570796326794897
  9
$LOFTMAG1
 40
0
  9
$LOFTMAG2
 40
0
  9
$LOFTPARAM
 70
    7
  9
$LOFTNORMALS
280
    1
  9
$LATITUDE
 40
1
  9
$LONGITUDE
 40
1
  9
$NORTHDIRECTION
 40
0
  9
$TIMEZONE
 70
-8000
  9
$LIGHTGLYPHDISPLAY
280
    1
  9
$TILEMODELIGHTSYNCH
280
    1
  9
$SOLIDHIST
280
    1
  9
$SHOWHIST
280
    1
  9
$DWFFRAME
280
    2
  9
$DGNFRAME
280
    0
  9
$REALWORLDSCALE
290
    1
  9
$INTERFERECOLOR
 62
    1
  9
$CSHADOW
280
    0
  9
$SHADOWPLANELOCATION
 40
0
  0
ENDSEC
  0
SECTION
  2
CLASSES
  0
ENDSEC
  0
SECTION
  2
TABLES
  0
TABLE
  2
VPORT
  5
8
330
0
100
AcDbSymbolTable
 70
    1
  0
VPORT
  5
31
330
2
100
AcDbSymbolTableRecord
100
AcDbViewportTableRecord
  2
*ACTIVE
 70
    0
 10
0
 20
0
 11
1
 21
1
 12
1641.787737943571
 22
-393.9709921113043
 13
0
 23
0
 14
10
 24
10
 15
10
 25
10
 16
0
 26
0
 36
1
 17
0
 27
0
 37
0
 40
463.9393112703494
 41
1.811013767209011
 42
50
 43
0
 44
0
 50
0
 51
0
 71
    0
 72
  100
 73
    1
 74
    3
 75
    0
 76
    1
 77
    0
 78
    0
281
    0
 65
    1
110
0
120
0
130
0
111
1
121
0
131
0
112
0
122
1
132
0
 79
    0
146
0
348
10020
 60
    7
 61
    5
292
1
282
    1
141
0
142
0
 63
  250
421
3358443
  0
ENDTAB
  0
TABLE
  2
LTYPE
  5
5
330
0
100
AcDbSymbolTable
 70
    4
  0
LTYPE
  5
14
330
5
100
AcDbSymbolTableRecord
100
AcDbLinetypeTableRecord
  2
ByBlock
 70
    0
  3

 72
   65
 73
    0
 40
0
  0
LTYPE
  5
15
330
5
100
AcDbSymbolTableRecord
100
AcDbLinetypeTableRecord
  2
ByLayer
 70
    0
  3

 72
   65
 73
    0
 40
0
  0
LTYPE
  5
16
330
5
100
AcDbSymbolTableRecord
100
AcDbLinetypeTableRecord
  2
Continuous
 70
    0
  3
Solid line
 72
   65
 73
    0
 40
0
  0
LTYPE
  5
32
330
5
100
AcDbSymbolTableRecord
100
AcDbLinetypeTableRecord
  2
DOT
 70
    0
  3
Dot . . . . . . . . . . . . . . . . . . . . . .
 72
   65
 73
    2
 40
6.35
 49
0
 74
    0
 49
-6.35
 74
    0
  0
LTYPE
  5
33
330
5
100
AcDbSymbolTableRecord
100
AcDbLinetypeTableRecord
  2
DOTTINY
 70
    0
  3
Dot (.15x) .....................................
 72
   65
 73
    2
 40
0.9525
 49
0
 74
    0
 49
-0.9525
 74
    0
  0
LTYPE
  5
34
330
5
100
AcDbSymbolTableRecord
100
AcDbLinetypeTableRecord
  2
DOT2
 70
    0
  3
Dot (.5x) .....................................
 72
   65
 73
    2
 40
3.175
 49
0
 74
    0
 49
-3.175
 74
    0
  0
LTYPE
  5
35
330
5
100
AcDbSymbolTableRecord
100
AcDbLinetypeTableRecord
  2
DOTX2
 70
    0
  3
Dot (2x) .  .  .  .  .  .  .  .  .  .  .  .  .
 72
   65
 73
    2
 40
12.7
 49
0
 74
    0
 49
-12.7
 74
    0
  0
LTYPE
  5
36
330
5
100
AcDbSymbolTableRecord
100
AcDbLinetypeTableRecord
  2
DASHED
 70
    0
  3
Dashed _ _ _ _ _ _ _ _ _ _ _ _ _ _ _ _ _
 72
   65
 73
    2
 40
19.05
 49
12.7
 74
    0
 49
-6.35
 74
    0
  0
LTYPE
  5
37
330
5
100
AcDbSymbolTableRecord
100
AcDbLinetypeTableRecord
  2
DASHEDTINY
 70
    0
  3
Dashed (.15x) _ _ _ _ _ _ _ _ _ _ _ _ _ _ _ _ _
 72
   65
 73
    2
 40
2.8575
 49
1.905
 74
    0
 49
-0.9525
 74
    0
  0
LTYPE
  5
38
330
5
100
AcDbSymbolTableRecord
100
AcDbLinetypeTableRecord
  2
DASHED2
 70
    0
  3
Dashed (.5x) _ _ _ _ _ _ _ _ _ _ _ _ _ _ _ _ _
 72
   65
 73
    2
 40
9.524999999999999
 49
6.35
 74
    0
 49
-3.175
 74
    0
  0
LTYPE
  5
39
330
5
100
AcDbSymbolTableRecord
100
AcDbLinetypeTableRecord
  2
DASHEDX2
 70
    0
  3
Dashed (2x) ____  ____  ____  ____  ____  ___
 72
   65
 73
    2
 40
38.09999999999999
 49
25.4
 74
    0
 49
-12.7
 74
    0
  0
LTYPE
  5
3A
330
5
100
AcDbSymbolTableRecord
100
AcDbLinetypeTableRecord
  2
DASHDOT
 70
    0
  3
Dash dot __ . __ . __ . __ . __ . __ . __ . __
 72
   65
 73
    4
 40
25.4
 49
12.7
 74
    0
 49
-6.35
 74
    0
 49
0
 74
    0
 49
-6.35
 74
    0
  0
LTYPE
  5
3B
330
5
100
AcDbSymbolTableRecord
100
AcDbLinetypeTableRecord
  2
DASHDOTTINY
 70
    0
  3
Dash dot (.15x) _._._._._._._._._._._._._._._.
 72
   65
 73
    4
 40
3.81
 49
1.905
 74
    0
 49
-0.9525
 74
    0
 49
0
 74
    0
 49
-0.9525
 74
    0
  0
LTYPE
  5
3C
330
5
100
AcDbSymbolTableRecord
100
AcDbLinetypeTableRecord
  2
DASHDOT2
 70
    0
  3
Dash dot (.5x) _._._._._._._._._._._._._._._.
 72
   65
 73
    4
 40
12.7
 49
6.35
 74
    0
 49
-3.175
 74
    0
 49
0
 74
    0
 49
-3.175
 74
    0
  0
LTYPE
  5
3D
330
5
100
AcDbSymbolTableRecord
100
AcDbLinetypeTableRecord
  2
DASHDOTX2
 70
    0
  3
Dash dot (2x) ____  .  ____  .  ____  .  ___
 72
   65
 73
    4
 40
50.8
 49
25.4
 74
    0
 49
-12.7
 74
    0
 49
0
 74
    0
 49
-12.7
 74
    0
  0
LTYPE
  5
3E
330
5
100
AcDbSymbolTableRecord
100
AcDbLinetypeTableRecord
  2
DIVIDE
 70
    0
  3
Divide ____ . . ____ . . ____ . . ____ . . ____
 72
   65
 73
    6
 40
31.75
 49
12.7
 74
    0
 49
-6.35
 74
    0
 49
0
 74
    0
 49
-6.35
 74
    0
 49
0
 74
    0
 49
-6.35
 74
    0
  0
LTYPE
  5
3F
330
5
100
AcDbSymbolTableRecord
100
AcDbLinetypeTableRecord
  2
DIVIDETINY
 70
    0
  3
Divide (.15x) __..__..__..__..__..__..__..__.._
 72
   65
 73
    6
 40
4.7625
 49
1.905
 74
    0
 49
-0.9525
 74
    0
 49
0
 74
    0
 49
-0.9525
 74
    0
 49
0
 74
    0
 49
-0.9525
 74
    0
  0
LTYPE
  5
40
330
5
100
AcDbSymbolTableRecord
100
AcDbLinetypeTableRecord
  2
DIVIDE2
 70
    0
  3
Divide (.5x) __..__..__..__..__..__..__..__.._
 72
   65
 73
    6
 40
15.875
 49
6.35
 74
    0
 49
-3.175
 74
    0
 49
0
 74
    0
 49
-3.175
 74
    0
 49
0
 74
    0
 49
-3.175
 74
    0
  0
LTYPE
  5
41
330
5
100
AcDbSymbolTableRecord
100
AcDbLinetypeTableRecord
  2
DIVIDEX2
 70
    0
  3
Divide (2x) ________  .  .  ________  .  .  _
 72
   65
 73
    6
 40
63.5
 49
25.4
 74
    0
 49
-12.7
 74
    0
 49
0
 74
    0
 49
-12.7
 74
    0
 49
0
 74
    0
 49
-12.7
 74
    0
  0
LTYPE
  5
42
330
5
100
AcDbSymbolTableRecord
100
AcDbLinetypeTableRecord
  2
BORDER
 70
    0
  3
Border __ __ . __ __ . __ __ . __ __ . __ __ .
 72
   65
 73
    6
 40
44.45
 49
12.7
 74
    0
 49
-6.35
 74
    0
 49
12.7
 74
    0
 49
-6.35
 74
    0
 49
0
 74
    0
 49
-6.35
 74
    0
  0
LTYPE
  5
43
330
5
100
AcDbSymbolTableRecord
100
AcDbLinetypeTableRecord
  2
BORDERTINY
 70
    0
  3
Border (.15x) __.__.__.__.__.__.__.__.__.__.__.
 72
   65
 73
    6
 40
6.6675
 49
1.905
 74
    0
 49
-0.9525
 74
    0
 49
1.905
 74
    0
 49
-0.9525
 74
    0
 49
0
 74
    0
 49
-0.9525
 74
    0
  0
LTYPE
  5
44
330
5
100
AcDbSymbolTableRecord
100
AcDbLinetypeTableRecord
  2
BORDER2
 70
    0
  3
Border (.5x) __.__.__.__.__.__.__.__.__.__.__.
 72
   65
 73
    6
 40
22.225
 49
6.35
 74
    0
 49
-3.175
 74
    0
 49
6.35
 74
    0
 49
-3.175
 74
    0
 49
0
 74
    0
 49
-3.175
 74
    0
  0
LTYPE
  5
45
330
5
100
AcDbSymbolTableRecord
100
AcDbLinetypeTableRecord
  2
BORDERX2
 70
    0
  3
Border (2x) ____  ____  .  ____  ____  .  ___
 72
   65
 73
    6
 40
88.89999999999999
 49
25.4
 74
    0
 49
-12.7
 74
    0
 49
25.4
 74
    0
 49
-12.7
 74
    0
 49
0
 74
    0
 49
-12.7
 74
    0
  0
LTYPE
  5
46
330
5
100
AcDbSymbolTableRecord
100
AcDbLinetypeTableRecord
  2
CENTER
 70
    0
  3
Center ____ _ ____ _ ____ _ ____ _ ____ _ ____
 72
   65
 73
    4
 40
50.8
 49
31.75
 74
    0
 49
-6.35
 74
    0
 49
6.35
 74
    0
 49
-6.35
 74
    0
  0
LTYPE
  5
47
330
5
100
AcDbSymbolTableRecord
100
AcDbLinetypeTableRecord
  2
CENTERTINY
 70
    0
  3
Center (.15x) ___ _ ___ _ ___ _ ___ _ ___ _ ___
 72
   65
 73
    4
 40
7.619999999999999
 49
4.7625
 74
    0
 49
-0.9525
 74
    0
 49
0.9525
 74
    0
 49
-0.9525
 74
    0
  0
LTYPE
  5
48
330
5
100
AcDbSymbolTableRecord
100
AcDbLinetypeTableRecord
  2
CENTER2
 70
    0
  3
Center (.5x) ___ _ ___ _ ___ _ ___ _ ___ _ ___
 72
   65
 73
    4
 40
28.575
 49
19.05
 74
    0
 49
-3.175
 74
    0
 49
3.175
 74
    0
 49
-3.175
 74
    0
  0
LTYPE
  5
49
330
5
100
AcDbSymbolTableRecord
100
AcDbLinetypeTableRecord
  2
CENTERX2
 70
    0
  3
Center (2x) ________  __  ________  __  _____
 72
   65
 73
    4
 40
101.6
 49
63.5
 74
    0
 49
-12.7
 74
    0
 49
12.7
 74
    0
 49
-12.7
 74
    0
  0
ENDTAB
  0
TABLE
  2
LAYER
  5
2
330
0
100
AcDbSymbolTable
 70
    1
  0
LAYER
  5
10
330
2
100
AcDbSymbolTableRecord
100
AcDbLayerTableRecord
  2
0
 70
    0
 62
    7
  6
CONTINUOUS
370
    0
390
F
  0
LAYER
  5
4A
330
2
100
AcDbSymbolTableRecord
100
AcDbLayerTableRecord
  2
HACHURES
 70
    0
 62
    7
  6
CONTINUOUS
370
    0
390
F
  0
LAYER
  5
4B
330
2
100
AcDbSymbolTableRecord
100
AcDbLayerTableRecord
  2
draft
 70
    0
 62
    6
  6
DOTTINY
370
    0
390
F
1001
LibreCad
1070
    1
  0
LAYER
  5
4C
330
2
100
AcDbSymbolTableRecord
100
AcDbLayerTableRecord
  2
gravure
 70
    0
 62
    7
  6
CONTINUOUS
370
    0
390
F
  0
LAYER
  5
4D
330
2
100
AcDbSymbolTableRecord
100
AcDbLayerTableRecord
  2
noname
 70
    0
 62
    3
  6
CONTINUOUS
370
    0
390
F
1001
LibreCad
1070
    1
  0
LAYER
  5
4E
330
2
100
AcDbSymbolTableRecord
100
AcDbLayerTableRecord
  2
percage
 70
    0
 62
    7
  6
DOTTINY
370
    0
390
F
  0
ENDTAB
  0
TABLE
  2
STYLE
  5
3
330
0
100
AcDbSymbolTable
 70
    3
  0
STYLE
  5
4F
330
2
100
AcDbSymbolTableRecord
100
AcDbTextStyleTableRecord
  2
standard
 70
    0
 40
0
 41
1
 50
0
 71
    0
 42
1
  3
standard
  4

  0
ENDTAB
  0
TABLE
  2
VIEW
  5
6
330
0
100
AcDbSymbolTable
 70
    0
  0
ENDTAB
  0
TABLE
  2
UCS
  5
7
330
0
100
AcDbSymbolTable
 70
    0
  0
ENDTAB
  0
TABLE
  2
APPID
  5
9
330
0
100
AcDbSymbolTable
 70
    1
  0
APPID
  5
12
330
9
100
AcDbSymbolTableRecord
100
AcDbRegAppTableRecord
  2
ACAD
 70
    0
  0
APPID
  5
50
330
9
100
AcDbSymbolTableRecord
100
AcDbRegAppTableRecord
  2
LibreCad
 70
    0
  0
ENDTAB
  0
TABLE
  2
DIMSTYLE
  5
A
330
0
100
AcDbSymbolTable
 70
    1
100
AcDbDimStyleTable
 71
    1
  0
DIMSTYLE
105
51
330
A
100
AcDbSymbolTableRecord
100
AcDbDimStyleTableRecord
  2
Standard
 70
    0
 40
2.5
 41
2.5
 42
0.625
 43
0.38
 44
1.25
 45
0
 46
0
 47
0
 48
0
 49
1
140
15
141
0.09
142
0
143
25.4
144
1
145
0
146
1
147
0.625
148
0
 71
    0
 72
    0
 73
    0
 74
    1
 75
    0
 76
    0
 77
    0
 78
    1
 79
    0
170
    0
171
    2
172
    0
173
    0
174
    0
175
    0
176
    0
177
    0
178
    0
179
    2
271
    1
272
    4
273
    2
274
    2
275
    0
276
    0
277
    2
278
   44
279
    0
280
    0
281
    0
282
    0
283
    1
284
    0
285
    0
286
    0
288
    0
289
    3
340
STANDARD
341

371
   -2
372
   -2
  0
ENDTAB
  0
TABLE
  2
BLOCK_RECORD
  5
1
330
0
100
AcDbSymbolTable
 70
    2
  0
BLOCK_RECORD
  5
1F
330
1
100
AcDbSymbolTableRecord
100
AcDbBlockTableRecord
  2
*Model_Space
 70
    0
280
    1
281
    0
  0
BLOCK_RECORD
  5
1E
330
1
100
AcDbSymbolTableRecord
100
AcDbBlockTableRecord
  2
*Paper_Space
 70
    0
280
    1
281
    0
  0
BLOCK_RECORD
  5
52
330
1
100
AcDbSymbolTableRecord
100
AcDbBlockTableRecord
  2
*D13
 70
    0
280
    1
281
    0
  0
BLOCK_RECORD
  5
55
330
1
100
AcDbSymbolTableRecord
100
AcDbBlockTableRecord
  2
*D28
 70
    0
280
    1
281
    0
  0
BLOCK_RECORD
  5
58
330
1
100
AcDbSymbolTableRecord
100
AcDbBlockTableRecord
  2
*D17
 70
    0
280
    1
281
    0
  0
BLOCK_RECORD
  5
5B
330
1
100
AcDbSymbolTableRecord
100
AcDbBlockTableRecord
  2
*D21
 70
    0
280
    1
281
    0
  0
BLOCK_RECORD
  5
5E
330
1
100
AcDbSymbolTableRecord
100
AcDbBlockTableRecord
  2
*D27
 70
    0
280
    1
281
    0
  0
BLOCK_RECORD
  5
61
330
1
100
AcDbSymbolTableRecord
100
AcDbBlockTableRecord
  2
*D25
 70
    0
280
    1
281
    0
  0
BLOCK_RECORD
  5
64
330
1
100
AcDbSymbolTableRecord
100
AcDbBlockTableRecord
  2
*D26
 70
    0
280
    1
281
    0
  0
BLOCK_RECORD
  5
67
330
1
100
AcDbSymbolTableRecord
100
AcDbBlockTableRecord
  2
*D7
 70
    0
280
    1
281
    0
  0
BLOCK_RECORD
  5
6A
330
1
100
AcDbSymbolTableRecord
100
AcDbBlockTableRecord
  2
*D14
 70
    0
280
    1
281
    0
  0
BLOCK_RECORD
  5
6D
330
1
100
AcDbSymbolTableRecord
100
AcDbBlockTableRecord
  2
*D33
 70
    0
280
    1
281
    0
  0
BLOCK_RECORD
  5
70
330
1
100
AcDbSymbolTableRecord
100
AcDbBlockTableRecord
  2
*D6
 70
    0
280
    1
281
    0
  0
BLOCK_RECORD
  5
73
330
1
100
AcDbSymbolTableRecord
100
AcDbBlockTableRecord
  2
*D16
 70
    0
280
    1
281
    0
  0
BLOCK_RECORD
  5
76
330
1
100
AcDbSymbolTableRecord
100
AcDbBlockTableRecord
  2
*D5
 70
    0
280
    1
281
    0
  0
BLOCK_RECORD
  5
79
330
1
100
AcDbSymbolTableRecord
100
AcDbBlockTableRecord
  2
*D15
 70
    0
280
    1
281
    0
  0
BLOCK_RECORD
  5
7C
330
1
100
AcDbSymbolTableRecord
100
AcDbBlockTableRecord
  2
*D4
 70
    0
280
    1
281
    0
  0
BLOCK_RECORD
  5
7F
330
1
100
AcDbSymbolTableRecord
100
AcDbBlockTableRecord
  2
*D10
 70
    0
280
    1
281
    0
  0
BLOCK_RECORD
  5
82
330
1
100
AcDbSymbolTableRecord
100
AcDbBlockTableRecord
  2
*D23
 70
    0
280
    1
281
    0
  0
BLOCK_RECORD
  5
85
330
1
100
AcDbSymbolTableRecord
100
AcDbBlockTableRecord
  2
*D12
 70
    0
280
    1
281
    0
  0
BLOCK_RECORD
  5
88
330
1
100
AcDbSymbolTableRecord
100
AcDbBlockTableRecord
  2
*D31
 70
    0
280
    1
281
    0
  0
BLOCK_RECORD
  5
8B
330
1
100
AcDbSymbolTableRecord
100
AcDbBlockTableRecord
  2
*D2
 70
    0
280
    1
281
    0
  0
BLOCK_RECORD
  5
8E
330
1
100
AcDbSymbolTableRecord
100
AcDbBlockTableRecord
  2
*D3
 70
    0
280
    1
281
    0
  0
BLOCK_RECORD
  5
91
330
1
100
AcDbSymbolTableRecord
100
AcDbBlockTableRecord
  2
*D32
 70
    0
280
    1
281
    0
  0
BLOCK_RECORD
  5
94
330
1
100
AcDbSymbolTableRecord
100
AcDbBlockTableRecord
  2
*D20
 70
    0
280
    1
281
    0
  0
BLOCK_RECORD
  5
97
330
1
100
AcDbSymbolTableRecord
100
AcDbBlockTableRecord
  2
*D11
 70
    0
280
    1
281
    0
  0
BLOCK_RECORD
  5
9A
330
1
100
AcDbSymbolTableRecord
100
AcDbBlockTableRecord
  2
*D9
 70
    0
280
    1
281
    0
  0
BLOCK_RECORD
  5
9D
330
1
100
AcDbSymbolTableRecord
100
AcDbBlockTableRecord
  2
*D19
 70
    0
280
    1
281
    0
  0
BLOCK_RECORD
  5
A0
330
1
100
AcDbSymbolTableRecord
100
AcDbBlockTableRecord
  2
*D8
 70
    0
280
    1
281
    0
  0
BLOCK_RECORD
  5
A3
330
1
100
AcDbSymbolTableRecord
100
AcDbBlockTableRecord
  2
*D18
 70
    0
280
    1
281
    0
  0
BLOCK_RECORD
  5
A6
330
1
100
AcDbSymbolTableRecord
100
AcDbBlockTableRecord
  2
*D22
 70
    0
280
    1
281
    0
  0
BLOCK_RECORD
  5
A9
330
1
100
AcDbSymbolTableRecord
100
AcDbBlockTableRecord
  2
*D29
 70
    0
280
    1
281
    0
  0
BLOCK_RECORD
  5
AC
330
1
100
AcDbSymbolTableRecord
100
AcDbBlockTableRecord
  2
*D30
 70
    0
280
    1
281
    0
  0
BLOCK_RECORD
  5
AF
330
1
100
AcDbSymbolTableRecord
100
AcDbBlockTableRecord
  2
*D1
 70
    0
280
    1
281
    0
  0
BLOCK_RECORD
  5
B2
330
1
100
AcDbSymbolTableRecord
100
AcDbBlockTableRecord
  2
*D24
 70
    0
280
    1
281
    0
  0
ENDTAB
  0
ENDSEC
  0
SECTION
  2
BLOCKS
  0
BLOCK
  5
20
330
1F
100
AcDbEntity
  8
0
100
AcDbBlockBegin
  2
*Model_Space
 70
    0
 10
0
 20
0
 30
0
  3
*Model_Space
  1

  0
ENDBLK
  5
21
330
1F
100
AcDbEntity
  8
0
100
AcDbBlockEnd
  0
BLOCK
  5
1C
330
1B
100
AcDbEntity
  8
0
100
AcDbBlockBegin
  2
*Paper_Space
 70
    0
 10
0
 20
0
 30
0
  3
*Paper_Space
  1

  0
ENDBLK
  5
1D
330
1F
100
AcDbEntity
  8
0
100
AcDbBlockEnd
  0
BLOCK
  5
53
330
52
100
AcDbEntity
  8
0
100
AcDbBlockBegin
  2
*D13
 70
    1
 10
0
 20
0
  3
*D13
  1

  0
LINE
  5
B5
100
AcDbEntity
  8
0
  6
CONTINUOUS
 62
    7
370
    0
100
AcDbLine
 10
1100
 20
-200
 11
1300
 21
-200
  0
LINE
  5
B6
100
AcDbEntity
  8
0
  6
CONTINUOUS
 62
    7
370
    0
100
AcDbLine
 10
1300
 20
-200
 11
1510
 21
479
  0
SOLID
  5
B7
100
AcDbEntity
  8
0
  6
CONTINUOUS
 62
    7
370
    0
100
AcDbTrace
 10
1100
 20
-200
 30
0
 11
1106.25
 21
-198.9592883555679
 31
0
 12
1106.25
 22
-201.0407116444321
 32
0
 13
1106.25
 23
-201.0407116444321
 33
0
  0
ENDBLK
  5
54
330
52
100
AcDbEntity
  8
0
100
AcDbBlockEnd
  0
BLOCK
  5
56
330
55
100
AcDbEntity
  8
0
100
AcDbBlockBegin
  2
*D28
 70
    1
 10
0
 20
0
  3
*D28
  1

  0
LINE
  5
B8
100
AcDbEntity
  8
0
  6
CONTINUOUS
 62
    7
370
    0
100
AcDbLine
 10
3196.5
 20
-1406
 11
3207
 21
-1406
  0
SOLID
  5
B9
100
AcDbEntity
  8
0
  6
CONTINUOUS
 62
    7
370
    0
100
AcDbTrace
 10
3196.5
 20
-1406
 30
0
 11
3202.75
 21
-1404.959288355568
 31
0
 12
3202.75
 22
-1407.040711644432
 32
0
 13
3202.75
 23
-1407.040711644432
 33
0
  0
ENDBLK
  5
57
330
55
100
AcDbEntity
  8
0
100
AcDbBlockEnd
  0
BLOCK
  5
59
330
58
100
AcDbEntity
  8
0
100
AcDbBlockBegin
  2
*D17
 70
    1
 10
0
 20
0
  3
*D17
  1

  0
LINE
  5
BA
100
AcDbEntity
  8
0
  6
ByBlock
 62
    0
370
   -2
100
AcDbLine
 10
3760
 20
820
 11
3940
 21
820
  0
MTEXT
  5
BB
100
AcDbEntity
  8
0
  6
CONTINUOUS
 62
    0
370
   -2
100
AcDbMText
 10
3850
 20
828.125
 30
0
 40
37.5
 41
110.4166666666667
 71
    5
 72
    1
  1
180,0
  7
STANDARD
210
0
220
0
230
1
 50
0
 73
    2
 44
1
  0
SOLID
  5
BC
100
AcDbEntity
  8
0
  6
ByBlock
 62
    0
370
   -2
100
AcDbTrace
 10
3760
 20
820
 30
0
 11
3766.25
 21
821.0407116444321
 31
0
 12
3766.25
 22
818.9592883555679
 32
0
 13
3766.25
 23
818.9592883555679
 33
0
  0
SOLID
  5
BD
100
AcDbEntity
  8
0
  6
ByBlock
 62
    0
370
   -2
100
AcDbTrace
 10
3940
 20
820
 30
0
 11
3933.75
 21
818.9592883555679
 31
0
 12
3933.75
 22
821.0407116444321
 32
0
 13
3933.75
 23
821.0407116444321
 33
0
  0
LINE
  5
BE
100
AcDbEntity
  8
0
  6
ByBlock
 62
    0
370
   -2
100
AcDbLine
 10
3760
 20
998.4375
 11
3760
 21
816.875
  0
LINE
  5
BF
100
AcDbEntity
  8
0
  6
ByBlock
 62
    0
370
   -2
100
AcDbLine
 10
3940
 20
998.4375
 11
3940
 21
816.875
  0
ENDBLK
  5
5A
330
58
100
AcDbEntity
  8
0
100
AcDbBlockEnd
  0
BLOCK
  5
5C
330
5B
100
AcDbEntity
  8
0
100
AcDbBlockBegin
  2
*D21
 70
    1
 10
0
 20
0
  3
*D21
  1

  0
LINE
  5
C0
100
AcDbEntity
  8
0
  6
ByBlock
 62
    0
370
   -2
100
AcDbLine
 10
4060
 20
820
 11
4240
 21
820
  0
MTEXT
  5
C1
100
AcDbEntity
  8
0
  6
CONTINUOUS
 62
    0
370
   -2
100
AcDbMText
 10
4150
 20
828.125
 30
0
 40
37.5
 41
110.4166666666667
 71
    5
 72
    1
  1
180,0
  7
STANDARD
210
0
220
0
230
1
 50
0
 73
    2
 44
1
  0
SOLID
  5
C2
100
AcDbEntity
  8
0
  6
ByBlock
 62
    0
370
   -2
100
AcDbTrace
 10
4060
 20
820
 30
0
 11
4066.25
 21
821.0407116444321
 31
0
 12
4066.25
 22
818.9592883555679
 32
0
 13
4066.25
 23
818.9592883555679
 33
0
  0
SOLID
  5
C3
100
AcDbEntity
  8
0
  6
ByBlock
 62
    0
370
   -2
100
AcDbTrace
 10
4240
 20
820
 30
0
 11
4233.75
 21
818.9592883555679
 31
0
 12
4233.75
 22
821.0407116444321
 32
0
 13
4233.75
 23
821.0407116444321
 33
0
  0
LINE
  5
C4
100
AcDbEntity
  8
0
  6
ByBlock
 62
    0
370
   -2
100
AcDbLine
 10
4060
 20
998.4375
 11
4060
 21
816.875
  0
LINE
  5
C5
100
AcDbEntity
  8
0
  6
ByBlock
 62
    0
370
   -2
100
AcDbLine
 10
4240
 20
998.4375
 11
4240
 21
816.875
  0
ENDBLK
  5
5D
330
5B
100
AcDbEntity
  8
0
100
AcDbBlockEnd
  0
BLOCK
  5
5F
330
5E
100
AcDbEntity
  8
0
100
AcDbBlockBegin
  2
*D27
 70
    1
 10
0
 20
0
  3
*D27
  1

  0
LINE
  5
C6
100
AcDbEntity
  8
0
  6
CONTINUOUS
 62
    7
370
    0
100
AcDbLine
 10
3196.5
 20
-1394
 11
3207
 21
-1394
  0
SOLID
  5
C7
100
AcDbEntity
  8
0
  6
CONTINUOUS
 62
    7
370
    0
100
AcDbTrace
 10
3196.5
 20
-1394
 30
0
 11
3202.75
 21
-1392.959288355568
 31
0
 12
3202.75
 22
-1395.040711644432
 32
0
 13
3202.75
 23
-1395.040711644432
 33
0
  0
ENDBLK
  5
60
330
5E
100
AcDbEntity
  8
0
100
AcDbBlockEnd
  0
BLOCK
  5
62
330
61
100
AcDbEntity
  8
0
100
AcDbBlockBegin
  2
*D25
 70
    1
 10
0
 20
0
  3
*D25
  1

  0
LINE
  5
C8
100
AcDbEntity
  8
0
  6
ByBlock
 62
    0
370
   -2
100
AcDbLine
 10
4110
 20
1150
 11
4190
 21
1150
  0
MTEXT
  5
C9
100
AcDbEntity
  8
0
  6
CONTINUOUS
 62
    0
370
   -2
100
AcDbMText
 10
4236.354166666667
 20
1158.125
 30
0
 40
37.5
 41
89.58333333333334
 71
    5
 72
    1
  1
80,0
  7
STANDARD
210
0
220
0
230
1
 50
0
 73
    2
 44
1
  0
SOLID
  5
CA
100
AcDbEntity
  8
0
  6
ByBlock
 62
    0
370
   -2
100
AcDbTrace
 10
4110
 20
1150
 30
0
 11
4116.25
 21
1151.040711644432
 31
0
 12
4116.25
 22
1148.959288355568
 32
0
 13
4116.25
 23
1148.959288355568
 33
0
  0
SOLID
  5
CB
100
AcDbEntity
  8
0
  6
ByBlock
 62
    0
370
   -2
100
AcDbTrace
 10
4190
 20
1150
 30
0
 11
4183.75
 21
1148.959288355568
 31
0
 12
4183.75
 22
1151.040711644432
 32
0
 13
4183.75
 23
1151.040711644432
 33
0
  0
LINE
  5
CC
100
AcDbEntity
  8
0
  6
ByBlock
 62
    0
370
   -2
100
AcDbLine
 10
4110
 20
1001.5625
 11
4110
 21
1153.125
  0
LINE
  5
CD
100
AcDbEntity
  8
0
  6
ByBlock
 62
    0
370
   -2
100
AcDbLine
 10
4190
 20
1001.5625
 11
4190
 21
1153.125
  0
ENDBLK
  5
63
330
61
100
AcDbEntity
  8
0
100
AcDbBlockEnd
  0
BLOCK
  5
65
330
64
100
AcDbEntity
  8
0
100
AcDbBlockBegin
  2
*D26
 70
    1
 10
0
 20
0
  3
*D26
  1

  0
LINE
  5
CE
100
AcDbEntity
  8
0
  6
CONTINUOUS
 62
    7
370
    0
100
AcDbLine
 10
3196.5
 20
-1383
 11
3207
 21
-1383
  0
SOLID
  5
CF
100
AcDbEntity
  8
0
  6
CONTINUOUS
 62
    7
370
    0
100
AcDbTrace
 10
3196.5
 20
-1383
 30
0
 11
3202.75
 21
-1381.959288355568
 31
0
 12
3202.75
 22
-1384.040711644432
 32
0
 13
3202.75
 23
-1384.040711644432
 33
0
  0
ENDBLK
  5
66
330
64
100
AcDbEntity
  8
0
100
AcDbBlockEnd
  0
BLOCK
  5
68
330
67
100
AcDbEntity
  8
0
100
AcDbBlockBegin
  2
*D7
 70
    1
 10
0
 20
0
  3
*D7
  1

  0
LINE
  5
D0
100
AcDbEntity
  8
0
  6
CONTINUOUS
 62
    7
370
    0
100
AcDbLine
 10
1100
 20
1000
 11
1300
 21
1000
  0
LINE
  5
D1
100
AcDbEntity
  8
0
  6
CONTINUOUS
 62
    7
370
    0
100
AcDbLine
 10
1300
 20
1000
 11
1510.25
 21
521
  0
SOLID
  5
D2
100
AcDbEntity
  8
0
  6
CONTINUOUS
 62
    7
370
    0
100
AcDbTrace
 10
1100
 20
1000
 30
0
 11
1106.25
 21
1001.040711644432
 31
0
 12
1106.25
 22
998.9592883555679
 32
0
 13
1106.25
 23
998.9592883555679
 33
0
  0
ENDBLK
  5
69
330
67
100
AcDbEntity
  8
0
100
AcDbBlockEnd
  0
BLOCK
  5
6B
330
6A
100
AcDbEntity
  8
0
100
AcDbBlockBegin
  2
*D14
 70
    1
 10
0
 20
0
  3
*D14
  1

  0
LINE
  5
D3
100
AcDbEntity
  8
0
  6
CONTINUOUS
 62
    7
370
    0
100
AcDbLine
 10
1100
 20
-400
 11
1400
 21
-400
  0
LINE
  5
D4
100
AcDbEntity
  8
0
  6
CONTINUOUS
 62
    7
370
    0
100
AcDbLine
 10
1400
 20
-400
 11
1522.644660940673
 21
473
  0
SOLID
  5
D5
100
AcDbEntity
  8
0
  6
CONTINUOUS
 62
    7
370
    0
100
AcDbTrace
 10
1100
 20
-400
 30
0
 11
1106.25
 21
-398.9592883555679
 31
0
 12
1106.25
 22
-401.0407116444321
 32
0
 13
1106.25
 23
-401.0407116444321
 33
0
  0
ENDBLK
  5
6C
330
6A
100
AcDbEntity
  8
0
100
AcDbBlockEnd
  0
BLOCK
  5
6E
330
6D
100
AcDbEntity
  8
0
100
AcDbBlockBegin
  2
*D33
 70
    1
 10
0
 20
0
  3
*D33
  1

  0
LINE
  5
D6
100
AcDbEntity
  8
0
  6
CONTINUOUS
 62
    7
370
    0
100
AcDbLine
 10
3196.5
 20
-1400
 11
3212
 21
-1400
  0
SOLID
  5
D7
100
AcDbEntity
  8
0
  6
CONTINUOUS
 62
    7
370
    0
100
AcDbTrace
 10
3196.5
 20
-1400
 30
0
 11
3202.75
 21
-1398.959288355568
 31
0
 12
3202.75
 22
-1401.040711644432
 32
0
 13
3202.75
 23
-1401.040711644432
 33
0
  0
ENDBLK
  5
6F
330
6D
100
AcDbEntity
  8
0
100
AcDbBlockEnd
  0
BLOCK
  5
71
330
70
100
AcDbEntity
  8
0
100
AcDbBlockBegin
  2
*D6
 70
    1
 10
0
 20
0
  3
*D6
  1

  0
LINE
  5
D8
100
AcDbEntity
  8
0
  6
CONTINUOUS
 62
    7
370
    0
100
AcDbLine
 10
1100
 20
1200
 11
1400
 21
1200
  0
LINE
  5
D9
100
AcDbEntity
  8
0
  6
CONTINUOUS
 62
    7
370
    0
100
AcDbLine
 10
1400
 20
1200
 11
1522.644660940673
 21
520
  0
SOLID
  5
DA
100
AcDbEntity
  8
0
  6
CONTINUOUS
 62
    7
370
    0
100
AcDbTrace
 10
1100
 20
1200
 30
0
 11
1106.25
 21
1201.040711644432
 31
0
 12
1106.25
 22
1198.959288355568
 32
0
 13
1106.25
 23
1198.959288355568
 33
0
  0
ENDBLK
  5
72
330
70
100
AcDbEntity
  8
0
100
AcDbBlockEnd
  0
BLOCK
  5
74
330
73
100
AcDbEntity
  8
0
100
AcDbBlockBegin
  2
*D16
 70
    1
 10
0
 20
0
  3
*D16
  1

  0
LINE
  5
DB
100
AcDbEntity
  8
0
  6
ByBlock
 62
    0
370
   -2
100
AcDbLine
 10
3773
 20
1150
 11
3927
 21
1150
  0
MTEXT
  5
DC
100
AcDbEntity
  8
0
  6
CONTINUOUS
 62
    0
370
   -2
100
AcDbMText
 10
3850
 20
1158.125
 30
0
 40
37.5
 41
114.5833333333357
 71
    5
 72
    1
  1
154,0
  7
STANDARD
210
0
220
0
230
1
 50
0
 73
    2
 44
1
  0
SOLID
  5
DD
100
AcDbEntity
  8
0
  6
ByBlock
 62
    0
370
   -2
100
AcDbTrace
 10
3773
 20
1150
 30
0
 11
3779.25
 21
1151.040711644432
 31
0
 12
3779.25
 22
1148.959288355568
 32
0
 13
3779.25
 23
1148.959288355568
 33
0
  0
SOLID
  5
DE
100
AcDbEntity
  8
0
  6
ByBlock
 62
    0
370
   -2
100
AcDbTrace
 10
3927
 20
1150
 30
0
 11
3920.75
 21
1148.959288355568
 31
0
 12
3920.75
 22
1151.040711644432
 32
0
 13
3920.75
 23
1151.040711644432
 33
0
  0
LINE
  5
DF
100
AcDbEntity
  8
0
  6
ByBlock
 62
    0
370
   -2
100
AcDbLine
 10
3773
 20
1001.5625
 11
3773
 21
1153.125
  0
LINE
  5
E0
100
AcDbEntity
  8
0
  6
ByBlock
 62
    0
370
   -2
100
AcDbLine
 10
3927
 20
1001.5625
 11
3927
 21
1153.125
  0
ENDBLK
  5
75
330
73
100
AcDbEntity
  8
0
100
AcDbBlockEnd
  0
BLOCK
  5
77
330
76
100
AcDbEntity
  8
0
100
AcDbBlockBegin
  2
*D5
 70
    1
 10
0
 20
0
  3
*D5
  1

  0
LINE
  5
E1
100
AcDbEntity
  8
0
  6
ByBlock
 62
    0
370
   -2
100
AcDbLine
 10
-70.5
 20
110
 11
70.5
 21
110
  0
MTEXT
  5
E2
100
AcDbEntity
  8
0
  6
CONTINUOUS
 62
    0
370
   -2
100
AcDbMText
 10
4.975127621536122e-16
 20
118.125
 30
0
 40
37.5
 41
106.25
 71
    5
 72
    1
  1
141,0
  7
STANDARD
210
0
220
0
230
1
 50
0
 73
    2
 44
1
  0
SOLID
  5
E3
100
AcDbEntity
  8
0
  6
ByBlock
 62
    0
370
   -2
100
AcDbTrace
 10
-70.5
 20
110
 30
0
 11
-64.25
 21
111.0407116444321
 31
0
 12
-64.25
 22
108.9592883555679
 32
0
 13
-64.25
 23
108.9592883555679
 33
0
  0
SOLID
  5
E4
100
AcDbEntity
  8
0
  6
ByBlock
 62
    0
370
   -2
100
AcDbTrace
 10
70.5
 20
110
 30
0
 11
64.25
 21
108.9592883555679
 31
0
 12
64.25
 22
111.0407116444321
 32
0
 13
64.25
 23
111.0407116444321
 33
0
  0
LINE
  5
E5
100
AcDbEntity
  8
0
  6
ByBlock
 62
    0
370
   -2
100
AcDbLine
 10
-70.5
 20
1.562500000000009
 11
-70.5
 21
113.125
  0
LINE
  5
E6
100
AcDbEntity
  8
0
  6
ByBlock
 62
    0
370
   -2
100
AcDbLine
 10
70.5
 20
1.5625
 11
70.5
 21
113.125
  0
ENDBLK
  5
78
330
76
100
AcDbEntity
  8
0
100
AcDbBlockEnd
  0
BLOCK
  5
7A
330
79
100
AcDbEntity
  8
0
100
AcDbBlockBegin
  2
*D15
 70
    1
 10
0
 20
0
  3
*D15
  1

  0
LINE
  5
E7
100
AcDbEntity
  8
0
  6
CONTINUOUS
 62
    7
370
    0
100
AcDbLine
 10
1100
 20
1400
 11
1500
 21
1400
  0
LINE
  5
E8
100
AcDbEntity
  8
0
  6
CONTINUOUS
 62
    7
370
    0
100
AcDbLine
 10
1500
 20
1400
 11
1600
 21
514
  0
SOLID
  5
E9
100
AcDbEntity
  8
0
  6
CONTINUOUS
 62
    7
370
    0
100
AcDbTrace
 10
1100
 20
1400
 30
0
 11
1106.25
 21
1401.040711644432
 31
0
 12
1106.25
 22
1398.959288355568
 32
0
 13
1106.25
 23
1398.959288355568
 33
0
  0
ENDBLK
  5
7B
330
79
100
AcDbEntity
  8
0
100
AcDbBlockEnd
  0
BLOCK
  5
7D
330
7C
100
AcDbEntity
  8
0
100
AcDbBlockBegin
  2
*D4
 70
    1
 10
0
 20
0
  3
*D4
  1

  0
LINE
  5
EA
100
AcDbEntity
  8
0
  6
ByBlock
 62
    0
370
   -2
100
AcDbLine
 10
-95.5
 20
-220
 11
95.5
 21
-220
  0
MTEXT
  5
EB
100
AcDbEntity
  8
0
  6
CONTINUOUS
 62
    0
370
   -2
100
AcDbMText
 10
4.975127621536122e-16
 20
-211.875
 30
0
 40
37.5
 41
102.0833333333333
 71
    5
 72
    1
  1
191,0
  7
STANDARD
210
0
220
0
230
1
 50
0
 73
    2
 44
1
  0
SOLID
  5
EC
100
AcDbEntity
  8
0
  6
ByBlock
 62
    0
370
   -2
100
AcDbTrace
 10
-95.5
 20
-220
 30
0
 11
-89.25
 21
-218.9592883555679
 31
0
 12
-89.25
 22
-221.0407116444321
 32
0
 13
-89.25
 23
-221.0407116444321
 33
0
  0
SOLID
  5
ED
100
AcDbEntity
  8
0
  6
ByBlock
 62
    0
370
   -2
100
AcDbTrace
 10
95.5
 20
-220
 30
0
 11
89.25
 21
-221.0407116444321
 31
0
 12
89.25
 22
-218.9592883555679
 32
0
 13
89.25
 23
-218.9592883555679
 33
0
  0
LINE
  5
EE
100
AcDbEntity
  8
0
  6
ByBlock
 62
    0
370
   -2
100
AcDbLine
 10
-95.5
 20
-1.562499999999988
 11
-95.5
 21
-223.125
  0
LINE
  5
EF
100
AcDbEntity
  8
0
  6
ByBlock
 62
    0
370
   -2
100
AcDbLine
 10
95.5
 20
-1.5625
 11
95.5
 21
-223.125
  0
ENDBLK
  5
7E
330
7C
100
AcDbEntity
  8
0
100
AcDbBlockEnd
  0
BLOCK
  5
80
330
7F
100
AcDbEntity
  8
0
100
AcDbBlockBegin
  2
*D10
 70
    1
 10
0
 20
0
  3
*D10
  1

  0
LINE
  5
F0
100
AcDbEntity
  8
0
  6
CONTINUOUS
 62
    7
370
    0
100
AcDbLine
 10
1100
 20
400
 11
1504.5
 21
500
  0
SOLID
  5
F1
100
AcDbEntity
  8
0
  6
CONTINUOUS
 62
    7
370
    0
100
AcDbTrace
 10
1100
 20
400
 30
0
 11
1105.817576088749
 21
402.5102567953253
 31
0
 12
1106.317104530661
 22
400.4896642477919
 32
0
 13
1106.317104530661
 23
400.4896642477919
 33
0
  0
ENDBLK
  5
81
330
7F
100
AcDbEntity
  8
0
100
AcDbBlockEnd
  0
BLOCK
  5
83
330
82
100
AcDbEntity
  8
0
100
AcDbBlockBegin
  2
*D23
 70
    1
 10
0
 20
0
  3
*D23
  1

  0
LINE
  5
F2
100
AcDbEntity
  8
0
  6
ByBlock
 62
    0
370
   -2
100
AcDbLine
 10
4054.5
 20
780
 11
4245.5
 21
780
  0
MTEXT
  5
F3
100
AcDbEntity
  8
0
  6
CONTINUOUS
 62
    0
370
   -2
100
AcDbMText
 10
4150
 20
788.125
 30
0
 40
37.5
 41
102.0833333333333
 71
    5
 72
    1
  1
191,0
  7
STANDARD
210
0
220
0
230
1
 50
0
 73
    2
 44
1
  0
SOLID
  5
F4
100
AcDbEntity
  8
0
  6
ByBlock
 62
    0
370
   -2
100
AcDbTrace
 10
4054.5
 20
780
 30
0
 11
4060.75
 21
781.0407116444321
 31
0
 12
4060.75
 22
778.9592883555679
 32
0
 13
4060.75
 23
778.9592883555679
 33
0
  0
SOLID
  5
F5
100
AcDbEntity
  8
0
  6
ByBlock
 62
    0
370
   -2
100
AcDbTrace
 10
4245.5
 20
780
 30
0
 11
4239.25
 21
778.9592883555679
 31
0
 12
4239.25
 22
781.0407116444321
 32
0
 13
4239.25
 23
781.0407116444321
 33
0
  0
LINE
  5
F6
100
AcDbEntity
  8
0
  6
ByBlock
 62
    0
370
   -2
100
AcDbLine
 10
4054.5
 20
998.4375
 11
4054.5
 21
776.875
  0
LINE
  5
F7
100
AcDbEntity
  8
0
  6
ByBlock
 62
    0
370
   -2
100
AcDbLine
 10
4245.5
 20
998.4375
 11
4245.5
 21
776.875
  0
ENDBLK
  5
84
330
82
100
AcDbEntity
  8
0
100
AcDbBlockEnd
  0
BLOCK
  5
86
330
85
100
AcDbEntity
  8
0
100
AcDbBlockBegin
  2
*D12
 70
    1
 10
0
 20
0
  3
*D12
  1

  0
LINE
  5
F8
100
AcDbEntity
  8
0
  6
CONTINUOUS
 62
    7
370
    0
100
AcDbLine
 10
1100
 20
0
 11
1200
 21
0
  0
LINE
  5
F9
100
AcDbEntity
  8
0
  6
CONTINUOUS
 62
    7
370
    0
100
AcDbLine
 10
1200
 20
0
 11
1504.5
 21
488
  0
SOLID
  5
FA
100
AcDbEntity
  8
0
  6
CONTINUOUS
 62
    7
370
    0
100
AcDbTrace
 10
1100
 20
0
 30
0
 11
1106.25
 21
1.040711644432101
 31
0
 12
1106.25
 22
-1.040711644432102
 32
0
 13
1106.25
 23
-1.040711644432102
 33
0
  0
ENDBLK
  5
87
330
85
100
AcDbEntity
  8
0
100
AcDbBlockEnd
  0
BLOCK
  5
89
330
88
100
AcDbEntity
  8
0
100
AcDbBlockBegin
  2
*D31
 70
    1
 10
0
 20
0
  3
*D31
  1

  0
LINE
  5
FB
100
AcDbEntity
  8
0
  6
CONTINUOUS
 62
    7
370
    0
100
AcDbLine
 10
3196.5
 20
-1412
 11
3212
 21
-1412
  0
SOLID
  5
FC
100
AcDbEntity
  8
0
  6
CONTINUOUS
 62
    7
370
    0
100
AcDbTrace
 10
3196.5
 20
-1412
 30
0
 11
3202.75
 21
-1410.959288355568
 31
0
 12
3202.75
 22
-1413.040711644432
 32
0
 13
3202.75
 23
-1413.040711644432
 33
0
  0
ENDBLK
  5
8A
330
88
100
AcDbEntity
  8
0
100
AcDbBlockEnd
  0
BLOCK
  5
8C
330
8B
100
AcDbEntity
  8
0
100
AcDbBlockBegin
  2
*D2
 70
    1
 10
0
 20
0
  3
*D2
  1

  0
LINE
  5
FD
100
AcDbEntity
  8
0
  6
ByBlock
 62
    0
370
   -2
100
AcDbLine
 10
-90
 20
-180
 11
90
 21
-180
  0
MTEXT
  5
FE
100
AcDbEntity
  8
0
  6
CONTINUOUS
 62
    0
370
   -2
100
AcDbMText
 10
4.975127621536122e-16
 20
-171.875
 30
0
 40
37.5
 41
110.4166666666667
 71
    5
 72
    1
  1
180,0
  7
STANDARD
210
0
220
0
230
1
 50
0
 73
    2
 44
1
  0
SOLID
  5
FF
100
AcDbEntity
  8
0
  6
ByBlock
 62
    0
370
   -2
100
AcDbTrace
 10
-90
 20
-180
 30
0
 11
-83.75
 21
-178.9592883555679
 31
0
 12
-83.75
 22
-181.0407116444321
 32
0
 13
-83.75
 23
-181.0407116444321
 33
0
  0
SOLID
  5
100
100
AcDbEntity
  8
0
  6
ByBlock
 62
    0
370
   -2
100
AcDbTrace
 10
90
 20
-180
 30
0
 11
83.75
 21
-181.0407116444321
 31
0
 12
83.75
 22
-178.9592883555679
 32
0
 13
83.75
 23
-178.9592883555679
 33
0
  0
LINE
  5
101
100
AcDbEntity
  8
0
  6
ByBlock
 62
    0
370
   -2
100
AcDbLine
 10
-90
 20
-1.5625
 11
-90
 21
-183.125
  0
LINE
  5
102
100
AcDbEntity
  8
0
  6
ByBlock
 62
    0
370
   -2
100
AcDbLine
 10
90
 20
-1.5625
 11
90
 21
-183.125
  0
ENDBLK
  5
8D
330
8B
100
AcDbEntity
  8
0
100
AcDbBlockEnd
  0
BLOCK
  5
8F
330
8E
100
AcDbEntity
  8
0
100
AcDbBlockBegin
  2
*D3
 70
    1
 10
0
 20
0
  3
*D3
  1

  0
LINE
  5
103
100
AcDbEntity
  8
0
  6
ByBlock
 62
    0
370
   -2
100
AcDbLine
 10
-84
 20
-140
 11
84
 21
-140
  0
MTEXT
  5
104
100
AcDbEntity
  8
0
  6
CONTINUOUS
 62
    0
370
   -2
100
AcDbMText
 10
4.975127621536122e-16
 20
-131.875
 30
0
 40
37.5
 41
110.416666666669
 71
    5
 72
    1
  1
168,0
  7
STANDARD
210
0
220
0
230
1
 50
0
 73
    2
 44
1
  0
SOLID
  5
105
100
AcDbEntity
  8
0
  6
ByBlock
 62
    0
370
   -2
100
AcDbTrace
 10
-84
 20
-140
 30
0
 11
-77.75
 21
-138.9592883555679
 31
0
 12
-77.75
 22
-141.0407116444321
 32
0
 13
-77.75
 23
-141.0407116444321
 33
0
  0
SOLID
  5
106
100
AcDbEntity
  8
0
  6
ByBlock
 62
    0
370
   -2
100
AcDbTrace
 10
84
 20
-140
 30
0
 11
77.75
 21
-141.0407116444321
 31
0
 12
77.75
 22
-138.9592883555679
 32
0
 13
77.75
 23
-138.9592883555679
 33
0
  0
LINE
  5
107
100
AcDbEntity
  8
0
  6
ByBlock
 62
    0
370
   -2
100
AcDbLine
 10
-84
 20
-1.56249999999999
 11
-84
 21
-143.125
  0
LINE
  5
108
100
AcDbEntity
  8
0
  6
ByBlock
 62
    0
370
   -2
100
AcDbLine
 10
84
 20
-1.562500000000021
 11
84
 21
-143.125
  0
ENDBLK
  5
90
330
8E
100
AcDbEntity
  8
0
100
AcDbBlockEnd
  0
BLOCK
  5
92
330
91
100
AcDbEntity
  8
0
100
AcDbBlockBegin
  2
*D32
 70
    1
 10
0
 20
0
  3
*D32
  1

  0
LINE
  5
109
100
AcDbEntity
  8
0
  6
CONTINUOUS
 62
    7
370
    0
100
AcDbLine
 10
3196.5
 20
-1388.5
 11
3212
 21
-1388.5
  0
SOLID
  5
10A
100
AcDbEntity
  8
0
  6
CONTINUOUS
 62
    7
370
    0
100
AcDbTrace
 10
3196.5
 20
-1388.5
 30
0
 11
3202.75
 21
-1387.459288355568
 31
0
 12
3202.75
 22
-1389.540711644432
 32
0
 13
3202.75
 23
-1389.540711644432
 33
0
  0
ENDBLK
  5
93
330
91
100
AcDbEntity
  8
0
100
AcDbBlockEnd
  0
BLOCK
  5
95
330
94
100
AcDbEntity
  8
0
100
AcDbBlockBegin
  2
*D20
 70
    1
 10
0
 20
0
  3
*D20
  1

  0
LINE
  5
10B
100
AcDbEntity
  8
0
  6
ByBlock
 62
    0
370
   -2
100
AcDbLine
 10
3779.5
 20
1110
 11
3920.5
 21
1110
  0
MTEXT
  5
10C
100
AcDbEntity
  8
0
  6
CONTINUOUS
 62
    0
370
   -2
100
AcDbMText
 10
3850
 20
1118.125
 30
0
 40
37.5
 41
106.25
 71
    5
 72
    1
  1
141,0
  7
STANDARD
210
0
220
0
230
1
 50
0
 73
    2
 44
1
  0
SOLID
  5
10D
100
AcDbEntity
  8
0
  6
ByBlock
 62
    0
370
   -2
100
AcDbTrace
 10
3779.5
 20
1110
 30
0
 11
3785.75
 21
1111.040711644432
 31
0
 12
3785.75
 22
1108.959288355568
 32
0
 13
3785.75
 23
1108.959288355568
 33
0
  0
SOLID
  5
10E
100
AcDbEntity
  8
0
  6
ByBlock
 62
    0
370
   -2
100
AcDbTrace
 10
3920.5
 20
1110
 30
0
 11
3914.25
 21
1108.959288355568
 31
0
 12
3914.25
 22
1111.040711644432
 32
0
 13
3914.25
 23
1111.040711644432
 33
0
  0
LINE
  5
10F
100
AcDbEntity
  8
0
  6
ByBlock
 62
    0
370
   -2
100
AcDbLine
 10
3779.5
 20
1001.5625
 11
3779.5
 21
1113.125
  0
LINE
  5
110
100
AcDbEntity
  8
0
  6
ByBlock
 62
    0
370
   -2
100
AcDbLine
 10
3920.5
 20
1001.5625
 11
3920.5
 21
1113.125
  0
ENDBLK
  5
96
330
94
100
AcDbEntity
  8
0
100
AcDbBlockEnd
  0
BLOCK
  5
98
330
97
100
AcDbEntity
  8
0
100
AcDbBlockBegin
  2
*D11
 70
    1
 10
0
 20
0
  3
*D11
  1

  0
LINE
  5
111
100
AcDbEntity
  8
0
  6
CONTINUOUS
 62
    7
370
    0
100
AcDbLine
 10
1100
 20
200
 11
1504.5
 21
494
  0
SOLID
  5
112
100
AcDbEntity
  8
0
  6
CONTINUOUS
 62
    7
370
    0
100
AcDbTrace
 10
1100
 20
200
 30
0
 11
1104.443811652381
 21
204.5164276508121
 31
0
 12
1105.667550883313
 22
202.8327456136968
 32
0
 13
1105.667550883313
 23
202.8327456136968
 33
0
  0
ENDBLK
  5
99
330
97
100
AcDbEntity
  8
0
100
AcDbBlockEnd
  0
BLOCK
  5
9B
330
9A
100
AcDbEntity
  8
0
100
AcDbBlockBegin
  2
*D9
 70
    1
 10
0
 20
0
  3
*D9
  1

  0
LINE
  5
113
100
AcDbEntity
  8
0
  6
CONTINUOUS
 62
    7
370
    0
100
AcDbLine
 10
1100
 20
600
 11
1504.5
 21
506
  0
SOLID
  5
114
100
AcDbEntity
  8
0
  6
CONTINUOUS
 62
    7
370
    0
100
AcDbTrace
 10
1100
 20
600
 30
0
 11
1106.3233511049
 21
599.5989868692749
 31
0
 12
1105.852212388926
 22
597.5715867563872
 32
0
 13
1105.852212388926
 23
597.5715867563872
 33
0
  0
ENDBLK
  5
9C
330
9A
100
AcDbEntity
  8
0
100
AcDbBlockEnd
  0
BLOCK
  5
9E
330
9D
100
AcDbEntity
  8
0
100
AcDbBlockBegin
  2
*D19
 70
    1
 10
0
 20
0
  3
*D19
  1

  0
LINE
  5
115
100
AcDbEntity
  8
0
  6
ByBlock
 62
    0
370
   -2
100
AcDbLine
 10
3754.5
 20
780
 11
3945.5
 21
780
  0
MTEXT
  5
116
100
AcDbEntity
  8
0
  6
CONTINUOUS
 62
    0
370
   -2
100
AcDbMText
 10
3850
 20
788.125
 30
0
 40
37.5
 41
102.0833333333333
 71
    5
 72
    1
  1
191,0
  7
STANDARD
210
0
220
0
230
1
 50
0
 73
    2
 44
1
  0
SOLID
  5
117
100
AcDbEntity
  8
0
  6
ByBlock
 62
    0
370
   -2
100
AcDbTrace
 10
3754.5
 20
780
 30
0
 11
3760.75
 21
781.0407116444321
 31
0
 12
3760.75
 22
778.9592883555679
 32
0
 13
3760.75
 23
778.9592883555679
 33
0
  0
SOLID
  5
118
100
AcDbEntity
  8
0
  6
ByBlock
 62
    0
370
   -2
100
AcDbTrace
 10
3945.5
 20
780
 30
0
 11
3939.25
 21
778.9592883555679
 31
0
 12
3939.25
 22
781.0407116444321
 32
0
 13
3939.25
 23
781.0407116444321
 33
0
  0
LINE
  5
119
100
AcDbEntity
  8
0
  6
ByBlock
 62
    0
370
   -2
100
AcDbLine
 10
3754.5
 20
998.4375
 11
3754.5
 21
776.875
  0
LINE
  5
11A
100
AcDbEntity
  8
0
  6
ByBlock
 62
    0
370
   -2
100
AcDbLine
 10
3945.5
 20
998.4375
 11
3945.5
 21
776.875
  0
ENDBLK
  5
9F
330
9D
100
AcDbEntity
  8
0
100
AcDbBlockEnd
  0
BLOCK
  5
A1
330
A0
100
AcDbEntity
  8
0
100
AcDbBlockBegin
  2
*D8
 70
    1
 10
0
 20
0
  3
*D8
  1

  0
LINE
  5
11B
100
AcDbEntity
  8
0
  6
CONTINUOUS
 62
    7
370
    0
100
AcDbLine
 10
1100
 20
800
 11
1200
 21
800
  0
LINE
  5
11C
100
AcDbEntity
  8
0
  6
CONTINUOUS
 62
    7
370
    0
100
AcDbLine
 10
1200
 20
800
 11
1504.5
 21
512
  0
SOLID
  5
11D
100
AcDbEntity
  8
0
  6
CONTINUOUS
 62
    7
370
    0
100
AcDbTrace
 10
1100
 20
800
 30
0
 11
1106.25
 21
801.0407116444321
 31
0
 12
1106.25
 22
798.9592883555679
 32
0
 13
1106.25
 23
798.9592883555679
 33
0
  0
ENDBLK
  5
A2
330
A0
100
AcDbEntity
  8
0
100
AcDbBlockEnd
  0
BLOCK
  5
A4
330
A3
100
AcDbEntity
  8
0
100
AcDbBlockBegin
  2
*D18
 70
    1
 10
0
 20
0
  3
*D18
  1

  0
LINE
  5
11E
100
AcDbEntity
  8
0
  6
ByBlock
 62
    0
370
   -2
100
AcDbLine
 10
3766
 20
860
 11
3934
 21
860
  0
MTEXT
  5
11F
100
AcDbEntity
  8
0
  6
CONTINUOUS
 62
    0
370
   -2
100
AcDbMText
 10
3850
 20
868.125
 30
0
 40
37.5
 41
110.416666666669
 71
    5
 72
    1
  1
168,0
  7
STANDARD
210
0
220
0
230
1
 50
0
 73
    2
 44
1
  0
SOLID
  5
120
100
AcDbEntity
  8
0
  6
ByBlock
 62
    0
370
   -2
100
AcDbTrace
 10
3766
 20
860
 30
0
 11
3772.25
 21
861.0407116444321
 31
0
 12
3772.25
 22
858.9592883555679
 32
0
 13
3772.25
 23
858.9592883555679
 33
0
  0
SOLID
  5
121
100
AcDbEntity
  8
0
  6
ByBlock
 62
    0
370
   -2
100
AcDbTrace
 10
3934
 20
860
 30
0
 11
3927.75
 21
858.9592883555679
 31
0
 12
3927.75
 22
861.0407116444321
 32
0
 13
3927.75
 23
861.0407116444321
 33
0
  0
LINE
  5
122
100
AcDbEntity
  8
0
  6
ByBlock
 62
    0
370
   -2
100
AcDbLine
 10
3766
 20
998.4375
 11
3766
 21
856.875
  0
LINE
  5
123
100
AcDbEntity
  8
0
  6
ByBlock
 62
    0
370
   -2
100
AcDbLine
 10
3934
 20
998.4375
 11
3934
 21
856.875
  0
ENDBLK
  5
A5
330
A3
100
AcDbEntity
  8
0
100
AcDbBlockEnd
  0
BLOCK
  5
A7
330
A6
100
AcDbEntity
  8
0
100
AcDbBlockBegin
  2
*D22
 70
    1
 10
0
 20
0
  3
*D22
  1

  0
LINE
  5
124
100
AcDbEntity
  8
0
  6
ByBlock
 62
    0
370
   -2
100
AcDbLine
 10
4066
 20
860
 11
4234
 21
860
  0
MTEXT
  5
125
100
AcDbEntity
  8
0
  6
CONTINUOUS
 62
    0
370
   -2
100
AcDbMText
 10
4150
 20
868.125
 30
0
 40
37.5
 41
110.416666666669
 71
    5
 72
    1
  1
168,0
  7
STANDARD
210
0
220
0
230
1
 50
0
 73
    2
 44
1
  0
SOLID
  5
126
100
AcDbEntity
  8
0
  6
ByBlock
 62
    0
370
   -2
100
AcDbTrace
 10
4066
 20
860
 30
0
 11
4072.25
 21
861.0407116444321
 31
0
 12
4072.25
 22
858.9592883555679
 32
0
 13
4072.25
 23
858.9592883555679
 33
0
  0
SOLID
  5
127
100
AcDbEntity
  8
0
  6
ByBlock
 62
    0
370
   -2
100
AcDbTrace
 10
4234
 20
860
 30
0
 11
4227.75
 21
858.9592883555679
 31
0
 12
4227.75
 22
861.0407116444321
 32
0
 13
4227.75
 23
861.0407116444321
 33
0
  0
LINE
  5
128
100
AcDbEntity
  8
0
  6
ByBlock
 62
    0
370
   -2
100
AcDbLine
 10
4066
 20
998.4375
 11
4066
 21
856.875
  0
LINE
  5
129
100
AcDbEntity
  8
0
  6
ByBlock
 62
    0
370
   -2
100
AcDbLine
 10
4234
 20
998.4375
 11
4234
 21
856.875
  0
ENDBLK
  5
A8
330
A6
100
AcDbEntity
  8
0
100
AcDbBlockEnd
  0
BLOCK
  5
AA
330
A9
100
AcDbEntity
  8
0
100
AcDbBlockBegin
  2
*D29
 70
    1
 10
0
 20
0
  3
*D29
  1

  0
LINE
  5
12A
100
AcDbEntity
  8
0
  6
CONTINUOUS
 62
    7
370
    0
100
AcDbLine
 10
3196.5
 20
-1418
 11
3207
 21
-1418
  0
SOLID
  5
12B
100
AcDbEntity
  8
0
  6
CONTINUOUS
 62
    7
370
    0
100
AcDbTrace
 10
3196.5
 20
-1418
 30
0
 11
3202.75
 21
-1416.959288355568
 31
0
 12
3202.75
 22
-1419.040711644432
 32
0
 13
3202.75
 23
-1419.040711644432
 33
0
  0
ENDBLK
  5
AB
330
A9
100
AcDbEntity
  8
0
100
AcDbBlockEnd
  0
BLOCK
  5
AD
330
AC
100
AcDbEntity
  8
0
100
AcDbBlockBegin
  2
*D30
 70
    1
 10
0
 20
0
  3
*D30
  1

  0
LINE
  5
12C
100
AcDbEntity
  8
0
  6
CONTINUOUS
 62
    7
370
    0
100
AcDbLine
 10
3185
 20
-1424
 11
3212
 21
-1424
  0
SOLID
  5
12D
100
AcDbEntity
  8
0
  6
CONTINUOUS
 62
    7
370
    0
100
AcDbTrace
 10
3185
 20
-1424
 30
0
 11
3191.25
 21
-1422.959288355568
 31
0
 12
3191.25
 22
-1425.040711644432
 32
0
 13
3191.25
 23
-1425.040711644432
 33
0
  0
ENDBLK
  5
AE
330
AC
100
AcDbEntity
  8
0
100
AcDbBlockEnd
  0
BLOCK
  5
B0
330
AF
100
AcDbEntity
  8
0
100
AcDbBlockBegin
  2
*D1
 70
    1
 10
0
 20
0
  3
*D1
  1

  0
LINE
  5
12E
100
AcDbEntity
  8
0
  6
ByBlock
 62
    0
370
   -2
100
AcDbLine
 10
-77
 20
150
 11
77
 21
150
  0
MTEXT
  5
12F
100
AcDbEntity
  8
0
  6
CONTINUOUS
 62
    0
370
   -2
100
AcDbMText
 10
4.975127621536122e-16
 20
158.125
 30
0
 40
37.5
 41
114.5833333333357
 71
    5
 72
    1
  1
154,0
  7
STANDARD
210
0
220
0
230
1
 50
0
 73
    2
 44
1
  0
SOLID
  5
130
100
AcDbEntity
  8
0
  6
ByBlock
 62
    0
370
   -2
100
AcDbTrace
 10
-77
 20
150
 30
0
 11
-70.75
 21
151.0407116444321
 31
0
 12
-70.75
 22
148.9592883555679
 32
0
 13
-70.75
 23
148.9592883555679
 33
0
  0
SOLID
  5
131
100
AcDbEntity
  8
0
  6
ByBlock
 62
    0
370
   -2
100
AcDbTrace
 10
77
 20
150
 30
0
 11
70.75
 21
148.9592883555679
 31
0
 12
70.75
 22
151.0407116444321
 32
0
 13
70.75
 23
151.0407116444321
 33
0
  0
LINE
  5
132
100
AcDbEntity
  8
0
  6
ByBlock
 62
    0
370
   -2
100
AcDbLine
 10
-77
 20
1.562500000000009
 11
-77
 21
153.125
  0
LINE
  5
133
100
AcDbEntity
  8
0
  6
ByBlock
 62
    0
370
   -2
100
AcDbLine
 10
77
 20
1.5625
 11
77
 21
153.125
  0
ENDBLK
  5
B1
330
AF
100
AcDbEntity
  8
0
100
AcDbBlockEnd
  0
BLOCK
  5
B3
330
B2
100
AcDbEntity
  8
0
100
AcDbBlockBegin
  2
*D24
 70
    1
 10
0
 20
0
  3
*D24
  1

  0
LINE
  5
134
100
AcDbEntity
  8
0
  6
ByBlock
 62
    0
370
   -2
100
AcDbLine
 10
4113
 20
1110
 11
4187
 21
1110
  0
MTEXT
  5
135
100
AcDbEntity
  8
0
  6
CONTINUOUS
 62
    0
370
   -2
100
AcDbMText
 10
4235.4375
 20
1118.125
 30
0
 40
37.5
 41
93.75
 71
    5
 72
    1
  1
74,0
  7
STANDARD
210
0
220
0
230
1
 50
0
 73
    2
 44
1
  0
SOLID
  5
136
100
AcDbEntity
  8
0
  6
ByBlock
 62
    0
370
   -2
100
AcDbTrace
 10
4113
 20
1110
 30
0
 11
4119.25
 21
1111.040711644432
 31
0
 12
4119.25
 22
1108.959288355568
 32
0
 13
4119.25
 23
1108.959288355568
 33
0
  0
SOLID
  5
137
100
AcDbEntity
  8
0
  6
ByBlock
 62
    0
370
   -2
100
AcDbTrace
 10
4187
 20
1110
 30
0
 11
4180.75
 21
1108.959288355568
 31
0
 12
4180.75
 22
1111.040711644432
 32
0
 13
4180.75
 23
1111.040711644432
 33
0
  0
LINE
  5
138
100
AcDbEntity
  8
0
  6
ByBlock
 62
    0
370
   -2
100
AcDbLine
 10
4113
 20
1001.5625
 11
4113
 21
1113.125
  0
LINE
  5
139
100
AcDbEntity
  8
0
  6
ByBlock
 62
    0
370
   -2
100
AcDbLine
 10
4187
 20
1001.5625
 11
4187
 21
1113.125
  0
ENDBLK
  5
B4
330
B2
100
AcDbEntity
  8
0
100
AcDbBlockEnd
  0
ENDSEC
  0
SECTION
  2
ENTITIES
  0
HATCH
  5
13A
100
AcDbEntity
  8
HACHURES
  6
ByLayer
 62
  256
370
   -1
100
AcDbHatch
 10
0
 20
0
 30
0
210
0
220
0
230
1
  2
ansi31
 70
    0
 71
    0
 91
    1
 92
    0
 93
    4
 72
    1
 10
3184
 20
-1421
 11
3177.75
 21
-1421
 72
    1
 10
3177.75
 20
-1421
 11
3177.75
 21
-1427
 72
    1
 10
3177.75
 20
-1427
 11
3184
 21
-1427
 72
    1
 10
3184
 20
-1427
 11
3184
 21
-1421
 97
    0
 75
    0
 76
    1
 52
1.570796326794897
 41
3
 77
    0
 78
    0
 98
    0
  0
HATCH
  5
13B
100
AcDbEntity
  8
HACHURES
  6
ByLayer
 62
  256
370
   -1
100
AcDbHatch
 10
0
 20
0
 30
0
210
0
220
0
230
1
  2
ansi31
 70
    0
 71
    0
 91
    1
 92
    0
 93
    4
 72
    1
 10
3182
 20
-1391
 11
3179
 21
-1391
 72
    1
 10
3179
 20
-1391
 11
3179
 21
-1421
 72
    1
 10
3179
 20
-1421
 11
3182
 21
-1421
 72
    1
 10
3182
 20
-1421
 11
3182
 21
-1391
 97
    0
 75
    0
 76
    1
 52
1.570796326794897
 41
1
 77
    0
 78
    0
 98
    0
  0
HATCH
  5
13C
100
AcDbEntity
  8
HACHURES
  6
ByLayer
 62
  256
370
   -1
100
AcDbHatch
 10
0
 20
0
 30
0
210
0
220
0
230
1
  2
ansi31
 70
    0
 71
    0
 91
    1
 92
    0
 93
    4
 72
    1
 10
3184
 20
-1421
 11
3177.75
 21
-1421
 72
    1
 10
3177.75
 20
-1421
 11
3177.75
 21
-1427
 72
    1
 10
3177.75
 20
-1427
 11
3184
 21
-1427
 72
    1
 10
3184
 20
-1427
 11
3184
 21
-1421
 97
    0
 75
    0
 76
    1
 52
1.570796326794897
 41
1
 77
    0
 78
    0
 98
    0
  0
HATCH
  5
13D
100
AcDbEntity
  8
HACHURES
  6
ByLayer
 62
  256
370
   -1
100
AcDbHatch
 10
0
 20
0
 30
0
210
0
220
0
230
1
  2
ansi31
 70
    0
 71
    0
 91
    1
 92
    0
 93
    4
 72
    1
 10
3182
 20
-1380
 11
3179
 21
-1380
 72
    1
 10
3179
 20
-1380
 11
3179
 21
-1386
 72
    1
 10
3179
 20
-1386
 11
3182
 21
-1386
 72
    1
 10
3182
 20
-1386
 11
3182
 21
-1380
 97
    0
 75
    0
 76
    1
 52
1.570796326794897
 41
1
 77
    0
 78
    0
 98
    0
  0
HATCH
  5
13E
100
AcDbEntity
  8
HACHURES
  6
ByLayer
 62
  256
370
   -1
100
AcDbHatch
 10
0
 20
0
 30
0
210
0
220
0
230
1
  2
ansi31
 70
    0
 71
    0
 91
    1
 92
    0
 93
    4
 72
    1
 10
3187
 20
-1380
 11
3193
 21
-1380
 72
    1
 10
3193
 20
-1380
 11
3193
 21
-1421
 72
    1
 10
3193
 20
-1421
 11
3187
 21
-1421
 72
    1
 10
3187
 20
-1421
 11
3187
 21
-1380
 97
    0
 75
    0
 76
    1
 52
1.570796326794897
 41
1
 77
    0
 78
    0
 98
    0
  0
HATCH
  5
13F
100
AcDbEntity
  8
HACHURES
  6
ByLayer
 62
  256
370
   -1
100
AcDbHatch
 10
0
 20
0
 30
0
210
0
220
0
230
1
  2
ansi31
 70
    0
 71
    0
 91
    1
 92
    0
 93
    4
 72
    1
 10
3651.5
 20
-1415
 11
3648.5
 21
-1415
 72
    1
 10
3648.5
 20
-1415
 11
3648.5
 21
-1421
 72
    1
 10
3648.5
 20
-1421
 11
3651.5
 21
-1421
 72
    1
 10
3651.5
 20
-1421
 11
3651.5
 21
-1415
 97
    0
 75
    0
 76
    1
 52
1.570796326794897
 41
1
 77
    0
 78
    0
 98
    0
  0
HATCH
  5
140
100
AcDbEntity
  8
HACHURES
  6
ByLayer
 62
  256
370
   -1
100
AcDbHatch
 10
0
 20
0
 30
0
210
0
220
0
230
1
  2
ansi31
 70
    0
 71
    0
 91
    1
 92
    0
 93
    4
 72
    1
 10
3648.5
 20
-1415
 11
3651.5
 21
-1415
 72
    1
 10
3651.5
 20
-1415
 11
3651.5
 21
-1409
 72
    1
 10
3651.5
 20
-1409
 11
3648.5
 21
-1409
 72
    1
 10
3648.5
 20
-1409
 11
3648.5
 21
-1415
 97
    0
 75
    0
 76
    1
 52
1.570796326794897
 41
1
 77
    0
 78
    0
 98
    0
  0
HATCH
  5
141
100
AcDbEntity
  8
HACHURES
  6
ByLayer
 62
  256
370
   -1
100
AcDbHatch
 10
0
 20
0
 30
0
210
0
220
0
230
1
  2
ansi31
 70
    0
 71
    0
 91
    1
 92
    0
 93
    4
 72
    1
 10
3651.5
 20
-1402
 11
3648.5
 21
-1402
 72
    1
 10
3648.5
 20
-1402
 11
3648.5
 21
-1408
 72
    1
 10
3648.5
 20
-1408
 11
3651.5
 21
-1408
 72
    1
 10
3651.5
 20
-1408
 11
3651.5
 21
-1402
 97
    0
 75
    0
 76
    1
 52
1.570796326794897
 41
1
 77
    0
 78
    0
 98
    0
  0
HATCH
  5
142
100
AcDbEntity
  8
0
  6
ByLayer
 62
  256
370
   -1
100
AcDbHatch
 10
0
 20
0
 30
0
210
0
220
0
230
1
  2
ansi31
 70
    0
 71
    0
 91
    1
 92
    0
 93
    4
 72
    1
 10
3686.999999999999
 20
-1402
 11
3693
 21
-1402
 72
    1
 10
3693
 20
-1402
 11
3693
 21
-1421
 72
    1
 10
3693
 20
-1421
 11
3686.999999999999
 21
-1421
 72
    1
 10
3686.999999999999
 20
-1421
 11
3686.999999999999
 21
-1402
 97
    0
 75
    0
 76
    1
 52
1.570796326794897
 41
1
 77
    0
 78
    0
 98
    0
  0
CIRCLE
  5
143
100
AcDbEntity
  8
0
  6
ByLayer
 62
  256
370
   -1
100
AcDbCircle
 10
0
 20
0
 40
95.5
  0
CIRCLE
  5
144
100
AcDbEntity
  8
0
  6
ByLayer
 62
  256
370
   -1
100
AcDbCircle
 10
0
 20
0
 40
84
  0
CIRCLE
  5
145
100
AcDbEntity
  8
0
  6
ByLayer
 62
  256
370
   -1
100
AcDbCircle
 10
0
 20
-90
 40
3
  0
CIRCLE
  5
146
100
AcDbEntity
  8
0
  6
ByLayer
 62
  256
370
   -1
100
AcDbCircle
 10
77.94228634059948
 20
44.99999999999998
 40
3
  0
CIRCLE
  5
147
100
AcDbEntity
  8
0
  6
ByLayer
 62
  256
370
   -1
100
AcDbCircle
 10
-77.94228634059945
 20
45.00000000000004
 40
3
  0
CIRCLE
  5
148
100
AcDbEntity
  8
0
  6
DOT2
 62
  256
370
   -1
100
AcDbCircle
 10
0
 20
0
 40
90
  0
DIMENSION
  5
149
100
AcDbEntity
  8
0
  6
ByLayer
 62
  256
370
   -1
100
AcDbDimension
  2
*D1
 10
77
 20
150
 30
0
 11
4.975127621536122e-16
 21
158.125
 31
0
 70
   32
 71
    5
  3
Standard
 53
0
210
0
220
0
230
1
100
AcDbAlignedDimension
 13
-77
 23
9.429780353434619e-15
 33
0
 14
77
 24
0
 34
0
100
AcDbRotatedDimension
  0
DIMENSION
  5
14A
100
AcDbEntity
  8
0
  6
ByLayer
 62
  256
370
   -1
100
AcDbDimension
  2
*D2
 10
90
 20
-180
 30
0
 11
4.975127621536122e-16
 21
-171.875
 31
0
 70
   32
 71
    5
  3
Standard
 53
0
210
0
220
0
230
1
100
AcDbAlignedDimension
 13
-90
 23
0
 33
0
 14
90
 24
0
 34
0
100
AcDbRotatedDimension
  0
DIMENSION
  5
14B
100
AcDbEntity
  8
0
  6
ByLayer
 62
  256
370
   -1
100
AcDbDimension
  2
*D3
 10
80
 20
-140
 30
0
 11
4.975127621536122e-16
 21
-131.875
 31
0
 70
   32
 71
    5
  3
Standard
 53
0
210
0
220
0
230
1
100
AcDbAlignedDimension
 13
-84
 23
1.028703311283777e-14
 33
0
 14
84
 24
-2.057406622567553e-14
 34
0
100
AcDbRotatedDimension
  0
DIMENSION
  5
14C
100
AcDbEntity
  8
0
  6
ByLayer
 62
  256
370
   -1
100
AcDbDimension
  2
*D4
 10
100
 20
-220
 30
0
 11
4.975127621536122e-16
 21
-211.875
 31
0
 70
   32
 71
    5
  3
Standard
 53
0
210
0
220
0
230
1
100
AcDbAlignedDimension
 13
-95.5
 23
1.169537693185722e-14
 33
0
 14
95.5
 24
0
 34
0
100
AcDbRotatedDimension
  0
CIRCLE
  5
14D
100
AcDbEntity
  8
0
  6
DOT2
 62
  256
370
   -1
100
AcDbCircle
 10
0
 20
0
 40
77
  0
MTEXT
  5
14E
100
AcDbEntity
  8
0
  6
ByLayer
 62
  256
370
   -1
100
AcDbMText
 10
0
 20
130
 30
0
 40
10
 41
71.11111111111111
 71
    8
 72
    1
  1
ouverture=
  7
standard
210
0
220
0
230
1
 50
0
 73
    2
 44
1
  0
MTEXT
  5
14F
100
AcDbEntity
  8
0
  6
ByLayer
 62
  256
370
   -1
100
AcDbMText
 10
0
 20
170
 30
0
 40
10
 41
51.11111111111189
 71
    8
 72
    1
  1
lentille=
  7
standard
210
0
220
0
230
1
 50
0
 73
    2
 44
1
  0
MTEXT
  5
150
100
AcDbEntity
  8
0
  6
ByLayer
 62
  256
370
   -1
100
AcDbMText
 10
0
 20
-200
 30
0
 40
10
 41
98.88888888889167
 71
    8
 72
    1
  1
encombrement=
  7
standard
210
0
220
0
230
1
 50
0
 73
    2
 44
1
  0
MTEXT
  5
151
100
AcDbEntity
  8
0
  6
ByLayer
 62
  256
370
   -1
100
AcDbMText
 10
0
 20
-120
 30
0
 40
10
 41
152.5000051428734
 71
    8
 72
    1
  1
trou dans la tourelle=
  7
standard
210
0
220
0
230
1
 50
0
 73
    2
 44
1
  0
MTEXT
  5
152
100
AcDbEntity
  8
0
  6
ByLayer
 62
  256
370
   -1
100
AcDbMText
 10
0
 20
-160
 30
0
 40
10
 41
122.7777829206507
 71
    8
 72
    1
  1
trous de fixation=
  7
standard
210
0
220
0
230
1
 50
0
 73
    2
 44
1
  0
LINE
  5
153
100
AcDbEntity
  8
draft
  6
ByLayer
 62
  256
370
   -1
100
AcDbLine
 10
70.71067811865476
 20
-1.731912112470987e-14
 11
70.7106781186547
 21
-1000
  0
LINE
  5
154
100
AcDbEntity
  8
draft
  6
ByLayer
 62
  256
370
   -1
100
AcDbLine
 10
77
 20
-1.885956070686924e-14
 11
76.99999999999994
 21
-1000
  0
LINE
  5
155
100
AcDbEntity
  8
draft
  6
ByLayer
 62
  256
370
   -1
100
AcDbLine
 10
84
 20
-2.057406622567553e-14
 11
83.99999999999994
 21
-1000
  0
LINE
  5
156
100
AcDbEntity
  8
draft
  6
ByLayer
 62
  256
370
   -1
100
AcDbLine
 10
90
 20
-2.204364238465236e-14
 11
89.99999999999994
 21
-1000
  0
LINE
  5
157
100
AcDbEntity
  8
draft
  6
ByLayer
 62
  256
370
   -1
100
AcDbLine
 10
95.5
 20
0
 11
95.49999999999994
 21
-1000
  0
LINE
  5
158
100
AcDbEntity
  8
draft
  6
ByLayer
 62
  256
370
   -1
100
AcDbLine
 10
-77
 20
379
 11
77
 21
379
  0
LINE
  5
159
100
AcDbEntity
  8
draft
  6
ByLayer
 62
  256
370
   -1
100
AcDbLine
 10
-77
 20
385
 11
77
 21
385
  0
LINE
  5
15A
100
AcDbEntity
  8
draft
  6
ByLayer
 62
  256
370
   -1
100
AcDbLine
 10
-77
 20
391
 11
77
 21
391
  0
LINE
  5
15B
100
AcDbEntity
  8
draft
  6
ByLayer
 62
  256
370
   -1
100
AcDbLine
 10
-77
 20
397
 11
77
 21
397
  0
LINE
  5
15C
100
AcDbEntity
  8
draft
  6
ByLayer
 62
  256
370
   -1
100
AcDbLine
 10
-77
 20
403
 11
77
 21
403
  0
LINE
  5
15D
100
AcDbEntity
  8
draft
  6
ByLayer
 62
  256
370
   -1
100
AcDbLine
 10
-77
 20
409
 11
77
 21
409
  0
LINE
  5
15E
100
AcDbEntity
  8
draft
  6
ByLayer
 62
  256
370
   -1
100
AcDbLine
 10
77
 20
421
 11
-77
 21
421
  0
LINE
  5
15F
100
AcDbEntity
  8
draft
  6
ByLayer
 62
  256
370
   -1
100
AcDbLine
 10
77
 20
427
 11
-77
 21
427
  0
LINE
  5
160
100
AcDbEntity
  8
draft
  6
ByLayer
 62
  256
370
   -1
100
AcDbLine
 10
-77
 20
373
 11
77
 21
373
  0
LWPOLYLINE
  5
161
100
AcDbEntity
  8
0
  6
ByLayer
 62
  256
370
   -1
100
AcDbPolyline
 90
    4
 70
    1
 43
0
 10
-95.49999999999997
 20
409
 10
-77
 20
409
 10
-77
 20
403
 10
-95.49999999999997
 20
403
  0
LWPOLYLINE
  5
162
100
AcDbEntity
  8
0
  6
ByLayer
 62
  256
370
   -1
100
AcDbPolyline
 90
    4
 70
    1
 43
0
 10
-76.99999999999997
 20
403
 10
-95.49999999999997
 20
403
 10
-95.49999999999997
 20
397
 10
-76.99999999999997
 20
397
  0
LWPOLYLINE
  5
163
100
AcDbEntity
  8
0
  6
ByLayer
 62
  256
370
   -1
100
AcDbPolyline
 90
    4
 70
    1
 43
0
 10
-95.49999999999996
 20
397
 10
-77
 20
397
 10
-77
 20
391
 10
-95.49999999999996
 20
391
  0
LWPOLYLINE
  5
164
100
AcDbEntity
  8
0
  6
ByLayer
 62
  256
370
   -1
100
AcDbPolyline
 90
    4
 70
    1
 43
0
 10
-95.49999999999996
 20
391
 10
-76.99999999999997
 20
391
 10
-76.99999999999997
 20
385
 10
-95.49999999999996
 20
385
  0
LWPOLYLINE
  5
165
100
AcDbEntity
  8
0
  6
ByLayer
 62
  256
370
   -1
100
AcDbPolyline
 90
    4
 70
    1
 43
0
 10
-95.49999999999996
 20
385
 10
-70.71067811865473
 20
385
 10
-70.71067811865473
 20
379
 10
-95.49999999999996
 20
379
  0
LINE
  5
166
100
AcDbEntity
  8
draft
  6
ByLayer
 62
  256
370
   -1
100
AcDbLine
 10
-77
 20
415
 11
77
 21
415
  0
LWPOLYLINE
  5
167
100
AcDbEntity
  8
0
  6
ByLayer
 62
  256
370
   -1
100
AcDbPolyline
 90
    4
 70
    1
 43
0
 10
-83.99999999999997
 20
415
 10
-95.49999999999997
 20
415
 10
-95.49999999999997
 20
409
 10
-83.99999999999997
 20
409
  0
LWPOLYLINE
  5
168
100
AcDbEntity
  8
0
  6
ByLayer
 62
  256
370
   -1
100
AcDbPolyline
 90
    4
 70
    1
 43
0
 10
-95.49999999999997
 20
421
 10
-83.99999999999997
 20
421
 10
-83.99999999999997
 20
415
 10
-95.49999999999997
 20
415
  0
LINE
  5
169
100
AcDbEntity
  8
draft
  6
ByLayer
 62
  256
370
   -1
100
AcDbLine
 10
77
 20
414
 11
-77
 21
414
  0
LINE
  5
16A
100
AcDbEntity
  8
draft
  6
ByLayer
 62
  256
370
   -1
100
AcDbLine
 10
77
 20
414
 11
-77
 21
414
  0
LWPOLYLINE
  5
16B
100
AcDbEntity
  8
0
  6
ByLayer
 62
  256
370
   -1
100
AcDbPolyline
 90
    4
 70
    1
 43
0
 10
-77
 20
414
 10
77
 20
414
 10
77
 20
385
 10
-77
 20
385
  0
LWPOLYLINE
  5
16C
100
AcDbEntity
  8
0
  6
ByLayer
 62
  256
370
   -1
100
AcDbPolyline
 90
    4
 70
    1
 43
0
 10
-70.71067811865473
 20
420
 10
-83.99999999999997
 20
420
 10
-83.99999999999997
 20
414
 10
-70.71067811865473
 20
414
  0
LWPOLYLINE
  5
16D
100
AcDbEntity
  8
0
  6
ByLayer
 62
  256
370
   -1
100
AcDbPolyline
 90
    4
 70
    1
 43
0
 10
-84
 20
379
 10
-70.71067811865474
 20
379
 10
-70.71067811865474
 20
373
 10
-84
 20
373
  0
LINE
  5
16E
100
AcDbEntity
  8
draft
  6
ByLayer
 62
  256
370
   -1
100
AcDbLine
 10
-84
 20
373
 11
-84.00000000000006
 21
-627
  0
LINE
  5
16F
100
AcDbEntity
  8
draft
  6
ByLayer
 62
  256
370
   -1
100
AcDbLine
 10
-70.71067811865474
 20
373
 11
-70.7106781186548
 21
-627
  0
CIRCLE
  5
170
100
AcDbEntity
  8
0
  6
ByLayer
 62
  256
370
   -1
100
AcDbCircle
 10
0
 20
0
 40
70.5
  0
DIMENSION
  5
171
100
AcDbEntity
  8
0
  6
ByLayer
 62
  256
370
   -1
100
AcDbDimension
  2
*D5
 10
70.5
 20
110
 30
0
 11
4.975127621536122e-16
 21
118.125
 31
0
 70
   32
 71
    5
  3
Standard
 53
0
210
0
220
0
230
1
100
AcDbAlignedDimension
 13
-70.5
 23
8.633759933988841e-15
 33
0
 14
70.5
 24
0
 34
0
100
AcDbRotatedDimension
  0
CIRCLE
  5
172
100
AcDbEntity
  8
noname
  6
ByLayer
 62
  256
370
   -1
100
AcDbCircle
 10
400
 20
400
 40
80.5
  0
CIRCLE
  5
173
100
AcDbEntity
  8
noname
  6
ByLayer
 62
  256
370
   -1
100
AcDbCircle
 10
400
 20
600
 40
80.5
  0
CIRCLE
  5
174
100
AcDbEntity
  8
noname
  6
ByLayer
 62
  256
370
   -1
100
AcDbCircle
 10
400
 20
800
 40
80.5
  0
LINE
  5
175
100
AcDbEntity
  8
noname
  6
ByLayer
 62
  256
370
   -1
100
AcDbLine
 10
400
 20
600
 11
399.9999999999999
 21
1600
  0
LINE
  5
176
100
AcDbEntity
  8
noname
  6
ByLayer
 62
  256
370
   -1
100
AcDbLine
 10
400
 20
600
 11
-466.0254037844387
 21
100.0000000000001
  0
LINE
  5
177
100
AcDbEntity
  8
noname
  6
ByLayer
 62
  256
370
   -1
100
AcDbLine
 10
368.1533851349453
 20
488.6599549953525
 11
327.9033851349453
 21
558.375
  0
CIRCLE
  5
178
100
AcDbEntity
  8
0
  6
ByLayer
 62
  256
370
   -1
100
AcDbCircle
 10
400
 20
-200
 40
70.5
  0
CIRCLE
  5
179
100
AcDbEntity
  8
0
  6
ByLayer
 62
  256
370
   -1
100
AcDbCircle
 10
400
 20
-200
 40
84
  0
CIRCLE
  5
17A
100
AcDbEntity
  8
0
  6
ByLayer
 62
  256
370
   -1
100
AcDbCircle
 10
400
 20
0
 40
70.5
  0
CIRCLE
  5
17B
100
AcDbEntity
  8
0
  6
ByLayer
 62
  256
370
   -1
100
AcDbCircle
 10
400
 20
0
 40
95.5
  0
CIRCLE
  5
17C
100
AcDbEntity
  8
0
  6
ByLayer
 62
  256
370
   -1
100
AcDbCircle
 10
400
 20
200
 40
77
  0
CIRCLE
  5
17D
100
AcDbEntity
  8
0
  6
ByLayer
 62
  256
370
   -1
100
AcDbCircle
 10
400
 20
200
 40
95.5
  0
CIRCLE
  5
17E
100
AcDbEntity
  8
0
  6
ByLayer
 62
  256
370
   -1
100
AcDbCircle
 10
400
 20
400
 40
77
  0
CIRCLE
  5
17F
100
AcDbEntity
  8
0
  6
ByLayer
 62
  256
370
   -1
100
AcDbCircle
 10
400
 20
400
 40
95.5
  0
CIRCLE
  5
180
100
AcDbEntity
  8
0
  6
ByLayer
 62
  256
370
   -1
100
AcDbCircle
 10
400
 20
600
 40
77
  0
CIRCLE
  5
181
100
AcDbEntity
  8
0
  6
ByLayer
 62
  256
370
   -1
100
AcDbCircle
 10
400
 20
600
 40
95.5
  0
CIRCLE
  5
182
100
AcDbEntity
  8
0
  6
ByLayer
 62
  256
370
   -1
100
AcDbCircle
 10
400
 20
800
 40
84
  0
CIRCLE
  5
183
100
AcDbEntity
  8
0
  6
ByLayer
 62
  256
370
   -1
100
AcDbCircle
 10
400
 20
800
 40
95.5
  0
CIRCLE
  5
184
100
AcDbEntity
  8
0
  6
ByLayer
 62
  256
370
   -1
100
AcDbCircle
 10
400
 20
1000
 40
70.5
  0
CIRCLE
  5
185
100
AcDbEntity
  8
0
  6
ByLayer
 62
  256
370
   -1
100
AcDbCircle
 10
400
 20
1000
 40
84
  0
CIRCLE
  5
186
100
AcDbEntity
  8
0
  6
ByLayer
 62
  256
370
   -1
100
AcDbCircle
 10
400
 20
-90
 40
3
  0
CIRCLE
  5
187
100
AcDbEntity
  8
0
  6
ByLayer
 62
  256
370
   -1
100
AcDbCircle
 10
477.9422863405995
 20
44.99999999999997
 40
3
  0
CIRCLE
  5
188
100
AcDbEntity
  8
0
  6
ByLayer
 62
  256
370
   -1
100
AcDbCircle
 10
322.0577136594005
 20
45.00000000000006
 40
3
  0
CIRCLE
  5
189
100
AcDbEntity
  8
0
  6
ByLayer
 62
  256
370
   -1
100
AcDbCircle
 10
400
 20
110
 40
3
  0
CIRCLE
  5
18A
100
AcDbEntity
  8
0
  6
ByLayer
 62
  256
370
   -1
100
AcDbCircle
 10
477.9422863405995
 20
245
 40
3
  0
CIRCLE
  5
18B
100
AcDbEntity
  8
0
  6
ByLayer
 62
  256
370
   -1
100
AcDbCircle
 10
322.0577136594005
 20
245.0000000000001
 40
3
  0
CIRCLE
  5
18C
100
AcDbEntity
  8
0
  6
ByLayer
 62
  256
370
   -1
100
AcDbCircle
 10
400
 20
310
 40
3
  0
CIRCLE
  5
18D
100
AcDbEntity
  8
0
  6
ByLayer
 62
  256
370
   -1
100
AcDbCircle
 10
477.9422863405995
 20
445
 40
3
  0
CIRCLE
  5
18E
100
AcDbEntity
  8
0
  6
ByLayer
 62
  256
370
   -1
100
AcDbCircle
 10
322.0577136594005
 20
445
 40
3
  0
CIRCLE
  5
18F
100
AcDbEntity
  8
0
  6
ByLayer
 62
  256
370
   -1
100
AcDbCircle
 10
400
 20
510
 40
3
  0
CIRCLE
  5
190
100
AcDbEntity
  8
0
  6
ByLayer
 62
  256
370
   -1
100
AcDbCircle
 10
477.9422863405995
 20
645
 40
3
  0
CIRCLE
  5
191
100
AcDbEntity
  8
0
  6
ByLayer
 62
  256
370
   -1
100
AcDbCircle
 10
322.0577136594005
 20
645
 40
3
  0
CIRCLE
  5
192
100
AcDbEntity
  8
0
  6
ByLayer
 62
  256
370
   -1
100
AcDbCircle
 10
400
 20
710
 40
3
  0
CIRCLE
  5
193
100
AcDbEntity
  8
0
  6
ByLayer
 62
  256
370
   -1
100
AcDbCircle
 10
477.9422863405995
 20
845
 40
3
  0
CIRCLE
  5
194
100
AcDbEntity
  8
0
  6
ByLayer
 62
  256
370
   -1
100
AcDbCircle
 10
322.0577136594005
 20
845
 40
3
  0
LINE
  5
195
100
AcDbEntity
  8
0
  6
ByLayer
 62
  256
370
   -1
100
AcDbLine
 10
328.6972417550811
 20
357
 11
331.872668235624
 21
357
  0
LINE
  5
196
100
AcDbEntity
  8
0
  6
ByLayer
 62
  256
370
   -1
100
AcDbLine
 10
331.872668235624
 20
357
 11
333.4603814758955
 21
359.75
  0
LINE
  5
197
100
AcDbEntity
  8
0
  6
ByLayer
 62
  256
370
   -1
100
AcDbLine
 10
333.4603814758955
 20
359.75
 11
331.8726682356241
 21
362.5
  0
LINE
  5
198
100
AcDbEntity
  8
0
  6
ByLayer
 62
  256
370
   -1
100
AcDbLine
 10
331.8726682356241
 20
362.5
 11
328.6972417550811
 21
362.5
  0
LINE
  5
199
100
AcDbEntity
  8
0
  6
ByLayer
 62
  256
370
   -1
100
AcDbLine
 10
328.6972417550811
 20
362.5
 11
327.1095285148096
 21
359.75
  0
LINE
  5
19A
100
AcDbEntity
  8
0
  6
ByLayer
 62
  256
370
   -1
100
AcDbLine
 10
327.1095285148096
 20
359.75
 11
328.6972417550811
 21
357
  0
LINE
  5
19B
100
AcDbEntity
  8
0
  6
ByLayer
 62
  256
370
   -1
100
AcDbLine
 10
398.4122867597287
 20
483.2500000000001
 11
396.8245735194571
 21
480.5000000000001
  0
LINE
  5
19C
100
AcDbEntity
  8
0
  6
ByLayer
 62
  256
370
   -1
100
AcDbLine
 10
396.8245735194571
 20
480.5000000000001
 11
398.4122867597286
 21
477.7500000000001
  0
LINE
  5
19D
100
AcDbEntity
  8
0
  6
ByLayer
 62
  256
370
   -1
100
AcDbLine
 10
398.4122867597286
 20
477.7500000000001
 11
401.5877132402716
 21
477.7500000000001
  0
LINE
  5
19E
100
AcDbEntity
  8
0
  6
ByLayer
 62
  256
370
   -1
100
AcDbLine
 10
401.5877132402716
 20
477.7500000000001
 11
403.175426480543
 21
480.5000000000001
  0
LINE
  5
19F
100
AcDbEntity
  8
0
  6
ByLayer
 62
  256
370
   -1
100
AcDbLine
 10
403.175426480543
 20
480.5000000000001
 11
401.5877132402716
 21
483.2500000000001
  0
LINE
  5
1A0
100
AcDbEntity
  8
0
  6
ByLayer
 62
  256
370
   -1
100
AcDbLine
 10
401.5877132402716
 20
483.2500000000001
 11
398.4122867597287
 21
483.2500000000001
  0
LINE
  5
1A1
100
AcDbEntity
  8
0
  6
ByLayer
 62
  256
370
   -1
100
AcDbLine
 10
472.8904714851903
 20
359.7499999999998
 11
471.3027582449188
 21
362.4999999999998
  0
LINE
  5
1A2
100
AcDbEntity
  8
0
  6
ByLayer
 62
  256
370
   -1
100
AcDbLine
 10
471.3027582449188
 20
362.4999999999998
 11
468.1273317643759
 21
362.4999999999999
  0
LINE
  5
1A3
100
AcDbEntity
  8
0
  6
ByLayer
 62
  256
370
   -1
100
AcDbLine
 10
468.1273317643759
 20
362.4999999999999
 11
466.5396185241044
 21
359.7499999999999
  0
LINE
  5
1A4
100
AcDbEntity
  8
0
  6
ByLayer
 62
  256
370
   -1
100
AcDbLine
 10
466.5396185241044
 20
359.7499999999999
 11
468.1273317643759
 21
356.9999999999999
  0
LINE
  5
1A5
100
AcDbEntity
  8
0
  6
ByLayer
 62
  256
370
   -1
100
AcDbLine
 10
468.1273317643759
 20
356.9999999999999
 11
471.3027582449188
 21
356.9999999999998
  0
LINE
  5
1A6
100
AcDbEntity
  8
0
  6
ByLayer
 62
  256
370
   -1
100
AcDbLine
 10
471.3027582449188
 20
356.9999999999998
 11
472.8904714851903
 21
359.7499999999998
  0
CIRCLE
  5
1A7
100
AcDbEntity
  8
0
  6
ByLayer
 62
  256
370
   -1
100
AcDbCircle
 10
330.2849549953525
 20
959.75
 40
1.5
  0
CIRCLE
  5
1A8
100
AcDbEntity
  8
0
  6
ByLayer
 62
  256
370
   -1
100
AcDbCircle
 10
400.0000000000001
 20
1080.5
 40
1.5
  0
CIRCLE
  5
1A9
100
AcDbEntity
  8
0
  6
ByLayer
 62
  256
370
   -1
100
AcDbCircle
 10
469.7150450046474
 20
959.7499999999998
 40
1.5
  0
CIRCLE
  5
1AA
100
AcDbEntity
  8
0
  6
ByLayer
 62
  256
370
   -1
100
AcDbCircle
 10
1000
 20
400
 40
77
  0
CIRCLE
  5
1AB
100
AcDbEntity
  8
0
  6
ByLayer
 62
  256
370
   -1
100
AcDbCircle
 10
1000
 20
400
 40
95.5
  0
CIRCLE
  5
1AC
100
AcDbEntity
  8
0
  6
ByLayer
 62
  256
370
   -1
100
AcDbCircle
 10
1000
 20
600
 40
77
  0
CIRCLE
  5
1AD
100
AcDbEntity
  8
0
  6
ByLayer
 62
  256
370
   -1
100
AcDbCircle
 10
1000
 20
600
 40
95.5
  0
CIRCLE
  5
1AE
100
AcDbEntity
  8
0
  6
ByLayer
 62
  256
370
   -1
100
AcDbCircle
 10
1000
 20
800
 40
95.5
  0
CIRCLE
  5
1AF
100
AcDbEntity
  8
0
  6
ByLayer
 62
  256
370
   -1
100
AcDbCircle
 10
1000
 20
1000
 40
84
  0
CIRCLE
  5
1B0
100
AcDbEntity
  8
0
  6
ByLayer
 62
  256
370
   -1
100
AcDbCircle
 10
1000
 20
1000
 40
95.5
  0
CIRCLE
  5
1B1
100
AcDbEntity
  8
0
  6
ByLayer
 62
  256
370
   -1
100
AcDbCircle
 10
1000
 20
1200
 40
70.5
  0
CIRCLE
  5
1B2
100
AcDbEntity
  8
0
  6
ByLayer
 62
  256
370
   -1
100
AcDbCircle
 10
1000
 20
1200
 40
84
  0
CIRCLE
  5
1B3
100
AcDbEntity
  8
0
  6
ByLayer
 62
  256
370
   -1
100
AcDbCircle
 10
1000
 20
310
 40
3
  0
CIRCLE
  5
1B4
100
AcDbEntity
  8
0
  6
ByLayer
 62
  256
370
   -1
100
AcDbCircle
 10
1077.942286340599
 20
445
 40
3
  0
CIRCLE
  5
1B5
100
AcDbEntity
  8
0
  6
ByLayer
 62
  256
370
   -1
100
AcDbCircle
 10
922.0577136594005
 20
445.0000000000001
 40
3
  0
CIRCLE
  5
1B6
100
AcDbEntity
  8
0
  6
ByLayer
 62
  256
370
   -1
100
AcDbCircle
 10
1000
 20
510
 40
3
  0
CIRCLE
  5
1B7
100
AcDbEntity
  8
0
  6
ByLayer
 62
  256
370
   -1
100
AcDbCircle
 10
1077.942286340599
 20
645
 40
3
  0
CIRCLE
  5
1B8
100
AcDbEntity
  8
0
  6
ByLayer
 62
  256
370
   -1
100
AcDbCircle
 10
922.0577136594005
 20
645
 40
3
  0
CIRCLE
  5
1B9
100
AcDbEntity
  8
0
  6
ByLayer
 62
  256
370
   -1
100
AcDbCircle
 10
1000
 20
710
 40
3
  0
CIRCLE
  5
1BA
100
AcDbEntity
  8
0
  6
ByLayer
 62
  256
370
   -1
100
AcDbCircle
 10
1077.942286340599
 20
845
 40
3
  0
CIRCLE
  5
1BB
100
AcDbEntity
  8
0
  6
ByLayer
 62
  256
370
   -1
100
AcDbCircle
 10
922.0577136594005
 20
845
 40
3
  0
CIRCLE
  5
1BC
100
AcDbEntity
  8
0
  6
ByLayer
 62
  256
370
   -1
100
AcDbCircle
 10
1000
 20
910
 40
3
  0
CIRCLE
  5
1BD
100
AcDbEntity
  8
0
  6
ByLayer
 62
  256
370
   -1
100
AcDbCircle
 10
1077.942286340599
 20
1045
 40
3
  0
CIRCLE
  5
1BE
100
AcDbEntity
  8
0
  6
ByLayer
 62
  256
370
   -1
100
AcDbCircle
 10
922.0577136594005
 20
1045
 40
3
  0
CIRCLE
  5
1BF
100
AcDbEntity
  8
0
  6
ByLayer
 62
  256
370
   -1
100
AcDbCircle
 10
930.2849549953526
 20
1159.75
 40
1.5
  0
CIRCLE
  5
1C0
100
AcDbEntity
  8
0
  6
ByLayer
 62
  256
370
   -1
100
AcDbCircle
 10
1000
 20
1280.5
 40
1.5
  0
CIRCLE
  5
1C1
100
AcDbEntity
  8
0
  6
ByLayer
 62
  256
370
   -1
100
AcDbCircle
 10
1069.715045004647
 20
1159.75
 40
1.5
  0
CIRCLE
  5
1C2
100
AcDbEntity
  8
0
  6
ByLayer
 62
  256
370
   -1
100
AcDbCircle
 10
1000
 20
200
 40
77
  0
CIRCLE
  5
1C3
100
AcDbEntity
  8
0
  6
ByLayer
 62
  256
370
   -1
100
AcDbCircle
 10
1000
 20
200
 40
95.5
  0
CIRCLE
  5
1C4
100
AcDbEntity
  8
0
  6
ByLayer
 62
  256
370
   -1
100
AcDbCircle
 10
1000
 20
110
 40
3
  0
CIRCLE
  5
1C5
100
AcDbEntity
  8
0
  6
ByLayer
 62
  256
370
   -1
100
AcDbCircle
 10
1077.942286340599
 20
245
 40
3
  0
CIRCLE
  5
1C6
100
AcDbEntity
  8
0
  6
ByLayer
 62
  256
370
   -1
100
AcDbCircle
 10
922.0577136594005
 20
245.0000000000001
 40
3
  0
LWPOLYLINE
  5
1C7
100
AcDbEntity
  8
0
  6
ByLayer
 62
  256
370
   -1
100
AcDbPolyline
 90
    4
 70
    1
 43
0
 10
95.49999999999997
 20
409
 10
77
 20
409
 10
77
 20
403
 10
95.49999999999997
 20
403
  0
LWPOLYLINE
  5
1C8
100
AcDbEntity
  8
0
  6
ByLayer
 62
  256
370
   -1
100
AcDbPolyline
 90
    4
 70
    1
 43
0
 10
76.99999999999997
 20
403
 10
95.49999999999997
 20
403
 10
95.49999999999997
 20
397
 10
76.99999999999997
 20
397
  0
LWPOLYLINE
  5
1C9
100
AcDbEntity
  8
0
  6
ByLayer
 62
  256
370
   -1
100
AcDbPolyline
 90
    4
 70
    1
 43
0
 10
95.49999999999996
 20
397
 10
77
 20
397
 10
77
 20
391
 10
95.49999999999996
 20
391
  0
LWPOLYLINE
  5
1CA
100
AcDbEntity
  8
0
  6
ByLayer
 62
  256
370
   -1
100
AcDbPolyline
 90
    4
 70
    1
 43
0
 10
95.49999999999996
 20
391
 10
76.99999999999997
 20
391
 10
76.99999999999997
 20
385
 10
95.49999999999996
 20
385
  0
LWPOLYLINE
  5
1CB
100
AcDbEntity
  8
0
  6
ByLayer
 62
  256
370
   -1
100
AcDbPolyline
 90
    4
 70
    1
 43
0
 10
95.49999999999996
 20
385
 10
70.71067811865473
 20
385
 10
70.71067811865473
 20
379
 10
95.49999999999996
 20
379
  0
LWPOLYLINE
  5
1CC
100
AcDbEntity
  8
0
  6
ByLayer
 62
  256
370
   -1
100
AcDbPolyline
 90
    4
 70
    1
 43
0
 10
83.99999999999997
 20
415
 10
95.49999999999997
 20
415
 10
95.49999999999997
 20
409
 10
83.99999999999997
 20
409
  0
LWPOLYLINE
  5
1CD
100
AcDbEntity
  8
0
  6
ByLayer
 62
  256
370
   -1
100
AcDbPolyline
 90
    4
 70
    1
 43
0
 10
95.49999999999997
 20
421
 10
83.99999999999997
 20
421
 10
83.99999999999997
 20
415
 10
95.49999999999997
 20
415
  0
LWPOLYLINE
  5
1CE
100
AcDbEntity
  8
0
  6
ByLayer
 62
  256
370
   -1
100
AcDbPolyline
 90
    4
 70
    1
 43
0
 10
70.71067811865473
 20
420
 10
83.99999999999997
 20
420
 10
83.99999999999997
 20
414
 10
70.71067811865473
 20
414
  0
LWPOLYLINE
  5
1CF
100
AcDbEntity
  8
0
  6
ByLayer
 62
  256
370
   -1
100
AcDbPolyline
 90
    4
 70
    1
 43
0
 10
84
 20
379
 10
70.71067811865474
 20
379
 10
70.71067811865474
 20
373
 10
84
 20
373
  0
LEADER
  5
1D0
100
AcDbEntity
  8
0
  6
ByLayer
 62
  256
370
   -1
100
AcDbLeader
  3
Standard
 71
    1
 72
    0
 73
    3
 74
    0
 75
    0
 40
1
 41
10
 76
3
 76
3
 10
1100
 20
1200
 30
0
 10
1400
 20
1200
 30
0
 10
1522.644660940673
 20
520
 30
0
  0
LEADER
  5
1D1
100
AcDbEntity
  8
0
  6
ByLayer
 62
  256
370
   -1
100
AcDbLeader
  3
Standard
 71
    1
 72
    0
 73
    3
 74
    0
 75
    0
 40
1
 41
10
 76
3
 76
3
 10
1100
 20
1000
 30
0
 10
1300
 20
1000
 30
0
 10
1510.25
 20
521
 30
0
  0
LEADER
  5
1D2
100
AcDbEntity
  8
0
  6
ByLayer
 62
  256
370
   -1
100
AcDbLeader
  3
Standard
 71
    1
 72
    0
 73
    3
 74
    0
 75
    0
 40
1
 41
10
 76
3
 76
3
 10
1100
 20
800
 30
0
 10
1200
 20
800
 30
0
 10
1504.5
 20
512
 30
0
  0
LEADER
  5
1D3
100
AcDbEntity
  8
0
  6
ByLayer
 62
  256
370
   -1
100
AcDbLeader
  3
Standard
 71
    1
 72
    0
 73
    3
 74
    0
 75
    0
 40
1
 41
10
 76
2
 76
2
 10
1100
 20
600
 30
0
 10
1504.5
 20
506
 30
0
  0
LEADER
  5
1D4
100
AcDbEntity
  8
0
  6
ByLayer
 62
  256
370
   -1
100
AcDbLeader
  3
Standard
 71
    1
 72
    0
 73
    3
 74
    0
 75
    0
 40
1
 41
10
 76
2
 76
2
 10
1100
 20
400
 30
0
 10
1504.5
 20
500
 30
0
  0
LEADER
  5
1D5
100
AcDbEntity
  8
0
  6
ByLayer
 62
  256
370
   -1
100
AcDbLeader
  3
Standard
 71
    1
 72
    0
 73
    3
 74
    0
 75
    0
 40
1
 41
10
 76
2
 76
2
 10
1100
 20
200
 30
0
 10
1504.5
 20
494
 30
0
  0
LEADER
  5
1D6
100
AcDbEntity
  8
0
  6
ByLayer
 62
  256
370
   -1
100
AcDbLeader
  3
Standard
 71
    1
 72
    0
 73
    3
 74
    0
 75
    0
 40
1
 41
10
 76
3
 76
3
 10
1100
 20
0
 30
0
 10
1200
 20
0
 30
0
 10
1504.5
 20
488
 30
0
  0
LEADER
  5
1D7
100
AcDbEntity
  8
0
  6
ByLayer
 62
  256
370
   -1
100
AcDbLeader
  3
Standard
 71
    1
 72
    0
 73
    3
 74
    0
 75
    0
 40
1
 41
10
 76
3
 76
3
 10
1100
 20
-200
 30
0
 10
1300
 20
-200
 30
0
 10
1510
 20
479
 30
0
  0
LEADER
  5
1D8
100
AcDbEntity
  8
0
  6
ByLayer
 62
  256
370
   -1
100
AcDbLeader
  3
Standard
 71
    1
 72
    0
 73
    3
 74
    0
 75
    0
 40
1
 41
10
 76
3
 76
3
 10
1100
 20
-400
 30
0
 10
1400
 20
-400
 30
0
 10
1522.644660940673
 20
473
 30
0
  0
CIRCLE
  5
1D9
100
AcDbEntity
  8
0
  6
ByLayer
 62
  256
370
   -1
100
AcDbCircle
 10
1000
 20
-400
 40
70.5
  0
CIRCLE
  5
1DA
100
AcDbEntity
  8
0
  6
ByLayer
 62
  256
370
   -1
100
AcDbCircle
 10
1000
 20
-400
 40
84
  0
CIRCLE
  5
1DB
100
AcDbEntity
  8
0
  6
ByLayer
 62
  256
370
   -1
100
AcDbCircle
 10
1000
 20
-200
 40
70.5
  0
CIRCLE
  5
1DC
100
AcDbEntity
  8
0
  6
ByLayer
 62
  256
370
   -1
100
AcDbCircle
 10
1000
 20
-200
 40
95.5
  0
CIRCLE
  5
1DD
100
AcDbEntity
  8
0
  6
ByLayer
 62
  256
370
   -1
100
AcDbCircle
 10
1000
 20
-290
 40
3
  0
CIRCLE
  5
1DE
100
AcDbEntity
  8
0
  6
ByLayer
 62
  256
370
   -1
100
AcDbCircle
 10
1077.942286340599
 20
-155
 40
3
  0
CIRCLE
  5
1DF
100
AcDbEntity
  8
0
  6
ByLayer
 62
  256
370
   -1
100
AcDbCircle
 10
922.0577136594005
 20
-154.9999999999999
 40
3
  0
CIRCLE
  5
1E0
100
AcDbEntity
  8
0
  6
ByLayer
 62
  256
370
   -1
100
AcDbCircle
 10
1000
 20
0
 40
77
  0
CIRCLE
  5
1E1
100
AcDbEntity
  8
0
  6
ByLayer
 62
  256
370
   -1
100
AcDbCircle
 10
1000
 20
0
 40
95.5
  0
CIRCLE
  5
1E2
100
AcDbEntity
  8
0
  6
ByLayer
 62
  256
370
   -1
100
AcDbCircle
 10
1000
 20
-90
 40
3
  0
CIRCLE
  5
1E3
100
AcDbEntity
  8
0
  6
ByLayer
 62
  256
370
   -1
100
AcDbCircle
 10
1077.942286340599
 20
45
 40
3
  0
CIRCLE
  5
1E4
100
AcDbEntity
  8
0
  6
ByLayer
 62
  256
370
   -1
100
AcDbCircle
 10
922.0577136594005
 20
45.00000000000006
 40
3
  0
LINE
  5
1E5
100
AcDbEntity
  8
0
  6
ByLayer
 62
  256
370
   -1
100
AcDbLine
 10
928.697241755081
 20
357
 11
931.872668235624
 21
357
  0
LINE
  5
1E6
100
AcDbEntity
  8
0
  6
ByLayer
 62
  256
370
   -1
100
AcDbLine
 10
931.872668235624
 20
357
 11
933.4603814758955
 21
359.75
  0
LINE
  5
1E7
100
AcDbEntity
  8
0
  6
ByLayer
 62
  256
370
   -1
100
AcDbLine
 10
933.4603814758955
 20
359.75
 11
931.8726682356241
 21
362.5
  0
LINE
  5
1E8
100
AcDbEntity
  8
0
  6
ByLayer
 62
  256
370
   -1
100
AcDbLine
 10
931.8726682356241
 20
362.5
 11
928.6972417550811
 21
362.5
  0
LINE
  5
1E9
100
AcDbEntity
  8
0
  6
ByLayer
 62
  256
370
   -1
100
AcDbLine
 10
928.6972417550811
 20
362.5
 11
927.1095285148097
 21
359.75
  0
LINE
  5
1EA
100
AcDbEntity
  8
0
  6
ByLayer
 62
  256
370
   -1
100
AcDbLine
 10
927.1095285148097
 20
359.75
 11
928.697241755081
 21
357
  0
LINE
  5
1EB
100
AcDbEntity
  8
0
  6
ByLayer
 62
  256
370
   -1
100
AcDbLine
 10
998.4122867597287
 20
483.2500000000001
 11
996.8245735194571
 21
480.5000000000001
  0
LINE
  5
1EC
100
AcDbEntity
  8
0
  6
ByLayer
 62
  256
370
   -1
100
AcDbLine
 10
996.8245735194571
 20
480.5000000000001
 11
998.4122867597287
 21
477.7500000000001
  0
LINE
  5
1ED
100
AcDbEntity
  8
0
  6
ByLayer
 62
  256
370
   -1
100
AcDbLine
 10
998.4122867597287
 20
477.7500000000001
 11
1001.587713240272
 21
477.7500000000001
  0
LINE
  5
1EE
100
AcDbEntity
  8
0
  6
ByLayer
 62
  256
370
   -1
100
AcDbLine
 10
1001.587713240272
 20
477.7500000000001
 11
1003.175426480543
 21
480.5000000000001
  0
LINE
  5
1EF
100
AcDbEntity
  8
0
  6
ByLayer
 62
  256
370
   -1
100
AcDbLine
 10
1003.175426480543
 20
480.5000000000001
 11
1001.587713240272
 21
483.2500000000001
  0
LINE
  5
1F0
100
AcDbEntity
  8
0
  6
ByLayer
 62
  256
370
   -1
100
AcDbLine
 10
1001.587713240272
 20
483.2500000000001
 11
998.4122867597287
 21
483.2500000000001
  0
LINE
  5
1F1
100
AcDbEntity
  8
0
  6
ByLayer
 62
  256
370
   -1
100
AcDbLine
 10
1072.89047148519
 20
359.7499999999998
 11
1071.302758244919
 21
362.4999999999998
  0
LINE
  5
1F2
100
AcDbEntity
  8
0
  6
ByLayer
 62
  256
370
   -1
100
AcDbLine
 10
1071.302758244919
 20
362.4999999999998
 11
1068.127331764376
 21
362.4999999999999
  0
LINE
  5
1F3
100
AcDbEntity
  8
0
  6
ByLayer
 62
  256
370
   -1
100
AcDbLine
 10
1068.127331764376
 20
362.4999999999999
 11
1066.539618524104
 21
359.7499999999999
  0
LINE
  5
1F4
100
AcDbEntity
  8
0
  6
ByLayer
 62
  256
370
   -1
100
AcDbLine
 10
1066.539618524104
 20
359.7499999999999
 11
1068.127331764376
 21
356.9999999999999
  0
LINE
  5
1F5
100
AcDbEntity
  8
0
  6
ByLayer
 62
  256
370
   -1
100
AcDbLine
 10
1068.127331764376
 20
356.9999999999999
 11
1071.302758244919
 21
356.9999999999998
  0
LINE
  5
1F6
100
AcDbEntity
  8
0
  6
ByLayer
 62
  256
370
   -1
100
AcDbLine
 10
1071.302758244919
 20
356.9999999999998
 11
1072.89047148519
 21
359.7499999999998
  0
CIRCLE
  5
1F7
100
AcDbEntity
  8
0
  6
ByLayer
 62
  256
370
   -1
100
AcDbCircle
 10
469.7150450046467
 20
559.7500000000003
 40
1.5
  0
CIRCLE
  5
1F8
100
AcDbEntity
  8
0
  6
ByLayer
 62
  256
370
   -1
100
AcDbCircle
 10
330.2849549953525
 20
559.75
 40
1.5
  0
CIRCLE
  5
1F9
100
AcDbEntity
  8
0
  6
ByLayer
 62
  256
370
   -1
100
AcDbCircle
 10
400.0000000000001
 20
680.4999999999989
 40
1.5
  0
CIRCLE
  5
1FA
100
AcDbEntity
  8
0
  6
ByLayer
 62
  256
370
   -1
100
AcDbCircle
 10
1069.715045004647
 20
559.7500000000003
 40
1.5
  0
CIRCLE
  5
1FB
100
AcDbEntity
  8
0
  6
ByLayer
 62
  256
370
   -1
100
AcDbCircle
 10
930.2849549953526
 20
559.75
 40
1.5
  0
CIRCLE
  5
1FC
100
AcDbEntity
  8
0
  6
ByLayer
 62
  256
370
   -1
100
AcDbCircle
 10
1000
 20
680.4999999999989
 40
1.5
  0
CIRCLE
  5
1FD
100
AcDbEntity
  8
0
  6
ByLayer
 62
  256
370
   -1
100
AcDbCircle
 10
1000
 20
800
 40
84
  0
CIRCLE
  5
1FE
100
AcDbEntity
  8
0
  6
ByLayer
 62
  256
370
   -1
100
AcDbCircle
 10
1000
 20
1400
 40
77
  0
LEADER
  5
1FF
100
AcDbEntity
  8
0
  6
ByLayer
 62
  256
370
   -1
100
AcDbLeader
  3
Standard
 71
    1
 72
    0
 73
    3
 74
    0
 75
    0
 40
1
 41
10
 76
3
 76
3
 10
1100
 20
1400
 30
0
 10
1500
 20
1400
 30
0
 10
1600
 20
514
 30
0
  0
LINE
  5
200
100
AcDbEntity
  8
noname
  6
ByLayer
 62
  256
370
   -1
100
AcDbLine
 10
1000
 20
-400
 11
999.9999999999999
 21
600
  0
LINE
  5
201
100
AcDbEntity
  8
noname
  6
ByLayer
 62
  256
370
   -1
100
AcDbLine
 10
1000
 20
-400
 11
133.9745962155613
 21
99.99999999999994
  0
LINE
  5
202
100
AcDbEntity
  8
noname
  6
ByLayer
 62
  256
370
   -1
100
AcDbLine
 10
1000
 20
-400
 11
133.9745962155613
 21
-900
  0
LINE
  5
203
100
AcDbEntity
  8
noname
  6
ByLayer
 62
  256
370
   -1
100
AcDbLine
 10
1000
 20
-400.0000000000001
 11
499.9999999999999
 21
-1266.025403784439
  0
LINE
  5
204
100
AcDbEntity
  8
noname
  6
ByLayer
 62
  256
370
   -1
100
AcDbLine
 10
1000
 20
-400.0000000000001
 11
1500
 21
-1266.025403784439
  0
LINE
  5
205
100
AcDbEntity
  8
noname
  6
ByLayer
 62
  256
370
   -1
100
AcDbLine
 10
1000
 20
-200
 11
499.9999999999999
 21
-1066.025403784439
  0
LINE
  5
206
100
AcDbEntity
  8
noname
  6
ByLayer
 62
  256
370
   -1
100
AcDbLine
 10
1000
 20
800
 11
499.9999999999999
 21
-66.02540378443859
  0
CIRCLE
  5
207
100
AcDbEntity
  8
noname
  6
ByLayer
 62
  256
370
   -1
100
AcDbCircle
 10
1042
 20
872.7461339178936
 40
11.49999999999996
  0
CIRCLE
  5
208
100
AcDbEntity
  8
noname
  6
ByLayer
 62
  256
370
   -1
100
AcDbCircle
 10
1047.750003908424
 20
882.705423804884
 40
11.49999999999997
  0
LINE
  5
209
100
AcDbEntity
  8
noname
  6
ByLayer
 62
  256
370
   -1
100
AcDbLine
 10
1036.250003908425
 20
882.7054283179436
 11
1053.5
 21
872.7461339178936
  0
MTEXT
  5
20A
100
AcDbEntity
  8
0
  6
ByLayer
 62
  256
370
   -1
100
AcDbMText
 10
1000
 20
1400
 30
0
 40
5
 41
28.33333333333334
 71
    5
 72
    1
  1
LENTILLE
  7
standard
210
0
220
0
230
1
 50
0
 73
    2
 44
1
  0
MTEXT
  5
20B
100
AcDbEntity
  8
gravure
  6
ByLayer
 62
  256
370
   -1
100
AcDbMText
 10
961.5
 20
-333.3160439085982
 30
0
 40
5
 41
15.00000000000062
 71
    5
 72
    1
  1
f/5.3
  7
standard
210
0
220
0
230
1
 50
29.99999999999996
 73
    2
 44
1
  0
MTEXT
  5
20C
100
AcDbEntity
  8
gravure
  6
ByLayer
 62
  256
370
   -1
100
AcDbMText
 10
1000
 20
-323
 30
0
 40
5
 41
23.75000000000077
 71
    5
 72
    1
  1
750 mm
  7
standard
210
0
220
0
230
1
 50
5.088887490341627e-14
 73
    2
 44
1
  0
MTEXT
  5
20D
100
AcDbEntity
  8
gravure
  6
ByLayer
 62
  256
370
   -1
100
AcDbMText
 10
1038.5
 20
-333.3160439085982
 30
0
 40
5
 41
26.11111111111142
 71
    5
 72
    1
  1
154V1/A
  7
standard
210
0
220
0
230
1
 50
329.9999999999999
 73
    2
 44
1
  0
MTEXT
  5
20E
100
AcDbEntity
  8
gravure
  6
ByLayer
 62
  256
370
   -1
100
AcDbMText
 10
925.6237113757418
 20
1219.929066472894
 30
0
 40
5
 41
15.00000000000062
 71
    5
 72
    1
  1
f/5.3
  7
standard
210
0
220
0
230
1
 50
74.99999999999996
 73
    2
 44
1
  0
MTEXT
  5
20F
100
AcDbEntity
  8
gravure
  6
ByLayer
 62
  256
370
   -1
100
AcDbMText
 10
945.5527778486359
 20
1254.447222151364
 30
0
 40
5
 41
23.75000000000077
 71
    5
 72
    1
  1
750 mm
  7
standard
210
0
220
0
230
1
 50
45.00000000000005
 73
    2
 44
1
  0
MTEXT
  5
210
100
AcDbEntity
  8
gravure
  6
ByLayer
 62
  256
370
   -1
100
AcDbMText
 10
1038.5
 20
-133.3160439085981
 30
0
 40
5
 41
25.55555555555587
 71
    5
 72
    1
  1
154V1/B
  7
standard
210
0
220
0
230
1
 50
329.9999999999999
 73
    2
 44
1
  0
MTEXT
  5
211
100
AcDbEntity
  8
gravure
  6
ByLayer
 62
  256
370
   -1
100
AcDbMText
 10
1043.125
 20
274.6946910764077
 30
0
 40
5
 41
25.00000000000031
 71
    5
 72
    1
  1
154V1/C
  7
standard
210
0
220
0
230
1
 50
329.9999999999999
 73
    2
 44
1
  0
MTEXT
  5
212
100
AcDbEntity
  8
gravure
  6
ByLayer
 62
  256
370
   -1
100
AcDbMText
 10
1043.125
 20
74.69469107640765
 30
0
 40
5
 41
25.00000000000031
 71
    5
 72
    1
  1
154V1/C
  7
standard
210
0
220
0
230
1
 50
329.9999999999999
 73
    2
 44
1
  0
MTEXT
  5
213
100
AcDbEntity
  8
gravure
  6
ByLayer
 62
  256
370
   -1
100
AcDbMText
 10
1043.125
 20
474.6946910764077
 30
0
 40
5
 41
25.55555555555618
 71
    5
 72
    1
  1
154V1/D
  7
standard
210
0
220
0
230
1
 50
329.9999999999999
 73
    2
 44
1
  0
MTEXT
  5
214
100
AcDbEntity
  8
gravure
  6
ByLayer
 62
  256
370
   -1
100
AcDbMText
 10
1043.125
 20
674.6946910764077
 30
0
 40
5
 41
25.00000000000031
 71
    5
 72
    1
  1
154V1/E
  7
standard
210
0
220
0
230
1
 50
329.9999999999999
 73
    2
 44
1
  0
MTEXT
  5
215
100
AcDbEntity
  8
gravure
  6
ByLayer
 62
  256
370
   -1
100
AcDbMText
 10
1044.875001954213
 20
877.7257811179186
 30
0
 40
5
 41
25.00000000000031
 71
    5
 72
    1
  1
154V1/F
  7
standard
210
0
220
0
230
1
 50
329.9999999999999
 73
    2
 44
1
  0
MTEXT
  5
216
100
AcDbEntity
  8
gravure
  6
ByLayer
 62
  256
370
   -1
100
AcDbMText
 10
1044.875001954213
 20
1077.725781117919
 30
0
 40
5
 41
25.00000000000031
 71
    5
 72
    1
  1
154V1/F
  7
standard
210
0
220
0
230
1
 50
329.9999999999999
 73
    2
 44
1
  0
MTEXT
  5
217
100
AcDbEntity
  8
gravure
  6
ByLayer
 62
  256
370
   -1
100
AcDbMText
 10
1038.5
 20
1266.683956091402
 30
0
 40
5
 41
25.55555555555586
 71
    5
 72
    1
  1
154V1/G
  7
standard
210
0
220
0
230
1
 50
329.9999999999999
 73
    2
 44
1
  0
CIRCLE
  5
218
100
AcDbEntity
  8
0
  6
ByLayer
 62
  256
370
   -1
100
AcDbCircle
 10
3850
 20
1000
 40
95.5
  0
CIRCLE
  5
219
100
AcDbEntity
  8
0
  6
ByLayer
 62
  256
370
   -1
100
AcDbCircle
 10
3850
 20
1000
 40
84
  0
CIRCLE
  5
21A
100
AcDbEntity
  8
0
  6
ByLayer
 62
  256
370
   -1
100
AcDbCircle
 10
3850
 20
910
 40
3
  0
CIRCLE
  5
21B
100
AcDbEntity
  8
0
  6
ByLayer
 62
  256
370
   -1
100
AcDbCircle
 10
3927.942286340599
 20
1045
 40
3
  0
CIRCLE
  5
21C
100
AcDbEntity
  8
0
  6
ByLayer
 62
  256
370
   -1
100
AcDbCircle
 10
3772.057713659401
 20
1045
 40
3
  0
CIRCLE
  5
21D
100
AcDbEntity
  8
0
  6
DOT2
 62
  256
370
   -1
100
AcDbCircle
 10
3850
 20
1000
 40
90
  0
DIMENSION
  5
21E
100
AcDbEntity
  8
0
  6
ByLayer
 62
  256
370
   -1
100
AcDbDimension
  2
*D16
 10
3927
 20
1150
 30
0
 11
3850
 21
1158.125
 31
0
 70
   32
 71
    5
  3
Standard
 53
0
210
0
220
0
230
1
100
AcDbAlignedDimension
 13
3773
 23
1000
 33
0
 14
3927
 24
1000
 34
0
100
AcDbRotatedDimension
  0
DIMENSION
  5
21F
100
AcDbEntity
  8
0
  6
ByLayer
 62
  256
370
   -1
100
AcDbDimension
  2
*D17
 10
3940
 20
820
 30
0
 11
3850
 21
828.125
 31
0
 70
   32
 71
    5
  3
Standard
 53
0
210
0
220
0
230
1
100
AcDbAlignedDimension
 13
3760
 23
1000
 33
0
 14
3940
 24
1000
 34
0
100
AcDbRotatedDimension
  0
DIMENSION
  5
220
100
AcDbEntity
  8
0
  6
ByLayer
 62
  256
370
   -1
100
AcDbDimension
  2
*D18
 10
3930
 20
860
 30
0
 11
3850
 21
868.125
 31
0
 70
   32
 71
    5
  3
Standard
 53
0
210
0
220
0
230
1
100
AcDbAlignedDimension
 13
3766
 23
1000
 33
0
 14
3934
 24
1000
 34
0
100
AcDbRotatedDimension
  0
DIMENSION
  5
221
100
AcDbEntity
  8
0
  6
ByLayer
 62
  256
370
   -1
100
AcDbDimension
  2
*D19
 10
3950
 20
780
 30
0
 11
3850
 21
788.125
 31
0
 70
   32
 71
    5
  3
Standard
 53
0
210
0
220
0
230
1
100
AcDbAlignedDimension
 13
3754.5
 23
1000
 33
0
 14
3945.5
 24
1000
 34
0
100
AcDbRotatedDimension
  0
CIRCLE
  5
222
100
AcDbEntity
  8
0
  6
DOT2
 62
  256
370
   -1
100
AcDbCircle
 10
3850
 20
1000
 40
77
  0
MTEXT
  5
223
100
AcDbEntity
  8
0
  6
ByLayer
 62
  256
370
   -1
100
AcDbMText
 10
3850
 20
1170
 30
0
 40
10
 41
51.11111111111189
 71
    8
 72
    1
  1
lentille=
  7
standard
210
0
220
0
230
1
 50
0
 73
    2
 44
1
  0
MTEXT
  5
224
100
AcDbEntity
  8
0
  6
ByLayer
 62
  256
370
   -1
100
AcDbMText
 10
3850
 20
800
 30
0
 40
10
 41
98.88888888889167
 71
    8
 72
    1
  1
encombrement=
  7
standard
210
0
220
0
230
1
 50
0
 73
    2
 44
1
  0
MTEXT
  5
225
100
AcDbEntity
  8
0
  6
ByLayer
 62
  256
370
   -1
100
AcDbMText
 10
3850
 20
840
 30
0
 40
10
 41
122.7777829206507
 71
    8
 72
    1
  1
trous de fixation=
  7
standard
210
0
220
0
230
1
 50
0
 73
    2
 44
1
  0
CIRCLE
  5
226
100
AcDbEntity
  8
0
  6
ByLayer
 62
  256
370
   -1
100
AcDbCircle
 10
3850
 20
1000
 40
70.5
  0
DIMENSION
  5
227
100
AcDbEntity
  8
0
  6
ByLayer
 62
  256
370
   -1
100
AcDbDimension
  2
*D20
 10
3920.5
 20
1110
 30
0
 11
3850
 21
1118.125
 31
0
 70
   32
 71
    5
  3
Standard
 53
0
210
0
220
0
230
1
100
AcDbAlignedDimension
 13
3779.5
 23
1000
 33
0
 14
3920.5
 24
1000
 34
0
100
AcDbRotatedDimension
  0
CIRCLE
  5
228
100
AcDbEntity
  8
0
  6
ByLayer
 62
  256
370
   -1
100
AcDbCircle
 10
4150
 20
1000
 40
95.5
  0
CIRCLE
  5
229
100
AcDbEntity
  8
0
  6
ByLayer
 62
  256
370
   -1
100
AcDbCircle
 10
4150
 20
1000
 40
84
  0
CIRCLE
  5
22A
100
AcDbEntity
  8
0
  6
ByLayer
 62
  256
370
   -1
100
AcDbCircle
 10
4150
 20
910
 40
3
  0
CIRCLE
  5
22B
100
AcDbEntity
  8
0
  6
ByLayer
 62
  256
370
   -1
100
AcDbCircle
 10
4227.9422863406
 20
1045
 40
3
  0
CIRCLE
  5
22C
100
AcDbEntity
  8
0
  6
ByLayer
 62
  256
370
   -1
100
AcDbCircle
 10
4072.057713659401
 20
1045
 40
3
  0
CIRCLE
  5
22D
100
AcDbEntity
  8
0
  6
DOT2
 62
  256
370
   -1
100
AcDbCircle
 10
4150
 20
1000
 40
90
  0
DIMENSION
  5
22E
100
AcDbEntity
  8
0
  6
ByLayer
 62
  256
370
   -1
100
AcDbDimension
  2
*D21
 10
4240
 20
820
 30
0
 11
4150
 21
828.125
 31
0
 70
   32
 71
    5
  3
Standard
 53
0
210
0
220
0
230
1
100
AcDbAlignedDimension
 13
4060
 23
1000
 33
0
 14
4240
 24
1000
 34
0
100
AcDbRotatedDimension
  0
DIMENSION
  5
22F
100
AcDbEntity
  8
0
  6
ByLayer
 62
  256
370
   -1
100
AcDbDimension
  2
*D22
 10
4230
 20
860
 30
0
 11
4150
 21
868.125
 31
0
 70
   32
 71
    5
  3
Standard
 53
0
210
0
220
0
230
1
100
AcDbAlignedDimension
 13
4066
 23
1000
 33
0
 14
4234
 24
1000
 34
0
100
AcDbRotatedDimension
  0
DIMENSION
  5
230
100
AcDbEntity
  8
0
  6
ByLayer
 62
  256
370
   -1
100
AcDbDimension
  2
*D23
 10
4250
 20
780
 30
0
 11
4150
 21
788.125
 31
0
 70
   32
 71
    5
  3
Standard
 53
0
210
0
220
0
230
1
100
AcDbAlignedDimension
 13
4054.5
 23
1000
 33
0
 14
4245.5
 24
1000
 34
0
100
AcDbRotatedDimension
  0
MTEXT
  5
231
100
AcDbEntity
  8
0
  6
ByLayer
 62
  256
370
   -1
100
AcDbMText
 10
4150
 20
800
 30
0
 40
10
 41
98.88888888889167
 71
    8
 72
    1
  1
encombrement=
  7
standard
210
0
220
0
230
1
 50
0
 73
    2
 44
1
  0
MTEXT
  5
232
100
AcDbEntity
  8
0
  6
ByLayer
 62
  256
370
   -1
100
AcDbMText
 10
4150
 20
840
 30
0
 40
10
 41
122.7777829206507
 71
    8
 72
    1
  1
trous de fixation=
  7
standard
210
0
220
0
230
1
 50
0
 73
    2
 44
1
  0
CIRCLE
  5
233
100
AcDbEntity
  8
0
  6
ByLayer
 62
  256
370
   -1
100
AcDbCircle
 10
4150
 20
1000
 40
37
  0
DIMENSION
  5
234
100
AcDbEntity
  8
0
  6
ByLayer
 62
  256
370
   -1
100
AcDbDimension
  2
*D24
 10
4187
 20
1110
 30
0
 11
4150
 21
1118.125
 31
0
 70
   32
 71
    5
  3
Standard
 53
0
210
0
220
0
230
1
100
AcDbAlignedDimension
 13
4113
 23
1000
 33
0
 14
4187
 24
1000
 34
0
100
AcDbRotatedDimension
  0
DIMENSION
  5
235
100
AcDbEntity
  8
0
  6
ByLayer
 62
  256
370
   -1
100
AcDbDimension
  2
*D25
 10
4190
 20
1150
 30
0
 11
4150
 21
1158.125
 31
0
 70
   32
 71
    5
  3
Standard
 53
0
210
0
220
0
230
1
100
AcDbAlignedDimension
 13
4110
 23
1000
 33
0
 14
4190
 24
1000
 34
0
100
AcDbRotatedDimension
  0
MTEXT
  5
236
100
AcDbEntity
  8
0
  6
ByLayer
 62
  256
370
   -1
100
AcDbMText
 10
3850
 20
1130
 30
0
 40
10
 41
47.77777777777779
 71
    8
 72
    1
  1
pupille=
  7
standard
210
0
220
0
230
1
 50
0
 73
    2
 44
1
  0
MTEXT
  5
237
100
AcDbEntity
  8
0
  6
ByLayer
 62
  256
370
   -1
100
AcDbMText
 10
4150
 20
1170
 30
0
 40
10
 41
51.11111111111189
 71
    8
 72
    1
  1
lentille=
  7
standard
210
0
220
0
230
1
 50
0
 73
    2
 44
1
  0
MTEXT
  5
238
100
AcDbEntity
  8
0
  6
ByLayer
 62
  256
370
   -1
100
AcDbMText
 10
4150
 20
1130
 30
0
 40
10
 41
47.77777777777779
 71
    8
 72
    1
  1
pupille=
  7
standard
210
0
220
0
230
1
 50
0
 73
    2
 44
1
  0
CIRCLE
  5
239
100
AcDbEntity
  8
0
  6
DOT2
 62
  256
370
   -1
100
AcDbCircle
 10
4150
 20
1000
 40
40
  0
LWPOLYLINE
  5
23A
100
AcDbEntity
  8
0
  6
ByLayer
 62
  256
370
   -1
100
AcDbPolyline
 90
    4
 70
    1
 43
0
 10
3700
 20
1200
 10
4000
 20
1200
 10
4000
 20
750
 10
3700
 20
750
  0
LWPOLYLINE
  5
23B
100
AcDbEntity
  8
0
  6
ByLayer
 62
  256
370
   -1
100
AcDbPolyline
 90
    4
 70
    1
 43
0
 10
4000
 20
750
 10
4310
 20
750
 10
4310
 20
1200
 10
4000
 20
1200
  0
LWPOLYLINE
  5
23C
100
AcDbEntity
  8
0
  6
ByLayer
 62
  256
370
   -1
100
AcDbPolyline
 90
    4
 70
    1
 43
0
 10
3700
 20
750
 10
4000
 20
750
 10
4000
 20
700
 10
3700
 20
700
  0
LWPOLYLINE
  5
23D
100
AcDbEntity
  8
0
  6
ByLayer
 62
  256
370
   -1
100
AcDbPolyline
 90
    4
 70
    1
 43
0
 10
4000
 20
700
 10
4310
 20
700
 10
4310
 20
750
 10
4000
 20
750
  0
MTEXT
  5
23E
100
AcDbEntity
  8
0
  6
ByLayer
 62
  256
370
   -1
100
AcDbMText
 10
3850
 20
880
 30
0
 40
10
 41
63.05555555555648
 71
    8
 72
    1
  1
 interne
  7
standard
210
0
220
0
230
1
 50
0
 73
    2
 44
1
  0
MTEXT
  5
23F
100
AcDbEntity
  8
0
  6
ByLayer
 62
  256
370
   -1
100
AcDbMText
 10
4150
 20
880
 30
0
 40
10
 41
63.05555555555648
 71
    8
 72
    1
  1
 interne
  7
standard
210
0
220
0
230
1
 50
0
 73
    2
 44
1
  0
MTEXT
  5
240
100
AcDbEntity
  8
0
  6
ByLayer
 62
  256
370
   -1
100
AcDbMText
 10
3850
 20
720
 30
0
 40
20
 41
135.0000000000013
 71
    5
 72
    1
  1
FUT 154V1
  7
standard
210
0
220
0
230
1
 50
0
 73
    2
 44
1
  0
MTEXT
  5
241
100
AcDbEntity
  8
0
  6
ByLayer
 62
  256
370
   -1
100
AcDbMText
 10
4150
 20
720
 30
0
 40
20
 41
121.6666666666667
 71
    5
 72
    1
  1
FUT 80V1
  7
standard
210
0
220
0
230
1
 50
0
 73
    2
 44
1
  0
CIRCLE
  5
242
100
AcDbEntity
  8
0
  6
ByLayer
 62
  256
370
   -1
100
AcDbCircle
 10
3000
 20
-1000
 40
70.5
  0
MTEXT
  5
243
100
AcDbEntity
  8
gravure
  6
ByLayer
 62
  256
370
   -1
100
AcDbMText
 10
3038.5
 20
-933.3160439085982
 30
0
 40
5
 41
26.11111111111142
 71
    5
 72
    1
  1
154V1/A
  7
standard
210
0
220
0
230
1
 50
329.9999999999999
 73
    2
 44
1
  0
CIRCLE
  5
244
100
AcDbEntity
  8
0
  6
ByLayer
 62
  256
370
   -1
100
AcDbCircle
 10
3200
 20
-1000
 40
70.5
  0
CIRCLE
  5
245
100
AcDbEntity
  8
0
  6
ByLayer
 62
  256
370
   -1
100
AcDbCircle
 10
3200
 20
-1000
 40
95.5
  0
MTEXT
  5
246
100
AcDbEntity
  8
gravure
  6
ByLayer
 62
  256
370
   -1
100
AcDbMText
 10
3238.5
 20
-933.3160439085982
 30
0
 40
5
 41
25.55555555555587
 71
    5
 72
    1
  1
154V1/B
  7
standard
210
0
220
0
230
1
 50
329.9999999999999
 73
    2
 44
1
  0
CIRCLE
  5
247
100
AcDbEntity
  8
0
  6
ByLayer
 62
  256
370
   -1
100
AcDbCircle
 10
3200
 20
-1200
 40
84
  0
CIRCLE
  5
248
100
AcDbEntity
  8
0
  6
ByLayer
 62
  256
370
   -1
100
AcDbCircle
 10
3200
 20
-1200
 40
95.5
  0
LINE
  5
249
100
AcDbEntity
  8
0
  6
ByLayer
 62
  256
370
   -1
100
AcDbLine
 10
2933.034954995353
 20
-1041.837713240272
 11
2933.034954995353
 21
-1038.662286759729
  0
LINE
  5
24A
100
AcDbEntity
  8
0
  6
ByLayer
 62
  256
370
   -1
100
AcDbLine
 10
2933.034954995353
 20
-1038.662286759729
 11
2930.284954995353
 21
-1037.074573519457
  0
LINE
  5
24B
100
AcDbEntity
  8
0
  6
ByLayer
 62
  256
370
   -1
100
AcDbLine
 10
2930.284954995353
 20
-1037.074573519457
 11
2925.917860563764
 21
-1039.59591666511
  0
LINE
  5
24C
100
AcDbEntity
  8
0
  6
ByLayer
 62
  256
370
   -1
100
AcDbLine
 10
2933.034954995353
 20
-1041.837713240272
 11
2928.667860563764
 21
-1044.359056385926
  0
ARC
  5
24D
100
AcDbEntity
  8
0
  6
ByLayer
 62
  256
370
   -1
100
AcDbCircle
 10
3000
 20
-1000
 40
84.00000000000149
100
AcDbArc
 50
151.8760899151068
 51
208.1239100848923
  0
LINE
  5
24E
100
AcDbEntity
  8
0
  6
ByLayer
 62
  256
370
   -1
100
AcDbLine
 10
2930.284954995353
 20
-962.9254264805435
 11
2933.034954995353
 21
-961.3377132402715
  0
LINE
  5
24F
100
AcDbEntity
  8
0
  6
ByLayer
 62
  256
370
   -1
100
AcDbLine
 10
2933.034954995353
 20
-961.3377132402715
 11
2933.034954995353
 21
-958.1622867597285
  0
LINE
  5
250
100
AcDbEntity
  8
0
  6
ByLayer
 62
  256
370
   -1
100
AcDbLine
 10
2933.034954995353
 20
-958.1622867597287
 11
2928.667860563765
 21
-955.6409436140736
  0
LINE
  5
251
100
AcDbEntity
  8
0
  6
ByLayer
 62
  256
370
   -1
100
AcDbLine
 10
2930.284954995353
 20
-962.9254264805434
 11
2925.917860563764
 21
-960.4040833348887
  0
ARC
  5
252
100
AcDbEntity
  8
0
  6
ByLayer
 62
  256
370
   -1
100
AcDbCircle
 10
3000
 20
-1000
 40
84.00000000000149
100
AcDbArc
 50
91.87608991510682
 51
148.1239100848924
  0
LINE
  5
253
100
AcDbEntity
  8
0
  6
ByLayer
 62
  256
370
   -1
100
AcDbLine
 10
2997.25
 20
-921.0877132402718
 11
3000
 21
-922.6754264805429
  0
LINE
  5
254
100
AcDbEntity
  8
0
  6
ByLayer
 62
  256
370
   -1
100
AcDbLine
 10
3000
 20
-922.6754264805429
 11
3002.75
 21
-921.0877132402716
  0
LINE
  5
255
100
AcDbEntity
  8
0
  6
ByLayer
 62
  256
370
   -1
100
AcDbLine
 10
3002.75
 20
-921.0877132402713
 11
3002.750000000001
 21
-916.0450269489637
  0
LINE
  5
256
100
AcDbEntity
  8
0
  6
ByLayer
 62
  256
370
   -1
100
AcDbLine
 10
2997.25
 20
-921.0877132402719
 11
2997.25
 21
-916.0450269489631
  0
ARC
  5
257
100
AcDbEntity
  8
0
  6
ByLayer
 62
  256
370
   -1
100
AcDbCircle
 10
3000
 20
-1000
 40
84.00000000000149
100
AcDbArc
 50
31.87608991510678
 51
88.12391008489237
  0
LINE
  5
258
100
AcDbEntity
  8
0
  6
ByLayer
 62
  256
370
   -1
100
AcDbLine
 10
3066.965045004647
 20
-958.1622867597284
 11
3066.965045004647
 21
-961.3377132402716
  0
LINE
  5
259
100
AcDbEntity
  8
0
  6
ByLayer
 62
  256
370
   -1
100
AcDbLine
 10
3066.965045004647
 20
-961.3377132402716
 11
3069.715045004647
 21
-962.9254264805431
  0
LINE
  5
25A
100
AcDbEntity
  8
0
  6
ByLayer
 62
  256
370
   -1
100
AcDbLine
 10
3069.715045004647
 20
-962.9254264805429
 11
3074.082139436236
 21
-960.4040833348902
  0
LINE
  5
25B
100
AcDbEntity
  8
0
  6
ByLayer
 62
  256
370
   -1
100
AcDbLine
 10
3066.965045004647
 20
-958.1622867597287
 11
3071.332139436236
 21
-955.6409436140746
  0
ARC
  5
25C
100
AcDbEntity
  8
0
  6
ByLayer
 62
  256
370
   -1
100
AcDbCircle
 10
3000
 20
-1000
 40
84.00000000000149
100
AcDbArc
 50
331.8760899151068
 51
28.12391008489233
  0
LINE
  5
25D
100
AcDbEntity
  8
0
  6
ByLayer
 62
  256
370
   -1
100
AcDbLine
 10
3069.715045004647
 20
-1037.074573519457
 11
3066.965045004647
 21
-1038.662286759729
  0
LINE
  5
25E
100
AcDbEntity
  8
0
  6
ByLayer
 62
  256
370
   -1
100
AcDbLine
 10
3066.965045004647
 20
-1038.662286759729
 11
3066.965045004647
 21
-1041.837713240272
  0
LINE
  5
25F
100
AcDbEntity
  8
0
  6
ByLayer
 62
  256
370
   -1
100
AcDbLine
 10
3066.965045004647
 20
-1041.837713240272
 11
3071.332139436235
 21
-1044.359056385927
  0
LINE
  5
260
100
AcDbEntity
  8
0
  6
ByLayer
 62
  256
370
   -1
100
AcDbLine
 10
3069.715045004647
 20
-1037.074573519457
 11
3074.082139436236
 21
-1039.595916665111
  0
ARC
  5
261
100
AcDbEntity
  8
0
  6
ByLayer
 62
  256
370
   -1
100
AcDbCircle
 10
3000
 20
-1000
 40
84.00000000000149
100
AcDbArc
 50
271.8760899151069
 51
328.1239100848924
  0
LINE
  5
262
100
AcDbEntity
  8
0
  6
ByLayer
 62
  256
370
   -1
100
AcDbLine
 10
3002.75
 20
-1078.912286759728
 11
3000
 21
-1077.324573519457
  0
LINE
  5
263
100
AcDbEntity
  8
0
  6
ByLayer
 62
  256
370
   -1
100
AcDbLine
 10
3000
 20
-1077.324573519457
 11
2997.25
 21
-1078.912286759729
  0
LINE
  5
264
100
AcDbEntity
  8
0
  6
ByLayer
 62
  256
370
   -1
100
AcDbLine
 10
2997.25
 20
-1078.912286759729
 11
2997.249999999999
 21
-1083.954973051036
  0
LINE
  5
265
100
AcDbEntity
  8
0
  6
ByLayer
 62
  256
370
   -1
100
AcDbLine
 10
3002.75
 20
-1078.912286759728
 11
3002.75
 21
-1083.954973051037
  0
ARC
  5
266
100
AcDbEntity
  8
0
  6
ByLayer
 62
  256
370
   -1
100
AcDbCircle
 10
3000
 20
-1000
 40
84.00000000000149
100
AcDbArc
 50
211.876089915107
 51
268.1239100848925
  0
CIRCLE
  5
267
100
AcDbEntity
  8
0
  6
ByLayer
 62
  256
370
   -1
100
AcDbCircle
 10
3130.284954995353
 20
-1040.25
 40
1.5
  0
CIRCLE
  5
268
100
AcDbEntity
  8
0
  6
ByLayer
 62
  256
370
   -1
100
AcDbCircle
 10
3200
 20
-919.5
 40
1.5
  0
CIRCLE
  5
269
100
AcDbEntity
  8
0
  6
ByLayer
 62
  256
370
   -1
100
AcDbCircle
 10
3269.715045004647
 20
-1040.25
 40
1.5
  0
CIRCLE
  5
26A
100
AcDbEntity
  8
0
  6
ByLayer
 62
  256
370
   -1
100
AcDbCircle
 10
3130.284954995353
 20
-959.7500000000002
 40
1.5
  0
CIRCLE
  5
26B
100
AcDbEntity
  8
0
  6
ByLayer
 62
  256
370
   -1
100
AcDbCircle
 10
3269.715045004647
 20
-959.7499999999999
 40
1.5
  0
CIRCLE
  5
26C
100
AcDbEntity
  8
0
  6
ByLayer
 62
  256
370
   -1
100
AcDbCircle
 10
3200
 20
-1080.5
 40
1.5
  0
CIRCLE
  5
26D
100
AcDbEntity
  8
0
  6
ByLayer
 62
  256
370
   -1
100
AcDbCircle
 10
3155
 20
-1077.942286340599
 40
3
  0
CIRCLE
  5
26E
100
AcDbEntity
  8
0
  6
ByLayer
 62
  256
370
   -1
100
AcDbCircle
 10
3290
 20
-999.9999999999998
 40
3
  0
CIRCLE
  5
26F
100
AcDbEntity
  8
0
  6
ByLayer
 62
  256
370
   -1
100
AcDbCircle
 10
3155
 20
-922.0577136594007
 40
3
  0
CIRCLE
  5
270
100
AcDbEntity
  8
0
  6
ByLayer
 62
  256
370
   -1
100
AcDbCircle
 10
3155
 20
-1277.942286340599
 40
3
  0
CIRCLE
  5
271
100
AcDbEntity
  8
0
  6
ByLayer
 62
  256
370
   -1
100
AcDbCircle
 10
3290
 20
-1200
 40
3
  0
CIRCLE
  5
272
100
AcDbEntity
  8
0
  6
ByLayer
 62
  256
370
   -1
100
AcDbCircle
 10
3155
 20
-1122.057713659401
 40
3
  0
MTEXT
  5
273
100
AcDbEntity
  8
gravure
  6
ByLayer
 62
  256
370
   -1
100
AcDbMText
 10
3244.875001954213
 20
-1122.274218882081
 30
0
 40
5
 41
25.55555555555618
 71
    5
 72
    1
  1
154V1/D
  7
standard
210
0
220
0
230
1
 50
329.9999999999999
 73
    2
 44
1
  0
CIRCLE
  5
274
100
AcDbEntity
  8
0
  6
ByLayer
 62
  256
370
   -1
100
AcDbCircle
 10
3000
 20
-1200
 40
77
  0
CIRCLE
  5
275
100
AcDbEntity
  8
0
  6
ByLayer
 62
  256
370
   -1
100
AcDbCircle
 10
3000
 20
-1200
 40
95.5
  0
MTEXT
  5
276
100
AcDbEntity
  8
gravure
  6
ByLayer
 62
  256
370
   -1
100
AcDbMText
 10
3043.125
 20
-1125.305308923592
 30
0
 40
5
 41
25.00000000000031
 71
    5
 72
    1
  1
154V1/C
  7
standard
210
0
220
0
230
1
 50
329.9999999999999
 73
    2
 44
1
  0
CIRCLE
  5
277
100
AcDbEntity
  8
0
  6
ByLayer
 62
  256
370
   -1
100
AcDbCircle
 10
2955
 20
-1277.942286340599
 40
3
  0
CIRCLE
  5
278
100
AcDbEntity
  8
0
  6
ByLayer
 62
  256
370
   -1
100
AcDbCircle
 10
3090
 20
-1200
 40
3
  0
CIRCLE
  5
279
100
AcDbEntity
  8
0
  6
ByLayer
 62
  256
370
   -1
100
AcDbCircle
 10
2955
 20
-1122.057713659401
 40
3
  0
CIRCLE
  5
27A
100
AcDbEntity
  8
0
  6
ByLayer
 62
  256
370
   -1
100
AcDbCircle
 10
2930.284954995353
 20
-1240.25
 40
1.5
  0
CIRCLE
  5
27B
100
AcDbEntity
  8
0
  6
ByLayer
 62
  256
370
   -1
100
AcDbCircle
 10
3000
 20
-1119.5
 40
1.5
  0
CIRCLE
  5
27C
100
AcDbEntity
  8
0
  6
ByLayer
 62
  256
370
   -1
100
AcDbCircle
 10
3069.715045004647
 20
-1240.25
 40
1.5
  0
CIRCLE
  5
27D
100
AcDbEntity
  8
0
  6
ByLayer
 62
  256
370
   -1
100
AcDbCircle
 10
2930.284954995353
 20
-1159.75
 40
1.5
  0
CIRCLE
  5
27E
100
AcDbEntity
  8
0
  6
ByLayer
 62
  256
370
   -1
100
AcDbCircle
 10
3069.715045004647
 20
-1159.75
 40
1.5
  0
CIRCLE
  5
27F
100
AcDbEntity
  8
0
  6
ByLayer
 62
  256
370
   -1
100
AcDbCircle
 10
3000
 20
-1280.5
 40
1.5
  0
LWPOLYLINE
  5
280
100
AcDbEntity
  8
0
  6
ByLayer
 62
  256
370
   -1
100
AcDbPolyline
 90
    4
 70
    1
 43
0
 10
3563
 20
-1415
 10
3504.5
 20
-1415
 10
3504.5
 20
-1421
 10
3563
 20
-1421
  0
LWPOLYLINE
  5
281
100
AcDbEntity
  8
0
  6
ByLayer
 62
  256
370
   -1
100
AcDbPolyline
 90
    4
 70
    1
 43
0
 10
3563
 20
-1421
 10
3516
 20
-1421
 10
3516
 20
-1427
 10
3563
 20
-1427
  0
LWPOLYLINE
  5
282
100
AcDbEntity
  8
0
  6
ByLayer
 62
  256
370
   -1
100
AcDbPolyline
 90
    4
 70
    1
 43
0
 10
3560
 20
-1415
 10
3504.5
 20
-1415
 10
3504.5
 20
-1409
 10
3560
 20
-1409
  0
LWPOLYLINE
  5
283
100
AcDbEntity
  8
0
  6
ByLayer
 62
  256
370
   -1
100
AcDbPolyline
 90
    4
 70
    1
 43
0
 10
3640
 20
-1415
 10
3560
 20
-1415
 10
3560
 20
-1408
 10
3640
 20
-1408
  0
LWPOLYLINE
  5
284
100
AcDbEntity
  8
0
  6
ByLayer
 62
  256
370
   -1
100
AcDbPolyline
 90
    4
 70
    1
 43
0
 10
3540
 20
-1408
 10
3504.5
 20
-1408
 10
3504.5
 20
-1409
 10
3540
 20
-1409
  0
LWPOLYLINE
  5
285
100
AcDbEntity
  8
0
  6
ByLayer
 62
  256
370
   -1
100
AcDbPolyline
 90
    4
 70
    1
 43
0
 10
3563
 20
-1408
 10
3504.5
 20
-1408
 10
3504.5
 20
-1402
 10
3563
 20
-1402
  0
LWPOLYLINE
  5
286
100
AcDbEntity
  8
0
  6
ByLayer
 62
  256
370
   -1
100
AcDbPolyline
 90
    4
 70
    1
 43
0
 10
3637
 20
-1415
 10
3695.5
 20
-1415
 10
3695.5
 20
-1421
 10
3637
 20
-1421
  0
LWPOLYLINE
  5
287
100
AcDbEntity
  8
0
  6
ByLayer
 62
  256
370
   -1
100
AcDbPolyline
 90
    4
 70
    1
 43
0
 10
3637
 20
-1421
 10
3684
 20
-1421
 10
3684
 20
-1427
 10
3637
 20
-1427
  0
LWPOLYLINE
  5
288
100
AcDbEntity
  8
0
  6
ByLayer
 62
  256
370
   -1
100
AcDbPolyline
 90
    4
 70
    1
 43
0
 10
3640
 20
-1415
 10
3695.5
 20
-1415
 10
3695.5
 20
-1409
 10
3640
 20
-1409
  0
LWPOLYLINE
  5
289
100
AcDbEntity
  8
0
  6
ByLayer
 62
  256
370
   -1
100
AcDbPolyline
 90
    4
 70
    1
 43
0
 10
3660
 20
-1408
 10
3695.5
 20
-1408
 10
3695.5
 20
-1409
 10
3660
 20
-1409
  0
LWPOLYLINE
  5
28A
100
AcDbEntity
  8
0
  6
ByLayer
 62
  256
370
   -1
100
AcDbPolyline
 90
    4
 70
    1
 43
0
 10
3637
 20
-1408
 10
3695.5
 20
-1408
 10
3695.5
 20
-1402
 10
3637
 20
-1402
  0
LWPOLYLINE
  5
28B
100
AcDbEntity
  8
HACHURES
  6
ByLayer
 62
  256
370
   -1
100
AcDbPolyline
 90
    4
 70
    1
 43
0
 10
3686.999999999999
 20
-1402
 10
3693
 20
-1402
 10
3693
 20
-1421
 10
3686.999999999999
 20
-1421
  0
LINE
  5
28C
100
AcDbEntity
  8
0
  6
ByLayer
 62
  256
370
   -1
100
AcDbLine
 10
3648.5
 20
-1402
 11
3648.5
 21
-1408
  0
LINE
  5
28D
100
AcDbEntity
  8
0
  6
ByLayer
 62
  256
370
   -1
100
AcDbLine
 10
3651.5
 20
-1402
 11
3651.5
 21
-1408
  0
LWPOLYLINE
  5
28E
100
AcDbEntity
  8
HACHURES
  6
ByLayer
 62
  256
370
   -1
100
AcDbPolyline
 90
    4
 70
    1
 43
0
 10
3648.5
 20
-1408
 10
3651.5
 20
-1408
 10
3651.5
 20
-1402
 10
3648.5
 20
-1402
  0
LINE
  5
28F
100
AcDbEntity
  8
0
  6
ByLayer
 62
  256
370
   -1
100
AcDbLine
 10
3648.5
 20
-1409
 11
3648.5
 21
-1415
  0
LINE
  5
290
100
AcDbEntity
  8
0
  6
ByLayer
 62
  256
370
   -1
100
AcDbLine
 10
3651.5
 20
-1409
 11
3651.5
 21
-1415
  0
LWPOLYLINE
  5
291
100
AcDbEntity
  8
HACHURES
  6
ByLayer
 62
  256
370
   -1
100
AcDbPolyline
 90
    4
 70
    1
 43
0
 10
3648.5
 20
-1415
 10
3651.5
 20
-1415
 10
3651.5
 20
-1409
 10
3648.5
 20
-1409
  0
LINE
  5
292
100
AcDbEntity
  8
0
  6
ByLayer
 62
  256
370
   -1
100
AcDbLine
 10
3648.5
 20
-1415
 11
3648.5
 21
-1421
  0
LINE
  5
293
100
AcDbEntity
  8
0
  6
ByLayer
 62
  256
370
   -1
100
AcDbLine
 10
3651.5
 20
-1415
 11
3651.5
 21
-1421
  0
LWPOLYLINE
  5
294
100
AcDbEntity
  8
HACHURES
  6
ByLayer
 62
  256
370
   -1
100
AcDbPolyline
 90
    4
 70
    1
 43
0
 10
3648.5
 20
-1421
 10
3651.5
 20
-1421
 10
3651.5
 20
-1415
 10
3648.5
 20
-1415
  0
LWPOLYLINE
  5
295
100
AcDbEntity
  8
HACHURES
  6
ByLayer
 62
  256
370
   -1
100
AcDbPolyline
 90
    4
 70
    1
 43
0
 10
3647.25
 20
-1427
 10
3653.5
 20
-1427
 10
3653.5
 20
-1421
 10
3647.25
 20
-1421
  0
LINE
  5
296
100
AcDbEntity
  8
draft
  6
ByLayer
 62
  256
370
   -1
100
AcDbLine
 10
3637
 20
-1427
 11
4019.68343236509
 21
-2350.879532511287
  0
LWPOLYLINE
  5
297
100
AcDbEntity
  8
0
  6
ByLayer
 62
  256
370
   -1
100
AcDbPolyline
 90
    4
 70
    1
 43
0
 10
3023
 20
-1386
 10
3177
 20
-1386
 10
3177
 20
-1415
 10
3023
 20
-1415
  0
LWPOLYLINE
  5
298
100
AcDbEntity
  8
0
  6
ByLayer
 62
  256
370
   -1
100
AcDbPolyline
 90
    4
 70
    1
 43
0
 10
3195.5
 20
-1391
 10
3177
 20
-1391
 10
3177
 20
-1397
 10
3195.5
 20
-1397
  0
LWPOLYLINE
  5
299
100
AcDbEntity
  8
0
  6
ByLayer
 62
  256
370
   -1
100
AcDbPolyline
 90
    4
 70
    1
 43
0
 10
3177
 20
-1397
 10
3195.5
 20
-1397
 10
3195.5
 20
-1403
 10
3177
 20
-1403
  0
LWPOLYLINE
  5
29A
100
AcDbEntity
  8
0
  6
ByLayer
 62
  256
370
   -1
100
AcDbPolyline
 90
    4
 70
    1
 43
0
 10
3195.5
 20
-1403
 10
3177
 20
-1403
 10
3177
 20
-1409
 10
3195.5
 20
-1409
  0
LWPOLYLINE
  5
29B
100
AcDbEntity
  8
0
  6
ByLayer
 62
  256
370
   -1
100
AcDbPolyline
 90
    4
 70
    1
 43
0
 10
3195.5
 20
-1409
 10
3177
 20
-1409
 10
3177
 20
-1415
 10
3195.5
 20
-1415
  0
LWPOLYLINE
  5
29C
100
AcDbEntity
  8
0
  6
ByLayer
 62
  256
370
   -1
100
AcDbPolyline
 90
    4
 70
    1
 43
0
 10
3195.5
 20
-1415
 10
3170.710678118655
 20
-1415
 10
3170.710678118655
 20
-1421
 10
3195.5
 20
-1421
  0
LWPOLYLINE
  5
29D
100
AcDbEntity
  8
0
  6
ByLayer
 62
  256
370
   -1
100
AcDbPolyline
 90
    4
 70
    1
 43
0
 10
3184
 20
-1421
 10
3170.710678118655
 20
-1421
 10
3170.710678118655
 20
-1427
 10
3184
 20
-1427
  0
LWPOLYLINE
  5
29E
100
AcDbEntity
  8
0
  6
ByLayer
 62
  256
370
   -1
100
AcDbPolyline
 90
    4
 70
    1
 43
0
 10
3195.5
 20
-1380
 10
3170.710678118655
 20
-1380
 10
3170.710678118655
 20
-1386
 10
3195.5
 20
-1386
  0
LWPOLYLINE
  5
29F
100
AcDbEntity
  8
draft
  6
ByLayer
 62
  256
370
   -1
100
AcDbPolyline
 90
    4
 70
    1
 43
0
 10
3184
 20
-1386
 10
3195.5
 20
-1386
 10
3195.5
 20
-1391
 10
3184
 20
-1391
  0
LWPOLYLINE
  5
2A0
100
AcDbEntity
  8
0
  6
ByLayer
 62
  256
370
   -1
100
AcDbPolyline
 90
    4
 70
    1
 43
0
 10
3184
 20
-1386
 10
3195.5
 20
-1386
 10
3195.5
 20
-1391
 10
3184
 20
-1391
  0
LINE
  5
2A1
100
AcDbEntity
  8
0
  6
ByLayer
 62
  256
370
   -1
100
AcDbLine
 10
3179
 20
-1391
 11
3179
 21
-1397
  0
LINE
  5
2A2
100
AcDbEntity
  8
0
  6
ByLayer
 62
  256
370
   -1
100
AcDbLine
 10
3182
 20
-1391
 11
3182
 21
-1397
  0
LINE
  5
2A3
100
AcDbEntity
  8
0
  6
ByLayer
 62
  256
370
   -1
100
AcDbLine
 10
3179
 20
-1380
 11
3179
 21
-1386
  0
LINE
  5
2A4
100
AcDbEntity
  8
0
  6
ByLayer
 62
  256
370
   -1
100
AcDbLine
 10
3182
 20
-1380
 11
3182
 21
-1386
  0
LINE
  5
2A5
100
AcDbEntity
  8
0
  6
ByLayer
 62
  256
370
   -1
100
AcDbLine
 10
3179
 20
-1397
 11
3179
 21
-1403
  0
LINE
  5
2A6
100
AcDbEntity
  8
0
  6
ByLayer
 62
  256
370
   -1
100
AcDbLine
 10
3182
 20
-1397
 11
3182
 21
-1403
  0
LINE
  5
2A7
100
AcDbEntity
  8
0
  6
ByLayer
 62
  256
370
   -1
100
AcDbLine
 10
3179
 20
-1403
 11
3179
 21
-1409
  0
LINE
  5
2A8
100
AcDbEntity
  8
0
  6
ByLayer
 62
  256
370
   -1
100
AcDbLine
 10
3182
 20
-1403
 11
3182
 21
-1409
  0
LINE
  5
2A9
100
AcDbEntity
  8
0
  6
ByLayer
 62
  256
370
   -1
100
AcDbLine
 10
3179
 20
-1409
 11
3179
 21
-1415
  0
LINE
  5
2AA
100
AcDbEntity
  8
0
  6
ByLayer
 62
  256
370
   -1
100
AcDbLine
 10
3182
 20
-1409
 11
3182
 21
-1415
  0
LINE
  5
2AB
100
AcDbEntity
  8
0
  6
ByLayer
 62
  256
370
   -1
100
AcDbLine
 10
3179
 20
-1415
 11
3179
 21
-1421
  0
LINE
  5
2AC
100
AcDbEntity
  8
0
  6
ByLayer
 62
  256
370
   -1
100
AcDbLine
 10
3182
 20
-1415
 11
3182
 21
-1421
  0
LINE
  5
2AD
100
AcDbEntity
  8
0
  6
ByLayer
 62
  256
370
   -1
100
AcDbLine
 10
3177.75
 20
-1421
 11
3177.75
 21
-1427
  0
LWPOLYLINE
  5
2AE
100
AcDbEntity
  8
0
  6
ByLayer
 62
  256
370
   -1
100
AcDbPolyline
 90
    4
 70
    1
 43
0
 10
3004.5
 20
-1391
 10
3023
 20
-1391
 10
3023
 20
-1397
 10
3004.5
 20
-1397
  0
LWPOLYLINE
  5
2AF
100
AcDbEntity
  8
0
  6
ByLayer
 62
  256
370
   -1
100
AcDbPolyline
 90
    4
 70
    1
 43
0
 10
3023
 20
-1397
 10
3004.5
 20
-1397
 10
3004.5
 20
-1403
 10
3023
 20
-1403
  0
LWPOLYLINE
  5
2B0
100
AcDbEntity
  8
0
  6
ByLayer
 62
  256
370
   -1
100
AcDbPolyline
 90
    4
 70
    1
 43
0
 10
3004.5
 20
-1403
 10
3023
 20
-1403
 10
3023
 20
-1409
 10
3004.5
 20
-1409
  0
LWPOLYLINE
  5
2B1
100
AcDbEntity
  8
0
  6
ByLayer
 62
  256
370
   -1
100
AcDbPolyline
 90
    4
 70
    1
 43
0
 10
3004.5
 20
-1409
 10
3023
 20
-1409
 10
3023
 20
-1415
 10
3004.5
 20
-1415
  0
LWPOLYLINE
  5
2B2
100
AcDbEntity
  8
0
  6
ByLayer
 62
  256
370
   -1
100
AcDbPolyline
 90
    4
 70
    1
 43
0
 10
3004.5
 20
-1415
 10
3029.289321881345
 20
-1415
 10
3029.289321881345
 20
-1421
 10
3004.5
 20
-1421
  0
LWPOLYLINE
  5
2B3
100
AcDbEntity
  8
0
  6
ByLayer
 62
  256
370
   -1
100
AcDbPolyline
 90
    4
 70
    1
 43
0
 10
3016
 20
-1421
 10
3029.289321881345
 20
-1421
 10
3029.289321881345
 20
-1427
 10
3016
 20
-1427
  0
LWPOLYLINE
  5
2B4
100
AcDbEntity
  8
0
  6
ByLayer
 62
  256
370
   -1
100
AcDbPolyline
 90
    4
 70
    1
 43
0
 10
3004.5
 20
-1380
 10
3029.289321881345
 20
-1380
 10
3029.289321881345
 20
-1386
 10
3004.5
 20
-1386
  0
LWPOLYLINE
  5
2B5
100
AcDbEntity
  8
0
  6
ByLayer
 62
  256
370
   -1
100
AcDbPolyline
 90
    4
 70
    1
 43
0
 10
3016
 20
-1386
 10
3004.5
 20
-1386
 10
3004.5
 20
-1391
 10
3016
 20
-1391
  0
LWPOLYLINE
  5
2B6
100
AcDbEntity
  8
0
  6
ByLayer
 62
  256
370
   -1
100
AcDbPolyline
 90
    4
 70
    1
 43
0
 10
3016
 20
-1386
 10
3004.5
 20
-1386
 10
3004.5
 20
-1391
 10
3016
 20
-1391
  0
MTEXT
  5
2B7
100
AcDbEntity
  8
0
  6
ByLayer
 62
  256
370
   -1
100
AcDbMText
 10
3210
 20
-1418
 30
0
 40
6
 41
3.333333333333333
 71
    5
 72
    1
  1
B
  7
standard
210
0
220
0
230
1
 50
0
 73
    2
 44
1
  0
MTEXT
  5
2B8
100
AcDbEntity
  8
0
  6
ByLayer
 62
  256
370
   -1
100
AcDbMText
 10
3210
 20
-1394
 30
0
 40
6
 41
2.666666666667039
 71
    5
 72
    1
  1
C
  7
standard
210
0
220
0
230
1
 50
0
 73
    2
 44
1
  0
MTEXT
  5
2B9
100
AcDbEntity
  8
0
  6
ByLayer
 62
  256
370
   -1
100
AcDbMText
 10
3210
 20
-1406
 30
0
 40
6
 41
2.666666666667039
 71
    5
 72
    1
  1
C
  7
standard
210
0
220
0
230
1
 50
0
 73
    2
 44
1
  0
MTEXT
  5
2BA
100
AcDbEntity
  8
0
  6
ByLayer
 62
  256
370
   -1
100
AcDbMText
 10
3215
 20
-1424
 30
0
 40
6
 41
4
 71
    5
 72
    1
  1
A
  7
standard
210
0
220
0
230
1
 50
0
 73
    2
 44
1
  0
MTEXT
  5
2BB
100
AcDbEntity
  8
0
  6
ByLayer
 62
  256
370
   -1
100
AcDbMText
 10
3215
 20
-1400
 30
0
 40
6
 41
2.666666666667039
 71
    5
 72
    1
  1
C
  7
standard
210
0
220
0
230
1
 50
0
 73
    2
 44
1
  0
MTEXT
  5
2BC
100
AcDbEntity
  8
0
  6
ByLayer
 62
  256
370
   -1
100
AcDbMText
 10
3215
 20
-1412
 30
0
 40
6
 41
2.666666666667039
 71
    5
 72
    1
  1
C
  7
standard
210
0
220
0
230
1
 50
0
 73
    2
 44
1
  0
MTEXT
  5
2BD
100
AcDbEntity
  8
0
  6
ByLayer
 62
  256
370
   -1
100
AcDbMText
 10
3215
 20
-1388.5
 30
0
 40
6
 41
3.333333333333705
 71
    5
 72
    1
  1
D
  7
standard
210
0
220
0
230
1
 50
0
 73
    2
 44
1
  0
LEADER
  5
2BE
100
AcDbEntity
  8
0
  6
ByLayer
 62
  256
370
   -1
100
AcDbLeader
  3
Standard
 71
    1
 72
    0
 73
    3
 74
    0
 75
    0
 40
1
 41
10
 76
2
 76
2
 10
3196.5
 20
-1383
 30
0
 10
3207
 20
-1383
 30
0
  0
LEADER
  5
2BF
100
AcDbEntity
  8
0
  6
ByLayer
 62
  256
370
   -1
100
AcDbLeader
  3
Standard
 71
    1
 72
    0
 73
    3
 74
    0
 75
    0
 40
1
 41
10
 76
2
 76
2
 10
3196.5
 20
-1394
 30
0
 10
3207
 20
-1394
 30
0
  0
LEADER
  5
2C0
100
AcDbEntity
  8
0
  6
ByLayer
 62
  256
370
   -1
100
AcDbLeader
  3
Standard
 71
    1
 72
    0
 73
    3
 74
    0
 75
    0
 40
1
 41
10
 76
2
 76
2
 10
3196.5
 20
-1406
 30
0
 10
3207
 20
-1406
 30
0
  0
LEADER
  5
2C1
100
AcDbEntity
  8
0
  6
ByLayer
 62
  256
370
   -1
100
AcDbLeader
  3
Standard
 71
    1
 72
    0
 73
    3
 74
    0
 75
    0
 40
1
 41
10
 76
2
 76
2
 10
3196.5
 20
-1418
 30
0
 10
3207
 20
-1418
 30
0
  0
LEADER
  5
2C2
100
AcDbEntity
  8
0
  6
ByLayer
 62
  256
370
   -1
100
AcDbLeader
  3
Standard
 71
    1
 72
    0
 73
    3
 74
    0
 75
    0
 40
1
 41
10
 76
2
 76
2
 10
3185
 20
-1424
 30
0
 10
3212
 20
-1424
 30
0
  0
LEADER
  5
2C3
100
AcDbEntity
  8
0
  6
ByLayer
 62
  256
370
   -1
100
AcDbLeader
  3
Standard
 71
    1
 72
    0
 73
    3
 74
    0
 75
    0
 40
1
 41
10
 76
2
 76
2
 10
3196.5
 20
-1412
 30
0
 10
3212
 20
-1412
 30
0
  0
LEADER
  5
2C4
100
AcDbEntity
  8
0
  6
ByLayer
 62
  256
370
   -1
100
AcDbLeader
  3
Standard
 71
    1
 72
    0
 73
    3
 74
    0
 75
    0
 40
1
 41
10
 76
2
 76
2
 10
3196.5
 20
-1388.5
 30
0
 10
3212
 20
-1388.5
 30
0
  0
LEADER
  5
2C5
100
AcDbEntity
  8
0
  6
ByLayer
 62
  256
370
   -1
100
AcDbLeader
  3
Standard
 71
    1
 72
    0
 73
    3
 74
    0
 75
    0
 40
1
 41
10
 76
2
 76
2
 10
3196.5
 20
-1400
 30
0
 10
3212
 20
-1400
 30
0
  0
LWPOLYLINE
  5
2C6
100
AcDbEntity
  8
HACHURES
  6
ByLayer
 62
  256
370
   -1
100
AcDbPolyline
 90
    4
 70
    1
 43
0
 10
3177.75
 20
-1427
 10
3184
 20
-1427
 10
3184
 20
-1421
 10
3177.75
 20
-1421
  0
LWPOLYLINE
  5
2C7
100
AcDbEntity
  8
HACHURES
  6
ByLayer
 62
  256
370
   -1
100
AcDbPolyline
 90
    4
 70
    1
 43
0
 10
3179
 20
-1421
 10
3182
 20
-1421
 10
3182
 20
-1391
 10
3179
 20
-1391
  0
LWPOLYLINE
  5
2C8
100
AcDbEntity
  8
HACHURES
  6
ByLayer
 62
  256
370
   -1
100
AcDbPolyline
 90
    4
 70
    1
 43
0
 10
3179
 20
-1386
 10
3182
 20
-1386
 10
3182
 20
-1380
 10
3179
 20
-1380
  0
MTEXT
  5
2C9
100
AcDbEntity
  8
0
  6
ByLayer
 62
  256
370
   -1
100
AcDbMText
 10
3210
 20
-1383
 30
0
 40
6
 41
4
 71
    5
 72
    1
  1
A
  7
standard
210
0
220
0
230
1
 50
0
 73
    2
 44
1
  0
LINE
  5
2CA
100
AcDbEntity
  8
0
  6
ByLayer
 62
  256
370
   -1
100
AcDbLine
 10
3187
 20
-1380
 11
3187
 21
-1421
  0
LINE
  5
2CB
100
AcDbEntity
  8
0
  6
ByLayer
 62
  256
370
   -1
100
AcDbLine
 10
3193
 20
-1380
 11
3193
 21
-1421
  0
LWPOLYLINE
  5
2CC
100
AcDbEntity
  8
HACHURES
  6
ByLayer
 62
  256
370
   -1
100
AcDbPolyline
 90
    4
 70
    1
 43
0
 10
3187
 20
-1380
 10
3193
 20
-1380
 10
3193
 20
-1421
 10
3187
 20
-1421
  0
CIRCLE
  5
2CD
100
AcDbEntity
  8
draft
  6
ByLayer
 62
  256
370
   -1
100
AcDbCircle
 10
2600
 20
-1100
 40
95.5
  0
CIRCLE
  5
2CE
100
AcDbEntity
  8
draft
  6
ByLayer
 62
  256
370
   -1
100
AcDbCircle
 10
2555
 20
-1177.942286340599
 40
3
  0
CIRCLE
  5
2CF
100
AcDbEntity
  8
draft
  6
ByLayer
 62
  256
370
   -1
100
AcDbCircle
 10
2690
 20
-1100
 40
3
  0
CIRCLE
  5
2D0
100
AcDbEntity
  8
draft
  6
ByLayer
 62
  256
370
   -1
100
AcDbCircle
 10
2555
 20
-1022.057713659401
 40
3
  0
CIRCLE
  5
2D1
100
AcDbEntity
  8
draft
  6
ByLayer
 62
  256
370
   -1
100
AcDbCircle
 10
2600
 20
-1100
 40
84.00000000000729
  0
ENDSEC
  0
SECTION
  2
OBJECTS
  0
DICTIONARY
  5
C
330
0
100
AcDbDictionary
281
    1
  3
ACAD_GROUP
350
D
  0
DICTIONARY
  5
D
330
C
100
AcDbDictionary
281
    1
  0
PLOTSETTINGS
  5
2D2
100
AcDbPlotSettings
  6
1x1
 40
0
 41
0
 42
0
 43
0
  0
ENDSEC
  0
EOF
