999
dxfrw 0.6.3
  0
SECTION
  2
HEADER
  9
$ACADVER
  1
AC1021
  9
$DWGCODEPAGE
  3
ANSI_1252
  9
$INSBASE
 10
0
 20
0
 30
0
  9
$EXTMIN
 10
-20
 20
-708.288333879457
 30
0
  9
$EXTMAX
 10
5100
 20
824.2375755657137
 30
0
  9
$LIMMIN
 10
0
 20
0
  9
$LIMMAX
 10
420
 20
297
  9
$ORTHOMODE
 70
    0
  9
$REGENMODE
 70
    1
  9
$FILLMODE
 70
    1
  9
$QTEXTMODE
 70
    0
  9
$MIRRTEXT
 70
    0
  9
$LTSCALE
 40
1
  9
$ATTMODE
 70
    0
  9
$TEXTSIZE
 40
2.5
  9
$TRACEWID
 40
15.68
  9
$TEXTSTYLE
  7
STANDARD
  9
$CLAYER
  8
bean
  9
$CELTYPE
  6
BYLAYER
  9
$CECOLOR
 62
  256
  9
$CELTSCALE
 40
1
  9
$DISPSILH
 70
    0
  9
$DIMSCALE
 40
2.5
  9
$DIMASZ
 40
2.5
  9
$DIMEXO
 40
0.625
  9
$DIMDLI
 40
3.75
  9
$DIMRND
 40
0
  9
$DIMDLE
 40
0
  9
$DIMEXE
 40
1.25
  9
$DIMTP
 40
0
  9
$DIMTM
 40
0
  9
$DIMTXT
 40
2.5
  9
$DIMCEN
 40
2.5
  9
$DIMTSZ
 40
0
  9
$DIMTOL
 70
    0
  9
$DIMLIM
 70
    0
  9
$DIMTIH
 70
    0
  9
$DIMTOH
 70
    0
  9
$DIMSE1
 70
    0
  9
$DIMSE2
 70
    0
  9
$DIMTAD
 70
    1
  9
$DIMZIN
 70
    1
  9
$DIMBLK
  1

  9
$DIMASO
 70
    1
  9
$DIMSHO
 70
    1
  9
$DIMPOST
  1

  9
$DIMAPOST
  1

  9
$DIMALT
 70
    0
  9
$DIMALTD
 70
    3
  9
$DIMALTF
 40
0.03937
  9
$DIMLFAC
 40
1
  9
$DIMTOFL
 70
    1
  9
$DIMTVP
 40
0
  9
$DIMTIX
 70
    0
  9
$DIMSOXD
 70
    0
  9
$DIMSAH
 70
    0
  9
$DIMBLK1
  1

  9
$DIMBLK2
  1

  9
$DIMSTYLE
  2
STANDARD
  9
$DIMCLRD
 70
    0
  9
$DIMCLRE
 70
    0
  9
$DIMCLRT
 70
    0
  9
$DIMTFAC
 40
1
  9
$DIMGAP
 40
0.625
  9
$DIMJUST
 70
    0
  9
$DIMSD1
 70
    0
  9
$DIMSD2
 70
    0
  9
$DIMTOLJ
 70
    0
  9
$DIMTZIN
 70
    8
  9
$DIMALTZ
 70
    0
  9
$DIMALTTZ
 70
    0
  9
$DIMUPT
 70
    0
  9
$DIMDEC
 70
    0
  9
$DIMTDEC
 70
    2
  9
$DIMALTU
 70
    2
  9
$DIMALTTD
 70
    3
  9
$DIMTXSTY
  7
standard
  9
$DIMAUNIT
 70
    0
  9
$DIMADEC
 70
    0
  9
$DIMALTRND
 40
0
  9
$DIMAZIN
 70
    0
  9
$DIMDSEP
 70
    0
  9
$DIMATFIT
 70
    3
  9
$DIMFRAC
 70
    0
  9
$DIMLDRBLK
  1
STANDARD
  9
$DIMLUNIT
 70
    2
  9
$DIMLWD
 70
   -2
  9
$DIMLWE
 70
   -2
  9
$DIMTMOVE
 70
    0
  9
$DIMFXL
 40
1
  9
$DIMFXLON
 70
    0
  9
$DIMJOGANG
 40
0.7854
  9
$DIMTFILL
 70
    0
  9
$DIMTFILLCLR
 70
    0
  9
$DIMARCSYM
 70
    0
  9
$DIMLTYPE
  6

  9
$DIMLTEX1
  6

  9
$DIMLTEX2
  6

  9
$LUNITS
 70
    2
  9
$LUPREC
 70
    4
  9
$SKETCHINC
 40
1
  9
$FILLETRAD
 40
0
  9
$AUNITS
 70
    0
  9
$AUPREC
 70
    2
  9
$MENU
  1
.
  9
$ELEVATION
 40
0
  9
$PELEVATION
 40
0
  9
$THICKNESS
 40
0
  9
$LIMCHECK
 70
    0
  9
$CHAMFERA
 40
0
  9
$CHAMFERB
 40
0
  9
$CHAMFERC
 40
0
  9
$CHAMFERD
 40
0
  9
$SKPOLY
 70
    0
  9
$USRTIMER
 70
    1
  9
$ANGBASE
 50
0
  9
$ANGDIR
 70
    0
  9
$PDMODE
 70
   34
  9
$PDSIZE
 40
0
  9
$PLINEWID
 40
0
  9
$SPLFRAME
 70
    0
  9
$SPLINETYPE
 70
    2
  9
$SPLINESEGS
 70
    8
  9
$HANDSEED
  5
20000
  9
$SURFTAB1
 70
    6
  9
$SURFTAB2
 70
    6
  9
$SURFTYPE
 70
    6
  9
$SURFU
 70
    6
  9
$SURFV
 70
    6
  9
$UCSBASE
  2

  9
$UCSNAME
  2

  9
$UCSORG
 10
0
 20
0
 30
0
  9
$UCSXDIR
 10
1
 20
0
 30
0
  9
$UCSYDIR
 10
0
 20
1
 30
0
  9
$UCSORTHOREF
  2

  9
$UCSORTHOVIEW
 70
    0
  9
$UCSORGTOP
 10
0
 20
0
 30
0
  9
$UCSORGBOTTOM
 10
0
 20
0
 30
0
  9
$UCSORGLEFT
 10
0
 20
0
 30
0
  9
$UCSORGRIGHT
 10
0
 20
0
 30
0
  9
$UCSORGFRONT
 10
0
 20
0
 30
0
  9
$UCSORGBACK
 10
0
 20
0
 30
0
  9
$PUCSBASE
  2

  9
$PUCSNAME
  2

  9
$PUCSORG
 10
0
 20
0
 30
0
  9
$PUCSXDIR
 10
1
 20
0
 30
0
  9
$PUCSYDIR
 10
0
 20
1
 30
0
  9
$PUCSORTHOREF
  2

  9
$PUCSORTHOVIEW
 70
    0
  9
$PUCSORGTOP
 10
0
 20
0
 30
0
  9
$PUCSORGBOTTOM
 10
0
 20
0
 30
0
  9
$PUCSORGLEFT
 10
0
 20
0
 30
0
  9
$PUCSORGRIGHT
 10
0
 20
0
 30
0
  9
$PUCSORGFRONT
 10
0
 20
0
 30
0
  9
$PUCSORGBACK
 10
0
 20
0
 30
0
  9
$USERI1
 70
    0
  9
$USERI2
 70
    0
  9
$USERI3
 70
    0
  9
$USERI4
 70
    0
  9
$USERI5
 70
    0
  9
$USERR1
 40
0
  9
$USERR2
 40
0
  9
$USERR3
 40
0
  9
$USERR4
 40
0
  9
$USERR5
 40
0
  9
$WORLDVIEW
 70
    1
  9
$SHADEDGE
 70
    3
  9
$SHADEDIF
 70
   70
  9
$TILEMODE
 70
    1
  9
$MAXACTVP
 70
   64
  9
$PINSBASE
 10
0
 20
0
 30
0
  9
$PLIMCHECK
 70
    0
  9
$PEXTMIN
 10
0
 20
0
 30
0
  9
$PEXTMAX
 10
0
 20
0
 30
0
  9
$GRIDUNIT
 10
0
 20
0
  9
$PLIMMIN
 10
0
 20
0
  9
$PLIMMAX
 10
297
 20
210
  9
$UNITMODE
 70
    0
  9
$VISRETAIN
 70
    1
  9
$PLINEGEN
 70
    0
  9
$PSLTSCALE
 70
    1
  9
$TREEDEPTH
 70
 3020
  9
$CMLSTYLE
  2
Standard
  9
$CMLJUST
 70
    0
  9
$CMLSCALE
 40
20
  9
$PROXYGRAPHICS
 70
    1
  9
$MEASUREMENT
 70
    1
  9
$CELWEIGHT
370
   -1
  9
$ENDCAPS
280
    0
  9
$JOINSTYLE
280
    0
  9
$LWDISPLAY
290
    0
  9
$INSUNITS
 70
    4
  9
$HYPERLINKBASE
  1

  9
$STYLESHEET
  1

  9
$XEDIT
290
    1
  9
$CEPSNTYPE
380
    0
  9
$PSTYLEMODE
290
    1
  9
$EXTNAMES
290
    1
  9
$PSVPSCALE
 40
0
  9
$OLESTARTUP
290
    0
  9
$SORTENTS
280
  127
  9
$INDEXCTL
280
    0
  9
$HIDETEXT
280
    1
  9
$XCLIPFRAME
290
    0
  9
$HALOGAP
280
    0
  9
$OBSCOLOR
 70
  257
  9
$OBSLTYPE
280
    0
  9
$INTERSECTIONDISPLAY
280
    0
  9
$INTERSECTIONCOLOR
 70
  257
  9
$DIMASSOC
280
    1
  9
$PROJECTNAME
  1

  9
$CAMERADISPLAY
290
    0
  9
$LENSLENGTH
 40
50
  9
$CAMERAHEIGHT
 40
0
  9
$STEPSPERSEC
 40
2
  9
$STEPSIZE
 40
50
  9
$3DDWFPREC
 40
2
  9
$PSOLWIDTH
 40
5
  9
$PSOLHEIGHT
 40
80
  9
$LOFTANG1
 40
1.570796326794897
  9
$LOFTANG2
 40
1.570796326794897
  9
$LOFTMAG1
 40
0
  9
$LOFTMAG2
 40
0
  9
$LOFTPARAM
 70
    7
  9
$LOFTNORMALS
280
    1
  9
$LATITUDE
 40
1
  9
$LONGITUDE
 40
1
  9
$NORTHDIRECTION
 40
0
  9
$TIMEZONE
 70
-8000
  9
$LIGHTGLYPHDISPLAY
280
    1
  9
$TILEMODELIGHTSYNCH
280
    1
  9
$SOLIDHIST
280
    1
  9
$SHOWHIST
280
    1
  9
$DWFFRAME
280
    2
  9
$DGNFRAME
280
    0
  9
$REALWORLDSCALE
290
    1
  9
$INTERFERECOLOR
 62
    1
  9
$CSHADOW
280
    0
  9
$SHADOWPLANELOCATION
 40
0
  0
ENDSEC
  0
SECTION
  2
CLASSES
  0
ENDSEC
  0
SECTION
  2
TABLES
  0
TABLE
  2
VPORT
  5
8
330
0
100
AcDbSymbolTable
 70
    1
  0
VPORT
  5
31
330
2
100
AcDbSymbolTableRecord
100
AcDbViewportTableRecord
  2
*ACTIVE
 70
    0
 10
0
 20
0
 11
1
 21
1
 12
3363.784175143081
 22
751.7444796271178
 13
0
 23
0
 14
10
 24
10
 15
10
 25
10
 16
0
 26
0
 36
1
 17
0
 27
0
 37
0
 40
4189.068875603287
 41
1.881664499349805
 42
50
 43
0
 44
0
 50
0
 51
0
 71
    0
 72
  100
 73
    1
 74
    3
 75
    0
 76
    1
 77
    0
 78
    0
281
    0
 65
    1
110
0
120
0
130
0
111
1
121
0
131
0
112
0
122
1
132
0
 79
    0
146
0
348
10020
 60
    7
 61
    5
292
1
282
    1
141
0
142
0
 63
  250
421
3358443
  0
ENDTAB
  0
TABLE
  2
LTYPE
  5
5
330
0
100
AcDbSymbolTable
 70
    4
  0
LTYPE
  5
14
330
5
100
AcDbSymbolTableRecord
100
AcDbLinetypeTableRecord
  2
ByBlock
 70
    0
  3

 72
   65
 73
    0
 40
0
  0
LTYPE
  5
15
330
5
100
AcDbSymbolTableRecord
100
AcDbLinetypeTableRecord
  2
ByLayer
 70
    0
  3

 72
   65
 73
    0
 40
0
  0
LTYPE
  5
16
330
5
100
AcDbSymbolTableRecord
100
AcDbLinetypeTableRecord
  2
Continuous
 70
    0
  3
Solid line
 72
   65
 73
    0
 40
0
  0
LTYPE
  5
32
330
5
100
AcDbSymbolTableRecord
100
AcDbLinetypeTableRecord
  2
DOT
 70
    0
  3
Dot . . . . . . . . . . . . . . . . . . . . . .
 72
   65
 73
    2
 40
6.35
 49
0
 74
    0
 49
-6.35
 74
    0
  0
LTYPE
  5
33
330
5
100
AcDbSymbolTableRecord
100
AcDbLinetypeTableRecord
  2
DOTTINY
 70
    0
  3
Dot (.15x) .....................................
 72
   65
 73
    2
 40
0.9525
 49
0
 74
    0
 49
-0.9525
 74
    0
  0
LTYPE
  5
34
330
5
100
AcDbSymbolTableRecord
100
AcDbLinetypeTableRecord
  2
DOT2
 70
    0
  3
Dot (.5x) .....................................
 72
   65
 73
    2
 40
3.175
 49
0
 74
    0
 49
-3.175
 74
    0
  0
LTYPE
  5
35
330
5
100
AcDbSymbolTableRecord
100
AcDbLinetypeTableRecord
  2
DOTX2
 70
    0
  3
Dot (2x) .  .  .  .  .  .  .  .  .  .  .  .  .
 72
   65
 73
    2
 40
12.7
 49
0
 74
    0
 49
-12.7
 74
    0
  0
LTYPE
  5
36
330
5
100
AcDbSymbolTableRecord
100
AcDbLinetypeTableRecord
  2
DASHED
 70
    0
  3
Dashed _ _ _ _ _ _ _ _ _ _ _ _ _ _ _ _ _
 72
   65
 73
    2
 40
19.05
 49
12.7
 74
    0
 49
-6.35
 74
    0
  0
LTYPE
  5
37
330
5
100
AcDbSymbolTableRecord
100
AcDbLinetypeTableRecord
  2
DASHEDTINY
 70
    0
  3
Dashed (.15x) _ _ _ _ _ _ _ _ _ _ _ _ _ _ _ _ _
 72
   65
 73
    2
 40
2.8575
 49
1.905
 74
    0
 49
-0.9525
 74
    0
  0
LTYPE
  5
38
330
5
100
AcDbSymbolTableRecord
100
AcDbLinetypeTableRecord
  2
DASHED2
 70
    0
  3
Dashed (.5x) _ _ _ _ _ _ _ _ _ _ _ _ _ _ _ _ _
 72
   65
 73
    2
 40
9.524999999999999
 49
6.35
 74
    0
 49
-3.175
 74
    0
  0
LTYPE
  5
39
330
5
100
AcDbSymbolTableRecord
100
AcDbLinetypeTableRecord
  2
DASHEDX2
 70
    0
  3
Dashed (2x) ____  ____  ____  ____  ____  ___
 72
   65
 73
    2
 40
38.09999999999999
 49
25.4
 74
    0
 49
-12.7
 74
    0
  0
LTYPE
  5
3A
330
5
100
AcDbSymbolTableRecord
100
AcDbLinetypeTableRecord
  2
DASHDOT
 70
    0
  3
Dash dot __ . __ . __ . __ . __ . __ . __ . __
 72
   65
 73
    4
 40
25.4
 49
12.7
 74
    0
 49
-6.35
 74
    0
 49
0
 74
    0
 49
-6.35
 74
    0
  0
LTYPE
  5
3B
330
5
100
AcDbSymbolTableRecord
100
AcDbLinetypeTableRecord
  2
DASHDOTTINY
 70
    0
  3
Dash dot (.15x) _._._._._._._._._._._._._._._.
 72
   65
 73
    4
 40
3.81
 49
1.905
 74
    0
 49
-0.9525
 74
    0
 49
0
 74
    0
 49
-0.9525
 74
    0
  0
LTYPE
  5
3C
330
5
100
AcDbSymbolTableRecord
100
AcDbLinetypeTableRecord
  2
DASHDOT2
 70
    0
  3
Dash dot (.5x) _._._._._._._._._._._._._._._.
 72
   65
 73
    4
 40
12.7
 49
6.35
 74
    0
 49
-3.175
 74
    0
 49
0
 74
    0
 49
-3.175
 74
    0
  0
LTYPE
  5
3D
330
5
100
AcDbSymbolTableRecord
100
AcDbLinetypeTableRecord
  2
DASHDOTX2
 70
    0
  3
Dash dot (2x) ____  .  ____  .  ____  .  ___
 72
   65
 73
    4
 40
50.8
 49
25.4
 74
    0
 49
-12.7
 74
    0
 49
0
 74
    0
 49
-12.7
 74
    0
  0
LTYPE
  5
3E
330
5
100
AcDbSymbolTableRecord
100
AcDbLinetypeTableRecord
  2
DIVIDE
 70
    0
  3
Divide ____ . . ____ . . ____ . . ____ . . ____
 72
   65
 73
    6
 40
31.75
 49
12.7
 74
    0
 49
-6.35
 74
    0
 49
0
 74
    0
 49
-6.35
 74
    0
 49
0
 74
    0
 49
-6.35
 74
    0
  0
LTYPE
  5
3F
330
5
100
AcDbSymbolTableRecord
100
AcDbLinetypeTableRecord
  2
DIVIDETINY
 70
    0
  3
Divide (.15x) __..__..__..__..__..__..__..__.._
 72
   65
 73
    6
 40
4.7625
 49
1.905
 74
    0
 49
-0.9525
 74
    0
 49
0
 74
    0
 49
-0.9525
 74
    0
 49
0
 74
    0
 49
-0.9525
 74
    0
  0
LTYPE
  5
40
330
5
100
AcDbSymbolTableRecord
100
AcDbLinetypeTableRecord
  2
DIVIDE2
 70
    0
  3
Divide (.5x) __..__..__..__..__..__..__..__.._
 72
   65
 73
    6
 40
15.875
 49
6.35
 74
    0
 49
-3.175
 74
    0
 49
0
 74
    0
 49
-3.175
 74
    0
 49
0
 74
    0
 49
-3.175
 74
    0
  0
LTYPE
  5
41
330
5
100
AcDbSymbolTableRecord
100
AcDbLinetypeTableRecord
  2
DIVIDEX2
 70
    0
  3
Divide (2x) ________  .  .  ________  .  .  _
 72
   65
 73
    6
 40
63.5
 49
25.4
 74
    0
 49
-12.7
 74
    0
 49
0
 74
    0
 49
-12.7
 74
    0
 49
0
 74
    0
 49
-12.7
 74
    0
  0
LTYPE
  5
42
330
5
100
AcDbSymbolTableRecord
100
AcDbLinetypeTableRecord
  2
BORDER
 70
    0
  3
Border __ __ . __ __ . __ __ . __ __ . __ __ .
 72
   65
 73
    6
 40
44.45
 49
12.7
 74
    0
 49
-6.35
 74
    0
 49
12.7
 74
    0
 49
-6.35
 74
    0
 49
0
 74
    0
 49
-6.35
 74
    0
  0
LTYPE
  5
43
330
5
100
AcDbSymbolTableRecord
100
AcDbLinetypeTableRecord
  2
BORDERTINY
 70
    0
  3
Border (.15x) __.__.__.__.__.__.__.__.__.__.__.
 72
   65
 73
    6
 40
6.6675
 49
1.905
 74
    0
 49
-0.9525
 74
    0
 49
1.905
 74
    0
 49
-0.9525
 74
    0
 49
0
 74
    0
 49
-0.9525
 74
    0
  0
LTYPE
  5
44
330
5
100
AcDbSymbolTableRecord
100
AcDbLinetypeTableRecord
  2
BORDER2
 70
    0
  3
Border (.5x) __.__.__.__.__.__.__.__.__.__.__.
 72
   65
 73
    6
 40
22.225
 49
6.35
 74
    0
 49
-3.175
 74
    0
 49
6.35
 74
    0
 49
-3.175
 74
    0
 49
0
 74
    0
 49
-3.175
 74
    0
  0
LTYPE
  5
45
330
5
100
AcDbSymbolTableRecord
100
AcDbLinetypeTableRecord
  2
BORDERX2
 70
    0
  3
Border (2x) ____  ____  .  ____  ____  .  ___
 72
   65
 73
    6
 40
88.89999999999999
 49
25.4
 74
    0
 49
-12.7
 74
    0
 49
25.4
 74
    0
 49
-12.7
 74
    0
 49
0
 74
    0
 49
-12.7
 74
    0
  0
LTYPE
  5
46
330
5
100
AcDbSymbolTableRecord
100
AcDbLinetypeTableRecord
  2
CENTER
 70
    0
  3
Center ____ _ ____ _ ____ _ ____ _ ____ _ ____
 72
   65
 73
    4
 40
50.8
 49
31.75
 74
    0
 49
-6.35
 74
    0
 49
6.35
 74
    0
 49
-6.35
 74
    0
  0
LTYPE
  5
47
330
5
100
AcDbSymbolTableRecord
100
AcDbLinetypeTableRecord
  2
CENTERTINY
 70
    0
  3
Center (.15x) ___ _ ___ _ ___ _ ___ _ ___ _ ___
 72
   65
 73
    4
 40
7.619999999999999
 49
4.7625
 74
    0
 49
-0.9525
 74
    0
 49
0.9525
 74
    0
 49
-0.9525
 74
    0
  0
LTYPE
  5
48
330
5
100
AcDbSymbolTableRecord
100
AcDbLinetypeTableRecord
  2
CENTER2
 70
    0
  3
Center (.5x) ___ _ ___ _ ___ _ ___ _ ___ _ ___
 72
   65
 73
    4
 40
28.575
 49
19.05
 74
    0
 49
-3.175
 74
    0
 49
3.175
 74
    0
 49
-3.175
 74
    0
  0
LTYPE
  5
49
330
5
100
AcDbSymbolTableRecord
100
AcDbLinetypeTableRecord
  2
CENTERX2
 70
    0
  3
Center (2x) ________  __  ________  __  _____
 72
   65
 73
    4
 40
101.6
 49
63.5
 74
    0
 49
-12.7
 74
    0
 49
12.7
 74
    0
 49
-12.7
 74
    0
  0
ENDTAB
  0
TABLE
  2
LAYER
  5
2
330
0
100
AcDbSymbolTable
 70
    1
  0
LAYER
  5
10
330
2
100
AcDbSymbolTableRecord
100
AcDbLayerTableRecord
  2
0
 70
    0
 62
    6
  6
CONTINUOUS
370
    0
390
F
1001
LibreCad
1070
    1
  0
LAYER
  5
4A
330
2
100
AcDbSymbolTableRecord
100
AcDbLayerTableRecord
  2
bean
 70
    0
 62
    1
  6
CONTINUOUS
370
    0
390
F
  0
LAYER
  5
4B
330
2
100
AcDbSymbolTableRecord
100
AcDbLayerTableRecord
  2
miroir
 70
    0
 62
    7
  6
CONTINUOUS
370
    0
390
F
  0
LAYER
  5
4C
330
2
100
AcDbSymbolTableRecord
100
AcDbLayerTableRecord
  2
vitre
 70
    0
 62
    7
  6
CONTINUOUS
370
    0
390
F
  0
ENDTAB
  0
TABLE
  2
STYLE
  5
3
330
0
100
AcDbSymbolTable
 70
    3
  0
STYLE
  5
4D
330
2
100
AcDbSymbolTableRecord
100
AcDbTextStyleTableRecord
  2
standard
 70
    0
 40
0
 41
1
 50
0
 71
    0
 42
1
  3
standard
  4

  0
ENDTAB
  0
TABLE
  2
VIEW
  5
6
330
0
100
AcDbSymbolTable
 70
    0
  0
ENDTAB
  0
TABLE
  2
UCS
  5
7
330
0
100
AcDbSymbolTable
 70
    0
  0
ENDTAB
  0
TABLE
  2
APPID
  5
9
330
0
100
AcDbSymbolTable
 70
    1
  0
APPID
  5
12
330
9
100
AcDbSymbolTableRecord
100
AcDbRegAppTableRecord
  2
ACAD
 70
    0
  0
APPID
  5
4E
330
9
100
AcDbSymbolTableRecord
100
AcDbRegAppTableRecord
  2
LibreCad
 70
    0
  0
ENDTAB
  0
TABLE
  2
DIMSTYLE
  5
A
330
0
100
AcDbSymbolTable
 70
    1
100
AcDbDimStyleTable
 71
    1
  0
DIMSTYLE
105
4F
330
A
100
AcDbSymbolTableRecord
100
AcDbDimStyleTableRecord
  2
Standard
 70
    0
 40
1
 41
50
 42
0.625
 43
0.38
 44
1.25
 45
0
 46
0
 47
0
 48
0
 49
1
140
50
141
0.09
142
0
143
25.4
144
1
145
0
146
1
147
0.625
148
0
 71
    0
 72
    0
 73
    0
 74
    1
 75
    0
 76
    0
 77
    0
 78
    1
 79
    0
170
    0
171
    2
172
    0
173
    0
174
    0
175
    0
176
    0
177
    0
178
    0
179
    0
271
    0
272
    4
273
    2
274
    2
275
    0
276
    0
277
    2
278
    0
279
    0
280
    0
281
    0
282
    0
283
    1
284
    0
285
    0
286
    0
288
    0
289
    3
340
standard
341

371
   -2
372
   -2
  0
ENDTAB
  0
TABLE
  2
BLOCK_RECORD
  5
1
330
0
100
AcDbSymbolTable
 70
    2
  0
BLOCK_RECORD
  5
1F
330
1
100
AcDbSymbolTableRecord
100
AcDbBlockTableRecord
  2
*Model_Space
 70
    0
280
    1
281
    0
  0
BLOCK_RECORD
  5
1E
330
1
100
AcDbSymbolTableRecord
100
AcDbBlockTableRecord
  2
*Paper_Space
 70
    0
280
    1
281
    0
  0
BLOCK_RECORD
  5
50
330
1
100
AcDbSymbolTableRecord
100
AcDbBlockTableRecord
  2
*D9
 70
    0
280
    1
281
    0
  0
BLOCK_RECORD
  5
53
330
1
100
AcDbSymbolTableRecord
100
AcDbBlockTableRecord
  2
*D8
 70
    0
280
    1
281
    0
  0
BLOCK_RECORD
  5
56
330
1
100
AcDbSymbolTableRecord
100
AcDbBlockTableRecord
  2
*D7
 70
    0
280
    1
281
    0
  0
BLOCK_RECORD
  5
59
330
1
100
AcDbSymbolTableRecord
100
AcDbBlockTableRecord
  2
*D6
 70
    0
280
    1
281
    0
  0
BLOCK_RECORD
  5
5C
330
1
100
AcDbSymbolTableRecord
100
AcDbBlockTableRecord
  2
*D2
 70
    0
280
    1
281
    0
  0
BLOCK_RECORD
  5
5F
330
1
100
AcDbSymbolTableRecord
100
AcDbBlockTableRecord
  2
*D4
 70
    0
280
    1
281
    0
  0
BLOCK_RECORD
  5
62
330
1
100
AcDbSymbolTableRecord
100
AcDbBlockTableRecord
  2
*D10
 70
    0
280
    1
281
    0
  0
BLOCK_RECORD
  5
65
330
1
100
AcDbSymbolTableRecord
100
AcDbBlockTableRecord
  2
*D3
 70
    0
280
    1
281
    0
  0
BLOCK_RECORD
  5
68
330
1
100
AcDbSymbolTableRecord
100
AcDbBlockTableRecord
  2
*D5
 70
    0
280
    1
281
    0
  0
BLOCK_RECORD
  5
6B
330
1
100
AcDbSymbolTableRecord
100
AcDbBlockTableRecord
  2
*D1
 70
    0
280
    1
281
    0
  0
ENDTAB
  0
ENDSEC
  0
SECTION
  2
BLOCKS
  0
BLOCK
  5
20
330
1F
100
AcDbEntity
  8
0
100
AcDbBlockBegin
  2
*Model_Space
 70
    0
 10
0
 20
0
 30
0
  3
*Model_Space
  1

  0
ENDBLK
  5
21
330
1F
100
AcDbEntity
  8
0
100
AcDbBlockEnd
  0
BLOCK
  5
1C
330
1B
100
AcDbEntity
  8
0
100
AcDbBlockBegin
  2
*Paper_Space
 70
    0
 10
0
 20
0
 30
0
  3
*Paper_Space
  1

  0
ENDBLK
  5
1D
330
1F
100
AcDbEntity
  8
0
100
AcDbBlockEnd
  0
BLOCK
  5
51
330
50
100
AcDbEntity
  8
0
100
AcDbBlockBegin
  2
*D9
 70
    1
 10
0
 20
0
  3
*D9
  1

  0
ARC
  5
6E
100
AcDbEntity
  8
bean
  6
ByBlock
 62
    0
370
   -2
100
AcDbCircle
 10
3300
 20
-0
 40
510.3945113361057
100
AcDbArc
 50
336.5
 51
23.49999999999999
  0
SOLID
  5
6F
100
AcDbEntity
  8
bean
  6
ByBlock
 62
    0
370
   -2
100
AcDbTrace
 10
3768.062428531648
 20
-203.5193361798284
 30
0
 11
3777.942357796486
 21
-153.8030997550887
 31
0
 12
3793.519459778718
 22
-159.6871935604615
 32
0
 13
3793.519459778718
 23
-159.6871935604615
 33
0
  0
SOLID
  5
70
100
AcDbEntity
  8
bean
  6
ByBlock
 62
    0
370
   -2
100
AcDbTrace
 10
3768.062428531648
 20
203.5193361798281
 30
0
 11
3793.519459778718
 21
159.6871935604612
 31
0
 12
3777.942357796486
 22
153.8030997550884
 32
0
 13
3777.942357796486
 23
153.8030997550884
 33
0
  0
MTEXT
  5
71
100
AcDbEntity
  8
bean
  6
CONTINUOUS
 62
    0
370
   -2
100
AcDbMText
 10
3809.769511336106
 20
-1.249340604970812e-13
 30
0
 40
50
 41
99.99999999999999
 71
    8
 72
    1
  1
47%%D
  7
standard
210
0
220
0
230
1
 50
90
 73
    2
 44
1
  0
ENDBLK
  5
52
330
50
100
AcDbEntity
  8
0
100
AcDbBlockEnd
  0
BLOCK
  5
54
330
53
100
AcDbEntity
  8
0
100
AcDbBlockBegin
  2
*D8
 70
    1
 10
0
 20
0
  3
*D8
  1

  0
LINE
  5
72
100
AcDbEntity
  8
miroir
  6
ByBlock
 62
    0
370
   -2
100
AcDbLine
 10
2125
 20
-699.9626407240002
 11
3103
 21
-699.9626407240002
  0
MTEXT
  5
73
100
AcDbEntity
  8
miroir
  6
CONTINUOUS
 62
    0
370
   -2
100
AcDbMText
 10
2614
 20
-674.3376407240002
 30
0
 40
50
 41
100.0000000000031
 71
    5
 72
    1
  1
978
  7
standard
210
0
220
0
230
1
 50
0
 73
    2
 44
1
  0
SOLID
  5
74
100
AcDbEntity
  8
miroir
  6
ByBlock
 62
    0
370
   -2
100
AcDbTrace
 10
2125
 20
-699.9626407240002
 30
0
 11
2175
 21
-691.6369475685433
 31
0
 12
2175
 22
-708.288333879457
 32
0
 13
2175
 23
-708.288333879457
 33
0
  0
SOLID
  5
75
100
AcDbEntity
  8
miroir
  6
ByBlock
 62
    0
370
   -2
100
AcDbTrace
 10
3103
 20
-699.9626407240002
 30
0
 11
3053
 21
-708.288333879457
 31
0
 12
3053
 22
-691.6369475685433
 32
0
 13
3053
 23
-691.6369475685433
 33
0
  0
LINE
  5
76
100
AcDbEntity
  8
miroir
  6
ByBlock
 62
    0
370
   -2
100
AcDbLine
 10
2125
 20
-357.5593065693429
 11
2125
 21
-701.2126407240002
  0
LINE
  5
77
100
AcDbEntity
  8
miroir
  6
ByBlock
 62
    0
370
   -2
100
AcDbLine
 10
3103
 20
-357.5593065693429
 11
3103
 21
-701.2126407240002
  0
ENDBLK
  5
55
330
53
100
AcDbEntity
  8
0
100
AcDbBlockEnd
  0
BLOCK
  5
57
330
56
100
AcDbEntity
  8
0
100
AcDbBlockBegin
  2
*D7
 70
    1
 10
0
 20
0
  3
*D7
  1

  0
LINE
  5
78
100
AcDbEntity
  8
miroir
  6
ByBlock
 62
    0
370
   -2
100
AcDbLine
 10
2125
 20
-596.5884245028574
 11
2838.868613138686
 21
-596.5884245028574
  0
MTEXT
  5
79
100
AcDbEntity
  8
miroir
  6
CONTINUOUS
 62
    0
370
   -2
100
AcDbMText
 10
2481.934306569343
 20
-570.9634245028574
 30
0
 40
50
 41
94.44444444444444
 71
    5
 72
    1
  1
714
  7
standard
210
0
220
0
230
1
 50
0
 73
    2
 44
1
  0
SOLID
  5
7A
100
AcDbEntity
  8
miroir
  6
ByBlock
 62
    0
370
   -2
100
AcDbTrace
 10
2125
 20
-596.5884245028574
 30
0
 11
2175
 21
-588.2627313474006
 31
0
 12
2175
 22
-604.9141176583142
 32
0
 13
2175
 23
-604.9141176583142
 33
0
  0
SOLID
  5
7B
100
AcDbEntity
  8
miroir
  6
ByBlock
 62
    0
370
   -2
100
AcDbTrace
 10
2838.868613138686
 20
-596.5884245028574
 30
0
 11
2788.868613138686
 21
-604.9141176583142
 31
0
 12
2788.868613138686
 22
-588.2627313474005
 32
0
 13
2788.868613138686
 23
-588.2627313474005
 33
0
  0
LINE
  5
7C
100
AcDbEntity
  8
miroir
  6
ByBlock
 62
    0
370
   -2
100
AcDbLine
 10
2125
 20
-489.6250000000001
 11
2125
 21
-597.8384245028574
  0
LINE
  5
7D
100
AcDbEntity
  8
miroir
  6
ByBlock
 62
    0
370
   -2
100
AcDbLine
 10
2838.868613138686
 20
-489.6250000000002
 11
2838.868613138686
 21
-597.8384245028574
  0
ENDBLK
  5
58
330
56
100
AcDbEntity
  8
0
100
AcDbBlockEnd
  0
BLOCK
  5
5A
330
59
100
AcDbEntity
  8
0
100
AcDbBlockBegin
  2
*D6
 70
    1
 10
0
 20
0
  3
*D6
  1

  0
LINE
  5
7E
100
AcDbEntity
  8
miroir
  6
ByBlock
 62
    0
370
   -2
100
AcDbLine
 10
1000
 20
-558.7685893000003
 11
2125
 21
-558.7685893000003
  0
MTEXT
  5
7F
100
AcDbEntity
  8
miroir
  6
CONTINUOUS
 62
    0
370
   -2
100
AcDbMText
 10
1562.5
 20
-533.1435893000003
 30
0
 40
50
 41
116.6666666666698
 71
    5
 72
    1
  1
1125
  7
standard
210
0
220
0
230
1
 50
0
 73
    2
 44
1
  0
SOLID
  5
80
100
AcDbEntity
  8
miroir
  6
ByBlock
 62
    0
370
   -2
100
AcDbTrace
 10
1000
 20
-558.7685893000003
 30
0
 11
1050
 21
-550.4428961445435
 31
0
 12
1050
 22
-567.0942824554571
 32
0
 13
1050
 23
-567.0942824554571
 33
0
  0
SOLID
  5
81
100
AcDbEntity
  8
miroir
  6
ByBlock
 62
    0
370
   -2
100
AcDbTrace
 10
2125
 20
-558.7685893000003
 30
0
 11
2075
 21
-567.0942824554571
 31
0
 12
2075
 22
-550.4428961445434
 32
0
 13
2075
 23
-550.4428961445434
 33
0
  0
LINE
  5
82
100
AcDbEntity
  8
miroir
  6
ByBlock
 62
    0
370
   -2
100
AcDbLine
 10
1000
 20
-0.625
 11
1000
 21
-560.0185893000003
  0
LINE
  5
83
100
AcDbEntity
  8
miroir
  6
ByBlock
 62
    0
370
   -2
100
AcDbLine
 10
2125
 20
-489.625
 11
2125
 21
-560.0185893000003
  0
ENDBLK
  5
5B
330
59
100
AcDbEntity
  8
0
100
AcDbBlockEnd
  0
BLOCK
  5
5D
330
5C
100
AcDbEntity
  8
0
100
AcDbBlockBegin
  2
*D2
 70
    1
 10
0
 20
0
  3
*D2
  1

  0
LINE
  5
84
100
AcDbEntity
  8
vitre
  6
ByBlock
 62
    0
370
   -2
100
AcDbLine
 10
93.06569343065712
 20
773.6125755657137
 11
806.9343065693429
 21
773.6125755657137
  0
MTEXT
  5
85
100
AcDbEntity
  8
vitre
  6
CONTINUOUS
 62
    0
370
   -2
100
AcDbMText
 10
450
 20
799.2375755657137
 30
0
 40
50
 41
94.44444444444444
 71
    5
 72
    1
  1
714
  7
standard
210
0
220
0
230
1
 50
0
 73
    2
 44
1
  0
SOLID
  5
86
100
AcDbEntity
  8
vitre
  6
ByBlock
 62
    0
370
   -2
100
AcDbTrace
 10
93.06569343065712
 20
773.6125755657137
 30
0
 11
143.0656934306571
 21
781.9382687211705
 31
0
 12
143.0656934306571
 22
765.2868824102568
 32
0
 13
143.0656934306571
 23
765.2868824102568
 33
0
  0
SOLID
  5
87
100
AcDbEntity
  8
vitre
  6
ByBlock
 62
    0
370
   -2
100
AcDbTrace
 10
806.9343065693429
 20
773.6125755657137
 30
0
 11
756.9343065693429
 21
765.2868824102568
 31
0
 12
756.9343065693429
 22
781.9382687211705
 32
0
 13
756.9343065693429
 23
781.9382687211705
 33
0
  0
LINE
  5
88
100
AcDbEntity
  8
vitre
  6
ByBlock
 62
    0
370
   -2
100
AcDbLine
 10
93.06569343065712
 20
682.6759915004454
 11
93.06569343065712
 21
774.8625755657137
  0
LINE
  5
89
100
AcDbEntity
  8
vitre
  6
ByBlock
 62
    0
370
   -2
100
AcDbLine
 10
806.9343065693429
 20
682.6759915004459
 11
806.9343065693429
 21
774.8625755657137
  0
ENDBLK
  5
5E
330
5C
100
AcDbEntity
  8
0
100
AcDbBlockEnd
  0
BLOCK
  5
60
330
5F
100
AcDbEntity
  8
0
100
AcDbBlockBegin
  2
*D4
 70
    1
 10
0
 20
0
  3
*D4
  1

  0
ARC
  5
8A
100
AcDbEntity
  8
bean
  6
ByBlock
 62
    0
370
   -2
100
AcDbCircle
 10
1000
 20
-0
 40
910.9821684363143
100
AcDbArc
 50
336.5070214307598
 51
23.49297856924012
  0
SOLID
  5
8B
100
AcDbEntity
  8
bean
  6
ByBlock
 62
    0
370
   -2
100
AcDbTrace
 10
1835.469884508468
 20
-363.1509097996816
 30
0
 11
1846.412202703858
 21
-313.657649258173
 31
0
 12
1861.859726888675
 22
-319.8739715338263
 32
0
 13
1861.859726888675
 23
-319.8739715338263
 33
0
  0
SOLID
  5
8C
100
AcDbEntity
  8
bean
  6
ByBlock
 62
    0
370
   -2
100
AcDbTrace
 10
1835.469884508468
 20
363.150909799681
 30
0
 11
1861.859726888675
 21
319.8739715338257
 31
0
 12
1846.412202703858
 22
313.6576492581725
 32
0
 13
1846.412202703858
 23
313.6576492581725
 33
0
  0
MTEXT
  5
8D
100
AcDbEntity
  8
bean
  6
CONTINUOUS
 62
    0
370
   -2
100
AcDbMText
 10
1910.357168436314
 20
-2.230497389062228e-13
 30
0
 40
50
 41
99.99999999999999
 71
    8
 72
    1
  1
47%%D
  7
standard
210
0
220
0
230
1
 50
90
 73
    2
 44
1
  0
ENDBLK
  5
61
330
5F
100
AcDbEntity
  8
0
100
AcDbBlockEnd
  0
BLOCK
  5
63
330
62
100
AcDbEntity
  8
0
100
AcDbBlockBegin
  2
*D10
 70
    1
 10
0
 20
0
  3
*D10
  1

  0
ARC
  5
8E
100
AcDbEntity
  8
bean
  6
ByBlock
 62
    0
370
   -2
100
AcDbCircle
 10
3925.735931288071
 20
-0
 40
804.8497516202259
100
AcDbArc
 50
342.9094948407342
 51
17.09050515926583
  0
SOLID
  5
8F
100
AcDbEntity
  8
bean
  6
ByBlock
 62
    0
370
   -2
100
AcDbTrace
 10
4695.044909404947
 20
-236.5307989922382
 30
0
 11
4700.217458404134
 21
-186.1069762159965
 31
0
 12
4716.277848017813
 22
-190.5038559655599
 32
0
 13
4716.277848017813
 23
-190.5038559655599
 33
0
  0
SOLID
  5
90
100
AcDbEntity
  8
bean
  6
ByBlock
 62
    0
370
   -2
100
AcDbTrace
 10
4695.044909404947
 20
236.530798992238
 30
0
 11
4716.277848017813
 21
190.5038559655597
 31
0
 12
4700.217458404134
 22
186.1069762159963
 32
0
 13
4700.217458404134
 23
186.1069762159963
 33
0
  0
MTEXT
  5
91
100
AcDbEntity
  8
bean
  6
CONTINUOUS
 62
    0
370
   -2
100
AcDbMText
 10
4729.960682908297
 20
-1.970547939983037e-13
 30
0
 40
50
 41
100.0000000000031
 71
    8
 72
    1
  1
34%%D
  7
standard
210
0
220
0
230
1
 50
90
 73
    2
 44
1
  0
ENDBLK
  5
64
330
62
100
AcDbEntity
  8
0
100
AcDbBlockEnd
  0
BLOCK
  5
66
330
65
100
AcDbEntity
  8
0
100
AcDbBlockBegin
  2
*D3
 70
    1
 10
0
 20
0
  3
*D3
  1

  0
LINE
  5
92
100
AcDbEntity
  8
vitre
  6
ByBlock
 62
    0
370
   -2
100
AcDbLine
 10
304.6845824253609
 20
-154.6845824253609
 11
406.9420366564892
 21
-256.9420366564893
  0
LINE
  5
93
100
AcDbEntity
  8
vitre
  6
ByBlock
 62
    0
370
   -2
100
AcDbLine
 10
835.0146683152716
 20
375.6455034645497
 11
937.2721225464001
 21
273.3880492334214
  0
LINE
  5
94
100
AcDbEntity
  8
vitre
  6
ByBlock
 62
    0
370
   -2
100
AcDbLine
 10
406.058153180006
 20
-256.0581531800061
 11
936.3882390699168
 21
274.2719327099045
  0
MTEXT
  5
95
100
AcDbEntity
  8
vitre
  6
CONTINUOUS
 62
    0
370
   -2
100
AcDbMText
 10
653.1035848570561
 20
27.2265010328545
 30
0
 40
50
 41
100.0000000000031
 71
    5
 72
    1
  1
750
  7
standard
210
0
220
0
230
1
 50
45
 73
    2
 44
1
  0
SOLID
  5
96
100
AcDbEntity
  8
vitre
  6
ByBlock
 62
    0
370
   -2
100
AcDbTrace
 10
406.058153180006
 20
-256.0581531800061
 30
0
 11
435.5263381510315
 21
-214.8156600323768
 31
0
 12
447.3006463276354
 22
-226.5899682089807
 32
0
 13
447.3006463276354
 23
-226.5899682089807
 33
0
  0
SOLID
  5
97
100
AcDbEntity
  8
vitre
  6
ByBlock
 62
    0
370
   -2
100
AcDbTrace
 10
936.3882390699168
 20
274.2719327099045
 30
0
 11
906.9200540988913
 21
233.0294395622752
 31
0
 12
895.1457459222875
 22
244.8037477388791
 32
0
 13
895.1457459222875
 23
244.8037477388791
 33
0
  0
ENDBLK
  5
67
330
65
100
AcDbEntity
  8
0
100
AcDbBlockEnd
  0
BLOCK
  5
69
330
68
100
AcDbEntity
  8
0
100
AcDbBlockBegin
  2
*D5
 70
    1
 10
0
 20
0
  3
*D5
  1

  0
ARC
  5
98
100
AcDbEntity
  8
bean
  6
ByBlock
 62
    0
370
   -2
100
AcDbCircle
 10
999.9999999999999
 20
-0
 40
794.8646132696709
100
AcDbArc
 50
342.3970716339037
 51
17.60292836609624
  0
SOLID
  5
99
100
AcDbEntity
  8
bean
  6
ByBlock
 62
    0
370
   -2
100
AcDbTrace
 10
1757.645246689654
 20
-240.3818495579827
 30
0
 11
1763.248889953003
 21
-190.0041129206948
 31
0
 12
1779.271084838436
 22
-194.5381990610872
 32
0
 13
1779.271084838436
 23
-194.5381990610872
 33
0
  0
SOLID
  5
9A
100
AcDbEntity
  8
bean
  6
ByBlock
 62
    0
370
   -2
100
AcDbTrace
 10
1757.645246689654
 20
240.3818495579825
 30
0
 11
1779.271084838436
 21
194.5381990610871
 31
0
 12
1763.248889953004
 22
190.0041129206947
 32
0
 13
1763.248889953004
 23
190.0041129206947
 33
0
  0
MTEXT
  5
9B
100
AcDbEntity
  8
bean
  6
CONTINUOUS
 62
    0
370
   -2
100
AcDbMText
 10
1794.239613269671
 20
-1.946091404542936e-13
 30
0
 40
50
 41
94.44444444445065
 71
    8
 72
    1
  1
35%%D
  7
standard
210
0
220
0
230
1
 50
90
 73
    2
 44
1
  0
ENDBLK
  5
6A
330
68
100
AcDbEntity
  8
0
100
AcDbBlockEnd
  0
BLOCK
  5
6C
330
6B
100
AcDbEntity
  8
0
100
AcDbBlockBegin
  2
*D1
 70
    1
 10
0
 20
0
  3
*D1
  1

  0
ARC
  5
9C
100
AcDbEntity
  8
bean
  6
ByBlock
 62
    0
370
   -2
100
AcDbCircle
 10
450
 20
-449.9999999999999
 40
938.0518867076895
100
AcDbArc
 50
72.5
 51
107.5
  0
SOLID
  5
9D
100
AcDbEntity
  8
bean
  6
ByBlock
 62
    0
370
   -2
100
AcDbTrace
 10
732.0776425689276
 20
444.6359850344789
 30
0
 11
681.7169693199208
 21
450.3909617004261
 31
0
 12
686.2991732939453
 22
466.3994617180954
 32
0
 13
686.2991732939453
 23
466.3994617180954
 33
0
  0
SOLID
  5
9E
100
AcDbEntity
  8
bean
  6
ByBlock
 62
    0
370
   -2
100
AcDbTrace
 10
167.9223574310724
 20
444.6359850344789
 30
0
 11
213.7008267060547
 21
466.3994617180954
 31
0
 12
218.2830306800791
 22
450.3909617004261
 32
0
 13
218.2830306800791
 23
450.3909617004261
 33
0
  0
MTEXT
  5
9F
100
AcDbEntity
  8
bean
  6
CONTINUOUS
 62
    0
370
   -2
100
AcDbMText
 10
449.9999999999998
 20
488.6768867076896
 30
0
 40
50
 41
94.44444444445065
 71
    8
 72
    1
  1
35%%D
  7
standard
210
0
220
0
230
1
 50
360
 73
    2
 44
1
  0
ENDBLK
  5
6D
330
6B
100
AcDbEntity
  8
0
100
AcDbBlockEnd
  0
ENDSEC
  0
SECTION
  2
ENTITIES
  0
ELLIPSE
  5
A0
100
AcDbEntity
  8
miroir
  6
ByLayer
 62
  256
370
   -1
100
AcDbEllipse
 10
0
 20
0
 30
0
 11
0
 21
-75
 31
0
 40
0.2666666666666667
 41
0
 42
6.283185307179586
  0
LINE
  5
A1
100
AcDbEntity
  8
miroir
  6
ByLayer
 62
  256
370
   -1
100
AcDbLine
 10
300
 20
-150
 11
830.3300858899107
 21
380.3300858899106
  0
LINE
  5
A2
100
AcDbEntity
  8
bean
  6
ByLayer
 62
  256
370
   -1
100
AcDbLine
 10
0
 20
0
 11
313.629857013362
 21
-136.370142986638
  0
LINE
  5
A3
100
AcDbEntity
  8
miroir
  6
ByLayer
 62
  256
370
   -1
100
AcDbLine
 10
304.2426406871193
 20
-154.2426406871193
 11
834.57272657703
 21
376.0874452027913
  0
LINE
  5
A4
100
AcDbEntity
  8
miroir
  6
ByLayer
 62
  256
370
   -1
100
AcDbLine
 10
830.3300858899107
 20
380.3300858899106
 11
834.57272657703
 21
376.0874452027913
  0
LINE
  5
A5
100
AcDbEntity
  8
miroir
  6
ByLayer
 62
  256
370
   -1
100
AcDbLine
 10
300
 20
-150
 11
304.2426406871193
 21
-154.2426406871193
  0
LINE
  5
A6
100
AcDbEntity
  8
bean
  6
ByLayer
 62
  256
370
   -1
100
AcDbLine
 10
0
 20
-0
 11
784.074642533405
 21
340.925357466595
  0
LINE
  5
A7
100
AcDbEntity
  8
bean
  6
ByLayer
 62
  256
370
   -1
100
AcDbLine
 10
0
 20
0
 11
657.2209785685122
 21
207.2209785685123
  0
LINE
  5
A8
100
AcDbEntity
  8
bean
  6
ByLayer
 62
  256
370
   -1
100
AcDbLine
 10
657.2209785685122
 20
207.2209785685123
 11
806.9343065693429
 21
682.0509915004457
  0
LINE
  5
A9
100
AcDbEntity
  8
bean
  6
ByLayer
 62
  256
370
   -1
100
AcDbLine
 10
93.06569343065713
 20
682.0509915004453
 11
342.1275863741429
 21
-107.8724136258571
  0
LINE
  5
AA
100
AcDbEntity
  8
bean
  6
ByLayer
 62
  256
370
   -1
100
AcDbLine
 10
342.1275863741429
 20
-107.8724136258571
 11
0
 21
0
  0
DIMENSION
  5
AB
100
AcDbEntity
  8
bean
  6
ByLayer
 62
  256
370
   -1
100
AcDbDimension
  2
*D1
 10
93.06569343065713
 20
682.0509915004453
 30
0
 11
0
 21
0
 31
0
 70
   34
 71
    5
  3
Standard
 53
0
210
0
220
0
230
1
100
AcDb2LineAngularDimension
 13
657.2209785685122
 23
207.2209785685123
 33
0
 14
806.9343065693429
 24
682.0509915004457
 34
0
 15
342.1275863741429
 25
-107.8724136258571
 35
0
 16
732.0776425689276
 26
444.6359850344789
 36
0
  0
LINE
  5
AC
100
AcDbEntity
  8
vitre
  6
ByLayer
 62
  256
370
   -1
100
AcDbLine
 10
93.06569343065713
 20
682.0509915004454
 11
806.9343065693429
 21
682.0509915004458
  0
LINE
  5
AD
100
AcDbEntity
  8
vitre
  6
ByLayer
 62
  256
370
   -1
100
AcDbLine
 10
93.06569343065713
 20
676.0509915004454
 11
806.9343065693429
 21
676.0509915004458
  0
LINE
  5
AE
100
AcDbEntity
  8
vitre
  6
ByLayer
 62
  256
370
   -1
100
AcDbLine
 10
93.06569343065712
 20
682.0509915004454
 11
93.06569343065713
 21
676.0509915004454
  0
LINE
  5
AF
100
AcDbEntity
  8
vitre
  6
ByLayer
 62
  256
370
   -1
100
AcDbLine
 10
806.9343065693429
 20
682.0509915004458
 11
806.9343065693429
 21
676.0509915004458
  0
DIMENSION
  5
B0
100
AcDbEntity
  8
vitre
  6
ByLayer
 62
  256
370
   -1
100
AcDbDimension
  2
*D2
 10
806.9343065693429
 20
773.6125755657137
 30
0
 11
450
 21
799.2375755657137
 31
0
 70
   32
 71
    5
  3
Standard
 53
0
210
0
220
0
230
1
100
AcDbAlignedDimension
 13
93.06569343065712
 23
682.0509915004454
 33
0
 14
806.9343065693429
 24
682.0509915004459
 34
0
100
AcDbRotatedDimension
  0
DIMENSION
  5
B1
100
AcDbEntity
  8
vitre
  6
ByLayer
 62
  256
370
   -1
100
AcDbDimension
  2
*D3
 10
936.3882390699168
 20
274.2719327099046
 30
0
 11
653.1035848570561
 21
27.2265010328545
 31
0
 70
   33
 71
    5
  3
Standard
 53
0
210
0
220
0
230
1
100
AcDbAlignedDimension
 13
304.2426406871193
 23
-154.2426406871193
 33
0
 14
834.57272657703
 24
376.0874452027913
 34
0
  0
ELLIPSE
  5
B2
100
AcDbEntity
  8
miroir
  6
ByLayer
 62
  256
370
   -1
100
AcDbEllipse
 10
1000
 20
0
 30
0
 11
0
 21
-75
 31
0
 40
0.2666666666666667
 41
0
 42
6.283185307179586
  0
LWPOLYLINE
  5
B3
100
AcDbEntity
  8
vitre
  6
ByLayer
 62
  256
370
   -1
100
AcDbPolyline
 90
    4
 70
    1
 43
0
 10
2125
 20
489
 10
2125
 20
-489
 10
2838.868613138686
 20
-489.0000000000001
 10
2838.868613138686
 20
488.9999999999998
  0
LWPOLYLINE
  5
B4
100
AcDbEntity
  8
vitre
  6
ByLayer
 62
  256
370
   -1
100
AcDbPolyline
 90
    4
 70
    1
 43
0
 10
2125
 20
-356.9343065693429
 10
3103
 20
-356.9343065693429
 10
3103
 20
356.9343065693429
 10
2125
 20
356.9343065693429
  0
LINE
  5
B5
100
AcDbEntity
  8
bean
  6
ByLayer
 62
  256
370
   -1
100
AcDbLine
 10
1000
 20
0
 11
2125
 21
489
  0
LINE
  5
B6
100
AcDbEntity
  8
bean
  6
ByLayer
 62
  256
370
   -1
100
AcDbLine
 10
2125
 20
356.9343065693429
 11
1000
 21
0
  0
LINE
  5
B7
100
AcDbEntity
  8
bean
  6
ByLayer
 62
  256
370
   -1
100
AcDbLine
 10
1000
 20
0
 11
2125
 21
-356.9343065693429
  0
LINE
  5
B8
100
AcDbEntity
  8
bean
  6
ByLayer
 62
  256
370
   -1
100
AcDbLine
 10
1000
 20
0
 11
2125
 21
-489
  0
DIMENSION
  5
B9
100
AcDbEntity
  8
bean
  6
ByLayer
 62
  256
370
   -1
100
AcDbDimension
  2
*D4
 10
2125
 20
489
 30
0
 11
-2000
 21
-1000
 31
0
 70
   34
 71
    5
  3
Standard
 53
0
210
0
220
0
230
1
100
AcDb2LineAngularDimension
 13
1000
 23
0
 33
0
 14
2125
 24
-489
 34
0
 15
1000
 25
0
 35
0
 16
1904.504658408865
 26
-108.442768894892
 36
0
  0
DIMENSION
  5
BA
100
AcDbEntity
  8
bean
  6
ByLayer
 62
  256
370
   -1
100
AcDbDimension
  2
*D5
 10
2125
 20
356.9343065693429
 30
0
 11
-2000
 21
-1000
 31
0
 70
   34
 71
    5
  3
Standard
 53
0
210
0
220
0
230
1
100
AcDb2LineAngularDimension
 13
1000
 23
0
 33
0
 14
2125
 24
-356.9343065693429
 34
0
 15
1000
 25
0
 35
0
 16
1775.50120053192
 26
-174.3778695875527
 36
0
  0
DIMENSION
  5
BB
100
AcDbEntity
  8
miroir
  6
ByLayer
 62
  256
370
   -1
100
AcDbDimension
  2
*D6
 10
2125
 20
-558.7685893000003
 30
0
 11
1562.5
 21
-533.1435893000003
 31
0
 70
   32
 71
    5
  3
Standard
 53
0
210
0
220
0
230
1
100
AcDbAlignedDimension
 13
1000
 23
0
 33
0
 14
2125
 24
-489
 34
0
100
AcDbRotatedDimension
  0
DIMENSION
  5
BC
100
AcDbEntity
  8
miroir
  6
ByLayer
 62
  256
370
   -1
100
AcDbDimension
  2
*D7
 10
2838.868613138686
 20
-596.5884245028574
 30
0
 11
2481.934306569343
 21
-570.9634245028574
 31
0
 70
   32
 71
    5
  3
Standard
 53
0
210
0
220
0
230
1
100
AcDbAlignedDimension
 13
2125
 23
-489.0000000000001
 33
0
 14
2838.868613138686
 24
-489.0000000000002
 34
0
100
AcDbRotatedDimension
  0
DIMENSION
  5
BD
100
AcDbEntity
  8
miroir
  6
ByLayer
 62
  256
370
   -1
100
AcDbDimension
  2
*D8
 10
3103
 20
-699.9626407240002
 30
0
 11
2614
 21
-674.3376407240002
 31
0
 70
   32
 71
    5
  3
Standard
 53
0
210
0
220
0
230
1
100
AcDbAlignedDimension
 13
2125
 23
-356.9343065693429
 33
0
 14
3103
 24
-356.9343065693429
 34
0
100
AcDbRotatedDimension
  0
ELLIPSE
  5
BE
100
AcDbEntity
  8
miroir
  6
ByLayer
 62
  256
370
   -1
100
AcDbEllipse
 10
3300
 20
0
 30
0
 11
0
 21
-75
 31
0
 40
0.2666666666666667
 41
0
 42
6.283185307179586
  0
LINE
  5
BF
100
AcDbEntity
  8
bean
  6
ByLayer
 62
  256
370
   -1
100
AcDbLine
 10
3300
 20
0
 11
3613.629857013362
 21
-136.3701429866383
  0
LINE
  5
C0
100
AcDbEntity
  8
bean
  6
ByLayer
 62
  256
370
   -1
100
AcDbLine
 10
3300
 20
0
 11
4096.19577652447
 21
346.1957765244692
  0
LINE
  5
C1
100
AcDbEntity
  8
bean
  6
ByLayer
 62
  256
370
   -1
100
AcDbLine
 10
4130.330085889911
 20
361.0377966473079
 11
3300
 21
0
  0
LINE
  5
C2
100
AcDbEntity
  8
bean
  6
ByLayer
 62
  256
370
   -1
100
AcDbLine
 10
3300
 20
0
 11
4130.330085889911
 21
-361.0377966473084
  0
LWPOLYLINE
  5
C3
100
AcDbEntity
  8
miroir
  6
ByLayer
 62
  256
370
   -1
100
AcDbPolyline
 90
    4
 70
    1
 43
0
 10
3600
 20
375
 10
4130.330085889911
 20
375
 10
4130.330085889911
 20
-375.0000000000009
 10
3600
 20
-375.0000000000009
  0
LWPOLYLINE
  5
C4
100
AcDbEntity
  8
miroir
  6
ByLayer
 62
  256
370
   -1
100
AcDbPolyline
 90
    4
 70
    1
 43
0
 10
4350
 20
-375
 10
5100
 20
-375
 10
5100
 20
375
 10
4350
 20
375
  0
LINE
  5
C5
100
AcDbEntity
  8
bean
  6
ByLayer
 62
  256
370
   -1
100
AcDbLine
 10
5100
 20
361.0377966473079
 11
4350
 21
130.4437124882802
  0
LINE
  5
C6
100
AcDbEntity
  8
bean
  6
ByLayer
 62
  256
370
   -1
100
AcDbLine
 10
4350
 20
-130.4437124882802
 11
5100
 21
-361.0377966473079
  0
DIMENSION
  5
C7
100
AcDbEntity
  8
bean
  6
ByLayer
 62
  256
370
   -1
100
AcDbDimension
  2
*D9
 10
4130.330085889911
 20
361.0377966473079
 30
0
 11
3300
 21
600
 31
0
 70
   34
 71
    5
  3
Standard
 53
0
210
0
220
0
230
1
100
AcDb2LineAngularDimension
 13
3300
 23
0
 33
0
 14
4130.330085889911
 24
-361.0377966473084
 34
0
 15
3300
 25
0
 35
0
 16
3806.78579171827
 26
-60.58645487655122
 36
0
  0
DIMENSION
  5
C8
100
AcDbEntity
  8
bean
  6
ByLayer
 62
  256
370
   -1
100
AcDbDimension
  2
*D10
 10
5100
 20
361.0377966473079
 30
0
 11
3300
 21
600
 31
0
 70
   34
 71
    5
  3
Standard
 53
0
210
0
220
0
230
1
100
AcDb2LineAngularDimension
 13
4350
 23
-130.4437124882802
 33
0
 14
5100
 24
-361.0377966473079
 34
0
 15
4350
 25
130.4437124882802
 35
0
 16
4724.547125974242
 26
-98.40629007940697
 36
0
  0
MTEXT
  5
C9
100
AcDbEntity
  8
0
  6
ByLayer
 62
  256
370
   -1
100
AcDbMText
 10
980
 20
90
 30
0
 40
20
 41
53.33333333333458
 71
    4
 72
    1
  1
f750
  7
standard
210
0
220
0
230
1
 50
0
 73
    2
 44
1
  0
LINE
  5
CA
100
AcDbEntity
  8
bean
  6
ByLayer
 62
  256
370
   -1
100
AcDbLine
 10
2125
 20
-489.0000000000001
 11
1000
 21
-74.99999999981242
  0
LINE
  5
CB
100
AcDbEntity
  8
bean
  6
ByLayer
 62
  256
370
   -1
100
AcDbLine
 10
2125
 20
489
 11
1000
 21
72.2841614740048
  0
LWPOLYLINE
  5
CC
100
AcDbEntity
  8
vitre
  6
ByLayer
 62
  256
370
   -1
100
AcDbPolyline
 90
    4
 70
    1
 43
0
 10
3393.065693430657
 20
489.0000000000002
 10
3393.065693430657
 20
-488.9999999999998
 10
4106.934306569343
 20
-489
 10
4106.934306569343
 20
489
  0
ENDSEC
  0
SECTION
  2
OBJECTS
  0
DICTIONARY
  5
C
330
0
100
AcDbDictionary
281
    1
  3
ACAD_GROUP
350
D
  0
DICTIONARY
  5
D
330
C
100
AcDbDictionary
281
    1
  0
PLOTSETTINGS
  5
CD
100
AcDbPlotSettings
  6
1x1
 40
0
 41
0
 42
0
 43
0
  0
ENDSEC
  0
EOF
