999
dxfrw 0.6.3
  0
SECTION
  2
HEADER
  9
$ACADVER
  1
AC1021
  9
$DWGCODEPAGE
  3
ANSI_1252
  9
$INSBASE
 10
0
 20
0
 30
0
  9
$EXTMIN
 10
-120
 20
-240
 30
0
  9
$EXTMAX
 10
230
 20
160
 30
0
  9
$LIMMIN
 10
0
 20
0
  9
$LIMMAX
 10
420
 20
297
  9
$ORTHOMODE
 70
    0
  9
$REGENMODE
 70
    1
  9
$FILLMODE
 70
    1
  9
$QTEXTMODE
 70
    0
  9
$MIRRTEXT
 70
    0
  9
$LTSCALE
 40
1
  9
$ATTMODE
 70
    0
  9
$TEXTSIZE
 40
2.5
  9
$TRACEWID
 40
15.68
  9
$TEXTSTYLE
  7
STANDARD
  9
$CLAYER
  8
piece
  9
$CELTYPE
  6
BYLAYER
  9
$CECOLOR
 62
  256
  9
$CELTSCALE
 40
1
  9
$DISPSILH
 70
    0
  9
$DIMSCALE
 40
1
  9
$DIMASZ
 40
15
  9
$DIMEXO
 40
0.625
  9
$DIMDLI
 40
3.75
  9
$DIMRND
 40
0
  9
$DIMDLE
 40
0
  9
$DIMEXE
 40
1.25
  9
$DIMTP
 40
0
  9
$DIMTM
 40
0
  9
$DIMTXT
 40
20
  9
$DIMCEN
 40
2.5
  9
$DIMTSZ
 40
0
  9
$DIMTOL
 70
    0
  9
$DIMLIM
 70
    0
  9
$DIMTIH
 70
    0
  9
$DIMTOH
 70
    0
  9
$DIMSE1
 70
    0
  9
$DIMSE2
 70
    0
  9
$DIMTAD
 70
    1
  9
$DIMZIN
 70
    1
  9
$DIMBLK
  1

  9
$DIMASO
 70
    1
  9
$DIMSHO
 70
    1
  9
$DIMPOST
  1

  9
$DIMAPOST
  1

  9
$DIMALT
 70
    0
  9
$DIMALTD
 70
    3
  9
$DIMALTF
 40
0.03937
  9
$DIMLFAC
 40
1
  9
$DIMTOFL
 70
    1
  9
$DIMTVP
 40
0
  9
$DIMTIX
 70
    0
  9
$DIMSOXD
 70
    0
  9
$DIMSAH
 70
    0
  9
$DIMBLK1
  1

  9
$DIMBLK2
  1

  9
$DIMSTYLE
  2
STANDARD
  9
$DIMCLRD
 70
    0
  9
$DIMCLRE
 70
    0
  9
$DIMCLRT
 70
    0
  9
$DIMTFAC
 40
1
  9
$DIMGAP
 40
0.625
  9
$DIMJUST
 70
    0
  9
$DIMSD1
 70
    0
  9
$DIMSD2
 70
    0
  9
$DIMTOLJ
 70
    0
  9
$DIMTZIN
 70
    8
  9
$DIMALTZ
 70
    0
  9
$DIMALTTZ
 70
    0
  9
$DIMUPT
 70
    0
  9
$DIMDEC
 70
    0
  9
$DIMTDEC
 70
    2
  9
$DIMALTU
 70
    2
  9
$DIMALTTD
 70
    3
  9
$DIMTXSTY
  7
standard
  9
$DIMAUNIT
 70
    0
  9
$DIMADEC
 70
    0
  9
$DIMALTRND
 40
0
  9
$DIMAZIN
 70
    0
  9
$DIMDSEP
 70
    0
  9
$DIMATFIT
 70
    3
  9
$DIMFRAC
 70
    0
  9
$DIMLDRBLK
  1
STANDARD
  9
$DIMLUNIT
 70
    2
  9
$DIMLWD
 70
   -2
  9
$DIMLWE
 70
   -2
  9
$DIMTMOVE
 70
    0
  9
$DIMFXL
 40
1
  9
$DIMFXLON
 70
    0
  9
$DIMJOGANG
 40
0.7854
  9
$DIMTFILL
 70
    0
  9
$DIMTFILLCLR
 70
    0
  9
$DIMARCSYM
 70
    0
  9
$DIMLTYPE
  6

  9
$DIMLTEX1
  6

  9
$DIMLTEX2
  6

  9
$LUNITS
 70
    2
  9
$LUPREC
 70
    4
  9
$SKETCHINC
 40
1
  9
$FILLETRAD
 40
0
  9
$AUNITS
 70
    0
  9
$AUPREC
 70
    2
  9
$MENU
  1
.
  9
$ELEVATION
 40
0
  9
$PELEVATION
 40
0
  9
$THICKNESS
 40
0
  9
$LIMCHECK
 70
    0
  9
$CHAMFERA
 40
0
  9
$CHAMFERB
 40
0
  9
$CHAMFERC
 40
0
  9
$CHAMFERD
 40
0
  9
$SKPOLY
 70
    0
  9
$USRTIMER
 70
    1
  9
$ANGBASE
 50
0
  9
$ANGDIR
 70
    0
  9
$PDMODE
 70
   34
  9
$PDSIZE
 40
0
  9
$PLINEWID
 40
0
  9
$SPLFRAME
 70
    0
  9
$SPLINETYPE
 70
    2
  9
$SPLINESEGS
 70
    8
  9
$HANDSEED
  5
20000
  9
$SURFTAB1
 70
    6
  9
$SURFTAB2
 70
    6
  9
$SURFTYPE
 70
    6
  9
$SURFU
 70
    6
  9
$SURFV
 70
    6
  9
$UCSBASE
  2

  9
$UCSNAME
  2

  9
$UCSORG
 10
0
 20
0
 30
0
  9
$UCSXDIR
 10
1
 20
0
 30
0
  9
$UCSYDIR
 10
0
 20
1
 30
0
  9
$UCSORTHOREF
  2

  9
$UCSORTHOVIEW
 70
    0
  9
$UCSORGTOP
 10
0
 20
0
 30
0
  9
$UCSORGBOTTOM
 10
0
 20
0
 30
0
  9
$UCSORGLEFT
 10
0
 20
0
 30
0
  9
$UCSORGRIGHT
 10
0
 20
0
 30
0
  9
$UCSORGFRONT
 10
0
 20
0
 30
0
  9
$UCSORGBACK
 10
0
 20
0
 30
0
  9
$PUCSBASE
  2

  9
$PUCSNAME
  2

  9
$PUCSORG
 10
0
 20
0
 30
0
  9
$PUCSXDIR
 10
1
 20
0
 30
0
  9
$PUCSYDIR
 10
0
 20
1
 30
0
  9
$PUCSORTHOREF
  2

  9
$PUCSORTHOVIEW
 70
    0
  9
$PUCSORGTOP
 10
0
 20
0
 30
0
  9
$PUCSORGBOTTOM
 10
0
 20
0
 30
0
  9
$PUCSORGLEFT
 10
0
 20
0
 30
0
  9
$PUCSORGRIGHT
 10
0
 20
0
 30
0
  9
$PUCSORGFRONT
 10
0
 20
0
 30
0
  9
$PUCSORGBACK
 10
0
 20
0
 30
0
  9
$USERI1
 70
    0
  9
$USERI2
 70
    0
  9
$USERI3
 70
    0
  9
$USERI4
 70
    0
  9
$USERI5
 70
    0
  9
$USERR1
 40
0
  9
$USERR2
 40
0
  9
$USERR3
 40
0
  9
$USERR4
 40
0
  9
$USERR5
 40
0
  9
$WORLDVIEW
 70
    1
  9
$SHADEDGE
 70
    3
  9
$SHADEDIF
 70
   70
  9
$TILEMODE
 70
    1
  9
$MAXACTVP
 70
   64
  9
$PINSBASE
 10
-45.12482662968097
 20
200.2364771151183
 30
0
  9
$PLIMCHECK
 70
    0
  9
$PEXTMIN
 10
0
 20
0
 30
0
  9
$PEXTMAX
 10
0
 20
0
 30
0
  9
$GRIDMODE
 70
    1
  9
$SNAPSTYLE
 70
    0
  9
$PLIMMIN
 10
0
 20
0
  9
$PLIMMAX
 10
210
 20
297
  9
$UNITMODE
 70
    0
  9
$VISRETAIN
 70
    1
  9
$PLINEGEN
 70
    0
  9
$PSLTSCALE
 70
    1
  9
$TREEDEPTH
 70
 3020
  9
$CMLSTYLE
  2
Standard
  9
$CMLJUST
 70
    0
  9
$CMLSCALE
 40
20
  9
$PROXYGRAPHICS
 70
    1
  9
$MEASUREMENT
 70
    1
  9
$CELWEIGHT
370
   -1
  9
$ENDCAPS
280
    0
  9
$JOINSTYLE
280
    0
  9
$LWDISPLAY
290
    0
  9
$INSUNITS
 70
    4
  9
$HYPERLINKBASE
  1

  9
$STYLESHEET
  1

  9
$XEDIT
290
    1
  9
$CEPSNTYPE
380
    0
  9
$PSTYLEMODE
290
    1
  9
$EXTNAMES
290
    1
  9
$PSVPSCALE
 40
1
  9
$OLESTARTUP
290
    0
  9
$SORTENTS
280
  127
  9
$INDEXCTL
280
    0
  9
$HIDETEXT
280
    1
  9
$XCLIPFRAME
290
    0
  9
$HALOGAP
280
    0
  9
$OBSCOLOR
 70
  257
  9
$OBSLTYPE
280
    0
  9
$INTERSECTIONDISPLAY
280
    0
  9
$INTERSECTIONCOLOR
 70
  257
  9
$DIMASSOC
280
    1
  9
$PROJECTNAME
  1

  9
$CAMERADISPLAY
290
    0
  9
$LENSLENGTH
 40
50
  9
$CAMERAHEIGHT
 40
0
  9
$STEPSPERSEC
 40
2
  9
$STEPSIZE
 40
50
  9
$3DDWFPREC
 40
2
  9
$PSOLWIDTH
 40
5
  9
$PSOLHEIGHT
 40
80
  9
$LOFTANG1
 40
1.570796326794897
  9
$LOFTANG2
 40
1.570796326794897
  9
$LOFTMAG1
 40
0
  9
$LOFTMAG2
 40
0
  9
$LOFTPARAM
 70
    7
  9
$LOFTNORMALS
280
    1
  9
$LATITUDE
 40
1
  9
$LONGITUDE
 40
1
  9
$NORTHDIRECTION
 40
0
  9
$TIMEZONE
 70
-8000
  9
$LIGHTGLYPHDISPLAY
280
    1
  9
$TILEMODELIGHTSYNCH
280
    1
  9
$SOLIDHIST
280
    1
  9
$SHOWHIST
280
    1
  9
$DWFFRAME
280
    2
  9
$DGNFRAME
280
    0
  9
$REALWORLDSCALE
290
    1
  9
$INTERFERECOLOR
 62
    1
  9
$CSHADOW
280
    0
  9
$SHADOWPLANELOCATION
 40
0
  0
ENDSEC
  0
SECTION
  2
CLASSES
  0
ENDSEC
  0
SECTION
  2
TABLES
  0
TABLE
  2
VPORT
  5
8
330
0
100
AcDbSymbolTable
 70
    1
  0
VPORT
  5
31
330
2
100
AcDbSymbolTableRecord
100
AcDbViewportTableRecord
  2
*ACTIVE
 70
    0
 10
0
 20
0
 11
1
 21
1
 12
53.7820019558616
 22
114.2428146121243
 13
0
 23
0
 14
10
 24
10
 15
10
 25
10
 16
0
 26
0
 36
1
 17
0
 27
0
 37
0
 40
461.1894546803294
 41
1.216463414634146
 42
50
 43
0
 44
0
 50
0
 51
0
 71
    0
 72
  100
 73
    1
 74
    3
 75
    0
 76
    1
 77
    0
 78
    0
281
    0
 65
    1
110
0
120
0
130
0
111
1
121
0
131
0
112
0
122
1
132
0
 79
    0
146
0
348
10020
 60
    7
 61
    5
292
1
282
    1
141
0
142
0
 63
  250
421
3358443
  0
ENDTAB
  0
TABLE
  2
LTYPE
  5
5
330
0
100
AcDbSymbolTable
 70
    4
  0
LTYPE
  5
14
330
5
100
AcDbSymbolTableRecord
100
AcDbLinetypeTableRecord
  2
ByBlock
 70
    0
  3

 72
   65
 73
    0
 40
0
  0
LTYPE
  5
15
330
5
100
AcDbSymbolTableRecord
100
AcDbLinetypeTableRecord
  2
ByLayer
 70
    0
  3

 72
   65
 73
    0
 40
0
  0
LTYPE
  5
16
330
5
100
AcDbSymbolTableRecord
100
AcDbLinetypeTableRecord
  2
Continuous
 70
    0
  3
Solid line
 72
   65
 73
    0
 40
0
  0
LTYPE
  5
32
330
5
100
AcDbSymbolTableRecord
100
AcDbLinetypeTableRecord
  2
DOT
 70
    0
  3
Dot . . . . . . . . . . . . . . . . . . . . . .
 72
   65
 73
    2
 40
6.35
 49
0
 74
    0
 49
-6.35
 74
    0
  0
LTYPE
  5
33
330
5
100
AcDbSymbolTableRecord
100
AcDbLinetypeTableRecord
  2
DOTTINY
 70
    0
  3
Dot (.15x) .....................................
 72
   65
 73
    2
 40
0.9525
 49
0
 74
    0
 49
-0.9525
 74
    0
  0
LTYPE
  5
34
330
5
100
AcDbSymbolTableRecord
100
AcDbLinetypeTableRecord
  2
DOT2
 70
    0
  3
Dot (.5x) .....................................
 72
   65
 73
    2
 40
3.175
 49
0
 74
    0
 49
-3.175
 74
    0
  0
LTYPE
  5
35
330
5
100
AcDbSymbolTableRecord
100
AcDbLinetypeTableRecord
  2
DOTX2
 70
    0
  3
Dot (2x) .  .  .  .  .  .  .  .  .  .  .  .  .
 72
   65
 73
    2
 40
12.7
 49
0
 74
    0
 49
-12.7
 74
    0
  0
LTYPE
  5
36
330
5
100
AcDbSymbolTableRecord
100
AcDbLinetypeTableRecord
  2
DASHED
 70
    0
  3
Dashed _ _ _ _ _ _ _ _ _ _ _ _ _ _ _ _ _
 72
   65
 73
    2
 40
19.05
 49
12.7
 74
    0
 49
-6.35
 74
    0
  0
LTYPE
  5
37
330
5
100
AcDbSymbolTableRecord
100
AcDbLinetypeTableRecord
  2
DASHEDTINY
 70
    0
  3
Dashed (.15x) _ _ _ _ _ _ _ _ _ _ _ _ _ _ _ _ _
 72
   65
 73
    2
 40
2.8575
 49
1.905
 74
    0
 49
-0.9525
 74
    0
  0
LTYPE
  5
38
330
5
100
AcDbSymbolTableRecord
100
AcDbLinetypeTableRecord
  2
DASHED2
 70
    0
  3
Dashed (.5x) _ _ _ _ _ _ _ _ _ _ _ _ _ _ _ _ _
 72
   65
 73
    2
 40
9.524999999999999
 49
6.35
 74
    0
 49
-3.175
 74
    0
  0
LTYPE
  5
39
330
5
100
AcDbSymbolTableRecord
100
AcDbLinetypeTableRecord
  2
DASHEDX2
 70
    0
  3
Dashed (2x) ____  ____  ____  ____  ____  ___
 72
   65
 73
    2
 40
38.09999999999999
 49
25.4
 74
    0
 49
-12.7
 74
    0
  0
LTYPE
  5
3A
330
5
100
AcDbSymbolTableRecord
100
AcDbLinetypeTableRecord
  2
DASHDOT
 70
    0
  3
Dash dot __ . __ . __ . __ . __ . __ . __ . __
 72
   65
 73
    4
 40
25.4
 49
12.7
 74
    0
 49
-6.35
 74
    0
 49
0
 74
    0
 49
-6.35
 74
    0
  0
LTYPE
  5
3B
330
5
100
AcDbSymbolTableRecord
100
AcDbLinetypeTableRecord
  2
DASHDOTTINY
 70
    0
  3
Dash dot (.15x) _._._._._._._._._._._._._._._.
 72
   65
 73
    4
 40
3.81
 49
1.905
 74
    0
 49
-0.9525
 74
    0
 49
0
 74
    0
 49
-0.9525
 74
    0
  0
LTYPE
  5
3C
330
5
100
AcDbSymbolTableRecord
100
AcDbLinetypeTableRecord
  2
DASHDOT2
 70
    0
  3
Dash dot (.5x) _._._._._._._._._._._._._._._.
 72
   65
 73
    4
 40
12.7
 49
6.35
 74
    0
 49
-3.175
 74
    0
 49
0
 74
    0
 49
-3.175
 74
    0
  0
LTYPE
  5
3D
330
5
100
AcDbSymbolTableRecord
100
AcDbLinetypeTableRecord
  2
DASHDOTX2
 70
    0
  3
Dash dot (2x) ____  .  ____  .  ____  .  ___
 72
   65
 73
    4
 40
50.8
 49
25.4
 74
    0
 49
-12.7
 74
    0
 49
0
 74
    0
 49
-12.7
 74
    0
  0
LTYPE
  5
3E
330
5
100
AcDbSymbolTableRecord
100
AcDbLinetypeTableRecord
  2
DIVIDE
 70
    0
  3
Divide ____ . . ____ . . ____ . . ____ . . ____
 72
   65
 73
    6
 40
31.75
 49
12.7
 74
    0
 49
-6.35
 74
    0
 49
0
 74
    0
 49
-6.35
 74
    0
 49
0
 74
    0
 49
-6.35
 74
    0
  0
LTYPE
  5
3F
330
5
100
AcDbSymbolTableRecord
100
AcDbLinetypeTableRecord
  2
DIVIDETINY
 70
    0
  3
Divide (.15x) __..__..__..__..__..__..__..__.._
 72
   65
 73
    6
 40
4.7625
 49
1.905
 74
    0
 49
-0.9525
 74
    0
 49
0
 74
    0
 49
-0.9525
 74
    0
 49
0
 74
    0
 49
-0.9525
 74
    0
  0
LTYPE
  5
40
330
5
100
AcDbSymbolTableRecord
100
AcDbLinetypeTableRecord
  2
DIVIDE2
 70
    0
  3
Divide (.5x) __..__..__..__..__..__..__..__.._
 72
   65
 73
    6
 40
15.875
 49
6.35
 74
    0
 49
-3.175
 74
    0
 49
0
 74
    0
 49
-3.175
 74
    0
 49
0
 74
    0
 49
-3.175
 74
    0
  0
LTYPE
  5
41
330
5
100
AcDbSymbolTableRecord
100
AcDbLinetypeTableRecord
  2
DIVIDEX2
 70
    0
  3
Divide (2x) ________  .  .  ________  .  .  _
 72
   65
 73
    6
 40
63.5
 49
25.4
 74
    0
 49
-12.7
 74
    0
 49
0
 74
    0
 49
-12.7
 74
    0
 49
0
 74
    0
 49
-12.7
 74
    0
  0
LTYPE
  5
42
330
5
100
AcDbSymbolTableRecord
100
AcDbLinetypeTableRecord
  2
BORDER
 70
    0
  3
Border __ __ . __ __ . __ __ . __ __ . __ __ .
 72
   65
 73
    6
 40
44.45
 49
12.7
 74
    0
 49
-6.35
 74
    0
 49
12.7
 74
    0
 49
-6.35
 74
    0
 49
0
 74
    0
 49
-6.35
 74
    0
  0
LTYPE
  5
43
330
5
100
AcDbSymbolTableRecord
100
AcDbLinetypeTableRecord
  2
BORDERTINY
 70
    0
  3
Border (.15x) __.__.__.__.__.__.__.__.__.__.__.
 72
   65
 73
    6
 40
6.6675
 49
1.905
 74
    0
 49
-0.9525
 74
    0
 49
1.905
 74
    0
 49
-0.9525
 74
    0
 49
0
 74
    0
 49
-0.9525
 74
    0
  0
LTYPE
  5
44
330
5
100
AcDbSymbolTableRecord
100
AcDbLinetypeTableRecord
  2
BORDER2
 70
    0
  3
Border (.5x) __.__.__.__.__.__.__.__.__.__.__.
 72
   65
 73
    6
 40
22.225
 49
6.35
 74
    0
 49
-3.175
 74
    0
 49
6.35
 74
    0
 49
-3.175
 74
    0
 49
0
 74
    0
 49
-3.175
 74
    0
  0
LTYPE
  5
45
330
5
100
AcDbSymbolTableRecord
100
AcDbLinetypeTableRecord
  2
BORDERX2
 70
    0
  3
Border (2x) ____  ____  .  ____  ____  .  ___
 72
   65
 73
    6
 40
88.89999999999999
 49
25.4
 74
    0
 49
-12.7
 74
    0
 49
25.4
 74
    0
 49
-12.7
 74
    0
 49
0
 74
    0
 49
-12.7
 74
    0
  0
LTYPE
  5
46
330
5
100
AcDbSymbolTableRecord
100
AcDbLinetypeTableRecord
  2
CENTER
 70
    0
  3
Center ____ _ ____ _ ____ _ ____ _ ____ _ ____
 72
   65
 73
    4
 40
50.8
 49
31.75
 74
    0
 49
-6.35
 74
    0
 49
6.35
 74
    0
 49
-6.35
 74
    0
  0
LTYPE
  5
47
330
5
100
AcDbSymbolTableRecord
100
AcDbLinetypeTableRecord
  2
CENTERTINY
 70
    0
  3
Center (.15x) ___ _ ___ _ ___ _ ___ _ ___ _ ___
 72
   65
 73
    4
 40
7.619999999999999
 49
4.7625
 74
    0
 49
-0.9525
 74
    0
 49
0.9525
 74
    0
 49
-0.9525
 74
    0
  0
LTYPE
  5
48
330
5
100
AcDbSymbolTableRecord
100
AcDbLinetypeTableRecord
  2
CENTER2
 70
    0
  3
Center (.5x) ___ _ ___ _ ___ _ ___ _ ___ _ ___
 72
   65
 73
    4
 40
28.575
 49
19.05
 74
    0
 49
-3.175
 74
    0
 49
3.175
 74
    0
 49
-3.175
 74
    0
  0
LTYPE
  5
49
330
5
100
AcDbSymbolTableRecord
100
AcDbLinetypeTableRecord
  2
CENTERX2
 70
    0
  3
Center (2x) ________  __  ________  __  _____
 72
   65
 73
    4
 40
101.6
 49
63.5
 74
    0
 49
-12.7
 74
    0
 49
12.7
 74
    0
 49
-12.7
 74
    0
  0
ENDTAB
  0
TABLE
  2
LAYER
  5
2
330
0
100
AcDbSymbolTable
 70
    1
  0
LAYER
  5
10
330
2
100
AcDbSymbolTableRecord
100
AcDbLayerTableRecord
  2
0
 70
    5
 62
    6
  6
CONTINUOUS
370
    0
390
F
1001
LibreCad
1070
    1
  0
LAYER
  5
4A
330
2
100
AcDbSymbolTableRecord
100
AcDbLayerTableRecord
  2
noname
 70
    5
 62
    7
  6
CONTINUOUS
370
    0
390
F
  0
LAYER
  5
4B
330
2
100
AcDbSymbolTableRecord
100
AcDbLayerTableRecord
  2
noname1
 70
    5
 62
    1
  6
CONTINUOUS
370
    0
390
F
1001
LibreCad
1070
    1
  0
LAYER
  5
4C
330
2
100
AcDbSymbolTableRecord
100
AcDbLayerTableRecord
  2
piece
 70
    0
 62
    7
  6
CONTINUOUS
370
    0
390
F
  0
LAYER
  5
4D
330
2
100
AcDbSymbolTableRecord
100
AcDbLayerTableRecord
  2
print
 70
    0
 62
    7
  6
CONTINUOUS
370
    0
390
F
  0
ENDTAB
  0
TABLE
  2
STYLE
  5
3
330
0
100
AcDbSymbolTable
 70
    3
  0
STYLE
  5
4E
330
2
100
AcDbSymbolTableRecord
100
AcDbTextStyleTableRecord
  2
Standard
 70
    0
 40
0
 41
1
 50
0
 71
    0
 42
1
  3
txt
  4

  0
ENDTAB
  0
TABLE
  2
VIEW
  5
6
330
0
100
AcDbSymbolTable
 70
    0
  0
ENDTAB
  0
TABLE
  2
UCS
  5
7
330
0
100
AcDbSymbolTable
 70
    0
  0
ENDTAB
  0
TABLE
  2
APPID
  5
9
330
0
100
AcDbSymbolTable
 70
    1
  0
APPID
  5
12
330
9
100
AcDbSymbolTableRecord
100
AcDbRegAppTableRecord
  2
ACAD
 70
    0
  0
APPID
  5
4F
330
9
100
AcDbSymbolTableRecord
100
AcDbRegAppTableRecord
  2
LibreCad
 70
    0
  0
ENDTAB
  0
TABLE
  2
DIMSTYLE
  5
A
330
0
100
AcDbSymbolTable
 70
    1
100
AcDbDimStyleTable
 71
    1
  0
DIMSTYLE
105
50
330
A
100
AcDbSymbolTableRecord
100
AcDbDimStyleTableRecord
  2
Standard
 70
    0
 40
1
 41
15
 42
0.625
 43
0.38
 44
1.25
 45
0
 46
0
 47
0
 48
0
 49
1
140
20
141
0.09
142
0
143
25.4
144
1
145
0
146
1
147
0.625
148
0
 71
    0
 72
    0
 73
    0
 74
    1
 75
    0
 76
    0
 77
    0
 78
    1
 79
    0
170
    0
171
    2
172
    0
173
    0
174
    0
175
    0
176
    0
177
    0
178
    0
179
    0
271
    0
272
    4
273
    2
274
    2
275
    0
276
    0
277
    2
278
    0
279
    0
280
    0
281
    0
282
    0
283
    1
284
    0
285
    0
286
    0
288
    0
289
    3
340
standard
341

371
   -2
372
   -2
  0
ENDTAB
  0
TABLE
  2
BLOCK_RECORD
  5
1
330
0
100
AcDbSymbolTable
 70
    2
  0
BLOCK_RECORD
  5
1F
330
1
100
AcDbSymbolTableRecord
100
AcDbBlockTableRecord
  2
*Model_Space
 70
    0
280
    1
281
    0
  0
BLOCK_RECORD
  5
1E
330
1
100
AcDbSymbolTableRecord
100
AcDbBlockTableRecord
  2
*Paper_Space
 70
    0
280
    1
281
    0
  0
BLOCK_RECORD
  5
51
330
1
100
AcDbSymbolTableRecord
100
AcDbBlockTableRecord
  2
*D2
 70
    0
280
    1
281
    0
  0
BLOCK_RECORD
  5
54
330
1
100
AcDbSymbolTableRecord
100
AcDbBlockTableRecord
  2
*D1
 70
    0
280
    1
281
    0
  0
BLOCK_RECORD
  5
57
330
1
100
AcDbSymbolTableRecord
100
AcDbBlockTableRecord
  2
*D3
 70
    0
280
    1
281
    0
  0
ENDTAB
  0
ENDSEC
  0
SECTION
  2
BLOCKS
  0
BLOCK
  5
20
330
1F
100
AcDbEntity
  8
0
100
AcDbBlockBegin
  2
*Model_Space
 70
    0
 10
0
 20
0
 30
0
  3
*Model_Space
  1

  0
ENDBLK
  5
21
330
1F
100
AcDbEntity
  8
0
100
AcDbBlockEnd
  0
BLOCK
  5
1C
330
1B
100
AcDbEntity
  8
0
100
AcDbBlockBegin
  2
*Paper_Space
 70
    0
 10
0
 20
0
 30
0
  3
*Paper_Space
  1

  0
ENDBLK
  5
1D
330
1F
100
AcDbEntity
  8
0
100
AcDbBlockEnd
  0
BLOCK
  5
52
330
51
100
AcDbEntity
  8
0
100
AcDbBlockBegin
  2
*D2
 70
    1
 10
0
 20
0
  3
*D2
  1

  0
LINE
  5
5A
100
AcDbEntity
  8
print
  6
ByBlock
 62
    0
370
   -2
100
AcDbLine
 10
-120
 20
-160
 11
-20
 21
-160
  0
MTEXT
  5
5B
100
AcDbEntity
  8
print
  6
CONTINUOUS
 62
    0
370
   -2
100
AcDbMText
 10
-70
 20
-149.375
 30
0
 40
20
 41
35.55555555555556
 71
    5
 72
    1
  1
100
  7
standard
210
0
220
0
230
1
 50
0
 73
    2
 44
1
  0
SOLID
  5
5C
100
AcDbEntity
  8
print
  6
ByBlock
 62
    0
370
   -2
100
AcDbTrace
 10
-120
 20
-160
 30
0
 11
-105
 21
-157.502292053363
 31
0
 12
-105
 22
-162.497707946637
 32
0
 13
-105
 23
-162.497707946637
 33
0
  0
SOLID
  5
5D
100
AcDbEntity
  8
print
  6
ByBlock
 62
    0
370
   -2
100
AcDbTrace
 10
-20
 20
-160
 30
0
 11
-35
 21
-162.497707946637
 31
0
 12
-35
 22
-157.502292053363
 32
0
 13
-35
 23
-157.502292053363
 33
0
  0
LINE
  5
5E
100
AcDbEntity
  8
print
  6
ByBlock
 62
    0
370
   -2
100
AcDbLine
 10
-120
 20
-169.375
 11
-120
 21
-158.75
  0
LINE
  5
5F
100
AcDbEntity
  8
print
  6
ByBlock
 62
    0
370
   -2
100
AcDbLine
 10
-20
 20
-169.375
 11
-20
 21
-158.75
  0
ENDBLK
  5
53
330
51
100
AcDbEntity
  8
0
100
AcDbBlockEnd
  0
BLOCK
  5
55
330
54
100
AcDbEntity
  8
0
100
AcDbBlockBegin
  2
*D1
 70
    1
 10
0
 20
0
  3
*D1
  1

  0
LINE
  5
60
100
AcDbEntity
  8
noname1
  6
ByBlock
 62
    0
370
   -2
100
AcDbLine
 10
171.6127382868766
 20
-32.00009370407167
 11
203.1448049650135
 21
-32.00016285923649
  0
LINE
  5
61
100
AcDbEntity
  8
noname1
  6
ByBlock
 62
    0
370
   -2
100
AcDbLine
 10
171.6128786497264
 20
31.99990904339435
 11
203.1449453278633
 21
31.99983988822953
  0
LINE
  5
62
100
AcDbEntity
  8
noname1
  6
ByBlock
 62
    0
370
   -2
100
AcDbLine
 10
201.8948049650165
 20
-32.0001601177747
 11
201.8949453278663
 21
31.99984262969132
  0
MTEXT
  5
63
100
AcDbEntity
  8
noname1
  6
CONTINUOUS
 62
    0
370
   -2
100
AcDbMText
 10
191.269875146467
 20
-0.0001354416164814851
 30
0
 40
20
 41
26.66666666666791
 71
    5
 72
    1
  1
64
  7
standard
210
0
220
0
230
1
 50
89.99987434064769
 73
    2
 44
1
  0
SOLID
  5
64
100
AcDbEntity
  8
noname1
  6
ByBlock
 62
    0
370
   -2
100
AcDbTrace
 10
201.8948049650165
 20
-32.0001601177747
 30
0
 11
199.397129915927
 21
-17.00015463991405
 31
0
 12
204.3925458091891
 22
-17.00016559570749
 32
0
 13
204.3925458091891
 23
-17.00016559570749
 33
0
  0
SOLID
  5
65
100
AcDbEntity
  8
noname1
  6
ByBlock
 62
    0
370
   -2
100
AcDbTrace
 10
201.8949453278663
 20
31.99984262969132
 30
0
 11
204.3926203769558
 21
16.99983715183068
 31
0
 12
199.3972044836938
 22
16.99984810762412
 32
0
 13
199.3972044836938
 23
16.99984810762412
 33
0
  0
ENDBLK
  5
56
330
54
100
AcDbEntity
  8
0
100
AcDbBlockEnd
  0
BLOCK
  5
58
330
57
100
AcDbEntity
  8
0
100
AcDbBlockBegin
  2
*D3
 70
    1
 10
0
 20
0
  3
*D3
  1

  0
LINE
  5
66
100
AcDbEntity
  8
print
  6
ByBlock
 62
    0
370
   -2
100
AcDbLine
 10
130
 20
-160
 11
230
 21
-160
  0
MTEXT
  5
67
100
AcDbEntity
  8
print
  6
CONTINUOUS
 62
    0
370
   -2
100
AcDbMText
 10
180
 20
-149.375
 30
0
 40
20
 41
35.55555555555556
 71
    5
 72
    1
  1
100
  7
standard
210
0
220
0
230
1
 50
0
 73
    2
 44
1
  0
SOLID
  5
68
100
AcDbEntity
  8
print
  6
ByBlock
 62
    0
370
   -2
100
AcDbTrace
 10
130
 20
-160
 30
0
 11
145
 21
-157.502292053363
 31
0
 12
145
 22
-162.497707946637
 32
0
 13
145
 23
-162.497707946637
 33
0
  0
SOLID
  5
69
100
AcDbEntity
  8
print
  6
ByBlock
 62
    0
370
   -2
100
AcDbTrace
 10
230
 20
-160
 30
0
 11
215
 21
-162.497707946637
 31
0
 12
215
 22
-157.502292053363
 32
0
 13
215
 23
-157.502292053363
 33
0
  0
LINE
  5
6A
100
AcDbEntity
  8
print
  6
ByBlock
 62
    0
370
   -2
100
AcDbLine
 10
130
 20
-169.375
 11
130
 21
-158.75
  0
LINE
  5
6B
100
AcDbEntity
  8
print
  6
ByBlock
 62
    0
370
   -2
100
AcDbLine
 10
230
 20
-169.375
 11
230
 21
-158.75
  0
ENDBLK
  5
59
330
57
100
AcDbEntity
  8
0
100
AcDbBlockEnd
  0
ENDSEC
  0
SECTION
  2
ENTITIES
  0
CIRCLE
  5
6C
100
AcDbEntity
  8
0
  6
ByLayer
 62
  256
370
   -1
100
AcDbCircle
 10
130.0000053947964
 20
-3.71986475151089e-14
 40
210.0000053947964
  0
CIRCLE
  5
6D
100
AcDbEntity
  8
0
  6
ByLayer
 62
  256
370
   -1
100
AcDbCircle
 10
5.39479653749917e-06
 20
-1.331803493173557e-14
 40
80.00000539479659
  0
LINE
  5
6E
100
AcDbEntity
  8
0
  6
ByLayer
 62
  256
370
   -1
100
AcDbLine
 10
49.23078126531567
 20
-63.05816022018242
 11
130.0000053947965
 21
0
  0
CIRCLE
  5
6F
100
AcDbEntity
  8
0
  6
ByLayer
 62
  256
370
   -1
100
AcDbCircle
 10
98.46155713583487
 20
-126.1163204403648
 40
80.00000539479659
  0
CIRCLE
  5
70
100
AcDbEntity
  8
0
  6
ByLayer
 62
  256
370
   -1
100
AcDbCircle
 10
182.0000053947923
 20
0
 40
10
  0
LINE
  5
71
100
AcDbEntity
  8
0
  6
ByLayer
 62
  256
370
   -1
100
AcDbLine
 10
185.8461595373636
 20
9.23076910726194
 11
30.76924061028911
 21
73.84615783790768
  0
LINE
  5
72
100
AcDbEntity
  8
0
  6
ByLayer
 62
  256
370
   -1
100
AcDbLine
 10
5.769236608653541
 20
13.8461536608929
 11
-5.769225819060466
 21
-13.84615366089292
  0
LINE
  5
73
100
AcDbEntity
  8
0
  6
ByLayer
 62
  256
370
   -1
100
AcDbLine
 10
130.0000053947965
 20
1.286415682567571e-13
 11
98.46155713583487
 21
-126.1163204403648
  0
LINE
  5
74
100
AcDbEntity
  8
0
  6
ByLayer
 62
  256
370
   -1
100
AcDbLine
 10
135.7692366086535
 20
13.84615366089304
 11
124.2307741809395
 21
-13.84615366089278
  0
CIRCLE
  5
75
100
AcDbEntity
  8
0
  6
ByLayer
 62
  256
370
   -1
100
AcDbCircle
 10
130.0000051281139
 20
-1.066413259227398e-06
 40
30.00000262832097
  0
CIRCLE
  5
76
100
AcDbEntity
  8
0
  6
ByLayer
 62
  256
370
   -1
100
AcDbCircle
 10
176.691002106932
 20
-43.47361296213204
 40
33.79658137220036
  0
ARC
  5
77
100
AcDbEntity
  8
noname
  6
ByLayer
 62
  256
370
   -1
100
AcDbCircle
 10
27.53067246581774
 20
80.00023187359378
 40
79.99999999999997
100
AcDbArc
 50
36.70349119854431
 51
142.02
  0
CIRCLE
  5
78
100
AcDbEntity
  8
noname1
  6
ByLayer
 62
  256
370
   -1
100
AcDbCircle
 10
27.53067246581774
 20
80.00023187359372
 40
70.5
  0
LINE
  5
79
100
AcDbEntity
  8
noname1
  6
ByLayer
 62
  256
370
   -1
100
AcDbLine
 10
195.0286150137862
 20
-50.76937178948037
 11
198.9697430737384
 21
-53.84630364037623
  0
CIRCLE
  5
7A
100
AcDbEntity
  8
noname
  6
ByLayer
 62
  256
370
   -1
100
AcDbCircle
 10
27.53067293203397
 20
80.00022808749314
 40
0
  0
LINE
  5
7B
100
AcDbEntity
  8
noname
  6
ByLayer
 62
  256
370
   -1
100
AcDbLine
 10
27.35783369022273
 20
81.40384006966281
 11
27.70351217384527
 21
78.59661610532358
  0
LINE
  5
7C
100
AcDbEntity
  8
noname
  6
ByLayer
 62
  256
370
   -1
100
AcDbLine
 10
28.93428491420362
 20
80.17306732930446
 11
26.12706094986439
 21
79.82738884568192
  0
LINE
  5
7D
100
AcDbEntity
  8
noname1
  6
ByLayer
 62
  256
370
   -1
100
AcDbLine
 10
196.9991790437622
 20
-52.3078377149283
 11
27.53067293203401
 21
80.00022808749318
  0
CIRCLE
  5
7E
100
AcDbEntity
  8
noname
  6
ByLayer
 62
  256
370
   -1
100
AcDbCircle
 10
130.0000062768916
 20
4.304171266334278e-07
 40
0
  0
CIRCLE
  5
7F
100
AcDbEntity
  8
noname
  6
ByLayer
 62
  256
370
   -1
100
AcDbCircle
 10
130.0000062768916
 20
4.304171266334278e-07
 40
2
  0
LINE
  5
80
100
AcDbEntity
  8
noname
  6
ByLayer
 62
  256
370
   -1
100
AcDbLine
 10
129.8271670350804
 20
1.40361241258678
 11
130.1728455187029
 21
-1.403611551752444
  0
LINE
  5
81
100
AcDbEntity
  8
noname
  6
ByLayer
 62
  256
370
   -1
100
AcDbLine
 10
131.4036182590613
 20
0.1728396722284358
 11
128.596394294722
 21
-0.1728388113940994
  0
CIRCLE
  5
82
100
AcDbEntity
  8
noname
  6
ByLayer
 62
  256
370
   -1
100
AcDbCircle
 10
170.9877381003915
 20
-32.00009081889899
 40
2
  0
CIRCLE
  5
83
100
AcDbEntity
  8
noname
  6
ByLayer
 62
  256
370
   -1
100
AcDbCircle
 10
170.9877381003914
 20
-32.00009081889895
 40
0
  0
LINE
  5
84
100
AcDbEntity
  8
noname
  6
ByLayer
 62
  256
370
   -1
100
AcDbLine
 10
170.8148988585802
 20
-30.5964788367293
 11
171.1605773422027
 21
-33.40370280106852
  0
LINE
  5
85
100
AcDbEntity
  8
noname
  6
ByLayer
 62
  256
370
   -1
100
AcDbLine
 10
172.391350082561
 20
-31.82725157708765
 11
169.5841261182218
 21
-32.17293006071018
  0
CIRCLE
  5
86
100
AcDbEntity
  8
noname1
  6
ByLayer
 62
  256
370
   -1
100
AcDbCircle
 10
27.5303275295349
 20
-79.99977856575205
 40
70.5
  0
LINE
  5
87
100
AcDbEntity
  8
noname
  6
ByLayer
 62
  256
370
   -1
100
AcDbLine
 10
179.6998647981101
 20
-27.09103302713173
 11
97.22769499989221
 21
119.2726935361857
  0
ARC
  5
88
100
AcDbEntity
  8
noname
  6
ByLayer
 62
  256
370
   -1
100
AcDbCircle
 10
27.53067671813453
 20
80.00022855370946
 40
80.0000053947966
100
AcDbArc
 50
29.40013284430233
 51
142.0199999999999
  0
ARC
  5
89
100
AcDbEntity
  8
noname
  6
ByLayer
 62
  256
370
   -1
100
AcDbCircle
 10
130.0000062768918
 20
4.304172408481271e-07
 40
210.0000053947966
100
AcDbArc
 50
142.02
 51
217.9797498656473
  0
ARC
  5
8A
100
AcDbEntity
  8
noname
  6
ByLayer
 62
  256
370
   -1
100
AcDbCircle
 10
170.9877381003912
 20
-32.00009081889731
 40
9.999999999999927
100
AcDbArc
 50
225.0575049116948
 51
29.40013321207124
  0
ARC
  5
8B
100
AcDbEntity
  8
noname
  6
ByLayer
 62
  256
370
   -1
100
AcDbCircle
 10
140.0499768554176
 20
-63.00001773882361
 40
33.79658137220036
100
AcDbArc
 50
45.05750717803166
 51
188.5914226360474
  0
ARC
  5
8C
100
AcDbEntity
  8
noname
  6
ByLayer
 62
  256
370
   -1
100
AcDbCircle
 10
27.53032894059341
 20
-79.99978223550585
 40
80.00000539479659
100
AcDbArc
 50
8.591420591447136
 51
217.9797481479361
  0
LINE
  5
8D
100
AcDbEntity
  8
noname1
  6
ByLayer
 62
  256
370
   -1
100
AcDbLine
 10
27.53067293203401
 20
80.00022808749318
 11
130.0000062768916
 21
4.304171101286215e-07
  0
LINE
  5
8E
100
AcDbEntity
  8
noname1
  6
ByLayer
 62
  256
370
   -1
100
AcDbLine
 10
130.0000064612097
 20
-1.066413242502327e-06
 11
27.5303275295349
 21
-79.99977856575205
  0
DIMENSION
  5
8F
100
AcDbEntity
  8
noname1
  6
ByLayer
 62
  256
370
   -1
100
AcDbDimension
  2
*D1
 10
201.8949453278663
 20
31.99984262969133
 30
0
 11
191.269875146467
 21
-0.0001354416164814851
 31
0
 70
   33
 71
    5
 72
    0
  3
Standard
 53
0
210
0
220
0
230
1
100
AcDbAlignedDimension
 13
170.9877382868781
 23
-32.00009233334077
 33
0
 14
170.9878786497279
 24
31.99991041412525
 34
0
  0
CIRCLE
  5
90
100
AcDbEntity
  8
noname
  6
ByLayer
 62
  256
370
   -1
100
AcDbCircle
 10
27.530327413188
 20
-79.99977762090978
 40
0
  0
LINE
  5
91
100
AcDbEntity
  8
noname
  6
ByLayer
 62
  256
370
   -1
100
AcDbLine
 10
27.35748817137677
 20
-78.59616563874012
 11
27.70316665499931
 21
-81.40338960307935
  0
LINE
  5
92
100
AcDbEntity
  8
noname
  6
ByLayer
 62
  256
370
   -1
100
AcDbLine
 10
28.93393939535765
 20
-79.82693837909846
 11
26.12671543101843
 21
-80.172616862721
  0
LINE
  5
93
100
AcDbEntity
  8
noname1
  6
ByLayer
 62
  256
370
   -1
100
AcDbLine
 10
130.0000073276719
 20
-3.899518638387968e-07
 11
125.0000073276839
 21
1.057529201463482e-05
  0
LINE
  5
94
100
AcDbEntity
  8
noname1
  6
ByLayer
 62
  256
370
   -1
100
AcDbLine
 10
170.9877725105649
 20
-17.00009063244827
 11
170.9877067191016
 21
-47.00009063237613
  0
CIRCLE
  5
95
100
AcDbEntity
  8
noname1
  6
ByLayer
 62
  256
370
   -1
100
AcDbCircle
 10
130.0000087720046
 20
7.37662643164345e-07
 40
52.00000046691861
  0
CIRCLE
  5
96
100
AcDbEntity
  8
noname
  6
ByLayer
 62
  256
370
   -1
100
AcDbCircle
 10
182.0000051778933
 20
-9.138717559689383e-05
 40
2
  0
CIRCLE
  5
97
100
AcDbEntity
  8
noname
  6
ByLayer
 62
  256
370
   -1
100
AcDbCircle
 10
142.6151666175772
 20
-50.44658098654062
 40
2
  0
LINE
  5
98
100
AcDbEntity
  8
noname1
  6
ByLayer
 62
  256
370
   -1
100
AcDbLine
 10
161.7569440621183
 20
-43.82348729717914
 11
180.2185351674934
 21
-20.17671893746594
  0
CIRCLE
  5
99
100
AcDbEntity
  8
piece
  6
ByLayer
 62
  256
370
   -1
100
AcDbCircle
 10
5.189393448290502e-06
 20
0.0002254112788277696
 40
0
  0
LINE
  5
9A
100
AcDbEntity
  8
piece
  6
ByLayer
 62
  256
370
   -1
100
AcDbLine
 10
-0.9999930652757598
 20
1.000227156606621
 11
1.000003444062685
 21
-0.9997763340488448
  0
LINE
  5
9B
100
AcDbEntity
  8
piece
  6
ByLayer
 62
  256
370
   -1
100
AcDbLine
 10
1.000006934721171
 20
1.000223665948114
 11
-0.9999965559342741
 21
-0.9997728433903306
  0
CIRCLE
  5
9C
100
AcDbEntity
  8
piece
  6
ByLayer
 62
  256
370
   -1
100
AcDbCircle
 10
130.0000078865984
 20
1.215869595931621e-06
 40
0
  0
CIRCLE
  5
9D
100
AcDbEntity
  8
piece
  6
ByLayer
 62
  256
370
   -1
100
AcDbCircle
 10
130.0000078865984
 20
1.215869595931621e-06
 40
2
  0
LINE
  5
9E
100
AcDbEntity
  8
piece
  6
ByLayer
 62
  256
370
   -1
100
AcDbLine
 10
129.0000096319291
 20
1.00000296119738
 11
131.0000061412676
 21
-1.00000052945807
  0
LINE
  5
9F
100
AcDbEntity
  8
piece
  6
ByLayer
 62
  256
370
   -1
100
AcDbLine
 10
131.0000096319261
 20
0.9999994705388768
 11
129.0000061412706
 21
-0.9999970387995669
  0
CIRCLE
  5
A0
100
AcDbEntity
  8
piece
  6
ByLayer
 62
  256
370
   -1
100
AcDbCircle
 10
182.0000078865163
 20
-8.954125273999964e-05
 40
2
  0
CIRCLE
  5
A1
100
AcDbEntity
  8
piece
  6
ByLayer
 62
  256
370
   -1
100
AcDbCircle
 10
182.0000078865162
 20
-8.95412527293415e-05
 40
0
  0
LINE
  5
A2
100
AcDbEntity
  8
piece
  6
ByLayer
 62
  256
370
   -1
100
AcDbLine
 10
181.000009631847
 20
0.9999122040750321
 11
183.0000061411855
 21
-1.000091286580409
  0
LINE
  5
A3
100
AcDbEntity
  8
piece
  6
ByLayer
 62
  256
370
   -1
100
AcDbLine
 10
183.0000096318439
 20
0.9999087134165285
 11
181.0000061411885
 21
-1.000087795921909
  0
LINE
  5
A4
100
AcDbEntity
  8
piece
  6
ByLayer
 62
  256
370
   -1
100
AcDbLine
 10
185.8461781398139
 20
9.230672853190198
 11
30.76937198810167
 21
73.84633224402135
  0
ARC
  5
A5
100
AcDbEntity
  8
piece
  6
ByLayer
 62
  256
370
   -1
100
AcDbCircle
 10
7.88679642482748e-06
 20
0.0002281086724464588
 40
80.0000053947966
100
AcDbArc
 50
67.38003284430233
 51
179.9998999999999
  0
CIRCLE
  5
A6
100
AcDbEntity
  8
piece
  6
ByLayer
 62
  256
370
   -1
100
AcDbCircle
 10
98.4613354694867
 20
-126.1162614819214
 40
0
  0
LINE
  5
A7
100
AcDbEntity
  8
piece
  6
ByLayer
 62
  256
370
   -1
100
AcDbLine
 10
97.46133721481746
 20
-125.1162597365936
 11
99.46133372415591
 21
-127.1162632272491
  0
LINE
  5
A8
100
AcDbEntity
  8
piece
  6
ByLayer
 62
  256
370
   -1
100
AcDbLine
 10
99.46133721481442
 20
-125.1162632272521
 11
97.46133372415896
 21
-127.1162597365906
  0
LINE
  5
A9
100
AcDbEntity
  8
noname1
  6
ByLayer
 62
  256
370
   -1
100
AcDbLine
 10
153.8746879422139
 20
-37.66962359538743
 11
172.336279047589
 21
-14.02285523567422
  0
LINE
  5
AA
100
AcDbEntity
  8
0
  6
ByLayer
 62
  256
370
   -1
100
AcDbLine
 10
189.0459117594032
 20
-7.096140042384769
 11
138.7717750540725
 21
-57.0143854084051
  0
ARC
  5
AB
100
AcDbEntity
  8
piece
  6
ByLayer
 62
  256
370
   -1
100
AcDbCircle
 10
35.20038535353819
 20
-182.2458719521665
 40
4.572337542604203
100
AcDbArc
 50
242.5177071533688
 51
41.58171342312943
  0
ARC
  5
AC
100
AcDbEntity
  8
piece
  6
ByLayer
 62
  256
370
   -1
100
AcDbCircle
 10
98.46133951318167
 20
-126.1162641793268
 40
80.00000539479667
100
AcDbArc
 50
63.21198850795814
 51
221.5817134231158
  0
ARC
  5
AD
100
AcDbEntity
  8
piece
  6
ByLayer
 62
  256
370
   -1
100
AcDbCircle
 10
130.0000078865984
 20
1.215869815496262e-06
 40
210.0000053947966
100
AcDbArc
 50
179.9999
 51
242.5177071533836
  0
LINE
  5
AE
100
AcDbEntity
  8
piece
  6
ByLayer
 62
  256
370
   -1
100
AcDbLine
 10
141.4957206848552
 20
-53.62217355466828
 11
188.9936463495808
 21
-7.147747972369104
  0
ARC
  5
AF
100
AcDbEntity
  8
piece
  6
ByLayer
 62
  256
370
   -1
100
AcDbCircle
 10
137.2516245249111
 20
-49.28461023046989
 40
6.068509520984803
100
AcDbArc
 50
243.2119885079605
 51
314.3759875576923
  0
ARC
  5
B0
100
AcDbEntity
  8
piece
  6
ByLayer
 62
  256
370
   -1
100
AcDbCircle
 10
182.0000078865152
 20
-8.954125167637272e-05
 40
9.999999999999957
100
AcDbArc
 50
314.3759991228184
 51
67.38003321207239
  0
LINE
  5
B1
100
AcDbEntity
  8
piece
  6
ByLayer
 62
  256
370
   -1
100
AcDbLine
 10
116.3621054674448
 20
-101.968054948354
 11
169.7569178478863
 21
-33.57661713761011
  0
LWPOLYLINE
  5
B2
100
AcDbEntity
  8
print
  6
ByLayer
 62
  256
370
   -1
100
AcDbPolyline
 90
    4
 70
    1
 43
0
 10
-120
 20
-170
 10
-110
 20
-170
 10
-110
 20
-180
 10
-120
 20
-180
  0
LWPOLYLINE
  5
B3
100
AcDbEntity
  8
print
  6
ByLayer
 62
  256
370
   -1
100
AcDbPolyline
 90
    4
 70
    1
 43
0
 10
-110
 20
-180
 10
-100
 20
-180
 10
-100
 20
-170
 10
-110
 20
-170
  0
LWPOLYLINE
  5
B4
100
AcDbEntity
  8
print
  6
ByLayer
 62
  256
370
   -1
100
AcDbPolyline
 90
    4
 70
    1
 43
0
 10
-100
 20
-170
 10
-90
 20
-170
 10
-90
 20
-180
 10
-100
 20
-180
  0
LWPOLYLINE
  5
B5
100
AcDbEntity
  8
print
  6
ByLayer
 62
  256
370
   -1
100
AcDbPolyline
 90
    4
 70
    1
 43
0
 10
-90
 20
-180
 10
-80
 20
-180
 10
-80
 20
-170
 10
-90
 20
-170
  0
LWPOLYLINE
  5
B6
100
AcDbEntity
  8
print
  6
ByLayer
 62
  256
370
   -1
100
AcDbPolyline
 90
    4
 70
    1
 43
0
 10
-80
 20
-170
 10
-70
 20
-170
 10
-70
 20
-180
 10
-80
 20
-180
  0
LWPOLYLINE
  5
B7
100
AcDbEntity
  8
print
  6
ByLayer
 62
  256
370
   -1
100
AcDbPolyline
 90
    4
 70
    1
 43
0
 10
-70
 20
-170
 10
-60
 20
-170
 10
-60
 20
-180
 10
-70
 20
-180
  0
LWPOLYLINE
  5
B8
100
AcDbEntity
  8
print
  6
ByLayer
 62
  256
370
   -1
100
AcDbPolyline
 90
    4
 70
    1
 43
0
 10
-60
 20
-180
 10
-50
 20
-180
 10
-50
 20
-170
 10
-60
 20
-170
  0
LWPOLYLINE
  5
B9
100
AcDbEntity
  8
print
  6
ByLayer
 62
  256
370
   -1
100
AcDbPolyline
 90
    4
 70
    1
 43
0
 10
-50
 20
-170
 10
-40
 20
-170
 10
-40
 20
-180
 10
-50
 20
-180
  0
LWPOLYLINE
  5
BA
100
AcDbEntity
  8
print
  6
ByLayer
 62
  256
370
   -1
100
AcDbPolyline
 90
    4
 70
    1
 43
0
 10
-40
 20
-180
 10
-30
 20
-180
 10
-30
 20
-170
 10
-40
 20
-170
  0
LWPOLYLINE
  5
BB
100
AcDbEntity
  8
print
  6
ByLayer
 62
  256
370
   -1
100
AcDbPolyline
 90
    4
 70
    1
 43
0
 10
-30
 20
-170
 10
-20
 20
-170
 10
-20
 20
-180
 10
-30
 20
-180
  0
DIMENSION
  5
BC
100
AcDbEntity
  8
print
  6
ByLayer
 62
  256
370
   -1
100
AcDbDimension
  2
*D2
 10
-20
 20
-160
 30
0
 11
-70
 21
-149.375
 31
0
 70
   32
 71
    5
 72
    0
  3
Standard
 53
0
210
0
220
0
230
1
100
AcDbAlignedDimension
 13
-120
 23
-170
 33
0
 14
-20
 24
-170
 34
0
100
AcDbRotatedDimension
  0
LWPOLYLINE
  5
BD
100
AcDbEntity
  8
print
  6
ByLayer
 62
  256
370
   -1
100
AcDbPolyline
 90
    4
 70
    1
 43
0
 10
130
 20
-170
 10
140
 20
-170
 10
140
 20
-180
 10
130
 20
-180
  0
LWPOLYLINE
  5
BE
100
AcDbEntity
  8
print
  6
ByLayer
 62
  256
370
   -1
100
AcDbPolyline
 90
    4
 70
    1
 43
0
 10
140
 20
-180
 10
150
 20
-180
 10
150
 20
-170
 10
140
 20
-170
  0
LWPOLYLINE
  5
BF
100
AcDbEntity
  8
print
  6
ByLayer
 62
  256
370
   -1
100
AcDbPolyline
 90
    4
 70
    1
 43
0
 10
150
 20
-170
 10
160
 20
-170
 10
160
 20
-180
 10
150
 20
-180
  0
LWPOLYLINE
  5
C0
100
AcDbEntity
  8
print
  6
ByLayer
 62
  256
370
   -1
100
AcDbPolyline
 90
    4
 70
    1
 43
0
 10
160
 20
-180
 10
170
 20
-180
 10
170
 20
-170
 10
160
 20
-170
  0
LWPOLYLINE
  5
C1
100
AcDbEntity
  8
print
  6
ByLayer
 62
  256
370
   -1
100
AcDbPolyline
 90
    4
 70
    1
 43
0
 10
170
 20
-170
 10
180
 20
-170
 10
180
 20
-180
 10
170
 20
-180
  0
LWPOLYLINE
  5
C2
100
AcDbEntity
  8
print
  6
ByLayer
 62
  256
370
   -1
100
AcDbPolyline
 90
    4
 70
    1
 43
0
 10
180
 20
-170
 10
190
 20
-170
 10
190
 20
-180
 10
180
 20
-180
  0
LWPOLYLINE
  5
C3
100
AcDbEntity
  8
print
  6
ByLayer
 62
  256
370
   -1
100
AcDbPolyline
 90
    4
 70
    1
 43
0
 10
190
 20
-180
 10
200
 20
-180
 10
200
 20
-170
 10
190
 20
-170
  0
LWPOLYLINE
  5
C4
100
AcDbEntity
  8
print
  6
ByLayer
 62
  256
370
   -1
100
AcDbPolyline
 90
    4
 70
    1
 43
0
 10
200
 20
-170
 10
210
 20
-170
 10
210
 20
-180
 10
200
 20
-180
  0
LWPOLYLINE
  5
C5
100
AcDbEntity
  8
print
  6
ByLayer
 62
  256
370
   -1
100
AcDbPolyline
 90
    4
 70
    1
 43
0
 10
210
 20
-180
 10
220
 20
-180
 10
220
 20
-170
 10
210
 20
-170
  0
LWPOLYLINE
  5
C6
100
AcDbEntity
  8
print
  6
ByLayer
 62
  256
370
   -1
100
AcDbPolyline
 90
    4
 70
    1
 43
0
 10
220
 20
-170
 10
230
 20
-170
 10
230
 20
-180
 10
220
 20
-180
  0
DIMENSION
  5
C7
100
AcDbEntity
  8
print
  6
ByLayer
 62
  256
370
   -1
100
AcDbDimension
  2
*D3
 10
230
 20
-160
 30
0
 11
180
 21
-149.375
 31
0
 70
   32
 71
    5
 72
    0
  3
Standard
 53
0
210
0
220
0
230
1
100
AcDbAlignedDimension
 13
130
 23
-170
 33
0
 14
230
 24
-170
 34
0
100
AcDbRotatedDimension
  0
LINE
  5
C8
100
AcDbEntity
  8
piece
  6
ByLayer
 62
  256
370
   -1
100
AcDbLine
 10
59.99999999999999
 20
-240
 11
60.00000000000001
 21
160
  0
LINE
  5
C9
100
AcDbEntity
  8
piece
  6
ByLayer
 62
  256
370
   -1
100
AcDbLine
 10
50
 20
0
 11
70
 21
0
  0
ENDSEC
  0
SECTION
  2
OBJECTS
  0
DICTIONARY
  5
C
330
0
100
AcDbDictionary
281
    1
  3
ACAD_GROUP
350
D
  0
DICTIONARY
  5
D
330
C
100
AcDbDictionary
281
    1
  0
PLOTSETTINGS
  5
CA
100
AcDbPlotSettings
  6
1x1
 40
0
 41
0
 42
0
 43
0
  0
ENDSEC
  0
EOF
