999
dxfrw 0.6.3
  0
SECTION
  2
HEADER
  9
$ACADVER
  1
AC1021
  9
$DWGCODEPAGE
  3
ANSI_1252
  9
$INSBASE
 10
0
 20
0
 30
0
  9
$EXTMIN
 10
0
 20
0
 30
0
  9
$EXTMAX
 10
15000
 20
20000
 30
0
  9
$LIMMIN
 10
0
 20
0
  9
$LIMMAX
 10
420
 20
297
  9
$ORTHOMODE
 70
    0
  9
$REGENMODE
 70
    1
  9
$FILLMODE
 70
    1
  9
$QTEXTMODE
 70
    0
  9
$MIRRTEXT
 70
    0
  9
$LTSCALE
 40
1
  9
$ATTMODE
 70
    0
  9
$TEXTSIZE
 40
2.5
  9
$TRACEWID
 40
15.68
  9
$TEXTSTYLE
  7
STANDARD
  9
$CLAYER
  8
_CADRES
  9
$CELTYPE
  6
BYLAYER
  9
$CECOLOR
 62
  256
  9
$CELTSCALE
 40
1
  9
$DISPSILH
 70
    0
  9
$DIMSCALE
 40
1
  9
$DIMASZ
 40
2.5
  9
$DIMEXO
 40
0.625
  9
$DIMDLI
 40
3.75
  9
$DIMRND
 40
0
  9
$DIMDLE
 40
0
  9
$DIMEXE
 40
1.25
  9
$DIMTP
 40
0
  9
$DIMTM
 40
0
  9
$DIMTXT
 40
2.5
  9
$DIMCEN
 40
2.5
  9
$DIMTSZ
 40
0
  9
$DIMTOL
 70
    0
  9
$DIMLIM
 70
    0
  9
$DIMTIH
 70
    0
  9
$DIMTOH
 70
    0
  9
$DIMSE1
 70
    0
  9
$DIMSE2
 70
    0
  9
$DIMTAD
 70
    1
  9
$DIMZIN
 70
    8
  9
$DIMBLK
  1

  9
$DIMASO
 70
    1
  9
$DIMSHO
 70
    1
  9
$DIMPOST
  1

  9
$DIMAPOST
  1

  9
$DIMALT
 70
    0
  9
$DIMALTD
 70
    3
  9
$DIMALTF
 40
0.03937
  9
$DIMLFAC
 40
1
  9
$DIMTOFL
 70
    1
  9
$DIMTVP
 40
0
  9
$DIMTIX
 70
    0
  9
$DIMSOXD
 70
    0
  9
$DIMSAH
 70
    0
  9
$DIMBLK1
  1

  9
$DIMBLK2
  1

  9
$DIMSTYLE
  2
STANDARD
  9
$DIMCLRD
 70
    0
  9
$DIMCLRE
 70
    0
  9
$DIMCLRT
 70
    0
  9
$DIMTFAC
 40
1
  9
$DIMGAP
 40
0.625
  9
$DIMJUST
 70
    0
  9
$DIMSD1
 70
    0
  9
$DIMSD2
 70
    0
  9
$DIMTOLJ
 70
    0
  9
$DIMTZIN
 70
    8
  9
$DIMALTZ
 70
    0
  9
$DIMALTTZ
 70
    0
  9
$DIMUPT
 70
    0
  9
$DIMDEC
 70
    2
  9
$DIMTDEC
 70
    2
  9
$DIMALTU
 70
    2
  9
$DIMALTTD
 70
    3
  9
$DIMTXSTY
  7
STANDARD
  9
$DIMAUNIT
 70
    0
  9
$DIMADEC
 70
    0
  9
$DIMALTRND
 40
0
  9
$DIMAZIN
 70
    0
  9
$DIMDSEP
 70
   44
  9
$DIMATFIT
 70
    3
  9
$DIMFRAC
 70
    0
  9
$DIMLDRBLK
  1
STANDARD
  9
$DIMLUNIT
 70
    2
  9
$DIMLWD
 70
   -2
  9
$DIMLWE
 70
   -2
  9
$DIMTMOVE
 70
    0
  9
$DIMFXL
 40
1
  9
$DIMFXLON
 70
    0
  9
$DIMJOGANG
 40
0.7854
  9
$DIMTFILL
 70
    0
  9
$DIMTFILLCLR
 70
    0
  9
$DIMARCSYM
 70
    0
  9
$DIMLTYPE
  6

  9
$DIMLTEX1
  6

  9
$DIMLTEX2
  6

  9
$LUNITS
 70
    2
  9
$LUPREC
 70
    4
  9
$SKETCHINC
 40
1
  9
$FILLETRAD
 40
0
  9
$AUNITS
 70
    0
  9
$AUPREC
 70
    2
  9
$MENU
  1
.
  9
$ELEVATION
 40
0
  9
$PELEVATION
 40
0
  9
$THICKNESS
 40
0
  9
$LIMCHECK
 70
    0
  9
$CHAMFERA
 40
0
  9
$CHAMFERB
 40
0
  9
$CHAMFERC
 40
0
  9
$CHAMFERD
 40
0
  9
$SKPOLY
 70
    0
  9
$USRTIMER
 70
    1
  9
$ANGBASE
 50
0
  9
$ANGDIR
 70
    0
  9
$PDMODE
 70
   34
  9
$PDSIZE
 40
0
  9
$PLINEWID
 40
0
  9
$SPLFRAME
 70
    0
  9
$SPLINETYPE
 70
    2
  9
$SPLINESEGS
 70
    8
  9
$HANDSEED
  5
20000
  9
$SURFTAB1
 70
    6
  9
$SURFTAB2
 70
    6
  9
$SURFTYPE
 70
    6
  9
$SURFU
 70
    6
  9
$SURFV
 70
    6
  9
$UCSBASE
  2

  9
$UCSNAME
  2

  9
$UCSORG
 10
0
 20
0
 30
0
  9
$UCSXDIR
 10
1
 20
0
 30
0
  9
$UCSYDIR
 10
0
 20
1
 30
0
  9
$UCSORTHOREF
  2

  9
$UCSORTHOVIEW
 70
    0
  9
$UCSORGTOP
 10
0
 20
0
 30
0
  9
$UCSORGBOTTOM
 10
0
 20
0
 30
0
  9
$UCSORGLEFT
 10
0
 20
0
 30
0
  9
$UCSORGRIGHT
 10
0
 20
0
 30
0
  9
$UCSORGFRONT
 10
0
 20
0
 30
0
  9
$UCSORGBACK
 10
0
 20
0
 30
0
  9
$PUCSBASE
  2

  9
$PUCSNAME
  2

  9
$PUCSORG
 10
0
 20
0
 30
0
  9
$PUCSXDIR
 10
1
 20
0
 30
0
  9
$PUCSYDIR
 10
0
 20
1
 30
0
  9
$PUCSORTHOREF
  2

  9
$PUCSORTHOVIEW
 70
    0
  9
$PUCSORGTOP
 10
0
 20
0
 30
0
  9
$PUCSORGBOTTOM
 10
0
 20
0
 30
0
  9
$PUCSORGLEFT
 10
0
 20
0
 30
0
  9
$PUCSORGRIGHT
 10
0
 20
0
 30
0
  9
$PUCSORGFRONT
 10
0
 20
0
 30
0
  9
$PUCSORGBACK
 10
0
 20
0
 30
0
  9
$USERI1
 70
    0
  9
$USERI2
 70
    0
  9
$USERI3
 70
    0
  9
$USERI4
 70
    0
  9
$USERI5
 70
    0
  9
$USERR1
 40
0
  9
$USERR2
 40
0
  9
$USERR3
 40
0
  9
$USERR4
 40
0
  9
$USERR5
 40
0
  9
$WORLDVIEW
 70
    1
  9
$SHADEDGE
 70
    3
  9
$SHADEDIF
 70
   70
  9
$TILEMODE
 70
    1
  9
$MAXACTVP
 70
   64
  9
$PINSBASE
 10
0
 20
0
 30
0
  9
$PLIMCHECK
 70
    0
  9
$PEXTMIN
 10
0
 20
0
 30
0
  9
$PEXTMAX
 10
0
 20
0
 30
0
  9
$SNAPSTYLE
 70
    0
  9
$PLIMMIN
 10
0
 20
0
  9
$PLIMMAX
 10
420
 20
297
  9
$UNITMODE
 70
    0
  9
$VISRETAIN
 70
    1
  9
$PLINEGEN
 70
    0
  9
$PSLTSCALE
 70
    1
  9
$TREEDEPTH
 70
 3020
  9
$CMLSTYLE
  2
Standard
  9
$CMLJUST
 70
    0
  9
$CMLSCALE
 40
20
  9
$PROXYGRAPHICS
 70
    1
  9
$MEASUREMENT
 70
    1
  9
$CELWEIGHT
370
   -1
  9
$ENDCAPS
280
    0
  9
$JOINSTYLE
280
    0
  9
$LWDISPLAY
290
    0
  9
$INSUNITS
 70
    4
  9
$HYPERLINKBASE
  1

  9
$STYLESHEET
  1

  9
$XEDIT
290
    1
  9
$CEPSNTYPE
380
    0
  9
$PSTYLEMODE
290
    1
  9
$EXTNAMES
290
    1
  9
$PSVPSCALE
 40
1
  9
$OLESTARTUP
290
    0
  9
$SORTENTS
280
  127
  9
$INDEXCTL
280
    0
  9
$HIDETEXT
280
    1
  9
$XCLIPFRAME
290
    0
  9
$HALOGAP
280
    0
  9
$OBSCOLOR
 70
  257
  9
$OBSLTYPE
280
    0
  9
$INTERSECTIONDISPLAY
280
    0
  9
$INTERSECTIONCOLOR
 70
  257
  9
$DIMASSOC
280
    1
  9
$PROJECTNAME
  1

  9
$CAMERADISPLAY
290
    0
  9
$LENSLENGTH
 40
50
  9
$CAMERAHEIGHT
 40
0
  9
$STEPSPERSEC
 40
2
  9
$STEPSIZE
 40
50
  9
$3DDWFPREC
 40
2
  9
$PSOLWIDTH
 40
5
  9
$PSOLHEIGHT
 40
80
  9
$LOFTANG1
 40
1.570796326794897
  9
$LOFTANG2
 40
1.570796326794897
  9
$LOFTMAG1
 40
0
  9
$LOFTMAG2
 40
0
  9
$LOFTPARAM
 70
    7
  9
$LOFTNORMALS
280
    1
  9
$LATITUDE
 40
1
  9
$LONGITUDE
 40
1
  9
$NORTHDIRECTION
 40
0
  9
$TIMEZONE
 70
-8000
  9
$LIGHTGLYPHDISPLAY
280
    1
  9
$TILEMODELIGHTSYNCH
280
    1
  9
$SOLIDHIST
280
    1
  9
$SHOWHIST
280
    1
  9
$DWFFRAME
280
    2
  9
$DGNFRAME
280
    0
  9
$REALWORLDSCALE
290
    1
  9
$INTERFERECOLOR
 62
    1
  9
$CSHADOW
280
    0
  9
$SHADOWPLANELOCATION
 40
0
  0
ENDSEC
  0
SECTION
  2
CLASSES
  0
ENDSEC
  0
SECTION
  2
TABLES
  0
TABLE
  2
VPORT
  5
8
330
0
100
AcDbSymbolTable
 70
    1
  0
VPORT
  5
31
330
2
100
AcDbSymbolTableRecord
100
AcDbViewportTableRecord
  2
*ACTIVE
 70
    0
 10
0
 20
0
 11
1
 21
1
 12
5266.80196538475
 22
8756.426060885484
 13
0
 23
0
 14
10
 24
10
 15
10
 25
10
 16
0
 26
0
 36
1
 17
0
 27
0
 37
0
 40
9427.281283292032
 41
1.803995006242197
 42
50
 43
0
 44
0
 50
0
 51
0
 71
    0
 72
  100
 73
    1
 74
    3
 75
    0
 76
    1
 77
    0
 78
    0
281
    0
 65
    1
110
0
120
0
130
0
111
1
121
0
131
0
112
0
122
1
132
0
 79
    0
146
0
348
10020
 60
    7
 61
    5
292
1
282
    1
141
0
142
0
 63
  250
421
3358443
  0
ENDTAB
  0
TABLE
  2
LTYPE
  5
5
330
0
100
AcDbSymbolTable
 70
    4
  0
LTYPE
  5
14
330
5
100
AcDbSymbolTableRecord
100
AcDbLinetypeTableRecord
  2
ByBlock
 70
    0
  3

 72
   65
 73
    0
 40
0
  0
LTYPE
  5
15
330
5
100
AcDbSymbolTableRecord
100
AcDbLinetypeTableRecord
  2
ByLayer
 70
    0
  3

 72
   65
 73
    0
 40
0
  0
LTYPE
  5
16
330
5
100
AcDbSymbolTableRecord
100
AcDbLinetypeTableRecord
  2
Continuous
 70
    0
  3
Solid line
 72
   65
 73
    0
 40
0
  0
LTYPE
  5
32
330
5
100
AcDbSymbolTableRecord
100
AcDbLinetypeTableRecord
  2
DOT
 70
    0
  3
Dot . . . . . . . . . . . . . . . . . . . . . .
 72
   65
 73
    2
 40
6.35
 49
0
 74
    0
 49
-6.35
 74
    0
  0
LTYPE
  5
33
330
5
100
AcDbSymbolTableRecord
100
AcDbLinetypeTableRecord
  2
DOTTINY
 70
    0
  3
Dot (.15x) .....................................
 72
   65
 73
    2
 40
0.9525
 49
0
 74
    0
 49
-0.9525
 74
    0
  0
LTYPE
  5
34
330
5
100
AcDbSymbolTableRecord
100
AcDbLinetypeTableRecord
  2
DOT2
 70
    0
  3
Dot (.5x) .....................................
 72
   65
 73
    2
 40
3.175
 49
0
 74
    0
 49
-3.175
 74
    0
  0
LTYPE
  5
35
330
5
100
AcDbSymbolTableRecord
100
AcDbLinetypeTableRecord
  2
DOTX2
 70
    0
  3
Dot (2x) .  .  .  .  .  .  .  .  .  .  .  .  .
 72
   65
 73
    2
 40
12.7
 49
0
 74
    0
 49
-12.7
 74
    0
  0
LTYPE
  5
36
330
5
100
AcDbSymbolTableRecord
100
AcDbLinetypeTableRecord
  2
DASHED
 70
    0
  3
Dashed _ _ _ _ _ _ _ _ _ _ _ _ _ _ _ _ _
 72
   65
 73
    2
 40
19.05
 49
12.7
 74
    0
 49
-6.35
 74
    0
  0
LTYPE
  5
37
330
5
100
AcDbSymbolTableRecord
100
AcDbLinetypeTableRecord
  2
DASHEDTINY
 70
    0
  3
Dashed (.15x) _ _ _ _ _ _ _ _ _ _ _ _ _ _ _ _ _
 72
   65
 73
    2
 40
2.8575
 49
1.905
 74
    0
 49
-0.9525
 74
    0
  0
LTYPE
  5
38
330
5
100
AcDbSymbolTableRecord
100
AcDbLinetypeTableRecord
  2
DASHED2
 70
    0
  3
Dashed (.5x) _ _ _ _ _ _ _ _ _ _ _ _ _ _ _ _ _
 72
   65
 73
    2
 40
9.524999999999999
 49
6.35
 74
    0
 49
-3.175
 74
    0
  0
LTYPE
  5
39
330
5
100
AcDbSymbolTableRecord
100
AcDbLinetypeTableRecord
  2
DASHEDX2
 70
    0
  3
Dashed (2x) ____  ____  ____  ____  ____  ___
 72
   65
 73
    2
 40
38.09999999999999
 49
25.4
 74
    0
 49
-12.7
 74
    0
  0
LTYPE
  5
3A
330
5
100
AcDbSymbolTableRecord
100
AcDbLinetypeTableRecord
  2
DASHDOT
 70
    0
  3
Dash dot __ . __ . __ . __ . __ . __ . __ . __
 72
   65
 73
    4
 40
25.4
 49
12.7
 74
    0
 49
-6.35
 74
    0
 49
0
 74
    0
 49
-6.35
 74
    0
  0
LTYPE
  5
3B
330
5
100
AcDbSymbolTableRecord
100
AcDbLinetypeTableRecord
  2
DASHDOTTINY
 70
    0
  3
Dash dot (.15x) _._._._._._._._._._._._._._._.
 72
   65
 73
    4
 40
3.81
 49
1.905
 74
    0
 49
-0.9525
 74
    0
 49
0
 74
    0
 49
-0.9525
 74
    0
  0
LTYPE
  5
3C
330
5
100
AcDbSymbolTableRecord
100
AcDbLinetypeTableRecord
  2
DASHDOT2
 70
    0
  3
Dash dot (.5x) _._._._._._._._._._._._._._._.
 72
   65
 73
    4
 40
12.7
 49
6.35
 74
    0
 49
-3.175
 74
    0
 49
0
 74
    0
 49
-3.175
 74
    0
  0
LTYPE
  5
3D
330
5
100
AcDbSymbolTableRecord
100
AcDbLinetypeTableRecord
  2
DASHDOTX2
 70
    0
  3
Dash dot (2x) ____  .  ____  .  ____  .  ___
 72
   65
 73
    4
 40
50.8
 49
25.4
 74
    0
 49
-12.7
 74
    0
 49
0
 74
    0
 49
-12.7
 74
    0
  0
LTYPE
  5
3E
330
5
100
AcDbSymbolTableRecord
100
AcDbLinetypeTableRecord
  2
DIVIDE
 70
    0
  3
Divide ____ . . ____ . . ____ . . ____ . . ____
 72
   65
 73
    6
 40
31.75
 49
12.7
 74
    0
 49
-6.35
 74
    0
 49
0
 74
    0
 49
-6.35
 74
    0
 49
0
 74
    0
 49
-6.35
 74
    0
  0
LTYPE
  5
3F
330
5
100
AcDbSymbolTableRecord
100
AcDbLinetypeTableRecord
  2
DIVIDETINY
 70
    0
  3
Divide (.15x) __..__..__..__..__..__..__..__.._
 72
   65
 73
    6
 40
4.7625
 49
1.905
 74
    0
 49
-0.9525
 74
    0
 49
0
 74
    0
 49
-0.9525
 74
    0
 49
0
 74
    0
 49
-0.9525
 74
    0
  0
LTYPE
  5
40
330
5
100
AcDbSymbolTableRecord
100
AcDbLinetypeTableRecord
  2
DIVIDE2
 70
    0
  3
Divide (.5x) __..__..__..__..__..__..__..__.._
 72
   65
 73
    6
 40
15.875
 49
6.35
 74
    0
 49
-3.175
 74
    0
 49
0
 74
    0
 49
-3.175
 74
    0
 49
0
 74
    0
 49
-3.175
 74
    0
  0
LTYPE
  5
41
330
5
100
AcDbSymbolTableRecord
100
AcDbLinetypeTableRecord
  2
DIVIDEX2
 70
    0
  3
Divide (2x) ________  .  .  ________  .  .  _
 72
   65
 73
    6
 40
63.5
 49
25.4
 74
    0
 49
-12.7
 74
    0
 49
0
 74
    0
 49
-12.7
 74
    0
 49
0
 74
    0
 49
-12.7
 74
    0
  0
LTYPE
  5
42
330
5
100
AcDbSymbolTableRecord
100
AcDbLinetypeTableRecord
  2
BORDER
 70
    0
  3
Border __ __ . __ __ . __ __ . __ __ . __ __ .
 72
   65
 73
    6
 40
44.45
 49
12.7
 74
    0
 49
-6.35
 74
    0
 49
12.7
 74
    0
 49
-6.35
 74
    0
 49
0
 74
    0
 49
-6.35
 74
    0
  0
LTYPE
  5
43
330
5
100
AcDbSymbolTableRecord
100
AcDbLinetypeTableRecord
  2
BORDERTINY
 70
    0
  3
Border (.15x) __.__.__.__.__.__.__.__.__.__.__.
 72
   65
 73
    6
 40
6.6675
 49
1.905
 74
    0
 49
-0.9525
 74
    0
 49
1.905
 74
    0
 49
-0.9525
 74
    0
 49
0
 74
    0
 49
-0.9525
 74
    0
  0
LTYPE
  5
44
330
5
100
AcDbSymbolTableRecord
100
AcDbLinetypeTableRecord
  2
BORDER2
 70
    0
  3
Border (.5x) __.__.__.__.__.__.__.__.__.__.__.
 72
   65
 73
    6
 40
22.225
 49
6.35
 74
    0
 49
-3.175
 74
    0
 49
6.35
 74
    0
 49
-3.175
 74
    0
 49
0
 74
    0
 49
-3.175
 74
    0
  0
LTYPE
  5
45
330
5
100
AcDbSymbolTableRecord
100
AcDbLinetypeTableRecord
  2
BORDERX2
 70
    0
  3
Border (2x) ____  ____  .  ____  ____  .  ___
 72
   65
 73
    6
 40
88.89999999999999
 49
25.4
 74
    0
 49
-12.7
 74
    0
 49
25.4
 74
    0
 49
-12.7
 74
    0
 49
0
 74
    0
 49
-12.7
 74
    0
  0
LTYPE
  5
46
330
5
100
AcDbSymbolTableRecord
100
AcDbLinetypeTableRecord
  2
CENTER
 70
    0
  3
Center ____ _ ____ _ ____ _ ____ _ ____ _ ____
 72
   65
 73
    4
 40
50.8
 49
31.75
 74
    0
 49
-6.35
 74
    0
 49
6.35
 74
    0
 49
-6.35
 74
    0
  0
LTYPE
  5
47
330
5
100
AcDbSymbolTableRecord
100
AcDbLinetypeTableRecord
  2
CENTERTINY
 70
    0
  3
Center (.15x) ___ _ ___ _ ___ _ ___ _ ___ _ ___
 72
   65
 73
    4
 40
7.619999999999999
 49
4.7625
 74
    0
 49
-0.9525
 74
    0
 49
0.9525
 74
    0
 49
-0.9525
 74
    0
  0
LTYPE
  5
48
330
5
100
AcDbSymbolTableRecord
100
AcDbLinetypeTableRecord
  2
CENTER2
 70
    0
  3
Center (.5x) ___ _ ___ _ ___ _ ___ _ ___ _ ___
 72
   65
 73
    4
 40
28.575
 49
19.05
 74
    0
 49
-3.175
 74
    0
 49
3.175
 74
    0
 49
-3.175
 74
    0
  0
LTYPE
  5
49
330
5
100
AcDbSymbolTableRecord
100
AcDbLinetypeTableRecord
  2
CENTERX2
 70
    0
  3
Center (2x) ________  __  ________  __  _____
 72
   65
 73
    4
 40
101.6
 49
63.5
 74
    0
 49
-12.7
 74
    0
 49
12.7
 74
    0
 49
-12.7
 74
    0
  0
ENDTAB
  0
TABLE
  2
LAYER
  5
2
330
0
100
AcDbSymbolTable
 70
    1
  0
LAYER
  5
10
330
2
100
AcDbSymbolTableRecord
100
AcDbLayerTableRecord
  2
0
 70
    0
 62
    7
  6
CONTINUOUS
370
    0
390
F
  0
LAYER
  5
4A
330
2
100
AcDbSymbolTableRecord
100
AcDbLayerTableRecord
  2
1-grilles
 70
    0
 62
    7
  6
CONTINUOUS
370
    0
390
F
  0
LAYER
  5
4B
330
2
100
AcDbSymbolTableRecord
100
AcDbLayerTableRecord
  2
1-grilles-aerations-plafond
 70
    0
 62
    7
  6
CONTINUOUS
370
    0
390
F
  0
LAYER
  5
4C
330
2
100
AcDbSymbolTableRecord
100
AcDbLayerTableRecord
  2
1-grlle-caisse
 70
    0
 62
    7
  6
CONTINUOUS
370
    0
390
F
  0
LAYER
  5
4D
330
2
100
AcDbSymbolTableRecord
100
AcDbLayerTableRecord
  2
1-tole-caisse
 70
    0
 62
    7
  6
CONTINUOUS
370
    0
390
F
  0
LAYER
  5
4E
330
2
100
AcDbSymbolTableRecord
100
AcDbLayerTableRecord
  2
1-tole-detail
 70
    0
 62
    7
  6
CONTINUOUS
370
   -3
390
F
  0
LAYER
  5
4F
330
2
100
AcDbSymbolTableRecord
100
AcDbLayerTableRecord
  2
1-tole-joints
 70
    0
 62
    7
  6
CONTINUOUS
370
    0
390
F
  0
LAYER
  5
50
330
2
100
AcDbSymbolTableRecord
100
AcDbLayerTableRecord
  2
2-hublots-decoupe
 70
    0
 62
    7
  6
CONTINUOUS
370
    0
390
F
  0
LAYER
  5
51
330
2
100
AcDbSymbolTableRecord
100
AcDbLayerTableRecord
  2
_CADRES
 70
    0
 62
    8
  6
CONTINUOUS
370
    0
390
F
  0
LAYER
  5
52
330
2
100
AcDbSymbolTableRecord
100
AcDbLayerTableRecord
  2
_LEGENDE
 70
    0
 62
  253
420
10526884
  6
CONTINUOUS
370
    0
390
F
  0
ENDTAB
  0
TABLE
  2
STYLE
  5
3
330
0
100
AcDbSymbolTable
 70
    3
  0
STYLE
  5
53
330
2
100
AcDbSymbolTableRecord
100
AcDbTextStyleTableRecord
  2
standard
 70
    0
 40
0
 41
1
 50
0
 71
    0
 42
1
  3
standard
  4

  0
ENDTAB
  0
TABLE
  2
VIEW
  5
6
330
0
100
AcDbSymbolTable
 70
    0
  0
ENDTAB
  0
TABLE
  2
UCS
  5
7
330
0
100
AcDbSymbolTable
 70
    0
  0
ENDTAB
  0
TABLE
  2
APPID
  5
9
330
0
100
AcDbSymbolTable
 70
    1
  0
APPID
  5
12
330
9
100
AcDbSymbolTableRecord
100
AcDbRegAppTableRecord
  2
ACAD
 70
    0
  0
APPID
  5
54
330
9
100
AcDbSymbolTableRecord
100
AcDbRegAppTableRecord
  2
LibreCad
 70
    0
  0
ENDTAB
  0
TABLE
  2
DIMSTYLE
  5
A
330
0
100
AcDbSymbolTable
 70
    1
100
AcDbDimStyleTable
 71
    1
  0
DIMSTYLE
105
55
330
A
100
AcDbSymbolTableRecord
100
AcDbDimStyleTableRecord
  2
Standard
 70
    0
 40
1
 41
2.5
 42
0.625
 43
0.38
 44
1.25
 45
0
 46
0
 47
0
 48
0
 49
1
140
2.5
141
0.09
142
0
143
25.4
144
1
145
0
146
1
147
0.625
148
0
 71
    0
 72
    0
 73
    0
 74
    1
 75
    0
 76
    0
 77
    0
 78
    1
 79
    0
170
    0
171
    2
172
    0
173
    0
174
    0
175
    0
176
    0
177
    0
178
    0
179
    0
271
    2
272
    4
273
    2
274
    2
275
    0
276
    0
277
    2
278
    0
279
    0
280
    0
281
    0
282
    0
283
    1
284
    0
285
    0
286
    0
288
    0
289
    3
340
standard
341

371
   -2
372
   -2
  0
ENDTAB
  0
TABLE
  2
BLOCK_RECORD
  5
1
330
0
100
AcDbSymbolTable
 70
    2
  0
BLOCK_RECORD
  5
1F
330
1
100
AcDbSymbolTableRecord
100
AcDbBlockTableRecord
  2
*Model_Space
 70
    0
280
    1
281
    0
  0
BLOCK_RECORD
  5
1E
330
1
100
AcDbSymbolTableRecord
100
AcDbBlockTableRecord
  2
*Paper_Space
 70
    0
280
    1
281
    0
  0
BLOCK_RECORD
  5
56
330
1
100
AcDbSymbolTableRecord
100
AcDbBlockTableRecord
  2
*D1
 70
    0
280
    1
281
    0
  0
BLOCK_RECORD
  5
59
330
1
100
AcDbSymbolTableRecord
100
AcDbBlockTableRecord
  2
*D3
 70
    0
280
    1
281
    0
  0
BLOCK_RECORD
  5
5C
330
1
100
AcDbSymbolTableRecord
100
AcDbBlockTableRecord
  2
*D2
 70
    0
280
    1
281
    0
  0
ENDTAB
  0
ENDSEC
  0
SECTION
  2
BLOCKS
  0
BLOCK
  5
20
330
1F
100
AcDbEntity
  8
0
100
AcDbBlockBegin
  2
*Model_Space
 70
    0
 10
0
 20
0
 30
0
  3
*Model_Space
  1

  0
ENDBLK
  5
21
330
1F
100
AcDbEntity
  8
0
100
AcDbBlockEnd
  0
BLOCK
  5
1C
330
1B
100
AcDbEntity
  8
0
100
AcDbBlockBegin
  2
*Paper_Space
 70
    0
 10
0
 20
0
 30
0
  3
*Paper_Space
  1

  0
ENDBLK
  5
1D
330
1F
100
AcDbEntity
  8
0
100
AcDbBlockEnd
  0
BLOCK
  5
57
330
56
100
AcDbEntity
  8
0
100
AcDbBlockBegin
  2
*D1
 70
    1
 10
0
 20
0
  3
*D1
  1

  0
LINE
  5
5F
100
AcDbEntity
  8
_LEGENDE
  6
ByLayer
 62
  256
370
   -1
100
AcDbLine
 10
13100
 20
4058.510843826851
 11
13100
 21
4900
  0
MTEXT
  5
60
100
AcDbEntity
  8
_LEGENDE
  6
ByLayer
 62
  256
370
   -1
100
AcDbMText
 10
13067.1875
 20
4479.255421913433
 30
0
 40
2.5
 41
13.61111111111111
 71
    5
 72
    1
  1
841.4892
  7
standard
210
0
220
0
230
1
 50
90
 73
    2
 44
1
  0
SOLID
  5
61
100
AcDbEntity
  8
_LEGENDE
  6
ByLayer
 62
  256
370
   -1
100
AcDbTrace
 10
13100
 20
4058.510843826851
 30
0
 11
13099.58371534223
 21
4061.010843826851
 31
0
 12
13100.41628465777
 22
4061.010843826851
 32
0
 13
13100.41628465777
 23
4061.010843826851
 33
0
  0
SOLID
  5
62
100
AcDbEntity
  8
_LEGENDE
  6
ByLayer
 62
  256
370
   -1
100
AcDbTrace
 10
13100
 20
4900
 30
0
 11
13100.41628465777
 21
4897.5
 31
0
 12
13099.58371534223
 22
4897.5
 32
0
 13
13099.58371534223
 23
4897.5
 33
0
  0
LINE
  5
63
100
AcDbEntity
  8
_LEGENDE
  6
ByLayer
 62
  256
370
   -1
100
AcDbLine
 10
13010.625
 20
4058.510843826851
 11
13101.25
 21
4058.510843826851
  0
LINE
  5
64
100
AcDbEntity
  8
_LEGENDE
  6
ByLayer
 62
  256
370
   -1
100
AcDbLine
 10
13010.625
 20
4900
 11
13101.25
 21
4900
  0
ENDBLK
  5
58
330
56
100
AcDbEntity
  8
0
100
AcDbBlockEnd
  0
BLOCK
  5
5A
330
59
100
AcDbEntity
  8
0
100
AcDbBlockBegin
  2
*D3
 70
    1
 10
0
 20
0
  3
*D3
  1

  0
LINE
  5
65
100
AcDbEntity
  8
_LEGENDE
  6
ByLayer
 62
  256
370
   -1
100
AcDbLine
 10
12900
 20
18132.83825237006
 11
13620
 21
18400
  0
SOLID
  5
66
100
AcDbEntity
  8
_LEGENDE
  6
ByLayer
 62
  256
370
   -1
100
AcDbTrace
 10
12900
 20
18132.83825237006
 30
0
 11
12902.19902896389
 21
18134.09823829549
 31
0
 12
12902.48866416949
 22
18133.31767240278
 32
0
 13
12902.48866416949
 23
18133.31767240278
 33
0
  0
ENDBLK
  5
5B
330
59
100
AcDbEntity
  8
0
100
AcDbBlockEnd
  0
BLOCK
  5
5D
330
5C
100
AcDbEntity
  8
0
100
AcDbBlockBegin
  2
*D2
 70
    1
 10
0
 20
0
  3
*D2
  1

  0
LINE
  5
67
100
AcDbEntity
  8
_LEGENDE
  6
ByLayer
 62
  256
370
   -1
100
AcDbLine
 10
13100
 20
6941.489156173149
 11
13100
 21
6100
  0
MTEXT
  5
68
100
AcDbEntity
  8
_LEGENDE
  6
ByLayer
 62
  256
370
   -1
100
AcDbMText
 10
13067.1875
 20
6520.744578086567
 30
0
 40
2.5
 41
13.61111111111111
 71
    5
 72
    1
  1
841.4892
  7
standard
210
0
220
0
230
1
 50
90
 73
    2
 44
1
  0
SOLID
  5
69
100
AcDbEntity
  8
_LEGENDE
  6
ByLayer
 62
  256
370
   -1
100
AcDbTrace
 10
13100
 20
6941.489156173149
 30
0
 11
13100.41628465777
 21
6938.989156173149
 31
0
 12
13099.58371534223
 22
6938.989156173149
 32
0
 13
13099.58371534223
 23
6938.989156173149
 33
0
  0
SOLID
  5
6A
100
AcDbEntity
  8
_LEGENDE
  6
ByLayer
 62
  256
370
   -1
100
AcDbTrace
 10
13100
 20
6100
 30
0
 11
13099.58371534223
 21
6102.5
 31
0
 12
13100.41628465777
 22
6102.5
 32
0
 13
13100.41628465777
 23
6102.5
 33
0
  0
LINE
  5
6B
100
AcDbEntity
  8
_LEGENDE
  6
ByLayer
 62
  256
370
   -1
100
AcDbLine
 10
13010.625
 20
6941.489156173149
 11
13101.25
 21
6941.489156173149
  0
LINE
  5
6C
100
AcDbEntity
  8
_LEGENDE
  6
ByLayer
 62
  256
370
   -1
100
AcDbLine
 10
13010.625
 20
6100
 11
13101.25
 21
6100
  0
ENDBLK
  5
5E
330
5C
100
AcDbEntity
  8
0
100
AcDbBlockEnd
  0
ENDSEC
  0
SECTION
  2
ENTITIES
  0
MTEXT
  5
6D
100
AcDbEntity
  8
_LEGENDE
  6
ByLayer
 62
  256
370
   -1
100
AcDbMText
 10
5137.606397396507
 20
4012.982284084057
 30
0
 40
80
 41
97.77777777778773
 71
    9
 72
    1
  1
C5
  7
standard
210
0
220
0
230
1
 50
0
 73
    2
 44
1
  0
MTEXT
  5
6E
100
AcDbEntity
  8
_LEGENDE
  6
ByLayer
 62
  256
370
   -1
100
AcDbMText
 10
4397.606397396507
 20
6523.000000000007
 30
0
 40
80
 41
213.3333333333333
 71
    8
 72
    1
  1
144%%D
  7
standard
210
0
220
0
230
1
 50
0
 73
    2
 44
1
  0
MTEXT
  5
6F
100
AcDbEntity
  8
_LEGENDE
  6
ByLayer
 62
  256
370
   -1
100
AcDbMText
 10
4397.606397396507
 20
4476.999999999993
 30
0
 40
80
 41
213.3333333333333
 71
    8
 72
    1
  1
144%%D
  7
standard
210
0
220
0
230
1
 50
0
 73
    2
 44
1
  0
MTEXT
  5
70
100
AcDbEntity
  8
_LEGENDE
  6
ByLayer
 62
  256
370
   -1
100
AcDbMText
 10
4397.606397396507
 20
6777.01771591595
 30
0
 40
80
 41
195.5555555555605
 71
    8
 72
    1
  1
126%%D
  7
standard
210
0
220
0
230
1
 50
0
 73
    2
 44
1
  0
MTEXT
  5
71
100
AcDbEntity
  8
_LEGENDE
  6
ByLayer
 62
  256
370
   -1
100
AcDbMText
 10
4397.606397396507
 20
4222.982283887242
 30
0
 40
80
 41
195.5555555555605
 71
    8
 72
    1
  1
126%%D
  7
standard
210
0
220
0
230
1
 50
0
 73
    2
 44
1
  0
MTEXT
  5
72
100
AcDbEntity
  8
_LEGENDE
  6
ByLayer
 62
  256
370
   -1
100
AcDbMText
 10
11298.34546080101
 20
4738.499999999993
 30
0
 40
80
 41
195.5555555555605
 71
    8
 72
    1
  1
158%%D
  7
standard
210
0
220
0
230
1
 50
0
 73
    2
 44
1
  0
MTEXT
  5
73
100
AcDbEntity
  8
_LEGENDE
  6
ByLayer
 62
  256
370
   -1
100
AcDbMText
 10
11298.34546080101
 20
6261.499999999993
 30
0
 40
80
 41
195.5555555555605
 71
    8
 72
    1
  1
158%%D
  7
standard
210
0
220
0
230
1
 50
0
 73
    2
 44
1
  0
MTEXT
  5
74
100
AcDbEntity
  8
_LEGENDE
  6
ByLayer
 62
  256
370
   -1
100
AcDbMText
 10
11374.13273937214
 20
6388.703768630192
 30
0
 40
80
 41
195.5555555555605
 71
    8
 72
    1
  1
152%%D
  7
standard
210
0
220
0
230
1
 50
0
 73
    2
 44
1
  0
MTEXT
  5
75
100
AcDbEntity
  8
_LEGENDE
  6
ByLayer
 62
  256
370
   -1
100
AcDbMText
 10
11374.13273937214
 20
4611.296231369823
 30
0
 40
80
 41
195.5555555555605
 71
    8
 72
    1
  1
152%%D
  7
standard
210
0
220
0
230
1
 50
0
 73
    2
 44
1
  0
MTEXT
  5
76
100
AcDbEntity
  8
_LEGENDE
  6
ByLayer
 62
  256
370
   -1
100
AcDbMText
 10
3137.606397396507
 20
4486.999999999993
 30
0
 40
80
 41
88.88887192871691
 71
    6
 72
    1
  1
S1
  7
standard
210
0
220
0
230
1
 50
0
 73
    2
 44
1
  0
MTEXT
  5
77
100
AcDbEntity
  8
_LEGENDE
  6
ByLayer
 62
  256
370
   -1
100
AcDbMText
 10
2837.606397396507
 20
4181.999999999993
 30
0
 40
80
 41
106.6666497064947
 71
    9
 72
    1
  1
S2
  7
standard
210
0
220
0
230
1
 50
0
 73
    2
 44
1
  0
MTEXT
  5
78
100
AcDbEntity
  8
_LEGENDE
  6
ByLayer
 62
  256
370
   -1
100
AcDbMText
 10
2837.606397396507
 20
5609.999999999993
 30
0
 40
80
 41
106.6666497064997
 71
    9
 72
    1
  1
S3
  7
standard
210
0
220
0
230
1
 50
0
 73
    2
 44
1
  0
MTEXT
  5
79
100
AcDbEntity
  8
_LEGENDE
  6
ByLayer
 62
  256
370
   -1
100
AcDbMText
 10
14490
 20
4979.999999999993
 30
0
 40
80
 41
106.6666666666667
 71
    9
 72
    1
  1
N2
  7
standard
210
0
220
0
230
1
 50
0
 73
    2
 44
1
  0
MTEXT
  5
7A
100
AcDbEntity
  8
_LEGENDE
  6
ByLayer
 62
  256
370
   -1
100
AcDbMText
 10
13808
 20
6029.999999999993
 30
0
 40
80
 41
204.4444444444494
 71
    8
 72
    1
  1
146%%D
  7
standard
210
0
220
0
230
1
 50
0
 73
    2
 44
1
  0
MTEXT
  5
7B
100
AcDbEntity
  8
_LEGENDE
  6
ByLayer
 62
  256
370
   -1
100
AcDbMText
 10
13808
 20
4969.999999999993
 30
0
 40
80
 41
204.4444444444494
 71
    8
 72
    1
  1
146%%D
  7
standard
210
0
220
0
230
1
 50
0
 73
    2
 44
1
  0
MTEXT
  5
7C
100
AcDbEntity
  8
_LEGENDE
  6
ByLayer
 62
  256
370
   -1
100
AcDbMText
 10
6737.606397396507
 20
4012.982284084042
 30
0
 40
80
 41
106.6666666666716
 71
    9
 72
    1
  1
C4
  7
standard
210
0
220
0
230
1
 50
0
 73
    2
 44
1
  0
MTEXT
  5
7D
100
AcDbEntity
  8
_LEGENDE
  6
ByLayer
 62
  256
370
   -1
100
AcDbMText
 10
5997.606397396507
 20
6523.000000000007
 30
0
 40
80
 41
213.3333333333333
 71
    8
 72
    1
  1
144%%D
  7
standard
210
0
220
0
230
1
 50
0
 73
    2
 44
1
  0
MTEXT
  5
7E
100
AcDbEntity
  8
_LEGENDE
  6
ByLayer
 62
  256
370
   -1
100
AcDbMText
 10
5997.606397396507
 20
4476.999999999993
 30
0
 40
80
 41
213.3333333333333
 71
    8
 72
    1
  1
144%%D
  7
standard
210
0
220
0
230
1
 50
0
 73
    2
 44
1
  0
MTEXT
  5
7F
100
AcDbEntity
  8
_LEGENDE
  6
ByLayer
 62
  256
370
   -1
100
AcDbMText
 10
5997.606397396507
 20
6777.01771591595
 30
0
 40
80
 41
195.5555555555605
 71
    8
 72
    1
  1
126%%D
  7
standard
210
0
220
0
230
1
 50
0
 73
    2
 44
1
  0
MTEXT
  5
80
100
AcDbEntity
  8
_LEGENDE
  6
ByLayer
 62
  256
370
   -1
100
AcDbMText
 10
5997.606397396507
 20
4222.982283887242
 30
0
 40
80
 41
195.5555555555605
 71
    8
 72
    1
  1
126%%D
  7
standard
210
0
220
0
230
1
 50
0
 73
    2
 44
1
  0
MTEXT
  5
81
100
AcDbEntity
  8
_LEGENDE
  6
ByLayer
 62
  256
370
   -1
100
AcDbMText
 10
8147.606397396507
 20
4012.982284084057
 30
0
 40
80
 41
97.77777777778773
 71
    9
 72
    1
  1
C3
  7
standard
210
0
220
0
230
1
 50
0
 73
    2
 44
1
  0
MTEXT
  5
82
100
AcDbEntity
  8
_LEGENDE
  6
ByLayer
 62
  256
370
   -1
100
AcDbMText
 10
7502.606397396507
 20
6523.000000000007
 30
0
 40
80
 41
213.3333333333333
 71
    8
 72
    1
  1
144%%D
  7
standard
210
0
220
0
230
1
 50
0
 73
    2
 44
1
  0
MTEXT
  5
83
100
AcDbEntity
  8
_LEGENDE
  6
ByLayer
 62
  256
370
   -1
100
AcDbMText
 10
7502.606397396507
 20
4476.999999999993
 30
0
 40
80
 41
213.3333333333333
 71
    8
 72
    1
  1
144%%D
  7
standard
210
0
220
0
230
1
 50
0
 73
    2
 44
1
  0
MTEXT
  5
84
100
AcDbEntity
  8
_LEGENDE
  6
ByLayer
 62
  256
370
   -1
100
AcDbMText
 10
7502.606397396507
 20
6777.01771591595
 30
0
 40
80
 41
195.5555555555605
 71
    8
 72
    1
  1
126%%D
  7
standard
210
0
220
0
230
1
 50
0
 73
    2
 44
1
  0
MTEXT
  5
85
100
AcDbEntity
  8
_LEGENDE
  6
ByLayer
 62
  256
370
   -1
100
AcDbMText
 10
7502.606397396507
 20
4222.982283887242
 30
0
 40
80
 41
195.5555555555605
 71
    8
 72
    1
  1
126%%D
  7
standard
210
0
220
0
230
1
 50
0
 73
    2
 44
1
  0
MTEXT
  5
86
100
AcDbEntity
  8
_LEGENDE
  6
ByLayer
 62
  256
370
   -1
100
AcDbMText
 10
9177.606397396507
 20
4012.982284084057
 30
0
 40
80
 41
97.77777777778276
 71
    9
 72
    1
  1
C2
  7
standard
210
0
220
0
230
1
 50
0
 73
    2
 44
1
  0
MTEXT
  5
87
100
AcDbEntity
  8
_LEGENDE
  6
ByLayer
 62
  256
370
   -1
100
AcDbMText
 10
8722.606397396507
 20
6523.000000000007
 30
0
 40
80
 41
213.3333333333333
 71
    8
 72
    1
  1
144%%D
  7
standard
210
0
220
0
230
1
 50
0
 73
    2
 44
1
  0
MTEXT
  5
88
100
AcDbEntity
  8
_LEGENDE
  6
ByLayer
 62
  256
370
   -1
100
AcDbMText
 10
8722.606397396507
 20
4476.999999999993
 30
0
 40
80
 41
213.3333333333333
 71
    8
 72
    1
  1
144%%D
  7
standard
210
0
220
0
230
1
 50
0
 73
    2
 44
1
  0
MTEXT
  5
89
100
AcDbEntity
  8
_LEGENDE
  6
ByLayer
 62
  256
370
   -1
100
AcDbMText
 10
8722.606397396507
 20
6777.01771591595
 30
0
 40
80
 41
195.5555555555605
 71
    8
 72
    1
  1
126%%D
  7
standard
210
0
220
0
230
1
 50
0
 73
    2
 44
1
  0
MTEXT
  5
8A
100
AcDbEntity
  8
_LEGENDE
  6
ByLayer
 62
  256
370
   -1
100
AcDbMText
 10
8722.606397396507
 20
4222.982283887242
 30
0
 40
80
 41
195.5555555555605
 71
    8
 72
    1
  1
126%%D
  7
standard
210
0
220
0
230
1
 50
0
 73
    2
 44
1
  0
MTEXT
  5
8B
100
AcDbEntity
  8
_LEGENDE
  6
ByLayer
 62
  256
370
   -1
100
AcDbMText
 10
10322.60639739649
 20
4012.982284084057
 30
0
 40
80
 41
80.00000000000496
 71
    9
 72
    1
  1
C1
  7
standard
210
0
220
0
230
1
 50
0
 73
    2
 44
1
  0
MTEXT
  5
8C
100
AcDbEntity
  8
_LEGENDE
  6
ByLayer
 62
  256
370
   -1
100
AcDbMText
 10
9810.106397396492
 20
6523.000000000007
 30
0
 40
80
 41
213.3333333333333
 71
    8
 72
    1
  1
144%%D
  7
standard
210
0
220
0
230
1
 50
0
 73
    2
 44
1
  0
MTEXT
  5
8D
100
AcDbEntity
  8
_LEGENDE
  6
ByLayer
 62
  256
370
   -1
100
AcDbMText
 10
9810.106397396499
 20
4476.999999999993
 30
0
 40
80
 41
213.3333333333333
 71
    8
 72
    1
  1
144%%D
  7
standard
210
0
220
0
230
1
 50
0
 73
    2
 44
1
  0
MTEXT
  5
8E
100
AcDbEntity
  8
_LEGENDE
  6
ByLayer
 62
  256
370
   -1
100
AcDbMText
 10
9810.106397396492
 20
6777.01771591595
 30
0
 40
80
 41
195.5555555555605
 71
    8
 72
    1
  1
126%%D
  7
standard
210
0
220
0
230
1
 50
0
 73
    2
 44
1
  0
MTEXT
  5
8F
100
AcDbEntity
  8
_LEGENDE
  6
ByLayer
 62
  256
370
   -1
100
AcDbMText
 10
9810.106397396499
 20
4222.982283887242
 30
0
 40
80
 41
195.5555555555605
 71
    8
 72
    1
  1
126%%D
  7
standard
210
0
220
0
230
1
 50
0
 73
    2
 44
1
  0
MTEXT
  5
90
100
AcDbEntity
  8
_LEGENDE
  6
ByLayer
 62
  256
370
   -1
100
AcDbMText
 10
827.1063973965101
 20
5609.999999999993
 30
0
 40
80
 41
106.6666497064997
 71
    9
 72
    1
  1
S5
  7
standard
210
0
220
0
230
1
 50
0
 73
    2
 44
1
  0
MTEXT
  5
91
100
AcDbEntity
  8
_LEGENDE
  6
ByLayer
 62
  256
370
   -1
100
AcDbMText
 10
827.1063973965101
 20
4216.499999999993
 30
0
 40
80
 41
115.5555385953836
 71
    9
 72
    1
  1
S4
  7
standard
210
0
220
0
230
1
 50
0
 73
    2
 44
1
  0
MTEXT
  5
92
100
AcDbEntity
  8
_LEGENDE
  6
ByLayer
 62
  256
370
   -1
100
AcDbMText
 10
10322.60639739648
 20
1562.98228408401
 30
0
 40
80
 41
80
 71
    9
 72
    1
  1
E1
  7
standard
210
0
220
0
230
1
 50
0
 73
    2
 44
1
  0
MTEXT
  5
93
100
AcDbEntity
  8
_LEGENDE
  6
ByLayer
 62
  256
370
   -1
100
AcDbMText
 10
9177.606397396507
 20
3606.982284084013
 30
0
 40
80
 41
97.77777777777779
 71
    9
 72
    1
  1
E2
  7
standard
210
0
220
0
230
1
 50
0
 73
    2
 44
1
  0
MTEXT
  5
94
100
AcDbEntity
  8
_LEGENDE
  6
ByLayer
 62
  256
370
   -1
100
AcDbMText
 10
8147.606397396507
 20
1562.98228408401
 30
0
 40
80
 41
97.77777777778276
 71
    9
 72
    1
  1
E3
  7
standard
210
0
220
0
230
1
 50
0
 73
    2
 44
1
  0
MTEXT
  5
95
100
AcDbEntity
  8
_LEGENDE
  6
ByLayer
 62
  256
370
   -1
100
AcDbMText
 10
6737.606397396507
 20
1702.98228408401
 30
0
 40
80
 41
106.6666666666667
 71
    9
 72
    1
  1
E4
  7
standard
210
0
220
0
230
1
 50
0
 73
    2
 44
1
  0
MTEXT
  5
96
100
AcDbEntity
  8
_LEGENDE
  6
ByLayer
 62
  256
370
   -1
100
AcDbMText
 10
5137.606397396507
 20
1562.98228408401
 30
0
 40
80
 41
97.77777777778276
 71
    9
 72
    1
  1
E5
  7
standard
210
0
220
0
230
1
 50
0
 73
    2
 44
1
  0
MTEXT
  5
97
100
AcDbEntity
  8
_LEGENDE
  6
ByLayer
 62
  256
370
   -1
100
AcDbMText
 10
10322.60639739648
 20
7207.017715915987
 30
0
 40
80
 41
115.5555555555556
 71
    9
 72
    1
  1
W1
  7
standard
210
0
220
0
230
1
 50
0
 73
    2
 44
1
  0
MTEXT
  5
98
100
AcDbEntity
  8
_LEGENDE
  6
ByLayer
 62
  256
370
   -1
100
AcDbMText
 10
9177.606397396507
 20
7207.017715915987
 30
0
 40
80
 41
133.3333333333333
 71
    9
 72
    1
  1
W2
  7
standard
210
0
220
0
230
1
 50
0
 73
    2
 44
1
  0
MTEXT
  5
99
100
AcDbEntity
  8
_LEGENDE
  6
ByLayer
 62
  256
370
   -1
100
AcDbMText
 10
8147.606397396507
 20
7207.017715915987
 30
0
 40
80
 41
133.3333333333383
 71
    9
 72
    1
  1
W3
  7
standard
210
0
220
0
230
1
 50
0
 73
    2
 44
1
  0
MTEXT
  5
9A
100
AcDbEntity
  8
_LEGENDE
  6
ByLayer
 62
  256
370
   -1
100
AcDbMText
 10
6737.606397396507
 20
7207.017715915987
 30
0
 40
80
 41
142.2222222222222
 71
    9
 72
    1
  1
W4
  7
standard
210
0
220
0
230
1
 50
0
 73
    2
 44
1
  0
MTEXT
  5
9B
100
AcDbEntity
  8
_LEGENDE
  6
ByLayer
 62
  256
370
   -1
100
AcDbMText
 10
5137.606397396507
 20
7207.017715915958
 30
0
 40
80
 41
133.3333333333383
 71
    9
 72
    1
  1
W5
  7
standard
210
0
220
0
230
1
 50
0
 73
    2
 44
1
  0
MTEXT
  5
9C
100
AcDbEntity
  8
_LEGENDE
  6
ByLayer
 62
  256
370
   -1
100
AcDbMText
 10
11313.24355820425
 20
4192.842231104813
 30
0
 40
100
 41
111.1111111111111
 71
    7
 72
    1
  1
N1
  7
standard
210
0
220
0
230
1
 50
0
 73
    2
 44
1
  0
MTEXT
  5
9D
100
AcDbEntity
  8
_LEGENDE
  6
ByLayer
 62
  256
370
   -1
100
AcDbMText
 10
13293.5
 20
5000
 30
0
 40
100
 41
133.3333333333395
 71
    7
 72
    1
  1
N5
  7
standard
210
0
220
0
230
1
 50
0
 73
    2
 44
1
  0
MTEXT
  5
9E
100
AcDbEntity
  8
_LEGENDE
  6
ByLayer
 62
  256
370
   -1
100
AcDbMText
 10
13334.99999999966
 20
4066.028347076528
 30
0
 40
100
 41
144.4444444444445
 71
    7
 72
    1
  1
N4
  7
standard
210
0
220
0
230
1
 50
0
 73
    2
 44
1
  0
DIMENSION
  5
9F
100
AcDbEntity
  8
_LEGENDE
  6
ByLayer
 62
  256
370
   -1
100
AcDbDimension
  2
*D1
 10
13100
 20
4900
 30
0
 11
13067.1875
 21
4479.255421913433
 31
0
 70
   32
 71
    5
  3
Standard
 53
0
210
0
220
0
230
1
100
AcDbAlignedDimension
 13
13010
 23
4058.510843826851
 33
0
 14
13010
 24
4900
 34
0
 50
90
100
AcDbRotatedDimension
  0
MTEXT
  5
A0
100
AcDbEntity
  8
_LEGENDE
  6
ByLayer
 62
  256
370
   -1
100
AcDbMText
 10
12250
 20
4108.510843826851
 30
0
 40
100
 41
133.3333333333333
 71
    7
 72
    1
  1
N2
  7
standard
210
0
220
0
230
1
 50
0
 73
    2
 44
1
  0
DIMENSION
  5
A1
100
AcDbEntity
  8
_LEGENDE
  6
ByLayer
 62
  256
370
   -1
100
AcDbDimension
  2
*D2
 10
13100
 20
6100
 30
0
 11
13067.1875
 21
6520.744578086567
 31
0
 70
   32
 71
    5
  3
Standard
 53
0
210
0
220
0
230
1
100
AcDbAlignedDimension
 13
13010
 23
6941.489156173149
 33
0
 14
13010
 24
6100
 34
0
 50
270
100
AcDbRotatedDimension
  0
MTEXT
  5
A2
100
AcDbEntity
  8
_LEGENDE
  6
ByLayer
 62
  256
370
   -1
100
AcDbMText
 10
12250
 20
6250
 30
0
 40
100
 41
133.3333333333395
 71
    1
 72
    1
  1
N3
  7
standard
210
0
220
0
230
1
 50
0
 73
    2
 44
1
  0
LWPOLYLINE
  5
A3
100
AcDbEntity
  8
_CADRES
  6
ByLayer
 62
  256
370
   -1
100
AcDbPolyline
 90
    4
 70
    1
 43
0
 10
0
 20
10000
 10
15000
 20
10000
 10
15000
 20
0
 10
0
 20
0
  0
MTEXT
  5
A4
100
AcDbEntity
  8
_CADRES
  6
ByLayer
 62
  256
370
   -1
100
AcDbMText
 10
100
 20
500
 30
0
 40
100
 41
2152.777777777782
 71
    7
 72
    1
  1
TÔLE ALU LAQUÉ BLANC EP 1.5
  7
standard
210
0
220
0
230
1
 50
0
 73
    2
 44
1
  0
MTEXT
  5
A5
100
AcDbEntity
  8
_CADRES
  6
ByLayer
 62
  256
370
   -1
100
AcDbMText
 10
100
 20
100
 30
0
 40
160
 41
3226.666564905645
 71
    7
 72
    1
  1
DÉTAIL PLAQUES CAROSSERIE
  7
standard
210
0
220
0
230
1
 50
0
 73
    2
 44
1
  0
MTEXT
  5
A6
100
AcDbEntity
  8
_LEGENDE
  6
ByLayer
 62
  256
370
   -1
100
AcDbMText
 10
13334.99999999966
 20
6933.971652923472
 30
0
 40
100
 41
133.3333333333395
 71
    1
 72
    1
  1
N6
  7
standard
210
0
220
0
230
1
 50
0
 73
    2
 44
1
  0
LWPOLYLINE
  5
A7
100
AcDbEntity
  8
1-tole-detail
  6
ByLayer
 62
  256
370
   -1
100
AcDbPolyline
 90
    4
 70
    1
 43
0
 10
3647.606397396507
 20
6997.017715915958
 10
5147.606397396507
 20
6997.017715915958
 10
5147.606397396507
 20
4002.98228408405
 10
3647.606397396507
 20
4002.98228408405
  0
LINE
  5
A8
100
AcDbEntity
  8
1-tole-detail
  6
DASHEDTINY
 62
  256
370
   -1
100
AcDbLine
 10
5147.606397396507
 20
6777.017715915958
 11
3647.606397396507
 21
6777.017715915958
  0
LINE
  5
A9
100
AcDbEntity
  8
1-tole-detail
  6
DASHEDTINY
 62
  256
370
   -1
100
AcDbLine
 10
3647.606397396507
 20
6523.000000000007
 11
5147.606397396507
 21
6523.000000000007
  0
LINE
  5
AA
100
AcDbEntity
  8
1-tole-detail
  6
DASHEDTINY
 62
  256
370
   -1
100
AcDbLine
 10
5147.606397396507
 20
4477
 11
3647.606397396507
 21
4477
  0
LINE
  5
AB
100
AcDbEntity
  8
1-tole-detail
  6
DASHEDTINY
 62
  256
370
   -1
100
AcDbLine
 10
3647.606397396507
 20
4222.98228388725
 11
5147.606397396507
 21
4222.98228388725
  0
LWPOLYLINE
  5
AC
100
AcDbEntity
  8
1-tole-detail
  6
ByLayer
 62
  256
370
   -1
100
AcDbPolyline
 90
    4
 70
    1
 43
0
 10
3929.606397396507
 20
1552.982284084021
 10
5147.606397396507
 20
1552.982284084021
 10
5147.606397396507
 20
3802.982284084021
 10
3929.606397396507
 20
3802.982284084021
  0
LINE
  5
AD
100
AcDbEntity
  8
1-tole-detail
  6
ByLayer
 62
  256
370
   -1
100
AcDbLine
 10
5147.606397396507
 20
3802.982284084021
 11
5147.606397396507
 21
1552.982284084021
  0
LWPOLYLINE
  5
AE
100
AcDbEntity
  8
1-tole-detail
  6
ByLayer
 62
  256
370
   -1
100
AcDbPolyline
 90
    4
 70
    1
 43
0
 10
3929.606397396507
 20
9447.017715915979
 10
5147.606397396507
 20
9447.017715915979
 10
5147.606397396507
 20
7197.017715915979
 10
3929.606397396507
 20
7197.017715915979
  0
LINE
  5
AF
100
AcDbEntity
  8
1-tole-detail
  6
ByLayer
 62
  256
370
   -1
100
AcDbLine
 10
5147.606397396507
 20
7197.017715915979
 11
5147.606397396507
 21
9447.017715915979
  0
LINE
  5
B0
100
AcDbEntity
  8
1-tole-detail
  6
ByLayer
 62
  256
370
   -1
100
AcDbLine
 10
10932.60639739649
 20
4477
 11
10932.60639739649
 21
6523
  0
LINE
  5
B1
100
AcDbEntity
  8
1-tole-detail
  6
DASHEDTINY
 62
  256
370
   -1
100
AcDbLine
 10
10932.60639739649
 20
6523
 11
11664.08452420554
 21
6000
  0
LINE
  5
B2
100
AcDbEntity
  8
1-tole-detail
  6
DASHEDTINY
 62
  256
370
   -1
100
AcDbLine
 10
10932.60639739649
 20
4477
 11
11664.08452420554
 21
5000
  0
LINE
  5
B3
100
AcDbEntity
  8
1-tole-detail
  6
ByLayer
 62
  256
370
   -1
100
AcDbLine
 10
11664.08452420554
 20
6000
 11
11664.08452420554
 21
5000
  0
LINE
  5
B4
100
AcDbEntity
  8
1-tole-detail
  6
ByLayer
 62
  256
370
   -1
100
AcDbLine
 10
10932.60639739649
 20
6523.000000000007
 11
11058.55567812914
 21
6743.594149247088
  0
LINE
  5
B5
100
AcDbEntity
  8
1-tole-detail
  6
ByLayer
 62
  256
370
   -1
100
AcDbLine
 10
11689.70980061511
 20
6033.813388013223
 11
11664.08452420554
 21
6000
  0
LINE
  5
B6
100
AcDbEntity
  8
1-tole-detail
  6
ByLayer
 62
  256
370
   -1
100
AcDbLine
 10
10932.60639739649
 20
4477.000000000007
 11
11058.55567812914
 21
4256.405850752933
  0
LINE
  5
B7
100
AcDbEntity
  8
1-tole-detail
  6
ByLayer
 62
  256
370
   -1
100
AcDbLine
 10
11689.70980061511
 20
4966.186611986777
 11
11664.08452420554
 21
5000.000000000007
  0
LINE
  5
B8
100
AcDbEntity
  8
1-tole-detail
  6
DASHEDTINY
 62
  256
370
   -1
100
AcDbLine
 10
11058.55567812918
 20
6743.594149247161
 11
11689.70980061511
 21
6033.813388013223
  0
LINE
  5
B9
100
AcDbEntity
  8
1-tole-detail
  6
DASHEDTINY
 62
  256
370
   -1
100
AcDbLine
 10
11058.55567812918
 20
4256.405850752868
 11
11689.70980061511
 21
4966.186611986777
  0
LINE
  5
BA
100
AcDbEntity
  8
1-tole-detail
  6
ByLayer
 62
  256
370
   -1
100
AcDbLine
 10
3147.606397396507
 20
5500
 11
3147.606397396507
 21
4477
  0
LINE
  5
BB
100
AcDbEntity
  8
1-tole-detail
  6
ByLayer
 62
  256
370
   -1
100
AcDbLine
 10
3147.606397396507
 20
5500
 11
3147.606397396507
 21
6523
  0
LINE
  5
BC
100
AcDbEntity
  8
1-tole-detail
  6
ByLayer
 62
  256
370
   -1
100
AcDbLine
 10
3147.606397396507
 20
4477
 11
3047.606397396507
 21
4340.333333333343
  0
LINE
  5
BD
100
AcDbEntity
  8
1-tole-detail
  6
ByLayer
 62
  256
370
   -1
100
AcDbLine
 10
3047.606397396507
 20
6659.666666666672
 11
3147.60639739655
 21
6523.000000000007
  0
LINE
  5
BE
100
AcDbEntity
  8
1-tole-detail
  6
ByLayer
 62
  256
370
   -1
100
AcDbLine
 10
3047.606397396507
 20
6659.666666666672
 11
3047.606397396507
 21
4340.333333333343
  0
LINE
  5
BF
100
AcDbEntity
  8
1-tole-detail
  6
ByLayer
 62
  256
370
   -1
100
AcDbLine
 10
2847.606397396507
 20
4172
 11
1212.60639739651
 21
4172
  0
LINE
  5
C0
100
AcDbEntity
  8
1-tole-detail
  6
ByLayer
 62
  256
370
   -1
100
AcDbLine
 10
1212.60639739651
 20
5400
 11
2847.606397396507
 21
5400
  0
LINE
  5
C1
100
AcDbEntity
  8
1-tole-detail
  6
ByLayer
 62
  256
370
   -1
100
AcDbLine
 10
2847.606397396507
 20
5400
 11
2847.606397396507
 21
4172
  0
LINE
  5
C2
100
AcDbEntity
  8
1-tole-detail
  6
ByLayer
 62
  256
370
   -1
100
AcDbLine
 10
2847.606397396507
 20
6828
 11
1212.60639739651
 21
6828
  0
LINE
  5
C3
100
AcDbEntity
  8
1-tole-detail
  6
ByLayer
 62
  256
370
   -1
100
AcDbLine
 10
1212.60639739651
 20
5600
 11
2847.606397396507
 21
5600
  0
LINE
  5
C4
100
AcDbEntity
  8
1-tole-detail
  6
ByLayer
 62
  256
370
   -1
100
AcDbLine
 10
2847.606397396507
 20
5600
 11
2847.606397396507
 21
6828
  0
LWPOLYLINE
  5
C5
100
AcDbEntity
  8
1-tole-detail
  6
ByLayer
 62
  256
370
   -1
100
AcDbPolyline
 90
    4
 70
    1
 43
0
 10
5247.606397396507
 20
4002.98228408405
 10
6747.606397396507
 20
4002.98228408405
 10
6747.606397396507
 20
6997.017715915958
 10
5247.606397396507
 20
6997.017715915958
  0
LINE
  5
C6
100
AcDbEntity
  8
1-tole-detail
  6
DASHEDTINY
 62
  256
370
   -1
100
AcDbLine
 10
6747.606397396507
 20
6777.017715915958
 11
5247.606397396507
 21
6777.017715915958
  0
LINE
  5
C7
100
AcDbEntity
  8
1-tole-detail
  6
DASHEDTINY
 62
  256
370
   -1
100
AcDbLine
 10
5247.606397396507
 20
6523.000000000007
 11
6747.606397396507
 21
6523.000000000007
  0
LINE
  5
C8
100
AcDbEntity
  8
1-tole-detail
  6
DASHEDTINY
 62
  256
370
   -1
100
AcDbLine
 10
6747.606397396507
 20
4477
 11
5247.606397396507
 21
4477
  0
LINE
  5
C9
100
AcDbEntity
  8
1-tole-detail
  6
DASHEDTINY
 62
  256
370
   -1
100
AcDbLine
 10
5247.606397396507
 20
4222.98228388725
 11
6747.606397396507
 21
4222.98228388725
  0
LINE
  5
CA
100
AcDbEntity
  8
1-tole-detail
  6
ByLayer
 62
  256
370
   -1
100
AcDbLine
 10
6107.606397396507
 20
1552.982284084021
 11
6107.606397396507
 21
1692.982284084021
  0
LINE
  5
CB
100
AcDbEntity
  8
1-tole-detail
  6
ByLayer
 62
  256
370
   -1
100
AcDbLine
 10
6107.606397396507
 20
1692.982284084021
 11
6747.606397396507
 21
1692.982284084021
  0
LINE
  5
CC
100
AcDbEntity
  8
1-tole-detail
  6
ByLayer
 62
  256
370
   -1
100
AcDbLine
 10
6747.606397396507
 20
1692.982284084021
 11
6747.606397396507
 21
3802.982284084021
  0
LINE
  5
CD
100
AcDbEntity
  8
1-tole-detail
  6
ByLayer
 62
  256
370
   -1
100
AcDbLine
 10
6747.606397396507
 20
3802.982284084021
 11
5247.606397396507
 21
3802.982284084021
  0
LINE
  5
CE
100
AcDbEntity
  8
1-tole-detail
  6
ByLayer
 62
  256
370
   -1
100
AcDbLine
 10
5247.606397396507
 20
3802.982284084021
 11
5247.606397396507
 21
1552.982284084021
  0
LINE
  5
CF
100
AcDbEntity
  8
1-tole-detail
  6
ByLayer
 62
  256
370
   -1
100
AcDbLine
 10
5247.606397396507
 20
1552.982284084021
 11
6107.606397396507
 21
1552.982284084021
  0
LINE
  5
D0
100
AcDbEntity
  8
1-tole-detail
  6
ByLayer
 62
  256
370
   -1
100
AcDbLine
 10
6747.606397396507
 20
3802.982284084021
 11
6747.606397396507
 21
1692.982284084021
  0
LINE
  5
D1
100
AcDbEntity
  8
1-tole-detail
  6
ByLayer
 62
  256
370
   -1
100
AcDbLine
 10
6107.606397396507
 20
9447.017715915987
 11
6107.606397396507
 21
9307.017715915987
  0
LINE
  5
D2
100
AcDbEntity
  8
1-tole-detail
  6
ByLayer
 62
  256
370
   -1
100
AcDbLine
 10
6107.606397396507
 20
9307.017715915987
 11
6747.606397396507
 21
9307.017715915987
  0
LINE
  5
D3
100
AcDbEntity
  8
1-tole-detail
  6
ByLayer
 62
  256
370
   -1
100
AcDbLine
 10
6747.606397396507
 20
9307.017715915987
 11
6747.606397396507
 21
7197.017715915987
  0
LINE
  5
D4
100
AcDbEntity
  8
1-tole-detail
  6
ByLayer
 62
  256
370
   -1
100
AcDbLine
 10
6747.606397396507
 20
7197.017715915987
 11
5247.606397396507
 21
7197.017715915979
  0
LINE
  5
D5
100
AcDbEntity
  8
1-tole-detail
  6
ByLayer
 62
  256
370
   -1
100
AcDbLine
 10
5247.606397396507
 20
7197.017715915979
 11
5247.606397396499
 21
9447.017715915979
  0
LINE
  5
D6
100
AcDbEntity
  8
1-tole-detail
  6
ByLayer
 62
  256
370
   -1
100
AcDbLine
 10
5247.606397396499
 20
9447.017715915979
 11
6107.606397396507
 21
9447.017715915987
  0
LINE
  5
D7
100
AcDbEntity
  8
1-tole-detail
  6
ByLayer
 62
  256
370
   -1
100
AcDbLine
 10
6747.606397396507
 20
7197.017715915987
 11
6747.606397396507
 21
9307.017715915987
  0
LWPOLYLINE
  5
D8
100
AcDbEntity
  8
1-tole-detail
  6
ByLayer
 62
  256
370
   -1
100
AcDbPolyline
 90
    4
 70
    1
 43
0
 10
6847.606397396507
 20
6997.017715915958
 10
8157.606397396507
 20
6997.017715915958
 10
8157.606397396507
 20
4002.98228408405
 10
6847.606397396507
 20
4002.98228408405
  0
LINE
  5
D9
100
AcDbEntity
  8
1-tole-detail
  6
DASHEDTINY
 62
  256
370
   -1
100
AcDbLine
 10
8157.606397396507
 20
6777.017715915958
 11
6847.606397396507
 21
6777.017715915958
  0
LINE
  5
DA
100
AcDbEntity
  8
1-tole-detail
  6
DASHEDTINY
 62
  256
370
   -1
100
AcDbLine
 10
6847.606397396507
 20
6523.000000000007
 11
8157.606397396507
 21
6523.000000000007
  0
LINE
  5
DB
100
AcDbEntity
  8
1-tole-detail
  6
DASHEDTINY
 62
  256
370
   -1
100
AcDbLine
 10
8157.606397396507
 20
4477
 11
6847.606397396507
 21
4477
  0
LINE
  5
DC
100
AcDbEntity
  8
1-tole-detail
  6
DASHEDTINY
 62
  256
370
   -1
100
AcDbLine
 10
6847.606397396507
 20
4222.98228388725
 11
8157.606397396507
 21
4222.98228388725
  0
LINE
  5
DD
100
AcDbEntity
  8
1-tole-detail
  6
ByLayer
 62
  256
370
   -1
100
AcDbLine
 10
6847.606397396507
 20
1692.982284084021
 11
6847.606397396507
 21
3802.982284084021
  0
LINE
  5
DE
100
AcDbEntity
  8
1-tole-detail
  6
ByLayer
 62
  256
370
   -1
100
AcDbLine
 10
6847.606397396507
 20
1692.982284084021
 11
7872.606397396507
 21
1692.982284084021
  0
LINE
  5
DF
100
AcDbEntity
  8
1-tole-detail
  6
ByLayer
 62
  256
370
   -1
100
AcDbLine
 10
7872.606397396507
 20
1692.982284084021
 11
7872.606397396507
 21
1552.982284084021
  0
LINE
  5
E0
100
AcDbEntity
  8
1-tole-detail
  6
ByLayer
 62
  256
370
   -1
100
AcDbLine
 10
7872.606397396507
 20
1552.982284084021
 11
8157.606397396507
 21
1552.982284084021
  0
LINE
  5
E1
100
AcDbEntity
  8
1-tole-detail
  6
ByLayer
 62
  256
370
   -1
100
AcDbLine
 10
8157.606397396507
 20
1552.982284084021
 11
8157.606397396507
 21
3802.982284084021
  0
LINE
  5
E2
100
AcDbEntity
  8
1-tole-detail
  6
ByLayer
 62
  256
370
   -1
100
AcDbLine
 10
8157.606397396507
 20
3802.982284084021
 11
6847.606397396507
 21
3802.982284084021
  0
LINE
  5
E3
100
AcDbEntity
  8
1-tole-detail
  6
ByLayer
 62
  256
370
   -1
100
AcDbLine
 10
6847.606397396507
 20
3802.982284084021
 11
6847.606397396507
 21
1692.982284084021
  0
LINE
  5
E4
100
AcDbEntity
  8
1-tole-detail
  6
ByLayer
 62
  256
370
   -1
100
AcDbLine
 10
8157.606397396507
 20
3596.982284084021
 11
8157.606397396507
 21
3802.982284084021
  0
LINE
  5
E5
100
AcDbEntity
  8
1-tole-detail
  6
ByLayer
 62
  256
370
   -1
100
AcDbLine
 10
6847.606397396507
 20
9307.017715915987
 11
6847.606397396507
 21
7197.017715915987
  0
LINE
  5
E6
100
AcDbEntity
  8
1-tole-detail
  6
ByLayer
 62
  256
370
   -1
100
AcDbLine
 10
6847.606397396507
 20
9307.017715915987
 11
7872.606397396507
 21
9307.017715915987
  0
LINE
  5
E7
100
AcDbEntity
  8
1-tole-detail
  6
ByLayer
 62
  256
370
   -1
100
AcDbLine
 10
7872.606397396507
 20
9307.017715915987
 11
7872.606397396507
 21
9447.017715915987
  0
LINE
  5
E8
100
AcDbEntity
  8
1-tole-detail
  6
ByLayer
 62
  256
370
   -1
100
AcDbLine
 10
7872.606397396507
 20
9447.017715915987
 11
8157.606397396507
 21
9447.017715915987
  0
LINE
  5
E9
100
AcDbEntity
  8
1-tole-detail
  6
ByLayer
 62
  256
370
   -1
100
AcDbLine
 10
8157.606397396507
 20
9447.017715915987
 11
8157.606397396507
 21
7197.017715915987
  0
LINE
  5
EA
100
AcDbEntity
  8
1-tole-detail
  6
ByLayer
 62
  256
370
   -1
100
AcDbLine
 10
8157.606397396507
 20
7197.017715915987
 11
6847.606397396507
 21
7197.017715915987
  0
LINE
  5
EB
100
AcDbEntity
  8
1-tole-detail
  6
ByLayer
 62
  256
370
   -1
100
AcDbLine
 10
6847.606397396507
 20
7197.017715915987
 11
6847.606397396507
 21
9307.017715915987
  0
LINE
  5
EC
100
AcDbEntity
  8
1-tole-detail
  6
ByLayer
 62
  256
370
   -1
100
AcDbLine
 10
8157.606397396507
 20
7403.017715915987
 11
8157.606397396507
 21
7197.017715915987
  0
LWPOLYLINE
  5
ED
100
AcDbEntity
  8
1-tole-detail
  6
ByLayer
 62
  256
370
   -1
100
AcDbPolyline
 90
    4
 70
    1
 43
0
 10
8257.606397396507
 20
4002.98228408405
 10
9187.606397396507
 20
4002.98228408405
 10
9187.606397396507
 20
6997.017715915958
 10
8257.606397396507
 20
6997.017715915958
  0
LINE
  5
EE
100
AcDbEntity
  8
1-tole-detail
  6
DASHEDTINY
 62
  256
370
   -1
100
AcDbLine
 10
9187.606397396507
 20
6777.017715915958
 11
8257.606397396507
 21
6777.017715915958
  0
LINE
  5
EF
100
AcDbEntity
  8
1-tole-detail
  6
DASHEDTINY
 62
  256
370
   -1
100
AcDbLine
 10
8257.606397396507
 20
6523.000000000007
 11
9187.606397396507
 21
6523.000000000007
  0
LINE
  5
F0
100
AcDbEntity
  8
1-tole-detail
  6
DASHEDTINY
 62
  256
370
   -1
100
AcDbLine
 10
9187.606397396507
 20
4477
 11
8257.606397396507
 21
4477
  0
LINE
  5
F1
100
AcDbEntity
  8
1-tole-detail
  6
DASHEDTINY
 62
  256
370
   -1
100
AcDbLine
 10
8257.606397396507
 20
4222.98228388725
 11
9187.606397396507
 21
4222.98228388725
  0
LINE
  5
F2
100
AcDbEntity
  8
1-tole-detail
  6
ByLayer
 62
  256
370
   -1
100
AcDbLine
 10
8257.606397396507
 20
3802.982284084021
 11
9187.606397396507
 21
3802.982284084021
  0
LINE
  5
F3
100
AcDbEntity
  8
1-tole-detail
  6
ByLayer
 62
  256
370
   -1
100
AcDbLine
 10
9187.606397396507
 20
3802.982284084021
 11
9187.606397396507
 21
3596.982284084021
  0
LINE
  5
F4
100
AcDbEntity
  8
1-tole-detail
  6
ByLayer
 62
  256
370
   -1
100
AcDbLine
 10
8257.606397396507
 20
3596.982284084021
 11
8257.606397396507
 21
3802.982284084021
  0
LINE
  5
F5
100
AcDbEntity
  8
1-tole-detail
  6
ByLayer
 62
  256
370
   -1
100
AcDbLine
 10
8257.606397396507
 20
7197.017715915987
 11
9187.606397396507
 21
7197.017715915987
  0
LINE
  5
F6
100
AcDbEntity
  8
1-tole-detail
  6
ByLayer
 62
  256
370
   -1
100
AcDbLine
 10
9187.606397396507
 20
7197.017715915987
 11
9187.606397396507
 21
7403.017715915987
  0
LINE
  5
F7
100
AcDbEntity
  8
1-tole-detail
  6
ByLayer
 62
  256
370
   -1
100
AcDbLine
 10
8257.606397396507
 20
7403.017715915987
 11
8257.606397396507
 21
7197.017715915987
  0
LWPOLYLINE
  5
F8
100
AcDbEntity
  8
1-tole-detail
  6
ByLayer
 62
  256
370
   -1
100
AcDbPolyline
 90
    4
 70
    1
 43
0
 10
9287.606397396507
 20
6997.017715915958
 10
10332.60639739649
 20
6997.017715915958
 10
10332.60639739649
 20
4002.98228408405
 10
9287.606397396507
 20
4002.98228408405
  0
LINE
  5
F9
100
AcDbEntity
  8
1-tole-detail
  6
DASHEDTINY
 62
  256
370
   -1
100
AcDbLine
 10
10332.60639739646
 20
6777.017715915958
 11
9287.606397396507
 21
6777.017715915958
  0
LINE
  5
FA
100
AcDbEntity
  8
1-tole-detail
  6
DASHEDTINY
 62
  256
370
   -1
100
AcDbLine
 10
9287.606397396507
 20
6523.000000000007
 11
10332.60639739647
 21
6523.000000000007
  0
LINE
  5
FB
100
AcDbEntity
  8
1-tole-detail
  6
DASHEDTINY
 62
  256
370
   -1
100
AcDbLine
 10
9287.606397396507
 20
4222.98228388725
 11
10332.60639739648
 21
4222.98228388725
  0
LINE
  5
FC
100
AcDbEntity
  8
1-tole-detail
  6
ByLayer
 62
  256
370
   -1
100
AcDbLine
 10
9287.606397396477
 20
3802.982284084021
 11
9287.606397396477
 21
3596.982284084021
  0
LWPOLYLINE
  5
FD
100
AcDbEntity
  8
1-tole-detail
  6
ByLayer
 62
  256
370
   -1
100
AcDbPolyline
 90
    4
 70
    1
 43
0
 10
9287.606397396477
 20
3802.982284084021
 10
10332.60639739648
 20
3802.982284084021
 10
10332.60639739648
 20
1552.982284084021
 10
9287.606397396477
 20
1552.982284084021
  0
LINE
  5
FE
100
AcDbEntity
  8
1-tole-detail
  6
ByLayer
 62
  256
370
   -1
100
AcDbLine
 10
9287.606397396477
 20
7197.017715915987
 11
9287.606397396477
 21
7403.017715915987
  0
LWPOLYLINE
  5
FF
100
AcDbEntity
  8
1-tole-detail
  6
ByLayer
 62
  256
370
   -1
100
AcDbPolyline
 90
    4
 70
    1
 43
0
 10
9287.606397396477
 20
7197.017715915987
 10
10332.60639739648
 20
7197.017715915987
 10
10332.60639739648
 20
9447.017715915987
 10
9287.606397396477
 20
9447.017715915987
  0
LINE
  5
100
100
AcDbEntity
  8
1-tole-detail
  6
DASHEDTINY
 62
  256
370
   -1
100
AcDbLine
 10
10332.60639739649
 20
4477
 11
9287.606397396507
 21
4477
  0
CIRCLE
  5
101
100
AcDbEntity
  8
2-hublots-decoupe
  6
ByLayer
 62
  256
370
   -1
100
AcDbCircle
 10
4982.606397396507
 20
3302.982284084021
 40
64.99999999978245
  0
CIRCLE
  5
102
100
AcDbEntity
  8
2-hublots-decoupe
  6
ByLayer
 62
  256
370
   -1
100
AcDbCircle
 10
4955.627215414803
 20
3368.11579112598
 40
3.5
  0
CIRCLE
  5
103
100
AcDbEntity
  8
2-hublots-decoupe
  6
ByLayer
 62
  256
370
   -1
100
AcDbCircle
 10
5009.585579378188
 20
3368.115791125922
 40
3.5
  0
CIRCLE
  5
104
100
AcDbEntity
  8
2-hublots-decoupe
  6
ByLayer
 62
  256
370
   -1
100
AcDbCircle
 10
4917.47289035438
 20
3329.961466065783
 40
3.5
  0
CIRCLE
  5
105
100
AcDbEntity
  8
2-hublots-decoupe
  6
ByLayer
 62
  256
370
   -1
100
AcDbCircle
 10
5047.739904438509
 20
3329.961466065753
 40
3.5
  0
CIRCLE
  5
106
100
AcDbEntity
  8
2-hublots-decoupe
  6
ByLayer
 62
  256
370
   -1
100
AcDbCircle
 10
5047.739904438509
 20
3276.003102102302
 40
3.5
  0
CIRCLE
  5
107
100
AcDbEntity
  8
2-hublots-decoupe
  6
ByLayer
 62
  256
370
   -1
100
AcDbCircle
 10
5009.585579378167
 20
3237.848777042149
 40
3.5
  0
CIRCLE
  5
108
100
AcDbEntity
  8
2-hublots-decoupe
  6
ByLayer
 62
  256
370
   -1
100
AcDbCircle
 10
4955.627215414803
 20
3237.848777042062
 40
3.5
  0
CIRCLE
  5
109
100
AcDbEntity
  8
2-hublots-decoupe
  6
ByLayer
 62
  256
370
   -1
100
AcDbCircle
 10
4917.47289035438
 20
3276.003102102259
 40
3.5
  0
CIRCLE
  5
10A
100
AcDbEntity
  8
2-hublots-decoupe
  6
ByLayer
 62
  256
370
   -1
100
AcDbCircle
 10
5832.606397396507
 20
3062.982284084021
 40
64.99999999978245
  0
CIRCLE
  5
10B
100
AcDbEntity
  8
2-hublots-decoupe
  6
ByLayer
 62
  256
370
   -1
100
AcDbCircle
 10
5805.627215414803
 20
3128.11579112598
 40
3.5
  0
CIRCLE
  5
10C
100
AcDbEntity
  8
2-hublots-decoupe
  6
ByLayer
 62
  256
370
   -1
100
AcDbCircle
 10
5859.585579378188
 20
3128.115791125922
 40
3.5
  0
CIRCLE
  5
10D
100
AcDbEntity
  8
2-hublots-decoupe
  6
ByLayer
 62
  256
370
   -1
100
AcDbCircle
 10
5767.472890354387
 20
3089.961466065783
 40
3.5
  0
CIRCLE
  5
10E
100
AcDbEntity
  8
2-hublots-decoupe
  6
ByLayer
 62
  256
370
   -1
100
AcDbCircle
 10
5897.739904438509
 20
3089.961466065753
 40
3.5
  0
CIRCLE
  5
10F
100
AcDbEntity
  8
2-hublots-decoupe
  6
ByLayer
 62
  256
370
   -1
100
AcDbCircle
 10
5897.739904438509
 20
3036.003102102302
 40
3.5
  0
CIRCLE
  5
110
100
AcDbEntity
  8
2-hublots-decoupe
  6
ByLayer
 62
  256
370
   -1
100
AcDbCircle
 10
5859.585579378167
 20
2997.848777042149
 40
3.5
  0
CIRCLE
  5
111
100
AcDbEntity
  8
2-hublots-decoupe
  6
ByLayer
 62
  256
370
   -1
100
AcDbCircle
 10
5805.627215414803
 20
2997.848777042062
 40
3.5
  0
CIRCLE
  5
112
100
AcDbEntity
  8
2-hublots-decoupe
  6
ByLayer
 62
  256
370
   -1
100
AcDbCircle
 10
5767.472890354387
 20
3036.003102102259
 40
3.5
  0
CIRCLE
  5
113
100
AcDbEntity
  8
2-hublots-decoupe
  6
ByLayer
 62
  256
370
   -1
100
AcDbCircle
 10
6582.606397396507
 20
2822.982284084021
 40
64.99999999978245
  0
CIRCLE
  5
114
100
AcDbEntity
  8
2-hublots-decoupe
  6
ByLayer
 62
  256
370
   -1
100
AcDbCircle
 10
6555.627215414803
 20
2888.11579112598
 40
3.5
  0
CIRCLE
  5
115
100
AcDbEntity
  8
2-hublots-decoupe
  6
ByLayer
 62
  256
370
   -1
100
AcDbCircle
 10
6609.585579378188
 20
2888.115791125922
 40
3.5
  0
CIRCLE
  5
116
100
AcDbEntity
  8
2-hublots-decoupe
  6
ByLayer
 62
  256
370
   -1
100
AcDbCircle
 10
6517.472890354387
 20
2849.961466065783
 40
3.5
  0
CIRCLE
  5
117
100
AcDbEntity
  8
2-hublots-decoupe
  6
ByLayer
 62
  256
370
   -1
100
AcDbCircle
 10
6647.739904438509
 20
2849.961466065739
 40
3.5
  0
CIRCLE
  5
118
100
AcDbEntity
  8
2-hublots-decoupe
  6
ByLayer
 62
  256
370
   -1
100
AcDbCircle
 10
6647.739904438509
 20
2796.003102102302
 40
3.5
  0
CIRCLE
  5
119
100
AcDbEntity
  8
2-hublots-decoupe
  6
ByLayer
 62
  256
370
   -1
100
AcDbCircle
 10
6609.585579378167
 20
2757.848777042149
 40
3.5
  0
CIRCLE
  5
11A
100
AcDbEntity
  8
2-hublots-decoupe
  6
ByLayer
 62
  256
370
   -1
100
AcDbCircle
 10
6555.627215414803
 20
2757.848777042062
 40
3.5
  0
CIRCLE
  5
11B
100
AcDbEntity
  8
2-hublots-decoupe
  6
ByLayer
 62
  256
370
   -1
100
AcDbCircle
 10
6517.472890354387
 20
2796.003102102259
 40
3.5
  0
CIRCLE
  5
11C
100
AcDbEntity
  8
2-hublots-decoupe
  6
ByLayer
 62
  256
370
   -1
100
AcDbCircle
 10
7432.606397396507
 20
2582.982284084021
 40
64.99999999978245
  0
CIRCLE
  5
11D
100
AcDbEntity
  8
2-hublots-decoupe
  6
ByLayer
 62
  256
370
   -1
100
AcDbCircle
 10
7405.62721541481
 20
2648.11579112598
 40
3.5
  0
CIRCLE
  5
11E
100
AcDbEntity
  8
2-hublots-decoupe
  6
ByLayer
 62
  256
370
   -1
100
AcDbCircle
 10
7459.585579378188
 20
2648.115791125922
 40
3.5
  0
CIRCLE
  5
11F
100
AcDbEntity
  8
2-hublots-decoupe
  6
ByLayer
 62
  256
370
   -1
100
AcDbCircle
 10
7367.472890354387
 20
2609.961466065779
 40
3.5
  0
CIRCLE
  5
120
100
AcDbEntity
  8
2-hublots-decoupe
  6
ByLayer
 62
  256
370
   -1
100
AcDbCircle
 10
7497.739904438509
 20
2609.961466065739
 40
3.5
  0
CIRCLE
  5
121
100
AcDbEntity
  8
2-hublots-decoupe
  6
ByLayer
 62
  256
370
   -1
100
AcDbCircle
 10
7497.739904438509
 20
2556.003102102299
 40
3.5
  0
CIRCLE
  5
122
100
AcDbEntity
  8
2-hublots-decoupe
  6
ByLayer
 62
  256
370
   -1
100
AcDbCircle
 10
7459.585579378167
 20
2517.848777042149
 40
3.5
  0
CIRCLE
  5
123
100
AcDbEntity
  8
2-hublots-decoupe
  6
ByLayer
 62
  256
370
   -1
100
AcDbCircle
 10
7405.62721541481
 20
2517.848777042062
 40
3.5
  0
CIRCLE
  5
124
100
AcDbEntity
  8
2-hublots-decoupe
  6
ByLayer
 62
  256
370
   -1
100
AcDbCircle
 10
7367.472890354387
 20
2556.003102102259
 40
3.5
  0
CIRCLE
  5
125
100
AcDbEntity
  8
2-hublots-decoupe
  6
ByLayer
 62
  256
370
   -1
100
AcDbCircle
 10
4232.606397396507
 20
7457.017715915979
 40
64.99999999978245
  0
CIRCLE
  5
126
100
AcDbEntity
  8
2-hublots-decoupe
  6
ByLayer
 62
  256
370
   -1
100
AcDbCircle
 10
4205.627215414803
 20
7391.884208874028
 40
3.5
  0
CIRCLE
  5
127
100
AcDbEntity
  8
2-hublots-decoupe
  6
ByLayer
 62
  256
370
   -1
100
AcDbCircle
 10
4259.585579378181
 20
7391.884208874078
 40
3.5
  0
CIRCLE
  5
128
100
AcDbEntity
  8
2-hublots-decoupe
  6
ByLayer
 62
  256
370
   -1
100
AcDbCircle
 10
4167.472890354373
 20
7430.038533934217
 40
3.5
  0
CIRCLE
  5
129
100
AcDbEntity
  8
2-hublots-decoupe
  6
ByLayer
 62
  256
370
   -1
100
AcDbCircle
 10
4297.739904438509
 20
7430.038533934261
 40
3.5
  0
CIRCLE
  5
12A
100
AcDbEntity
  8
2-hublots-decoupe
  6
ByLayer
 62
  256
370
   -1
100
AcDbCircle
 10
4297.739904438509
 20
7483.996897897698
 40
3.5
  0
CIRCLE
  5
12B
100
AcDbEntity
  8
2-hublots-decoupe
  6
ByLayer
 62
  256
370
   -1
100
AcDbCircle
 10
4259.585579378167
 20
7522.151222957851
 40
3.5
  0
CIRCLE
  5
12C
100
AcDbEntity
  8
2-hublots-decoupe
  6
ByLayer
 62
  256
370
   -1
100
AcDbCircle
 10
4205.627215414803
 20
7522.151222957938
 40
3.5
  0
CIRCLE
  5
12D
100
AcDbEntity
  8
2-hublots-decoupe
  6
ByLayer
 62
  256
370
   -1
100
AcDbCircle
 10
4167.472890354373
 20
7483.996897897741
 40
3.5
  0
CIRCLE
  5
12E
100
AcDbEntity
  8
2-hublots-decoupe
  6
ByLayer
 62
  256
370
   -1
100
AcDbCircle
 10
4982.606397396507
 20
7697.017715915979
 40
64.99999999978245
  0
CIRCLE
  5
12F
100
AcDbEntity
  8
2-hublots-decoupe
  6
ByLayer
 62
  256
370
   -1
100
AcDbCircle
 10
4955.627215414803
 20
7631.884208874028
 40
3.5
  0
CIRCLE
  5
130
100
AcDbEntity
  8
2-hublots-decoupe
  6
ByLayer
 62
  256
370
   -1
100
AcDbCircle
 10
5009.585579378188
 20
7631.884208874078
 40
3.5
  0
CIRCLE
  5
131
100
AcDbEntity
  8
2-hublots-decoupe
  6
ByLayer
 62
  256
370
   -1
100
AcDbCircle
 10
4917.47289035438
 20
7670.038533934217
 40
3.5
  0
CIRCLE
  5
132
100
AcDbEntity
  8
2-hublots-decoupe
  6
ByLayer
 62
  256
370
   -1
100
AcDbCircle
 10
5047.739904438509
 20
7670.038533934261
 40
3.5
  0
CIRCLE
  5
133
100
AcDbEntity
  8
2-hublots-decoupe
  6
ByLayer
 62
  256
370
   -1
100
AcDbCircle
 10
5047.739904438509
 20
7723.996897897698
 40
3.5
  0
CIRCLE
  5
134
100
AcDbEntity
  8
2-hublots-decoupe
  6
ByLayer
 62
  256
370
   -1
100
AcDbCircle
 10
5009.585579378167
 20
7762.151222957851
 40
3.5
  0
CIRCLE
  5
135
100
AcDbEntity
  8
2-hublots-decoupe
  6
ByLayer
 62
  256
370
   -1
100
AcDbCircle
 10
4955.627215414803
 20
7762.151222957938
 40
3.5
  0
CIRCLE
  5
136
100
AcDbEntity
  8
2-hublots-decoupe
  6
ByLayer
 62
  256
370
   -1
100
AcDbCircle
 10
4917.47289035438
 20
7723.996897897741
 40
3.5
  0
CIRCLE
  5
137
100
AcDbEntity
  8
2-hublots-decoupe
  6
ByLayer
 62
  256
370
   -1
100
AcDbCircle
 10
5832.606397396507
 20
7937.017715915987
 40
64.99999999978245
  0
CIRCLE
  5
138
100
AcDbEntity
  8
2-hublots-decoupe
  6
ByLayer
 62
  256
370
   -1
100
AcDbCircle
 10
5805.627215414803
 20
7871.884208874028
 40
3.5
  0
CIRCLE
  5
139
100
AcDbEntity
  8
2-hublots-decoupe
  6
ByLayer
 62
  256
370
   -1
100
AcDbCircle
 10
5859.585579378188
 20
7871.884208874078
 40
3.5
  0
CIRCLE
  5
13A
100
AcDbEntity
  8
2-hublots-decoupe
  6
ByLayer
 62
  256
370
   -1
100
AcDbCircle
 10
5767.472890354387
 20
7910.038533934217
 40
3.5
  0
CIRCLE
  5
13B
100
AcDbEntity
  8
2-hublots-decoupe
  6
ByLayer
 62
  256
370
   -1
100
AcDbCircle
 10
5897.739904438509
 20
7910.038533934261
 40
3.5
  0
CIRCLE
  5
13C
100
AcDbEntity
  8
2-hublots-decoupe
  6
ByLayer
 62
  256
370
   -1
100
AcDbCircle
 10
5897.739904438509
 20
7963.996897897698
 40
3.5
  0
CIRCLE
  5
13D
100
AcDbEntity
  8
2-hublots-decoupe
  6
ByLayer
 62
  256
370
   -1
100
AcDbCircle
 10
5859.585579378167
 20
8002.151222957851
 40
3.5
  0
CIRCLE
  5
13E
100
AcDbEntity
  8
2-hublots-decoupe
  6
ByLayer
 62
  256
370
   -1
100
AcDbCircle
 10
5805.627215414803
 20
8002.151222957938
 40
3.5
  0
CIRCLE
  5
13F
100
AcDbEntity
  8
2-hublots-decoupe
  6
ByLayer
 62
  256
370
   -1
100
AcDbCircle
 10
5767.472890354387
 20
7963.996897897741
 40
3.5
  0
CIRCLE
  5
140
100
AcDbEntity
  8
2-hublots-decoupe
  6
ByLayer
 62
  256
370
   -1
100
AcDbCircle
 10
6582.606397396507
 20
8177.017715915987
 40
64.99999999978245
  0
CIRCLE
  5
141
100
AcDbEntity
  8
2-hublots-decoupe
  6
ByLayer
 62
  256
370
   -1
100
AcDbCircle
 10
6555.627215414803
 20
8111.884208874028
 40
3.5
  0
CIRCLE
  5
142
100
AcDbEntity
  8
2-hublots-decoupe
  6
ByLayer
 62
  256
370
   -1
100
AcDbCircle
 10
6609.585579378188
 20
8111.884208874078
 40
3.5
  0
CIRCLE
  5
143
100
AcDbEntity
  8
2-hublots-decoupe
  6
ByLayer
 62
  256
370
   -1
100
AcDbCircle
 10
6517.472890354387
 20
8150.038533934217
 40
3.5
  0
CIRCLE
  5
144
100
AcDbEntity
  8
2-hublots-decoupe
  6
ByLayer
 62
  256
370
   -1
100
AcDbCircle
 10
6647.739904438509
 20
8150.038533934261
 40
3.5
  0
CIRCLE
  5
145
100
AcDbEntity
  8
2-hublots-decoupe
  6
ByLayer
 62
  256
370
   -1
100
AcDbCircle
 10
6647.739904438509
 20
8203.996897897712
 40
3.5
  0
CIRCLE
  5
146
100
AcDbEntity
  8
2-hublots-decoupe
  6
ByLayer
 62
  256
370
   -1
100
AcDbCircle
 10
6609.585579378167
 20
8242.151222957851
 40
3.5
  0
CIRCLE
  5
147
100
AcDbEntity
  8
2-hublots-decoupe
  6
ByLayer
 62
  256
370
   -1
100
AcDbCircle
 10
6555.627215414803
 20
8242.151222957938
 40
3.5
  0
CIRCLE
  5
148
100
AcDbEntity
  8
2-hublots-decoupe
  6
ByLayer
 62
  256
370
   -1
100
AcDbCircle
 10
6517.472890354387
 20
8203.996897897741
 40
3.5
  0
CIRCLE
  5
149
100
AcDbEntity
  8
2-hublots-decoupe
  6
ByLayer
 62
  256
370
   -1
100
AcDbCircle
 10
7432.606397396507
 20
8417.017715915987
 40
64.99999999978245
  0
CIRCLE
  5
14A
100
AcDbEntity
  8
2-hublots-decoupe
  6
ByLayer
 62
  256
370
   -1
100
AcDbCircle
 10
7405.62721541481
 20
8351.884208874028
 40
3.5
  0
CIRCLE
  5
14B
100
AcDbEntity
  8
2-hublots-decoupe
  6
ByLayer
 62
  256
370
   -1
100
AcDbCircle
 10
7459.585579378188
 20
8351.884208874078
 40
3.5
  0
CIRCLE
  5
14C
100
AcDbEntity
  8
2-hublots-decoupe
  6
ByLayer
 62
  256
370
   -1
100
AcDbCircle
 10
7367.472890354387
 20
8390.038533934217
 40
3.5
  0
CIRCLE
  5
14D
100
AcDbEntity
  8
2-hublots-decoupe
  6
ByLayer
 62
  256
370
   -1
100
AcDbCircle
 10
7497.739904438509
 20
8390.038533934261
 40
3.5
  0
CIRCLE
  5
14E
100
AcDbEntity
  8
2-hublots-decoupe
  6
ByLayer
 62
  256
370
   -1
100
AcDbCircle
 10
7497.739904438509
 20
8443.996897897712
 40
3.5
  0
CIRCLE
  5
14F
100
AcDbEntity
  8
2-hublots-decoupe
  6
ByLayer
 62
  256
370
   -1
100
AcDbCircle
 10
7459.585579378167
 20
8482.151222957851
 40
3.5
  0
CIRCLE
  5
150
100
AcDbEntity
  8
2-hublots-decoupe
  6
ByLayer
 62
  256
370
   -1
100
AcDbCircle
 10
7405.62721541481
 20
8482.151222957953
 40
3.5
  0
CIRCLE
  5
151
100
AcDbEntity
  8
2-hublots-decoupe
  6
ByLayer
 62
  256
370
   -1
100
AcDbCircle
 10
7367.472890354387
 20
8443.996897897763
 40
3.5
  0
LWPOLYLINE
  5
152
100
AcDbEntity
  8
1-tole-detail
  6
ByLayer
 62
  256
370
   -1
100
AcDbPolyline
 90
    4
 70
    1
 43
0
 10
209.6063973965101
 20
5600
 10
209.6063973965101
 20
6793.5
 10
837.1063973965101
 20
6793.5
 10
837.1063973965101
 20
5600
  0
LWPOLYLINE
  5
153
100
AcDbEntity
  8
1-tole-detail
  6
ByLayer
 62
  256
370
   -1
100
AcDbPolyline
 90
    4
 70
    1
 43
0
 10
2847.606397396507
 20
5600
 10
2847.606397396507
 20
6828
 10
1037.60639739651
 20
6828
 10
1037.60639739651
 20
5600
  0
LWPOLYLINE
  5
154
100
AcDbEntity
  8
1-tole-detail
  6
ByLayer
 62
  256
370
   -1
100
AcDbPolyline
 90
    4
 70
    1
 43
0
 10
2847.606397396507
 20
4172
 10
2847.606397396507
 20
5400
 10
1037.60639739651
 20
5400
 10
1037.60639739651
 20
4172
  0
LWPOLYLINE
  5
155
100
AcDbEntity
  8
1-tole-detail
  6
ByLayer
 62
  256
370
   -1
100
AcDbPolyline
 90
    4
 70
    1
 43
0
 10
209.6063973965101
 20
4206.5
 10
209.6063973965101
 20
5400
 10
837.1063973965101
 20
5400
 10
837.1063973965101
 20
4206.5
  0
LINE
  5
156
100
AcDbEntity
  8
1-tole-detail
  6
ByLayer
 62
  256
370
   -1
100
AcDbLine
 10
11689.70980061511
 20
4966.186611986792
 11
11771.69501208165
 21
4945.725060217141
  0
LINE
  5
157
100
AcDbEntity
  8
1-tole-detail
  6
ByLayer
 62
  256
370
   -1
100
AcDbLine
 10
11771.69501208165
 20
4945.725060217141
 11
11567.93143827935
 21
4129.278611456772
  0
LINE
  5
158
100
AcDbEntity
  8
1-tole-detail
  6
ByLayer
 62
  256
370
   -1
100
AcDbLine
 10
11567.93143827935
 20
4129.278611456772
 11
11058.55567812917
 21
4256.405850752853
  0
LINE
  5
159
100
AcDbEntity
  8
1-tole-detail
  6
DASHEDTINY
 62
  256
370
   -1
100
AcDbLine
 10
14500
 20
6030
 11
13233.5
 21
6030
  0
LINE
  5
15A
100
AcDbEntity
  8
1-tole-detail
  6
DASHEDTINY
 62
  256
370
   -1
100
AcDbLine
 10
13233.5
 20
4970
 11
14500
 21
4970
  0
LINE
  5
15B
100
AcDbEntity
  8
1-tole-detail
  6
ByLayer
 62
  256
370
   -1
100
AcDbLine
 10
11771.69501208165
 20
6054.274939782859
 11
11567.93143827935
 21
6870.721388543228
  0
LINE
  5
15C
100
AcDbEntity
  8
1-tole-detail
  6
ByLayer
 62
  256
370
   -1
100
AcDbLine
 10
11058.55567812918
 20
6743.594149247161
 11
11566.26678169229
 21
6870.305932581563
  0
LINE
  5
15D
100
AcDbEntity
  8
1-tole-detail
  6
ByLayer
 62
  256
370
   -1
100
AcDbLine
 10
11689.70980061511
 20
6033.813388013223
 11
11771.69501208165
 21
6054.274939782859
  0
LWPOLYLINE
  5
15E
100
AcDbEntity
  8
1-tole-detail
  6
ByLayer
 62
  256
370
   -1
100
AcDbPolyline
 90
    4
 70
    1
 43
0
 10
14500
 20
4066.028347076528
 10
14500
 20
4147.177492555333
 10
13334.99999999966
 20
4147.177492555333
 10
13334.99999999966
 20
4066.028347076528
  0
LWPOLYLINE
  5
15F
100
AcDbEntity
  8
1-tole-detail
  6
ByLayer
 62
  256
370
   -1
100
AcDbPolyline
 90
    4
 70
    1
 43
0
 10
12200
 20
4058.510843826851
 10
12200
 20
4900
 10
13010
 20
4900
 10
13010
 20
4058.510843826851
  0
LWPOLYLINE
  5
160
100
AcDbEntity
  8
1-tole-detail
  6
ByLayer
 62
  256
370
   -1
100
AcDbPolyline
 90
    4
 70
    1
 43
0
 10
14500
 20
6933.971652923472
 10
14500
 20
6852.822507444667
 10
13334.99999999966
 20
6852.822507444667
 10
13334.99999999966
 20
6933.971652923472
  0
LWPOLYLINE
  5
161
100
AcDbEntity
  8
1-tole-detail
  6
ByLayer
 62
  256
370
   -1
100
AcDbPolyline
 90
    4
 70
    1
 43
0
 10
12200
 20
6941.489156173149
 10
12200
 20
6100
 10
13010
 20
6100
 10
13010
 20
6941.489156173149
  0
LINE
  5
162
100
AcDbEntity
  8
1-tole-detail
  6
ByLayer
 62
  256
370
   -1
100
AcDbLine
 10
13233.5
 20
4909.660000000003
 11
14500
 21
4909.660000000003
  0
LINE
  5
163
100
AcDbEntity
  8
1-tole-detail
  6
ByLayer
 62
  256
370
   -1
100
AcDbLine
 10
14500
 20
6090.339999999997
 11
13233.5
 21
6090.339999999997
  0
LINE
  5
164
100
AcDbEntity
  8
1-tole-detail
  6
ByLayer
 62
  256
370
   -1
100
AcDbLine
 10
13233.5
 20
4909.660000000003
 11
13233.5
 21
6090.339999999997
  0
LINE
  5
165
100
AcDbEntity
  8
1-tole-detail
  6
ByLayer
 62
  256
370
   -1
100
AcDbLine
 10
14500
 20
6090.339999999997
 11
14500
 21
4909.660000000003
  0
LWPOLYLINE
  5
166
100
AcDbEntity
  8
1-tole-detail
  6
ByLayer
 62
  256
370
   -1
100
AcDbPolyline
 90
    4
 70
    1
 43
0
 10
8257.606397396507
 20
3802.982284084021
 10
9187.606397396507
 20
3802.982284084021
 10
9187.606397396507
 20
3502.982284084021
 10
8257.606397396507
 20
3502.982284084021
  0
LINE
  5
167
100
AcDbEntity
  8
1-tole-detail
  6
ByLayer
 62
  256
370
   -1
100
AcDbLine
 10
8257.606397396507
 20
7197.017715915979
 11
9187.606397396507
 21
7197.017715915979
  0
LINE
  5
168
100
AcDbEntity
  8
1-tole-detail
  6
ByLayer
 62
  256
370
   -1
100
AcDbLine
 10
9187.606397396507
 20
7197.017715915979
 11
9187.606397396507
 21
7403.017715915979
  0
LWPOLYLINE
  5
169
100
AcDbEntity
  8
1-tole-detail
  6
ByLayer
 62
  256
370
   -1
100
AcDbPolyline
 90
    4
 70
    1
 43
0
 10
8257.606397396507
 20
7197.017715915979
 10
9187.606397396507
 20
7197.017715915979
 10
9187.606397396507
 20
7497.017715915979
 10
8257.606397396507
 20
7497.017715915979
  0
LINE
  5
16A
100
AcDbEntity
  8
1-tole-detail
  6
ByLayer
 62
  256
370
   -1
100
AcDbLine
 10
11567.93143827935
 20
6870.721388543228
 11
11566.26678169229
 21
6870.305932581563
  0
MTEXT
  5
16B
100
AcDbEntity
  8
_LEGENDE
  6
ByLayer
 62
  256
370
   -1
100
AcDbMText
 10
1000
 20
18300
 30
0
 40
100
 41
1019.44440204402
 71
    7
 72
    1
  1
JOINTS ARCHES
  7
standard
210
0
220
0
230
1
 50
0
 73
    2
 44
1
  0
MTEXT
  5
16C
100
AcDbEntity
  8
_LEGENDE
  6
ByLayer
 62
  256
370
   -1
100
AcDbMText
 10
1000
 20
16200
 30
0
 40
100
 41
719.4444232442356
 71
    7
 72
    1
  1
JOINTS 90%%D
  7
standard
210
0
220
0
230
1
 50
0
 73
    2
 44
1
  0
MTEXT
  5
16D
100
AcDbEntity
  8
_LEGENDE
  6
ByLayer
 62
  256
370
   -1
100
AcDbMText
 10
1000
 20
17000
 30
0
 40
100
 41
941.6666242662425
 71
    7
 72
    1
  1
JOINTS PLATS
  7
standard
210
0
220
0
230
1
 50
0
 73
    2
 44
1
  0
MTEXT
  5
16E
100
AcDbEntity
  8
_LEGENDE
  6
ByLayer
 62
  256
370
   -1
100
AcDbMText
 10
1000
 20
15400
 30
0
 40
100
 41
786.1110899109023
 71
    7
 72
    1
  1
JOINTS 124%%D
  7
standard
210
0
220
0
230
1
 50
0
 73
    2
 44
1
  0
MTEXT
  5
16F
100
AcDbEntity
  8
_LEGENDE
  6
ByLayer
 62
  256
370
   -1
100
AcDbMText
 10
1000
 20
14600
 30
0
 40
100
 41
786.1110899109084
 71
    7
 72
    1
  1
JOINTS 146%%D
  7
standard
210
0
220
0
230
1
 50
0
 73
    2
 44
1
  0
MTEXT
  5
170
100
AcDbEntity
  8
_LEGENDE
  6
ByLayer
 62
  256
370
   -1
100
AcDbMText
 10
1000
 20
13900
 30
0
 40
100
 41
786.1110899109023
 71
    7
 72
    1
  1
JOINTS 140%%D
  7
standard
210
0
220
0
230
1
 50
0
 73
    2
 44
1
  0
MTEXT
  5
171
100
AcDbEntity
  8
_LEGENDE
  6
ByLayer
 62
  256
370
   -1
100
AcDbMText
 10
1000
 20
13100
 30
0
 40
100
 41
774.9999787997974
 71
    7
 72
    1
  1
JOINTS 130%%D
  7
standard
210
0
220
0
230
1
 50
0
 73
    2
 44
1
  0
MTEXT
  5
172
100
AcDbEntity
  8
_LEGENDE
  6
ByLayer
 62
  256
370
   -1
100
AcDbMText
 10
1000
 20
12200
 30
0
 40
100
 41
774.9999787997912
 71
    7
 72
    1
  1
JOINTS 127%%D
  7
standard
210
0
220
0
230
1
 50
0
 73
    2
 44
1
  0
LWPOLYLINE
  5
173
100
AcDbEntity
  8
_CADRES
  6
ByLayer
 62
  256
370
   -1
100
AcDbPolyline
 90
    4
 70
    1
 43
0
 10
0
 20
20000
 10
5000
 20
20000
 10
5000
 20
10000
 10
0
 20
10000
  0
MTEXT
  5
174
100
AcDbEntity
  8
_CADRES
  6
ByLayer
 62
  256
370
   -1
100
AcDbMText
 10
100
 20
10500
 30
0
 40
100
 41
2152.777777777782
 71
    7
 72
    1
  1
TÔLE ALU LAQUÉ BLANC EP 1.5
  7
standard
210
0
220
0
230
1
 50
0
 73
    2
 44
1
  0
MTEXT
  5
175
100
AcDbEntity
  8
_CADRES
  6
ByLayer
 62
  256
370
   -1
100
AcDbMText
 10
5100
 20
10500
 30
0
 40
100
 41
1555.555555555562
 71
    7
 72
    1
  1
TÔLE ALU BRUT EP 1.5
  7
standard
210
0
220
0
230
1
 50
0
 73
    2
 44
1
  0
MTEXT
  5
176
100
AcDbEntity
  8
_CADRES
  6
ByLayer
 62
  256
370
   -1
100
AcDbMText
 10
10200
 20
10500
 30
0
 40
100
 41
2497.222222222229
 71
    7
 72
    1
  1
TÔLE GALVA EP 1.5 PERFORÉ C10T12
  7
standard
210
0
220
0
230
1
 50
0
 73
    2
 44
1
  0
MTEXT
  5
177
100
AcDbEntity
  8
_CADRES
  6
ByLayer
 62
  256
370
   -1
100
AcDbMText
 10
5100
 20
10100
 30
0
 40
160
 41
2284.444342683423
 71
    7
 72
    1
  1
DÉTAIL CAISSES CLIM
  7
standard
210
0
220
0
230
1
 50
0
 73
    2
 44
1
  0
MTEXT
  5
178
100
AcDbEntity
  8
_CADRES
  6
ByLayer
 62
  256
370
   -1
100
AcDbMText
 10
100
 20
10100
 30
0
 40
160
 41
2959.999898238987
 71
    7
 72
    1
  1
DÉTAIL JOINTS CAROSSERIE
  7
standard
210
0
220
0
230
1
 50
0
 73
    2
 44
1
  0
MTEXT
  5
179
100
AcDbEntity
  8
_CADRES
  6
ByLayer
 62
  256
370
   -1
100
AcDbMText
 10
10100
 20
10100
 30
0
 40
160
 41
3822.222188301888
 71
    7
 72
    1
  1
DÉTAIL GRILLES AÉRATION ET CLIM
  7
standard
210
0
220
0
230
1
 50
0
 73
    2
 44
1
  0
LWPOLYLINE
  5
17A
100
AcDbEntity
  8
_CADRES
  6
ByLayer
 62
  256
370
   -1
100
AcDbPolyline
 90
    4
 70
    1
 43
0
 10
5000
 20
10000
 10
10000
 20
10000
 10
10000
 20
20000
 10
5000
 20
20000
  0
LWPOLYLINE
  5
17B
100
AcDbEntity
  8
_CADRES
  6
ByLayer
 62
  256
370
   -1
100
AcDbPolyline
 90
    4
 70
    1
 43
0
 10
10000
 20
20000
 10
15000
 20
20000
 10
15000
 20
10000
 10
10000
 20
10000
  0
MTEXT
  5
17C
100
AcDbEntity
  8
_LEGENDE
  6
ByLayer
 62
  256
370
   -1
100
AcDbMText
 10
7877
 20
17845.5
 30
0
 40
80
 41
151.1111111111161
 71
    8
 72
    1
  1
90%%D
  7
standard
210
0
220
0
230
1
 50
0
 73
    2
 44
1
  0
MTEXT
  5
17D
100
AcDbEntity
  8
_LEGENDE
  6
ByLayer
 62
  256
370
   -1
100
AcDbMText
 10
6960
 20
17845.5
 30
0
 40
80
 41
151.1111111111161
 71
    8
 72
    1
  1
90%%D
  7
standard
210
0
220
0
230
1
 50
0
 73
    2
 44
1
  0
MTEXT
  5
17E
100
AcDbEntity
  8
_LEGENDE
  6
ByLayer
 62
  256
370
   -1
100
AcDbMText
 10
6010
 20
17510
 30
0
 40
80
 41
408.8888549685548
 71
    7
 72
    1
  1
CAISSE3
  7
standard
210
0
220
0
230
1
 50
0
 73
    2
 44
1
  0
MTEXT
  5
17F
100
AcDbEntity
  8
_LEGENDE
  6
ByLayer
 62
  256
370
   -1
100
AcDbMText
 10
7877
 20
16845.5
 30
0
 40
80
 41
151.1111111111161
 71
    8
 72
    1
  1
90%%D
  7
standard
210
0
220
0
230
1
 50
0
 73
    2
 44
1
  0
MTEXT
  5
180
100
AcDbEntity
  8
_LEGENDE
  6
ByLayer
 62
  256
370
   -1
100
AcDbMText
 10
6960
 20
16845.5
 30
0
 40
80
 41
151.1111111111161
 71
    8
 72
    1
  1
90%%D
  7
standard
210
0
220
0
230
1
 50
0
 73
    2
 44
1
  0
MTEXT
  5
181
100
AcDbEntity
  8
_LEGENDE
  6
ByLayer
 62
  256
370
   -1
100
AcDbMText
 10
6010
 20
16510
 30
0
 40
80
 41
417.7777438574388
 71
    7
 72
    1
  1
CAISSE4
  7
standard
210
0
220
0
230
1
 50
0
 73
    2
 44
1
  0
MTEXT
  5
182
100
AcDbEntity
  8
_LEGENDE
  6
ByLayer
 62
  256
370
   -1
100
AcDbMText
 10
6458.5
 20
14900
 30
0
 40
80
 41
151.1111111111161
 71
    8
 72
    1
  1
90%%D
  7
standard
210
0
220
0
230
1
 50
0
 73
    2
 44
1
  0
MTEXT
  5
183
100
AcDbEntity
  8
_LEGENDE
  6
ByLayer
 62
  256
370
   -1
100
AcDbMText
 10
6010
 20
13950
 30
0
 40
80
 41
391.1110771907722
 71
    7
 72
    1
  1
CAISSE1
  7
standard
210
0
220
0
230
1
 50
0
 73
    2
 44
1
  0
MTEXT
  5
184
100
AcDbEntity
  8
_LEGENDE
  6
ByLayer
 62
  256
370
   -1
100
AcDbMText
 10
7958.5
 20
14900
 30
0
 40
80
 41
151.1111111111161
 71
    8
 72
    1
  1
90%%D
  7
standard
210
0
220
0
230
1
 50
0
 73
    2
 44
1
  0
MTEXT
  5
185
100
AcDbEntity
  8
_LEGENDE
  6
ByLayer
 62
  256
370
   -1
100
AcDbMText
 10
7510
 20
13950
 30
0
 40
80
 41
408.8888549685499
 71
    7
 72
    1
  1
CAISSE2
  7
standard
210
0
220
0
230
1
 50
0
 73
    2
 44
1
  0
MTEXT
  5
186
100
AcDbEntity
  8
_LEGENDE
  6
ByLayer
 62
  256
370
   -1
100
AcDbMText
 10
11110
 20
16980
 30
0
 40
80
 41
391.111111111116
 71
    7
 72
    1
  1
GRILLE2
  7
standard
210
0
220
0
230
1
 50
0
 73
    2
 44
1
  0
MTEXT
  5
187
100
AcDbEntity
  8
_LEGENDE
  6
ByLayer
 62
  256
370
   -1
100
AcDbMText
 10
11000
 20
14400
 30
0
 40
80
 41
373.3333333333383
 71
    7
 72
    1
  1
GRILLE1
  7
standard
210
0
220
0
230
1
 50
0
 73
    2
 44
1
  0
MTEXT
  5
188
100
AcDbEntity
  8
_LEGENDE
  6
ByLayer
 62
  256
370
   -1
100
AcDbMText
 10
11010
 20
12474
 30
0
 40
80
 41
391.1111111111209
 71
    7
 72
    1
  1
GRILLE3
  7
standard
210
0
220
0
230
1
 50
0
 73
    2
 44
1
  0
MTEXT
  5
189
100
AcDbEntity
  8
_LEGENDE
  6
ByLayer
 62
  256
370
   -1
100
AcDbMText
 10
12210
 20
12474
 30
0
 40
80
 41
400.0000000000049
 71
    7
 72
    1
  1
GRILLE4
  7
standard
210
0
220
0
230
1
 50
0
 73
    2
 44
1
  0
MTEXT
  5
18A
100
AcDbEntity
  8
_LEGENDE
  6
ByLayer
 62
  256
370
   -1
100
AcDbMText
 10
11010
 20
11610
 30
0
 40
80
 41
391.1111111111209
 71
    7
 72
    1
  1
GRILLE5
  7
standard
210
0
220
0
230
1
 50
0
 73
    2
 44
1
  0
MTEXT
  5
18B
100
AcDbEntity
  8
_LEGENDE
  6
ByLayer
 62
  256
370
   -1
100
AcDbMText
 10
12210
 20
11610
 30
0
 40
80
 41
391.1111111111209
 71
    7
 72
    1
  1
GRILLE6
  7
standard
210
0
220
0
230
1
 50
0
 73
    2
 44
1
  0
LEADER
  5
18C
100
AcDbEntity
  8
_LEGENDE
  6
ByLayer
 62
  256
370
   -1
100
AcDbLeader
  3
Standard
 71
    1
 72
    0
 73
    3
 74
    0
 75
    0
 40
1
 41
10
 76
2
 76
2
 10
12900
 20
18132.83825237006
 30
0
 10
13620
 20
18400
 30
0
  0
MTEXT
  5
18D
100
AcDbEntity
  8
_LEGENDE
  6
ByLayer
 62
  256
370
   -1
100
AcDbMText
 10
13120
 20
18400
 30
0
 40
80
 41
1275.555521635227
 71
    7
 72
    1
  1
GRILLES STANDARD ×19
  7
standard
210
0
220
0
230
1
 50
0
 73
    2
 44
1
  0
LINE
  5
18E
100
AcDbEntity
  8
1-tole-joints
  6
ByLayer
 62
  256
370
   -1
100
AcDbLine
 10
1000.482160463827
 20
18600
 11
3999.517839536173
 21
18600
  0
LINE
  5
18F
100
AcDbEntity
  8
1-tole-joints
  6
DASHEDTINY
 62
  256
370
   -1
100
AcDbLine
 10
1221.243266799298
 20
18630
 11
1221.243266799298
 21
18600
  0
LINE
  5
190
100
AcDbEntity
  8
1-tole-joints
  6
DASHEDTINY
 62
  256
370
   -1
100
AcDbLine
 10
1476.509822840722
 20
18630
 11
1476.509822840722
 21
18600
  0
LINE
  5
191
100
AcDbEntity
  8
1-tole-joints
  6
DASHEDTINY
 62
  256
370
   -1
100
AcDbLine
 10
3523.490177159059
 20
18630
 11
3523.490177159067
 21
18600
  0
LINE
  5
192
100
AcDbEntity
  8
1-tole-joints
  6
DASHEDTINY
 62
  256
370
   -1
100
AcDbLine
 10
3778.756733200491
 20
18630
 11
3778.756733200498
 21
18600
  0
LINE
  5
193
100
AcDbEntity
  8
1-tole-joints
  6
DASHEDTINY
 62
  256
370
   -1
100
AcDbLine
 10
1221.243266799298
 20
18730
 11
1221.243266799298
 21
18700
  0
LINE
  5
194
100
AcDbEntity
  8
1-tole-joints
  6
DASHEDTINY
 62
  256
370
   -1
100
AcDbLine
 10
1476.509822840722
 20
18730
 11
1476.509822840722
 21
18700
  0
LINE
  5
195
100
AcDbEntity
  8
1-tole-joints
  6
DASHEDTINY
 62
  256
370
   -1
100
AcDbLine
 10
3523.490177159059
 20
18730
 11
3523.490177159067
 21
18700
  0
LINE
  5
196
100
AcDbEntity
  8
1-tole-joints
  6
DASHEDTINY
 62
  256
370
   -1
100
AcDbLine
 10
3778.756733200491
 20
18730
 11
3778.756733200498
 21
18700
  0
LINE
  5
197
100
AcDbEntity
  8
1-tole-joints
  6
DASHEDTINY
 62
  256
370
   -1
100
AcDbLine
 10
1221.243266799298
 20
18830
 11
1221.243266799298
 21
18800
  0
LINE
  5
198
100
AcDbEntity
  8
1-tole-joints
  6
DASHEDTINY
 62
  256
370
   -1
100
AcDbLine
 10
1476.509822840722
 20
18830
 11
1476.509822840722
 21
18800
  0
LINE
  5
199
100
AcDbEntity
  8
1-tole-joints
  6
DASHEDTINY
 62
  256
370
   -1
100
AcDbLine
 10
3523.490177159059
 20
18830
 11
3523.490177159067
 21
18800
  0
LINE
  5
19A
100
AcDbEntity
  8
1-tole-joints
  6
DASHEDTINY
 62
  256
370
   -1
100
AcDbLine
 10
3778.756733200491
 20
18830
 11
3778.756733200498
 21
18800
  0
LINE
  5
19B
100
AcDbEntity
  8
1-tole-joints
  6
DASHEDTINY
 62
  256
370
   -1
100
AcDbLine
 10
1221.243266799298
 20
18930
 11
1221.243266799298
 21
18900
  0
LINE
  5
19C
100
AcDbEntity
  8
1-tole-joints
  6
DASHEDTINY
 62
  256
370
   -1
100
AcDbLine
 10
1476.509822840722
 20
18930
 11
1476.509822840722
 21
18900
  0
LINE
  5
19D
100
AcDbEntity
  8
1-tole-joints
  6
DASHEDTINY
 62
  256
370
   -1
100
AcDbLine
 10
3523.490177159059
 20
18930
 11
3523.490177159067
 21
18900
  0
LINE
  5
19E
100
AcDbEntity
  8
1-tole-joints
  6
DASHEDTINY
 62
  256
370
   -1
100
AcDbLine
 10
3778.756733200491
 20
18930
 11
3778.756733200498
 21
18900
  0
LWPOLYLINE
  5
19F
100
AcDbEntity
  8
1-tole-joints
  6
ByLayer
 62
  256
370
   -1
100
AcDbPolyline
 90
    4
 70
    1
 43
0
 10
1000
 20
18600
 10
4000
 20
18600
 10
4000
 20
18630
 10
1000
 20
18630
  0
LWPOLYLINE
  5
1A0
100
AcDbEntity
  8
1-tole-joints
  6
ByLayer
 62
  256
370
   -1
100
AcDbPolyline
 90
    4
 70
    1
 43
0
 10
1000
 20
18700
 10
4000
 20
18700
 10
4000
 20
18730
 10
1000
 20
18730
  0
LWPOLYLINE
  5
1A1
100
AcDbEntity
  8
1-tole-joints
  6
ByLayer
 62
  256
370
   -1
100
AcDbPolyline
 90
    4
 70
    1
 43
0
 10
1000
 20
18800
 10
4000
 20
18800
 10
4000
 20
18830
 10
1000
 20
18830
  0
LWPOLYLINE
  5
1A2
100
AcDbEntity
  8
1-tole-joints
  6
ByLayer
 62
  256
370
   -1
100
AcDbPolyline
 90
    4
 70
    1
 43
0
 10
1000
 20
18900
 10
4000
 20
18900
 10
4000
 20
18930
 10
1000
 20
18930
  0
LWPOLYLINE
  5
1A3
100
AcDbEntity
  8
1-tole-joints
  6
ByLayer
 62
  256
370
   -1
100
AcDbPolyline
 90
    4
 70
    1
 43
0
 10
1000
 20
17300
 10
1000
 20
17270
 10
3220
 20
17270
 10
3220
 20
17300
  0
LWPOLYLINE
  5
1A4
100
AcDbEntity
  8
1-tole-joints
  6
ByLayer
 62
  256
370
   -1
100
AcDbPolyline
 90
    4
 70
    1
 43
0
 10
1000
 20
17400
 10
1000
 20
17370
 10
3220
 20
17370
 10
3220
 20
17400
  0
LWPOLYLINE
  5
1A5
100
AcDbEntity
  8
1-tole-joints
  6
ByLayer
 62
  256
370
   -1
100
AcDbPolyline
 90
    4
 70
    1
 43
0
 10
1000
 20
17500
 10
1000
 20
17470
 10
3220
 20
17470
 10
3220
 20
17500
  0
LWPOLYLINE
  5
1A6
100
AcDbEntity
  8
1-tole-joints
  6
ByLayer
 62
  256
370
   -1
100
AcDbPolyline
 90
    4
 70
    1
 43
0
 10
1000
 20
17600
 10
1000
 20
17570
 10
3220
 20
17570
 10
3220
 20
17600
  0
LWPOLYLINE
  5
1A7
100
AcDbEntity
  8
1-tole-joints
  6
ByLayer
 62
  256
370
   -1
100
AcDbPolyline
 90
    4
 70
    1
 43
0
 10
1000
 20
17700
 10
1000
 20
17670
 10
3220
 20
17670
 10
3220
 20
17700
  0
LWPOLYLINE
  5
1A8
100
AcDbEntity
  8
1-tole-joints
  6
ByLayer
 62
  256
370
   -1
100
AcDbPolyline
 90
    4
 70
    1
 43
0
 10
1000
 20
17800
 10
1000
 20
17770
 10
3220
 20
17770
 10
3220
 20
17800
  0
LWPOLYLINE
  5
1A9
100
AcDbEntity
  8
1-tole-joints
  6
ByLayer
 62
  256
370
   -1
100
AcDbPolyline
 90
    4
 70
    1
 43
0
 10
1000
 20
17900
 10
1000
 20
17870
 10
3220
 20
17870
 10
3220
 20
17900
  0
LWPOLYLINE
  5
1AA
100
AcDbEntity
  8
1-tole-joints
  6
ByLayer
 62
  256
370
   -1
100
AcDbPolyline
 90
    4
 70
    1
 43
0
 10
1000
 20
18000
 10
1000
 20
17970
 10
3220
 20
17970
 10
3220
 20
18000
  0
LWPOLYLINE
  5
1AB
100
AcDbEntity
  8
1-tole-joints
  6
ByLayer
 62
  256
370
   -1
100
AcDbPolyline
 90
    4
 70
    1
 43
0
 10
1000
 20
16700
 10
3440
 20
16700
 10
3440
 20
16640
 10
1000
 20
16640
  0
LINE
  5
1AC
100
AcDbEntity
  8
1-tole-joints
  6
DASHEDTINY
 62
  256
370
   -1
100
AcDbLine
 10
1000
 20
16670
 11
3440
 21
16670
  0
LWPOLYLINE
  5
1AD
100
AcDbEntity
  8
1-tole-joints
  6
ByLayer
 62
  256
370
   -1
100
AcDbPolyline
 90
    4
 70
    1
 43
0
 10
1000
 20
16600
 10
3440
 20
16600
 10
3440
 20
16540
 10
1000
 20
16540
  0
LINE
  5
1AE
100
AcDbEntity
  8
1-tole-joints
  6
DASHEDTINY
 62
  256
370
   -1
100
AcDbLine
 10
1000
 20
16570
 11
3440
 21
16570
  0
LWPOLYLINE
  5
1AF
100
AcDbEntity
  8
1-tole-joints
  6
ByLayer
 62
  256
370
   -1
100
AcDbPolyline
 90
    4
 70
    1
 43
0
 10
1000
 20
15900
 10
3440
 20
15900
 10
3440
 20
15840
 10
1000
 20
15840
  0
LINE
  5
1B0
100
AcDbEntity
  8
1-tole-joints
  6
DASHEDTINY
 62
  256
370
   -1
100
AcDbLine
 10
1000
 20
15870
 11
3440
 21
15870
  0
LWPOLYLINE
  5
1B1
100
AcDbEntity
  8
1-tole-joints
  6
ByLayer
 62
  256
370
   -1
100
AcDbPolyline
 90
    4
 70
    1
 43
0
 10
1000
 20
15800
 10
3440
 20
15800
 10
3440
 20
15740
 10
1000
 20
15740
  0
LINE
  5
1B2
100
AcDbEntity
  8
1-tole-joints
  6
DASHEDTINY
 62
  256
370
   -1
100
AcDbLine
 10
1000
 20
15770
 11
3440
 21
15770
  0
LWPOLYLINE
  5
1B3
100
AcDbEntity
  8
1-tole-joints
  6
ByLayer
 62
  256
370
   -1
100
AcDbPolyline
 90
    4
 70
    1
 43
0
 10
1000
 20
15100
 10
1793
 20
15100
 10
1793
 20
15040
 10
1000
 20
15040
  0
LWPOLYLINE
  5
1B4
100
AcDbEntity
  8
1-tole-joints
  6
ByLayer
 62
  256
370
   -1
100
AcDbPolyline
 90
    4
 70
    1
 43
0
 10
1000
 20
15000
 10
1793
 20
15000
 10
1793
 20
14940
 10
1000
 20
14940
  0
LINE
  5
1B5
100
AcDbEntity
  8
1-tole-joints
  6
DASHEDTINY
 62
  256
370
   -1
100
AcDbLine
 10
1000
 20
15070
 11
1793
 21
15070
  0
LINE
  5
1B6
100
AcDbEntity
  8
1-tole-joints
  6
DASHEDTINY
 62
  256
370
   -1
100
AcDbLine
 10
1793
 20
14970
 11
1000
 21
14970
  0
LWPOLYLINE
  5
1B7
100
AcDbEntity
  8
1-tole-joints
  6
ByLayer
 62
  256
370
   -1
100
AcDbPolyline
 90
    4
 70
    1
 43
0
 10
1000
 20
14300
 10
2060
 20
14300
 10
2060
 20
14240
 10
1000
 20
14240
  0
LINE
  5
1B8
100
AcDbEntity
  8
1-tole-joints
  6
DASHEDTINY
 62
  256
370
   -1
100
AcDbLine
 10
2060
 20
14270
 11
1000
 21
14270
  0
LWPOLYLINE
  5
1B9
100
AcDbEntity
  8
1-tole-joints
  6
ByLayer
 62
  256
370
   -1
100
AcDbPolyline
 90
    4
 70
    1
 43
0
 10
1000
 20
13500
 10
3046
 20
13500
 10
3046
 20
13440
 10
1000
 20
13440
  0
LINE
  5
1BA
100
AcDbEntity
  8
1-tole-joints
  6
DASHEDTINY
 62
  256
370
   -1
100
AcDbLine
 10
1000
 20
13470
 11
3046
 21
13470
  0
LWPOLYLINE
  5
1BB
100
AcDbEntity
  8
1-tole-joints
  6
ByLayer
 62
  256
370
   -1
100
AcDbPolyline
 90
    4
 70
    1
 43
0
 10
1000
 20
12700
 10
1254
 20
12700
 10
1254
 20
12640
 10
1000
 20
12640
  0
LWPOLYLINE
  5
1BC
100
AcDbEntity
  8
1-tole-joints
  6
ByLayer
 62
  256
370
   -1
100
AcDbPolyline
 90
    4
 70
    1
 43
0
 10
1000
 20
12600
 10
1254
 20
12600
 10
1254
 20
12540
 10
1000
 20
12540
  0
LINE
  5
1BD
100
AcDbEntity
  8
1-tole-joints
  6
DASHEDTINY
 62
  256
370
   -1
100
AcDbLine
 10
1000
 20
12670
 11
1254
 21
12670
  0
LINE
  5
1BE
100
AcDbEntity
  8
1-tole-joints
  6
DASHEDTINY
 62
  256
370
   -1
100
AcDbLine
 10
1000
 20
12570
 11
1254
 21
12570
  0
LWPOLYLINE
  5
1BF
100
AcDbEntity
  8
1-tole-caisse
  6
ByLayer
 62
  256
370
   -1
100
AcDbPolyline
 90
    4
 70
    1
 43
0
 10
8837
 20
18000
 10
6000
 20
18000
 10
6000
 20
17500
 10
8837
 20
17500
  0
LINE
  5
1C0
100
AcDbEntity
  8
1-tole-caisse
  6
DASHEDTINY
 62
  256
370
   -1
100
AcDbLine
 10
7877
 20
17500
 11
7877
 21
18000
  0
LINE
  5
1C1
100
AcDbEntity
  8
1-tole-caisse
  6
DASHEDTINY
 62
  256
370
   -1
100
AcDbLine
 10
6960
 20
18000
 11
6960
 21
17500
  0
LWPOLYLINE
  5
1C2
100
AcDbEntity
  8
1-tole-caisse
  6
ByLayer
 62
  256
370
   -1
100
AcDbPolyline
 90
    4
 70
    1
 43
0
 10
6000
 20
17000
 10
8837
 20
17000
 10
8837
 20
16500
 10
6000
 20
16500
  0
LINE
  5
1C3
100
AcDbEntity
  8
1-tole-caisse
  6
DASHEDTINY
 62
  256
370
   -1
100
AcDbLine
 10
6960
 20
17000
 11
6960
 21
16500
  0
LINE
  5
1C4
100
AcDbEntity
  8
1-tole-caisse
  6
DASHEDTINY
 62
  256
370
   -1
100
AcDbLine
 10
7877
 20
16500
 11
7877
 21
17000
  0
LINE
  5
1C5
100
AcDbEntity
  8
1-tole-caisse
  6
DASHEDTINY
 62
  256
370
   -1
100
AcDbLine
 10
6917
 20
14900
 11
6000
 21
14900
  0
LWPOLYLINE
  5
1C6
100
AcDbEntity
  8
1-tole-caisse
  6
ByLayer
 62
  256
370
   -1
100
AcDbPolyline
 90
    4
 70
    1
 43
0
 10
6000
 20
13940
 10
6917
 20
13940
 10
6917
 20
15000
 10
6000
 20
15000
  0
LINE
  5
1C7
100
AcDbEntity
  8
1-tole-caisse
  6
DASHEDTINY
 62
  256
370
   -1
100
AcDbLine
 10
8417
 20
14900
 11
7500
 21
14900
  0
LWPOLYLINE
  5
1C8
100
AcDbEntity
  8
1-tole-caisse
  6
ByLayer
 62
  256
370
   -1
100
AcDbPolyline
 90
    4
 70
    1
 43
0
 10
7500
 20
13940
 10
8417
 20
13940
 10
8417
 20
15000
 10
7500
 20
15000
  0
LINE
  5
1C9
100
AcDbEntity
  8
1-grilles
  6
ByLayer
 62
  256
370
   -1
100
AcDbLine
 10
11000
 20
16970
 11
11000
 21
17000
  0
LINE
  5
1CA
100
AcDbEntity
  8
1-grilles
  6
ByLayer
 62
  256
370
   -1
100
AcDbLine
 10
11000
 20
17000
 11
11205
 21
17150
  0
LINE
  5
1CB
100
AcDbEntity
  8
1-grilles
  6
ByLayer
 62
  256
370
   -1
100
AcDbLine
 10
11205
 20
17150
 11
13251
 21
17150
  0
LINE
  5
1CC
100
AcDbEntity
  8
1-grilles
  6
ByLayer
 62
  256
370
   -1
100
AcDbLine
 10
13251
 20
17150
 11
13456
 21
17000
  0
LINE
  5
1CD
100
AcDbEntity
  8
1-grilles
  6
ByLayer
 62
  256
370
   -1
100
AcDbLine
 10
13456
 20
17000
 11
13456
 21
16970
  0
LINE
  5
1CE
100
AcDbEntity
  8
1-grilles
  6
ByLayer
 62
  256
370
   -1
100
AcDbLine
 10
13456
 20
16970
 11
11000
 21
16970
  0
LWPOLYLINE
  5
1CF
100
AcDbEntity
  8
1-grilles
  6
ByLayer
 62
  256
370
   -1
100
AcDbPolyline
 90
    4
 70
    1
 43
0
 10
12020
 20
16240
 10
10990
 20
16240
 10
10990
 20
14390
 10
12020
 20
14390
  0
LINE
  5
1D0
100
AcDbEntity
  8
1-grlle-caisse
  6
ByLayer
 62
  256
370
   -1
100
AcDbLine
 10
10995
 20
13371
 11
11852
 21
13371
  0
LINE
  5
1D1
100
AcDbEntity
  8
1-grlle-caisse
  6
ByLayer
 62
  256
370
   -1
100
AcDbLine
 10
11852
 20
13371
 11
11852
 21
13346
  0
LINE
  5
1D2
100
AcDbEntity
  8
1-grlle-caisse
  6
ByLayer
 62
  256
370
   -1
100
AcDbLine
 10
11852
 20
13346
 11
11877
 21
13346
  0
LINE
  5
1D3
100
AcDbEntity
  8
1-grlle-caisse
  6
ByLayer
 62
  256
370
   -1
100
AcDbLine
 10
11877
 20
13346
 11
11877
 21
12446
  0
LINE
  5
1D4
100
AcDbEntity
  8
1-grlle-caisse
  6
ByLayer
 62
  256
370
   -1
100
AcDbLine
 10
11877
 20
12446
 11
11852
 21
12446
  0
LINE
  5
1D5
100
AcDbEntity
  8
1-grlle-caisse
  6
ByLayer
 62
  256
370
   -1
100
AcDbLine
 10
11852
 20
12446
 11
11852
 21
12421
  0
LINE
  5
1D6
100
AcDbEntity
  8
1-grlle-caisse
  6
ByLayer
 62
  256
370
   -1
100
AcDbLine
 10
11852
 20
12421
 11
10995
 21
12421
  0
LINE
  5
1D7
100
AcDbEntity
  8
1-grlle-caisse
  6
ByLayer
 62
  256
370
   -1
100
AcDbLine
 10
10995
 20
12421
 11
10995
 21
12446
  0
LINE
  5
1D8
100
AcDbEntity
  8
1-grlle-caisse
  6
ByLayer
 62
  256
370
   -1
100
AcDbLine
 10
10995
 20
12446
 11
10970
 21
12446
  0
LINE
  5
1D9
100
AcDbEntity
  8
1-grlle-caisse
  6
ByLayer
 62
  256
370
   -1
100
AcDbLine
 10
10970
 20
12446
 11
10970
 21
13346
  0
LINE
  5
1DA
100
AcDbEntity
  8
1-grlle-caisse
  6
ByLayer
 62
  256
370
   -1
100
AcDbLine
 10
10970
 20
13346
 11
10995
 21
13346
  0
LINE
  5
1DB
100
AcDbEntity
  8
1-grlle-caisse
  6
ByLayer
 62
  256
370
   -1
100
AcDbLine
 10
10995
 20
13346
 11
10995
 21
13371
  0
LWPOLYLINE
  5
1DC
100
AcDbEntity
  8
1-grlle-caisse
  6
ByLayer
 62
  256
370
   -1
100
AcDbPolyline
 90
    4
 70
    1
 43
0
 10
11000
 20
12000
 10
11917
 20
12000
 10
11917
 20
11600
 10
11000
 20
11600
  0
LINE
  5
1DD
100
AcDbEntity
  8
1-grlle-caisse
  6
ByLayer
 62
  256
370
   -1
100
AcDbLine
 10
12195
 20
13371
 11
13052
 21
13371
  0
LINE
  5
1DE
100
AcDbEntity
  8
1-grlle-caisse
  6
ByLayer
 62
  256
370
   -1
100
AcDbLine
 10
13052
 20
13371
 11
13052
 21
13346
  0
LINE
  5
1DF
100
AcDbEntity
  8
1-grlle-caisse
  6
ByLayer
 62
  256
370
   -1
100
AcDbLine
 10
13052
 20
13346
 11
13077
 21
13346
  0
LINE
  5
1E0
100
AcDbEntity
  8
1-grlle-caisse
  6
ByLayer
 62
  256
370
   -1
100
AcDbLine
 10
13077
 20
13346
 11
13077
 21
12446
  0
LINE
  5
1E1
100
AcDbEntity
  8
1-grlle-caisse
  6
ByLayer
 62
  256
370
   -1
100
AcDbLine
 10
13077
 20
12446
 11
13052
 21
12446
  0
LINE
  5
1E2
100
AcDbEntity
  8
1-grlle-caisse
  6
ByLayer
 62
  256
370
   -1
100
AcDbLine
 10
13052
 20
12446
 11
13052
 21
12421
  0
LINE
  5
1E3
100
AcDbEntity
  8
1-grlle-caisse
  6
ByLayer
 62
  256
370
   -1
100
AcDbLine
 10
13052
 20
12421
 11
12195
 21
12421
  0
LINE
  5
1E4
100
AcDbEntity
  8
1-grlle-caisse
  6
ByLayer
 62
  256
370
   -1
100
AcDbLine
 10
12195
 20
12421
 11
12195
 21
12446
  0
LINE
  5
1E5
100
AcDbEntity
  8
1-grlle-caisse
  6
ByLayer
 62
  256
370
   -1
100
AcDbLine
 10
12195
 20
12446
 11
12170
 21
12446
  0
LINE
  5
1E6
100
AcDbEntity
  8
1-grlle-caisse
  6
ByLayer
 62
  256
370
   -1
100
AcDbLine
 10
12170
 20
12446
 11
12170
 21
13346
  0
LINE
  5
1E7
100
AcDbEntity
  8
1-grlle-caisse
  6
ByLayer
 62
  256
370
   -1
100
AcDbLine
 10
12170
 20
13346
 11
12195
 21
13346
  0
LINE
  5
1E8
100
AcDbEntity
  8
1-grlle-caisse
  6
ByLayer
 62
  256
370
   -1
100
AcDbLine
 10
12195
 20
13346
 11
12195
 21
13371
  0
LWPOLYLINE
  5
1E9
100
AcDbEntity
  8
1-grlle-caisse
  6
ByLayer
 62
  256
370
   -1
100
AcDbPolyline
 90
    4
 70
    1
 43
0
 10
12200
 20
12000
 10
13117
 20
12000
 10
13117
 20
11600
 10
12200
 20
11600
  0
LWPOLYLINE
  5
1EA
100
AcDbEntity
  8
1-grilles-aerations-plafond
  6
ByLayer
 62
  256
370
   -1
100
AcDbPolyline
 90
    4
 70
    1
 43
0
 10
11100
 20
17800
 10
11020
 20
17800
 10
11020
 20
18600
 10
11100
 20
18600
  0
LWPOLYLINE
  5
1EB
100
AcDbEntity
  8
1-grilles-aerations-plafond
  6
ByLayer
 62
  256
370
   -1
100
AcDbPolyline
 90
    4
 70
    1
 43
0
 10
11200
 20
17800
 10
11120
 20
17800
 10
11120
 20
18600
 10
11200
 20
18600
  0
LWPOLYLINE
  5
1EC
100
AcDbEntity
  8
1-grilles-aerations-plafond
  6
ByLayer
 62
  256
370
   -1
100
AcDbPolyline
 90
    4
 70
    1
 43
0
 10
11300
 20
17800
 10
11220
 20
17800
 10
11220
 20
18600
 10
11300
 20
18600
  0
LWPOLYLINE
  5
1ED
100
AcDbEntity
  8
1-grilles-aerations-plafond
  6
ByLayer
 62
  256
370
   -1
100
AcDbPolyline
 90
    4
 70
    1
 43
0
 10
11400
 20
17800
 10
11320
 20
17800
 10
11320
 20
18600
 10
11400
 20
18600
  0
LWPOLYLINE
  5
1EE
100
AcDbEntity
  8
1-grilles-aerations-plafond
  6
ByLayer
 62
  256
370
   -1
100
AcDbPolyline
 90
    4
 70
    1
 43
0
 10
11500
 20
17800
 10
11420
 20
17800
 10
11420
 20
18600
 10
11500
 20
18600
  0
LWPOLYLINE
  5
1EF
100
AcDbEntity
  8
1-grilles-aerations-plafond
  6
ByLayer
 62
  256
370
   -1
100
AcDbPolyline
 90
    4
 70
    1
 43
0
 10
11600
 20
17800
 10
11520
 20
17800
 10
11520
 20
18600
 10
11600
 20
18600
  0
LWPOLYLINE
  5
1F0
100
AcDbEntity
  8
1-grilles-aerations-plafond
  6
ByLayer
 62
  256
370
   -1
100
AcDbPolyline
 90
    4
 70
    1
 43
0
 10
11700
 20
17800
 10
11620
 20
17800
 10
11620
 20
18600
 10
11700
 20
18600
  0
LWPOLYLINE
  5
1F1
100
AcDbEntity
  8
1-grilles-aerations-plafond
  6
ByLayer
 62
  256
370
   -1
100
AcDbPolyline
 90
    4
 70
    1
 43
0
 10
11800
 20
17800
 10
11720
 20
17800
 10
11720
 20
18600
 10
11800
 20
18600
  0
LWPOLYLINE
  5
1F2
100
AcDbEntity
  8
1-grilles-aerations-plafond
  6
ByLayer
 62
  256
370
   -1
100
AcDbPolyline
 90
    4
 70
    1
 43
0
 10
11900
 20
17800
 10
11820
 20
17800
 10
11820
 20
18600
 10
11900
 20
18600
  0
LWPOLYLINE
  5
1F3
100
AcDbEntity
  8
1-grilles-aerations-plafond
  6
ByLayer
 62
  256
370
   -1
100
AcDbPolyline
 90
    4
 70
    1
 43
0
 10
12000
 20
17800
 10
11920
 20
17800
 10
11920
 20
18600
 10
12000
 20
18600
  0
LWPOLYLINE
  5
1F4
100
AcDbEntity
  8
1-grilles-aerations-plafond
  6
ByLayer
 62
  256
370
   -1
100
AcDbPolyline
 90
    4
 70
    1
 43
0
 10
12100
 20
17800
 10
12020
 20
17800
 10
12020
 20
18600
 10
12100
 20
18600
  0
LWPOLYLINE
  5
1F5
100
AcDbEntity
  8
1-grilles-aerations-plafond
  6
ByLayer
 62
  256
370
   -1
100
AcDbPolyline
 90
    4
 70
    1
 43
0
 10
12200
 20
17800
 10
12120
 20
17800
 10
12120
 20
18600
 10
12200
 20
18600
  0
LWPOLYLINE
  5
1F6
100
AcDbEntity
  8
1-grilles-aerations-plafond
  6
ByLayer
 62
  256
370
   -1
100
AcDbPolyline
 90
    4
 70
    1
 43
0
 10
12300
 20
17800
 10
12220
 20
17800
 10
12220
 20
18600
 10
12300
 20
18600
  0
LWPOLYLINE
  5
1F7
100
AcDbEntity
  8
1-grilles-aerations-plafond
  6
ByLayer
 62
  256
370
   -1
100
AcDbPolyline
 90
    4
 70
    1
 43
0
 10
12400
 20
17800
 10
12320
 20
17800
 10
12320
 20
18600
 10
12400
 20
18600
  0
LWPOLYLINE
  5
1F8
100
AcDbEntity
  8
1-grilles-aerations-plafond
  6
ByLayer
 62
  256
370
   -1
100
AcDbPolyline
 90
    4
 70
    1
 43
0
 10
12500
 20
17800
 10
12420
 20
17800
 10
12420
 20
18600
 10
12500
 20
18600
  0
LWPOLYLINE
  5
1F9
100
AcDbEntity
  8
1-grilles-aerations-plafond
  6
ByLayer
 62
  256
370
   -1
100
AcDbPolyline
 90
    4
 70
    1
 43
0
 10
12600
 20
17800
 10
12520
 20
17800
 10
12520
 20
18600
 10
12600
 20
18600
  0
LWPOLYLINE
  5
1FA
100
AcDbEntity
  8
1-grilles-aerations-plafond
  6
ByLayer
 62
  256
370
   -1
100
AcDbPolyline
 90
    4
 70
    1
 43
0
 10
12700
 20
17800
 10
12620
 20
17800
 10
12620
 20
18600
 10
12700
 20
18600
  0
LWPOLYLINE
  5
1FB
100
AcDbEntity
  8
1-grilles-aerations-plafond
  6
ByLayer
 62
  256
370
   -1
100
AcDbPolyline
 90
    4
 70
    1
 43
0
 10
12800
 20
17800
 10
12720
 20
17800
 10
12720
 20
18600
 10
12800
 20
18600
  0
LWPOLYLINE
  5
1FC
100
AcDbEntity
  8
1-grilles-aerations-plafond
  6
ByLayer
 62
  256
370
   -1
100
AcDbPolyline
 90
    4
 70
    1
 43
0
 10
12900
 20
17800
 10
12820
 20
17800
 10
12820
 20
18600
 10
12900
 20
18600
  0
ENDSEC
  0
SECTION
  2
OBJECTS
  0
DICTIONARY
  5
C
330
0
100
AcDbDictionary
281
    1
  3
ACAD_GROUP
350
D
  0
DICTIONARY
  5
D
330
C
100
AcDbDictionary
281
    1
  0
PLOTSETTINGS
  5
1FD
100
AcDbPlotSettings
  6
1x1
 40
0
 41
0
 42
0
 43
0
  0
ENDSEC
  0
EOF
