999
dxfrw 0.6.3
  0
SECTION
  2
HEADER
  9
$ACADVER
  1
AC1021
  9
$DWGCODEPAGE
  3
ANSI_1252
  9
$INSBASE
 10
0
 20
0
 30
0
  9
$EXTMIN
 10
-245.0825214724778
 20
-3220.965313518145
 30
0
  9
$EXTMAX
 10
877.788699326906
 20
1388.735908961761
 30
0
  9
$LIMMIN
 10
0
 20
0
  9
$LIMMAX
 10
420
 20
297
  9
$ORTHOMODE
 70
    0
  9
$REGENMODE
 70
    1
  9
$FILLMODE
 70
    1
  9
$QTEXTMODE
 70
    0
  9
$MIRRTEXT
 70
    0
  9
$LTSCALE
 40
1
  9
$ATTMODE
 70
    0
  9
$TEXTSIZE
 40
2.5
  9
$TRACEWID
 40
15.68
  9
$TEXTSTYLE
  7
STANDARD
  9
$CLAYER
  8
calage
  9
$CELTYPE
  6
BYLAYER
  9
$CECOLOR
 62
  256
  9
$CELTSCALE
 40
1
  9
$DISPSILH
 70
    0
  9
$DIMSCALE
 40
1
  9
$DIMASZ
 40
20
  9
$DIMEXO
 40
0.625
  9
$DIMDLI
 40
3.75
  9
$DIMRND
 40
0
  9
$DIMDLE
 40
0
  9
$DIMEXE
 40
1.25
  9
$DIMTP
 40
0
  9
$DIMTM
 40
0
  9
$DIMTXT
 40
20
  9
$DIMCEN
 40
2.5
  9
$DIMTSZ
 40
0
  9
$DIMTOL
 70
    0
  9
$DIMLIM
 70
    0
  9
$DIMTIH
 70
    0
  9
$DIMTOH
 70
    0
  9
$DIMSE1
 70
    0
  9
$DIMSE2
 70
    0
  9
$DIMTAD
 70
    1
  9
$DIMZIN
 70
    1
  9
$DIMBLK
  1

  9
$DIMASO
 70
    1
  9
$DIMSHO
 70
    1
  9
$DIMPOST
  1

  9
$DIMAPOST
  1

  9
$DIMALT
 70
    0
  9
$DIMALTD
 70
    3
  9
$DIMALTF
 40
0.03937
  9
$DIMLFAC
 40
1
  9
$DIMTOFL
 70
    1
  9
$DIMTVP
 40
0
  9
$DIMTIX
 70
    0
  9
$DIMSOXD
 70
    0
  9
$DIMSAH
 70
    0
  9
$DIMBLK1
  1

  9
$DIMBLK2
  1

  9
$DIMSTYLE
  2
STANDARD
  9
$DIMCLRD
 70
    0
  9
$DIMCLRE
 70
    0
  9
$DIMCLRT
 70
    0
  9
$DIMTFAC
 40
1
  9
$DIMGAP
 40
0.625
  9
$DIMJUST
 70
    0
  9
$DIMSD1
 70
    0
  9
$DIMSD2
 70
    0
  9
$DIMTOLJ
 70
    0
  9
$DIMTZIN
 70
    8
  9
$DIMALTZ
 70
    0
  9
$DIMALTTZ
 70
    0
  9
$DIMUPT
 70
    0
  9
$DIMDEC
 70
    0
  9
$DIMTDEC
 70
    2
  9
$DIMALTU
 70
    2
  9
$DIMALTTD
 70
    3
  9
$DIMTXSTY
  7
standard
  9
$DIMAUNIT
 70
    0
  9
$DIMADEC
 70
    2
  9
$DIMALTRND
 40
0
  9
$DIMAZIN
 70
    0
  9
$DIMDSEP
 70
    0
  9
$DIMATFIT
 70
    3
  9
$DIMFRAC
 70
    0
  9
$DIMLDRBLK
  1
STANDARD
  9
$DIMLUNIT
 70
    2
  9
$DIMLWD
 70
   -2
  9
$DIMLWE
 70
   -2
  9
$DIMTMOVE
 70
    0
  9
$DIMFXL
 40
1
  9
$DIMFXLON
 70
    0
  9
$DIMJOGANG
 40
0.7854
  9
$DIMTFILL
 70
    0
  9
$DIMTFILLCLR
 70
    0
  9
$DIMARCSYM
 70
    0
  9
$DIMLTYPE
  6

  9
$DIMLTEX1
  6

  9
$DIMLTEX2
  6

  9
$LUNITS
 70
    2
  9
$LUPREC
 70
    4
  9
$SKETCHINC
 40
1
  9
$FILLETRAD
 40
0
  9
$AUNITS
 70
    0
  9
$AUPREC
 70
    2
  9
$MENU
  1
.
  9
$ELEVATION
 40
0
  9
$PELEVATION
 40
0
  9
$THICKNESS
 40
0
  9
$LIMCHECK
 70
    0
  9
$CHAMFERA
 40
0
  9
$CHAMFERB
 40
0
  9
$CHAMFERC
 40
0
  9
$CHAMFERD
 40
0
  9
$SKPOLY
 70
    0
  9
$USRTIMER
 70
    1
  9
$ANGBASE
 50
0
  9
$ANGDIR
 70
    0
  9
$PDMODE
 70
   34
  9
$PDSIZE
 40
0
  9
$PLINEWID
 40
0
  9
$SPLFRAME
 70
    0
  9
$SPLINETYPE
 70
    2
  9
$SPLINESEGS
 70
    8
  9
$HANDSEED
  5
20000
  9
$SURFTAB1
 70
    6
  9
$SURFTAB2
 70
    6
  9
$SURFTYPE
 70
    6
  9
$SURFU
 70
    6
  9
$SURFV
 70
    6
  9
$UCSBASE
  2

  9
$UCSNAME
  2

  9
$UCSORG
 10
0
 20
0
 30
0
  9
$UCSXDIR
 10
1
 20
0
 30
0
  9
$UCSYDIR
 10
0
 20
1
 30
0
  9
$UCSORTHOREF
  2

  9
$UCSORTHOVIEW
 70
    0
  9
$UCSORGTOP
 10
0
 20
0
 30
0
  9
$UCSORGBOTTOM
 10
0
 20
0
 30
0
  9
$UCSORGLEFT
 10
0
 20
0
 30
0
  9
$UCSORGRIGHT
 10
0
 20
0
 30
0
  9
$UCSORGFRONT
 10
0
 20
0
 30
0
  9
$UCSORGBACK
 10
0
 20
0
 30
0
  9
$PUCSBASE
  2

  9
$PUCSNAME
  2

  9
$PUCSORG
 10
0
 20
0
 30
0
  9
$PUCSXDIR
 10
1
 20
0
 30
0
  9
$PUCSYDIR
 10
0
 20
1
 30
0
  9
$PUCSORTHOREF
  2

  9
$PUCSORTHOVIEW
 70
    0
  9
$PUCSORGTOP
 10
0
 20
0
 30
0
  9
$PUCSORGBOTTOM
 10
0
 20
0
 30
0
  9
$PUCSORGLEFT
 10
0
 20
0
 30
0
  9
$PUCSORGRIGHT
 10
0
 20
0
 30
0
  9
$PUCSORGFRONT
 10
0
 20
0
 30
0
  9
$PUCSORGBACK
 10
0
 20
0
 30
0
  9
$USERI1
 70
    0
  9
$USERI2
 70
    0
  9
$USERI3
 70
    0
  9
$USERI4
 70
    0
  9
$USERI5
 70
    0
  9
$USERR1
 40
0
  9
$USERR2
 40
0
  9
$USERR3
 40
0
  9
$USERR4
 40
0
  9
$USERR5
 40
0
  9
$WORLDVIEW
 70
    1
  9
$SHADEDGE
 70
    3
  9
$SHADEDIF
 70
   70
  9
$TILEMODE
 70
    1
  9
$MAXACTVP
 70
   64
  9
$PINSBASE
 10
0
 20
0
 30
0
  9
$PLIMCHECK
 70
    0
  9
$PEXTMIN
 10
0
 20
0
 30
0
  9
$PEXTMAX
 10
0
 20
0
 30
0
  9
$GRIDMODE
 70
    1
  9
$SNAPSTYLE
 70
    0
  9
$GRIDUNIT
 10
0
 20
0
  9
$PLIMMIN
 10
0
 20
0
  9
$PLIMMAX
 10
297
 20
210
  9
$UNITMODE
 70
    0
  9
$VISRETAIN
 70
    1
  9
$PLINEGEN
 70
    0
  9
$PSLTSCALE
 70
    1
  9
$TREEDEPTH
 70
 3020
  9
$CMLSTYLE
  2
Standard
  9
$CMLJUST
 70
    0
  9
$CMLSCALE
 40
20
  9
$PROXYGRAPHICS
 70
    1
  9
$MEASUREMENT
 70
    1
  9
$CELWEIGHT
370
   -1
  9
$ENDCAPS
280
    0
  9
$JOINSTYLE
280
    0
  9
$LWDISPLAY
290
    0
  9
$INSUNITS
 70
    4
  9
$HYPERLINKBASE
  1

  9
$STYLESHEET
  1

  9
$XEDIT
290
    1
  9
$CEPSNTYPE
380
    0
  9
$PSTYLEMODE
290
    1
  9
$EXTNAMES
290
    1
  9
$PSVPSCALE
 40
1
  9
$OLESTARTUP
290
    0
  9
$SORTENTS
280
  127
  9
$INDEXCTL
280
    0
  9
$HIDETEXT
280
    1
  9
$XCLIPFRAME
290
    0
  9
$HALOGAP
280
    0
  9
$OBSCOLOR
 70
  257
  9
$OBSLTYPE
280
    0
  9
$INTERSECTIONDISPLAY
280
    0
  9
$INTERSECTIONCOLOR
 70
  257
  9
$DIMASSOC
280
    1
  9
$PROJECTNAME
  1

  9
$CAMERADISPLAY
290
    0
  9
$LENSLENGTH
 40
50
  9
$CAMERAHEIGHT
 40
0
  9
$STEPSPERSEC
 40
2
  9
$STEPSIZE
 40
50
  9
$3DDWFPREC
 40
2
  9
$PSOLWIDTH
 40
5
  9
$PSOLHEIGHT
 40
80
  9
$LOFTANG1
 40
1.570796326794897
  9
$LOFTANG2
 40
1.570796326794897
  9
$LOFTMAG1
 40
0
  9
$LOFTMAG2
 40
0
  9
$LOFTPARAM
 70
    7
  9
$LOFTNORMALS
280
    1
  9
$LATITUDE
 40
1
  9
$LONGITUDE
 40
1
  9
$NORTHDIRECTION
 40
0
  9
$TIMEZONE
 70
-8000
  9
$LIGHTGLYPHDISPLAY
280
    1
  9
$TILEMODELIGHTSYNCH
280
    1
  9
$SOLIDHIST
280
    1
  9
$SHOWHIST
280
    1
  9
$DWFFRAME
280
    2
  9
$DGNFRAME
280
    0
  9
$REALWORLDSCALE
290
    1
  9
$INTERFERECOLOR
 62
    1
  9
$CSHADOW
280
    0
  9
$SHADOWPLANELOCATION
 40
0
  0
ENDSEC
  0
SECTION
  2
CLASSES
  0
ENDSEC
  0
SECTION
  2
TABLES
  0
TABLE
  2
VPORT
  5
8
330
0
100
AcDbSymbolTable
 70
    1
  0
VPORT
  5
31
330
2
100
AcDbSymbolTableRecord
100
AcDbViewportTableRecord
  2
*ACTIVE
 70
    0
 10
0
 20
0
 11
1
 21
1
 12
3727.801909735138
 22
1143.566300129275
 13
0
 23
0
 14
10
 24
10
 15
10
 25
10
 16
0
 26
0
 36
1
 17
0
 27
0
 37
0
 40
8621.592988229537
 41
1.872561768530559
 42
50
 43
0
 44
0
 50
0
 51
0
 71
    0
 72
  100
 73
    1
 74
    3
 75
    0
 76
    1
 77
    0
 78
    0
281
    0
 65
    1
110
0
120
0
130
0
111
1
121
0
131
0
112
0
122
1
132
0
 79
    0
146
0
348
10020
 60
    7
 61
    5
292
1
282
    1
141
0
142
0
 63
  250
421
3358443
  0
ENDTAB
  0
TABLE
  2
LTYPE
  5
5
330
0
100
AcDbSymbolTable
 70
    4
  0
LTYPE
  5
14
330
5
100
AcDbSymbolTableRecord
100
AcDbLinetypeTableRecord
  2
ByBlock
 70
    0
  3

 72
   65
 73
    0
 40
0
  0
LTYPE
  5
15
330
5
100
AcDbSymbolTableRecord
100
AcDbLinetypeTableRecord
  2
ByLayer
 70
    0
  3

 72
   65
 73
    0
 40
0
  0
LTYPE
  5
16
330
5
100
AcDbSymbolTableRecord
100
AcDbLinetypeTableRecord
  2
Continuous
 70
    0
  3
Solid line
 72
   65
 73
    0
 40
0
  0
LTYPE
  5
32
330
5
100
AcDbSymbolTableRecord
100
AcDbLinetypeTableRecord
  2
DOT
 70
    0
  3
Dot . . . . . . . . . . . . . . . . . . . . . .
 72
   65
 73
    2
 40
6.35
 49
0
 74
    0
 49
-6.35
 74
    0
  0
LTYPE
  5
33
330
5
100
AcDbSymbolTableRecord
100
AcDbLinetypeTableRecord
  2
DOTTINY
 70
    0
  3
Dot (.15x) .....................................
 72
   65
 73
    2
 40
0.9525
 49
0
 74
    0
 49
-0.9525
 74
    0
  0
LTYPE
  5
34
330
5
100
AcDbSymbolTableRecord
100
AcDbLinetypeTableRecord
  2
DOT2
 70
    0
  3
Dot (.5x) .....................................
 72
   65
 73
    2
 40
3.175
 49
0
 74
    0
 49
-3.175
 74
    0
  0
LTYPE
  5
35
330
5
100
AcDbSymbolTableRecord
100
AcDbLinetypeTableRecord
  2
DOTX2
 70
    0
  3
Dot (2x) .  .  .  .  .  .  .  .  .  .  .  .  .
 72
   65
 73
    2
 40
12.7
 49
0
 74
    0
 49
-12.7
 74
    0
  0
LTYPE
  5
36
330
5
100
AcDbSymbolTableRecord
100
AcDbLinetypeTableRecord
  2
DASHED
 70
    0
  3
Dashed _ _ _ _ _ _ _ _ _ _ _ _ _ _ _ _ _
 72
   65
 73
    2
 40
19.05
 49
12.7
 74
    0
 49
-6.35
 74
    0
  0
LTYPE
  5
37
330
5
100
AcDbSymbolTableRecord
100
AcDbLinetypeTableRecord
  2
DASHEDTINY
 70
    0
  3
Dashed (.15x) _ _ _ _ _ _ _ _ _ _ _ _ _ _ _ _ _
 72
   65
 73
    2
 40
2.8575
 49
1.905
 74
    0
 49
-0.9525
 74
    0
  0
LTYPE
  5
38
330
5
100
AcDbSymbolTableRecord
100
AcDbLinetypeTableRecord
  2
DASHED2
 70
    0
  3
Dashed (.5x) _ _ _ _ _ _ _ _ _ _ _ _ _ _ _ _ _
 72
   65
 73
    2
 40
9.524999999999999
 49
6.35
 74
    0
 49
-3.175
 74
    0
  0
LTYPE
  5
39
330
5
100
AcDbSymbolTableRecord
100
AcDbLinetypeTableRecord
  2
DASHEDX2
 70
    0
  3
Dashed (2x) ____  ____  ____  ____  ____  ___
 72
   65
 73
    2
 40
38.09999999999999
 49
25.4
 74
    0
 49
-12.7
 74
    0
  0
LTYPE
  5
3A
330
5
100
AcDbSymbolTableRecord
100
AcDbLinetypeTableRecord
  2
DASHDOT
 70
    0
  3
Dash dot __ . __ . __ . __ . __ . __ . __ . __
 72
   65
 73
    4
 40
25.4
 49
12.7
 74
    0
 49
-6.35
 74
    0
 49
0
 74
    0
 49
-6.35
 74
    0
  0
LTYPE
  5
3B
330
5
100
AcDbSymbolTableRecord
100
AcDbLinetypeTableRecord
  2
DASHDOTTINY
 70
    0
  3
Dash dot (.15x) _._._._._._._._._._._._._._._.
 72
   65
 73
    4
 40
3.81
 49
1.905
 74
    0
 49
-0.9525
 74
    0
 49
0
 74
    0
 49
-0.9525
 74
    0
  0
LTYPE
  5
3C
330
5
100
AcDbSymbolTableRecord
100
AcDbLinetypeTableRecord
  2
DASHDOT2
 70
    0
  3
Dash dot (.5x) _._._._._._._._._._._._._._._.
 72
   65
 73
    4
 40
12.7
 49
6.35
 74
    0
 49
-3.175
 74
    0
 49
0
 74
    0
 49
-3.175
 74
    0
  0
LTYPE
  5
3D
330
5
100
AcDbSymbolTableRecord
100
AcDbLinetypeTableRecord
  2
DASHDOTX2
 70
    0
  3
Dash dot (2x) ____  .  ____  .  ____  .  ___
 72
   65
 73
    4
 40
50.8
 49
25.4
 74
    0
 49
-12.7
 74
    0
 49
0
 74
    0
 49
-12.7
 74
    0
  0
LTYPE
  5
3E
330
5
100
AcDbSymbolTableRecord
100
AcDbLinetypeTableRecord
  2
DIVIDE
 70
    0
  3
Divide ____ . . ____ . . ____ . . ____ . . ____
 72
   65
 73
    6
 40
31.75
 49
12.7
 74
    0
 49
-6.35
 74
    0
 49
0
 74
    0
 49
-6.35
 74
    0
 49
0
 74
    0
 49
-6.35
 74
    0
  0
LTYPE
  5
3F
330
5
100
AcDbSymbolTableRecord
100
AcDbLinetypeTableRecord
  2
DIVIDETINY
 70
    0
  3
Divide (.15x) __..__..__..__..__..__..__..__.._
 72
   65
 73
    6
 40
4.7625
 49
1.905
 74
    0
 49
-0.9525
 74
    0
 49
0
 74
    0
 49
-0.9525
 74
    0
 49
0
 74
    0
 49
-0.9525
 74
    0
  0
LTYPE
  5
40
330
5
100
AcDbSymbolTableRecord
100
AcDbLinetypeTableRecord
  2
DIVIDE2
 70
    0
  3
Divide (.5x) __..__..__..__..__..__..__..__.._
 72
   65
 73
    6
 40
15.875
 49
6.35
 74
    0
 49
-3.175
 74
    0
 49
0
 74
    0
 49
-3.175
 74
    0
 49
0
 74
    0
 49
-3.175
 74
    0
  0
LTYPE
  5
41
330
5
100
AcDbSymbolTableRecord
100
AcDbLinetypeTableRecord
  2
DIVIDEX2
 70
    0
  3
Divide (2x) ________  .  .  ________  .  .  _
 72
   65
 73
    6
 40
63.5
 49
25.4
 74
    0
 49
-12.7
 74
    0
 49
0
 74
    0
 49
-12.7
 74
    0
 49
0
 74
    0
 49
-12.7
 74
    0
  0
LTYPE
  5
42
330
5
100
AcDbSymbolTableRecord
100
AcDbLinetypeTableRecord
  2
BORDER
 70
    0
  3
Border __ __ . __ __ . __ __ . __ __ . __ __ .
 72
   65
 73
    6
 40
44.45
 49
12.7
 74
    0
 49
-6.35
 74
    0
 49
12.7
 74
    0
 49
-6.35
 74
    0
 49
0
 74
    0
 49
-6.35
 74
    0
  0
LTYPE
  5
43
330
5
100
AcDbSymbolTableRecord
100
AcDbLinetypeTableRecord
  2
BORDERTINY
 70
    0
  3
Border (.15x) __.__.__.__.__.__.__.__.__.__.__.
 72
   65
 73
    6
 40
6.6675
 49
1.905
 74
    0
 49
-0.9525
 74
    0
 49
1.905
 74
    0
 49
-0.9525
 74
    0
 49
0
 74
    0
 49
-0.9525
 74
    0
  0
LTYPE
  5
44
330
5
100
AcDbSymbolTableRecord
100
AcDbLinetypeTableRecord
  2
BORDER2
 70
    0
  3
Border (.5x) __.__.__.__.__.__.__.__.__.__.__.
 72
   65
 73
    6
 40
22.225
 49
6.35
 74
    0
 49
-3.175
 74
    0
 49
6.35
 74
    0
 49
-3.175
 74
    0
 49
0
 74
    0
 49
-3.175
 74
    0
  0
LTYPE
  5
45
330
5
100
AcDbSymbolTableRecord
100
AcDbLinetypeTableRecord
  2
BORDERX2
 70
    0
  3
Border (2x) ____  ____  .  ____  ____  .  ___
 72
   65
 73
    6
 40
88.89999999999999
 49
25.4
 74
    0
 49
-12.7
 74
    0
 49
25.4
 74
    0
 49
-12.7
 74
    0
 49
0
 74
    0
 49
-12.7
 74
    0
  0
LTYPE
  5
46
330
5
100
AcDbSymbolTableRecord
100
AcDbLinetypeTableRecord
  2
CENTER
 70
    0
  3
Center ____ _ ____ _ ____ _ ____ _ ____ _ ____
 72
   65
 73
    4
 40
50.8
 49
31.75
 74
    0
 49
-6.35
 74
    0
 49
6.35
 74
    0
 49
-6.35
 74
    0
  0
LTYPE
  5
47
330
5
100
AcDbSymbolTableRecord
100
AcDbLinetypeTableRecord
  2
CENTERTINY
 70
    0
  3
Center (.15x) ___ _ ___ _ ___ _ ___ _ ___ _ ___
 72
   65
 73
    4
 40
7.619999999999999
 49
4.7625
 74
    0
 49
-0.9525
 74
    0
 49
0.9525
 74
    0
 49
-0.9525
 74
    0
  0
LTYPE
  5
48
330
5
100
AcDbSymbolTableRecord
100
AcDbLinetypeTableRecord
  2
CENTER2
 70
    0
  3
Center (.5x) ___ _ ___ _ ___ _ ___ _ ___ _ ___
 72
   65
 73
    4
 40
28.575
 49
19.05
 74
    0
 49
-3.175
 74
    0
 49
3.175
 74
    0
 49
-3.175
 74
    0
  0
LTYPE
  5
49
330
5
100
AcDbSymbolTableRecord
100
AcDbLinetypeTableRecord
  2
CENTERX2
 70
    0
  3
Center (2x) ________  __  ________  __  _____
 72
   65
 73
    4
 40
101.6
 49
63.5
 74
    0
 49
-12.7
 74
    0
 49
12.7
 74
    0
 49
-12.7
 74
    0
  0
ENDTAB
  0
TABLE
  2
LAYER
  5
2
330
0
100
AcDbSymbolTable
 70
    1
  0
LAYER
  5
10
330
2
100
AcDbSymbolTableRecord
100
AcDbLayerTableRecord
  2
0
 70
    0
 62
    7
  6
CONTINUOUS
370
    0
390
F
  0
LAYER
  5
4A
330
2
100
AcDbSymbolTableRecord
100
AcDbLayerTableRecord
  2
amici
 70
    0
 62
    6
  6
CONTINUOUS
370
    0
390
F
  0
LAYER
  5
4B
330
2
100
AcDbSymbolTableRecord
100
AcDbLayerTableRecord
  2
calage
 70
    0
 62
   96
420
32768
  6
CONTINUOUS
370
    0
390
F
  0
LAYER
  5
4C
330
2
100
AcDbSymbolTableRecord
100
AcDbLayerTableRecord
  2
champs
 70
    1
 62
    1
  6
DOTTINY
370
    0
390
F
  0
LAYER
  5
4D
330
2
100
AcDbSymbolTableRecord
100
AcDbLayerTableRecord
  2
mesures
 70
    1
 62
    7
  6
CONTINUOUS
370
    0
390
F
  0
LAYER
  5
4E
330
2
100
AcDbSymbolTableRecord
100
AcDbLayerTableRecord
  2
petite cage
 70
    1
 62
   16
420
8388608
  6
CONTINUOUS
370
    0
390
F
  0
LAYER
  5
4F
330
2
100
AcDbSymbolTableRecord
100
AcDbLayerTableRecord
  2
planchette
 70
    1
 62
    7
  6
CONTINUOUS
370
    0
390
F
  0
LAYER
  5
50
330
2
100
AcDbSymbolTableRecord
100
AcDbLayerTableRecord
  2
projection
 70
    1
 62
  216
420
8388736
  6
CONTINUOUS
370
    0
390
F
  0
LAYER
  5
51
330
2
100
AcDbSymbolTableRecord
100
AcDbLayerTableRecord
  2
sol
 70
    1
 62
    7
  6
CONTINUOUS
370
    0
390
F
  0
LAYER
  5
52
330
2
100
AcDbSymbolTableRecord
100
AcDbLayerTableRecord
  2
soufflet
 70
    1
 62
    5
  6
CONTINUOUS
370
    0
390
F
  0
LAYER
  5
53
330
2
100
AcDbSymbolTableRecord
100
AcDbLayerTableRecord
  2
traits construction
 70
    1
 62
    3
  6
CONTINUOUS
370
    0
390
F
1001
LibreCad
1070
    1
  0
ENDTAB
  0
TABLE
  2
STYLE
  5
3
330
0
100
AcDbSymbolTable
 70
    3
  0
STYLE
  5
54
330
2
100
AcDbSymbolTableRecord
100
AcDbTextStyleTableRecord
  2
Standard
 70
    0
 40
0
 41
1
 50
0
 71
    0
 42
1
  3
txt
  4

  0
ENDTAB
  0
TABLE
  2
VIEW
  5
6
330
0
100
AcDbSymbolTable
 70
    0
  0
ENDTAB
  0
TABLE
  2
UCS
  5
7
330
0
100
AcDbSymbolTable
 70
    0
  0
ENDTAB
  0
TABLE
  2
APPID
  5
9
330
0
100
AcDbSymbolTable
 70
    1
  0
APPID
  5
12
330
9
100
AcDbSymbolTableRecord
100
AcDbRegAppTableRecord
  2
ACAD
 70
    0
  0
APPID
  5
55
330
9
100
AcDbSymbolTableRecord
100
AcDbRegAppTableRecord
  2
LibreCad
 70
    0
  0
ENDTAB
  0
TABLE
  2
DIMSTYLE
  5
A
330
0
100
AcDbSymbolTable
 70
    1
100
AcDbDimStyleTable
 71
    1
  0
DIMSTYLE
105
56
330
A
100
AcDbSymbolTableRecord
100
AcDbDimStyleTableRecord
  2
Standard
 70
    0
 40
1
 41
20
 42
0.625
 43
0.38
 44
1.25
 45
0
 46
0
 47
0
 48
0
 49
1
140
20
141
0.09
142
0
143
25.4
144
1
145
0
146
1
147
0.625
148
0
 71
    0
 72
    0
 73
    0
 74
    1
 75
    0
 76
    0
 77
    0
 78
    1
 79
    0
170
    0
171
    2
172
    0
173
    0
174
    0
175
    0
176
    0
177
    0
178
    0
179
    2
271
    0
272
    4
273
    2
274
    2
275
    0
276
    0
277
    2
278
    0
279
    0
280
    0
281
    0
282
    0
283
    1
284
    0
285
    0
286
    0
288
    0
289
    3
340
standard
341

371
   -2
372
   -2
  0
ENDTAB
  0
TABLE
  2
BLOCK_RECORD
  5
1
330
0
100
AcDbSymbolTable
 70
    2
  0
BLOCK_RECORD
  5
1F
330
1
100
AcDbSymbolTableRecord
100
AcDbBlockTableRecord
  2
*Model_Space
 70
    0
280
    1
281
    0
  0
BLOCK_RECORD
  5
1E
330
1
100
AcDbSymbolTableRecord
100
AcDbBlockTableRecord
  2
*Paper_Space
 70
    0
280
    1
281
    0
  0
BLOCK_RECORD
  5
57
330
1
100
AcDbSymbolTableRecord
100
AcDbBlockTableRecord
  2
*D3
 70
    0
280
    1
281
    0
  0
BLOCK_RECORD
  5
5A
330
1
100
AcDbSymbolTableRecord
100
AcDbBlockTableRecord
  2
*D5
 70
    0
280
    1
281
    0
  0
BLOCK_RECORD
  5
5D
330
1
100
AcDbSymbolTableRecord
100
AcDbBlockTableRecord
  2
*D2
 70
    0
280
    1
281
    0
  0
BLOCK_RECORD
  5
60
330
1
100
AcDbSymbolTableRecord
100
AcDbBlockTableRecord
  2
*D4
 70
    0
280
    1
281
    0
  0
BLOCK_RECORD
  5
63
330
1
100
AcDbSymbolTableRecord
100
AcDbBlockTableRecord
  2
*D1
 70
    0
280
    1
281
    0
  0
ENDTAB
  0
ENDSEC
  0
SECTION
  2
BLOCKS
  0
BLOCK
  5
20
330
1F
100
AcDbEntity
  8
0
100
AcDbBlockBegin
  2
*Model_Space
 70
    0
 10
0
 20
0
 30
0
  3
*Model_Space
  1

  0
ENDBLK
  5
21
330
1F
100
AcDbEntity
  8
0
100
AcDbBlockEnd
  0
BLOCK
  5
1C
330
1B
100
AcDbEntity
  8
0
100
AcDbBlockBegin
  2
*Paper_Space
 70
    0
 10
0
 20
0
 30
0
  3
*Paper_Space
  1

  0
ENDBLK
  5
1D
330
1F
100
AcDbEntity
  8
0
100
AcDbBlockEnd
  0
BLOCK
  5
58
330
57
100
AcDbEntity
  8
0
100
AcDbBlockBegin
  2
*D3
 70
    1
 10
0
 20
0
  3
*D3
  1

  0
LINE
  5
66
100
AcDbEntity
  8
mesures
  6
ByBlock
 62
    0
370
   -2
100
AcDbLine
 10
-75
 20
-133.2075214724777
 11
-75.00000000000024
 21
-364.1275717513884
  0
LINE
  5
67
100
AcDbEntity
  8
mesures
  6
ByBlock
 62
    0
370
   -2
100
AcDbLine
 10
75.00000000000003
 20
-133.2075214724778
 11
74.99999999999979
 21
-364.1275717513885
  0
LINE
  5
68
100
AcDbEntity
  8
mesures
  6
ByBlock
 62
    0
370
   -2
100
AcDbLine
 10
-75.00000000000024
 20
-362.8775717513884
 11
74.99999999999979
 21
-362.8775717513885
  0
MTEXT
  5
69
100
AcDbEntity
  8
mesures
  6
CONTINUOUS
 62
    0
370
   -2
100
AcDbMText
 10
-1.4210854715202e-13
 20
-352.2525717513884
 30
0
 40
20
 41
35.55555555555679
 71
    5
 72
    1
  1
150
  7
standard
210
0
220
0
230
1
 50
359.9999999999999
 73
    2
 44
1
  0
SOLID
  5
6A
100
AcDbEntity
  8
mesures
  6
ByBlock
 62
    0
370
   -2
100
AcDbTrace
 10
-75.00000000000024
 20
-362.8775717513884
 30
0
 11
-55.00000000000024
 21
-359.5472944892056
 31
0
 12
-55.00000000000024
 22
-366.2078490135711
 32
0
 13
-55.00000000000024
 23
-366.2078490135711
 33
0
  0
SOLID
  5
6B
100
AcDbEntity
  8
mesures
  6
ByBlock
 62
    0
370
   -2
100
AcDbTrace
 10
74.99999999999979
 20
-362.8775717513885
 30
0
 11
54.99999999999979
 21
-366.2078490135711
 31
0
 12
54.99999999999979
 22
-359.5472944892057
 32
0
 13
54.99999999999979
 23
-359.5472944892057
 33
0
  0
ENDBLK
  5
59
330
57
100
AcDbEntity
  8
0
100
AcDbBlockEnd
  0
BLOCK
  5
5B
330
5A
100
AcDbEntity
  8
0
100
AcDbBlockBegin
  2
*D5
 70
    1
 10
0
 20
0
  3
*D5
  1

  0
LINE
  5
6C
100
AcDbEntity
  8
mesures
  6
ByBlock
 62
    0
370
   -2
100
AcDbLine
 10
-132.5825214724776
 20
-0.6249999999999941
 11
-132.582521472478
 21
-436.7030861016659
  0
LINE
  5
6D
100
AcDbEntity
  8
mesures
  6
ByBlock
 62
    0
370
   -2
100
AcDbLine
 10
132.5825214724776
 20
-0.6250000000001462
 11
132.5825214724771
 21
-436.7030861016661
  0
LINE
  5
6E
100
AcDbEntity
  8
mesures
  6
ByBlock
 62
    0
370
   -2
100
AcDbLine
 10
-132.582521472478
 20
-435.4530861016659
 11
132.5825214724771
 21
-435.4530861016661
  0
MTEXT
  5
6F
100
AcDbEntity
  8
mesures
  6
CONTINUOUS
 62
    0
370
   -2
100
AcDbMText
 10
-1.4210854715202e-13
 20
-424.828086101666
 30
0
 40
20
 41
40.00000000000249
 71
    5
 72
    1
  1
265
  7
standard
210
0
220
0
230
1
 50
0
 73
    2
 44
1
  0
SOLID
  5
70
100
AcDbEntity
  8
mesures
  6
ByBlock
 62
    0
370
   -2
100
AcDbTrace
 10
-132.582521472478
 20
-435.4530861016659
 30
0
 11
-112.582521472478
 21
-432.1228088394832
 31
0
 12
-112.582521472478
 22
-438.7833633638487
 32
0
 13
-112.582521472478
 23
-438.7833633638487
 33
0
  0
SOLID
  5
71
100
AcDbEntity
  8
mesures
  6
ByBlock
 62
    0
370
   -2
100
AcDbTrace
 10
132.5825214724771
 20
-435.4530861016661
 30
0
 11
112.5825214724771
 21
-438.7833633638488
 31
0
 12
112.5825214724771
 22
-432.1228088394834
 32
0
 13
112.5825214724771
 23
-432.1228088394834
 33
0
  0
ENDBLK
  5
5C
330
5A
100
AcDbEntity
  8
0
100
AcDbBlockEnd
  0
BLOCK
  5
5E
330
5D
100
AcDbEntity
  8
0
100
AcDbBlockBegin
  2
*D2
 70
    1
 10
0
 20
0
  3
*D2
  1

  0
LINE
  5
72
100
AcDbEntity
  8
mesures
  6
ByBlock
 62
    0
370
   -2
100
AcDbLine
 10
-207.5825214724776
 20
-0.6249999999999615
 11
-207.5825214724779
 21
-289.2877615910573
  0
LINE
  5
73
100
AcDbEntity
  8
mesures
  6
ByBlock
 62
    0
370
   -2
100
AcDbLine
 10
207.5825214724777
 20
-0.6250000000001462
 11
207.5825214724774
 21
-289.2877615910575
  0
LINE
  5
74
100
AcDbEntity
  8
mesures
  6
ByBlock
 62
    0
370
   -2
100
AcDbLine
 10
-207.5825214724779
 20
-288.0377615910573
 11
207.5825214724774
 21
-288.0377615910575
  0
MTEXT
  5
75
100
AcDbEntity
  8
mesures
  6
CONTINUOUS
 62
    0
370
   -2
100
AcDbMText
 10
-8.526512829121202e-14
 20
-277.4127615910573
 30
0
 40
20
 41
37.77777777777902
 71
    5
 72
    1
  1
415
  7
standard
210
0
220
0
230
1
 50
0
 73
    2
 44
1
  0
SOLID
  5
76
100
AcDbEntity
  8
mesures
  6
ByBlock
 62
    0
370
   -2
100
AcDbTrace
 10
-207.5825214724779
 20
-288.0377615910573
 30
0
 11
-187.5825214724779
 21
-284.7074843288746
 31
0
 12
-187.5825214724779
 22
-291.36803885324
 32
0
 13
-187.5825214724779
 23
-291.36803885324
 33
0
  0
SOLID
  5
77
100
AcDbEntity
  8
mesures
  6
ByBlock
 62
    0
370
   -2
100
AcDbTrace
 10
207.5825214724774
 20
-288.0377615910575
 30
0
 11
187.5825214724774
 21
-291.3680388532403
 31
0
 12
187.5825214724774
 22
-284.7074843288748
 32
0
 13
187.5825214724774
 23
-284.7074843288748
 33
0
  0
ENDBLK
  5
5F
330
5D
100
AcDbEntity
  8
0
100
AcDbBlockEnd
  0
BLOCK
  5
61
330
60
100
AcDbEntity
  8
0
100
AcDbBlockBegin
  2
*D4
 70
    1
 10
0
 20
0
  3
*D4
  1

  0
LINE
  5
78
100
AcDbEntity
  8
mesures
  6
ByBlock
 62
    0
370
   -2
100
AcDbLine
 10
-112.5
 20
-133.2075214724777
 11
-112.5
 21
-395.3350429220079
  0
LINE
  5
79
100
AcDbEntity
  8
mesures
  6
ByBlock
 62
    0
370
   -2
100
AcDbLine
 10
112.5
 20
-133.2075214724778
 11
112.5
 21
-395.3350429220079
  0
LINE
  5
7A
100
AcDbEntity
  8
mesures
  6
ByBlock
 62
    0
370
   -2
100
AcDbLine
 10
-112.5
 20
-394.0850429220079
 11
112.5
 21
-394.0850429220079
  0
MTEXT
  5
7B
100
AcDbEntity
  8
mesures
  6
CONTINUOUS
 62
    0
370
   -2
100
AcDbMText
 10
-8.526512829121202e-14
 20
-383.4600429220078
 30
0
 40
20
 41
40.00000000000125
 71
    5
 72
    1
  1
225
  7
standard
210
0
220
0
230
1
 50
0
 73
    2
 44
1
  0
SOLID
  5
7C
100
AcDbEntity
  8
mesures
  6
ByBlock
 62
    0
370
   -2
100
AcDbTrace
 10
-112.5
 20
-394.0850429220079
 30
0
 11
-92.50000000000004
 21
-390.7547656598251
 31
0
 12
-92.50000000000004
 22
-397.4153201841906
 32
0
 13
-92.50000000000004
 23
-397.4153201841906
 33
0
  0
SOLID
  5
7D
100
AcDbEntity
  8
mesures
  6
ByBlock
 62
    0
370
   -2
100
AcDbTrace
 10
112.5
 20
-394.0850429220079
 30
0
 11
92.49999999999996
 21
-397.4153201841906
 31
0
 12
92.49999999999996
 22
-390.7547656598252
 32
0
 13
92.49999999999996
 23
-390.7547656598252
 33
0
  0
ENDBLK
  5
62
330
60
100
AcDbEntity
  8
0
100
AcDbBlockEnd
  0
BLOCK
  5
64
330
63
100
AcDbEntity
  8
0
100
AcDbBlockBegin
  2
*D1
 70
    1
 10
0
 20
0
  3
*D1
  1

  0
LINE
  5
7E
100
AcDbEntity
  8
mesures
  6
ByBlock
 62
    0
370
   -2
100
AcDbLine
 10
-245.0825214724776
 20
-0.6249999999999473
 11
-245.0825214724777
 21
-324.9406441332729
  0
LINE
  5
7F
100
AcDbEntity
  8
mesures
  6
ByBlock
 62
    0
370
   -2
100
AcDbLine
 10
245.0825214724779
 20
-0.6250000000001462
 11
245.0825214724779
 21
-324.9406441332731
  0
LINE
  5
80
100
AcDbEntity
  8
mesures
  6
ByBlock
 62
    0
370
   -2
100
AcDbLine
 10
-245.0825214724777
 20
-323.6906441332729
 11
245.0825214724779
 21
-323.6906441332731
  0
MTEXT
  5
81
100
AcDbEntity
  8
mesures
  6
CONTINUOUS
 62
    0
370
   -2
100
AcDbMText
 10
-1.4210854715202e-13
 20
-313.065644133273
 30
0
 40
20
 41
42.22222222222223
 71
    5
 72
    1
  1
490
  7
standard
210
0
220
0
230
1
 50
0
 73
    2
 44
1
  0
SOLID
  5
82
100
AcDbEntity
  8
mesures
  6
ByBlock
 62
    0
370
   -2
100
AcDbTrace
 10
-245.0825214724777
 20
-323.6906441332729
 30
0
 11
-225.0825214724777
 21
-320.3603668710902
 31
0
 12
-225.0825214724777
 22
-327.0209213954556
 32
0
 13
-225.0825214724777
 23
-327.0209213954556
 33
0
  0
SOLID
  5
83
100
AcDbEntity
  8
mesures
  6
ByBlock
 62
    0
370
   -2
100
AcDbTrace
 10
245.0825214724779
 20
-323.6906441332731
 30
0
 11
225.0825214724779
 21
-327.0209213954558
 31
0
 12
225.0825214724779
 22
-320.3603668710904
 32
0
 13
225.0825214724779
 23
-320.3603668710904
 33
0
  0
ENDBLK
  5
65
330
63
100
AcDbEntity
  8
0
100
AcDbBlockEnd
  0
ENDSEC
  0
SECTION
  2
ENTITIES
  0
DIMENSION
  5
84
100
AcDbEntity
  8
mesures
  6
ByLayer
 62
  256
370
   -1
100
AcDbDimension
  2
*D1
 10
245.0825214724778
 20
-323.6906441332731
 30
0
 11
-1.4210854715202e-13
 21
-313.065644133273
 31
0
 70
   33
 71
    5
 72
    0
  3
Standard
 53
0
210
0
220
0
230
1
100
AcDbAlignedDimension
 13
-245.0825214724776
 23
5.268115588118216e-14
 33
0
 14
245.0825214724779
 24
-1.462708101316459e-13
 34
0
  0
DIMENSION
  5
85
100
AcDbEntity
  8
mesures
  6
ByLayer
 62
  256
370
   -1
100
AcDbDimension
  2
*D2
 10
207.5825214724775
 20
-288.0377615910575
 30
0
 11
-8.526512829121202e-14
 21
-277.4127615910573
 31
0
 70
   33
 71
    5
 72
    0
  3
Standard
 53
0
210
0
220
0
230
1
100
AcDbAlignedDimension
 13
-207.5825214724776
 23
3.847030116598015e-14
 33
0
 14
207.5825214724777
 24
-1.462708101316459e-13
 34
0
  0
DIMENSION
  5
86
100
AcDbEntity
  8
mesures
  6
ByLayer
 62
  256
370
   -1
100
AcDbDimension
  2
*D3
 10
74.99999999999989
 20
-362.8775717513885
 30
0
 11
-1.4210854715202e-13
 21
-352.2525717513884
 31
0
 70
   33
 71
    5
 72
    0
  3
Standard
 53
0
210
0
220
0
230
1
100
AcDbAlignedDimension
 13
-75
 23
-132.5825214724777
 33
0
 14
75.00000000000003
 24
-132.5825214724778
 34
0
  0
DIMENSION
  5
87
100
AcDbEntity
  8
mesures
  6
ByLayer
 62
  256
370
   -1
100
AcDbDimension
  2
*D4
 10
112.4999999999999
 20
-394.0850429220079
 30
0
 11
-8.526512829121202e-14
 21
-383.4600429220078
 31
0
 70
   33
 71
    5
 72
    0
  3
Standard
 53
0
210
0
220
0
230
1
100
AcDbAlignedDimension
 13
-112.5
 23
-132.5825214724777
 33
0
 14
112.5
 24
-132.5825214724778
 34
0
  0
DIMENSION
  5
88
100
AcDbEntity
  8
mesures
  6
ByLayer
 62
  256
370
   -1
100
AcDbDimension
  2
*D5
 10
132.5825214724773
 20
-435.4530861016661
 30
0
 11
-1.4210854715202e-13
 21
-424.828086101666
 31
0
 70
   33
 71
    5
 72
    0
  3
Standard
 53
0
210
0
220
0
230
1
100
AcDbAlignedDimension
 13
-132.5825214724776
 23
5.88632875595029e-15
 33
0
 14
132.5825214724776
 24
-1.462708101316459e-13
 34
0
  0
CIRCLE
  5
89
100
AcDbEntity
  8
calage
  6
ByLayer
 62
  256
370
   -1
100
AcDbCircle
 10
-132.5825214724778
 20
1045
 40
75
  0
CIRCLE
  5
8A
100
AcDbEntity
  8
calage
  6
ByLayer
 62
  256
370
   -1
100
AcDbCircle
 10
-132.5825214724778
 20
1045
 40
112.5
  0
CIRCLE
  5
8B
100
AcDbEntity
  8
calage
  6
ByLayer
 62
  256
370
   -1
100
AcDbCircle
 10
0
 20
912.4174785275222
 40
75
  0
CIRCLE
  5
8C
100
AcDbEntity
  8
calage
  6
ByLayer
 62
  256
370
   -1
100
AcDbCircle
 10
0
 20
912.4174785275222
 40
112.5
  0
CIRCLE
  5
8D
100
AcDbEntity
  8
calage
  6
ByLayer
 62
  256
370
   -1
100
AcDbCircle
 10
0
 20
1177.582521472478
 40
75
  0
CIRCLE
  5
8E
100
AcDbEntity
  8
calage
  6
ByLayer
 62
  256
370
   -1
100
AcDbCircle
 10
0
 20
1177.582521472478
 40
112.5
  0
CIRCLE
  5
8F
100
AcDbEntity
  8
calage
  6
ByLayer
 62
  256
370
   -1
100
AcDbCircle
 10
132.5825214724773
 20
1045
 40
75
  0
CIRCLE
  5
90
100
AcDbEntity
  8
calage
  6
ByLayer
 62
  256
370
   -1
100
AcDbCircle
 10
132.5825214724773
 20
1045
 40
112.5
  0
CIRCLE
  5
91
100
AcDbEntity
  8
calage
  6
ByLayer
 62
  256
370
   -1
100
AcDbCircle
 10
0
 20
1045
 40
132.5825214724777
  0
LINE
  5
92
100
AcDbEntity
  8
amici
  6
ByLayer
 62
  256
370
   -1
100
AcDbLine
 10
877.7886993269058
 20
701.2575198375539
 11
802.0393998428353
 21
909.1711979980744
  0
LINE
  5
93
100
AcDbEntity
  8
amici
  6
ByLayer
 62
  256
370
   -1
100
AcDbLine
 10
802.0393998428353
 20
909.1711979980744
 11
312.0986640347473
 21
1044.997836524968
  0
LINE
  5
94
100
AcDbEntity
  8
amici
  6
ByLayer
 62
  256
370
   -1
100
AcDbLine
 10
312.0986640347473
 20
1044.997836524968
 11
802.0393998428353
 21
1180.821735059071
  0
LINE
  5
95
100
AcDbEntity
  8
amici
  6
ByLayer
 62
  256
370
   -1
100
AcDbLine
 10
802.0393998428353
 20
1180.821735059071
 11
877.7886993269058
 21
1388.735908961761
  0
LINE
  5
96
100
AcDbEntity
  8
amici
  6
ByLayer
 62
  256
370
   -1
100
AcDbLine
 10
877.7886993269058
 20
701.2575198375539
 11
57.58252147247731
 21
928.6438951574405
  0
LINE
  5
97
100
AcDbEntity
  8
amici
  6
ByLayer
 62
  256
370
   -1
100
AcDbLine
 10
57.58252147247731
 20
928.6438951574405
 11
1.08505607618963
 21
1044.998918244769
  0
LINE
  5
98
100
AcDbEntity
  8
amici
  6
ByLayer
 62
  256
370
   -1
100
AcDbLine
 10
1.08505607618963
 20
1044.998918244769
 11
57.58252147247731
 21
1161.354120643633
  0
LINE
  5
99
100
AcDbEntity
  8
amici
  6
ByLayer
 62
  256
370
   -1
100
AcDbLine
 10
57.58252147247731
 20
1161.354120643633
 11
877.7886993269058
 21
1388.735908961761
  0
LINE
  5
9A
100
AcDbEntity
  8
amici
  6
ByLayer
 62
  256
370
   -1
100
AcDbLine
 10
312.1025659886818
 20
1044.998918244769
 11
1.08505607618963
 21
1044.998918244769
  0
LINE
  5
9B
100
AcDbEntity
  8
amici
  6
ByLayer
 62
  256
370
   -1
100
AcDbLine
 10
312.0986640347459
 20
-2923.112452046338
 11
802.0393998428355
 21
-3220.965313518145
  0
LINE
  5
9C
100
AcDbEntity
  8
amici
  6
ByLayer
 62
  256
370
   -1
100
AcDbLine
 10
802.0393998428355
 20
-3220.965313518145
 11
877.788699326906
 21
-3002.680269544733
  0
LINE
  5
9D
100
AcDbEntity
  8
amici
  6
ByLayer
 62
  256
370
   -1
100
AcDbLine
 10
877.788699326906
 20
-3002.680269544733
 11
57.5825214724772
 21
-2504.046987566546
  0
LINE
  5
9E
100
AcDbEntity
  8
amici
  6
ByLayer
 62
  256
370
   -1
100
AcDbLine
 10
57.5825214724772
 20
-2504.046987566546
 11
1.085056076189328
 21
-2612.100373870593
  0
LINE
  5
9F
100
AcDbEntity
  8
amici
  6
ByLayer
 62
  256
370
   -1
100
AcDbLine
 10
312.0986640347472
 20
-2923.112452046339
 11
1.085581317175677
 21
-2612.099369328765
  0
LINE
  5
A0
100
AcDbEntity
  8
soufflet
  6
ByLayer
 62
  256
370
   -1
100
AcDbLine
 10
2000
 20
1411.5
 11
2000
 21
678.5
  0
LINE
  5
A1
100
AcDbEntity
  8
soufflet
  6
ByLayer
 62
  256
370
   -1
100
AcDbLine
 10
2000
 20
678.5
 11
2075
 21
678.5
  0
LINE
  5
A2
100
AcDbEntity
  8
soufflet
  6
ByLayer
 62
  256
370
   -1
100
AcDbLine
 10
2075
 20
678.5
 11
2075
 21
1411.5
  0
LINE
  5
A3
100
AcDbEntity
  8
soufflet
  6
ByLayer
 62
  256
370
   -1
100
AcDbLine
 10
2075
 20
1411.5
 11
2000
 21
1411.5
  0
LINE
  5
A4
100
AcDbEntity
  8
soufflet
  6
ByLayer
 62
  256
370
   -1
100
AcDbLine
 10
2775
 20
1315
 11
2775
 21
775
  0
LINE
  5
A5
100
AcDbEntity
  8
soufflet
  6
ByLayer
 62
  256
370
   -1
100
AcDbLine
 10
2775
 20
775
 11
2875
 21
775
  0
LINE
  5
A6
100
AcDbEntity
  8
soufflet
  6
ByLayer
 62
  256
370
   -1
100
AcDbLine
 10
2875
 20
775
 11
2875
 21
1315
  0
LINE
  5
A7
100
AcDbEntity
  8
soufflet
  6
ByLayer
 62
  256
370
   -1
100
AcDbLine
 10
2875
 20
1315
 11
2775
 21
1315
  0
LINE
  5
A8
100
AcDbEntity
  8
soufflet
  6
ByLayer
 62
  256
370
   -1
100
AcDbLine
 10
2875
 20
1315
 11
3025
 21
1315
  0
LINE
  5
A9
100
AcDbEntity
  8
soufflet
  6
ByLayer
 62
  256
370
   -1
100
AcDbLine
 10
3025
 20
1315
 11
3025
 21
775
  0
LINE
  5
AA
100
AcDbEntity
  8
soufflet
  6
ByLayer
 62
  256
370
   -1
100
AcDbLine
 10
3025
 20
775
 11
2875
 21
775
  0
LINE
  5
AB
100
AcDbEntity
  8
soufflet
  6
ByLayer
 62
  256
370
   -1
100
AcDbLine
 10
2775
 20
1315
 11
2683.035177166019
 21
1428.62376502667
  0
LINE
  5
AC
100
AcDbEntity
  8
soufflet
  6
ByLayer
 62
  256
370
   -1
100
AcDbLine
 10
2683.035177166019
 20
1428.62376502667
 11
2570.315517300376
 21
1343.217217972162
  0
LINE
  5
AD
100
AcDbEntity
  8
soufflet
  6
ByLayer
 62
  256
370
   -1
100
AcDbLine
 10
2570.315517300376
 20
1343.217217972162
 11
2484.908970245868
 21
1455.936877837805
  0
LINE
  5
AE
100
AcDbEntity
  8
soufflet
  6
ByLayer
 62
  256
370
   -1
100
AcDbLine
 10
2484.908970245868
 20
1455.936877837805
 11
2372.189310380225
 21
1370.530330783298
  0
LINE
  5
AF
100
AcDbEntity
  8
soufflet
  6
ByLayer
 62
  256
370
   -1
100
AcDbLine
 10
2372.189310380225
 20
1370.530330783298
 11
2286.782763325717
 21
1483.24999064894
  0
LINE
  5
B0
100
AcDbEntity
  8
soufflet
  6
ByLayer
 62
  256
370
   -1
100
AcDbLine
 10
2286.782763325717
 20
1483.24999064894
 11
2174.063103460076
 21
1397.843443594433
  0
LINE
  5
B1
100
AcDbEntity
  8
soufflet
  6
ByLayer
 62
  256
370
   -1
100
AcDbLine
 10
2174.063103460076
 20
1397.843443594433
 11
2088.656556405568
 21
1510.563103460075
  0
LINE
  5
B2
100
AcDbEntity
  8
soufflet
  6
ByLayer
 62
  256
370
   -1
100
AcDbLine
 10
2088.656556405568
 20
1510.563103460075
 11
2075
 21
1411.5
  0
LINE
  5
B3
100
AcDbEntity
  8
soufflet
  6
ByLayer
 62
  256
370
   -1
100
AcDbLine
 10
2775
 20
774.9978364895378
 11
2683.035177166019
 21
661.3740714628675
  0
LINE
  5
B4
100
AcDbEntity
  8
soufflet
  6
ByLayer
 62
  256
370
   -1
100
AcDbLine
 10
2683.035177166019
 20
661.3740714628675
 11
2570.315517300376
 21
746.7806185173754
  0
LINE
  5
B5
100
AcDbEntity
  8
soufflet
  6
ByLayer
 62
  256
370
   -1
100
AcDbLine
 10
2570.315517300376
 20
746.7806185173754
 11
2484.908970245868
 21
634.0609586517326
  0
LINE
  5
B6
100
AcDbEntity
  8
soufflet
  6
ByLayer
 62
  256
370
   -1
100
AcDbLine
 10
2484.908970245868
 20
634.0609586517326
 11
2372.189310380225
 21
719.4675057062402
  0
LINE
  5
B7
100
AcDbEntity
  8
soufflet
  6
ByLayer
 62
  256
370
   -1
100
AcDbLine
 10
2372.189310380225
 20
719.4675057062402
 11
2286.782763325717
 21
606.7478458405974
  0
LINE
  5
B8
100
AcDbEntity
  8
soufflet
  6
ByLayer
 62
  256
370
   -1
100
AcDbLine
 10
2286.782763325717
 20
606.7478458405974
 11
2174.063103460076
 21
692.1543928951053
  0
LINE
  5
B9
100
AcDbEntity
  8
soufflet
  6
ByLayer
 62
  256
370
   -1
100
AcDbLine
 10
2174.063103460076
 20
692.1543928951053
 11
2088.656556405568
 21
579.4347330294627
  0
LINE
  5
BA
100
AcDbEntity
  8
soufflet
  6
ByLayer
 62
  256
370
   -1
100
AcDbLine
 10
2088.656556405568
 20
579.4347330294627
 11
2075
 21
678.4978364895378
  0
LINE
  5
BB
100
AcDbEntity
  8
soufflet
  6
ByLayer
 62
  256
370
   -1
100
AcDbLine
 10
-370.0000000000001
 20
-2354.046987566546
 11
-270.0000000000001
 21
-2504.046987566546
  0
LINE
  5
BC
100
AcDbEntity
  8
soufflet
  6
ByLayer
 62
  256
370
   -1
100
AcDbLine
 10
-270.0000000000001
 20
-2504.046987566546
 11
269.9999999999999
 21
-2504.046987566546
  0
LINE
  5
BD
100
AcDbEntity
  8
soufflet
  6
ByLayer
 62
  256
370
   -1
100
AcDbLine
 10
269.9999999999999
 20
-2504.046987566546
 11
369.9999999999999
 21
-2354.046987566546
  0
LWPOLYLINE
  5
BE
100
AcDbEntity
  8
soufflet
  6
ByLayer
 62
  256
370
   -1
100
AcDbPolyline
 90
    4
 70
    1
 43
0
 10
369.9999999999999
 20
-2354.046987566546
 10
-370.0000000000001
 20
-2354.046987566546
 10
-370.0000000000001
 20
-2254.046987566546
 10
369.9999999999999
 20
-2254.046987566546
  0
LINE
  5
BF
100
AcDbEntity
  8
soufflet
  6
ByLayer
 62
  256
370
   -1
100
AcDbLine
 10
-500.0000000000001
 20
-1554.046987566546
 11
-500.0000000000001
 21
-1629.046987566546
  0
LINE
  5
C0
100
AcDbEntity
  8
soufflet
  6
ByLayer
 62
  256
370
   -1
100
AcDbLine
 10
-500.0000000000001
 20
-1629.046987566546
 11
499.9999999999999
 21
-1629.046987566546
  0
LINE
  5
C1
100
AcDbEntity
  8
soufflet
  6
ByLayer
 62
  256
370
   -1
100
AcDbLine
 10
499.9999999999999
 20
-1629.046987566546
 11
499.9999999999999
 21
-1554.046987566546
  0
LINE
  5
C2
100
AcDbEntity
  8
soufflet
  6
ByLayer
 62
  256
370
   -1
100
AcDbLine
 10
499.9999999999999
 20
-1554.046987566546
 11
-500.0000000000001
 21
-1554.046987566546
  0
LINE
  5
C3
100
AcDbEntity
  8
soufflet
  6
ByLayer
 62
  256
370
   -1
100
AcDbLine
 10
-370.0000000000001
 20
-2254.046987566546
 11
-483.8653296511956
 21
-2197.676631898194
  0
LINE
  5
C4
100
AcDbEntity
  8
soufflet
  6
ByLayer
 62
  256
370
   -1
100
AcDbLine
 10
-483.8653296511956
 20
-2197.676631898194
 11
-402.2520941975351
 21
-2098.988842386089
  0
LINE
  5
C5
100
AcDbEntity
  8
soufflet
  6
ByLayer
 62
  256
370
   -1
100
AcDbLine
 10
-402.2520941975351
 20
-2098.988842386089
 11
-516.9584477465481
 21
-2041.135527386541
  0
LINE
  5
C6
100
AcDbEntity
  8
soufflet
  6
ByLayer
 62
  256
370
   -1
100
AcDbLine
 10
-516.9584477465481
 20
-2041.135527386541
 11
-434.8347294650235
 21
-1942.341557446241
  0
LINE
  5
C7
100
AcDbEntity
  8
soufflet
  6
ByLayer
 62
  256
370
   -1
100
AcDbLine
 10
-434.8347294650235
 20
-1942.341557446241
 11
-549.0306001861724
 21
-1884.382062018498
  0
LINE
  5
C8
100
AcDbEntity
  8
soufflet
  6
ByLayer
 62
  256
370
   -1
100
AcDbLine
 10
-549.0306001861724
 20
-1884.382062018498
 11
-467.4173647325118
 21
-1785.694272506394
  0
LINE
  5
C9
100
AcDbEntity
  8
soufflet
  6
ByLayer
 62
  256
370
   -1
100
AcDbLine
 10
-467.4173647325118
 20
-1785.694272506394
 11
-581.6132354536606
 21
-1727.73477707865
  0
LINE
  5
CA
100
AcDbEntity
  8
soufflet
  6
ByLayer
 62
  256
370
   -1
100
AcDbLine
 10
-581.6132354536606
 20
-1727.73477707865
 11
-500.0000000000001
 21
-1629.046987566546
  0
LINE
  5
CB
100
AcDbEntity
  8
soufflet
  6
ByLayer
 62
  256
370
   -1
100
AcDbLine
 10
370
 20
-2254.046987566546
 11
483.8653296511956
 21
-2197.676631898194
  0
LINE
  5
CC
100
AcDbEntity
  8
soufflet
  6
ByLayer
 62
  256
370
   -1
100
AcDbLine
 10
483.8653296511956
 20
-2197.676631898194
 11
402.2520941975351
 21
-2098.988842386089
  0
LINE
  5
CD
100
AcDbEntity
  8
soufflet
  6
ByLayer
 62
  256
370
   -1
100
AcDbLine
 10
402.2520941975351
 20
-2098.988842386089
 11
516.958447746548
 21
-2041.135527386541
  0
LINE
  5
CE
100
AcDbEntity
  8
soufflet
  6
ByLayer
 62
  256
370
   -1
100
AcDbLine
 10
516.958447746548
 20
-2041.135527386541
 11
434.8347294650234
 21
-1942.341557446241
  0
LINE
  5
CF
100
AcDbEntity
  8
soufflet
  6
ByLayer
 62
  256
370
   -1
100
AcDbLine
 10
434.8347294650234
 20
-1942.341557446241
 11
549.0306001861723
 21
-1884.382062018498
  0
LINE
  5
D0
100
AcDbEntity
  8
soufflet
  6
ByLayer
 62
  256
370
   -1
100
AcDbLine
 10
549.0306001861723
 20
-1884.382062018498
 11
467.4173647325118
 21
-1785.694272506394
  0
LINE
  5
D1
100
AcDbEntity
  8
soufflet
  6
ByLayer
 62
  256
370
   -1
100
AcDbLine
 10
467.4173647325118
 20
-1785.694272506394
 11
581.6132354536605
 21
-1727.73477707865
  0
LINE
  5
D2
100
AcDbEntity
  8
soufflet
  6
ByLayer
 62
  256
370
   -1
100
AcDbLine
 10
581.6132354536605
 20
-1727.73477707865
 11
500.0000000000001
 21
-1629.046987566546
  0
LINE
  5
D3
100
AcDbEntity
  8
soufflet
  6
DOTTINY
 62
  256
370
   -1
100
AcDbLine
 10
581.6132354536605
 20
-1727.73477707865
 11
-581.6132354536604
 21
-1727.73477707865
  0
LINE
  5
D4
100
AcDbEntity
  8
soufflet
  6
DOTTINY
 62
  256
370
   -1
100
AcDbLine
 10
-467.4173647325118
 20
-1785.694272506394
 11
467.4173647325118
 21
-1785.694272506394
  0
LINE
  5
D5
100
AcDbEntity
  8
soufflet
  6
DOTTINY
 62
  256
370
   -1
100
AcDbLine
 10
549.0306001861723
 20
-1884.382062018498
 11
-549.0306001861723
 21
-1884.382062018498
  0
LINE
  5
D6
100
AcDbEntity
  8
soufflet
  6
DOTTINY
 62
  256
370
   -1
100
AcDbLine
 10
-434.8347294650235
 20
-1942.341557446241
 11
434.8347294650234
 21
-1942.341557446241
  0
LINE
  5
D7
100
AcDbEntity
  8
soufflet
  6
DOTTINY
 62
  256
370
   -1
100
AcDbLine
 10
516.958447746548
 20
-2041.135527386541
 11
-516.9584477465481
 21
-2041.135527386541
  0
LINE
  5
D8
100
AcDbEntity
  8
soufflet
  6
DOTTINY
 62
  256
370
   -1
100
AcDbLine
 10
-402.2520941975349
 20
-2098.988842386089
 11
402.2520941975351
 21
-2098.988842386089
  0
LINE
  5
D9
100
AcDbEntity
  8
soufflet
  6
DOTTINY
 62
  256
370
   -1
100
AcDbLine
 10
483.8653296511956
 20
-2197.676631898194
 11
-483.8653296511957
 21
-2197.676631898194
  0
LINE
  5
DA
100
AcDbEntity
  8
soufflet
  6
DOTTINY
 62
  256
370
   -1
100
AcDbLine
 10
2088.656556405568
 20
1510.563103460075
 11
2088.656556405568
 21
579.4347330294627
  0
LINE
  5
DB
100
AcDbEntity
  8
soufflet
  6
DOTTINY
 62
  256
370
   -1
100
AcDbLine
 10
2174.063103460076
 20
692.1543928951053
 11
2174.063103460076
 21
1397.843443594433
  0
LINE
  5
DC
100
AcDbEntity
  8
soufflet
  6
DOTTINY
 62
  256
370
   -1
100
AcDbLine
 10
2372.189310380225
 20
1370.530330783297
 11
2372.189310380225
 21
719.4675057062402
  0
LINE
  5
DD
100
AcDbEntity
  8
soufflet
  6
DOTTINY
 62
  256
370
   -1
100
AcDbLine
 10
2570.315517300376
 20
1343.217217972162
 11
2570.315517300376
 21
746.7806185173754
  0
LINE
  5
DE
100
AcDbEntity
  8
soufflet
  6
DOTTINY
 62
  256
370
   -1
100
AcDbLine
 10
2683.035177166019
 20
661.3740714628674
 11
2683.035177166019
 21
1428.62376502667
  0
LINE
  5
DF
100
AcDbEntity
  8
soufflet
  6
DOTTINY
 62
  256
370
   -1
100
AcDbLine
 10
2484.908970245868
 20
1455.936877837805
 11
2484.908970245868
 21
634.0609586517326
  0
LINE
  5
E0
100
AcDbEntity
  8
soufflet
  6
DOTTINY
 62
  256
370
   -1
100
AcDbLine
 10
2286.782763325717
 20
606.7478458405974
 11
2286.782763325717
 21
1483.24999064894
  0
LWPOLYLINE
  5
E1
100
AcDbEntity
  8
soufflet
  6
ByLayer
 62
  256
370
   -1
100
AcDbPolyline
 90
    4
 70
    1
 43
0
 10
-370
 20
775
 10
370
 20
775
 10
370
 20
1315
 10
-370
 20
1315
  0
LWPOLYLINE
  5
E2
100
AcDbEntity
  8
soufflet
  6
ByLayer
 62
  256
370
   -1
100
AcDbPolyline
 90
    4
 70
    1
 43
0
 10
270
 20
1315
 10
-270.0000000000005
 20
1315
 10
-270.0000000000005
 20
775
 10
270
 20
775
  0
LWPOLYLINE
  5
E3
100
AcDbEntity
  8
soufflet
  6
ByLayer
 62
  256
370
   -1
100
AcDbPolyline
 90
    4
 70
    1
 43
0
 10
-500
 20
678.5
 10
500
 20
678.5
 10
500
 20
1411.5
 10
-500
 20
1411.5
  0
CIRCLE
  5
E4
100
AcDbEntity
  8
petite cage
  6
ByLayer
 62
  256
370
   -1
100
AcDbCircle
 10
-1.1475840367087e-13
 20
-2556.546987566546
 40
17.5
  0
CIRCLE
  5
E5
100
AcDbEntity
  8
petite cage
  6
ByLayer
 62
  256
370
   -1
100
AcDbCircle
 10
717.4999999999999
 20
-2556.546958280852
 40
17.5
  0
CIRCLE
  5
E6
100
AcDbEntity
  8
petite cage
  6
ByLayer
 62
  256
370
   -1
100
AcDbCircle
 10
717.5
 20
-3256.546958280852
 40
17.5
  0
CIRCLE
  5
E7
100
AcDbEntity
  8
petite cage
  6
ByLayer
 62
  256
370
   -1
100
AcDbCircle
 10
-717.5000000000001
 20
-2556.546958280852
 40
17.5
  0
CIRCLE
  5
E8
100
AcDbEntity
  8
petite cage
  6
ByLayer
 62
  256
370
   -1
100
AcDbCircle
 10
-717.5000000000003
 20
-3256.546958280852
 40
17.5
  0
CIRCLE
  5
E9
100
AcDbEntity
  8
petite cage
  6
ByLayer
 62
  256
370
   -1
100
AcDbCircle
 10
-717.5000000000001
 20
1367.5
 40
17.5
  0
CIRCLE
  5
EA
100
AcDbEntity
  8
petite cage
  6
ByLayer
 62
  256
370
   -1
100
AcDbCircle
 10
717.4999999999999
 20
1367.5
 40
17.5
  0
CIRCLE
  5
EB
100
AcDbEntity
  8
petite cage
  6
ByLayer
 62
  256
370
   -1
100
AcDbCircle
 10
717.4999999999999
 20
526
 40
17.5
  0
CIRCLE
  5
EC
100
AcDbEntity
  8
petite cage
  6
ByLayer
 62
  256
370
   -1
100
AcDbCircle
 10
-717.5000000000001
 20
526
 40
17.5
  0
CIRCLE
  5
ED
100
AcDbEntity
  8
petite cage
  6
ByLayer
 62
  256
370
   -1
100
AcDbCircle
 10
3077.5
 20
526
 40
17.5
  0
CIRCLE
  5
EE
100
AcDbEntity
  8
petite cage
  6
ByLayer
 62
  256
370
   -1
100
AcDbCircle
 10
3777.5
 20
526
 40
17.5
  0
LWPOLYLINE
  5
EF
100
AcDbEntity
  8
petite cage
  6
ByLayer
 62
  256
370
   -1
100
AcDbPolyline
 90
    4
 70
    1
 43
0
 10
3060
 20
543.5
 10
3795
 20
543.5
 10
3795
 20
508.5
 10
3060
 20
508.5
  0
LWPOLYLINE
  5
F0
100
AcDbEntity
  8
petite cage
  6
ByLayer
 62
  256
370
   -1
100
AcDbPolyline
 90
    4
 70
    1
 43
0
 10
3095
 20
1385
 10
3060
 20
1385
 10
3060
 20
508.5
 10
3095
 20
508.5
  0
LWPOLYLINE
  5
F1
100
AcDbEntity
  8
petite cage
  6
ByLayer
 62
  256
370
   -1
100
AcDbPolyline
 90
    4
 70
    1
 43
0
 10
699.9999999999999
 20
1385
 10
734.9999999999999
 20
1385
 10
734.9999999999999
 20
508.5
 10
699.9999999999999
 20
508.5
  0
LWPOLYLINE
  5
F2
100
AcDbEntity
  8
petite cage
  6
ByLayer
 62
  256
370
   -1
100
AcDbPolyline
 90
    4
 70
    1
 43
0
 10
-700.0000000000001
 20
508.5
 10
-735.0000000000001
 20
508.5
 10
-735.0000000000001
 20
1385
 10
-700.0000000000001
 20
1385
  0
LWPOLYLINE
  5
F3
100
AcDbEntity
  8
petite cage
  6
ByLayer
 62
  256
370
   -1
100
AcDbPolyline
 90
    4
 70
    1
 43
0
 10
-735.0000000000001
 20
508.5
 10
734.9999999999999
 20
508.5
 10
734.9999999999999
 20
543.5
 10
-735.0000000000001
 20
543.5
  0
LWPOLYLINE
  5
F4
100
AcDbEntity
  8
petite cage
  6
ByLayer
 62
  256
370
   -1
100
AcDbPolyline
 90
    4
 70
    1
 43
0
 10
734.9999999999999
 20
1350
 10
-735.0000000000001
 20
1350
 10
-735.0000000000001
 20
1385
 10
734.9999999999999
 20
1385
  0
LWPOLYLINE
  5
F5
100
AcDbEntity
  8
petite cage
  6
ByLayer
 62
  256
370
   -1
100
AcDbPolyline
 90
    4
 70
    1
 43
0
 10
-17.49999999999993
 20
508.5
 10
17.50000000000012
 20
508.5
 10
17.50000000000012
 20
1385
 10
-17.49999999999993
 20
1385
  0
CIRCLE
  5
F6
100
AcDbEntity
  8
petite cage
  6
ByLayer
 62
  256
370
   -1
100
AcDbCircle
 10
3007.5
 20
1367.5
 40
17.5
  0
LINE
  5
F7
100
AcDbEntity
  8
petite cage
  6
ByLayer
 62
  256
370
   -1
100
AcDbLine
 10
2990
 20
1315
 11
2989.999999999836
 21
1367.5
  0
LINE
  5
F8
100
AcDbEntity
  8
petite cage
  6
ByLayer
 62
  256
370
   -1
100
AcDbLine
 10
3025
 20
1315
 11
3025.000000000166
 21
1367.5
  0
LINE
  5
F9
100
AcDbEntity
  8
petite cage
  6
ByLayer
 62
  256
370
   -1
100
AcDbLine
 10
3060
 20
1385
 11
3007.5
 21
1385
  0
LINE
  5
FA
100
AcDbEntity
  8
petite cage
  6
ByLayer
 62
  256
370
   -1
100
AcDbLine
 10
3007.499950943136
 20
1350
 11
3060
 21
1350
  0
LINE
  5
FB
100
AcDbEntity
  8
petite cage
  6
ByLayer
 62
  256
370
   -1
100
AcDbLine
 10
-270.0000000000005
 20
1315
 11
-270.0000000000005
 21
1385
  0
LINE
  5
FC
100
AcDbEntity
  8
petite cage
  6
ByLayer
 62
  256
370
   -1
100
AcDbLine
 10
-270.0000000000005
 20
1385
 11
-235.0000000000005
 21
1385
  0
LINE
  5
FD
100
AcDbEntity
  8
petite cage
  6
ByLayer
 62
  256
370
   -1
100
AcDbLine
 10
-235.0000000000005
 20
1385
 11
-235.0000000000005
 21
1315
  0
LINE
  5
FE
100
AcDbEntity
  8
petite cage
  6
ByLayer
 62
  256
370
   -1
100
AcDbLine
 10
235
 20
1315
 11
235
 21
1385
  0
LINE
  5
FF
100
AcDbEntity
  8
petite cage
  6
ByLayer
 62
  256
370
   -1
100
AcDbLine
 10
235
 20
1385
 11
270
 21
1385
  0
LINE
  5
100
100
AcDbEntity
  8
petite cage
  6
ByLayer
 62
  256
370
   -1
100
AcDbLine
 10
270
 20
1385
 11
270
 21
1315
  0
LINE
  5
101
100
AcDbEntity
  8
petite cage
  6
ByLayer
 62
  256
370
   -1
100
AcDbLine
 10
3025
 20
1315
 11
3095
 21
1315
  0
LINE
  5
102
100
AcDbEntity
  8
petite cage
  6
ByLayer
 62
  256
370
   -1
100
AcDbLine
 10
3095
 20
1280
 11
3025
 21
1280
  0
LINE
  5
103
100
AcDbEntity
  8
petite cage
  6
ByLayer
 62
  256
370
   -1
100
AcDbLine
 10
3095
 20
775
 11
3025
 21
775
  0
LINE
  5
104
100
AcDbEntity
  8
petite cage
  6
ByLayer
 62
  256
370
   -1
100
AcDbLine
 10
3025
 20
810
 11
3095
 21
810
  0
CIRCLE
  5
105
100
AcDbEntity
  8
petite cage
  6
ByLayer
 62
  256
370
   -1
100
AcDbCircle
 10
3077.5
 20
1367.5
 40
17.5
  0
LINE
  5
106
100
AcDbEntity
  8
petite cage
  6
ByLayer
 62
  256
370
   -1
100
AcDbLine
 10
-717.5000000000001
 20
-2539.046987566546
 11
717.5
 21
-2539.046958280824
  0
LINE
  5
107
100
AcDbEntity
  8
petite cage
  6
ByLayer
 62
  256
370
   -1
100
AcDbLine
 10
717.4999999999999
 20
-2574.046958280852
 11
-717.5000000000002
 21
-2574.046958280866
  0
LINE
  5
108
100
AcDbEntity
  8
petite cage
  6
ByLayer
 62
  256
370
   -1
100
AcDbLine
 10
-270.0000000000005
 20
-2574.046958280862
 11
-270.0000000000001
 21
-2469.046987566546
  0
LINE
  5
109
100
AcDbEntity
  8
petite cage
  6
ByLayer
 62
  256
370
   -1
100
AcDbLine
 10
-270.0000000000001
 20
-2469.046987566546
 11
-235.0000000000005
 21
-2469.046987566546
  0
LINE
  5
10A
100
AcDbEntity
  8
petite cage
  6
ByLayer
 62
  256
370
   -1
100
AcDbLine
 10
-235.0000000000005
 20
-2469.046987566546
 11
-235.0000000000005
 21
-2574.046958280861
  0
LINE
  5
10B
100
AcDbEntity
  8
petite cage
  6
ByLayer
 62
  256
370
   -1
100
AcDbLine
 10
270
 20
-2574.046958280857
 11
270
 21
-2469.046987566546
  0
LINE
  5
10C
100
AcDbEntity
  8
petite cage
  6
ByLayer
 62
  256
370
   -1
100
AcDbLine
 10
270
 20
-2469.046987566546
 11
235
 21
-2469.046987566546
  0
LINE
  5
10D
100
AcDbEntity
  8
petite cage
  6
ByLayer
 62
  256
370
   -1
100
AcDbLine
 10
235
 20
-2469.046987566546
 11
235
 21
-2574.046958280857
  0
LINE
  5
10E
100
AcDbEntity
  8
petite cage
  6
ByLayer
 62
  256
370
   -1
100
AcDbLine
 10
-735
 20
-3256.546908954976
 11
-735.0000000000001
 21
-2556.546958280852
  0
LINE
  5
10F
100
AcDbEntity
  8
petite cage
  6
ByLayer
 62
  256
370
   -1
100
AcDbLine
 10
-700.0000000000001
 20
-2556.546998093023
 11
-699.9999999999998
 21
-3256.546913057267
  0
LINE
  5
110
100
AcDbEntity
  8
petite cage
  6
ByLayer
 62
  256
370
   -1
100
AcDbLine
 10
735.0000000000001
 20
-2556.547005319055
 11
735
 21
-3256.547006447563
  0
LINE
  5
111
100
AcDbEntity
  8
petite cage
  6
ByLayer
 62
  256
370
   -1
100
AcDbLine
 10
700.0000000000002
 20
-3256.546952388252
 11
700.0000000000003
 21
-2556.547006504602
  0
LINE
  5
112
100
AcDbEntity
  8
petite cage
  6
ByLayer
 62
  256
370
   -1
100
AcDbLine
 10
734.9999999999999
 20
932.5
 11
-735.0000000000001
 21
932.5
  0
LINE
  5
113
100
AcDbEntity
  8
petite cage
  6
ByLayer
 62
  256
370
   -1
100
AcDbLine
 10
-735.0000000000001
 20
897.5
 11
734.9999999999999
 21
897.5
  0
LINE
  5
114
100
AcDbEntity
  8
petite cage
  6
ByLayer
 62
  256
370
   -1
100
AcDbLine
 10
3060
 20
932.5
 11
3795
 21
932.5
  0
LINE
  5
115
100
AcDbEntity
  8
petite cage
  6
ByLayer
 62
  256
370
   -1
100
AcDbLine
 10
3795
 20
932.5
 11
3795
 21
508.5
  0
LINE
  5
116
100
AcDbEntity
  8
petite cage
  6
ByLayer
 62
  256
370
   -1
100
AcDbLine
 10
3795
 20
508.5
 11
3760
 21
508.5
  0
LINE
  5
117
100
AcDbEntity
  8
petite cage
  6
ByLayer
 62
  256
370
   -1
100
AcDbLine
 10
3760
 20
508.5
 11
3760
 21
897.5
  0
LINE
  5
118
100
AcDbEntity
  8
petite cage
  6
ByLayer
 62
  256
370
   -1
100
AcDbLine
 10
3760
 20
897.5
 11
3060
 21
897.5
  0
LINE
  5
119
100
AcDbEntity
  8
petite cage
  6
ByLayer
 62
  256
370
   -1
100
AcDbLine
 10
3060
 20
643.5
 11
3795
 21
643.5
  0
LINE
  5
11A
100
AcDbEntity
  8
petite cage
  6
ByLayer
 62
  256
370
   -1
100
AcDbLine
 10
3060
 20
678.5
 11
3795
 21
678.5
  0
CIRCLE
  5
11B
100
AcDbEntity
  8
petite cage
  6
ByLayer
 62
  256
370
   -1
100
AcDbCircle
 10
-717.5000000000001
 20
661
 40
17.5
  0
CIRCLE
  5
11C
100
AcDbEntity
  8
petite cage
  6
ByLayer
 62
  256
370
   -1
100
AcDbCircle
 10
717.4999999999999
 20
661
 40
17.5
  0
CIRCLE
  5
11D
100
AcDbEntity
  8
champs
  6
ByLayer
 62
  256
370
   -1
100
AcDbCircle
 10
-132.5825214724778
 20
1045
 40
74.99999999999996
  0
CIRCLE
  5
11E
100
AcDbEntity
  8
champs
  6
ByLayer
 62
  256
370
   -1
100
AcDbCircle
 10
132.5825214724773
 20
1045
 40
75.00000000000006
  0
LWPOLYLINE
  5
11F
100
AcDbEntity
  8
champs
  6
ByLayer
 62
  256
370
   -1
100
AcDbPolyline
 90
    4
 70
    1
 43
0
 10
-207.5825214724778
 20
-2484.046987566546
 10
-57.58252147247799
 20
-2484.046987566546
 10
-57.58252147247799
 20
-2504.046987566546
 10
-207.5825214724778
 20
-2504.046987566546
  0
LWPOLYLINE
  5
120
100
AcDbEntity
  8
champs
  6
ByLayer
 62
  256
370
   -1
100
AcDbPolyline
 90
    4
 70
    1
 43
0
 10
57.58252147247744
 20
-2484.046987566546
 10
207.5825214724775
 20
-2484.046987566546
 10
207.5825214724775
 20
-2504.046987566546
 10
57.58252147247744
 20
-2504.046987566546
  0
LWPOLYLINE
  5
121
100
AcDbEntity
  8
champs
  6
ByLayer
 62
  256
370
   -1
100
AcDbPolyline
 90
    4
 70
    1
 43
0
 10
3005
 20
1120
 10
3025
 20
1120
 10
3025
 20
970
 10
3005
 20
970
  0
LINE
  5
122
100
AcDbEntity
  8
champs
  6
ByLayer
 62
  256
370
   -1
100
AcDbLine
 10
3025
 20
970
 11
3981.304755963035
 21
677.6282952772633
  0
LINE
  5
123
100
AcDbEntity
  8
champs
  6
ByLayer
 62
  256
370
   -1
100
AcDbLine
 10
3025
 20
1120
 11
3981.304755963035
 21
1412.371704722737
  0
LINE
  5
124
100
AcDbEntity
  8
champs
  6
ByLayer
 62
  256
370
   -1
100
AcDbLine
 10
-57.58252147247799
 20
-2504.046987566546
 11
325.1009108926118
 21
-3427.926520077833
  0
LINE
  5
125
100
AcDbEntity
  8
champs
  6
ByLayer
 62
  256
370
   -1
100
AcDbLine
 10
207.5825214724775
 20
-2504.046987566546
 11
590.2659538375673
 21
-3427.926520077833
  0
LINE
  5
126
100
AcDbEntity
  8
champs
  6
ByLayer
 62
  256
370
   -1
100
AcDbLine
 10
57.58252147247822
 20
-2504.046987566546
 11
-325.1009108926116
 21
-3427.926520077833
  0
LINE
  5
127
100
AcDbEntity
  8
champs
  6
ByLayer
 62
  256
370
   -1
100
AcDbLine
 10
-207.5825214724778
 20
-2504.046987566546
 11
-590.2659538375676
 21
-3427.926520077833
  0
LINE
  5
128
100
AcDbEntity
  8
sol
  6
ByLayer
 62
  256
370
   -1
100
AcDbLine
 10
6000
 20
-1000
 11
-2000
 21
-1000
  0
LINE
  5
129
100
AcDbEntity
  8
petite cage
  6
ByLayer
 62
  256
370
   -1
100
AcDbLine
 10
8.085046789419431
 20
-2528.795724908076
 11
32.83378413094868
 21
-2504.046987566546
  0
LINE
  5
12A
100
AcDbEntity
  8
petite cage
  6
ByLayer
 62
  256
370
   -1
100
AcDbLine
 10
32.83378413094868
 20
-2504.046987566546
 11
775.8957549626883
 21
-3247.108958398291
  0
LINE
  5
12B
100
AcDbEntity
  8
petite cage
  6
ByLayer
 62
  256
370
   -1
100
AcDbLine
 10
775.8957549626883
 20
-3247.108958398291
 11
751.14701762116
 21
-3271.85769573982
  0
LINE
  5
12C
100
AcDbEntity
  8
petite cage
  6
ByLayer
 62
  256
370
   -1
100
AcDbLine
 10
751.14701762116
 20
-3271.85769573982
 11
8.085046789419431
 21
-2528.795724908076
  0
ENDSEC
  0
SECTION
  2
OBJECTS
  0
DICTIONARY
  5
C
330
0
100
AcDbDictionary
281
    1
  3
ACAD_GROUP
350
D
  0
DICTIONARY
  5
D
330
C
100
AcDbDictionary
281
    1
  0
PLOTSETTINGS
  5
12D
100
AcDbPlotSettings
  6
1x1
 40
0
 41
0
 42
0
 43
0
  0
ENDSEC
  0
EOF
