<?xml version="1.0" encoding="UTF-8" standalone="no"?>
<svg
   width="148.25mm"
   height="111.97001mm"
   viewBox="0 0 14.825 11.197001"
   version="1.1"
   id="svg178"
   sodipodi:docname="plan-erp.svg"
   xml:space="preserve"
   inkscape:version="1.2.2 (b0a8486541, 2022-12-01)"
   xmlns:inkscape="http://www.inkscape.org/namespaces/inkscape"
   xmlns:sodipodi="http://sodipodi.sourceforge.net/DTD/sodipodi-0.dtd"
   xmlns:xlink="http://www.w3.org/1999/xlink"
   xmlns="http://www.w3.org/2000/svg"
   xmlns:svg="http://www.w3.org/2000/svg"><defs
     id="defs182"><symbol
       id="EmergencyTelephone_Inv"><title
         id="title8803">Emergency Telephone</title><rect
         x="0.5"
         y="0.5"
         width="71"
         height="71"
         ry="6"
         style="stroke:#ffffff"
         id="rect8805"
         rx="6" /><g
         style="fill:#ffffff;stroke:none"
         id="g8812"><path
           d="m 23,36 c 0,24 11,30 13,30 V 49 c -3,0 -3,-8 -3,-13 0,-5 0,-13 3,-13 V 6 C 33,6 23,12 23,36 Z"
           id="path8807" /><path
           id="ear4"
           d="m 42,23 a 2,2 0 0 0 2,-2 V 8 A 2,2 0 0 0 42,6 h -4 v 17 z" /><use
           y="43"
           xlink:href="#ear4"
           id="use8810" /></g></symbol></defs><sodipodi:namedview
     id="namedview180"
     pagecolor="#ffffff"
     bordercolor="#000000"
     borderopacity="0.25"
     inkscape:showpageshadow="2"
     inkscape:pageopacity="0.0"
     inkscape:pagecheckerboard="0"
     inkscape:deskcolor="#d1d1d1"
     inkscape:document-units="cm"
     showgrid="false"
     inkscape:zoom="0.48687599"
     inkscape:cx="395.37789"
     inkscape:cy="488.83084"
     inkscape:window-width="1920"
     inkscape:window-height="1011"
     inkscape:window-x="0"
     inkscape:window-y="1112"
     inkscape:window-maximized="1"
     inkscape:current-layer="svg178"
     inkscape:lockguides="true"><inkscape:grid
       type="xygrid"
       id="grid114353" /></sodipodi:namedview><rect
     style="fill:#bfbfbf;stroke-width:0.0352778;stroke-linecap:round;stroke-linejoin:round;stroke-dasharray:none;paint-order:markers fill stroke;stop-color:#000000"
     id="rect3136"
     width="14.825"
     height="11.197001"
     x="-8.4756756e-08"
     y="1.0484264e-07"
     inkscape:export-filename="plan-evacuation.svg"
     inkscape:export-xdpi="96"
     inkscape:export-ydpi="96" /></svg>
