999
dxfrw 0.6.3
  0
SECTION
  2
HEADER
  9
$ACADVER
  1
AC1021
  9
$DWGCODEPAGE
  3
ANSI_1252
  9
$INSBASE
 10
0
 20
0
 30
0
  9
$EXTMIN
 10
-2644.444444444451
 20
-2900
 30
0
  9
$EXTMAX
 10
8500
 20
4505
 30
0
  9
$LIMMIN
 10
0
 20
0
  9
$LIMMAX
 10
420
 20
297
  9
$ORTHOMODE
 70
    0
  9
$REGENMODE
 70
    1
  9
$FILLMODE
 70
    1
  9
$QTEXTMODE
 70
    0
  9
$MIRRTEXT
 70
    0
  9
$LTSCALE
 40
1
  9
$ATTMODE
 70
    0
  9
$TEXTSIZE
 40
2.5
  9
$TRACEWID
 40
15.68
  9
$TEXTSTYLE
  7
STANDARD
  9
$CLAYER
  8
noname
  9
$CELTYPE
  6
BYLAYER
  9
$CECOLOR
 62
  256
  9
$CELTSCALE
 40
1
  9
$DISPSILH
 70
    0
  9
$DIMSCALE
 40
2.5
  9
$DIMASZ
 40
20
  9
$DIMEXO
 40
0.625
  9
$DIMDLI
 40
3.75
  9
$DIMRND
 40
0
  9
$DIMDLE
 40
0
  9
$DIMEXE
 40
1.25
  9
$DIMTP
 40
0
  9
$DIMTM
 40
0
  9
$DIMTXT
 40
30
  9
$DIMCEN
 40
2.5
  9
$DIMTSZ
 40
0
  9
$DIMTOL
 70
    0
  9
$DIMLIM
 70
    0
  9
$DIMTIH
 70
    0
  9
$DIMTOH
 70
    0
  9
$DIMSE1
 70
    0
  9
$DIMSE2
 70
    0
  9
$DIMTAD
 70
    1
  9
$DIMZIN
 70
    8
  9
$DIMBLK
  1

  9
$DIMASO
 70
    1
  9
$DIMSHO
 70
    1
  9
$DIMPOST
  1

  9
$DIMAPOST
  1

  9
$DIMALT
 70
    0
  9
$DIMALTD
 70
    3
  9
$DIMALTF
 40
0.03937
  9
$DIMLFAC
 40
1
  9
$DIMTOFL
 70
    1
  9
$DIMTVP
 40
0
  9
$DIMTIX
 70
    0
  9
$DIMSOXD
 70
    0
  9
$DIMSAH
 70
    0
  9
$DIMBLK1
  1

  9
$DIMBLK2
  1

  9
$DIMSTYLE
  2
STANDARD
  9
$DIMCLRD
 70
    0
  9
$DIMCLRE
 70
    0
  9
$DIMCLRT
 70
    0
  9
$DIMTFAC
 40
1
  9
$DIMGAP
 40
0.625
  9
$DIMJUST
 70
    0
  9
$DIMSD1
 70
    0
  9
$DIMSD2
 70
    0
  9
$DIMTOLJ
 70
    0
  9
$DIMTZIN
 70
    8
  9
$DIMALTZ
 70
    0
  9
$DIMALTTZ
 70
    0
  9
$DIMUPT
 70
    0
  9
$DIMDEC
 70
    0
  9
$DIMTDEC
 70
    2
  9
$DIMALTU
 70
    2
  9
$DIMALTTD
 70
    3
  9
$DIMTXSTY
  7
standard
  9
$DIMAUNIT
 70
    0
  9
$DIMADEC
 70
    0
  9
$DIMALTRND
 40
0
  9
$DIMAZIN
 70
    0
  9
$DIMDSEP
 70
   44
  9
$DIMATFIT
 70
    3
  9
$DIMFRAC
 70
    0
  9
$DIMLDRBLK
  1
STANDARD
  9
$DIMLUNIT
 70
    2
  9
$DIMLWD
 70
   -2
  9
$DIMLWE
 70
   -2
  9
$DIMTMOVE
 70
    0
  9
$DIMFXL
 40
1
  9
$DIMFXLON
 70
    0
  9
$DIMJOGANG
 40
0.7854
  9
$DIMTFILL
 70
    0
  9
$DIMTFILLCLR
 70
    0
  9
$DIMARCSYM
 70
    0
  9
$DIMLTYPE
  6

  9
$DIMLTEX1
  6

  9
$DIMLTEX2
  6

  9
$LUNITS
 70
    2
  9
$LUPREC
 70
    4
  9
$SKETCHINC
 40
1
  9
$FILLETRAD
 40
0
  9
$AUNITS
 70
    0
  9
$AUPREC
 70
    2
  9
$MENU
  1
.
  9
$ELEVATION
 40
0
  9
$PELEVATION
 40
0
  9
$THICKNESS
 40
0
  9
$LIMCHECK
 70
    0
  9
$CHAMFERA
 40
0
  9
$CHAMFERB
 40
0
  9
$CHAMFERC
 40
0
  9
$CHAMFERD
 40
0
  9
$SKPOLY
 70
    0
  9
$USRTIMER
 70
    1
  9
$ANGBASE
 50
0
  9
$ANGDIR
 70
    0
  9
$PDMODE
 70
   34
  9
$PDSIZE
 40
0
  9
$PLINEWID
 40
0
  9
$SPLFRAME
 70
    0
  9
$SPLINETYPE
 70
    2
  9
$SPLINESEGS
 70
    8
  9
$HANDSEED
  5
20000
  9
$SURFTAB1
 70
    6
  9
$SURFTAB2
 70
    6
  9
$SURFTYPE
 70
    6
  9
$SURFU
 70
    6
  9
$SURFV
 70
    6
  9
$UCSBASE
  2

  9
$UCSNAME
  2

  9
$UCSORG
 10
0
 20
0
 30
0
  9
$UCSXDIR
 10
1
 20
0
 30
0
  9
$UCSYDIR
 10
0
 20
1
 30
0
  9
$UCSORTHOREF
  2

  9
$UCSORTHOVIEW
 70
    0
  9
$UCSORGTOP
 10
0
 20
0
 30
0
  9
$UCSORGBOTTOM
 10
0
 20
0
 30
0
  9
$UCSORGLEFT
 10
0
 20
0
 30
0
  9
$UCSORGRIGHT
 10
0
 20
0
 30
0
  9
$UCSORGFRONT
 10
0
 20
0
 30
0
  9
$UCSORGBACK
 10
0
 20
0
 30
0
  9
$PUCSBASE
  2

  9
$PUCSNAME
  2

  9
$PUCSORG
 10
0
 20
0
 30
0
  9
$PUCSXDIR
 10
1
 20
0
 30
0
  9
$PUCSYDIR
 10
0
 20
1
 30
0
  9
$PUCSORTHOREF
  2

  9
$PUCSORTHOVIEW
 70
    0
  9
$PUCSORGTOP
 10
0
 20
0
 30
0
  9
$PUCSORGBOTTOM
 10
0
 20
0
 30
0
  9
$PUCSORGLEFT
 10
0
 20
0
 30
0
  9
$PUCSORGRIGHT
 10
0
 20
0
 30
0
  9
$PUCSORGFRONT
 10
0
 20
0
 30
0
  9
$PUCSORGBACK
 10
0
 20
0
 30
0
  9
$USERI1
 70
    0
  9
$USERI2
 70
    0
  9
$USERI3
 70
    0
  9
$USERI4
 70
    0
  9
$USERI5
 70
    0
  9
$USERR1
 40
0
  9
$USERR2
 40
0
  9
$USERR3
 40
0
  9
$USERR4
 40
0
  9
$USERR5
 40
0
  9
$WORLDVIEW
 70
    1
  9
$SHADEDGE
 70
    3
  9
$SHADEDIF
 70
   70
  9
$TILEMODE
 70
    1
  9
$MAXACTVP
 70
   64
  9
$PINSBASE
 10
135.7831952931478
 20
50.73433241823975
 30
0
  9
$PLIMCHECK
 70
    0
  9
$PEXTMIN
 10
0
 20
0
 30
0
  9
$PEXTMAX
 10
0
 20
0
 30
0
  9
$GRIDMODE
 70
    1
  9
$SNAPSTYLE
 70
    0
  9
$GRIDUNIT
 10
0
 20
0
  9
$PLIMMIN
 10
0
 20
0
  9
$PLIMMAX
 10
297
 20
210
  9
$UNITMODE
 70
    0
  9
$VISRETAIN
 70
    1
  9
$PLINEGEN
 70
    0
  9
$PSLTSCALE
 70
    1
  9
$TREEDEPTH
 70
 3020
  9
$CMLSTYLE
  2
Standard
  9
$CMLJUST
 70
    0
  9
$CMLSCALE
 40
20
  9
$PROXYGRAPHICS
 70
    1
  9
$MEASUREMENT
 70
    1
  9
$CELWEIGHT
370
   -1
  9
$ENDCAPS
280
    0
  9
$JOINSTYLE
280
    0
  9
$LWDISPLAY
290
    0
  9
$INSUNITS
 70
    0
  9
$HYPERLINKBASE
  1

  9
$STYLESHEET
  1

  9
$XEDIT
290
    1
  9
$CEPSNTYPE
380
    0
  9
$PSTYLEMODE
290
    1
  9
$EXTNAMES
290
    1
  9
$PSVPSCALE
 40
0.04934713737256102
  9
$OLESTARTUP
290
    0
  9
$SORTENTS
280
  127
  9
$INDEXCTL
280
    0
  9
$HIDETEXT
280
    1
  9
$XCLIPFRAME
290
    0
  9
$HALOGAP
280
    0
  9
$OBSCOLOR
 70
  257
  9
$OBSLTYPE
280
    0
  9
$INTERSECTIONDISPLAY
280
    0
  9
$INTERSECTIONCOLOR
 70
  257
  9
$DIMASSOC
280
    1
  9
$PROJECTNAME
  1

  9
$CAMERADISPLAY
290
    0
  9
$LENSLENGTH
 40
50
  9
$CAMERAHEIGHT
 40
0
  9
$STEPSPERSEC
 40
2
  9
$STEPSIZE
 40
50
  9
$3DDWFPREC
 40
2
  9
$PSOLWIDTH
 40
5
  9
$PSOLHEIGHT
 40
80
  9
$LOFTANG1
 40
1.570796326794897
  9
$LOFTANG2
 40
1.570796326794897
  9
$LOFTMAG1
 40
0
  9
$LOFTMAG2
 40
0
  9
$LOFTPARAM
 70
    7
  9
$LOFTNORMALS
280
    1
  9
$LATITUDE
 40
1
  9
$LONGITUDE
 40
1
  9
$NORTHDIRECTION
 40
0
  9
$TIMEZONE
 70
-8000
  9
$LIGHTGLYPHDISPLAY
280
    1
  9
$TILEMODELIGHTSYNCH
280
    1
  9
$SOLIDHIST
280
    1
  9
$SHOWHIST
280
    1
  9
$DWFFRAME
280
    2
  9
$DGNFRAME
280
    0
  9
$REALWORLDSCALE
290
    1
  9
$INTERFERECOLOR
 62
    1
  9
$CSHADOW
280
    0
  9
$SHADOWPLANELOCATION
 40
0
  0
ENDSEC
  0
SECTION
  2
CLASSES
  0
ENDSEC
  0
SECTION
  2
TABLES
  0
TABLE
  2
VPORT
  5
8
330
0
100
AcDbSymbolTable
 70
    1
  0
VPORT
  5
31
330
2
100
AcDbSymbolTableRecord
100
AcDbViewportTableRecord
  2
*ACTIVE
 70
    0
 10
0
 20
0
 11
1
 21
1
 12
3664.375249585506
 22
896.4204625503291
 13
0
 23
0
 14
10
 24
10
 15
10
 25
10
 16
0
 26
0
 36
1
 17
0
 27
0
 37
0
 40
4974.791421939613
 41
1.889958734525447
 42
50
 43
0
 44
0
 50
0
 51
0
 71
    0
 72
  100
 73
    1
 74
    3
 75
    0
 76
    1
 77
    0
 78
    0
281
    0
 65
    1
110
0
120
0
130
0
111
1
121
0
131
0
112
0
122
1
132
0
 79
    0
146
0
348
10020
 60
    7
 61
    5
292
1
282
    1
141
0
142
0
 63
  250
421
3358443
  0
ENDTAB
  0
TABLE
  2
LTYPE
  5
5
330
0
100
AcDbSymbolTable
 70
    4
  0
LTYPE
  5
14
330
5
100
AcDbSymbolTableRecord
100
AcDbLinetypeTableRecord
  2
ByBlock
 70
    0
  3

 72
   65
 73
    0
 40
0
  0
LTYPE
  5
15
330
5
100
AcDbSymbolTableRecord
100
AcDbLinetypeTableRecord
  2
ByLayer
 70
    0
  3

 72
   65
 73
    0
 40
0
  0
LTYPE
  5
16
330
5
100
AcDbSymbolTableRecord
100
AcDbLinetypeTableRecord
  2
Continuous
 70
    0
  3
Solid line
 72
   65
 73
    0
 40
0
  0
LTYPE
  5
32
330
5
100
AcDbSymbolTableRecord
100
AcDbLinetypeTableRecord
  2
DOT
 70
    0
  3
Dot . . . . . . . . . . . . . . . . . . . . . .
 72
   65
 73
    2
 40
6.35
 49
0
 74
    0
 49
-6.35
 74
    0
  0
LTYPE
  5
33
330
5
100
AcDbSymbolTableRecord
100
AcDbLinetypeTableRecord
  2
DOTTINY
 70
    0
  3
Dot (.15x) .....................................
 72
   65
 73
    2
 40
0.9525
 49
0
 74
    0
 49
-0.9525
 74
    0
  0
LTYPE
  5
34
330
5
100
AcDbSymbolTableRecord
100
AcDbLinetypeTableRecord
  2
DOT2
 70
    0
  3
Dot (.5x) .....................................
 72
   65
 73
    2
 40
3.175
 49
0
 74
    0
 49
-3.175
 74
    0
  0
LTYPE
  5
35
330
5
100
AcDbSymbolTableRecord
100
AcDbLinetypeTableRecord
  2
DOTX2
 70
    0
  3
Dot (2x) .  .  .  .  .  .  .  .  .  .  .  .  .
 72
   65
 73
    2
 40
12.7
 49
0
 74
    0
 49
-12.7
 74
    0
  0
LTYPE
  5
36
330
5
100
AcDbSymbolTableRecord
100
AcDbLinetypeTableRecord
  2
DASHED
 70
    0
  3
Dashed _ _ _ _ _ _ _ _ _ _ _ _ _ _ _ _ _
 72
   65
 73
    2
 40
19.05
 49
12.7
 74
    0
 49
-6.35
 74
    0
  0
LTYPE
  5
37
330
5
100
AcDbSymbolTableRecord
100
AcDbLinetypeTableRecord
  2
DASHEDTINY
 70
    0
  3
Dashed (.15x) _ _ _ _ _ _ _ _ _ _ _ _ _ _ _ _ _
 72
   65
 73
    2
 40
2.8575
 49
1.905
 74
    0
 49
-0.9525
 74
    0
  0
LTYPE
  5
38
330
5
100
AcDbSymbolTableRecord
100
AcDbLinetypeTableRecord
  2
DASHED2
 70
    0
  3
Dashed (.5x) _ _ _ _ _ _ _ _ _ _ _ _ _ _ _ _ _
 72
   65
 73
    2
 40
9.524999999999999
 49
6.35
 74
    0
 49
-3.175
 74
    0
  0
LTYPE
  5
39
330
5
100
AcDbSymbolTableRecord
100
AcDbLinetypeTableRecord
  2
DASHEDX2
 70
    0
  3
Dashed (2x) ____  ____  ____  ____  ____  ___
 72
   65
 73
    2
 40
38.09999999999999
 49
25.4
 74
    0
 49
-12.7
 74
    0
  0
LTYPE
  5
3A
330
5
100
AcDbSymbolTableRecord
100
AcDbLinetypeTableRecord
  2
DASHDOT
 70
    0
  3
Dash dot __ . __ . __ . __ . __ . __ . __ . __
 72
   65
 73
    4
 40
25.4
 49
12.7
 74
    0
 49
-6.35
 74
    0
 49
0
 74
    0
 49
-6.35
 74
    0
  0
LTYPE
  5
3B
330
5
100
AcDbSymbolTableRecord
100
AcDbLinetypeTableRecord
  2
DASHDOTTINY
 70
    0
  3
Dash dot (.15x) _._._._._._._._._._._._._._._.
 72
   65
 73
    4
 40
3.81
 49
1.905
 74
    0
 49
-0.9525
 74
    0
 49
0
 74
    0
 49
-0.9525
 74
    0
  0
LTYPE
  5
3C
330
5
100
AcDbSymbolTableRecord
100
AcDbLinetypeTableRecord
  2
DASHDOT2
 70
    0
  3
Dash dot (.5x) _._._._._._._._._._._._._._._.
 72
   65
 73
    4
 40
12.7
 49
6.35
 74
    0
 49
-3.175
 74
    0
 49
0
 74
    0
 49
-3.175
 74
    0
  0
LTYPE
  5
3D
330
5
100
AcDbSymbolTableRecord
100
AcDbLinetypeTableRecord
  2
DASHDOTX2
 70
    0
  3
Dash dot (2x) ____  .  ____  .  ____  .  ___
 72
   65
 73
    4
 40
50.8
 49
25.4
 74
    0
 49
-12.7
 74
    0
 49
0
 74
    0
 49
-12.7
 74
    0
  0
LTYPE
  5
3E
330
5
100
AcDbSymbolTableRecord
100
AcDbLinetypeTableRecord
  2
DIVIDE
 70
    0
  3
Divide ____ . . ____ . . ____ . . ____ . . ____
 72
   65
 73
    6
 40
31.75
 49
12.7
 74
    0
 49
-6.35
 74
    0
 49
0
 74
    0
 49
-6.35
 74
    0
 49
0
 74
    0
 49
-6.35
 74
    0
  0
LTYPE
  5
3F
330
5
100
AcDbSymbolTableRecord
100
AcDbLinetypeTableRecord
  2
DIVIDETINY
 70
    0
  3
Divide (.15x) __..__..__..__..__..__..__..__.._
 72
   65
 73
    6
 40
4.7625
 49
1.905
 74
    0
 49
-0.9525
 74
    0
 49
0
 74
    0
 49
-0.9525
 74
    0
 49
0
 74
    0
 49
-0.9525
 74
    0
  0
LTYPE
  5
40
330
5
100
AcDbSymbolTableRecord
100
AcDbLinetypeTableRecord
  2
DIVIDE2
 70
    0
  3
Divide (.5x) __..__..__..__..__..__..__..__.._
 72
   65
 73
    6
 40
15.875
 49
6.35
 74
    0
 49
-3.175
 74
    0
 49
0
 74
    0
 49
-3.175
 74
    0
 49
0
 74
    0
 49
-3.175
 74
    0
  0
LTYPE
  5
41
330
5
100
AcDbSymbolTableRecord
100
AcDbLinetypeTableRecord
  2
DIVIDEX2
 70
    0
  3
Divide (2x) ________  .  .  ________  .  .  _
 72
   65
 73
    6
 40
63.5
 49
25.4
 74
    0
 49
-12.7
 74
    0
 49
0
 74
    0
 49
-12.7
 74
    0
 49
0
 74
    0
 49
-12.7
 74
    0
  0
LTYPE
  5
42
330
5
100
AcDbSymbolTableRecord
100
AcDbLinetypeTableRecord
  2
BORDER
 70
    0
  3
Border __ __ . __ __ . __ __ . __ __ . __ __ .
 72
   65
 73
    6
 40
44.45
 49
12.7
 74
    0
 49
-6.35
 74
    0
 49
12.7
 74
    0
 49
-6.35
 74
    0
 49
0
 74
    0
 49
-6.35
 74
    0
  0
LTYPE
  5
43
330
5
100
AcDbSymbolTableRecord
100
AcDbLinetypeTableRecord
  2
BORDERTINY
 70
    0
  3
Border (.15x) __.__.__.__.__.__.__.__.__.__.__.
 72
   65
 73
    6
 40
6.6675
 49
1.905
 74
    0
 49
-0.9525
 74
    0
 49
1.905
 74
    0
 49
-0.9525
 74
    0
 49
0
 74
    0
 49
-0.9525
 74
    0
  0
LTYPE
  5
44
330
5
100
AcDbSymbolTableRecord
100
AcDbLinetypeTableRecord
  2
BORDER2
 70
    0
  3
Border (.5x) __.__.__.__.__.__.__.__.__.__.__.
 72
   65
 73
    6
 40
22.225
 49
6.35
 74
    0
 49
-3.175
 74
    0
 49
6.35
 74
    0
 49
-3.175
 74
    0
 49
0
 74
    0
 49
-3.175
 74
    0
  0
LTYPE
  5
45
330
5
100
AcDbSymbolTableRecord
100
AcDbLinetypeTableRecord
  2
BORDERX2
 70
    0
  3
Border (2x) ____  ____  .  ____  ____  .  ___
 72
   65
 73
    6
 40
88.89999999999999
 49
25.4
 74
    0
 49
-12.7
 74
    0
 49
25.4
 74
    0
 49
-12.7
 74
    0
 49
0
 74
    0
 49
-12.7
 74
    0
  0
LTYPE
  5
46
330
5
100
AcDbSymbolTableRecord
100
AcDbLinetypeTableRecord
  2
CENTER
 70
    0
  3
Center ____ _ ____ _ ____ _ ____ _ ____ _ ____
 72
   65
 73
    4
 40
50.8
 49
31.75
 74
    0
 49
-6.35
 74
    0
 49
6.35
 74
    0
 49
-6.35
 74
    0
  0
LTYPE
  5
47
330
5
100
AcDbSymbolTableRecord
100
AcDbLinetypeTableRecord
  2
CENTERTINY
 70
    0
  3
Center (.15x) ___ _ ___ _ ___ _ ___ _ ___ _ ___
 72
   65
 73
    4
 40
7.619999999999999
 49
4.7625
 74
    0
 49
-0.9525
 74
    0
 49
0.9525
 74
    0
 49
-0.9525
 74
    0
  0
LTYPE
  5
48
330
5
100
AcDbSymbolTableRecord
100
AcDbLinetypeTableRecord
  2
CENTER2
 70
    0
  3
Center (.5x) ___ _ ___ _ ___ _ ___ _ ___ _ ___
 72
   65
 73
    4
 40
28.575
 49
19.05
 74
    0
 49
-3.175
 74
    0
 49
3.175
 74
    0
 49
-3.175
 74
    0
  0
LTYPE
  5
49
330
5
100
AcDbSymbolTableRecord
100
AcDbLinetypeTableRecord
  2
CENTERX2
 70
    0
  3
Center (2x) ________  __  ________  __  _____
 72
   65
 73
    4
 40
101.6
 49
63.5
 74
    0
 49
-12.7
 74
    0
 49
12.7
 74
    0
 49
-12.7
 74
    0
  0
ENDTAB
  0
TABLE
  2
LAYER
  5
2
330
0
100
AcDbSymbolTable
 70
    1
  0
LAYER
  5
10
330
2
100
AcDbSymbolTableRecord
100
AcDbLayerTableRecord
  2
0
 70
    0
 62
    6
  6
CONTINUOUS
370
   -3
390
F
1001
LibreCad
1070
    1
  0
LAYER
  5
4A
330
2
100
AcDbSymbolTableRecord
100
AcDbLayerTableRecord
  2
noname
 70
    0
 62
    7
  6
CONTINUOUS
370
    0
390
F
  0
LAYER
  5
4B
330
2
100
AcDbSymbolTableRecord
100
AcDbLayerTableRecord
  2
noname1
 70
    0
 62
    1
  6
CONTINUOUS
370
    0
390
F
  0
ENDTAB
  0
TABLE
  2
STYLE
  5
3
330
0
100
AcDbSymbolTable
 70
    3
  0
STYLE
  5
4C
330
2
100
AcDbSymbolTableRecord
100
AcDbTextStyleTableRecord
  2
standard
 70
    0
 40
0
 41
1
 50
0
 71
    0
 42
1
  3
standard
  4

  0
ENDTAB
  0
TABLE
  2
VIEW
  5
6
330
0
100
AcDbSymbolTable
 70
    0
  0
ENDTAB
  0
TABLE
  2
UCS
  5
7
330
0
100
AcDbSymbolTable
 70
    0
  0
ENDTAB
  0
TABLE
  2
APPID
  5
9
330
0
100
AcDbSymbolTable
 70
    1
  0
APPID
  5
12
330
9
100
AcDbSymbolTableRecord
100
AcDbRegAppTableRecord
  2
ACAD
 70
    0
  0
APPID
  5
4D
330
9
100
AcDbSymbolTableRecord
100
AcDbRegAppTableRecord
  2
LibreCad
 70
    0
  0
ENDTAB
  0
TABLE
  2
DIMSTYLE
  5
A
330
0
100
AcDbSymbolTable
 70
    1
100
AcDbDimStyleTable
 71
    1
  0
DIMSTYLE
105
4E
330
A
100
AcDbSymbolTableRecord
100
AcDbDimStyleTableRecord
  2
Standard
 70
    0
 40
2.5
 41
20
 42
0.625
 43
0.38
 44
1.25
 45
0
 46
0
 47
0
 48
0
 49
1
140
30
141
0.09
142
0
143
25.4
144
1
145
0
146
1
147
0.625
148
0
 71
    0
 72
    0
 73
    0
 74
    1
 75
    0
 76
    0
 77
    0
 78
    8
 79
    0
170
    0
171
    2
172
    0
173
    0
174
    0
175
    0
176
    0
177
    0
178
    0
179
    0
271
    0
272
    4
273
    2
274
    2
275
    0
276
    0
277
    2
278
   44
279
    0
280
    0
281
    0
282
    0
283
    1
284
    0
285
    0
286
    0
288
    0
289
    3
340
standard
341

371
   -2
372
   -2
  0
ENDTAB
  0
TABLE
  2
BLOCK_RECORD
  5
1
330
0
100
AcDbSymbolTable
 70
    2
  0
BLOCK_RECORD
  5
1F
330
1
100
AcDbSymbolTableRecord
100
AcDbBlockTableRecord
  2
*Model_Space
 70
    0
280
    1
281
    0
  0
BLOCK_RECORD
  5
1E
330
1
100
AcDbSymbolTableRecord
100
AcDbBlockTableRecord
  2
*Paper_Space
 70
    0
280
    1
281
    0
  0
BLOCK_RECORD
  5
4F
330
1
100
AcDbSymbolTableRecord
100
AcDbBlockTableRecord
  2
*D9
 70
    0
280
    1
281
    0
  0
BLOCK_RECORD
  5
52
330
1
100
AcDbSymbolTableRecord
100
AcDbBlockTableRecord
  2
*D15
 70
    0
280
    1
281
    0
  0
BLOCK_RECORD
  5
55
330
1
100
AcDbSymbolTableRecord
100
AcDbBlockTableRecord
  2
*D7
 70
    0
280
    1
281
    0
  0
BLOCK_RECORD
  5
58
330
1
100
AcDbSymbolTableRecord
100
AcDbBlockTableRecord
  2
*D16
 70
    0
280
    1
281
    0
  0
BLOCK_RECORD
  5
5B
330
1
100
AcDbSymbolTableRecord
100
AcDbBlockTableRecord
  2
*D4
 70
    0
280
    1
281
    0
  0
BLOCK_RECORD
  5
5E
330
1
100
AcDbSymbolTableRecord
100
AcDbBlockTableRecord
  2
*D6
 70
    0
280
    1
281
    0
  0
BLOCK_RECORD
  5
61
330
1
100
AcDbSymbolTableRecord
100
AcDbBlockTableRecord
  2
*D1
 70
    0
280
    1
281
    0
  0
BLOCK_RECORD
  5
64
330
1
100
AcDbSymbolTableRecord
100
AcDbBlockTableRecord
  2
*D20
 70
    0
280
    1
281
    0
  0
BLOCK_RECORD
  5
67
330
1
100
AcDbSymbolTableRecord
100
AcDbBlockTableRecord
  2
*D22
 70
    0
280
    1
281
    0
  0
BLOCK_RECORD
  5
6A
330
1
100
AcDbSymbolTableRecord
100
AcDbBlockTableRecord
  2
*D3
 70
    0
280
    1
281
    0
  0
BLOCK_RECORD
  5
6D
330
1
100
AcDbSymbolTableRecord
100
AcDbBlockTableRecord
  2
*D2
 70
    0
280
    1
281
    0
  0
BLOCK_RECORD
  5
70
330
1
100
AcDbSymbolTableRecord
100
AcDbBlockTableRecord
  2
*D11
 70
    0
280
    1
281
    0
  0
BLOCK_RECORD
  5
73
330
1
100
AcDbSymbolTableRecord
100
AcDbBlockTableRecord
  2
*D19
 70
    0
280
    1
281
    0
  0
BLOCK_RECORD
  5
76
330
1
100
AcDbSymbolTableRecord
100
AcDbBlockTableRecord
  2
*D21
 70
    0
280
    1
281
    0
  0
BLOCK_RECORD
  5
79
330
1
100
AcDbSymbolTableRecord
100
AcDbBlockTableRecord
  2
*D8
 70
    0
280
    1
281
    0
  0
BLOCK_RECORD
  5
7C
330
1
100
AcDbSymbolTableRecord
100
AcDbBlockTableRecord
  2
*D10
 70
    0
280
    1
281
    0
  0
BLOCK_RECORD
  5
7F
330
1
100
AcDbSymbolTableRecord
100
AcDbBlockTableRecord
  2
*D18
 70
    0
280
    1
281
    0
  0
BLOCK_RECORD
  5
82
330
1
100
AcDbSymbolTableRecord
100
AcDbBlockTableRecord
  2
*D14
 70
    0
280
    1
281
    0
  0
BLOCK_RECORD
  5
85
330
1
100
AcDbSymbolTableRecord
100
AcDbBlockTableRecord
  2
*D13
 70
    0
280
    1
281
    0
  0
BLOCK_RECORD
  5
88
330
1
100
AcDbSymbolTableRecord
100
AcDbBlockTableRecord
  2
*D12
 70
    0
280
    1
281
    0
  0
BLOCK_RECORD
  5
8B
330
1
100
AcDbSymbolTableRecord
100
AcDbBlockTableRecord
  2
*D17
 70
    0
280
    1
281
    0
  0
BLOCK_RECORD
  5
8E
330
1
100
AcDbSymbolTableRecord
100
AcDbBlockTableRecord
  2
*D5
 70
    0
280
    1
281
    0
  0
ENDTAB
  0
ENDSEC
  0
SECTION
  2
BLOCKS
  0
BLOCK
  5
20
330
1F
100
AcDbEntity
  8
0
100
AcDbBlockBegin
  2
*Model_Space
 70
    0
 10
0
 20
0
 30
0
  3
*Model_Space
  1

  0
ENDBLK
  5
21
330
1F
100
AcDbEntity
  8
0
100
AcDbBlockEnd
  0
BLOCK
  5
1C
330
1B
100
AcDbEntity
  8
0
100
AcDbBlockBegin
  2
*Paper_Space
 70
    0
 10
0
 20
0
 30
0
  3
*Paper_Space
  1

  0
ENDBLK
  5
1D
330
1F
100
AcDbEntity
  8
0
100
AcDbBlockEnd
  0
BLOCK
  5
50
330
4F
100
AcDbEntity
  8
0
100
AcDbBlockBegin
  2
*D9
 70
    1
 10
0
 20
0
  3
*D9
  1

  0
LINE
  5
91
100
AcDbEntity
  8
noname
  6
ByBlock
 62
    0
370
   -2
100
AcDbLine
 10
651.5827898823381
 20
-1054.475105642559
 11
651.5827898823381
 21
-2745.524894357442
  0
MTEXT
  5
92
100
AcDbEntity
  8
noname
  6
CONTINUOUS
 62
    0
370
   -2
100
AcDbMText
 10
631.5827898823381
 20
-1900
 30
0
 40
75
 41
175.0000000000047
 71
    5
 72
    1
  1
1691
  7
standard
210
0
220
0
230
1
 50
90
 73
    2
 44
1
  0
SOLID
  5
93
100
AcDbEntity
  8
noname
  6
ByBlock
 62
    0
370
   -2
100
AcDbTrace
 10
651.5827898823381
 20
-1054.475105642559
 30
0
 11
659.908483037795
 21
-1104.475105642559
 31
0
 12
643.2570967268813
 22
-1104.475105642559
 32
0
 13
643.2570967268813
 23
-1104.475105642559
 33
0
  0
SOLID
  5
94
100
AcDbEntity
  8
noname
  6
ByBlock
 62
    0
370
   -2
100
AcDbTrace
 10
651.5827898823381
 20
-2745.524894357442
 30
0
 11
643.2570967268814
 21
-2695.524894357442
 31
0
 12
659.908483037795
 22
-2695.524894357442
 32
0
 13
659.908483037795
 23
-2695.524894357442
 33
0
  0
LINE
  5
95
100
AcDbEntity
  8
noname
  6
ByBlock
 62
    0
370
   -2
100
AcDbLine
 10
777.1451773141921
 20
-1054.475105642559
 11
648.4577898823381
 21
-1054.475105642559
  0
LINE
  5
96
100
AcDbEntity
  8
noname
  6
ByBlock
 62
    0
370
   -2
100
AcDbLine
 10
777.1451773141921
 20
-2745.524894357442
 11
648.4577898823381
 21
-2745.524894357442
  0
ENDBLK
  5
51
330
4F
100
AcDbEntity
  8
0
100
AcDbBlockEnd
  0
BLOCK
  5
53
330
52
100
AcDbEntity
  8
0
100
AcDbBlockBegin
  2
*D15
 70
    1
 10
0
 20
0
  3
*D15
  1

  0
ARC
  5
97
100
AcDbEntity
  8
noname
  6
ByBlock
 62
    0
370
   -2
100
AcDbCircle
 10
-1887.937687949903
 20
2.806578348761506e-13
 40
218.4789165159295
100
AcDbArc
 50
44.99999999999992
 51
112.5000000000002
  0
SOLID
  5
98
100
AcDbEntity
  8
noname
  6
ByBlock
 62
    0
370
   -2
100
AcDbTrace
 10
-1733.4497645352
 20
154.4879234147034
 30
0
 11
-1777.787162135431
 21
179.0544115755674
 31
0
 12
-1767.434220846199
 22
192.0960860361957
 32
0
 13
-1767.434220846199
 23
192.0960860361957
 33
0
  0
SOLID
  5
99
100
AcDbEntity
  8
noname
  6
ByBlock
 62
    0
370
   -2
100
AcDbTrace
 10
-1971.545949621626
 20
201.8481992543094
 30
0
 11
-1925.756385255433
 21
223.5883225675077
 31
0
 12
-1921.182347443402
 22
207.5774873560206
 32
0
 13
-1921.182347443402
 23
207.5774873560206
 33
0
  0
MTEXT
  5
9A
100
AcDbEntity
  8
noname
  6
CONTINUOUS
 62
    0
370
   -2
100
AcDbMText
 10
-1845.009737144926
 20
215.8133823979002
 30
0
 40
75
 41
33.33333333333682
 71
    8
 72
    1
  1
a
  7
standard
210
0
220
0
230
1
 50
348.7500000000001
 73
    2
 44
1
  0
ENDBLK
  5
54
330
52
100
AcDbEntity
  8
0
100
AcDbBlockEnd
  0
BLOCK
  5
56
330
55
100
AcDbEntity
  8
0
100
AcDbBlockBegin
  2
*D7
 70
    1
 10
0
 20
0
  3
*D7
  1

  0
LINE
  5
9B
100
AcDbEntity
  8
noname
  6
ByBlock
 62
    0
370
   -2
100
AcDbLine
 10
1688.799614478088
 20
-292.120857922005
 11
1475.594133137001
 21
-78.91537658092095
  0
ARC
  5
9C
100
AcDbEntity
  8
noname
  6
ByBlock
 62
    0
370
   -2
100
AcDbCircle
 10
1909
 20
-512.3212434439133
 40
609.8034549297166
100
AcDbArc
 50
90
 51
135.0000000000005
  0
SOLID
  5
9D
100
AcDbEntity
  8
noname
  6
ByBlock
 62
    0
370
   -2
100
AcDbTrace
 10
1909
 20
97.4822114858033
 30
0
 11
1859.383243892396
 21
87.11424737141037
 31
0
 12
1858.700781283768
 22
103.7516423256425
 32
0
 13
1858.700781283768
 23
103.7516423256425
 33
0
  0
SOLID
  5
9E
100
AcDbEntity
  8
noname
  6
ByBlock
 62
    0
370
   -2
100
AcDbTrace
 10
1477.803841828209
 20
-81.1250852721289
 30
0
 11
1508.937603409811
 21
-41.12500956846572
 31
0
 12
1520.219444264761
 22
-53.37199830034861
 32
0
 13
1520.219444264761
 23
-53.37199830034861
 33
0
  0
MTEXT
  5
9F
100
AcDbEntity
  8
noname
  6
CONTINUOUS
 62
    0
370
   -2
100
AcDbMText
 10
1675.040377936333
 20
52.50724918986875
 30
0
 40
75
 41
150.0000000000047
 71
    8
 72
    1
  1
45%%D
  7
standard
210
0
220
0
230
1
 50
382.5000000000002
 73
    2
 44
1
  0
ENDBLK
  5
57
330
55
100
AcDbEntity
  8
0
100
AcDbBlockEnd
  0
BLOCK
  5
59
330
58
100
AcDbEntity
  8
0
100
AcDbBlockBegin
  2
*D16
 70
    1
 10
0
 20
0
  3
*D16
  1

  0
ARC
  5
A0
100
AcDbEntity
  8
noname
  6
ByBlock
 62
    0
370
   -2
100
AcDbCircle
 10
-1887.937687949903
 20
-0
 40
215.8222033367445
100
AcDbArc
 50
292.5000000000002
 51
0
  0
SOLID
  5
A1
100
AcDbEntity
  8
noname
  6
ByBlock
 62
    0
370
   -2
100
AcDbTrace
 10
-1805.346106396401
 20
-199.393716324307
 30
0
 11
-1765.726938892862
 21
-167.7766523738807
 31
0
 12
-1757.619407171259
 22
-182.3209500694891
 32
0
 13
-1757.619407171259
 23
-182.3209500694891
 33
0
  0
SOLID
  5
A2
100
AcDbEntity
  8
noname
  6
ByBlock
 62
    0
370
   -2
100
AcDbTrace
 10
-1672.115484613159
 20
0
 30
0
 11
-1669.624446844401
 21
-50.62718535879158
 31
0
 12
-1686.164243867356
 22
-48.70266450551163
 32
0
 13
-1686.164243867356
 23
-48.70266450551163
 33
0
  0
MTEXT
  5
A3
100
AcDbEntity
  8
noname
  6
CONTINUOUS
 62
    0
370
   -2
100
AcDbMText
 10
-1709.787255484442
 20
-119.0363133095056
 30
0
 40
75
 41
33.33333333333682
 71
    8
 72
    1
  1
a
  7
standard
210
0
220
0
230
1
 50
56.25000000000009
 73
    2
 44
1
  0
ENDBLK
  5
5A
330
58
100
AcDbEntity
  8
0
100
AcDbBlockEnd
  0
BLOCK
  5
5C
330
5B
100
AcDbEntity
  8
0
100
AcDbBlockBegin
  2
*D4
 70
    1
 10
0
 20
0
  3
*D4
  1

  0
LINE
  5
A4
100
AcDbEntity
  8
noname
  6
ByBlock
 62
    0
370
   -2
100
AcDbLine
 10
2020.911394821171
 20
272.4060371796659
 11
2020.911394821171
 21
-272.4060371796661
  0
MTEXT
  5
A5
100
AcDbEntity
  8
noname
  6
CONTINUOUS
 62
    0
370
   -2
100
AcDbMText
 10
2000.911394821171
 20
0
 30
0
 40
75
 41
158.3333333333426
 71
    5
 72
    1
  1
545
  7
standard
210
0
220
0
230
1
 50
90
 73
    2
 44
1
  0
SOLID
  5
A6
100
AcDbEntity
  8
noname
  6
ByBlock
 62
    0
370
   -2
100
AcDbTrace
 10
2020.911394821171
 20
272.4060371796659
 30
0
 11
2029.237087976628
 21
222.4060371796659
 31
0
 12
2012.585701665714
 22
222.4060371796659
 32
0
 13
2012.585701665714
 23
222.4060371796659
 33
0
  0
SOLID
  5
A7
100
AcDbEntity
  8
noname
  6
ByBlock
 62
    0
370
   -2
100
AcDbTrace
 10
2020.911394821171
 20
-272.4060371796661
 30
0
 11
2012.585701665714
 21
-222.4060371796661
 31
0
 12
2029.237087976628
 22
-222.4060371796661
 32
0
 13
2029.237087976628
 23
-222.4060371796661
 33
0
  0
LINE
  5
A8
100
AcDbEntity
  8
noname
  6
ByBlock
 62
    0
370
   -2
100
AcDbLine
 10
1910.5625
 20
272.4060371796659
 11
2024.036394821171
 21
272.4060371796659
  0
LINE
  5
A9
100
AcDbEntity
  8
noname
  6
ByBlock
 62
    0
370
   -2
100
AcDbLine
 10
1910.5625
 20
-272.4060371796661
 11
2024.036394821171
 21
-272.4060371796661
  0
ENDBLK
  5
5D
330
5B
100
AcDbEntity
  8
0
100
AcDbBlockEnd
  0
BLOCK
  5
5F
330
5E
100
AcDbEntity
  8
0
100
AcDbBlockBegin
  2
*D6
 70
    1
 10
0
 20
0
  3
*D6
  1

  0
LINE
  5
AA
100
AcDbEntity
  8
noname
  6
ByBlock
 62
    0
370
   -2
100
AcDbLine
 10
1909
 20
-454.591979864289
 11
2800
 21
-454.591979864289
  0
MTEXT
  5
AB
100
AcDbEntity
  8
noname
  6
CONTINUOUS
 62
    0
370
   -2
100
AcDbMText
 10
2354.5
 20
-434.591979864289
 30
0
 40
75
 41
133.3333333333333
 71
    5
 72
    1
  1
891
  7
standard
210
0
220
0
230
1
 50
0
 73
    2
 44
1
  0
SOLID
  5
AC
100
AcDbEntity
  8
noname
  6
ByBlock
 62
    0
370
   -2
100
AcDbTrace
 10
1909
 20
-454.591979864289
 30
0
 11
1959
 21
-446.2662867088322
 31
0
 12
1959
 22
-462.9176730197458
 32
0
 13
1959
 23
-462.9176730197458
 33
0
  0
SOLID
  5
AD
100
AcDbEntity
  8
noname
  6
ByBlock
 62
    0
370
   -2
100
AcDbTrace
 10
2800
 20
-454.591979864289
 30
0
 11
2750
 21
-462.9176730197458
 31
0
 12
2750
 22
-446.2662867088322
 32
0
 13
2750
 23
-446.2662867088322
 33
0
  0
LINE
  5
AE
100
AcDbEntity
  8
noname
  6
ByBlock
 62
    0
370
   -2
100
AcDbLine
 10
1909
 20
-273.9685371796661
 11
1909
 21
-457.716979864289
  0
LINE
  5
AF
100
AcDbEntity
  8
noname
  6
ByBlock
 62
    0
370
   -2
100
AcDbLine
 10
2800
 20
-1.5625
 11
2800
 21
-457.716979864289
  0
ENDBLK
  5
60
330
5E
100
AcDbEntity
  8
0
100
AcDbBlockEnd
  0
BLOCK
  5
62
330
61
100
AcDbEntity
  8
0
100
AcDbBlockBegin
  2
*D1
 70
    1
 10
0
 20
0
  3
*D1
  1

  0
LINE
  5
B0
100
AcDbEntity
  8
noname
  6
ByBlock
 62
    0
370
   -2
100
AcDbLine
 10
1909
 20
-2354.591979864289
 11
2800
 21
-2354.591979864289
  0
MTEXT
  5
B1
100
AcDbEntity
  8
noname
  6
CONTINUOUS
 62
    0
370
   -2
100
AcDbMText
 10
2354.5
 20
-2334.591979864289
 30
0
 40
75
 41
133.3333333333333
 71
    5
 72
    1
  1
891
  7
standard
210
0
220
0
230
1
 50
0
 73
    2
 44
1
  0
SOLID
  5
B2
100
AcDbEntity
  8
noname
  6
ByBlock
 62
    0
370
   -2
100
AcDbTrace
 10
1909
 20
-2354.591979864289
 30
0
 11
1959
 21
-2346.266286708832
 31
0
 12
1959
 22
-2362.917673019746
 32
0
 13
1959
 23
-2362.917673019746
 33
0
  0
SOLID
  5
B3
100
AcDbEntity
  8
noname
  6
ByBlock
 62
    0
370
   -2
100
AcDbTrace
 10
2800
 20
-2354.591979864289
 30
0
 11
2750
 21
-2362.917673019746
 31
0
 12
2750
 22
-2346.266286708832
 32
0
 13
2750
 23
-2346.266286708832
 33
0
  0
LINE
  5
B4
100
AcDbEntity
  8
noname
  6
ByBlock
 62
    0
370
   -2
100
AcDbLine
 10
1909
 20
-2173.968537179666
 11
1909
 21
-2357.716979864289
  0
LINE
  5
B5
100
AcDbEntity
  8
noname
  6
ByBlock
 62
    0
370
   -2
100
AcDbLine
 10
2800
 20
-1901.5625
 11
2800
 21
-2357.716979864289
  0
ENDBLK
  5
63
330
61
100
AcDbEntity
  8
0
100
AcDbBlockEnd
  0
BLOCK
  5
65
330
64
100
AcDbEntity
  8
0
100
AcDbBlockBegin
  2
*D20
 70
    1
 10
0
 20
0
  3
*D20
  1

  0
LINE
  5
B6
100
AcDbEntity
  8
noname
  6
ByBlock
 62
    0
370
   -2
100
AcDbLine
 10
-1500
 20
-1199.028094047049
 11
-1500
 21
-2600.971905952951
  0
MTEXT
  5
B7
100
AcDbEntity
  8
noname
  6
CONTINUOUS
 62
    0
370
   -2
100
AcDbMText
 10
-1520
 20
-1900
 30
0
 40
75
 41
200
 71
    5
 72
    1
  1
1402
  7
standard
210
0
220
0
230
1
 50
90
 73
    2
 44
1
  0
SOLID
  5
B8
100
AcDbEntity
  8
noname
  6
ByBlock
 62
    0
370
   -2
100
AcDbTrace
 10
-1500
 20
-1199.028094047049
 30
0
 11
-1491.674306844543
 21
-1249.028094047049
 31
0
 12
-1508.325693155457
 22
-1249.028094047049
 32
0
 13
-1508.325693155457
 23
-1249.028094047049
 33
0
  0
SOLID
  5
B9
100
AcDbEntity
  8
noname
  6
ByBlock
 62
    0
370
   -2
100
AcDbTrace
 10
-1500
 20
-2600.971905952951
 30
0
 11
-1508.325693155457
 21
-2550.971905952951
 31
0
 12
-1491.674306844543
 22
-2550.971905952951
 32
0
 13
-1491.674306844543
 23
-2550.971905952951
 33
0
  0
LINE
  5
BA
100
AcDbEntity
  8
noname
  6
ByBlock
 62
    0
370
   -2
100
AcDbLine
 10
-1674.164780623583
 20
-1199.028094047049
 11
-1496.875
 21
-1199.028094047049
  0
LINE
  5
BB
100
AcDbEntity
  8
noname
  6
ByBlock
 62
    0
370
   -2
100
AcDbLine
 10
-1674.164780623583
 20
-2600.971905952951
 11
-1496.875
 21
-2600.971905952951
  0
ENDBLK
  5
66
330
64
100
AcDbEntity
  8
0
100
AcDbBlockEnd
  0
BLOCK
  5
68
330
67
100
AcDbEntity
  8
0
100
AcDbBlockBegin
  2
*D22
 70
    1
 10
0
 20
0
  3
*D22
  1

  0
LINE
  5
BC
100
AcDbEntity
  8
noname
  6
ByBlock
 62
    0
370
   -2
100
AcDbLine
 10
1614.583824929029
 20
-1450.426438965573
 11
1614.583824929029
 21
-2349.573561034426
  0
MTEXT
  5
BD
100
AcDbEntity
  8
noname
  6
CONTINUOUS
 62
    0
370
   -2
100
AcDbMText
 10
1575.521324929029
 20
-1900
 30
0
 40
75
 41
150
 71
    5
 72
    1
  1
899
  7
standard
210
0
220
0
230
1
 50
90
 73
    2
 44
1
  0
SOLID
  5
BE
100
AcDbEntity
  8
noname
  6
ByBlock
 62
    0
370
   -2
100
AcDbTrace
 10
1614.583824929029
 20
-1450.426438965573
 30
0
 11
1622.909518084486
 21
-1500.426438965573
 31
0
 12
1606.258131773572
 22
-1500.426438965573
 32
0
 13
1606.258131773572
 23
-1500.426438965573
 33
0
  0
SOLID
  5
BF
100
AcDbEntity
  8
noname
  6
ByBlock
 62
    0
370
   -2
100
AcDbTrace
 10
1614.583824929029
 20
-2349.573561034426
 30
0
 11
1606.258131773572
 21
-2299.573561034426
 31
0
 12
1622.909518084486
 22
-2299.573561034426
 32
0
 13
1622.909518084486
 23
-2299.573561034426
 33
0
  0
LINE
  5
C0
100
AcDbEntity
  8
noname
  6
ByBlock
 62
    0
370
   -2
100
AcDbLine
 10
1723.69730788302
 20
-1450.426438965573
 11
1611.458824929029
 21
-1450.426438965573
  0
LINE
  5
C1
100
AcDbEntity
  8
noname
  6
ByBlock
 62
    0
370
   -2
100
AcDbLine
 10
1723.69730788302
 20
-2349.573561034426
 11
1611.458824929029
 21
-2349.573561034426
  0
ENDBLK
  5
69
330
67
100
AcDbEntity
  8
0
100
AcDbBlockEnd
  0
BLOCK
  5
6B
330
6A
100
AcDbEntity
  8
0
100
AcDbBlockBegin
  2
*D3
 70
    1
 10
0
 20
0
  3
*D3
  1

  0
LINE
  5
C2
100
AcDbEntity
  8
noname
  6
ByBlock
 62
    0
370
   -2
100
AcDbLine
 10
777.6028229685886
 20
616.8662248962861
 11
669.7480291601938
 21
509.0114310878908
  0
LINE
  5
C3
100
AcDbEntity
  8
noname
  6
ByBlock
 62
    0
370
   -2
100
AcDbLine
 10
1724.154953537416
 20
-329.6859056725399
 11
1616.300159729021
 21
-437.5406994809352
  0
LINE
  5
C4
100
AcDbEntity
  8
noname
  6
ByBlock
 62
    0
370
   -2
100
AcDbLine
 10
671.9577378514018
 20
511.2211397790988
 11
1618.509868420229
 21
-435.3309907897272
  0
MTEXT
  5
C5
100
AcDbEntity
  8
noname
  6
CONTINUOUS
 62
    0
370
   -2
100
AcDbMText
 10
1159.375938759547
 20
52.08721011841703
 30
0
 40
75
 41
191.666666666676
 71
    5
 72
    1
  1
1339
  7
standard
210
0
220
0
230
1
 50
315.0000000000001
 73
    2
 44
1
  0
SOLID
  5
C6
100
AcDbEntity
  8
noname
  6
ByBlock
 62
    0
370
   -2
100
AcDbTrace
 10
671.9577378514018
 20
511.2211397790988
 30
0
 11
713.2002309990312
 21
481.7529548080734
 31
0
 12
701.4259228224273
 22
469.9786466314695
 32
0
 13
701.4259228224273
 23
469.9786466314695
 33
0
  0
SOLID
  5
C7
100
AcDbEntity
  8
noname
  6
ByBlock
 62
    0
370
   -2
100
AcDbTrace
 10
1618.509868420229
 20
-435.3309907897272
 30
0
 11
1577.2673752726
 21
-405.8628058187018
 31
0
 12
1589.041683449204
 22
-394.0884976420979
 32
0
 13
1589.041683449204
 23
-394.0884976420979
 33
0
  0
ENDBLK
  5
6C
330
6A
100
AcDbEntity
  8
0
100
AcDbBlockEnd
  0
BLOCK
  5
6E
330
6D
100
AcDbEntity
  8
0
100
AcDbBlockBegin
  2
*D2
 70
    1
 10
0
 20
0
  3
*D2
  1

  0
LINE
  5
C8
100
AcDbEntity
  8
noname
  6
ByBlock
 62
    0
370
   -2
100
AcDbLine
 10
2000
 20
-1527.286626275093
 11
2000
 21
-2272.713373724907
  0
MTEXT
  5
C9
100
AcDbEntity
  8
noname
  6
CONTINUOUS
 62
    0
370
   -2
100
AcDbMText
 10
1980
 20
-1900
 30
0
 40
75
 41
158.333333333338
 71
    5
 72
    1
  1
745
  7
standard
210
0
220
0
230
1
 50
90
 73
    2
 44
1
  0
SOLID
  5
CA
100
AcDbEntity
  8
noname
  6
ByBlock
 62
    0
370
   -2
100
AcDbTrace
 10
2000
 20
-1527.286626275093
 30
0
 11
2008.325693155457
 21
-1577.286626275093
 31
0
 12
1991.674306844543
 22
-1577.286626275093
 32
0
 13
1991.674306844543
 23
-1577.286626275093
 33
0
  0
SOLID
  5
CB
100
AcDbEntity
  8
noname
  6
ByBlock
 62
    0
370
   -2
100
AcDbTrace
 10
2000
 20
-2272.713373724907
 30
0
 11
1991.674306844543
 21
-2222.713373724907
 31
0
 12
2008.325693155457
 22
-2222.713373724907
 32
0
 13
2008.325693155457
 23
-2222.713373724907
 33
0
  0
LINE
  5
CC
100
AcDbEntity
  8
noname
  6
ByBlock
 62
    0
370
   -2
100
AcDbLine
 10
1910.5625
 20
-1527.286626275093
 11
2003.125
 21
-1527.286626275093
  0
LINE
  5
CD
100
AcDbEntity
  8
noname
  6
ByBlock
 62
    0
370
   -2
100
AcDbLine
 10
1910.5625
 20
-2272.713373724907
 11
2003.125
 21
-2272.713373724907
  0
ENDBLK
  5
6F
330
6D
100
AcDbEntity
  8
0
100
AcDbBlockEnd
  0
BLOCK
  5
71
330
70
100
AcDbEntity
  8
0
100
AcDbBlockBegin
  2
*D11
 70
    1
 10
0
 20
0
  3
*D11
  1

  0
ARC
  5
CE
100
AcDbEntity
  8
noname
  6
ByBlock
 62
    0
370
   -2
100
AcDbCircle
 10
0
 20
0
 40
567.0355575946392
100
AcDbArc
 50
163
 51
197
  0
SOLID
  5
CF
100
AcDbEntity
  8
noname
  6
ByBlock
 62
    0
370
   -2
100
AcDbTrace
 10
-542.2588005279052
 20
165.7851526123519
 30
0
 11
-546.6942901599576
 21
115.291156947097
 31
0
 12
-562.8171888052345
 22
119.4529841118663
 32
0
 13
-562.8171888052345
 23
119.4529841118663
 33
0
  0
SOLID
  5
D0
100
AcDbEntity
  8
noname
  6
ByBlock
 62
    0
370
   -2
100
AcDbTrace
 10
-542.2588005279051
 20
-165.7851526123522
 30
0
 11
-562.8171888052344
 21
-119.4529841118666
 31
0
 12
-546.6942901599575
 22
-115.2911569470974
 32
0
 13
-546.6942901599575
 23
-115.2911569470974
 33
0
  0
MTEXT
  5
D1
100
AcDbEntity
  8
noname
  6
CONTINUOUS
 62
    0
370
   -2
100
AcDbMText
 10
-565.4730575946392
 20
-1.816786552776013e-13
 30
0
 40
75
 41
150.0000000000047
 71
    8
 72
    1
  1
34%%D
  7
standard
210
0
220
0
230
1
 50
-89.99999999999997
 73
    2
 44
1
  0
ENDBLK
  5
72
330
70
100
AcDbEntity
  8
0
100
AcDbBlockEnd
  0
BLOCK
  5
74
330
73
100
AcDbEntity
  8
0
100
AcDbBlockBegin
  2
*D19
 70
    1
 10
0
 20
0
  3
*D19
  1

  0
LINE
  5
D2
100
AcDbEntity
  8
noname
  6
ByBlock
 62
    0
370
   -2
100
AcDbLine
 10
-2000
 20
-995.7458000049651
 11
-2000
 21
-2804.254199995035
  0
MTEXT
  5
D3
100
AcDbEntity
  8
noname
  6
CONTINUOUS
 62
    0
370
   -2
100
AcDbMText
 10
-2020
 20
-1900
 30
0
 40
75
 41
191.6666666666667
 71
    5
 72
    1
  1
1809
  7
standard
210
0
220
0
230
1
 50
90
 73
    2
 44
1
  0
SOLID
  5
D4
100
AcDbEntity
  8
noname
  6
ByBlock
 62
    0
370
   -2
100
AcDbTrace
 10
-2000
 20
-995.7458000049651
 30
0
 11
-1991.674306844543
 21
-1045.745800004965
 31
0
 12
-2008.325693155457
 22
-1045.745800004965
 32
0
 13
-2008.325693155457
 23
-1045.745800004965
 33
0
  0
SOLID
  5
D5
100
AcDbEntity
  8
noname
  6
ByBlock
 62
    0
370
   -2
100
AcDbTrace
 10
-2000
 20
-2804.254199995035
 30
0
 11
-2008.325693155457
 21
-2754.254199995035
 31
0
 12
-1991.674306844543
 22
-2754.254199995035
 32
0
 13
-1991.674306844543
 23
-2754.254199995035
 33
0
  0
LINE
  5
D6
100
AcDbEntity
  8
noname
  6
ByBlock
 62
    0
370
   -2
100
AcDbLine
 10
-2160.126747003629
 20
-995.7458000049652
 11
-1996.875
 21
-995.7458000049651
  0
LINE
  5
D7
100
AcDbEntity
  8
noname
  6
ByBlock
 62
    0
370
   -2
100
AcDbLine
 10
-2160.126747003629
 20
-2804.254199995035
 11
-1996.875
 21
-2804.254199995035
  0
ENDBLK
  5
75
330
73
100
AcDbEntity
  8
0
100
AcDbBlockEnd
  0
BLOCK
  5
77
330
76
100
AcDbEntity
  8
0
100
AcDbBlockBegin
  2
*D21
 70
    1
 10
0
 20
0
  3
*D21
  1

  0
ARC
  5
D8
100
AcDbEntity
  8
noname
  6
ByBlock
 62
    0
370
   -2
100
AcDbCircle
 10
-891
 20
-2406.820487089512
 40
3014.075387507952
100
AcDbArc
 50
90
 51
112.5000000000002
  0
SOLID
  5
D9
100
AcDbEntity
  8
noname
  6
ByBlock
 62
    0
370
   -2
100
AcDbTrace
 10
-890.9999999999998
 20
607.2549004184398
 30
0
 11
-940.9292240915858
 21
598.5147775285139
 31
0
 12
-941.0673360599527
 22
615.1655910569718
 32
0
 13
-941.0673360599527
 23
615.1655910569718
 33
0
  0
SOLID
  5
DA
100
AcDbEntity
  8
noname
  6
ByBlock
 62
    0
370
   -2
100
AcDbTrace
 10
-2044.436714698689
 20
377.8220728751066
 30
0
 11
-2001.207817911466
 21
404.2905380568744
 31
0
 12
-1994.963426259494
 22
388.8543390761648
 32
0
 13
-1994.963426259494
 23
388.8543390761648
 33
0
  0
MTEXT
  5
DB
100
AcDbEntity
  8
noname
  6
CONTINUOUS
 62
    0
370
   -2
100
AcDbMText
 10
-1479.321766557968
 20
550.872764004579
 30
0
 40
75
 41
141.6666666666713
 71
    8
 72
    1
  1
23%%D
  7
standard
210
0
220
0
230
1
 50
371.2500000000001
 73
    2
 44
1
  0
ENDBLK
  5
78
330
76
100
AcDbEntity
  8
0
100
AcDbBlockEnd
  0
BLOCK
  5
7A
330
79
100
AcDbEntity
  8
0
100
AcDbBlockBegin
  2
*D8
 70
    1
 10
0
 20
0
  3
*D8
  1

  0
LINE
  5
DC
100
AcDbEntity
  8
noname
  6
ByBlock
 62
    0
370
   -2
100
AcDbLine
 10
1929.422498331699
 20
339.2050193238944
 11
1968.364739973417
 21
466.5793523673491
  0
LINE
  5
DD
100
AcDbEntity
  8
noname
  6
ByBlock
 62
    0
370
   -2
100
AcDbLine
 10
1907.505773818808
 20
272.8628679682951
 11
1714.826684812316
 21
331.7707771530835
  0
ARC
  5
DE
100
AcDbEntity
  8
noname
  6
ByBlock
 62
    0
370
   -2
100
AcDbCircle
 10
1908.999999999999
 20
272.4060371796661
 40
199.9204350215408
100
AcDbArc
 50
72.99999999999999
 51
163
  0
SOLID
  5
DF
100
AcDbEntity
  8
noname
  6
ByBlock
 62
    0
370
   -2
100
AcDbTrace
 10
1967.451078396158
 20
463.5909000049646
 30
0
 11
1916.76376900067
 21
463.9282911204855
 31
0
 12
1919.608066667329
 22
480.3349555242795
 32
0
 13
1919.608066667329
 23
480.3349555242795
 33
0
  0
SOLID
  5
E0
100
AcDbEntity
  8
noname
  6
ByBlock
 62
    0
370
   -2
100
AcDbTrace
 10
1717.815137174701
 20
330.857115575825
 30
0
 11
1730.68715867167
 21
379.8839269049373
 31
0
 12
1745.879410973271
 22
373.0674662339007
 32
0
 13
1745.879410973271
 23
373.0674662339007
 33
0
  0
MTEXT
  5
E1
100
AcDbEntity
  8
noname
  6
CONTINUOUS
 62
    0
370
   -2
100
AcDbMText
 10
1814.409491620748
 20
450.3049096590871
 30
0
 40
75
 41
141.6666666666713
 71
    8
 72
    1
  1
90%%D
  7
standard
210
0
220
0
230
1
 50
388
 73
    2
 44
1
  0
ENDBLK
  5
7B
330
79
100
AcDbEntity
  8
0
100
AcDbBlockEnd
  0
BLOCK
  5
7D
330
7C
100
AcDbEntity
  8
0
100
AcDbBlockBegin
  2
*D10
 70
    1
 10
0
 20
0
  3
*D10
  1

  0
LINE
  5
E2
100
AcDbEntity
  8
noname
  6
ByBlock
 62
    0
370
   -2
100
AcDbLine
 10
-779.0886051788289
 20
272.4060371796659
 11
-779.0886051788289
 21
-272.4060371796661
  0
MTEXT
  5
E3
100
AcDbEntity
  8
noname
  6
CONTINUOUS
 62
    0
370
   -2
100
AcDbMText
 10
-799.0886051788289
 20
0
 30
0
 40
75
 41
158.3333333333426
 71
    5
 72
    1
  1
545
  7
standard
210
0
220
0
230
1
 50
90
 73
    2
 44
1
  0
SOLID
  5
E4
100
AcDbEntity
  8
noname
  6
ByBlock
 62
    0
370
   -2
100
AcDbTrace
 10
-779.0886051788289
 20
272.4060371796659
 30
0
 11
-770.762912023372
 21
222.4060371796659
 31
0
 12
-787.4142983342857
 22
222.4060371796659
 32
0
 13
-787.4142983342857
 23
222.4060371796659
 33
0
  0
SOLID
  5
E5
100
AcDbEntity
  8
noname
  6
ByBlock
 62
    0
370
   -2
100
AcDbTrace
 10
-779.0886051788289
 20
-272.4060371796661
 30
0
 11
-787.4142983342856
 21
-222.4060371796661
 31
0
 12
-770.762912023372
 22
-222.4060371796661
 32
0
 13
-770.762912023372
 23
-222.4060371796661
 33
0
  0
LINE
  5
E6
100
AcDbEntity
  8
noname
  6
ByBlock
 62
    0
370
   -2
100
AcDbLine
 10
-889.4375000000005
 20
272.4060371796659
 11
-775.9636051788289
 21
272.4060371796659
  0
LINE
  5
E7
100
AcDbEntity
  8
noname
  6
ByBlock
 62
    0
370
   -2
100
AcDbLine
 10
-889.4375
 20
-272.4060371796661
 11
-775.9636051788289
 21
-272.4060371796661
  0
ENDBLK
  5
7E
330
7C
100
AcDbEntity
  8
0
100
AcDbBlockEnd
  0
BLOCK
  5
80
330
7F
100
AcDbEntity
  8
0
100
AcDbBlockBegin
  2
*D18
 70
    1
 10
0
 20
0
  3
*D18
  1

  0
LINE
  5
E8
100
AcDbEntity
  8
noname
  6
ByBlock
 62
    0
370
   -2
100
AcDbLine
 10
-800
 20
-1527.286626275093
 11
-800
 21
-2272.713373724907
  0
MTEXT
  5
E9
100
AcDbEntity
  8
noname
  6
CONTINUOUS
 62
    0
370
   -2
100
AcDbMText
 10
-820
 20
-1900
 30
0
 40
75
 41
158.333333333338
 71
    5
 72
    1
  1
745
  7
standard
210
0
220
0
230
1
 50
90
 73
    2
 44
1
  0
SOLID
  5
EA
100
AcDbEntity
  8
noname
  6
ByBlock
 62
    0
370
   -2
100
AcDbTrace
 10
-800
 20
-1527.286626275093
 30
0
 11
-791.6743068445431
 21
-1577.286626275093
 31
0
 12
-808.3256931554569
 22
-1577.286626275093
 32
0
 13
-808.3256931554569
 23
-1577.286626275093
 33
0
  0
SOLID
  5
EB
100
AcDbEntity
  8
noname
  6
ByBlock
 62
    0
370
   -2
100
AcDbTrace
 10
-800
 20
-2272.713373724907
 30
0
 11
-808.3256931554567
 21
-2222.713373724907
 31
0
 12
-791.6743068445431
 22
-2222.713373724907
 32
0
 13
-791.6743068445431
 23
-2222.713373724907
 33
0
  0
LINE
  5
EC
100
AcDbEntity
  8
noname
  6
ByBlock
 62
    0
370
   -2
100
AcDbLine
 10
-889.4374999999998
 20
-1527.286626275093
 11
-796.875
 21
-1527.286626275093
  0
LINE
  5
ED
100
AcDbEntity
  8
noname
  6
ByBlock
 62
    0
370
   -2
100
AcDbLine
 10
-889.4375
 20
-2272.713373724907
 11
-796.875
 21
-2272.713373724907
  0
ENDBLK
  5
81
330
7F
100
AcDbEntity
  8
0
100
AcDbBlockEnd
  0
BLOCK
  5
83
330
82
100
AcDbEntity
  8
0
100
AcDbBlockBegin
  2
*D14
 70
    1
 10
0
 20
0
  3
*D14
  1

  0
ARC
  5
EE
100
AcDbEntity
  8
noname
  6
ByBlock
 62
    0
370
   -2
100
AcDbCircle
 10
-887.9376879499015
 20
1000
 40
344.8745867581221
100
AcDbArc
 50
180
 51
224.9999999999999
  0
SOLID
  5
EF
100
AcDbEntity
  8
noname
  6
ByBlock
 62
    0
370
   -2
100
AcDbTrace
 10
-1232.812274708024
 20
1000
 30
0
 11
-1220.887114518761
 21
950.734314975033
 31
0
 12
-1237.49476998706
 22
949.5283108616264
 32
0
 13
-1237.49476998706
 23
949.5283108616264
 33
0
  0
SOLID
  5
F0
100
AcDbEntity
  8
noname
  6
ByBlock
 62
    0
370
   -2
100
AcDbTrace
 10
-1131.800846905478
 20
756.1368410444238
 30
0
 11
-1170.800744717842
 21
788.5146905274265
 31
0
 12
-1158.204585229869
 22
799.4053026419419
 32
0
 13
-1158.204585229869
 23
799.4053026419419
 33
0
  0
MTEXT
  5
F1
100
AcDbEntity
  8
noname
  6
CONTINUOUS
 62
    0
370
   -2
100
AcDbMText
 10
-1205.11669816947
 20
868.6201522669805
 30
0
 40
75
 41
150.0000000000047
 71
    8
 72
    1
  1
45%%D
  7
standard
210
0
220
0
230
1
 50
-67.50000000000003
 73
    2
 44
1
  0
ENDBLK
  5
84
330
82
100
AcDbEntity
  8
0
100
AcDbBlockEnd
  0
BLOCK
  5
86
330
85
100
AcDbEntity
  8
0
100
AcDbBlockBegin
  2
*D13
 70
    1
 10
0
 20
0
  3
*D13
  1

  0
LINE
  5
F2
100
AcDbEntity
  8
noname
  6
ByBlock
 62
    0
370
   -2
100
AcDbLine
 10
-2163.132808773178
 20
660.2967837252057
 11
-2274.248228807516
 21
614.2712697581994
  0
LINE
  5
F3
100
AcDbEntity
  8
noname
  6
ByBlock
 62
    0
370
   -2
100
AcDbLine
 10
-1677.170842393132
 20
-512.9191863069865
 11
-1788.28626242747
 21
-558.9447002739928
  0
LINE
  5
F4
100
AcDbEntity
  8
noname
  6
ByBlock
 62
    0
370
   -2
100
AcDbLine
 10
-2271.361105268418
 20
615.4671554843403
 11
-1785.399138888372
 21
-557.7488145478519
  0
MTEXT
  5
F5
100
AcDbEntity
  8
noname
  6
CONTINUOUS
 62
    0
370
   -2
100
AcDbMText
 10
-2009.902531428169
 20
36.51283911554606
 30
0
 40
75
 41
191.6666666666667
 71
    5
 72
    1
  1
1270
  7
standard
210
0
220
0
230
1
 50
292.5000000000002
 73
    2
 44
1
  0
SOLID
  5
F6
100
AcDbEntity
  8
noname
  6
ByBlock
 62
    0
370
   -2
100
AcDbTrace
 10
-2271.361105268418
 20
615.4671554843403
 30
0
 11
-2244.534996149868
 21
572.4592836923248
 31
0
 12
-2259.918871150459
 22
566.0870740252273
 32
0
 13
-2259.918871150459
 23
566.0870740252273
 33
0
  0
SOLID
  5
F7
100
AcDbEntity
  8
noname
  6
ByBlock
 62
    0
370
   -2
100
AcDbTrace
 10
-1785.399138888372
 20
-557.7488145478519
 30
0
 11
-1812.225248006922
 21
-514.7409427558364
 31
0
 12
-1796.841373006331
 22
-508.3687330887388
 32
0
 13
-1796.841373006331
 23
-508.3687330887388
 33
0
  0
ENDBLK
  5
87
330
85
100
AcDbEntity
  8
0
100
AcDbBlockEnd
  0
BLOCK
  5
89
330
88
100
AcDbEntity
  8
0
100
AcDbBlockBegin
  2
*D12
 70
    1
 10
0
 20
0
  3
*D12
  1

  0
LINE
  5
F8
100
AcDbEntity
  8
noname
  6
ByBlock
 62
    0
370
   -2
100
AcDbLine
 10
-891
 20
-454.591979864289
 11
0
 21
-454.591979864289
  0
MTEXT
  5
F9
100
AcDbEntity
  8
noname
  6
CONTINUOUS
 62
    0
370
   -2
100
AcDbMText
 10
-445.5
 20
-434.591979864289
 30
0
 40
75
 41
133.3333333333333
 71
    5
 72
    1
  1
891
  7
standard
210
0
220
0
230
1
 50
0
 73
    2
 44
1
  0
SOLID
  5
FA
100
AcDbEntity
  8
noname
  6
ByBlock
 62
    0
370
   -2
100
AcDbTrace
 10
-891
 20
-454.591979864289
 30
0
 11
-841
 21
-446.2662867088322
 31
0
 12
-841
 22
-462.9176730197458
 32
0
 13
-841
 23
-462.9176730197458
 33
0
  0
SOLID
  5
FB
100
AcDbEntity
  8
noname
  6
ByBlock
 62
    0
370
   -2
100
AcDbTrace
 10
0
 20
-454.591979864289
 30
0
 11
-50
 21
-462.9176730197458
 31
0
 12
-50
 22
-446.2662867088322
 32
0
 13
-50
 23
-446.2662867088322
 33
0
  0
LINE
  5
FC
100
AcDbEntity
  8
noname
  6
ByBlock
 62
    0
370
   -2
100
AcDbLine
 10
-891
 20
-273.9685371796661
 11
-891
 21
-457.716979864289
  0
LINE
  5
FD
100
AcDbEntity
  8
noname
  6
ByBlock
 62
    0
370
   -2
100
AcDbLine
 10
-2.870265935501609e-16
 20
-1.5625
 11
-5.740531871003218e-16
 21
-457.716979864289
  0
ENDBLK
  5
8A
330
88
100
AcDbEntity
  8
0
100
AcDbBlockEnd
  0
BLOCK
  5
8C
330
8B
100
AcDbEntity
  8
0
100
AcDbBlockBegin
  2
*D17
 70
    1
 10
0
 20
0
  3
*D17
  1

  0
LINE
  5
FE
100
AcDbEntity
  8
noname
  6
ByBlock
 62
    0
370
   -2
100
AcDbLine
 10
-891
 20
-2354.591979864289
 11
0
 21
-2354.591979864289
  0
MTEXT
  5
FF
100
AcDbEntity
  8
noname
  6
CONTINUOUS
 62
    0
370
   -2
100
AcDbMText
 10
-445.5
 20
-2334.591979864289
 30
0
 40
75
 41
133.3333333333333
 71
    5
 72
    1
  1
891
  7
standard
210
0
220
0
230
1
 50
0
 73
    2
 44
1
  0
SOLID
  5
100
100
AcDbEntity
  8
noname
  6
ByBlock
 62
    0
370
   -2
100
AcDbTrace
 10
-891
 20
-2354.591979864289
 30
0
 11
-841
 21
-2346.266286708832
 31
0
 12
-841
 22
-2362.917673019746
 32
0
 13
-841
 23
-2362.917673019746
 33
0
  0
SOLID
  5
101
100
AcDbEntity
  8
noname
  6
ByBlock
 62
    0
370
   -2
100
AcDbTrace
 10
0
 20
-2354.591979864289
 30
0
 11
-50
 21
-2362.917673019746
 31
0
 12
-50
 22
-2346.266286708832
 32
0
 13
-50
 23
-2346.266286708832
 33
0
  0
LINE
  5
102
100
AcDbEntity
  8
noname
  6
ByBlock
 62
    0
370
   -2
100
AcDbLine
 10
-891
 20
-2173.968537179666
 11
-891
 21
-2357.716979864289
  0
LINE
  5
103
100
AcDbEntity
  8
noname
  6
ByBlock
 62
    0
370
   -2
100
AcDbLine
 10
-2.870265935501609e-16
 20
-1901.5625
 11
-5.740531871003218e-16
 21
-2357.716979864289
  0
ENDBLK
  5
8D
330
8B
100
AcDbEntity
  8
0
100
AcDbBlockEnd
  0
BLOCK
  5
8F
330
8E
100
AcDbEntity
  8
0
100
AcDbBlockBegin
  2
*D5
 70
    1
 10
0
 20
0
  3
*D5
  1

  0
ARC
  5
104
100
AcDbEntity
  8
noname
  6
ByBlock
 62
    0
370
   -2
100
AcDbCircle
 10
2800
 20
0
 40
567.0355575946392
100
AcDbArc
 50
163
 51
197
  0
SOLID
  5
105
100
AcDbEntity
  8
noname
  6
ByBlock
 62
    0
370
   -2
100
AcDbTrace
 10
2257.741199472095
 20
165.7851526123519
 30
0
 11
2253.305709840042
 21
115.291156947097
 31
0
 12
2237.182811194766
 22
119.4529841118662
 32
0
 13
2237.182811194766
 23
119.4529841118662
 33
0
  0
SOLID
  5
106
100
AcDbEntity
  8
noname
  6
ByBlock
 62
    0
370
   -2
100
AcDbTrace
 10
2257.741199472095
 20
-165.7851526123522
 30
0
 11
2237.182811194766
 21
-119.4529841118668
 31
0
 12
2253.305709840042
 22
-115.2911569470974
 32
0
 13
2253.305709840042
 23
-115.2911569470974
 33
0
  0
MTEXT
  5
107
100
AcDbEntity
  8
noname
  6
CONTINUOUS
 62
    0
370
   -2
100
AcDbMText
 10
2234.526942405361
 20
-1.816786552776013e-13
 30
0
 40
75
 41
150.0000000000047
 71
    8
 72
    1
  1
34%%D
  7
standard
210
0
220
0
230
1
 50
-89.99999999999997
 73
    2
 44
1
  0
ENDBLK
  5
90
330
8E
100
AcDbEntity
  8
0
100
AcDbBlockEnd
  0
ENDSEC
  0
SECTION
  2
ENTITIES
  0
LINE
  5
108
100
AcDbEntity
  8
0
  6
CONTINUOUS
 62
  256
370
   -1
100
AcDbLine
 10
1201.983742598606
 20
2044.695013957477
 11
1301.983742598606
 21
2044.695013957477
  0
LINE
  5
109
100
AcDbEntity
  8
0
  6
CONTINUOUS
 62
  256
370
   -1
100
AcDbLine
 10
1201.983742598606
 20
2044.695013957477
 11
1301.983742598606
 21
2044.695013957477
  0
LINE
  5
10A
100
AcDbEntity
  8
0
  6
CONTINUOUS
 62
  256
370
   -1
100
AcDbLine
 10
1201.983742598606
 20
2044.695013957477
 11
1301.983742598606
 21
2044.695013957477
  0
LINE
  5
10B
100
AcDbEntity
  8
noname
  6
ByLayer
 62
  256
370
   -1
100
AcDbLine
 10
7000
 20
0
 11
8500
 21
0
  0
LINE
  5
10C
100
AcDbEntity
  8
noname
  6
ByLayer
 62
  256
370
   -1
100
AcDbLine
 10
1909
 20
-1627.593962820334
 11
1909
 21
-2172.406037179666
  0
DIMENSION
  5
10D
100
AcDbEntity
  8
noname
  6
ByLayer
 62
  256
370
   -1
100
AcDbDimension
  2
*D1
 10
2800
 20
-2354.591979864289
 30
0
 11
2354.5
 21
-2334.591979864289
 31
0
 70
   32
 71
    5
 72
    0
  3
Standard
 53
0
210
0
220
0
230
1
100
AcDbAlignedDimension
 13
1909
 23
-2172.406037179666
 33
0
 14
2800
 24
-1900
 34
0
100
AcDbRotatedDimension
  0
MTEXT
  5
10E
100
AcDbEntity
  8
noname
  6
ByLayer
 62
  256
370
   -1
100
AcDbMText
 10
2814.443240343411
 20
-1879.237842006346
 30
0
 40
30
 41
103.3333333333371
 71
    7
 72
    1
  1
f=630
  7
standard
210
0
220
0
230
1
 50
0
 73
    2
 44
1
  0
LINE
  5
10F
100
AcDbEntity
  8
noname1
  6
ByLayer
 62
  256
370
   -1
100
AcDbLine
 10
2800
 20
-2700
 11
2800
 21
-900
  0
LINE
  5
110
100
AcDbEntity
  8
noname1
  6
ByLayer
 62
  256
370
   -1
100
AcDbLine
 10
1909
 20
-2700
 11
1909
 21
-900
  0
LINE
  5
111
100
AcDbEntity
  8
noname
  6
ByLayer
 62
  256
370
   -1
100
AcDbLine
 10
1909
 20
-1527.286626275093
 11
1909
 21
-2272.713373724907
  0
DIMENSION
  5
112
100
AcDbEntity
  8
noname
  6
ByLayer
 62
  256
370
   -1
100
AcDbDimension
  2
*D2
 10
2000
 20
-2272.713373724907
 30
0
 11
1980
 21
-1900
 31
0
 70
   32
 71
    5
 72
    0
  3
Standard
 53
0
210
0
220
0
230
1
100
AcDbAlignedDimension
 13
1909
 23
-1527.286626275093
 33
0
 14
1909
 24
-2272.713373724907
 34
0
 50
90
100
AcDbRotatedDimension
  0
DIMENSION
  5
113
100
AcDbEntity
  8
noname
  6
ByLayer
 62
  256
370
   -1
100
AcDbDimension
  2
*D3
 10
1618.509868420229
 20
-435.3309907897271
 30
0
 11
1159.375938759547
 21
52.08721011841703
 31
0
 70
   33
 71
    5
 72
    0
  3
Standard
 53
0
210
0
220
0
230
1
100
AcDbAlignedDimension
 13
778.7076773141926
 23
617.97107924189
 33
0
 14
1725.25980788302
 24
-328.5810513269359
 34
0
  0
LINE
  5
114
100
AcDbEntity
  8
noname
  6
ByLayer
 62
  256
370
   -1
100
AcDbLine
 10
1909
 20
272.4060371796659
 11
1909
 21
-272.4060371796661
  0
DIMENSION
  5
115
100
AcDbEntity
  8
noname
  6
ByLayer
 62
  256
370
   -1
100
AcDbDimension
  2
*D4
 10
2020.911394821171
 20
-272.4060371796661
 30
0
 11
2000.911394821171
 21
0
 31
0
 70
   32
 71
    5
 72
    0
  3
Standard
 53
0
210
0
220
0
230
1
100
AcDbAlignedDimension
 13
1909
 23
272.4060371796659
 33
0
 14
1909
 24
-272.4060371796661
 34
0
 50
90
100
AcDbRotatedDimension
  0
DIMENSION
  5
116
100
AcDbEntity
  8
noname
  6
ByLayer
 62
  256
370
   -1
100
AcDbDimension
  2
*D5
 10
1843.695244036965
 20
-292.3717047227369
 30
0
 11
2800
 21
0
 31
0
 70
   34
 71
    5
 72
    0
  3
Standard
 53
0
210
0
220
0
230
1
100
AcDb2LineAngularDimension
 13
2800
 23
0
 33
0
 14
1909
 24
272.4060371796659
 34
0
 15
2800
 25
0
 35
0
 16
2234.531927485885
 26
-42.13291520693406
 36
0
  0
DIMENSION
  5
117
100
AcDbEntity
  8
noname
  6
ByLayer
 62
  256
370
   -1
100
AcDbDimension
  2
*D6
 10
2800
 20
-454.591979864289
 30
0
 11
2354.5
 21
-434.591979864289
 31
0
 70
   32
 71
    5
 72
    0
  3
Standard
 53
0
210
0
220
0
230
1
100
AcDbAlignedDimension
 13
1909
 23
-272.4060371796661
 33
0
 14
2800
 24
0
 34
0
100
AcDbRotatedDimension
  0
MTEXT
  5
118
100
AcDbEntity
  8
noname
  6
ByLayer
 62
  256
370
   -1
100
AcDbMText
 10
2814.443240343411
 20
20.762157993654
 30
0
 40
30
 41
103.3333333333371
 71
    7
 72
    1
  1
f=630
  7
standard
210
0
220
0
230
1
 50
0
 73
    2
 44
1
  0
DIMENSION
  5
119
100
AcDbEntity
  8
noname
  6
ByLayer
 62
  256
370
   -1
100
AcDbDimension
  2
*D7
 10
1689.904468823692
 20
-293.225712267609
 30
0
 11
2800
 21
0
 31
0
 70
   34
 71
    5
 72
    0
  3
Standard
 53
0
210
0
220
0
230
1
100
AcDb2LineAngularDimension
 13
1909
 23
-325
 33
0
 14
1909
 24
325
 34
0
 15
1760.615146942347
 25
-363.9363903862629
 35
0
 16
1582.201306468041
 26
2.521322346857005
 36
0
  0
DIMENSION
  5
11A
100
AcDbEntity
  8
noname
  6
ByLayer
 62
  256
370
   -1
100
AcDbDimension
  2
*D8
 10
1909
 20
272.4060371796659
 30
0
 11
2800
 21
0
 31
0
 70
   34
 71
    5
 72
    0
  3
Standard
 53
0
210
0
220
0
230
1
100
AcDb2LineAngularDimension
 13
1636.593962820333
 23
-618.593962820333
 33
0
 14
1928.96566754307
 24
337.7107931427022
 34
0
 15
2800
 25
0
 35
0
 16
1746.08725901375
 26
388.2836414159869
 36
0
  0
LWPOLYLINE
  5
11B
100
AcDbEntity
  8
noname
  6
ByLayer
 62
  256
370
   -1
100
AcDbPolyline
 90
    4
 70
    1
 43
0
 10
500
 20
1000
 10
3200
 20
1000
 10
3200
 20
-800
 10
500
 20
-800
  0
LINE
  5
11C
100
AcDbEntity
  8
noname1
  6
ByLayer
 62
  256
370
   -1
100
AcDbLine
 10
500
 20
896.6787565560821
 11
2196.678756556084
 21
-800
  0
LINE
  5
11D
100
AcDbEntity
  8
noname1
  6
ByLayer
 62
  256
370
   -1
100
AcDbLine
 10
2800
 20
-800
 11
2800
 21
1000
  0
LINE
  5
11E
100
AcDbEntity
  8
noname1
  6
ByLayer
 62
  256
370
   -1
100
AcDbLine
 10
3200
 20
122.292272583464
 11
500
 21
-703.180567354919
  0
LINE
  5
11F
100
AcDbEntity
  8
noname1
  6
ByLayer
 62
  256
370
   -1
100
AcDbLine
 10
500
 20
703.1805673549179
 11
3200
 21
-122.292272583464
  0
LINE
  5
120
100
AcDbEntity
  8
noname1
  6
ByLayer
 62
  256
370
   -1
100
AcDbLine
 10
2131.447798078268
 20
1000
 11
1581.132571452678
 21
-800
  0
LINE
  5
121
100
AcDbEntity
  8
noname1
  6
ByLayer
 62
  256
370
   -1
100
AcDbLine
 10
1909
 20
-800
 11
1909
 21
1000
  0
LWPOLYLINE
  5
122
100
AcDbEntity
  8
noname
  6
ByLayer
 62
  256
370
   -1
100
AcDbPolyline
 90
    4
 70
    1
 43
0
 10
3200
 20
-900
 10
500
 20
-900
 10
500
 20
-2900
 10
3200
 20
-2900
  0
LINE
  5
123
100
AcDbEntity
  8
noname1
  6
ByLayer
 62
  256
370
   -1
100
AcDbLine
 10
778.7076773141921
 20
1000
 11
778.7076773141921
 21
-2900
  0
LINE
  5
124
100
AcDbEntity
  8
noname1
  6
ByLayer
 62
  256
370
   -1
100
AcDbLine
 10
1725.25980788302
 20
-2900
 11
1725.25980788302
 21
1000
  0
LINE
  5
125
100
AcDbEntity
  8
noname1
  6
ByLayer
 62
  256
370
   -1
100
AcDbLine
 10
3200
 20
-1732.676375432141
 11
500
 21
-2862.110841265192
  0
LINE
  5
126
100
AcDbEntity
  8
noname1
  6
ByLayer
 62
  256
370
   -1
100
AcDbLine
 10
500
 20
-937.8891587348086
 11
3200
 21
-2067.323624567859
  0
LINE
  5
127
100
AcDbEntity
  8
noname1
  6
ByLayer
 62
  256
370
   -1
100
AcDbLine
 10
2800
 20
-900
 11
2800
 21
-2900
  0
LINE
  5
128
100
AcDbEntity
  8
noname1
  6
ByLayer
 62
  256
370
   -1
100
AcDbLine
 10
1909
 20
-2900
 11
1909
 21
-900
  0
LINE
  5
129
100
AcDbEntity
  8
noname
  6
ByLayer
 62
  256
370
   -1
100
AcDbLine
 10
778.7076773141921
 20
-1054.475105642559
 11
778.7076773141921
 21
-2745.524894357442
  0
LINE
  5
12A
100
AcDbEntity
  8
noname
  6
ByLayer
 62
  256
370
   -1
100
AcDbLine
 10
778.7076773141921
 20
-2745.524894357442
 11
1725.25980788302
 21
-2349.573561034427
  0
LINE
  5
12B
100
AcDbEntity
  8
noname
  6
ByLayer
 62
  256
370
   -1
100
AcDbLine
 10
1725.25980788302
 20
-2349.573561034427
 11
1725.25980788302
 21
-1450.426438965573
  0
LINE
  5
12C
100
AcDbEntity
  8
noname
  6
ByLayer
 62
  256
370
   -1
100
AcDbLine
 10
1725.25980788302
 20
-1450.426438965573
 11
778.7076773141921
 21
-1054.475105642559
  0
DIMENSION
  5
12D
100
AcDbEntity
  8
noname
  6
ByLayer
 62
  256
370
   -1
100
AcDbDimension
  2
*D9
 10
651.5827898823381
 20
-2745.524894357442
 30
0
 11
631.5827898823381
 21
-1900
 31
0
 70
   32
 71
    5
 72
    0
  3
Standard
 53
0
210
0
220
0
230
1
100
AcDbAlignedDimension
 13
778.7076773141921
 23
-1054.475105642559
 33
0
 14
778.7076773141921
 24
-2745.524894357442
 34
0
 50
90
100
AcDbRotatedDimension
  0
LINE
  5
12E
100
AcDbEntity
  8
noname
  6
ByLayer
 62
  256
370
   -1
100
AcDbLine
 10
-891
 20
272.4060371796659
 11
-891
 21
-272.4060371796661
  0
DIMENSION
  5
12F
100
AcDbEntity
  8
noname
  6
ByLayer
 62
  256
370
   -1
100
AcDbDimension
  2
*D10
 10
-779.0886051788289
 20
-272.4060371796661
 30
0
 11
-799.0886051788289
 21
0
 31
0
 70
   32
 71
    5
 72
    0
  3
Standard
 53
0
210
0
220
0
230
1
100
AcDbAlignedDimension
 13
-891.0000000000005
 23
272.4060371796659
 33
0
 14
-891
 24
-272.4060371796661
 34
0
 50
90
100
AcDbRotatedDimension
  0
DIMENSION
  5
130
100
AcDbEntity
  8
noname
  6
ByLayer
 62
  256
370
   -1
100
AcDbDimension
  2
*D11
 10
-956.3047559630354
 20
-292.3717047227369
 30
0
 11
0
 21
0
 31
0
 70
   34
 71
    5
 72
    0
  3
Standard
 53
0
210
0
220
0
230
1
100
AcDb2LineAngularDimension
 13
0
 23
0
 33
0
 14
-891.0000000000005
 24
272.4060371796659
 34
0
 15
0
 25
0
 35
0
 16
-565.4680725141152
 26
-42.13291520693406
 36
0
  0
DIMENSION
  5
131
100
AcDbEntity
  8
noname
  6
ByLayer
 62
  256
370
   -1
100
AcDbDimension
  2
*D12
 10
0
 20
-454.591979864289
 30
0
 11
-445.5
 21
-434.591979864289
 31
0
 70
   32
 71
    5
 72
    0
  3
Standard
 53
0
210
0
220
0
230
1
100
AcDbAlignedDimension
 13
-891
 23
-272.4060371796661
 33
0
 14
0
 24
0
 34
0
100
AcDbRotatedDimension
  0
MTEXT
  5
132
100
AcDbEntity
  8
noname
  6
ByLayer
 62
  256
370
   -1
100
AcDbMText
 10
14.44324034341116
 20
20.762157993654
 30
0
 40
30
 41
103.3333333333371
 71
    7
 72
    1
  1
f=630
  7
standard
210
0
220
0
230
1
 50
0
 73
    2
 44
1
  0
LWPOLYLINE
  5
133
100
AcDbEntity
  8
noname
  6
ByLayer
 62
  256
370
   -1
100
AcDbPolyline
 90
    4
 70
    1
 43
0
 10
-2300
 20
1000
 10
400
 20
1000
 10
400
 20
-800
 10
-2300
 20
-800
  0
LINE
  5
134
100
AcDbEntity
  8
noname1
  6
ByLayer
 62
  256
370
   -1
100
AcDbLine
 10
0
 20
-800
 11
0
 21
1000
  0
LINE
  5
135
100
AcDbEntity
  8
noname1
  6
ByLayer
 62
  256
370
   -1
100
AcDbLine
 10
400
 20
122.292272583464
 11
-2300
 21
-703.180567354919
  0
LINE
  5
136
100
AcDbEntity
  8
noname1
  6
ByLayer
 62
  256
370
   -1
100
AcDbLine
 10
-2300
 20
703.1805673549179
 11
400
 21
-122.292272583464
  0
LINE
  5
137
100
AcDbEntity
  8
noname1
  6
ByLayer
 62
  256
370
   -1
100
AcDbLine
 10
-891
 20
-800
 11
-891
 21
1000
  0
DIMENSION
  5
138
100
AcDbEntity
  8
noname
  6
ByLayer
 62
  256
370
   -1
100
AcDbDimension
  2
*D13
 10
-1785.399138888372
 20
-557.7488145478519
 30
0
 11
-2009.902531428169
 21
36.51283911554606
 31
0
 70
   33
 71
    5
 72
    0
  3
Standard
 53
0
210
0
220
0
230
1
100
AcDbAlignedDimension
 13
-2161.689247003629
 23
660.8947265882762
 33
0
 14
-1675.727280623583
 24
-512.321243443916
 34
0
  0
LINE
  5
139
100
AcDbEntity
  8
noname1
  6
ByLayer
 62
  256
370
   -1
100
AcDbLine
 10
-1963.406037179668
 20
-800
 11
-163.406037179665
 21
1000
  0
LINE
  5
13A
100
AcDbEntity
  8
noname1
  6
ByLayer
 62
  256
370
   -1
100
AcDbLine
 10
-887.9376879499011
 20
1000
 11
-2300
 21
-412.062312050095
  0
LINE
  5
13B
100
AcDbEntity
  8
noname1
  6
ByLayer
 62
  256
370
   -1
100
AcDbLine
 10
-2300
 20
522.5839735919049
 11
-1822.583973591905
 21
1000
  0
LINE
  5
13C
100
AcDbEntity
  8
noname1
  6
ByLayer
 62
  256
370
   -1
100
AcDbLine
 10
-2302.151250323003
 20
1000
 11
-1556.566838051424
 21
-800
  0
DIMENSION
  5
13D
100
AcDbEntity
  8
noname
  6
ByLayer
 62
  256
370
   -1
100
AcDbDimension
  2
*D14
 10
-2300
 20
-412.062312050095
 30
0
 11
-2700
 21
0
 31
0
 70
   34
 71
    5
 72
    0
  3
Standard
 53
0
210
0
220
0
230
1
100
AcDb2LineAngularDimension
 13
400
 23
1000
 33
0
 14
-2300
 24
1000
 34
0
 15
-887.9376879499011
 25
1000
 35
0
 16
-1176.818736043473
 26
811.622133349098
 36
0
  0
LINE
  5
13E
100
AcDbEntity
  8
noname1
  6
ByLayer
 62
  256
370
   -1
100
AcDbLine
 10
-2300
 20
0
 11
400
 21
0
  0
DIMENSION
  5
13F
100
AcDbEntity
  8
noname
  6
ByLayer
 62
  256
370
   -1
100
AcDbDimension
  2
*D15
 10
-2161.689247003628
 20
660.8947265882771
 30
0
 11
-2700
 21
0
 31
0
 70
   34
  1
a
 71
    5
 72
    0
  3
Standard
 53
0
210
0
220
0
230
1
100
AcDb2LineAngularDimension
 13
-2300
 23
-412.062312050095
 33
0
 14
-887.9376879499011
 24
1000
 34
0
 15
-1675.727280623583
 25
-512.321243443916
 35
0
 16
-1800
 26
200
 36
0
  0
DIMENSION
  5
140
100
AcDbEntity
  8
noname
  6
ByLayer
 62
  256
370
   -1
100
AcDbDimension
  2
*D16
 10
400
 20
0
 30
0
 11
-2700
 21
0
 31
0
 70
   34
  1
a
 71
    5
 72
    0
  3
Standard
 53
0
210
0
220
0
230
1
100
AcDb2LineAngularDimension
 13
-2302.151250323003
 23
1000
 33
0
 14
-1556.566838051424
 24
-800
 34
0
 15
-2300
 25
0
 35
0
 16
-1753.118168770477
 26
-168.5316608277369
 36
0
  0
LINE
  5
141
100
AcDbEntity
  8
noname
  6
ByLayer
 62
  256
370
   -1
100
AcDbLine
 10
-891
 20
-1627.593962820334
 11
-891
 21
-2172.406037179666
  0
DIMENSION
  5
142
100
AcDbEntity
  8
noname
  6
ByLayer
 62
  256
370
   -1
100
AcDbDimension
  2
*D17
 10
0
 20
-2354.591979864289
 30
0
 11
-445.5
 21
-2334.591979864289
 31
0
 70
   32
 71
    5
 72
    0
  3
Standard
 53
0
210
0
220
0
230
1
100
AcDbAlignedDimension
 13
-891
 23
-2172.406037179666
 33
0
 14
0
 24
-1900
 34
0
100
AcDbRotatedDimension
  0
MTEXT
  5
143
100
AcDbEntity
  8
noname
  6
ByLayer
 62
  256
370
   -1
100
AcDbMText
 10
14.44324034341116
 20
-1879.237842006346
 30
0
 40
30
 41
103.3333333333371
 71
    7
 72
    1
  1
f=630
  7
standard
210
0
220
0
230
1
 50
0
 73
    2
 44
1
  0
LINE
  5
144
100
AcDbEntity
  8
noname1
  6
ByLayer
 62
  256
370
   -1
100
AcDbLine
 10
0
 20
-2700
 11
0
 21
-900
  0
LINE
  5
145
100
AcDbEntity
  8
noname1
  6
ByLayer
 62
  256
370
   -1
100
AcDbLine
 10
-891
 20
-2700
 11
-891
 21
-900
  0
LINE
  5
146
100
AcDbEntity
  8
noname
  6
ByLayer
 62
  256
370
   -1
100
AcDbLine
 10
-891
 20
-1527.286626275093
 11
-891
 21
-2272.713373724907
  0
DIMENSION
  5
147
100
AcDbEntity
  8
noname
  6
ByLayer
 62
  256
370
   -1
100
AcDbDimension
  2
*D18
 10
-800
 20
-2272.713373724907
 30
0
 11
-820
 21
-1900
 31
0
 70
   32
 71
    5
 72
    0
  3
Standard
 53
0
210
0
220
0
230
1
100
AcDbAlignedDimension
 13
-890.9999999999998
 23
-1527.286626275093
 33
0
 14
-891
 24
-2272.713373724907
 34
0
 50
90
100
AcDbRotatedDimension
  0
LWPOLYLINE
  5
148
100
AcDbEntity
  8
noname
  6
ByLayer
 62
  256
370
   -1
100
AcDbPolyline
 90
    4
 70
    1
 43
0
 10
400
 20
-900
 10
-2300
 20
-900
 10
-2300
 20
-2900
 10
400
 20
-2900
  0
LINE
  5
149
100
AcDbEntity
  8
noname1
  6
ByLayer
 62
  256
370
   -1
100
AcDbLine
 10
400
 20
-1732.676375432141
 11
-2300
 21
-2862.110841265192
  0
LINE
  5
14A
100
AcDbEntity
  8
noname1
  6
ByLayer
 62
  256
370
   -1
100
AcDbLine
 10
-2300
 20
-937.8891587348086
 11
400
 21
-2067.323624567859
  0
LINE
  5
14B
100
AcDbEntity
  8
noname1
  6
ByLayer
 62
  256
370
   -1
100
AcDbLine
 10
0
 20
-900
 11
0
 21
-2900
  0
LINE
  5
14C
100
AcDbEntity
  8
noname1
  6
ByLayer
 62
  256
370
   -1
100
AcDbLine
 10
-891
 20
-2900
 11
-891
 21
-900
  0
LINE
  5
14D
100
AcDbEntity
  8
noname
  6
ByLayer
 62
  256
370
   -1
100
AcDbLine
 10
-2161.689247003629
 20
-995.7458000049653
 11
-2161.689247003629
 21
-2804.254199995034
  0
LINE
  5
14E
100
AcDbEntity
  8
noname
  6
ByLayer
 62
  256
370
   -1
100
AcDbLine
 10
-2161.689247003629
 20
-2804.254199995034
 11
-1675.727280623583
 21
-2600.971905952951
  0
LINE
  5
14F
100
AcDbEntity
  8
noname
  6
ByLayer
 62
  256
370
   -1
100
AcDbLine
 10
-1675.727280623583
 20
-2600.971905952951
 11
-1675.727280623583
 21
-1199.028094047049
  0
LINE
  5
150
100
AcDbEntity
  8
noname
  6
ByLayer
 62
  256
370
   -1
100
AcDbLine
 10
-1675.727280623583
 20
-1199.028094047049
 11
-2161.689247003629
 21
-995.7458000049652
  0
DIMENSION
  5
151
100
AcDbEntity
  8
noname
  6
ByLayer
 62
  256
370
   -1
100
AcDbDimension
  2
*D19
 10
-2000
 20
-2804.254199995035
 30
0
 11
-2020
 21
-1900
 31
0
 70
   32
 71
    5
 72
    0
  3
Standard
 53
0
210
0
220
0
230
1
100
AcDbAlignedDimension
 13
-2161.689247003629
 23
-995.7458000049652
 33
0
 14
-2161.689247003629
 24
-2804.254199995035
 34
0
 50
90
100
AcDbRotatedDimension
  0
DIMENSION
  5
152
100
AcDbEntity
  8
noname
  6
ByLayer
 62
  256
370
   -1
100
AcDbDimension
  2
*D20
 10
-1500
 20
-2600.971905952951
 30
0
 11
-1520
 21
-1900
 31
0
 70
   32
 71
    5
 72
    0
  3
Standard
 53
0
210
0
220
0
230
1
100
AcDbAlignedDimension
 13
-1675.727280623583
 23
-1199.028094047049
 33
0
 14
-1675.727280623583
 24
-2600.971905952951
 34
0
 50
90
100
AcDbRotatedDimension
  0
LINE
  5
153
100
AcDbEntity
  8
noname1
  6
ByLayer
 62
  256
370
   -1
100
AcDbLine
 10
-2161.689247003629
 20
-2900
 11
-2161.689247003629
 21
1000
  0
LINE
  5
154
100
AcDbEntity
  8
noname1
  6
ByLayer
 62
  256
370
   -1
100
AcDbLine
 10
-1675.727280623583
 20
1000
 11
-1675.727280623583
 21
-2900
  0
DIMENSION
  5
155
100
AcDbEntity
  8
noname
  6
CONTINUOUS
 62
  256
370
   -1
100
AcDbDimension
  2
*D21
 10
-2161.689247003628
 20
660.8947265882771
 30
0
 11
0
 21
-1900
 31
0
 70
   34
 71
    5
 72
    0
  3
Standard
 53
0
210
0
220
0
230
1
100
AcDb2LineAngularDimension
 13
-891
 23
-800
 33
0
 14
-891
 24
1000
 34
0
 15
-1675.727280623583
 25
-512.321243443916
 35
0
 16
-1100
 26
600
 36
0
  0
MTEXT
  5
156
100
AcDbEntity
  8
noname
  6
CONTINUOUS
 62
  256
370
   -1
100
AcDbMText
 10
-2500
 20
-1900
 30
0
 40
100
 41
1083.333269732701
 71
    8
 72
    1
  1
VUE DU DESSUS
  7
standard
210
0
220
0
230
1
 50
90
 73
    2
 44
1
  0
MTEXT
  5
157
100
AcDbEntity
  8
noname
  6
CONTINUOUS
 62
  256
370
   -1
100
AcDbMText
 10
-2500
 20
100
 30
0
 40
100
 41
894.4444444444507
 71
    8
 72
    1
  1
VUE DU CT
  7
standard
210
0
220
0
230
1
 50
90
 73
    2
 44
1
  0
MTEXT
  5
158
100
AcDbEntity
  8
noname
  6
CONTINUOUS
 62
  256
370
   -1
100
AcDbMText
 10
1900
 20
1200
 30
0
 40
100
 41
1097.222189910897
 71
    8
 72
    1
  1
MIROIR (NUAGES)
  7
standard
210
0
220
0
230
1
 50
0
 73
    2
 44
1
  0
MTEXT
  5
159
100
AcDbEntity
  8
noname
  6
CONTINUOUS
 62
  256
370
   -1
100
AcDbMText
 10
-900
 20
1200
 30
0
 40
100
 41
2088.88885657757
 71
    8
 72
    1
  1
ECRAN BLANC (SOLOEIL  45%%D)
  7
standard
210
0
220
0
230
1
 50
0
 73
    2
 44
1
  0
LINE
  5
15A
100
AcDbEntity
  8
noname
  6
CONTINUOUS
 62
  256
370
   -1
100
AcDbLine
 10
2750
 20
0
 11
2850
 21
0
  0
LINE
  5
15B
100
AcDbEntity
  8
noname
  6
ByLayer
 62
  256
370
   -1
100
AcDbLine
 10
-2161.689247003628
 20
660.8947265882766
 11
-1675.727280623583
 21
-512.3212434439158
  0
DIMENSION
  5
15C
100
AcDbEntity
  8
noname
  6
ByLayer
 62
  256
370
   -1
100
AcDbDimension
  2
*D22
 10
1614.583824929029
 20
-2302.448193750856
 30
0
 11
1575.521324929029
 21
-1900
 31
0
 70
   32
 71
    5
 72
    0
  3
Standard
 53
0
210
0
220
0
230
1
100
AcDbAlignedDimension
 13
1725.25980788302
 23
-1450.426438965573
 33
0
 14
1725.25980788302
 24
-2349.573561034426
 34
0
 50
90
100
AcDbRotatedDimension
  0
LINE
  5
15D
100
AcDbEntity
  8
0
  6
ByLayer
 62
  256
370
   -1
100
AcDbLine
 10
4000
 20
0
 11
6180
 21
0
  0
LINE
  5
15E
100
AcDbEntity
  8
noname
  6
ByLayer
 62
  256
370
   -1
100
AcDbLine
 10
778.7076773141921
 20
617.9710792418897
 11
1725.259807883019
 21
-328.5810513269363
  0
LINE
  5
15F
100
AcDbEntity
  8
0
  6
ByLayer
 62
  256
370
   -1
100
AcDbLine
 10
778.7076773141921
 20
617.9710792418903
 11
2958.707677314192
 21
617.9710792418903
  0
LINE
  5
160
100
AcDbEntity
  8
0
  6
ByLayer
 62
  256
370
   -1
100
AcDbLine
 10
6000
 20
-2180
 11
8180
 21
-2180
  0
LINE
  5
161
100
AcDbEntity
  8
0
  6
ByLayer
 62
  256
370
   -1
100
AcDbLine
 10
7750
 20
2325
 11
7750
 21
4505
  0
LINE
  5
162
100
AcDbEntity
  8
noname
  6
ByLayer
 62
  256
370
   -1
100
AcDbLine
 10
6000
 20
145
 11
6750
 21
-2180
  0
LINE
  5
163
100
AcDbEntity
  8
noname
  6
ByLayer
 62
  256
370
   -1
100
AcDbLine
 10
6750
 20
-2180
 11
6000
 21
145
  0
LINE
  5
164
100
AcDbEntity
  8
noname
  6
ByLayer
 62
  256
370
   -1
100
AcDbLine
 10
6000
 20
145
 11
5250
 21
-2180
  0
LINE
  5
165
100
AcDbEntity
  8
noname
  6
ByLayer
 62
  256
370
   -1
100
AcDbLine
 10
5469.669914110089
 20
675.3300858899106
 11
6530.330085889911
 21
-385.3300858899106
  0
LINE
  5
166
100
AcDbEntity
  8
0
  6
ByLayer
 62
  256
370
   -1
100
AcDbLine
 10
1725.25980788302
 20
-328.5810513269364
 11
3905.25980788302
 21
-328.5810513269364
  0
LINE
  5
167
100
AcDbEntity
  8
0
  6
ByLayer
 62
  256
370
   -1
100
AcDbLine
 10
6000
 20
145
 11
8180
 21
145
  0
LINE
  5
168
100
AcDbEntity
  8
noname
  6
ByLayer
 62
  256
370
   -1
100
AcDbLine
 10
5000
 20
-2180
 11
7000
 21
-2180
  0
ENDSEC
  0
SECTION
  2
OBJECTS
  0
DICTIONARY
  5
C
330
0
100
AcDbDictionary
281
    1
  3
ACAD_GROUP
350
D
  0
DICTIONARY
  5
D
330
C
100
AcDbDictionary
281
    1
  0
PLOTSETTINGS
  5
169
100
AcDbPlotSettings
  6
1x1
 40
0
 41
0
 42
0
 43
0
  0
ENDSEC
  0
EOF
