<?xml version="1.0" encoding="UTF-8" standalone="no"?>
<svg
   width="512.58594mm"
   height="3361.4153mm"
   viewBox="0 0 512.58594 3361.4153"
   version="1.1"
   id="svg2172"
   sodipodi:docname="remorque-aspect-rouleau-5.svg"
   inkscape:version="1.2.2 (b0a8486541, 2022-12-01)"
   inkscape:export-filename="remorque-aspect.png"
   inkscape:export-xdpi="10"
   inkscape:export-ydpi="10"
   xml:space="preserve"
   xmlns:inkscape="http://www.inkscape.org/namespaces/inkscape"
   xmlns:sodipodi="http://sodipodi.sourceforge.net/DTD/sodipodi-0.dtd"
   xmlns="http://www.w3.org/2000/svg"
   xmlns:svg="http://www.w3.org/2000/svg"><defs
     id="defs2176" /><sodipodi:namedview
     id="namedview2174"
     pagecolor="#ffffff"
     bordercolor="#eeeeee"
     borderopacity="1"
     inkscape:showpageshadow="0"
     inkscape:pageopacity="0"
     inkscape:pagecheckerboard="0"
     inkscape:deskcolor="#a7a7a7"
     inkscape:document-units="mm"
     showgrid="false"
     inkscape:zoom="0.028284271"
     inkscape:cx="-80062.166"
     inkscape:cy="69844.473"
     inkscape:window-width="1920"
     inkscape:window-height="1011"
     inkscape:window-x="1920"
     inkscape:window-y="32"
     inkscape:window-maximized="1"
     inkscape:current-layer="layer2"
     showguides="false" /><g
     inkscape:groupmode="layer"
     id="layer2"
     inkscape:label="decoupage"
     transform="translate(17960.228,-15602.837)"><path
       id="rect22783-5-3"
       style="display:inline;fill:none;fill-rule:evenodd;stroke:#000000;stroke-width:2;stop-color:#000000"
       d="m -17698.643,16940.316 h 250 v 845.891 h -250 z" /><path
       style="color:#000000;display:inline;fill:none;stroke:#000000;stroke-width:2;stroke-linecap:square;stroke-linejoin:round;stroke-dasharray:none;paint-order:markers fill stroke"
       d="m -17527.386,16940.328 c 3.529,23.601 14.873,44.532 20.066,63.755 0.182,0.674 0.434,1.328 0.752,1.949 10.289,20.1 21.143,41.72 25.25,61.43 -24.139,11.067 -37.731,36.548 -49.744,52.742 -30.706,37.271 -52.767,79.958 -70.467,123.9 -24.41,45.516 -36.622,95.413 -46.802,144.285 -0.07,0.323 -0.118,0.649 -0.153,0.977 -1.885,17.639 -9.1,51.433 -11.334,77.248 0,0.07 -0.01,0.141 -0.02,0.211 -2.775,42.483 -10.538,85.068 -13.399,129.129 -8.43,61.457 -8.19,123.409 -16.361,182.681 -0.349,1.15 -1.143,3.462 -1.727,5.633 -0.1,0.368 -0.198,1.311 -0.309,1.951 h 21.849 l 3.316,-7.043 -2.881,-1.357 c 7.959,-60.098 7.908,-120.892 15.957,-179.398 0.03,-0.24 0.06,-0.481 0.07,-0.723 2.735,-42.647 10.54,-85.339 13.43,-129.472 2.026,-23.273 8.948,-55.827 11.178,-75.981 10.116,-48.536 22.089,-96.615 45.089,-139.272 0.177,-0.328 0.336,-0.667 0.475,-1.013 17.314,-43.056 38.643,-84.127 67.816,-119.428 0.111,-0.135 0.219,-0.272 0.323,-0.412 14.684,-19.795 29.033,-43.352 47.609,-48.606 4.722,-1.335 7.778,-5.9 7.213,-10.775 -3.107,-26.787 -16.666,-52.541 -28.18,-75.014 -5.738,-20.678 -14.815,-39.512 -18.474,-57.397 z"
       id="path6707-2-4-21" /><path
       id="rect22783-5-3-0"
       style="display:inline;fill:none;fill-rule:evenodd;stroke:#000000;stroke-width:2;stop-color:#000000"
       d="m -17698.643,15603.838 h 250 v 983.174 h -250 z" /><path
       style="color:#000000;display:inline;fill:none;stroke:#000000;stroke-width:2;stroke-linecap:square;stroke-linejoin:round;stroke-dasharray:none;paint-order:markers fill stroke"
       d="m -17486.844,15609.893 -4.932,8.699 c -19.194,33.869 -35.614,65.27 -47.953,100.221 -22.043,36.579 -27.926,77.131 -42.66,111.904 -0.182,0.429 -0.333,0.871 -0.453,1.322 -1.264,4.732 -2.604,9.446 -3.978,14.15 -21.689,-4.037 -43.826,-9.172 -64.535,-16.535 -15.507,-5.955 -31.317,-10.451 -47.288,-13.881 v 20.518 c 13.698,3.127 27.196,7.038 40.365,12.109 0.08,0.03 0.161,0.06 0.242,0.09 21.406,7.609 43.707,12.835 65.331,16.927 -7.127,22.109 -15.273,43.985 -23.789,65.826 -21.803,-3.203 -36.505,-5.29 -59.763,-8.496 -0.478,-0.07 -1.442,-0.275 -2.715,-0.516 -1.112,-0.278 -2.834,-0.865 -5.478,-1.257 -5.641,-0.837 -10.812,-0.51 -13.883,-0.717 -0.09,0 -0.216,-0.03 -0.31,-0.03 v 20.036 c 4.519,0.236 8.94,0.155 11.253,0.498 0.558,0.08 1.905,0.485 4.082,0.999 0.155,0.04 0.312,0.07 0.469,0.1 0.818,0.152 2.089,0.462 3.85,0.705 21.433,2.954 35.931,5.015 54.975,7.801 -8.263,20.755 -16.712,41.527 -24.85,62.486 -0.02,0.06 -0.05,0.124 -0.07,0.186 -5.109,13.973 -15.096,28.336 -23.39,44.364 -8.235,15.915 -14.73,34.374 -10.242,55.247 1.377,8.588 5.739,15.799 11.474,20.451 5.781,4.69 12.447,7.046 18.94,8.602 12.985,3.11 26.383,3.515 33.546,5.785 0.647,0.205 1.314,0.344 1.989,0.414 23.19,2.41 47.621,2.371 68.099,5.281 -2.274,48.921 -11.085,99.947 -11.386,151.425 0,0.349 0.01,0.698 0.05,1.045 1.719,17.334 10.026,33.333 22.272,44.94 -9.214,5.574 -16.599,15.638 -16.953,28.566 -3.45,10.898 -2.956,21.648 0.207,30.969 3.013,8.879 8.094,16.526 13.703,23.406 2.979,16.121 -1.537,31.398 -7.656,48.434 -6.311,17.568 -14.3,36.685 -13.129,58.746 -1.598,16.212 0.563,31.59 4.329,46.326 h 20.801 c -4.315,-15.078 -6.845,-30.056 -5.218,-45.16 0.06,-0.561 0.08,-1.126 0.04,-1.689 -1.032,-16.658 5.414,-33.169 11.98,-51.45 6.566,-18.28 13.155,-38.68 8.014,-61.611 -0.356,-1.585 -1.092,-3.06 -2.145,-4.297 -5.402,-6.343 -9.662,-12.826 -11.799,-19.121 -2.136,-6.295 -2.472,-12.274 0.159,-19.613 0.416,-1.161 0.614,-2.39 0.583,-3.623 -0.21,-8.502 2.828,-11.081 9.53,-13.871 2.549,-1.062 5.696,-1.715 8.976,-2.17 9.43,3.766 19.819,5.336 30.651,4 7.881,0.441 12.149,0.674 15.14,0.535 0.391,-0.02 0.783,-0.04 1.364,-0.117 0.581,-0.08 1.078,0.128 3.379,-1.008 1.15,-0.568 3.586,-1.599 5.031,-5.629 1.445,-4.03 -0.662,-8.653 -2.051,-10.17 -2.777,-3.035 -3.483,-2.503 -4.123,-2.738 -2.56,-0.94 -2.971,-0.784 -4.473,-1.037 -6.005,-1.015 -17.597,-2.455 -25.851,-3.727 -0.04,0 -0.09,-0.01 -0.133,-0.02 -4.747,-0.667 -9.915,-0.888 -15.174,-0.641 -14.668,-7.558 -25.688,-22.831 -27.502,-39.858 0.391,-51.969 10.225,-105.66 11.781,-159.14 0.142,-4.867 -3.243,-9.129 -8.015,-10.094 -25.19,-5.088 -53.653,-4.251 -78.006,-6.74 -11.557,-3.337 -23.993,-3.542 -33.367,-5.787 -4.897,-1.173 -8.677,-2.802 -10.998,-4.686 -2.322,-1.883 -3.68,-3.763 -4.36,-8.168 -0.03,-0.216 -0.07,-0.431 -0.121,-0.644 -3.311,-14.9 0.984,-27.809 8.41,-42.16 7.427,-14.352 18.03,-29.236 24.411,-46.688 l -0.07,0.186 c 19.931,-51.328 42.247,-102.449 58.888,-155.954 1.719,-2.071 2.422,-4.674 2.195,-7.21 1.902,-6.34 3.742,-12.707 5.462,-19.121 15.996,-38.064 21.922,-77.438 41.584,-109.569 0.37,-0.604 0.674,-1.246 0.908,-1.914 11.765,-33.581 27.666,-64.061 46.828,-97.875 l 4.932,-8.701 z"
       id="path6707-2-4-74" /><path
       id="rect22783-5-3-3"
       style="display:inline;fill:none;fill-rule:evenodd;stroke:#000000;stroke-width:2;stop-color:#000000"
       d="m -17698.643,16597.594 h 250 v 332.139 h -250 z" /><path
       style="color:#000000;display:inline;fill:none;stroke:#000000;stroke-width:2;stroke-linecap:square;stroke-linejoin:round;stroke-dasharray:none;paint-order:markers fill stroke"
       d="m -17448.644,16603.378 c -6.455,8.557 -12.356,17.757 -16.989,28.099 -10.703,18.55 -25.132,36.025 -36.47,57.057 -12.57,21.19 -35.193,36.83 -53.659,59.453 -17.961,17.62 -35.26,36.163 -50.615,56.614 -22.304,24.387 -45.772,47.485 -71.48,67.605 -0.276,0.216 -0.54,0.446 -0.792,0.689 -4.768,4.615 -9.443,9.319 -14.038,14.093 -1.873,-2.621 -3.968,-4.963 -5.957,-7.443 v 43.814 c 10.849,-12.382 21.95,-24.508 33.694,-35.886 26.735,-20.997 50.851,-44.783 73.506,-69.569 0.222,-0.242 0.432,-0.495 0.629,-0.757 14.686,-19.641 31.537,-37.724 49.354,-55.184 0.274,-0.269 0.532,-0.555 0.773,-0.854 16.048,-19.834 40.196,-36.04 55.826,-62.447 0.07,-0.12 0.139,-0.242 0.205,-0.365 10.037,-18.697 24.21,-35.969 36.013,-56.295 z"
       id="path6707-2-4-11" /><path
       id="rect22783-5-3-3-9-2-0-7"
       style="display:inline;fill:none;fill-rule:evenodd;stroke:#000000;stroke-width:2;stop-color:#000000"
       d="m -17959.225,16748.789 h 250 v 697.928 h -250 z" /><path
       style="color:#000000;display:inline;fill:none;stroke:#000000;stroke-width:2;stroke-linecap:square;stroke-linejoin:round;stroke-dasharray:none;paint-order:markers fill stroke"
       d="m -17886.411,17200.347 v 0 c 0.05,0.05 0.07,0.144 0.04,0.172 -0.01,0.02 -0.493,0.495 -0.521,0.525 0.06,-0.09 0.169,-0.581 0.215,-0.63 0.123,-0.133 0.211,-0.12 0.262,-0.07 z"
       id="path79351" /><path
       style="color:#000000;display:inline;fill:none;stroke:#000000;stroke-width:2;stroke-linecap:square;stroke-linejoin:round;stroke-dasharray:none;paint-order:markers fill stroke"
       d="m -17789.126,17185.721 v 0 c 0.589,1.679 0.479,2.526 0.03,0.211 -0.02,-0.103 -0.01,-0.121 -0.03,-0.211 z"
       id="path79349" /><path
       style="color:#000000;display:inline;fill:none;stroke:#000000;stroke-width:2;stroke-linecap:square;stroke-linejoin:round;stroke-dasharray:none;paint-order:markers fill stroke"
       d="m -17789.217,17183.446 -0.03,0.05 v 0.531 c 0,-0.231 0.02,-0.381 0.03,-0.581 z"
       id="path79347" /><path
       style="color:#000000;display:inline;fill:none;stroke:#000000;stroke-width:2;stroke-linecap:square;stroke-linejoin:round;stroke-dasharray:none;paint-order:markers fill stroke"
       d="m -17709.228,16984.103 c -4.591,5.768 -9.319,11.715 -13.82,18.282 -0.02,0.02 -0.03,0.05 -0.05,0.07 -2.117,3.148 -4.449,6.629 -6.484,10.703 0,0.01 -0.01,0.03 -0.02,0.04 -13.629,27.589 -23.625,56.399 -32.949,84.94 -0.06,0.178 -0.11,0.358 -0.158,0.539 -1.893,7.126 -5.483,14.67 -8.644,23.404 -0.115,0.317 -0.214,0.64 -0.297,0.967 -3.739,14.882 -8.2,29.784 -12.473,44.945 -0.06,0.196 -0.103,0.395 -0.146,0.594 0.05,-0.233 -0.771,1.265 -1.463,4.787 l 0.07,-0.32 c -0.559,2.417 -0.932,3.762 -1.07,4.424 -0.228,0.236 -0.417,0.394 -0.526,0.539 -1.462,1.94 -1.394,2.49 -1.582,3.103 -0.227,0.741 -0.343,1.433 -0.372,2.325 l 0.253,-0.419 c -0.03,0.108 -0.05,0.21 -0.09,0.317 h -0.09 v 0.01 0.07 c 0.01,0.03 0.03,0.06 0.04,0.09 -0.06,0.185 -0.09,0.361 -0.15,0.545 0,0.252 0,0.462 0.03,0.787 0,-0.06 -0.03,-0.196 -0.03,-0.253 -0.02,-0.295 0,-0.364 0,-0.534 -1.982,6.6 -3.215,12.989 -4.432,18.739 -3.978,16.849 -6.108,33.745 -8.003,50.306 0,0.08 -0.01,0.16 -0.02,0.24 -1.28,14.226 -5.204,29.194 -6.719,45.616 -0.01,0.124 -0.02,0.248 -0.03,0.373 -1.3,23.818 -2.22,47.745 -2.192,71.76 -0.272,21.424 0.326,42.935 2.079,64.421 -0.06,0.123 -0.12,0.247 -0.176,0.373 -0.285,3.73 -0.261,7.34 -0.09,10.837 h 20.112 c -0.04,-0.673 -0.126,-1.404 -0.152,-2.067 0.425,-0.9 0.712,-1.859 0.854,-2.844 -2.254,-23.361 -2.952,-46.935 -2.648,-70.561 v -0.14 c -0.03,-23.422 0.869,-46.914 2.151,-70.453 1.324,-14.199 5.232,-29.138 6.707,-45.532 l -0.02,0.241 c 1.885,-16.477 3.957,-32.659 7.643,-48.203 0.02,-0.08 0.03,-0.158 0.05,-0.237 1.446,-6.834 2.603,-13.09 4.388,-18.574 3.047,-4.821 3.185,-9.249 3.547,-10.818 0.02,-0.107 0.05,-0.215 0.07,-0.323 -0.07,0.35 0.65,-1.023 1.384,-4.41 l -0.146,0.594 c 4.15,-14.728 8.588,-29.591 12.434,-44.813 2.694,-7.378 6.548,-15.352 9.056,-24.796 l -0.158,0.539 c 9.241,-28.288 18.966,-56.163 31.855,-82.262 0.627,-1.254 1.646,-2.704 2.474,-4.043 z"
       id="path79345" /><path
       style="color:#000000;display:inline;fill:none;stroke:#000000;stroke-width:2;stroke-linecap:square;stroke-linejoin:round;stroke-dasharray:none;paint-order:markers fill stroke"
       d="m -17709.228,16774.449 c -6.029,0.549 -12.038,1.32 -17.984,2.435 -30.407,5.7 -59.458,20.044 -79.135,49.084 -16.739,15.643 -20.467,37.874 -18.334,55.564 1.084,8.99 3.545,16.968 7.367,23.383 -12.596,7.082 -28.334,16.834 -40.904,28.347 -8.884,8.138 -16.539,17.068 -19.279,28.264 -2.47,10.09 1.16,21.659 10.156,30.211 -5.744,3.43 -11.835,7.318 -17.18,12.393 -3.497,3.32 -6.7,7.107 -8.81,11.912 -1.381,3.143 -2.069,6.857 -1.926,10.638 -11.226,14.874 -10.81,34.11 -2.354,47.858 3.812,6.196 9.606,11.203 16.44,14.412 -13.542,12.869 -25.648,29.424 -34.539,47.103 -14.02,27.878 -20.558,59.898 -4.096,83.733 1.418,2.052 3.553,3.501 5.984,4.06 0.682,0.158 1.337,0.176 2.012,0.291 -19.641,19.689 -31.536,49.288 -32.713,77.721 -0.715,17.287 2.676,34.424 12.211,48.254 7.369,10.687 18.592,18.914 32.93,23.131 -11.946,23.923 -28.259,47.895 -41.86,73.48 h 23.696 c 13.994,-24.865 30.139,-49.813 41.809,-76.777 2.681,-6.196 -1.422,-13.215 -8.137,-13.918 -16.087,-1.683 -25.609,-8.057 -31.959,-17.267 -6.35,-9.211 -9.278,-21.992 -8.695,-36.075 1.166,-28.165 17.155,-60.169 37.248,-73.146 0.587,-0.379 1.134,-0.819 1.629,-1.313 8.211,-8.173 12.054,-11.75 14.679,-14.908 0.657,-0.789 1.57,-0.242 2.672,-5.099 0.276,-1.215 0.569,-3.167 -0.342,-5.702 -0.911,-2.535 -3.42,-4.943 -5.449,-5.834 -4.058,-1.782 -5.491,-0.815 -6.467,-0.599 -3.903,0.865 -3.823,1.413 -5.363,2.166 -5.029,2.459 -13.467,5.683 -19.572,6.129 -7.025,-14.657 -3.577,-36.993 7.662,-59.34 12.302,-24.463 33.299,-47.402 50.525,-56.481 4.784,-2.546 6.669,-8.441 4.251,-13.291 -2.418,-4.85 -8.26,-6.891 -13.173,-4.603 -12.11,5.702 -19.488,1.276 -24.335,-6.604 -4.848,-7.88 -5.304,-18.923 2.996,-27.562 2.556,-2.661 3.439,-6.513 2.298,-10.022 -0.284,-0.875 -0.301,-1.113 0.26,-2.39 0.561,-1.278 2.005,-3.299 4.272,-5.451 4.534,-4.306 11.992,-8.938 18.652,-12.76 3.33,-1.911 6.451,-3.638 9.16,-5.317 1.355,-0.839 2.603,-1.652 3.867,-2.646 1.265,-0.994 2.671,-1.85 4.231,-4.844 0.78,-1.497 1.6,-3.922 1.148,-6.808 -0.451,-2.886 -2.304,-5.444 -3.91,-6.748 -3.211,-2.609 -5.217,-2.583 -7.127,-2.86 -2.81,-0.407 -6.037,-0.389 -9.828,-0.248 -4.243,-3.892 -4.446,-6.318 -3.516,-10.121 1.101,-4.498 5.942,-11.474 13.364,-18.271 14.843,-13.596 38.299,-26.539 50.244,-32.752 4.508,-2.347 6.539,-7.702 4.721,-12.448 -1.486,-3.881 -5.165,-6.304 -9.146,-6.382 -0.33,-0.384 -0.765,-0.937 -1.216,-1.688 -1.855,-3.092 -3.916,-8.943 -4.718,-15.602 -1.606,-13.318 1.342,-29.146 12.775,-39.273 0.65,-0.576 1.223,-1.234 1.703,-1.957 16.355,-24.654 39.645,-36.274 66.818,-41.369 4.661,-0.874 9.451,-1.472 14.287,-1.955 z"
       id="path6707-2-4-3" /><path
       id="rect22783-5-3-3-9-2-0-3"
       style="display:inline;fill:none;fill-rule:evenodd;stroke:#000000;stroke-width:2;stop-color:#000000"
       d="m -17959.227,17457.301 h 250 v 1505.951 h -250 z" /><path
       style="color:#000000;display:inline;fill:none;stroke:#000000;stroke-width:2;stroke-linecap:square;stroke-linejoin:round;stroke-dasharray:none;paint-order:markers fill stroke"
       d="m -17868.068,18760.622 c 0.02,0.226 0.02,0.252 0.03,0.483 0,-0.01 -0.03,-0.147 -0.03,-0.147 z"
       id="path79383" /><path
       style="color:#000000;display:inline;fill:none;stroke:#000000;stroke-width:2;stroke-linecap:square;stroke-linejoin:round;stroke-dasharray:none;paint-order:markers fill stroke"
       d="m -17866.75,18755.154 v 0 c -0.128,0.221 -0.179,0.311 -0.282,0.498 0.03,-0.05 0.02,-0.05 0.05,-0.11 0.05,-0.09 0.125,-0.214 0.229,-0.388 z"
       id="path79381" /><path
       style="color:#000000;display:inline;fill:none;stroke:#000000;stroke-width:2;stroke-linecap:square;stroke-linejoin:round;stroke-dasharray:none;paint-order:markers fill stroke"
       d="m -17841.999,18747.71 v 0 l -0.128,0.278 c 0.204,-0.423 -0.02,0.04 0.07,-0.178 0,-0.02 0.05,-0.08 0.05,-0.1 z"
       id="path79379" /><path
       style="color:#000000;display:inline;fill:none;stroke:#000000;stroke-width:2;stroke-linecap:square;stroke-linejoin:round;stroke-dasharray:none;paint-order:markers fill stroke"
       d="m -17841.574,18745.147 c -0.168,0.228 -0.179,0.295 -0.405,0.57 -0.05,0.05 -0.08,0.09 -0.131,0.143 -0.156,0.141 -0.34,0.249 -0.511,0.381 0.05,-0.06 0.09,-0.126 0.14,-0.188 0.321,-0.282 0.624,-0.585 0.907,-0.906 z"
       id="path79377" /><path
       style="color:#000000;display:inline;fill:none;stroke:#000000;stroke-width:2;stroke-linecap:square;stroke-linejoin:round;stroke-dasharray:none;paint-order:markers fill stroke"
       d="m -17860.237,18740.011 c -0.01,0.268 -0.04,0.594 -0.03,0.515 0,0.01 -0.02,-0.125 -0.04,-0.129 0.02,-0.139 0.04,-0.274 0.07,-0.386 z"
       id="path79375" /><path
       style="color:#000000;display:inline;fill:none;stroke:#000000;stroke-width:2;stroke-linecap:square;stroke-linejoin:round;stroke-dasharray:none;paint-order:markers fill stroke"
       d="m -17859.258,18737.983 -0.03,0.08 c -0.07,0.09 -0.216,0.195 -0.268,0.268 0.05,-0.07 0,-0.03 0.06,-0.114 0.06,-0.08 0.152,-0.133 0.234,-0.23 z"
       id="path79373" /><path
       style="color:#000000;display:inline;fill:none;stroke:#000000;stroke-width:2;stroke-linecap:square;stroke-linejoin:round;stroke-dasharray:none;paint-order:markers fill stroke"
       d="m -17858.153,18735.201 v 0 c 0,-0.01 -0.02,0.03 0,0.01 v 0.01 c -0.579,0.736 -0.972,1.442 -1.213,1.947 0.228,-0.413 0.355,-0.726 0.693,-1.244 1.208,-1.851 1.003,-1.365 0.52,-0.717 z"
       id="path79371" /><path
       style="color:#000000;display:inline;fill:none;stroke:#000000;stroke-width:2;stroke-linecap:square;stroke-linejoin:round;stroke-dasharray:none;paint-order:markers fill stroke"
       d="m -17855.988,18731.541 c -0.02,0.02 -0.01,0.02 -0.03,0.04 -0.06,0.06 -0.02,0 -0.08,0.07 z"
       id="path79369" /><path
       style="color:#000000;display:inline;fill:none;stroke:#000000;stroke-width:2;stroke-linecap:square;stroke-linejoin:round;stroke-dasharray:none;paint-order:markers fill stroke"
       d="m -17855.541,18731.125 c -0.06,0.05 -0.128,0.149 -0.197,0.213 -0.05,0.05 -0.113,0.08 -0.159,0.12 z"
       id="path79367" /><path
       style="color:#000000;display:inline;fill:none;stroke:#000000;stroke-width:2;stroke-linecap:square;stroke-linejoin:round;stroke-dasharray:none;paint-order:markers fill stroke"
       d="m -17900.2,18499.568 c -0.948,-0.08 -1.939,-0.03 -2.955,0.172 l -1.738,0.356 c -1.111,0.227 -2.175,0.641 -3.147,1.224 l -2.693,1.615 c -0.117,0.14 -0.231,0.282 -0.34,0.428 -0.774,0.168 -16.088,3.506 -25.631,6.877 -6.243,1.848 -11.326,5.061 -15.63,8.273 -1.576,1.03 -4.301,1.396 -6.895,0.883 v 20.278 c 6.05,0.48 12.373,-0.745 17.968,-4.443 0.177,-0.117 0.351,-0.241 0.52,-0.369 1.936,-1.465 3.804,-2.645 5.619,-3.617 -4.32,6.356 -8.612,13.04 -11.477,18.994 -4.39,8.76 -6.268,17.771 -7.732,25.994 v 0.04 c -1.196,6.873 -2.156,13.423 -3.545,19.526 -0.03,0.141 -0.06,0.283 -0.09,0.426 -0.377,2.067 -0.825,4.542 -1.263,6.92 v 20.811 c 1.238,3.8 3.755,7.916 9.038,10.163 0.225,0.1 0.454,0.183 0.685,0.262 6.999,2.387 12.158,1.527 14.424,1.883 0.38,0.06 0.762,0.1 1.146,0.113 11.786,0.479 22.547,-3.558 31.51,-8.914 0,0 0.01,0 0.02,-0.01 1.387,-0.833 2.407,-1.606 3.672,-2.447 -5.37,10.905 -9.724,22.253 -12.914,33.851 -0.01,0.03 -0.02,0.07 -0.03,0.104 -4.376,16.602 -6.88,34.402 -4.64,52.424 0,0.08 0.02,0.167 0.03,0.25 0.59,3.93 1.316,8.546 3.103,13.435 1.849,6.102 6.604,9 10.647,10.229 0.01,0 0.03,0 0.04,0.01 5.709,1.71 11.273,0.48 15.689,-2.389 l -1.496,0.801 c 5.632,-2.423 11.349,-4.192 17.002,-4.973 0.293,-0.04 0.585,-0.09 0.873,-0.16 6.626,-1.525 12.867,-4.244 18.588,-7.797 -0.543,1.111 -1.003,2.307 -1.529,3.436 l -0.539,-0.204 -3.342,8.852 c 0,0 -0.05,0.04 -0.06,0.05 -2.714,3.125 -2.598,4.612 -1.851,3.053 -0.01,-0.03 0.296,-0.769 -0.229,0.455 0.233,-0.543 -0.168,0.232 -0.521,1.695 0.109,-0.237 0.324,-0.58 0.484,-0.869 l 0.05,-0.108 c -0.02,0.03 -0.01,0.05 -0.03,0.08 v 0 c 0,0 -0.01,0.02 -0.02,0.03 l -0.01,0.03 c 0,-0.02 0.03,-0.05 0.03,-0.06 -0.331,0.675 -0.472,1.218 -0.651,1.877 -0.02,0.03 0,0 -0.02,0.05 -0.08,0.174 0,0.03 -0.01,0.04 -0.03,0.05 -0.08,0.138 -0.103,0.187 -0.01,0.09 0,0 0,0.08 -0.01,0.03 -0.03,0.05 -0.04,0.08 0,0 0.03,-0.06 0.04,-0.07 v 0.05 c -0.04,0.175 -0.07,0.126 -0.125,0.359 0,0.02 0,0.04 -0.01,0.06 -0.02,0.107 0,0.12 -0.03,0.244 -0.06,-0.09 -0.106,-0.05 -0.1,-0.303 -0.291,0.622 -0.365,1.029 -0.543,1.652 -0.194,0.28 -0.187,0.214 -0.459,0.703 -0.588,1.06 -0.923,1.918 -1.103,2.358 v 0.01 c 0,0.02 0,0.01 -0.01,0.03 -0.113,0.168 -0.129,0.176 -0.205,0.303 -0.395,0.67 -0.57,1.058 -0.578,1.074 0,0.01 -0.01,0.03 -0.02,0.04 -0.123,0.244 -0.332,0.644 -0.592,1.214 v 0.01 c -0.51,1.123 -0.639,1.62 -0.832,2.131 -0.05,0.118 -0.18,0.434 -0.393,0.975 v 0.02 c -0.222,0.568 -0.306,0.802 -0.258,0.688 -0.205,0.492 -0.02,0.08 -0.26,0.576 -0.241,0.501 -0.541,1.24 -0.865,2.133 -0.505,1.39 -0.677,2.204 -0.719,2.341 -0.147,0.484 -0.194,0.624 -0.201,0.647 -0.01,0.04 -0.04,0.119 -0.06,0.152 -0.07,0.215 -0.103,0.326 -0.14,0.455 -0.04,0.13 -0.07,0.227 -0.143,0.549 0,0.03 -0.02,0.154 -0.03,0.184 0.02,-0.09 0,0 -0.116,0.441 -0.07,0.279 -0.354,1.1 -0.659,2.506 l 0.09,-0.393 c -0.01,0.05 -0.175,0.539 -0.361,1.491 0,0.03 -0.01,0.07 -0.02,0.103 -0.209,1.128 -0.224,1.562 -0.181,1.283 0.01,-0.08 -0.05,0.199 -0.147,0.822 -0.06,0.354 -0.126,0.712 -0.191,1.082 -0.03,0.173 -0.09,0.484 -0.174,0.963 v 0.03 c -0.101,0.61 -0.135,0.931 -0.139,0.955 v 0.02 c -0.04,0.291 -0.119,0.745 -0.205,1.36 0,0.05 -0.01,0.108 -0.02,0.162 -0.09,0.76 -0.11,1.005 -0.08,0.83 0,-0.02 -0.02,0.117 -0.1,0.498 0,0.04 -0.01,0.08 -0.02,0.127 -0.08,0.394 -0.158,0.83 -0.248,1.312 0,0.02 0,0.04 -0.01,0.06 -0.04,0.22 -0.16,0.805 -0.25,1.685 -0.107,1.03 -0.1,1.68 -0.102,1.864 -0.04,1.244 -0.03,2.106 -0.07,2.658 0.03,-0.433 -0.306,2.544 -0.111,1.287 0.03,-0.211 -0.09,0.302 -0.246,1.297 -0.204,1.25 -0.293,2.766 -0.293,3.806 0,0.909 0,1.596 0.06,2.317 0,-0.141 0,0.13 0.01,0.689 0,0.642 0.02,0.132 -0.01,0.629 -0.03,0.519 -0.02,1.214 0.01,2.326 0,0.08 0,0.151 0.01,0.227 0,0.171 0.01,0.718 0.119,1.633 0,0.03 0,0.07 0.01,0.103 0.159,1.291 0.285,1.705 0.244,1.414 0,0.02 0.03,0.468 0.164,1.406 0,0.03 0,0.05 0.01,0.08 0.13,0.884 0.249,1.382 0.272,1.505 0,0.03 0.06,0.509 0.264,1.438 v 0.05 c 0.19,0.841 0.359,1.392 0.436,1.672 0.203,0.74 0.493,1.608 0.734,2.252 -0.05,-0.131 0.1,0.46 0.674,1.666 0.128,0.267 0.239,0.497 0.399,0.798 0.03,0.06 0.215,0.3 0.232,0.35 0.06,0.144 -0.08,-0.182 0.02,0.08 0.227,0.597 0.409,1.041 0.491,1.256 0,0.02 0.08,0.251 0.242,0.697 v 0.02 c 0.416,1.172 0.195,0.517 0.634,1.818 0.107,0.316 0.652,2.012 1.481,3.449 0.696,1.208 1.5,2.34 2.488,3.44 0.868,0.965 0.903,0.974 0.443,0.429 0.176,0.278 0.483,0.777 0.967,1.413 0.748,0.98 1.28,1.446 1.408,1.573 1.038,1.026 1.713,1.5 2.139,1.83 0.372,0.289 0.609,0.457 0.693,0.519 -0.342,-0.256 0.15,0.286 1.719,1.207 2.142,1.255 3.003,1.303 2.043,0.928 0.01,0 0.02,0 0.03,0.01 0.06,0.02 0.301,0.124 0.68,0.267 0.358,0.137 0.669,0.251 0.93,0.348 h 0.01 c 0.297,0.11 2.735,0.884 4.303,0.994 h 0.07 c 0.923,0.06 2.902,-0.103 3.985,-0.367 -1.038,0.164 -1.177,0.107 -0.41,0.08 -0.271,0.01 -0.148,0 0.369,0 h 1.136 c 0.617,0 1.036,-0.03 1.319,-0.06 0.203,0 0.581,-0.02 0.324,-0.02 -0.692,0 0,0.147 1.941,0.01 2.195,-0.153 2.826,-0.436 1.799,-0.279 0.03,0 0.07,-0.01 0.1,-0.02 0.436,-0.07 0.598,-0.09 0.34,-0.06 1.112,-0.05 1.6,-0.215 2.633,-0.414 1.833,-0.353 1.937,-0.467 3.222,-0.785 0.457,-0.113 0.985,-0.231 1.584,-0.362 0.424,-0.09 0.748,-0.157 0.955,-0.193 0.03,0 0.07,-0.01 0.1,-0.02 -0.735,0.135 0.107,0.21 2.346,-0.459 0.645,-0.193 0.914,-0.374 1.393,-0.578 -0.151,3.038 -0.355,6.178 -0.521,9.18 v -0.07 c -0.723,11.565 -0.316,24.19 4.334,36.437 0.06,0.151 0.119,0.301 0.184,0.449 1.822,4.177 3.714,9.597 7.52,15.1 2.942,4.622 7.842,8.355 14.349,8.809 0.08,0 0.163,0 0.244,0.01 4.326,0.196 7.643,-0.946 10.018,-1.797 0.08,-0.03 0.158,-0.06 0.236,-0.09 8.925,-3.453 15.094,-10.275 19.143,-17.325 0.04,-0.07 0.08,-0.139 0.115,-0.209 1.024,-1.886 1.797,-3.625 2.707,-5.466 -0.1,4.506 0.06,9.154 1.022,14.021 0.981,5.203 2.909,9.869 5.162,14.022 6.261,11.618 15.097,20.077 22.482,27.955 l 0.09,0.09 c 0.89,0.926 1.367,1.502 1.514,1.725 0.122,0.185 0.25,0.366 0.384,0.543 5.23,6.897 13.177,12.387 22.95,13.215 0.964,0.114 1.863,-0.03 2.801,-0.03 v -19.934 c -0.151,0 -0.379,0.112 -0.507,0.1 -0.175,-0.03 -0.351,-0.05 -0.527,-0.06 -2.905,-0.218 -6.429,-2.303 -8.783,-5.408 l 0.385,0.543 c -1.376,-2.09 -2.78,-3.526 -3.803,-4.59 -7.751,-8.265 -15.038,-15.609 -19.385,-23.676 0,-0.01 -0.01,-0.02 -0.02,-0.03 -1.537,-2.831 -2.614,-5.613 -3.105,-8.234 0,-0.03 -0.01,-0.07 -0.02,-0.104 -1.527,-7.697 -0.237,-16.833 0.911,-27.189 v -0.04 c 0.65,-6.094 1.571,-13.185 0.418,-21.051 -0.383,-2.614 -1.785,-4.969 -3.899,-6.553 -1.879,-1.408 -5.178,-2.439 -7.879,-2.084 -2.7,0.356 -4.385,1.504 -5.398,2.301 -1.524,1.197 -1.505,1.396 -1.528,1.506 -4.274,3.958 -7.515,8.415 -10.207,12.734 v 0.02 c -5.703,9.188 -9.159,18.341 -13.262,25.933 -2.361,4.09 -5.619,7.238 -8.887,8.537 -0.815,0.278 -0.947,0.283 -1.291,0.352 -1.822,-2.657 -3.398,-6.566 -5.461,-11.316 -3.11,-8.243 -3.679,-17.929 -3.049,-28.01 v -0.07 c 0.57,-10.291 0.948,-20.405 1.717,-30.294 0.804,-10.403 -12.863,-14.931 -18.43,-6.106 -0.533,0.847 -0.785,1.261 -1.027,1.645 -0.174,0.225 -0.395,0.519 -0.557,0.695 -0.407,0.444 -0.878,0.942 -0.92,0.986 v 0.01 c -0.208,0.219 -0.292,0.275 -0.422,0.385 -0.325,0.159 -0.648,0.318 -1.028,0.504 -1.071,0.525 -1.344,0.618 -2.646,1.31 h -0.01 c -0.962,0.513 -1.627,0.932 -2.041,1.172 -0.756,0.44 -1.006,0.596 -1.23,0.73 -0.103,0.02 -0.07,0.02 -0.188,0.04 -0.663,0.118 -1.238,0.24 -1.693,0.338 h -0.02 c -0.639,0.14 -1.347,0.295 -2.121,0.487 -1.956,0.484 -0.847,0.3 -2.199,0.56 -1.343,0.259 -1.935,-0.04 0.846,0.117 1.39,0.08 -1.206,-0.01 -1.777,0.05 -0.572,0.06 -0.889,0.115 -1.489,0.213 l 0.1,-0.02 c -0.296,0.05 -0.26,0.04 -0.455,0.07 -0.114,0 0.477,-0.03 -0.254,-0.03 -0.982,0 -1.387,0.05 -1.209,0.05 -0.116,0 -0.232,0.01 -0.348,0.02 -0.287,0.02 -0.343,0.02 -0.166,0.02 h -0.283 -0.773 c 0,0 -0.378,-0.02 -1.157,0 0.157,0 -0.663,0.06 -1.14,0.09 -0.04,-0.04 -0.04,-0.02 -0.06,-0.05 -0.29,-0.444 -0.792,-1.184 -1.347,-1.834 -0.878,-1.026 -0.952,-1.031 -0.7,-0.727 -0.01,-0.04 0,0.02 0,-0.03 -0.443,-1.311 -0.357,-1.041 -0.727,-2.084 v -0.02 c -0.05,-0.142 -0.159,-0.487 -0.367,-1.043 v -0.01 c -0.259,-0.689 -0.448,-1.144 -0.535,-1.375 -0.01,-0.03 -0.03,-0.07 -0.04,-0.106 0.217,0.559 0.134,0.119 -0.465,-1.222 -0.196,-0.447 -0.164,-0.537 -0.855,-1.686 0,0.03 0,0.04 -0.09,-0.27 -0.143,-0.524 -0.206,-0.764 -0.207,-0.764 0.04,0.173 0,-0.04 -0.121,-0.727 -0.111,-0.602 -0.152,-0.808 -0.143,-0.734 0,-0.06 -0.04,-0.571 -0.187,-1.564 0,-0.03 0,-0.05 -0.01,-0.08 -0.165,-1.064 -0.21,-1.251 -0.158,-0.81 0,0.08 0,-0.08 -0.02,-0.334 -0.01,-0.434 -0.02,-0.581 -0.03,-0.461 0,0.15 0.04,-0.799 0.04,-1.85 v -0.03 c 0,-0.655 0,-0.992 -0.03,-1.455 -0.02,-0.463 -0.446,-2.76 -0.272,-2.012 0.348,1.496 0.233,2.02 0.233,0.625 0,-0.749 -0.05,-0.1 0.03,-0.588 0,-0.04 0.01,-0.08 0.02,-0.115 -0.04,0.24 0.08,-0.214 0.255,-1.351 0.315,-2.032 0.243,-2.018 0.311,-3.155 0.09,-1.451 0.07,-2.527 0.09,-3.279 v -0.03 c 0.01,-0.551 0.03,-0.652 0,-0.305 0,-0.04 0,-0.08 0.01,-0.125 -0.03,0.294 -0.02,0.202 0.03,-0.105 0.07,-0.367 0.146,-0.767 0.23,-1.213 l -0.02,0.127 c 0.06,-0.285 0.171,-0.795 0.283,-1.543 0,-0.02 0,-0.04 0.01,-0.06 0.122,-0.855 0.137,-1.19 0.131,-1.17 0.03,-0.243 0.09,-0.598 0.168,-1.109 v -0.02 c 0.07,-0.451 0.09,-0.647 0.08,-0.601 0.02,-0.101 0.07,-0.366 0.144,-0.791 v -0.03 c 0.07,-0.382 0.135,-0.773 0.207,-1.176 0,-0.05 0.01,-0.09 0.02,-0.141 0,0.01 0.07,-0.329 0.178,-1.019 0.126,-0.822 0.132,-0.926 0.07,-0.608 -0.04,0.192 -0.04,0.2 0.08,-0.279 0.03,-0.13 0.06,-0.261 0.09,-0.393 0,-0.03 0.184,-0.598 0.477,-1.732 0.09,-0.338 0.13,-0.524 0.181,-0.732 0.08,-0.241 0.139,-0.435 0.272,-0.872 0.301,-0.99 0.485,-1.616 0.385,-1.34 0.239,-0.661 0.143,-0.404 0.09,-0.305 -0.05,0.101 0.334,-0.675 0.694,-1.539 0.285,-0.685 0.399,-1.034 0.414,-1.074 v -0.02 c 0.07,-0.186 0.239,-0.568 0.471,-1.179 v -0.02 c 0.474,-1.252 0.09,-0.385 0.332,-0.93 0,-0.02 0.09,-0.186 0.232,-0.465 0.172,-0.338 0.174,-0.313 -0.04,0.05 0,-0.01 0.01,-0.03 0.02,-0.04 0.01,-0.02 -1.043,1.401 -0.461,0.666 0.579,-0.732 1.201,-1.865 1.48,-2.444 0.517,-1.072 0.636,-1.511 0.467,-1.101 v -0.02 c 0.07,-0.161 0,-0.02 0.03,-0.08 0.02,-0.03 0,0 0.03,-0.03 v -0.01 c 0.378,-0.553 0.793,-1.453 1.184,-2.306 l 0.361,0.142 3.036,-7.656 c 0.03,-0.06 0.03,-0.05 0.06,-0.113 0.243,-0.588 0.34,-0.871 0.443,-1.162 l 0.145,-0.364 c 5.922,-14.933 15.128,-29.321 23.35,-45.277 4.407,-8.56 -4.64,-17.793 -13.288,-13.561 -10.17,4.98 -18.964,11.326 -27.25,17.358 -0.247,0.18 -0.486,0.372 -0.716,0.574 -5.18,4.553 -11.534,7.846 -18.186,9.383 -7.225,1.089 -14.042,3.249 -20.432,5.933 -0.431,-1.843 -0.814,-3.865 -1.164,-6.181 -1.793,-14.54 0.187,-29.778 4.121,-44.723 4.794,-17.411 12.068,-34.082 22.145,-48.693 0,-0.01 0.01,-0.02 0.02,-0.03 2.58,-3.767 5.492,-7.462 8.591,-11.15 0.17,-0.202 0.332,-0.41 0.485,-0.625 -1.061,1.487 -1.283,1.439 -0.606,0.789 0.677,-0.649 2.808,-2.478 3.401,-6.41 0.952,-6.322 -4.191,-11.901 -10.569,-11.467 -3.499,0.239 -4.876,1.121 -4.465,1.01 -0.176,0.05 -0.35,0.1 -0.523,0.156 -11.475,3.78 -20.688,10.293 -28.998,16.03 -3.617,2.441 -6.819,4.767 -9.834,6.579 -6.636,3.962 -13.821,6.355 -20.414,6.088 -3.233,-0.437 -5.566,-0.63 -7.248,-0.709 -0.103,-4.323 0.927,-9.56 2.078,-15.87 l -0.09,0.424 c 1.625,-7.139 2.615,-14.035 3.746,-20.535 v 0.04 c 1.376,-7.727 3.025,-14.799 5.948,-20.605 0.03,-0.06 0.05,-0.112 0.08,-0.168 5.297,-11.038 23.476,-34.968 24.108,-35.799 l 1.693,-1.623 c 0.514,0.08 1.033,0.109 1.553,0.103 l 2.336,-0.757 c 2.58,-0.838 4.708,-2.688 5.898,-5.125 l 0.877,-1.797 c 3.184,-6.523 -1.392,-13.761 -8.031,-14.358 z"
       id="path79365" /><path
       style="color:#000000;display:inline;fill:none;stroke:#000000;stroke-width:2;stroke-linecap:square;stroke-linejoin:round;stroke-dasharray:none;paint-order:markers fill stroke"
       d="m -17939.186,18408.817 c -0.929,0.07 -1.875,0.282 -2.82,0.641 0,0 -9.707,4.631 -17.223,8.336 v 48.958 c 3.854,-7.289 9.534,-16.063 14.901,-23.47 7.523,-10.385 14.18,-18.32 14.18,-18.32 0.639,-1.056 1.078,-2.221 1.293,-3.436 l 1.758,1.344 0.179,-0.232 -1.83,-1.399 c 1.722,-6.862 -3.934,-12.937 -10.438,-12.422 z"
       id="path79363" /><path
       style="color:#000000;display:inline;fill:none;stroke:#000000;stroke-width:2;stroke-linecap:square;stroke-linejoin:round;stroke-dasharray:none;paint-order:markers fill stroke"
       d="m -17958.634,18303.257 c -0.196,-0.01 -0.397,0.08 -0.595,0.09 v 25.074 c 1.029,-1.015 2.064,-2.119 3.097,-3.123 0.185,-0.179 0.363,-0.366 0.533,-0.559 0.02,-0.02 0.08,-0.09 0.26,-0.201 l -0.07,0.05 c 1.521,-0.937 3.071,-2.119 4.51,-4.451 1.438,-2.332 2.445,-6.619 1.093,-10.32 -1.411,-3.864 -4.96,-6.335 -8.828,-6.556 z"
       id="path79361" /><path
       style="color:#000000;display:inline;fill:none;stroke:#000000;stroke-width:2;stroke-linecap:square;stroke-linejoin:round;stroke-dasharray:none;paint-order:markers fill stroke"
       d="m -17709.228,17503.511 c -14.609,10.195 -28.105,20.952 -40.899,29.245 -0.983,0.636 -1.846,1.441 -2.551,2.377 -39.695,52.716 -61.565,120.231 -41.803,186.404 0.02,0.07 0.03,0.133 0.05,0.199 5.416,23.531 15.959,44.91 28.781,61.441 -18.016,42.195 -41.076,86.844 -40.86,137.583 -1.245,6.1 -2.275,12.2 -3.206,18.301 -5.621,-4.401 -12.223,-6.809 -18.656,-7.201 -8.202,-0.501 -15.948,1.717 -23.149,4.896 3.149,-10.666 4.354,-21.629 2.953,-32.09 -1.666,-12.449 -7.355,-24.421 -17.851,-32.515 -10.155,-7.831 -24.235,-11.522 -41.336,-10.584 -5.381,-1.116 -10.516,-0.529 -15.451,0.955 -0.622,-2.077 -1.369,-4.1 -2.387,-5.996 -6.489,-12.088 -19.506,-17.668 -32.709,-19.01 -0.303,-0.03 -0.622,0 -0.927,-0.03 v 20.139 c 8.435,1.08 13.76,4.166 16.02,8.376 0.746,1.39 1.178,3.344 1.381,5.592 -6.613,4.233 -12.56,9.12 -17.401,13.884 v 30.492 c 0.539,0.02 1.196,0.187 1.659,0.167 2.514,-0.107 4.577,-0.652 6.845,-1.403 4.536,-1.501 9.812,-4.019 16.793,-7.933 1.725,-0.967 3.125,-2.424 4.022,-4.186 3.31,-6.504 5.597,-12.706 6.92,-18.562 5.596,-2.425 10.382,-3.194 11.675,-2.842 1.09,0.297 2.223,0.406 3.35,0.324 14.401,-1.046 23.499,1.967 29.34,6.471 5.841,4.504 9.117,10.929 10.242,19.332 2.25,16.805 -6.143,40.466 -21.039,55.55 -3.765,3.816 -3.851,9.922 -0.196,13.843 3.655,3.922 9.752,4.263 13.823,0.775 8.452,-7.249 20.711,-17.195 31.795,-22.215 5.542,-2.51 10.621,-3.683 14.416,-3.451 3.795,0.232 6.471,1.267 9.736,5.066 l 6.518,7.584 0.506,-0.434 c -4.781,48.467 -3.235,96.576 -10.581,142.657 -3.606,20.774 -8.246,45.367 -16.702,61.732 -4.235,8.197 -9.223,14.072 -14.8,17.244 -5.577,3.172 -12.04,4.356 -22.088,1.725 -0.07,-0.02 -0.143,-0.04 -0.215,-0.06 -5.998,-1.43 -11.664,-1.664 -16.969,0.145 -5.304,1.809 -9.666,6.009 -11.887,10.586 -4.44,9.152 -3.102,18.733 -0.773,28.41 2.329,9.677 6.335,19.548 10.854,28.166 4.518,8.618 9.067,15.765 14.91,20.781 16.288,13.983 28.626,20.822 40.867,26.566 12.071,5.665 23.909,10.394 41.707,21.053 0.09,0.09 0.171,0.164 0.262,0.252 -11.144,39.463 -8.93,80.973 -10.684,118.76 -0.02,0.338 -0.02,0.677 0,1.015 0.485,8.784 5.128,15.938 10.449,21.147 5.321,5.209 11.529,8.993 17.326,12.098 0.194,0.103 0.298,0.14 0.491,0.242 -10.018,6.889 -16.734,17.751 -19.012,29.191 -3.812,19.14 2.739,41.411 21.678,52.846 0.361,0.217 0.734,0.412 1.119,0.582 11.598,5.137 15.614,12.805 17.502,24.018 1.887,11.212 0.282,25.38 -1.649,38.416 l 0.02,-0.116 c -6.712,41.915 14.559,83.787 51.771,103.507 v -23.654 c -23.707,-17.331 -36.764,-47.1 -32.024,-76.698 0,-0.04 0.01,-0.08 0.02,-0.117 1.977,-13.343 4.19,-29.2 1.586,-44.666 -2.558,-15.196 -11.105,-30.566 -28.227,-38.549 -10.503,-6.499 -14.543,-19.803 -12.179,-31.67 2.381,-11.953 9.404,-20.685 23.57,-20.494 4.067,0.05 7.762,-2.359 9.346,-6.105 1.498,-3.543 0.449,-8.023 -0.844,-10.11 -1.293,-2.086 -2.489,-2.98 -3.527,-3.767 -2.075,-1.573 -3.906,-2.478 -6.002,-3.526 -4.192,-2.094 -9.246,-4.319 -14.191,-6.968 -4.946,-2.649 -9.683,-5.729 -12.778,-8.758 -3.05,-2.986 -4.272,-5.417 -4.437,-7.85 1.713,-38.07 0.206,-76.84 9.406,-111.213 1.607,-1.653 3.017,-3.672 3.568,-6.679 0.934,-5.092 -1.822,-9.36 -3.607,-11.256 -3.571,-3.793 -6.092,-5.265 -5.441,-4.492 -0.707,-0.839 -1.548,-1.556 -2.489,-2.123 -19.373,-11.676 -32.74,-17.035 -44.234,-22.428 -11.494,-5.394 -21.319,-10.745 -36.336,-23.637 -1.741,-1.494 -6.396,-7.591 -10.225,-14.892 -3.828,-7.302 -7.31,-16.027 -9.123,-23.559 -1.812,-7.532 -1.27,-13.775 -0.675,-15 0.297,-0.612 -0.09,-0.239 0.347,-0.389 0.439,-0.149 2.284,-0.473 5.875,0.383 l -0.213,-0.05 c 13.975,3.66 26.871,2.097 37.043,-3.689 10.173,-5.786 17.325,-15.083 22.68,-25.447 10.71,-20.729 15.042,-46.753 18.66,-67.606 0,-0.05 0.01,-0.09 0.02,-0.135 10.11,-63.393 4.573,-126.615 16.923,-186.125 0.146,-0.703 0.216,-1.42 0.209,-2.138 -0.449,-41.99 18.185,-81.833 35.725,-122.344 13.204,12.257 27.088,23.782 41.574,34.501 v -25.128 c -9.791,-7.766 -19.285,-15.941 -28.466,-24.487 -0.04,-0.03 -0.08,-0.07 -0.114,-0.102 -1.526,-1.377 -3.05,-2.898 -4.57,-4.493 l 0.599,-1.422 -3.097,-1.303 c -12.893,-14.593 -24.866,-36.442 -30.215,-60.157 -0.05,-0.226 -0.109,-0.45 -0.176,-0.671 -17.476,-58.272 1.342,-118.735 37.67,-167.573 9.498,-6.242 18.914,-13.129 28.369,-19.91 z"
       id="path6707-2-4-45" /><path
       id="rect22783-3-8-5-4-1-8-5-9-3-3-6"
       style="display:inline;fill:none;fill-rule:evenodd;stroke:#000000;stroke-width:2;stop-color:#000000"
       d="m -17959.225,16092.311 h 250 v 645.896 h -250 z" /><path
       style="color:#000000;display:inline;fill:none;stroke:#000000;stroke-width:2;stroke-linecap:square;stroke-linejoin:round;stroke-dasharray:none;paint-order:markers fill stroke"
       d="m -17959.227,16101.219 v 20.853 c 13.354,2.493 27.285,5.052 42.126,5.508 31.537,4.638 62.54,18.51 89.386,36.746 21.665,15.73 25.023,48.404 26.414,77.928 0,0.1 0.01,0.191 0.02,0.287 3.091,40.629 -3.83,83.255 -30.459,112.717 -24.173,17.392 -59.962,19.013 -90.236,10.52 -0.704,-0.198 -1.428,-0.318 -2.159,-0.358 -11.743,-0.639 -23.475,-1.901 -35.092,-3.727 v 20.253 c 11.018,1.624 22.075,2.752 33.077,3.377 1.031,0.28 2.085,0.519 3.127,0.781 -0.504,13.195 -3.452,30.157 -3.877,47.884 -0.436,18.179 2.141,37.836 14.441,54.512 16.785,59.057 28.292,122.1 61.436,177.932 9.986,23.68 19.381,47.868 29.974,71.785 h 21.902 c -11.881,-25.931 -22.222,-52.906 -33.655,-79.978 -0.181,-0.427 -0.391,-0.842 -0.629,-1.24 -31.338,-52.421 -42.741,-114.383 -60.205,-175.426 -0.362,-1.266 -0.971,-2.448 -1.791,-3.478 -9.545,-11.991 -11.882,-26.861 -11.482,-43.553 0.351,-14.656 2.994,-30.086 3.772,-44.681 28.977,3.484 59.784,-1.018 83.97,-18.867 0.507,-0.375 0.978,-0.797 1.406,-1.26 32.56,-35.245 39.783,-84.271 36.428,-128.547 -1.417,-30.03 -3.736,-70.67 -34.756,-93.07 -0.08,-0.05 -0.153,-0.108 -0.23,-0.16 -28.934,-19.682 -62.607,-34.948 -98.057,-40.124 -0.4,-0.06 -0.803,-0.09 -1.207,-0.101 -13.984,-0.333 -28.528,-3.597 -43.644,-6.513 z"
       id="path8803-6-7-628" /><path
       id="rect22783-3-8-5-4-1-8-5-9-3-3-6-8-7-9-5"
       style="display:inline;fill:none;fill-rule:evenodd;stroke:#000000;stroke-width:2;stop-color:#000000"
       d="m -17959.225,15905.955 h 250 v 175.773 h -250 z" /><path
       style="color:#000000;display:inline;fill:none;stroke:#000000;stroke-width:2;stroke-linecap:square;stroke-linejoin:round;stroke-dasharray:none;paint-order:markers fill stroke"
       d="m -17743.029,15912.288 -0.02,0.01 c -0.65,0.01 -0.94,0.08 -0.853,0.08 -0.871,-0.01 -2.492,-0.162 -4.84,0.03 -4.655,0.386 -7.541,1.448 -10.334,2.082 -1.931,0.437 -4.002,0.845 -6.201,1.301 -3.071,0.636 -5.751,1.302 -8.102,1.715 -2.052,0.36 -3.111,0.515 -3.4,0.55 -0.144,0.02 -0.09,0 0.281,-0.01 0.372,-0.01 1.463,0.08 1.281,0.06 -0.181,-0.02 -1.941,-0.07 -2.632,0.01 -0.692,0.09 -0.957,0.159 -1.305,0.234 -0.696,0.15 -1.61,0.362 -3.486,0.797 -5.282,1.225 -9.916,2.736 -14.122,3.756 -2.082,0.505 -4.722,0.926 -7.822,1.666 -5.438,1.298 -8.579,2.773 -12.86,3.59 -4.761,0.908 -8.824,1.535 -15.11,3.646 -6.224,2.09 -10.567,4.801 -14.98,6.737 -1.819,0.798 -3.842,1.584 -6.023,2.456 -5.601,2.238 -11.461,4.426 -17.467,7.083 -4.26,1.884 -5.248,2.299 -6.483,3.029 -1.234,0.73 -1.214,0.501 -4.983,2.461 -3.228,1.679 -6.579,3.339 -10.001,5.074 -0.811,0.412 -2.329,1.006 -4.367,2.137 -3.313,1.838 -6.145,3.813 -8.703,5.562 -3.393,2.32 -7.406,4.404 -9.322,5.584 -2.111,1.302 -6.932,2.631 -10.757,4.582 -3.111,1.587 -3.951,2.289 -6.139,3.75 -2.756,1.841 -5.545,3.889 -8.237,6.286 -0.137,0.11 -0.26,0.211 -0.45,0.353 -0.576,0.428 -1.638,0.98 -2.959,3.352 -1.322,2.372 -1.381,7.986 0.492,10.722 4.549,6.652 10.915,11.809 17.422,15.315 3.931,2.119 4.921,2.278 7.252,3.775 2.488,1.597 5.858,5.877 12.427,9.703 2.137,1.245 3.698,1.86 4.457,2.26 1.636,0.863 4.452,2.818 8.516,4.318 2.612,0.964 4.305,1.166 4.853,1.317 5.005,1.374 2.642,0.484 6.543,2.195 0.674,0.295 1.483,0.676 2.377,1.086 1.058,0.566 2.489,1.442 4.619,2.389 4.592,2.039 6.232,2.092 9.534,3.207 2.5,0.844 5.006,1.789 7.519,2.808 0.261,0.106 1.842,1.258 5.147,2.592 2.174,0.878 3.816,1.145 4.75,1.352 2.56,0.566 4.375,0.803 5.554,0.873 1.179,0.07 1.349,0.03 3.795,0.369 0.338,0.05 1.381,0.32 3.168,0.648 4.433,0.815 9.004,1.757 13.764,2.598 4.935,0.872 9.579,1.585 13.947,2.518 1.901,0.406 3.045,0.569 3.383,0.664 0.59,0.164 1.899,0.72 4.016,1.408 2.441,0.794 5.347,1.696 8.875,2.064 4.786,0.499 8.251,0.227 10.504,0.506 1.254,0.156 3.117,0.598 5.65,1.004 2.608,0.418 4.574,0.598 5.836,0.865 1.199,0.254 3.865,1.55 8.338,2.426 4.644,0.909 8.602,0.757 11.631,0.807 2.811,0.05 5.822,0.365 8.976,0.787 0.264,0.07 0.513,0.13 0.877,0.207 0.521,0.11 1.086,0.236 2.078,0.322 0.497,0.04 1.078,0.102 2.172,-0.01 1.095,-0.108 3.084,0.171 6.19,-2.852 1.173,-1.145 2.009,-2.976 2.537,-4.838 -4.043,1.173 -8.177,2 -12.359,2.471 -19.862,-0.02 -38.891,-8.02 -52.862,-22.21 -0.721,-0.189 -1.221,-0.228 -2.253,-0.564 -0.848,-0.275 -2.407,-0.978 -4.822,-1.652 -2.268,-0.634 -3.833,-0.803 -4.582,-0.963 -5.133,-1.096 -10.018,-1.835 -14.644,-2.653 -4.393,-0.776 -8.92,-1.706 -13.627,-2.572 -0.621,-0.114 -1.946,-0.497 -4.034,-0.787 -3.009,-0.418 -4.795,-0.491 -5.369,-0.525 -0.573,-0.03 -0.312,0.03 -2.414,-0.434 -1.202,-0.266 -1.73,-0.432 -1.58,-0.371 -0.251,-0.102 -1.818,-1.241 -5.109,-2.576 -2.811,-1.14 -5.685,-2.227 -8.633,-3.223 -4.641,-1.567 -4.699,-1.152 -7.816,-2.537 -0.716,-0.318 -1.932,-1.032 -3.743,-1.977 -0.157,-0.08 -0.317,-0.159 -0.478,-0.232 -0.818,-0.373 -1.763,-0.824 -2.857,-1.305 -3.889,-1.705 -4.599,-1.88 -9.282,-3.166 -2.135,-0.586 -3.228,-0.793 -3.22,-0.79 -0.748,-0.276 -3.222,-1.723 -6.106,-3.245 -1.941,-1.024 -3.227,-1.565 -3.726,-1.855 -2.317,-1.35 -5.526,-5.296 -11.69,-9.253 -3.8,-2.44 -5.753,-3.035 -8.568,-4.552 -0.89,-0.48 -2.217,-1.604 -3.434,-2.545 0.763,-0.551 1.067,-0.872 2.907,-1.81 2.691,-1.373 6.453,-2.83 10.58,-5.375 3.77,-2.325 6.419,-4.655 8.523,-6.094 2.611,-1.785 4.947,-3.379 7.119,-4.584 0.576,-0.32 1.852,-0.847 3.709,-1.789 3.308,-1.678 8.309,-3.367 11.773,-5.168 4.058,-2.111 5.537,-3.068 5.402,-2.988 -0.134,0.08 0.153,-0.08 4.395,-1.958 5.3,-2.344 10.925,-4.452 16.798,-6.799 2.051,-0.819 4.282,-1.682 6.636,-2.714 5.46,-2.395 9.777,-4.729 13.843,-6.094 3.781,-1.271 8.435,-1.884 14.076,-2.959 5.799,-1.106 9.233,-2.703 13.757,-3.783 1.508,-0.36 3.604,-0.775 5.644,-1.204 13.896,-16.481 34.197,-26.126 55.687,-26.458 3.338,0.04 6.669,0.302 9.972,0.789 l -7.866,-3.319 c 0.838,0.354 -0.204,-0.619 -3.529,-1.238 -1.359,-0.253 -2.371,-0.308 -3.022,-0.299 z"
       id="path8803-6-7-66" /><path
       id="rect22783-3-8-5-4-1-8-5-9-3-3-6-8-8"
       style="display:inline;fill:none;fill-rule:evenodd;stroke:#000000;stroke-width:2;stop-color:#000000"
       d="m -17959.225,15710.375 h 250 v 185 h -250 z" /><path
       style="color:#000000;display:inline;fill:none;stroke:#000000;stroke-width:2;stroke-linecap:square;stroke-linejoin:round;stroke-dasharray:none;paint-order:markers fill stroke"
       d="m -17768.62,15732.534 c 0.665,0.01 1.969,0.08 1.969,0.08 0,0 13.516,1.544 15.049,2.499 3.538,2.206 7.286,6.993 13.097,12.268 3.322,3.015 5.254,4.524 5.798,4.806 -0.02,0.691 0.69,4.08 1.164,7.434 1.04,7.366 1.215,12.31 -1.048,16.625 0.07,-0.138 -1.158,1.135 -3.112,4.25 -1.555,2.48 -2.454,4.404 -3.006,5.426 -0.55,1.022 -0.694,1.291 -1.633,2.305 -3.47,3.746 -10.787,7.314 -18.346,11.31 -3.998,2.114 -6.053,3.423 -6.947,3.856 -0.892,0.433 -1.307,0.617 -4.605,1.173 -1.123,0.19 -4.717,-0.455 -10.439,0.69 -13.391,2.679 -19.217,8.385 -28.838,10.326 -5.965,1.204 -10.715,1.038 -19.806,3.27 -8.494,2.085 -10.691,2.892 -13.153,3.99 -2.462,1.097 -2.879,1.542 -10.426,4.25 -10.072,3.614 -15.648,5.841 -25.617,7.871 -6.302,1.283 -12.389,1.634 -20.89,3.748 -10.436,2.596 -22.729,7.42 -32.649,16.692 -1.369,1.279 -2.482,2.598 -3.756,3.9 0.05,-0.418 0.09,-0.821 0.1,-1.277 0.299,-3.634 0.05,-5.797 0.09,-6.128 -0.01,0.09 0.126,-0.651 0.246,-1.255 0.367,-0.467 0.704,-0.689 1.067,-1.342 1.854,-3.341 1.666,-4.608 1.933,-6.045 0.127,-0.686 0.261,-1.37 0.351,-1.845 0.102,0.551 1.441,-1.114 2.931,-5.901 1.985,-6.384 2.602,-11.322 4.001,-14.471 -0.06,0.136 2.745,-4.939 5.334,-8.969 1.295,-2.014 2.099,-4.001 3.194,-5.535 0.804,-1.126 1.67,-2.13 1.848,-2.372 0.247,-0.132 1.617,-0.952 3.933,-2.938 2.104,-1.804 3.28,-3.025 3.784,-3.69 0.562,-0.274 0.615,-0.263 1.515,-0.726 5.482,-2.819 5.779,-6.062 5.899,-6.158 3.628,-2.894 8.931,-6.243 12.299,-7.516 2.325,-0.879 4.105,-1.148 9.085,-4.049 2.025,-1.179 4.338,-2.737 6.703,-4.254 2.365,-1.517 3.452,-3.036 3.485,-3.051 6.453,-2.904 15.44,-4.898 24.482,-8.115 7.282,-2.591 10.618,-5.296 17.18,-8.576 5.019,-2.51 8.578,-5.138 13.601,-8.076 5.792,-3.387 12.034,-8.645 15.785,-10.217 6.244,-2.617 3.493,-1.669 12.605,-2.805 5.968,-0.744 11.078,-1.509 15.736,-1.452 z"
       id="path79551" /><path
       style="color:#000000;display:inline;fill:none;stroke:#000000;stroke-width:2;stroke-linecap:square;stroke-linejoin:round;stroke-dasharray:none;paint-order:markers fill stroke"
       d="m -17768.289,15712.532 v 0 c -0.983,-0.02 -1.949,-0.01 -2.9,0.01 l -0.01,-0.01 c -5.705,0.156 -10.855,1.008 -15.578,1.596 -7.595,0.947 -7.533,0.556 -16.19,4.184 -7.708,3.23 -13.911,8.889 -18.211,11.383 -4.497,2.607 -7.644,5.053 -12.515,7.488 -6.532,3.265 -10.386,5.439 -16.524,7.623 -7.262,2.584 -15.148,4.557 -24.397,8.719 -2.914,1.311 -5.139,2.835 -7.664,4.455 -2.524,1.619 -5.091,3.292 -5.97,3.804 -1.668,0.971 -1.281,0.804 -6.093,2.623 -6.825,2.581 -11.314,6.762 -16.11,10.588 -2.117,1.689 -3.415,2.861 -4.026,3.514 -0.761,0.287 -1.11,0.62 -2.879,1.748 -5.048,3.218 -6.285,6.097 -5.896,5.763 -0.212,0.182 -2.071,1.099 -4.783,3.673 -1.979,1.876 -2.884,3.274 -4.258,5.199 -1.375,1.925 -2.843,4.124 -4.272,6.347 -2.856,4.446 -5.183,8.052 -6.785,11.658 -3.045,6.85 -3.606,12.744 -4.822,16.653 0.373,-1.199 -1.563,0.417 -3.117,6.289 -0.488,1.843 -0.537,2.652 -0.688,3.528 -0.317,0.405 -0.592,0.563 -0.912,1.107 -2.128,3.622 -1.597,4.016 -1.892,5.322 -0.296,1.306 -0.62,2.254 -0.62,3.242 v 0.01 c 0,4.161 -0.26,6.436 -0.24,7.268 -0.258,0.718 -0.54,1.458 -0.681,2.74 -0.603,5.433 0.256,10.246 0.994,15.071 0.738,4.826 1.666,9.804 1.681,9.915 1.132,8.378 11.503,11.659 17.248,5.457 6.503,-7.023 12.082,-13.947 18.02,-19.498 4.177,-3.904 15.922,-9.929 23.821,-11.894 5.966,-1.484 11.748,-1.868 20.052,-3.559 10.979,-2.235 17.905,-4.886 28.381,-8.644 8.098,-2.906 10.304,-4.369 11.286,-4.807 0.982,-0.438 0.404,-0.793 8.72,-2.834 5.749,-1.411 11.734,-1.31 20.513,-3.082 13.441,-2.712 19.284,-8.415 28.806,-10.32 0.924,-0.185 4.29,0.357 9.851,-0.58 4.093,-0.69 7.253,-1.578 9.931,-2.877 2.679,-1.3 4.188,-2.384 7.555,-4.164 6.525,-3.45 16.054,-7.19 23.631,-15.371 2.105,-2.274 3.611,-4.636 4.567,-6.412 0.956,-1.775 1.42,-2.815 2.337,-4.278 0.187,-0.296 1.936,-1.882 3.881,-5.589 5.376,-10.25 4.299,-20.662 3.151,-28.798 -0.212,-1.489 0.541,-7.205 -3.199,-14.157 -3.788,-7.038 -9.115,-9.209 -10.128,-10.127 -3.849,-3.496 -8.22,-9.602 -15.937,-14.413 -9.061,-5.647 -18.527,-5.057 -24.132,-5.439 -1.015,-0.07 -2.013,-0.111 -2.995,-0.128 z"
       id="path8803-6-7-26" /><path
       style="font-weight:bold;font-size:22.5778px;line-height:1.25;font-family:'DejaVu Sans';-inkscape-font-specification:'DejaVu Sans, Bold';fill:none;stroke:#000000;stroke-width:2;stroke-dasharray:none"
       d="m -17945.608,16754.079 c 2.646,0 4.719,0.757 6.218,2.271 1.499,1.514 2.249,3.605 2.249,6.273 0,2.661 -0.75,4.748 -2.249,6.262 -1.499,1.514 -3.572,2.271 -6.218,2.271 -2.639,0 -4.711,-0.757 -6.218,-2.271 -1.499,-1.514 -2.249,-3.601 -2.249,-6.262 0,-2.668 0.75,-4.759 2.249,-6.273 1.507,-1.514 3.579,-2.271 6.218,-2.271 z"
       id="path79757" /><path
       style="font-weight:bold;font-size:22.5778px;line-height:1.25;font-family:'DejaVu Sans';-inkscape-font-specification:'DejaVu Sans, Bold';fill:none;stroke:#000000;stroke-width:2;stroke-dasharray:none"
       d="m -17945.608,16757.155 c -1.293,0 -2.297,0.478 -3.01,1.433 -0.713,0.955 -1.069,2.3 -1.069,4.035 0,1.727 0.356,3.069 1.069,4.024 0.713,0.955 1.717,1.433 3.01,1.433 1.301,0 2.308,-0.478 3.021,-1.433 0.713,-0.955 1.069,-2.297 1.069,-4.024 0,-1.735 -0.356,-3.08 -1.069,-4.035 -0.713,-0.955 -1.72,-1.433 -3.021,-1.433 z"
       id="path61447" /><path
       style="font-weight:bold;font-size:22.5778px;line-height:1.25;font-family:'DejaVu Sans';-inkscape-font-specification:'DejaVu Sans, Bold';fill:none;stroke:#000000;stroke-width:2;stroke-dasharray:none"
       d="m -17921.377,16762.62 c 0,2.727 -0.588,4.832 -1.764,6.317 -1.175,1.477 -2.844,2.216 -5.005,2.216 -2.168,0 -3.84,-0.739 -5.016,-2.216 -1.176,-1.485 -1.764,-3.59 -1.764,-6.317 0,-2.734 0.588,-4.84 1.764,-6.317 1.176,-1.485 2.848,-2.227 5.016,-2.227 2.161,0 3.83,0.742 5.005,2.227 1.176,1.477 1.764,3.583 1.764,6.317 z"
       id="path79761" /><path
       style="font-weight:bold;font-size:22.5778px;line-height:1.25;font-family:'DejaVu Sans';-inkscape-font-specification:'DejaVu Sans, Bold';fill:none;stroke:#000000;stroke-width:2;stroke-dasharray:none"
       d="m -17925.621,16762.59 c 0,-2.058 -0.195,-3.506 -0.584,-4.344 -0.383,-0.845 -1.03,-1.268 -1.941,-1.268 -0.911,0 -1.562,0.423 -1.951,1.268 -0.389,0.838 -0.584,2.286 -0.584,4.344 0,2.08 0.195,3.546 0.584,4.398 0.389,0.853 1.04,1.279 1.951,1.279 0.904,0 1.551,-0.426 1.941,-1.279 0.389,-0.852 0.584,-2.318 0.584,-4.398 z"
       id="path61449" /><path
       style="font-weight:bold;font-size:22.5778px;line-height:1.25;font-family:'DejaVu Sans';-inkscape-font-specification:'DejaVu Sans, Bold';fill:none;stroke:#000000;stroke-width:2;stroke-dasharray:none"
       d="m -17917.65,16767.903 h 3.748 v -10.638 l -3.848,0.794 v -2.889 l 3.826,-0.793 h 4.035 v 13.526 h 3.748 v 2.933 h -11.509 z"
       id="path61451" /><path
       style="font-weight:bold;font-size:22.5778px;line-height:1.25;font-family:'DejaVu Sans';-inkscape-font-specification:'DejaVu Sans, Bold';fill:none;stroke:#000000;stroke-width:2;stroke-dasharray:none"
       d="m -17945.608,17462.595 c 2.646,0 4.719,0.757 6.218,2.271 1.499,1.514 2.249,3.605 2.249,6.272 0,2.661 -0.75,4.748 -2.249,6.262 -1.499,1.514 -3.572,2.271 -6.218,2.271 -2.639,0 -4.711,-0.757 -6.218,-2.271 -1.499,-1.514 -2.249,-3.601 -2.249,-6.262 0,-2.667 0.75,-4.758 2.249,-6.272 1.507,-1.514 3.579,-2.271 6.218,-2.271 z"
       id="path79821" /><path
       style="font-weight:bold;font-size:22.5778px;line-height:1.25;font-family:'DejaVu Sans';-inkscape-font-specification:'DejaVu Sans, Bold';fill:none;stroke:#000000;stroke-width:2;stroke-dasharray:none"
       d="m -17945.608,17465.67 c -1.293,0 -2.297,0.478 -3.01,1.434 -0.713,0.955 -1.069,2.3 -1.069,4.034 0,1.727 0.356,3.069 1.069,4.024 0.713,0.955 1.717,1.433 3.01,1.433 1.301,0 2.308,-0.478 3.021,-1.433 0.713,-0.955 1.069,-2.297 1.069,-4.024 0,-1.734 -0.356,-3.079 -1.069,-4.034 -0.713,-0.956 -1.72,-1.434 -3.021,-1.434 z"
       id="path61489" /><path
       style="font-weight:bold;font-size:22.5778px;line-height:1.25;font-family:'DejaVu Sans';-inkscape-font-specification:'DejaVu Sans, Bold';fill:none;stroke:#000000;stroke-width:2;stroke-dasharray:none"
       d="m -17921.377,17471.135 c 0,2.727 -0.588,4.832 -1.764,6.317 -1.175,1.477 -2.844,2.216 -5.005,2.216 -2.168,0 -3.84,-0.739 -5.016,-2.216 -1.176,-1.485 -1.764,-3.59 -1.764,-6.317 0,-2.734 0.588,-4.839 1.764,-6.316 1.176,-1.485 2.848,-2.227 5.016,-2.227 2.161,0 3.83,0.742 5.005,2.227 1.176,1.477 1.764,3.582 1.764,6.316 z"
       id="path79825" /><path
       style="font-weight:bold;font-size:22.5778px;line-height:1.25;font-family:'DejaVu Sans';-inkscape-font-specification:'DejaVu Sans, Bold';fill:none;stroke:#000000;stroke-width:2;stroke-dasharray:none"
       d="m -17925.621,17471.105 c 0,-2.057 -0.195,-3.505 -0.584,-4.343 -0.383,-0.845 -1.03,-1.268 -1.941,-1.268 -0.911,0 -1.562,0.423 -1.951,1.268 -0.389,0.838 -0.584,2.286 -0.584,4.343 0,2.08 0.195,3.546 0.584,4.399 0.389,0.853 1.04,1.279 1.951,1.279 0.904,0 1.551,-0.426 1.941,-1.279 0.389,-0.853 0.584,-2.319 0.584,-4.399 z"
       id="path61491" /><path
       style="font-weight:bold;font-size:22.5778px;line-height:1.25;font-family:'DejaVu Sans';-inkscape-font-specification:'DejaVu Sans, Bold';fill:none;stroke:#000000;stroke-width:2;stroke-dasharray:none"
       d="m -17918.786,17462.892 h 12.402 v 2.393 l -6.416,14.067 h -4.134 l 6.075,-13.34 h -7.927 z"
       id="path61493" /><path
       style="font-weight:bold;font-size:22.5778px;line-height:1.25;font-family:'DejaVu Sans';-inkscape-font-specification:'DejaVu Sans, Bold';fill:none;stroke:#000000;stroke-width:2;stroke-dasharray:none"
       d="m -17853.252,16099.004 h 11.455 v 3.208 h -7.21 v 3.064 h 6.78 v 3.208 h -6.78 v 3.771 h 7.452 v 3.208 h -11.697 z"
       id="path61699" /><path
       style="font-weight:bold;font-size:22.5778px;line-height:1.25;font-family:'DejaVu Sans';-inkscape-font-specification:'DejaVu Sans, Bold';fill:none;stroke:#000000;stroke-width:2;stroke-dasharray:none"
       d="m -17829.384,16106.588 c 1.11,0.287 1.952,0.787 2.525,1.5 0.58,0.705 0.87,1.606 0.87,2.701 0,1.631 -0.625,2.873 -1.874,3.726 -1.249,0.845 -3.072,1.268 -5.468,1.268 -0.845,0 -1.694,-0.07 -2.546,-0.21 -0.845,-0.132 -1.683,-0.334 -2.514,-0.606 v -3.274 c 0.794,0.397 1.58,0.698 2.359,0.904 0.787,0.198 1.558,0.297 2.315,0.297 1.125,0 1.985,-0.195 2.58,-0.584 0.603,-0.389 0.904,-0.948 0.904,-1.676 0,-0.749 -0.309,-1.315 -0.926,-1.698 -0.61,-0.389 -1.514,-0.584 -2.712,-0.584 h -1.698 v -2.734 h 1.786 c 1.066,0 1.86,-0.165 2.382,-0.496 0.521,-0.338 0.782,-0.849 0.782,-1.532 0,-0.632 -0.253,-1.121 -0.76,-1.467 -0.507,-0.345 -1.224,-0.518 -2.15,-0.518 -0.683,0 -1.374,0.08 -2.073,0.232 -0.698,0.154 -1.392,0.382 -2.083,0.683 v -3.109 c 0.837,-0.235 1.668,-0.411 2.491,-0.529 0.823,-0.117 1.632,-0.176 2.426,-0.176 2.139,0 3.737,0.353 4.795,1.058 1.066,0.699 1.599,1.753 1.599,3.164 0,0.963 -0.254,1.753 -0.761,2.37 -0.507,0.61 -1.257,1.04 -2.249,1.29 z"
       id="path61701" /><path
       style="font-weight:bold;font-size:22.5778px;line-height:1.25;font-family:'DejaVu Sans';-inkscape-font-specification:'DejaVu Sans, Bold';fill:none;stroke:#000000;stroke-width:2;stroke-dasharray:none"
       d="m -17818.437,16103.402 c 0,0.654 0.18,1.158 0.54,1.511 0.368,0.353 0.89,0.529 1.566,0.529 0.661,0 1.172,-0.176 1.532,-0.529 0.36,-0.353 0.54,-0.857 0.54,-1.511 0,-0.654 -0.18,-1.154 -0.54,-1.499 -0.36,-0.353 -0.871,-0.529 -1.532,-0.529 -0.676,0 -1.198,0.176 -1.566,0.529 -0.36,0.353 -0.54,0.852 -0.54,1.499 z"
       id="path80065" /><path
       style="font-weight:bold;font-size:22.5778px;line-height:1.25;font-family:'DejaVu Sans';-inkscape-font-specification:'DejaVu Sans, Bold';fill:none;stroke:#000000;stroke-width:2;stroke-dasharray:none"
       d="m -17819.429,16106.699 c -0.999,-0.301 -1.753,-0.765 -2.26,-1.39 -0.507,-0.625 -0.761,-1.404 -0.761,-2.337 0,-1.389 0.518,-2.447 1.555,-3.175 1.036,-0.727 2.557,-1.091 4.564,-1.091 1.991,0 3.505,0.364 4.542,1.091 1.036,0.721 1.554,1.779 1.554,3.175 0,0.933 -0.257,1.712 -0.771,2.337 -0.507,0.625 -1.261,1.089 -2.26,1.39 1.117,0.309 1.958,0.812 2.524,1.51 0.573,0.691 0.86,1.565 0.86,2.624 0,1.631 -0.544,2.866 -1.632,3.704 -1.08,0.831 -2.686,1.246 -4.817,1.246 -2.139,0 -3.756,-0.415 -4.851,-1.246 -1.088,-0.838 -1.632,-2.073 -1.632,-3.704 0,-1.059 0.283,-1.933 0.849,-2.624 0.573,-0.698 1.419,-1.201 2.536,-1.51 z"
       id="path80063" /><path
       style="font-weight:bold;font-size:22.5778px;line-height:1.25;font-family:'DejaVu Sans';-inkscape-font-specification:'DejaVu Sans, Bold';fill:none;stroke:#000000;stroke-width:2;stroke-dasharray:none"
       d="m -17816.331,16108.099 c -0.794,0 -1.404,0.217 -1.83,0.65 -0.427,0.434 -0.64,1.055 -0.64,1.863 0,0.809 0.213,1.43 0.64,1.863 0.426,0.427 1.036,0.64 1.83,0.64 0.786,0 1.389,-0.213 1.808,-0.64 0.419,-0.433 0.628,-1.054 0.628,-1.863 0,-0.816 -0.209,-1.437 -0.628,-1.863 -0.419,-0.433 -1.022,-0.65 -1.808,-0.65 z"
       id="path61703" /><path
       style="font-weight:bold;font-size:22.5778px;line-height:1.25;font-family:'DejaVu Sans';-inkscape-font-specification:'DejaVu Sans, Bold';fill:none;stroke:#000000;stroke-width:2;stroke-dasharray:none"
       d="m -17908.517,15717.068 h 11.454 v 3.208 h -7.21 v 3.065 h 6.78 v 3.208 h -6.78 v 3.77 h 7.453 v 3.208 h -11.697 z"
       id="path61713" /><path
       style="font-weight:bold;font-size:22.5778px;line-height:1.25;font-family:'DejaVu Sans';-inkscape-font-specification:'DejaVu Sans, Bold';fill:none;stroke:#000000;stroke-width:2;stroke-dasharray:none"
       d="m -17884.65,15724.653 c 1.11,0.287 1.952,0.786 2.525,1.499 0.581,0.705 0.871,1.606 0.871,2.701 0,1.631 -0.625,2.873 -1.874,3.726 -1.249,0.845 -3.072,1.268 -5.468,1.268 -0.845,0 -1.694,-0.07 -2.547,-0.209 -0.845,-0.133 -1.683,-0.335 -2.513,-0.607 v -3.274 c 0.793,0.397 1.58,0.698 2.359,0.904 0.786,0.199 1.558,0.298 2.315,0.298 1.125,0 1.985,-0.195 2.58,-0.585 0.603,-0.389 0.904,-0.948 0.904,-1.675 0,-0.75 -0.309,-1.316 -0.927,-1.698 -0.61,-0.389 -1.514,-0.584 -2.712,-0.584 h -1.697 v -2.734 h 1.786 c 1.065,0 1.859,-0.165 2.381,-0.496 0.522,-0.339 0.783,-0.85 0.783,-1.533 0,-0.632 -0.254,-1.121 -0.761,-1.466 -0.507,-0.345 -1.224,-0.518 -2.15,-0.518 -0.683,0 -1.374,0.08 -2.072,0.231 -0.699,0.155 -1.393,0.383 -2.084,0.684 v -3.109 c 0.838,-0.235 1.669,-0.412 2.492,-0.529 0.823,-0.118 1.631,-0.177 2.425,-0.177 2.139,0 3.737,0.353 4.795,1.059 1.066,0.698 1.599,1.753 1.599,3.164 0,0.963 -0.254,1.753 -0.761,2.37 -0.507,0.61 -1.256,1.04 -2.249,1.29 z"
       id="path61715" /><path
       style="font-weight:bold;font-size:22.5778px;line-height:1.25;font-family:'DejaVu Sans';-inkscape-font-specification:'DejaVu Sans, Bold';fill:none;stroke:#000000;stroke-width:2;stroke-dasharray:none"
       d="m -17877.065,15717.068 h 10.55 v 3.12 h -7.165 v 2.547 c 0.323,-0.09 0.647,-0.155 0.97,-0.199 0.331,-0.05 0.672,-0.08 1.025,-0.08 2.007,0 3.568,0.503 4.685,1.51 1.117,1 1.676,2.397 1.676,4.19 0,1.778 -0.61,3.171 -1.83,4.178 -1.213,1.007 -2.899,1.51 -5.06,1.51 -0.933,0 -1.859,-0.09 -2.778,-0.276 -0.911,-0.176 -1.819,-0.448 -2.723,-0.815 v -3.341 c 0.897,0.515 1.745,0.901 2.546,1.158 0.809,0.257 1.569,0.386 2.282,0.386 1.029,0 1.838,-0.25 2.426,-0.75 0.595,-0.507 0.893,-1.191 0.893,-2.05 0,-0.867 -0.298,-1.551 -0.893,-2.051 -0.588,-0.5 -1.397,-0.75 -2.426,-0.75 -0.61,0 -1.26,0.08 -1.951,0.243 -0.691,0.154 -1.433,0.396 -2.227,0.727 z"
       id="path61717" /><path
       style="font-weight:bold;font-size:22.5778px;line-height:1.25;font-family:'DejaVu Sans';-inkscape-font-specification:'DejaVu Sans, Bold';fill:none;stroke:#000000;stroke-width:2;stroke-dasharray:none"
       d="m -17953.869,15922.285 h 11.454 v 3.208 h -7.209 v 3.065 h 6.779 v 3.208 h -6.779 v 3.77 h 7.452 v 3.208 h -11.697 z"
       id="path61720" /><path
       style="font-weight:bold;font-size:22.5778px;line-height:1.25;font-family:'DejaVu Sans';-inkscape-font-specification:'DejaVu Sans, Bold';fill:none;stroke:#000000;stroke-width:2;stroke-dasharray:none"
       d="m -17930.001,15929.87 c 1.109,0.287 1.951,0.786 2.524,1.499 0.581,0.705 0.871,1.606 0.871,2.701 0,1.631 -0.625,2.873 -1.874,3.726 -1.249,0.845 -3.072,1.268 -5.468,1.268 -0.845,0 -1.694,-0.07 -2.547,-0.21 -0.845,-0.132 -1.682,-0.334 -2.513,-0.606 v -3.274 c 0.794,0.397 1.58,0.698 2.359,0.904 0.787,0.198 1.558,0.297 2.315,0.297 1.125,0 1.985,-0.195 2.58,-0.584 0.603,-0.389 0.904,-0.948 0.904,-1.676 0,-0.749 -0.309,-1.315 -0.926,-1.697 -0.61,-0.39 -1.514,-0.585 -2.712,-0.585 h -1.698 v -2.734 h 1.786 c 1.066,0 1.86,-0.165 2.381,-0.496 0.522,-0.338 0.783,-0.849 0.783,-1.532 0,-0.632 -0.254,-1.121 -0.761,-1.466 -0.507,-0.345 -1.223,-0.518 -2.149,-0.518 -0.684,0 -1.375,0.08 -2.073,0.231 -0.698,0.155 -1.392,0.383 -2.083,0.684 v -3.109 c 0.837,-0.235 1.668,-0.412 2.491,-0.529 0.823,-0.118 1.632,-0.177 2.425,-0.177 2.139,0 3.737,0.353 4.796,1.059 1.065,0.698 1.598,1.752 1.598,3.163 0,0.963 -0.253,1.754 -0.76,2.371 -0.507,0.61 -1.257,1.04 -2.249,1.29 z"
       id="path61722" /><path
       style="font-weight:bold;font-size:22.5778px;line-height:1.25;font-family:'DejaVu Sans';-inkscape-font-specification:'DejaVu Sans, Bold';fill:none;stroke:#000000;stroke-width:2;stroke-dasharray:none"
       d="m -17911.392,15922.715 v 3.042 c -0.698,-0.331 -1.356,-0.573 -1.973,-0.727 -0.618,-0.162 -1.221,-0.243 -1.808,-0.243 -1.265,0 -2.25,0.353 -2.955,1.059 -0.705,0.698 -1.117,1.738 -1.235,3.12 0.485,-0.361 1.011,-0.629 1.577,-0.805 0.566,-0.184 1.183,-0.276 1.852,-0.276 1.683,0 3.039,0.492 4.068,1.477 1.036,0.985 1.554,2.275 1.554,3.87 0,1.764 -0.577,3.179 -1.731,4.244 -1.153,1.059 -2.7,1.588 -4.641,1.588 -2.139,0 -3.796,-0.72 -4.972,-2.161 -1.169,-1.448 -1.753,-3.498 -1.753,-6.151 0,-2.719 0.684,-4.855 2.051,-6.406 1.374,-1.558 3.255,-2.337 5.644,-2.337 0.757,0 1.492,0.06 2.205,0.177 0.713,0.117 1.419,0.294 2.117,0.529 z"
       id="path80085" /><path
       style="font-weight:bold;font-size:22.5778px;line-height:1.25;font-family:'DejaVu Sans';-inkscape-font-specification:'DejaVu Sans, Bold';fill:none;stroke:#000000;stroke-width:2;stroke-dasharray:none"
       d="m -17916.64,15930.619 c -0.742,0 -1.3,0.243 -1.675,0.728 -0.368,0.477 -0.552,1.198 -0.552,2.161 0,0.963 0.184,1.686 0.552,2.171 0.375,0.478 0.933,0.717 1.675,0.717 0.75,0 1.309,-0.239 1.676,-0.717 0.375,-0.485 0.562,-1.208 0.562,-2.171 0,-0.963 -0.187,-1.684 -0.562,-2.161 -0.367,-0.485 -0.926,-0.728 -1.676,-0.728 z"
       id="path61724" /><path
       id="rect22783-5-3-5"
       style="display:inline;opacity:1;fill:none;fill-rule:evenodd;stroke:#000000;stroke-width:2;stop-color:#000000;stop-opacity:1"
       d="m -17698.643,17796.793 h 125 v 602.142 h -125 z" /><path
       style="color:#000000;display:inline;fill:none;stroke:#000000;stroke-width:2;stroke-linecap:square;stroke-linejoin:round;stroke-dasharray:none;paint-order:markers fill stroke"
       d="m -17595.652,17796.799 c -7.471,20.102 -13.744,40.847 -16.632,62.838 -6.008,25.623 -8.738,45.81 -16.267,77.367 -0.05,0.189 -0.08,0.379 -0.118,0.57 -10.103,56.795 -30.004,112.978 -36.904,172.893 -0.04,0.336 -0.06,0.673 -0.06,1.011 -0.555,42.445 -18.289,85.258 -18.229,132.991 l 0.01,-0.479 c -2.378,50.97 -12.143,102.377 -14.579,154.949 h 23.371 l 0.07,-0.371 -3.349,-0.601 c 2.506,-50.052 12.032,-100.835 14.468,-153.043 0,-0.16 0.01,-0.319 0.01,-0.479 -0.05,-42.211 17.341,-84.64 18.176,-131.795 6.554,-56.768 26.136,-112.411 36.635,-171.189 7.72,-32.396 10.494,-52.843 16.316,-77.594 0.08,-0.336 0.141,-0.675 0.186,-1.017 2.892,-22.572 9.9,-44.384 18.331,-66.051 z"
       id="path6707-2-4-75" /><path
       id="rect22783-5-3-5-2"
       style="display:inline;fill:none;fill-rule:evenodd;stroke:#000000;stroke-width:2;stop-color:#000000"
       d="m -17699.221,18409.516 h 125 v 217.509 h -125 z" /><path
       style="color:#000000;display:inline;fill:none;stroke:#000000;stroke-width:2;stroke-linecap:square;stroke-linejoin:round;stroke-dasharray:none;paint-order:markers fill stroke"
       d="m -17654.966,18415.17 -18.894,6.561 3.281,9.447 c 8.937,25.739 3.829,6.119 6.789,25.809 0.581,3.864 1.346,7.354 1.922,10.537 0.523,2.886 1.653,9.272 2.775,15.424 1.123,6.152 2.09,11.541 2.848,14.605 1.287,5.203 3,9.938 4.576,14.344 1.554,4.345 3.29,8.161 4.676,11.652 1.958,4.936 7.298,18.663 8.496,22.323 1.273,3.894 3.467,13.261 3.994,17.166 0.01,0.123 0.02,0.256 0.04,0.453 0.04,0.502 0.106,1.221 0.18,2.09 0.149,1.736 0.348,4.068 0.553,6.474 0.408,4.813 0.85,10.09 0.926,11.103 0.214,2.864 0.09,4.66 0.867,8.237 0.671,3.107 2.051,5.65 2.957,7.137 0.444,0.73 0.746,1.218 0.971,1.597 -0.05,0.121 0.216,1.185 0.857,3.231 l 2.988,9.543 19.086,-5.975 -2.988,-9.543 c 0.414,1.325 0.598,-0.184 -0.973,-3.974 -1.083,-2.615 -2.324,-4.405 -2.855,-5.278 -0.532,-0.873 -0.442,-0.737 -0.49,-0.959 -0.447,-2.069 -0.186,-1.688 -0.471,-5.502 -0.114,-1.524 -0.534,-6.482 -0.943,-11.305 -0.205,-2.412 -0.403,-4.747 -0.553,-6.492 -0.08,-0.872 -0.137,-1.596 -0.182,-2.111 -0.02,-0.257 -0.04,-0.462 -0.06,-0.613 0,-0.07 -0.01,-0.136 -0.02,-0.193 0,-0.05 0.05,0.233 -0.06,-0.503 -0.837,-6.282 -2.913,-14.968 -4.82,-20.8 -1.884,-5.757 -6.91,-18.428 -8.914,-23.479 -1.618,-4.075 -3.246,-7.687 -4.434,-11.008 -1.577,-4.411 -3.03,-8.521 -3.992,-12.41 -0.231,-0.932 -1.476,-7.307 -2.586,-13.39 -1.11,-6.083 -2.23,-12.404 -2.773,-15.401 -0.661,-3.651 -1.375,-6.95 -1.826,-9.951 -2.764,-18.386 1.049,-4.274 -7.674,-29.396 z"
       id="path6707-2-4-08" /><path
       style="font-weight:bold;font-size:22.5778px;line-height:1.25;font-family:'DejaVu Sans';-inkscape-font-specification:'DejaVu Sans, Bold';fill:none;stroke:#000000;stroke-width:2;stroke-dasharray:none"
       d="m -17685.026,17802.083 c 2.646,0 4.719,0.757 6.218,2.271 1.499,1.514 2.249,3.605 2.249,6.273 0,2.661 -0.75,4.748 -2.249,6.262 -1.499,1.514 -3.572,2.271 -6.218,2.271 -2.639,0 -4.711,-0.757 -6.218,-2.271 -1.499,-1.514 -2.249,-3.601 -2.249,-6.262 0,-2.668 0.75,-4.759 2.249,-6.273 1.507,-1.514 3.579,-2.271 6.218,-2.271 z"
       id="path80205" /><path
       style="font-weight:bold;font-size:22.5778px;line-height:1.25;font-family:'DejaVu Sans';-inkscape-font-specification:'DejaVu Sans, Bold';fill:none;stroke:#000000;stroke-width:2;stroke-dasharray:none"
       d="m -17685.026,17805.159 c -1.293,0 -2.297,0.478 -3.01,1.433 -0.713,0.955 -1.069,2.3 -1.069,4.035 0,1.727 0.356,3.068 1.069,4.024 0.713,0.955 1.717,1.433 3.01,1.433 1.301,0 2.308,-0.478 3.021,-1.433 0.713,-0.956 1.069,-2.297 1.069,-4.024 0,-1.735 -0.356,-3.08 -1.069,-4.035 -0.713,-0.955 -1.72,-1.433 -3.021,-1.433 z"
       id="path61811" /><path
       style="font-weight:bold;font-size:22.5778px;line-height:1.25;font-family:'DejaVu Sans';-inkscape-font-specification:'DejaVu Sans, Bold';fill:none;stroke:#000000;stroke-width:2;stroke-dasharray:none"
       d="m -17668.92,17815.72 h 7.243 v 3.12 h -11.961 v -3.12 l 6.008,-5.303 c 0.537,-0.485 0.934,-0.959 1.191,-1.422 0.257,-0.463 0.386,-0.944 0.386,-1.444 0,-0.772 -0.261,-1.393 -0.783,-1.863 -0.515,-0.471 -1.202,-0.706 -2.061,-0.706 -0.662,0 -1.386,0.143 -2.172,0.43 -0.787,0.279 -1.628,0.698 -2.525,1.257 v -3.616 c 0.955,-0.316 1.9,-0.555 2.833,-0.717 0.934,-0.169 1.849,-0.253 2.745,-0.253 1.97,0 3.499,0.434 4.587,1.301 1.095,0.867 1.642,2.076 1.642,3.627 0,0.897 -0.231,1.734 -0.694,2.513 -0.463,0.772 -1.437,1.808 -2.922,3.109 z"
       id="path61813" /><path
       style="font-weight:bold;font-size:22.5778px;line-height:1.25;font-family:'DejaVu Sans';-inkscape-font-specification:'DejaVu Sans, Bold';fill:none;stroke:#000000;stroke-width:2;stroke-dasharray:none"
       d="m -17658.204,17802.381 h 12.402 v 2.392 l -6.416,14.067 h -4.134 l 6.075,-13.34 h -7.927 z"
       id="path61815" /><path
       style="font-weight:bold;font-size:22.5778px;line-height:1.25;font-family:'DejaVu Sans';-inkscape-font-specification:'DejaVu Sans, Bold';fill:none;stroke:#000000;stroke-width:2;stroke-dasharray:none"
       d="m -17685.026,16602.888 c 2.646,0 4.719,0.757 6.218,2.271 1.499,1.514 2.249,3.605 2.249,6.272 0,2.661 -0.75,4.748 -2.249,6.262 -1.499,1.514 -3.572,2.271 -6.218,2.271 -2.639,0 -4.711,-0.757 -6.218,-2.271 -1.499,-1.514 -2.249,-3.601 -2.249,-6.262 0,-2.667 0.75,-4.758 2.249,-6.272 1.507,-1.514 3.579,-2.271 6.218,-2.271 z"
       id="path80213" /><path
       style="font-weight:bold;font-size:22.5778px;line-height:1.25;font-family:'DejaVu Sans';-inkscape-font-specification:'DejaVu Sans, Bold';fill:none;stroke:#000000;stroke-width:2;stroke-dasharray:none"
       d="m -17685.026,16605.963 c -1.293,0 -2.297,0.478 -3.01,1.434 -0.713,0.955 -1.069,2.3 -1.069,4.034 0,1.727 0.356,3.069 1.069,4.024 0.713,0.955 1.717,1.433 3.01,1.433 1.301,0 2.308,-0.478 3.021,-1.433 0.713,-0.955 1.069,-2.297 1.069,-4.024 0,-1.734 -0.356,-3.079 -1.069,-4.034 -0.713,-0.956 -1.72,-1.434 -3.021,-1.434 z"
       id="path61818" /><path
       style="font-weight:bold;font-size:22.5778px;line-height:1.25;font-family:'DejaVu Sans';-inkscape-font-specification:'DejaVu Sans, Bold';fill:none;stroke:#000000;stroke-width:2;stroke-dasharray:none"
       d="m -17668.92,16616.525 h 7.243 v 3.12 h -11.961 v -3.12 l 6.008,-5.303 c 0.537,-0.485 0.934,-0.959 1.191,-1.422 0.257,-0.463 0.386,-0.945 0.386,-1.444 0,-0.772 -0.261,-1.393 -0.783,-1.863 -0.515,-0.471 -1.202,-0.706 -2.061,-0.706 -0.662,0 -1.386,0.143 -2.172,0.43 -0.787,0.279 -1.628,0.698 -2.525,1.257 v -3.616 c 0.955,-0.316 1.9,-0.555 2.833,-0.717 0.934,-0.169 1.849,-0.253 2.745,-0.253 1.97,0 3.499,0.433 4.587,1.3 1.095,0.867 1.642,2.076 1.642,3.627 0,0.897 -0.231,1.735 -0.694,2.514 -0.463,0.772 -1.437,1.808 -2.922,3.109 z"
       id="path61820" /><path
       style="font-weight:bold;font-size:22.5778px;line-height:1.25;font-family:'DejaVu Sans';-inkscape-font-specification:'DejaVu Sans, Bold';fill:none;stroke:#000000;stroke-width:2;stroke-dasharray:none"
       d="m -17652.218,16611.354 c 0.743,0 1.301,-0.239 1.676,-0.716 0.375,-0.485 0.562,-1.209 0.562,-2.172 0,-0.955 -0.187,-1.676 -0.562,-2.161 -0.375,-0.485 -0.933,-0.727 -1.676,-0.727 -0.742,0 -1.3,0.242 -1.675,0.727 -0.375,0.485 -0.563,1.206 -0.563,2.161 0,0.963 0.188,1.687 0.563,2.172 0.375,0.477 0.933,0.716 1.675,0.716 z"
       id="path80219" /><path
       style="font-weight:bold;font-size:22.5778px;line-height:1.25;font-family:'DejaVu Sans';-inkscape-font-specification:'DejaVu Sans, Bold';fill:none;stroke:#000000;stroke-width:2;stroke-dasharray:none"
       d="m -17657.454,16619.281 v -3.043 c 0.676,0.316 1.323,0.555 1.94,0.717 0.617,0.154 1.227,0.231 1.83,0.231 1.264,0 2.249,-0.349 2.955,-1.047 0.705,-0.706 1.12,-1.75 1.245,-3.131 -0.499,0.367 -1.032,0.643 -1.598,0.827 -0.566,0.183 -1.18,0.275 -1.841,0.275 -1.683,0 -3.043,-0.489 -4.079,-1.466 -1.029,-0.985 -1.544,-2.278 -1.544,-3.88 0,-1.771 0.573,-3.19 1.72,-4.256 1.154,-1.065 2.697,-1.598 4.63,-1.598 2.146,0 3.807,0.724 4.983,2.171 1.176,1.448 1.764,3.495 1.764,6.141 0,2.719 -0.687,4.858 -2.061,6.416 -1.375,1.551 -3.26,2.326 -5.656,2.326 -0.771,0 -1.51,-0.06 -2.216,-0.176 -0.705,-0.111 -1.396,-0.28 -2.072,-0.507 z"
       id="path61822" /><path
       style="font-weight:bold;font-size:22.5778px;line-height:1.25;font-family:'DejaVu Sans';-inkscape-font-specification:'DejaVu Sans, Bold';fill:none;stroke:#000000;stroke-width:2;stroke-dasharray:none"
       d="m -17685.026,15609.13 c 2.646,0 4.719,0.757 6.218,2.271 1.499,1.514 2.249,3.605 2.249,6.273 0,2.66 -0.75,4.747 -2.249,6.261 -1.499,1.514 -3.572,2.271 -6.218,2.271 -2.639,0 -4.711,-0.757 -6.218,-2.271 -1.499,-1.514 -2.249,-3.601 -2.249,-6.261 0,-2.668 0.75,-4.759 2.249,-6.273 1.507,-1.514 3.579,-2.271 6.218,-2.271 z"
       id="path80223" /><path
       style="font-weight:bold;font-size:22.5778px;line-height:1.25;font-family:'DejaVu Sans';-inkscape-font-specification:'DejaVu Sans, Bold';fill:none;stroke:#000000;stroke-width:2;stroke-dasharray:none"
       d="m -17685.026,15612.206 c -1.293,0 -2.297,0.478 -3.01,1.433 -0.713,0.955 -1.069,2.3 -1.069,4.035 0,1.727 0.356,3.068 1.069,4.023 0.713,0.956 1.717,1.434 3.01,1.434 1.301,0 2.308,-0.478 3.021,-1.434 0.713,-0.955 1.069,-2.296 1.069,-4.023 0,-1.735 -0.356,-3.08 -1.069,-4.035 -0.713,-0.955 -1.72,-1.433 -3.021,-1.433 z"
       id="path61825" /><path
       style="font-weight:bold;font-size:22.5778px;line-height:1.25;font-family:'DejaVu Sans';-inkscape-font-specification:'DejaVu Sans, Bold';fill:none;stroke:#000000;stroke-width:2;stroke-dasharray:none"
       d="m -17668.92,15622.767 h 7.243 v 3.12 h -11.961 v -3.12 l 6.008,-5.303 c 0.537,-0.485 0.934,-0.959 1.191,-1.422 0.257,-0.463 0.386,-0.945 0.386,-1.444 0,-0.772 -0.261,-1.393 -0.783,-1.863 -0.515,-0.471 -1.202,-0.706 -2.061,-0.706 -0.662,0 -1.386,0.143 -2.172,0.43 -0.787,0.279 -1.628,0.698 -2.525,1.257 v -3.616 c 0.955,-0.316 1.9,-0.555 2.833,-0.717 0.934,-0.169 1.849,-0.253 2.745,-0.253 1.97,0 3.499,0.434 4.587,1.301 1.095,0.867 1.642,2.076 1.642,3.627 0,0.897 -0.231,1.734 -0.694,2.513 -0.463,0.772 -1.437,1.808 -2.922,3.109 z"
       id="path61827" /><path
       style="font-weight:bold;font-size:22.5778px;line-height:1.25;font-family:'DejaVu Sans';-inkscape-font-specification:'DejaVu Sans, Bold';fill:none;stroke:#000000;stroke-width:2;stroke-dasharray:none"
       d="m -17653.96,15613.826 c 0,0.654 0.18,1.157 0.541,1.51 0.367,0.353 0.889,0.53 1.565,0.53 0.661,0 1.172,-0.177 1.533,-0.53 0.36,-0.353 0.54,-0.856 0.54,-1.51 0,-0.654 -0.18,-1.154 -0.54,-1.499 -0.361,-0.353 -0.872,-0.529 -1.533,-0.529 -0.676,0 -1.198,0.176 -1.565,0.529 -0.361,0.353 -0.541,0.852 -0.541,1.499 z"
       id="path80231" /><path
       style="font-weight:bold;font-size:22.5778px;line-height:1.25;font-family:'DejaVu Sans';-inkscape-font-specification:'DejaVu Sans, Bold';fill:none;stroke:#000000;stroke-width:2;stroke-dasharray:none"
       d="m -17654.952,15617.122 c -0.999,-0.301 -1.753,-0.764 -2.26,-1.389 -0.507,-0.625 -0.76,-1.404 -0.76,-2.337 0,-1.389 0.518,-2.447 1.554,-3.175 1.036,-0.727 2.557,-1.091 4.564,-1.091 1.992,0 3.506,0.364 4.542,1.091 1.037,0.721 1.555,1.779 1.555,3.175 0,0.933 -0.257,1.712 -0.772,2.337 -0.507,0.625 -1.261,1.088 -2.26,1.389 1.117,0.309 1.959,0.812 2.524,1.511 0.573,0.691 0.86,1.565 0.86,2.624 0,1.631 -0.544,2.866 -1.631,3.704 -1.081,0.83 -2.687,1.245 -4.818,1.245 -2.139,0 -3.756,-0.415 -4.851,-1.245 -1.087,-0.838 -1.631,-2.073 -1.631,-3.704 0,-1.059 0.283,-1.933 0.849,-2.624 0.573,-0.699 1.418,-1.202 2.535,-1.511 z"
       id="path80229" /><path
       style="font-weight:bold;font-size:22.5778px;line-height:1.25;font-family:'DejaVu Sans';-inkscape-font-specification:'DejaVu Sans, Bold';fill:none;stroke:#000000;stroke-width:2;stroke-dasharray:none"
       d="m -17651.854,15618.522 c -0.793,0 -1.403,0.217 -1.83,0.651 -0.426,0.433 -0.639,1.054 -0.639,1.863 0,0.809 0.213,1.43 0.639,1.863 0.427,0.427 1.037,0.64 1.83,0.64 0.787,0 1.389,-0.213 1.808,-0.64 0.419,-0.433 0.629,-1.054 0.629,-1.863 0,-0.816 -0.21,-1.437 -0.629,-1.863 -0.419,-0.434 -1.021,-0.651 -1.808,-0.651 z"
       id="path61829" /><path
       style="font-weight:bold;font-size:22.5778px;line-height:1.25;font-family:'DejaVu Sans';-inkscape-font-specification:'DejaVu Sans, Bold';fill:none;stroke:#000000;stroke-width:2;stroke-dasharray:none"
       d="m -17632.686,18414.806 c 2.646,0 4.719,0.757 6.218,2.271 1.499,1.514 2.248,3.605 2.248,6.272 0,2.661 -0.749,4.748 -2.248,6.262 -1.499,1.514 -3.572,2.271 -6.218,2.271 -2.639,0 -4.711,-0.757 -6.218,-2.271 -1.499,-1.514 -2.249,-3.601 -2.249,-6.262 0,-2.667 0.75,-4.758 2.249,-6.272 1.507,-1.514 3.579,-2.271 6.218,-2.271 z"
       id="path80245" /><path
       style="font-weight:bold;font-size:22.5778px;line-height:1.25;font-family:'DejaVu Sans';-inkscape-font-specification:'DejaVu Sans, Bold';fill:none;stroke:#000000;stroke-width:2;stroke-dasharray:none"
       d="m -17632.686,18417.881 c -1.293,0 -2.297,0.478 -3.01,1.433 -0.713,0.956 -1.069,2.301 -1.069,4.035 0,1.727 0.356,3.069 1.069,4.024 0.713,0.955 1.717,1.433 3.01,1.433 1.301,0 2.307,-0.478 3.02,-1.433 0.713,-0.955 1.07,-2.297 1.07,-4.024 0,-1.734 -0.357,-3.079 -1.07,-4.035 -0.713,-0.955 -1.719,-1.433 -3.02,-1.433 z"
       id="path61839" /><path
       style="font-weight:bold;font-size:22.5778px;line-height:1.25;font-family:'DejaVu Sans';-inkscape-font-specification:'DejaVu Sans, Bold';fill:none;stroke:#000000;stroke-width:2;stroke-dasharray:none"
       d="m -17612.567,18422.688 c 1.11,0.287 1.952,0.786 2.525,1.499 0.581,0.706 0.871,1.606 0.871,2.701 0,1.632 -0.625,2.874 -1.874,3.726 -1.25,0.845 -3.073,1.268 -5.469,1.268 -0.845,0 -1.693,-0.07 -2.546,-0.209 -0.845,-0.133 -1.683,-0.335 -2.514,-0.607 v -3.274 c 0.794,0.397 1.581,0.698 2.36,0.904 0.786,0.199 1.558,0.298 2.315,0.298 1.124,0 1.984,-0.195 2.579,-0.584 0.603,-0.39 0.904,-0.949 0.904,-1.676 0,-0.75 -0.309,-1.316 -0.926,-1.698 -0.61,-0.389 -1.514,-0.584 -2.712,-0.584 h -1.697 v -2.734 h 1.785 c 1.066,0 1.86,-0.165 2.382,-0.496 0.521,-0.338 0.782,-0.849 0.782,-1.533 0,-0.632 -0.253,-1.121 -0.76,-1.466 -0.507,-0.345 -1.224,-0.518 -2.15,-0.518 -0.683,0 -1.374,0.08 -2.073,0.231 -0.698,0.155 -1.392,0.383 -2.083,0.684 v -3.109 c 0.838,-0.235 1.668,-0.412 2.491,-0.529 0.823,-0.117 1.632,-0.176 2.426,-0.176 2.139,0 3.737,0.353 4.795,1.058 1.066,0.698 1.599,1.753 1.599,3.164 0,0.963 -0.254,1.753 -0.761,2.37 -0.507,0.61 -1.257,1.04 -2.249,1.29 z"
       id="path61841" /><path
       style="font-weight:bold;font-size:22.5778px;line-height:1.25;font-family:'DejaVu Sans';-inkscape-font-specification:'DejaVu Sans, Bold';fill:none;stroke:#000000;stroke-width:2;stroke-dasharray:none"
       d="m -17604.729,18428.63 h 3.749 v -10.638 l -3.848,0.793 v -2.888 l 3.826,-0.794 h 4.035 v 13.527 h 3.748 v 2.932 h -11.51 z"
       id="path61843" /><path
       style="font-weight:bold;font-size:22.5778px;line-height:1.25;font-family:'DejaVu Sans';-inkscape-font-specification:'DejaVu Sans, Bold';fill:none;stroke:#000000;stroke-width:2;stroke-dasharray:none"
       d="m -17685.028,16945.606 c 2.646,0 4.719,0.757 6.218,2.271 1.499,1.514 2.249,3.605 2.249,6.273 0,2.661 -0.75,4.748 -2.249,6.262 -1.499,1.514 -3.572,2.271 -6.218,2.271 -2.639,0 -4.711,-0.757 -6.218,-2.271 -1.499,-1.514 -2.249,-3.601 -2.249,-6.262 0,-2.668 0.75,-4.759 2.249,-6.273 1.507,-1.514 3.579,-2.271 6.218,-2.271 z"
       id="path80261" /><path
       style="font-weight:bold;font-size:22.5778px;line-height:1.25;font-family:'DejaVu Sans';-inkscape-font-specification:'DejaVu Sans, Bold';fill:none;stroke:#000000;stroke-width:2;stroke-dasharray:none"
       d="m -17685.028,16948.682 c -1.293,0 -2.297,0.478 -3.01,1.433 -0.713,0.955 -1.069,2.3 -1.069,4.035 0,1.727 0.356,3.069 1.069,4.024 0.713,0.955 1.717,1.433 3.01,1.433 1.301,0 2.308,-0.478 3.021,-1.433 0.713,-0.955 1.069,-2.297 1.069,-4.024 0,-1.735 -0.356,-3.08 -1.069,-4.035 -0.713,-0.955 -1.72,-1.433 -3.021,-1.433 z"
       id="path61853" /><path
       style="font-weight:bold;font-size:22.5778px;line-height:1.25;font-family:'DejaVu Sans';-inkscape-font-specification:'DejaVu Sans, Bold';fill:none;stroke:#000000;stroke-width:2;stroke-dasharray:none"
       d="m -17664.909,16953.489 c 1.11,0.287 1.952,0.786 2.525,1.499 0.581,0.705 0.871,1.606 0.871,2.701 0,1.631 -0.625,2.873 -1.874,3.726 -1.249,0.845 -3.072,1.268 -5.468,1.268 -0.845,0 -1.694,-0.07 -2.547,-0.209 -0.845,-0.133 -1.683,-0.335 -2.513,-0.607 v -3.274 c 0.793,0.397 1.58,0.698 2.359,0.904 0.786,0.199 1.558,0.298 2.315,0.298 1.125,0 1.985,-0.195 2.58,-0.585 0.603,-0.389 0.904,-0.948 0.904,-1.675 0,-0.75 -0.309,-1.316 -0.927,-1.698 -0.61,-0.389 -1.514,-0.584 -2.712,-0.584 h -1.697 v -2.734 h 1.786 c 1.065,0 1.859,-0.166 2.381,-0.497 0.522,-0.338 0.783,-0.849 0.783,-1.532 0,-0.632 -0.254,-1.121 -0.761,-1.466 -0.507,-0.345 -1.224,-0.518 -2.15,-0.518 -0.683,0 -1.374,0.08 -2.072,0.231 -0.699,0.155 -1.393,0.383 -2.084,0.684 v -3.109 c 0.838,-0.235 1.669,-0.412 2.492,-0.529 0.823,-0.118 1.631,-0.177 2.425,-0.177 2.139,0 3.737,0.353 4.796,1.059 1.065,0.698 1.598,1.753 1.598,3.164 0,0.963 -0.254,1.753 -0.761,2.37 -0.507,0.61 -1.256,1.04 -2.249,1.29 z"
       id="path61855" /><path
       style="font-weight:bold;font-size:22.5778px;line-height:1.25;font-family:'DejaVu Sans';-inkscape-font-specification:'DejaVu Sans, Bold';fill:none;stroke:#000000;stroke-width:2;stroke-dasharray:none"
       d="m -17649.199,16953.489 c 1.11,0.287 1.952,0.786 2.525,1.499 0.581,0.705 0.871,1.606 0.871,2.701 0,1.631 -0.625,2.873 -1.875,3.726 -1.249,0.845 -3.072,1.268 -5.468,1.268 -0.845,0 -1.693,-0.07 -2.546,-0.209 -0.845,-0.133 -1.683,-0.335 -2.514,-0.607 v -3.274 c 0.794,0.397 1.58,0.698 2.359,0.904 0.787,0.199 1.558,0.298 2.315,0.298 1.125,0 1.985,-0.195 2.58,-0.585 0.603,-0.389 0.904,-0.948 0.904,-1.675 0,-0.75 -0.309,-1.316 -0.926,-1.698 -0.61,-0.389 -1.514,-0.584 -2.712,-0.584 h -1.698 v -2.734 h 1.786 c 1.066,0 1.86,-0.166 2.382,-0.497 0.521,-0.338 0.782,-0.849 0.782,-1.532 0,-0.632 -0.253,-1.121 -0.76,-1.466 -0.507,-0.345 -1.224,-0.518 -2.15,-0.518 -0.683,0 -1.374,0.08 -2.073,0.231 -0.698,0.155 -1.392,0.383 -2.083,0.684 v -3.109 c 0.838,-0.235 1.668,-0.412 2.491,-0.529 0.823,-0.118 1.632,-0.177 2.426,-0.177 2.139,0 3.737,0.353 4.795,1.059 1.066,0.698 1.599,1.753 1.599,3.164 0,0.963 -0.254,1.753 -0.761,2.37 -0.507,0.61 -1.257,1.04 -2.249,1.29 z"
       id="path61857" /></g></svg>
