999
dxfrw 0.6.3
  0
SECTION
  2
HEADER
  9
$ACADVER
  1
AC1021
  9
$DWGCODEPAGE
  3
ANSI_1252
  9
$INSBASE
 10
0
 20
0
 30
0
  9
$EXTMIN
 10
-134.0625000000001
 20
-3003.448923033604
 30
0
  9
$EXTMAX
 10
12000
 20
134.0625
 30
0
  9
$LIMMIN
 10
0
 20
0
  9
$LIMMAX
 10
420
 20
297
  9
$ORTHOMODE
 70
    0
  9
$REGENMODE
 70
    1
  9
$FILLMODE
 70
    1
  9
$QTEXTMODE
 70
    0
  9
$MIRRTEXT
 70
    0
  9
$LTSCALE
 40
1
  9
$ATTMODE
 70
    0
  9
$TEXTSIZE
 40
2.5
  9
$TRACEWID
 40
15.68
  9
$TEXTSTYLE
  7
STANDARD
  9
$CLAYER
  8
0
  9
$CELTYPE
  6
BYLAYER
  9
$CECOLOR
 62
  256
  9
$CELTSCALE
 40
1
  9
$DISPSILH
 70
    0
  9
$DIMSCALE
 40
1
  9
$DIMASZ
 40
2.5
  9
$DIMEXO
 40
0.625
  9
$DIMDLI
 40
3.75
  9
$DIMRND
 40
0
  9
$DIMDLE
 40
0
  9
$DIMEXE
 40
1.25
  9
$DIMTP
 40
0
  9
$DIMTM
 40
0
  9
$DIMTXT
 40
2.5
  9
$DIMCEN
 40
2.5
  9
$DIMTSZ
 40
0
  9
$DIMTOL
 70
    0
  9
$DIMLIM
 70
    0
  9
$DIMTIH
 70
    0
  9
$DIMTOH
 70
    0
  9
$DIMSE1
 70
    0
  9
$DIMSE2
 70
    0
  9
$DIMTAD
 70
    1
  9
$DIMZIN
 70
    8
  9
$DIMBLK
  1

  9
$DIMASO
 70
    1
  9
$DIMSHO
 70
    1
  9
$DIMPOST
  1

  9
$DIMAPOST
  1

  9
$DIMALT
 70
    0
  9
$DIMALTD
 70
    3
  9
$DIMALTF
 40
0.03937
  9
$DIMLFAC
 40
1
  9
$DIMTOFL
 70
    1
  9
$DIMTVP
 40
0
  9
$DIMTIX
 70
    0
  9
$DIMSOXD
 70
    0
  9
$DIMSAH
 70
    0
  9
$DIMBLK1
  1

  9
$DIMBLK2
  1

  9
$DIMSTYLE
  2
STANDARD
  9
$DIMCLRD
 70
    0
  9
$DIMCLRE
 70
    0
  9
$DIMCLRT
 70
    0
  9
$DIMTFAC
 40
1
  9
$DIMGAP
 40
0.625
  9
$DIMJUST
 70
    0
  9
$DIMSD1
 70
    0
  9
$DIMSD2
 70
    0
  9
$DIMTOLJ
 70
    0
  9
$DIMTZIN
 70
    8
  9
$DIMALTZ
 70
    0
  9
$DIMALTTZ
 70
    0
  9
$DIMUPT
 70
    0
  9
$DIMDEC
 70
    2
  9
$DIMTDEC
 70
    2
  9
$DIMALTU
 70
    2
  9
$DIMALTTD
 70
    3
  9
$DIMTXSTY
  7
STANDARD
  9
$DIMAUNIT
 70
    0
  9
$DIMADEC
 70
    0
  9
$DIMALTRND
 40
0
  9
$DIMAZIN
 70
    0
  9
$DIMDSEP
 70
   44
  9
$DIMATFIT
 70
    3
  9
$DIMFRAC
 70
    0
  9
$DIMLDRBLK
  1
STANDARD
  9
$DIMLUNIT
 70
    2
  9
$DIMLWD
 70
   -2
  9
$DIMLWE
 70
   -2
  9
$DIMTMOVE
 70
    0
  9
$DIMFXL
 40
1
  9
$DIMFXLON
 70
    0
  9
$DIMJOGANG
 40
0.7854
  9
$DIMTFILL
 70
    0
  9
$DIMTFILLCLR
 70
    0
  9
$DIMARCSYM
 70
    0
  9
$DIMLTYPE
  6

  9
$DIMLTEX1
  6

  9
$DIMLTEX2
  6

  9
$LUNITS
 70
    2
  9
$LUPREC
 70
    4
  9
$SKETCHINC
 40
1
  9
$FILLETRAD
 40
0
  9
$AUNITS
 70
    0
  9
$AUPREC
 70
    2
  9
$MENU
  1
.
  9
$ELEVATION
 40
0
  9
$PELEVATION
 40
0
  9
$THICKNESS
 40
0
  9
$LIMCHECK
 70
    0
  9
$CHAMFERA
 40
0
  9
$CHAMFERB
 40
0
  9
$CHAMFERC
 40
0
  9
$CHAMFERD
 40
0
  9
$SKPOLY
 70
    0
  9
$USRTIMER
 70
    1
  9
$ANGBASE
 50
0
  9
$ANGDIR
 70
    0
  9
$PDMODE
 70
   34
  9
$PDSIZE
 40
0
  9
$PLINEWID
 40
0
  9
$SPLFRAME
 70
    0
  9
$SPLINETYPE
 70
    2
  9
$SPLINESEGS
 70
    8
  9
$HANDSEED
  5
20000
  9
$SURFTAB1
 70
    6
  9
$SURFTAB2
 70
    6
  9
$SURFTYPE
 70
    6
  9
$SURFU
 70
    6
  9
$SURFV
 70
    6
  9
$UCSBASE
  2

  9
$UCSNAME
  2

  9
$UCSORG
 10
0
 20
0
 30
0
  9
$UCSXDIR
 10
1
 20
0
 30
0
  9
$UCSYDIR
 10
0
 20
1
 30
0
  9
$UCSORTHOREF
  2

  9
$UCSORTHOVIEW
 70
    0
  9
$UCSORGTOP
 10
0
 20
0
 30
0
  9
$UCSORGBOTTOM
 10
0
 20
0
 30
0
  9
$UCSORGLEFT
 10
0
 20
0
 30
0
  9
$UCSORGRIGHT
 10
0
 20
0
 30
0
  9
$UCSORGFRONT
 10
0
 20
0
 30
0
  9
$UCSORGBACK
 10
0
 20
0
 30
0
  9
$PUCSBASE
  2

  9
$PUCSNAME
  2

  9
$PUCSORG
 10
0
 20
0
 30
0
  9
$PUCSXDIR
 10
1
 20
0
 30
0
  9
$PUCSYDIR
 10
0
 20
1
 30
0
  9
$PUCSORTHOREF
  2

  9
$PUCSORTHOVIEW
 70
    0
  9
$PUCSORGTOP
 10
0
 20
0
 30
0
  9
$PUCSORGBOTTOM
 10
0
 20
0
 30
0
  9
$PUCSORGLEFT
 10
0
 20
0
 30
0
  9
$PUCSORGRIGHT
 10
0
 20
0
 30
0
  9
$PUCSORGFRONT
 10
0
 20
0
 30
0
  9
$PUCSORGBACK
 10
0
 20
0
 30
0
  9
$USERI1
 70
    0
  9
$USERI2
 70
    0
  9
$USERI3
 70
    0
  9
$USERI4
 70
    0
  9
$USERI5
 70
    0
  9
$USERR1
 40
0
  9
$USERR2
 40
0
  9
$USERR3
 40
0
  9
$USERR4
 40
0
  9
$USERR5
 40
0
  9
$WORLDVIEW
 70
    1
  9
$SHADEDGE
 70
    3
  9
$SHADEDIF
 70
   70
  9
$TILEMODE
 70
    1
  9
$MAXACTVP
 70
   64
  9
$PINSBASE
 10
0
 20
0
 30
0
  9
$PLIMCHECK
 70
    0
  9
$PEXTMIN
 10
0
 20
0
 30
0
  9
$PEXTMAX
 10
0
 20
0
 30
0
  9
$SNAPSTYLE
 70
    0
  9
$PLIMMIN
 10
0
 20
0
  9
$PLIMMAX
 10
297
 20
210
  9
$UNITMODE
 70
    0
  9
$VISRETAIN
 70
    1
  9
$PLINEGEN
 70
    0
  9
$PSLTSCALE
 70
    1
  9
$TREEDEPTH
 70
 3020
  9
$CMLSTYLE
  2
Standard
  9
$CMLJUST
 70
    0
  9
$CMLSCALE
 40
20
  9
$PROXYGRAPHICS
 70
    1
  9
$MEASUREMENT
 70
    1
  9
$CELWEIGHT
370
   -1
  9
$ENDCAPS
280
    0
  9
$JOINSTYLE
280
    0
  9
$LWDISPLAY
290
    0
  9
$INSUNITS
 70
    4
  9
$HYPERLINKBASE
  1

  9
$STYLESHEET
  1

  9
$XEDIT
290
    1
  9
$CEPSNTYPE
380
    0
  9
$PSTYLEMODE
290
    1
  9
$EXTNAMES
290
    1
  9
$PSVPSCALE
 40
1
  9
$OLESTARTUP
290
    0
  9
$SORTENTS
280
  127
  9
$INDEXCTL
280
    0
  9
$HIDETEXT
280
    1
  9
$XCLIPFRAME
290
    0
  9
$HALOGAP
280
    0
  9
$OBSCOLOR
 70
  257
  9
$OBSLTYPE
280
    0
  9
$INTERSECTIONDISPLAY
280
    0
  9
$INTERSECTIONCOLOR
 70
  257
  9
$DIMASSOC
280
    1
  9
$PROJECTNAME
  1

  9
$CAMERADISPLAY
290
    0
  9
$LENSLENGTH
 40
50
  9
$CAMERAHEIGHT
 40
0
  9
$STEPSPERSEC
 40
2
  9
$STEPSIZE
 40
50
  9
$3DDWFPREC
 40
2
  9
$PSOLWIDTH
 40
5
  9
$PSOLHEIGHT
 40
80
  9
$LOFTANG1
 40
1.570796326794897
  9
$LOFTANG2
 40
1.570796326794897
  9
$LOFTMAG1
 40
0
  9
$LOFTMAG2
 40
0
  9
$LOFTPARAM
 70
    7
  9
$LOFTNORMALS
280
    1
  9
$LATITUDE
 40
1
  9
$LONGITUDE
 40
1
  9
$NORTHDIRECTION
 40
0
  9
$TIMEZONE
 70
-8000
  9
$LIGHTGLYPHDISPLAY
280
    1
  9
$TILEMODELIGHTSYNCH
280
    1
  9
$SOLIDHIST
280
    1
  9
$SHOWHIST
280
    1
  9
$DWFFRAME
280
    2
  9
$DGNFRAME
280
    0
  9
$REALWORLDSCALE
290
    1
  9
$INTERFERECOLOR
 62
    1
  9
$CSHADOW
280
    0
  9
$SHADOWPLANELOCATION
 40
0
  0
ENDSEC
  0
SECTION
  2
CLASSES
  0
ENDSEC
  0
SECTION
  2
TABLES
  0
TABLE
  2
VPORT
  5
8
330
0
100
AcDbSymbolTable
 70
    1
  0
VPORT
  5
31
330
2
100
AcDbSymbolTableRecord
100
AcDbViewportTableRecord
  2
*ACTIVE
 70
    0
 10
0
 20
0
 11
1
 21
1
 12
7594.169388066142
 22
1866.760580855025
 13
0
 23
0
 14
10
 24
10
 15
10
 25
10
 16
0
 26
0
 36
1
 17
0
 27
0
 37
0
 40
10290.60133819007
 41
1.77113133940182
 42
50
 43
0
 44
0
 50
0
 51
0
 71
    0
 72
  100
 73
    1
 74
    3
 75
    0
 76
    1
 77
    0
 78
    0
281
    0
 65
    1
110
0
120
0
130
0
111
1
121
0
131
0
112
0
122
1
132
0
 79
    0
146
0
348
10020
 60
    7
 61
    5
292
1
282
    1
141
0
142
0
 63
  250
421
3358443
  0
ENDTAB
  0
TABLE
  2
LTYPE
  5
5
330
0
100
AcDbSymbolTable
 70
    4
  0
LTYPE
  5
14
330
5
100
AcDbSymbolTableRecord
100
AcDbLinetypeTableRecord
  2
ByBlock
 70
    0
  3

 72
   65
 73
    0
 40
0
  0
LTYPE
  5
15
330
5
100
AcDbSymbolTableRecord
100
AcDbLinetypeTableRecord
  2
ByLayer
 70
    0
  3

 72
   65
 73
    0
 40
0
  0
LTYPE
  5
16
330
5
100
AcDbSymbolTableRecord
100
AcDbLinetypeTableRecord
  2
Continuous
 70
    0
  3
Solid line
 72
   65
 73
    0
 40
0
  0
LTYPE
  5
32
330
5
100
AcDbSymbolTableRecord
100
AcDbLinetypeTableRecord
  2
DOT
 70
    0
  3
Dot . . . . . . . . . . . . . . . . . . . . . .
 72
   65
 73
    2
 40
6.35
 49
0
 74
    0
 49
-6.35
 74
    0
  0
LTYPE
  5
33
330
5
100
AcDbSymbolTableRecord
100
AcDbLinetypeTableRecord
  2
DOTTINY
 70
    0
  3
Dot (.15x) .....................................
 72
   65
 73
    2
 40
0.9525
 49
0
 74
    0
 49
-0.9525
 74
    0
  0
LTYPE
  5
34
330
5
100
AcDbSymbolTableRecord
100
AcDbLinetypeTableRecord
  2
DOT2
 70
    0
  3
Dot (.5x) .....................................
 72
   65
 73
    2
 40
3.175
 49
0
 74
    0
 49
-3.175
 74
    0
  0
LTYPE
  5
35
330
5
100
AcDbSymbolTableRecord
100
AcDbLinetypeTableRecord
  2
DOTX2
 70
    0
  3
Dot (2x) .  .  .  .  .  .  .  .  .  .  .  .  .
 72
   65
 73
    2
 40
12.7
 49
0
 74
    0
 49
-12.7
 74
    0
  0
LTYPE
  5
36
330
5
100
AcDbSymbolTableRecord
100
AcDbLinetypeTableRecord
  2
DASHED
 70
    0
  3
Dashed _ _ _ _ _ _ _ _ _ _ _ _ _ _ _ _ _
 72
   65
 73
    2
 40
19.05
 49
12.7
 74
    0
 49
-6.35
 74
    0
  0
LTYPE
  5
37
330
5
100
AcDbSymbolTableRecord
100
AcDbLinetypeTableRecord
  2
DASHEDTINY
 70
    0
  3
Dashed (.15x) _ _ _ _ _ _ _ _ _ _ _ _ _ _ _ _ _
 72
   65
 73
    2
 40
2.8575
 49
1.905
 74
    0
 49
-0.9525
 74
    0
  0
LTYPE
  5
38
330
5
100
AcDbSymbolTableRecord
100
AcDbLinetypeTableRecord
  2
DASHED2
 70
    0
  3
Dashed (.5x) _ _ _ _ _ _ _ _ _ _ _ _ _ _ _ _ _
 72
   65
 73
    2
 40
9.524999999999999
 49
6.35
 74
    0
 49
-3.175
 74
    0
  0
LTYPE
  5
39
330
5
100
AcDbSymbolTableRecord
100
AcDbLinetypeTableRecord
  2
DASHEDX2
 70
    0
  3
Dashed (2x) ____  ____  ____  ____  ____  ___
 72
   65
 73
    2
 40
38.09999999999999
 49
25.4
 74
    0
 49
-12.7
 74
    0
  0
LTYPE
  5
3A
330
5
100
AcDbSymbolTableRecord
100
AcDbLinetypeTableRecord
  2
DASHDOT
 70
    0
  3
Dash dot __ . __ . __ . __ . __ . __ . __ . __
 72
   65
 73
    4
 40
25.4
 49
12.7
 74
    0
 49
-6.35
 74
    0
 49
0
 74
    0
 49
-6.35
 74
    0
  0
LTYPE
  5
3B
330
5
100
AcDbSymbolTableRecord
100
AcDbLinetypeTableRecord
  2
DASHDOTTINY
 70
    0
  3
Dash dot (.15x) _._._._._._._._._._._._._._._.
 72
   65
 73
    4
 40
3.81
 49
1.905
 74
    0
 49
-0.9525
 74
    0
 49
0
 74
    0
 49
-0.9525
 74
    0
  0
LTYPE
  5
3C
330
5
100
AcDbSymbolTableRecord
100
AcDbLinetypeTableRecord
  2
DASHDOT2
 70
    0
  3
Dash dot (.5x) _._._._._._._._._._._._._._._.
 72
   65
 73
    4
 40
12.7
 49
6.35
 74
    0
 49
-3.175
 74
    0
 49
0
 74
    0
 49
-3.175
 74
    0
  0
LTYPE
  5
3D
330
5
100
AcDbSymbolTableRecord
100
AcDbLinetypeTableRecord
  2
DASHDOTX2
 70
    0
  3
Dash dot (2x) ____  .  ____  .  ____  .  ___
 72
   65
 73
    4
 40
50.8
 49
25.4
 74
    0
 49
-12.7
 74
    0
 49
0
 74
    0
 49
-12.7
 74
    0
  0
LTYPE
  5
3E
330
5
100
AcDbSymbolTableRecord
100
AcDbLinetypeTableRecord
  2
DIVIDE
 70
    0
  3
Divide ____ . . ____ . . ____ . . ____ . . ____
 72
   65
 73
    6
 40
31.75
 49
12.7
 74
    0
 49
-6.35
 74
    0
 49
0
 74
    0
 49
-6.35
 74
    0
 49
0
 74
    0
 49
-6.35
 74
    0
  0
LTYPE
  5
3F
330
5
100
AcDbSymbolTableRecord
100
AcDbLinetypeTableRecord
  2
DIVIDETINY
 70
    0
  3
Divide (.15x) __..__..__..__..__..__..__..__.._
 72
   65
 73
    6
 40
4.7625
 49
1.905
 74
    0
 49
-0.9525
 74
    0
 49
0
 74
    0
 49
-0.9525
 74
    0
 49
0
 74
    0
 49
-0.9525
 74
    0
  0
LTYPE
  5
40
330
5
100
AcDbSymbolTableRecord
100
AcDbLinetypeTableRecord
  2
DIVIDE2
 70
    0
  3
Divide (.5x) __..__..__..__..__..__..__..__.._
 72
   65
 73
    6
 40
15.875
 49
6.35
 74
    0
 49
-3.175
 74
    0
 49
0
 74
    0
 49
-3.175
 74
    0
 49
0
 74
    0
 49
-3.175
 74
    0
  0
LTYPE
  5
41
330
5
100
AcDbSymbolTableRecord
100
AcDbLinetypeTableRecord
  2
DIVIDEX2
 70
    0
  3
Divide (2x) ________  .  .  ________  .  .  _
 72
   65
 73
    6
 40
63.5
 49
25.4
 74
    0
 49
-12.7
 74
    0
 49
0
 74
    0
 49
-12.7
 74
    0
 49
0
 74
    0
 49
-12.7
 74
    0
  0
LTYPE
  5
42
330
5
100
AcDbSymbolTableRecord
100
AcDbLinetypeTableRecord
  2
BORDER
 70
    0
  3
Border __ __ . __ __ . __ __ . __ __ . __ __ .
 72
   65
 73
    6
 40
44.45
 49
12.7
 74
    0
 49
-6.35
 74
    0
 49
12.7
 74
    0
 49
-6.35
 74
    0
 49
0
 74
    0
 49
-6.35
 74
    0
  0
LTYPE
  5
43
330
5
100
AcDbSymbolTableRecord
100
AcDbLinetypeTableRecord
  2
BORDERTINY
 70
    0
  3
Border (.15x) __.__.__.__.__.__.__.__.__.__.__.
 72
   65
 73
    6
 40
6.6675
 49
1.905
 74
    0
 49
-0.9525
 74
    0
 49
1.905
 74
    0
 49
-0.9525
 74
    0
 49
0
 74
    0
 49
-0.9525
 74
    0
  0
LTYPE
  5
44
330
5
100
AcDbSymbolTableRecord
100
AcDbLinetypeTableRecord
  2
BORDER2
 70
    0
  3
Border (.5x) __.__.__.__.__.__.__.__.__.__.__.
 72
   65
 73
    6
 40
22.225
 49
6.35
 74
    0
 49
-3.175
 74
    0
 49
6.35
 74
    0
 49
-3.175
 74
    0
 49
0
 74
    0
 49
-3.175
 74
    0
  0
LTYPE
  5
45
330
5
100
AcDbSymbolTableRecord
100
AcDbLinetypeTableRecord
  2
BORDERX2
 70
    0
  3
Border (2x) ____  ____  .  ____  ____  .  ___
 72
   65
 73
    6
 40
88.89999999999999
 49
25.4
 74
    0
 49
-12.7
 74
    0
 49
25.4
 74
    0
 49
-12.7
 74
    0
 49
0
 74
    0
 49
-12.7
 74
    0
  0
LTYPE
  5
46
330
5
100
AcDbSymbolTableRecord
100
AcDbLinetypeTableRecord
  2
CENTER
 70
    0
  3
Center ____ _ ____ _ ____ _ ____ _ ____ _ ____
 72
   65
 73
    4
 40
50.8
 49
31.75
 74
    0
 49
-6.35
 74
    0
 49
6.35
 74
    0
 49
-6.35
 74
    0
  0
LTYPE
  5
47
330
5
100
AcDbSymbolTableRecord
100
AcDbLinetypeTableRecord
  2
CENTERTINY
 70
    0
  3
Center (.15x) ___ _ ___ _ ___ _ ___ _ ___ _ ___
 72
   65
 73
    4
 40
7.619999999999999
 49
4.7625
 74
    0
 49
-0.9525
 74
    0
 49
0.9525
 74
    0
 49
-0.9525
 74
    0
  0
LTYPE
  5
48
330
5
100
AcDbSymbolTableRecord
100
AcDbLinetypeTableRecord
  2
CENTER2
 70
    0
  3
Center (.5x) ___ _ ___ _ ___ _ ___ _ ___ _ ___
 72
   65
 73
    4
 40
28.575
 49
19.05
 74
    0
 49
-3.175
 74
    0
 49
3.175
 74
    0
 49
-3.175
 74
    0
  0
LTYPE
  5
49
330
5
100
AcDbSymbolTableRecord
100
AcDbLinetypeTableRecord
  2
CENTERX2
 70
    0
  3
Center (2x) ________  __  ________  __  _____
 72
   65
 73
    4
 40
101.6
 49
63.5
 74
    0
 49
-12.7
 74
    0
 49
12.7
 74
    0
 49
-12.7
 74
    0
  0
ENDTAB
  0
TABLE
  2
LAYER
  5
2
330
0
100
AcDbSymbolTable
 70
    1
  0
LAYER
  5
10
330
2
100
AcDbSymbolTableRecord
100
AcDbLayerTableRecord
  2
0
 70
    0
 62
    7
  6
CONTINUOUS
370
    0
390
F
  0
LAYER
  5
4A
330
2
100
AcDbSymbolTableRecord
100
AcDbLayerTableRecord
  2
1-tole-detail
 70
    0
 62
    7
  6
CONTINUOUS
290
0
370
   -3
390
F
  0
LAYER
  5
4B
330
2
100
AcDbSymbolTableRecord
100
AcDbLayerTableRecord
  2
2-hublots-decoupe
 70
    0
 62
    7
  6
CONTINUOUS
370
    0
390
F
  0
LAYER
  5
4C
330
2
100
AcDbSymbolTableRecord
100
AcDbLayerTableRecord
  2
_LEGENDE
 70
    0
 62
  253
420
10526884
  6
CONTINUOUS
370
    0
390
F
  0
LAYER
  5
4D
330
2
100
AcDbSymbolTableRecord
100
AcDbLayerTableRecord
  2
_MESURES
 70
    0
 62
    9
  6
CONTINUOUS
370
    0
390
F
  0
ENDTAB
  0
TABLE
  2
STYLE
  5
3
330
0
100
AcDbSymbolTable
 70
    3
  0
STYLE
  5
4E
330
2
100
AcDbSymbolTableRecord
100
AcDbTextStyleTableRecord
  2
Standard
 70
    0
 40
0
 41
1
 50
0
 71
    0
 42
1
  3
txt
  4

  0
ENDTAB
  0
TABLE
  2
VIEW
  5
6
330
0
100
AcDbSymbolTable
 70
    0
  0
ENDTAB
  0
TABLE
  2
UCS
  5
7
330
0
100
AcDbSymbolTable
 70
    0
  0
ENDTAB
  0
TABLE
  2
APPID
  5
9
330
0
100
AcDbSymbolTable
 70
    1
  0
APPID
  5
12
330
9
100
AcDbSymbolTableRecord
100
AcDbRegAppTableRecord
  2
ACAD
 70
    0
  0
APPID
  5
4F
330
9
100
AcDbSymbolTableRecord
100
AcDbRegAppTableRecord
  2
LibreCad
 70
    0
  0
ENDTAB
  0
TABLE
  2
DIMSTYLE
  5
A
330
0
100
AcDbSymbolTable
 70
    1
100
AcDbDimStyleTable
 71
    1
  0
DIMSTYLE
105
50
330
A
100
AcDbSymbolTableRecord
100
AcDbDimStyleTableRecord
  2
Standard
 70
    0
 40
1
 41
2.5
 42
0.625
 43
0.38
 44
1.25
 45
0
 46
0
 47
0
 48
0
 49
1
140
2.5
141
0.09
142
0
143
25.4
144
1
145
0
146
1
147
0.625
148
0
 71
    0
 72
    0
 73
    0
 74
    1
 75
    0
 76
    0
 77
    0
 78
    1
 79
    0
170
    0
171
    2
172
    0
173
    0
174
    0
175
    0
176
    0
177
    0
178
    0
179
    0
271
    2
272
    4
273
    2
274
    2
275
    0
276
    0
277
    2
278
    0
279
    0
280
    0
281
    0
282
    0
283
    1
284
    0
285
    0
286
    0
288
    0
289
    3
340
standard
341

371
   -2
372
   -2
  0
ENDTAB
  0
TABLE
  2
BLOCK_RECORD
  5
1
330
0
100
AcDbSymbolTable
 70
    2
  0
BLOCK_RECORD
  5
1F
330
1
100
AcDbSymbolTableRecord
100
AcDbBlockTableRecord
  2
*Model_Space
 70
    0
280
    1
281
    0
  0
BLOCK_RECORD
  5
1E
330
1
100
AcDbSymbolTableRecord
100
AcDbBlockTableRecord
  2
*Paper_Space
 70
    0
280
    1
281
    0
  0
BLOCK_RECORD
  5
51
330
1
100
AcDbSymbolTableRecord
100
AcDbBlockTableRecord
  2
*D2
 70
    0
280
    1
281
    0
  0
BLOCK_RECORD
  5
54
330
1
100
AcDbSymbolTableRecord
100
AcDbBlockTableRecord
  2
*D1
 70
    0
280
    1
281
    0
  0
ENDTAB
  0
ENDSEC
  0
SECTION
  2
BLOCKS
  0
BLOCK
  5
20
330
1F
100
AcDbEntity
  8
0
100
AcDbBlockBegin
  2
*Model_Space
 70
    0
 10
0
 20
0
 30
0
  3
*Model_Space
  1

  0
ENDBLK
  5
21
330
1F
100
AcDbEntity
  8
0
100
AcDbBlockEnd
  0
BLOCK
  5
1C
330
1B
100
AcDbEntity
  8
0
100
AcDbBlockBegin
  2
*Paper_Space
 70
    0
 10
0
 20
0
 30
0
  3
*Paper_Space
  1

  0
ENDBLK
  5
1D
330
1F
100
AcDbEntity
  8
0
100
AcDbBlockEnd
  0
BLOCK
  5
52
330
51
100
AcDbEntity
  8
0
100
AcDbBlockBegin
  2
*D2
 70
    1
 10
0
 20
0
  3
*D2
  1

  0
LINE
  5
57
100
AcDbEntity
  8
_MESURES
  6
ByLayer
 62
  256
370
   -1
100
AcDbLine
 10
-100
 20
0
 11
-100
 21
-3000
  0
MTEXT
  5
58
100
AcDbEntity
  8
_MESURES
  6
ByLayer
 62
  256
370
   -1
100
AcDbMText
 10
-132.8125
 20
-1500
 30
0
 40
2.5
 41
15.55555555555571
 71
    5
 72
    1
  1
3000.0000
  7
standard
210
0
220
0
230
1
 50
90
 73
    2
 44
1
  0
SOLID
  5
59
100
AcDbEntity
  8
_MESURES
  6
ByLayer
 62
  256
370
   -1
100
AcDbTrace
 10
-100
 20
0
 30
0
 11
-99.58371534222717
 21
-2.5
 31
0
 12
-100.4162846577728
 22
-2.5
 32
0
 13
-100.4162846577728
 23
-2.5
 33
0
  0
SOLID
  5
5A
100
AcDbEntity
  8
_MESURES
  6
ByLayer
 62
  256
370
   -1
100
AcDbTrace
 10
-100
 20
-3000
 30
0
 11
-100.4162846577728
 21
-2997.5
 31
0
 12
-99.58371534222717
 22
-2997.5
 32
0
 13
-99.58371534222717
 23
-2997.5
 33
0
  0
LINE
  5
5B
100
AcDbEntity
  8
_MESURES
  6
ByLayer
 62
  256
370
   -1
100
AcDbLine
 10
-0.625
 20
7.654042494670958e-17
 11
-101.25
 21
1.530808498934192e-16
  0
LINE
  5
5C
100
AcDbEntity
  8
_MESURES
  6
ByLayer
 62
  256
370
   -1
100
AcDbLine
 10
-0.625
 20
-3000
 11
-101.25
 21
-3000
  0
ENDBLK
  5
53
330
51
100
AcDbEntity
  8
0
100
AcDbBlockEnd
  0
BLOCK
  5
55
330
54
100
AcDbEntity
  8
0
100
AcDbBlockBegin
  2
*D1
 70
    1
 10
0
 20
0
  3
*D1
  1

  0
LINE
  5
5D
100
AcDbEntity
  8
_MESURES
  6
ByLayer
 62
  256
370
   -1
100
AcDbLine
 10
0
 20
100
 11
1500
 21
100
  0
MTEXT
  5
5E
100
AcDbEntity
  8
_MESURES
  6
ByLayer
 62
  256
370
   -1
100
AcDbMText
 10
750
 20
132.8125
 30
0
 40
2.5
 41
15.00000000000016
 71
    5
 72
    1
  1
1500.0000
  7
standard
210
0
220
0
230
1
 50
0
 73
    2
 44
1
  0
SOLID
  5
5F
100
AcDbEntity
  8
_MESURES
  6
ByLayer
 62
  256
370
   -1
100
AcDbTrace
 10
0
 20
100
 30
0
 11
2.5
 21
100.4162846577728
 31
0
 12
2.5
 22
99.58371534222717
 32
0
 13
2.5
 23
99.58371534222717
 33
0
  0
SOLID
  5
60
100
AcDbEntity
  8
_MESURES
  6
ByLayer
 62
  256
370
   -1
100
AcDbTrace
 10
1500
 20
100
 30
0
 11
1497.5
 21
99.58371534222717
 31
0
 12
1497.5
 22
100.4162846577728
 32
0
 13
1497.5
 23
100.4162846577728
 33
0
  0
LINE
  5
61
100
AcDbEntity
  8
_MESURES
  6
ByLayer
 62
  256
370
   -1
100
AcDbLine
 10
3.827021247335479e-17
 20
0.625
 11
7.654042494670958e-17
 21
101.25
  0
LINE
  5
62
100
AcDbEntity
  8
_MESURES
  6
ByLayer
 62
  256
370
   -1
100
AcDbLine
 10
1500
 20
0.625
 11
1500
 21
101.25
  0
ENDBLK
  5
56
330
54
100
AcDbEntity
  8
0
100
AcDbBlockEnd
  0
ENDSEC
  0
SECTION
  2
ENTITIES
  0
LWPOLYLINE
  5
63
100
AcDbEntity
  8
1-tole-detail
  6
ByLayer
 62
  256
370
   -1
100
AcDbPolyline
 90
    4
 70
    1
 43
0
 10
0
 20
0
 10
0
 20
-3000
 10
1500
 20
-3000
 10
1500
 20
0
  0
LWPOLYLINE
  5
64
100
AcDbEntity
  8
1-tole-detail
  6
ByLayer
 62
  256
370
   -1
100
AcDbPolyline
 90
    4
 70
    1
 43
0
 10
1500
 20
0
 10
1500
 20
-3000
 10
3000
 20
-3000
 10
3000
 20
0
  0
LWPOLYLINE
  5
65
100
AcDbEntity
  8
1-tole-detail
  6
ByLayer
 62
  256
370
   -1
100
AcDbPolyline
 90
    4
 70
    1
 43
0
 10
3000
 20
0
 10
3000
 20
-3000
 10
4500
 20
-3000
 10
4500
 20
0
  0
LWPOLYLINE
  5
66
100
AcDbEntity
  8
1-tole-detail
  6
ByLayer
 62
  256
370
   -1
100
AcDbPolyline
 90
    4
 70
    1
 43
0
 10
4500
 20
0
 10
4500
 20
-3000
 10
6000
 20
-3000
 10
6000
 20
0
  0
LWPOLYLINE
  5
67
100
AcDbEntity
  8
1-tole-detail
  6
ByLayer
 62
  256
370
   -1
100
AcDbPolyline
 90
    4
 70
    1
 43
0
 10
6000
 20
0
 10
6000
 20
-3000
 10
7500
 20
-3000
 10
7500
 20
0
  0
LWPOLYLINE
  5
68
100
AcDbEntity
  8
1-tole-detail
  6
ByLayer
 62
  256
370
   -1
100
AcDbPolyline
 90
    4
 70
    1
 43
0
 10
7500
 20
0
 10
7500
 20
-3000
 10
9000
 20
-3000
 10
9000
 20
0
  0
LWPOLYLINE
  5
69
100
AcDbEntity
  8
1-tole-detail
  6
ByLayer
 62
  256
370
   -1
100
AcDbPolyline
 90
    4
 70
    1
 43
0
 10
9000
 20
0
 10
9000
 20
-3000
 10
10500
 20
-3000
 10
10500
 20
0
  0
LWPOLYLINE
  5
6A
100
AcDbEntity
  8
1-tole-detail
  6
ByLayer
 62
  256
370
   -1
100
AcDbPolyline
 90
    4
 70
    1
 43
0
 10
10500
 20
0
 10
10500
 20
-3000
 10
12000
 20
-3000
 10
12000
 20
0
  0
LINE
  5
6B
100
AcDbEntity
  8
1-tole-detail
  6
ByLayer
 62
  256
370
   -1
100
AcDbLine
 10
2360
 20
-749.9999999999891
 11
2360
 21
-889.9999999999891
  0
LINE
  5
6C
100
AcDbEntity
  8
1-tole-detail
  6
ByLayer
 62
  256
370
   -1
100
AcDbLine
 10
2360
 20
-889.9999999999891
 11
3000
 21
-889.9999999999891
  0
LINE
  5
6D
100
AcDbEntity
  8
1-tole-detail
  6
ByLayer
 62
  256
370
   -1
100
AcDbLine
 10
3000
 20
-2999.999999999989
 11
1500
 21
-3000
  0
LINE
  5
6E
100
AcDbEntity
  8
1-tole-detail
  6
ByLayer
 62
  256
370
   -1
100
AcDbLine
 10
1500
 20
-3000
 11
1499.999999999993
 21
-750
  0
LINE
  5
6F
100
AcDbEntity
  8
1-tole-detail
  6
ByLayer
 62
  256
370
   -1
100
AcDbLine
 10
1499.999999999993
 20
-750
 11
2360
 21
-749.9999999999891
  0
CIRCLE
  5
70
100
AcDbEntity
  8
2-hublots-decoupe
  6
ByLayer
 62
  256
370
   -1
100
AcDbCircle
 10
2085
 20
-2259.999999999993
 40
64.99999999978245
  0
CIRCLE
  5
71
100
AcDbEntity
  8
2-hublots-decoupe
  6
ByLayer
 62
  256
370
   -1
100
AcDbCircle
 10
2058.020818018296
 20
-2325.133507041952
 40
3.5
  0
CIRCLE
  5
72
100
AcDbEntity
  8
2-hublots-decoupe
  6
ByLayer
 62
  256
370
   -1
100
AcDbCircle
 10
2111.979181981682
 20
-2325.133507041901
 40
3.5
  0
CIRCLE
  5
73
100
AcDbEntity
  8
2-hublots-decoupe
  6
ByLayer
 62
  256
370
   -1
100
AcDbCircle
 10
2019.866492957874
 20
-2286.979181981762
 40
3.5
  0
CIRCLE
  5
74
100
AcDbEntity
  8
2-hublots-decoupe
  6
ByLayer
 62
  256
370
   -1
100
AcDbCircle
 10
2150.133507042003
 20
-2286.979181981718
 40
3.5
  0
CIRCLE
  5
75
100
AcDbEntity
  8
2-hublots-decoupe
  6
ByLayer
 62
  256
370
   -1
100
AcDbCircle
 10
2150.133507042003
 20
-2233.020818018274
 40
3.5
  0
CIRCLE
  5
76
100
AcDbEntity
  8
2-hublots-decoupe
  6
ByLayer
 62
  256
370
   -1
100
AcDbCircle
 10
2111.979181981667
 20
-2194.866492958125
 40
3.5
  0
CIRCLE
  5
77
100
AcDbEntity
  8
2-hublots-decoupe
  6
ByLayer
 62
  256
370
   -1
100
AcDbCircle
 10
2058.020818018296
 20
-2194.866492958037
 40
3.5
  0
CIRCLE
  5
78
100
AcDbEntity
  8
2-hublots-decoupe
  6
ByLayer
 62
  256
370
   -1
100
AcDbCircle
 10
2019.866492957874
 20
-2233.020818018227
 40
3.5
  0
CIRCLE
  5
79
100
AcDbEntity
  8
2-hublots-decoupe
  6
ByLayer
 62
  256
370
   -1
100
AcDbCircle
 10
2835
 20
-2019.999999999993
 40
64.99999999978245
  0
CIRCLE
  5
7A
100
AcDbEntity
  8
2-hublots-decoupe
  6
ByLayer
 62
  256
370
   -1
100
AcDbCircle
 10
2808.020818018296
 20
-2085.133507041952
 40
3.5
  0
CIRCLE
  5
7B
100
AcDbEntity
  8
2-hublots-decoupe
  6
ByLayer
 62
  256
370
   -1
100
AcDbCircle
 10
2861.979181981682
 20
-2085.133507041897
 40
3.5
  0
CIRCLE
  5
7C
100
AcDbEntity
  8
2-hublots-decoupe
  6
ByLayer
 62
  256
370
   -1
100
AcDbCircle
 10
2769.866492957874
 20
-2046.979181981762
 40
3.5
  0
CIRCLE
  5
7D
100
AcDbEntity
  8
2-hublots-decoupe
  6
ByLayer
 62
  256
370
   -1
100
AcDbCircle
 10
2900.133507042003
 20
-2046.979181981715
 40
3.5
  0
CIRCLE
  5
7E
100
AcDbEntity
  8
2-hublots-decoupe
  6
ByLayer
 62
  256
370
   -1
100
AcDbCircle
 10
2900.133507042003
 20
-1993.020818018271
 40
3.5
  0
CIRCLE
  5
7F
100
AcDbEntity
  8
2-hublots-decoupe
  6
ByLayer
 62
  256
370
   -1
100
AcDbCircle
 10
2861.979181981667
 20
-1954.866492958121
 40
3.5
  0
CIRCLE
  5
80
100
AcDbEntity
  8
2-hublots-decoupe
  6
ByLayer
 62
  256
370
   -1
100
AcDbCircle
 10
2808.020818018296
 20
-1954.866492958037
 40
3.5
  0
CIRCLE
  5
81
100
AcDbEntity
  8
2-hublots-decoupe
  6
ByLayer
 62
  256
370
   -1
100
AcDbCircle
 10
2769.866492957874
 20
-1993.020818018227
 40
3.5
  0
LINE
  5
82
100
AcDbEntity
  8
1-tole-detail
  6
ByLayer
 62
  256
370
   -1
100
AcDbLine
 10
4567.296991327748
 20
-2529.431207117654
 11
4567.296991327748
 21
-483.4312071176537
  0
LINE
  5
83
100
AcDbEntity
  8
1-tole-detail
  6
ByLayer
 62
  256
370
   -1
100
AcDbLine
 10
5298.775118136793
 20
-1006.431207117654
 11
5298.775118136793
 21
-2006.431207117654
  0
LINE
  5
84
100
AcDbEntity
  8
1-tole-detail
  6
ByLayer
 62
  256
370
   -1
100
AcDbLine
 10
4567.296991327748
 20
-483.4312071176446
 11
4693.246272060394
 21
-262.8370578705635
  0
LINE
  5
85
100
AcDbEntity
  8
1-tole-detail
  6
ByLayer
 62
  256
370
   -1
100
AcDbLine
 10
5324.40039454637
 20
-972.6178191044237
 11
5298.775118136793
 21
-1006.431207117654
  0
LINE
  5
86
100
AcDbEntity
  8
1-tole-detail
  6
ByLayer
 62
  256
370
   -1
100
AcDbLine
 10
4567.296991327748
 20
-2529.431207117648
 11
4693.246272060394
 21
-2750.025356364733
  0
LINE
  5
87
100
AcDbEntity
  8
1-tole-detail
  6
ByLayer
 62
  256
370
   -1
100
AcDbLine
 10
5324.40039454637
 20
-2040.244595130871
 11
5298.775118136793
 21
-2006.431207117648
  0
LINE
  5
88
100
AcDbEntity
  8
1-tole-detail
  6
ByLayer
 62
  256
370
   -1
100
AcDbLine
 10
5950.690593931256
 20
-2196.551076966398
 11
5563.086786330052
 21
-2099.815021001923
  0
LINE
  5
89
100
AcDbEntity
  8
1-tole-detail
  6
ByLayer
 62
  256
370
   -1
100
AcDbLine
 10
5563.086786330037
 20
-2099.815021001923
 11
5324.40039454637
 21
-2040.244595130867
  0
LINE
  5
8A
100
AcDbEntity
  8
1-tole-detail
  6
ByLayer
 62
  256
370
   -1
100
AcDbLine
 10
5950.690593931256
 20
-816.311337268904
 11
5563.086786330052
 21
-913.0473932333734
  0
LINE
  5
8B
100
AcDbEntity
  8
1-tole-detail
  6
ByLayer
 62
  256
370
   -1
100
AcDbLine
 10
5563.086786330037
 20
-913.0473932333734
 11
5324.40039454637
 21
-972.6178191044328
  0
LINE
  5
8C
100
AcDbEntity
  8
1-tole-detail
  6
ByLayer
 62
  256
370
   -1
100
AcDbLine
 10
5950.690593931256
 20
-2196.551076966398
 11
5749.309406068744
 21
-3003.448923033604
  0
LINE
  5
8D
100
AcDbEntity
  8
1-tole-detail
  6
ByLayer
 62
  256
370
   -1
100
AcDbLine
 10
5749.309406068744
 20
-3003.448923033604
 11
5708.668479186672
 21
-3003.448923033604
  0
LINE
  5
8E
100
AcDbEntity
  8
1-tole-detail
  6
ByLayer
 62
  256
370
   -1
100
AcDbLine
 10
5708.668479186672
 20
-3003.448923033604
 11
4693.246272060431
 21
-2750.025356364804
  0
LINE
  5
8F
100
AcDbEntity
  8
1-tole-detail
  6
ByLayer
 62
  256
370
   -1
100
AcDbLine
 10
5950.690593931256
 20
-816.311337268904
 11
5749.309406068744
 21
-9.413491201694342
  0
LINE
  5
90
100
AcDbEntity
  8
1-tole-detail
  6
ByLayer
 62
  256
370
   -1
100
AcDbLine
 10
5749.309406068744
 20
-9.413491201694342
 11
5708.668479186657
 21
-9.413491201694342
  0
LINE
  5
91
100
AcDbEntity
  8
1-tole-detail
  6
ByLayer
 62
  256
370
   -1
100
AcDbLine
 10
5708.668479186657
 20
-9.413491201694342
 11
4693.246272060438
 21
-262.8370578704944
  0
LWPOLYLINE
  5
92
100
AcDbEntity
  8
1-tole-detail
  6
ByLayer
 62
  256
370
   -1
100
AcDbPolyline
 90
    4
 70
    1
 43
0
 10
50
 20
-700
 10
1268
 20
-700
 10
1268
 20
-2950
 10
50
 20
-2950
  0
LINE
  5
93
100
AcDbEntity
  8
1-tole-detail
  6
ByLayer
 62
  256
370
   -1
100
AcDbLine
 10
1268
 20
-2950
 11
1268
 21
-700
  0
CIRCLE
  5
94
100
AcDbEntity
  8
2-hublots-decoupe
  6
ByLayer
 62
  256
370
   -1
100
AcDbCircle
 10
352.9999999999964
 20
-2689.999999999996
 40
64.99999999978245
  0
CIRCLE
  5
95
100
AcDbEntity
  8
2-hublots-decoupe
  6
ByLayer
 62
  256
370
   -1
100
AcDbCircle
 10
326.0208180182926
 20
-2755.133507041952
 40
3.5
  0
CIRCLE
  5
96
100
AcDbEntity
  8
2-hublots-decoupe
  6
ByLayer
 62
  256
370
   -1
100
AcDbCircle
 10
379.9791819816746
 20
-2755.133507041901
 40
3.5
  0
CIRCLE
  5
97
100
AcDbEntity
  8
2-hublots-decoupe
  6
ByLayer
 62
  256
370
   -1
100
AcDbCircle
 10
287.8664929578736
 20
-2716.979181981762
 40
3.5
  0
CIRCLE
  5
98
100
AcDbEntity
  8
2-hublots-decoupe
  6
ByLayer
 62
  256
370
   -1
100
AcDbCircle
 10
418.1335070419991
 20
-2716.979181981718
 40
3.5
  0
CIRCLE
  5
99
100
AcDbEntity
  8
2-hublots-decoupe
  6
ByLayer
 62
  256
370
   -1
100
AcDbCircle
 10
418.1335070419991
 20
-2663.020818018274
 40
3.5
  0
CIRCLE
  5
9A
100
AcDbEntity
  8
2-hublots-decoupe
  6
ByLayer
 62
  256
370
   -1
100
AcDbCircle
 10
379.9791819816601
 20
-2624.866492958125
 40
3.5
  0
CIRCLE
  5
9B
100
AcDbEntity
  8
2-hublots-decoupe
  6
ByLayer
 62
  256
370
   -1
100
AcDbCircle
 10
326.0208180182926
 20
-2624.866492958041
 40
3.5
  0
CIRCLE
  5
9C
100
AcDbEntity
  8
2-hublots-decoupe
  6
ByLayer
 62
  256
370
   -1
100
AcDbCircle
 10
287.8664929578736
 20
-2663.020818018231
 40
3.5
  0
CIRCLE
  5
9D
100
AcDbEntity
  8
2-hublots-decoupe
  6
ByLayer
 62
  256
370
   -1
100
AcDbCircle
 10
1103
 20
-2449.999999999996
 40
64.99999999978245
  0
CIRCLE
  5
9E
100
AcDbEntity
  8
2-hublots-decoupe
  6
ByLayer
 62
  256
370
   -1
100
AcDbCircle
 10
1076.020818018296
 20
-2515.133507041952
 40
3.5
  0
CIRCLE
  5
9F
100
AcDbEntity
  8
2-hublots-decoupe
  6
ByLayer
 62
  256
370
   -1
100
AcDbCircle
 10
1129.979181981678
 20
-2515.133507041901
 40
3.5
  0
CIRCLE
  5
A0
100
AcDbEntity
  8
2-hublots-decoupe
  6
ByLayer
 62
  256
370
   -1
100
AcDbCircle
 10
1037.866492957874
 20
-2476.979181981762
 40
3.5
  0
CIRCLE
  5
A1
100
AcDbEntity
  8
2-hublots-decoupe
  6
ByLayer
 62
  256
370
   -1
100
AcDbCircle
 10
1168.133507042003
 20
-2476.979181981718
 40
3.5
  0
CIRCLE
  5
A2
100
AcDbEntity
  8
2-hublots-decoupe
  6
ByLayer
 62
  256
370
   -1
100
AcDbCircle
 10
1168.133507042003
 20
-2423.020818018274
 40
3.5
  0
CIRCLE
  5
A3
100
AcDbEntity
  8
2-hublots-decoupe
  6
ByLayer
 62
  256
370
   -1
100
AcDbCircle
 10
1129.97918198166
 20
-2384.866492958125
 40
3.5
  0
CIRCLE
  5
A4
100
AcDbEntity
  8
2-hublots-decoupe
  6
ByLayer
 62
  256
370
   -1
100
AcDbCircle
 10
1076.020818018296
 20
-2384.866492958037
 40
3.5
  0
CIRCLE
  5
A5
100
AcDbEntity
  8
2-hublots-decoupe
  6
ByLayer
 62
  256
370
   -1
100
AcDbCircle
 10
1037.866492957874
 20
-2423.020818018227
 40
3.5
  0
LINE
  5
A6
100
AcDbEntity
  8
1-tole-detail
  6
ByLayer
 62
  256
370
   -1
100
AcDbLine
 10
3050
 20
-839.9999999999891
 11
3050
 21
-2949.999999999989
  0
LINE
  5
A7
100
AcDbEntity
  8
1-tole-detail
  6
ByLayer
 62
  256
370
   -1
100
AcDbLine
 10
3050
 20
-2949.999999999989
 11
3050
 21
-839.9999999999891
  0
LINE
  5
A8
100
AcDbEntity
  8
1-tole-detail
  6
ByLayer
 62
  256
370
   -1
100
AcDbLine
 10
3050
 20
-840
 11
3050
 21
-2950
  0
LINE
  5
A9
100
AcDbEntity
  8
1-tole-detail
  6
ByLayer
 62
  256
370
   -1
100
AcDbLine
 10
3050
 20
-840
 11
4075
 21
-840
  0
LINE
  5
AA
100
AcDbEntity
  8
1-tole-detail
  6
ByLayer
 62
  256
370
   -1
100
AcDbLine
 10
4075
 20
-840
 11
4075
 21
-700
  0
LINE
  5
AB
100
AcDbEntity
  8
1-tole-detail
  6
ByLayer
 62
  256
370
   -1
100
AcDbLine
 10
4075
 20
-700
 11
4359.999999999996
 21
-700
  0
LINE
  5
AC
100
AcDbEntity
  8
1-tole-detail
  6
ByLayer
 62
  256
370
   -1
100
AcDbLine
 10
4359.999999999996
 20
-700
 11
4359.999999999996
 21
-2950
  0
LINE
  5
AD
100
AcDbEntity
  8
1-tole-detail
  6
ByLayer
 62
  256
370
   -1
100
AcDbLine
 10
4359.999999999996
 20
-2950
 11
3050
 21
-2950
  0
LINE
  5
AE
100
AcDbEntity
  8
1-tole-detail
  6
ByLayer
 62
  256
370
   -1
100
AcDbLine
 10
3050
 20
-2950
 11
3050
 21
-840
  0
LINE
  5
AF
100
AcDbEntity
  8
1-tole-detail
  6
ByLayer
 62
  256
370
   -1
100
AcDbLine
 10
4359.999999999996
 20
-2744
 11
4359.999999999996
 21
-2950
  0
CIRCLE
  5
B0
100
AcDbEntity
  8
2-hublots-decoupe
  6
ByLayer
 62
  256
370
   -1
100
AcDbCircle
 10
3635
 20
-1730.000000000004
 40
64.99999999978245
  0
CIRCLE
  5
B1
100
AcDbEntity
  8
2-hublots-decoupe
  6
ByLayer
 62
  256
370
   -1
100
AcDbCircle
 10
3608.020818018296
 20
-1795.133507041963
 40
3.5
  0
CIRCLE
  5
B2
100
AcDbEntity
  8
2-hublots-decoupe
  6
ByLayer
 62
  256
370
   -1
100
AcDbCircle
 10
3661.979181981682
 20
-1795.133507041908
 40
3.5
  0
CIRCLE
  5
B3
100
AcDbEntity
  8
2-hublots-decoupe
  6
ByLayer
 62
  256
370
   -1
100
AcDbCircle
 10
3569.866492957874
 20
-1756.979181981773
 40
3.5
  0
CIRCLE
  5
B4
100
AcDbEntity
  8
2-hublots-decoupe
  6
ByLayer
 62
  256
370
   -1
100
AcDbCircle
 10
3700.133507042003
 20
-1756.979181981726
 40
3.5
  0
CIRCLE
  5
B5
100
AcDbEntity
  8
2-hublots-decoupe
  6
ByLayer
 62
  256
370
   -1
100
AcDbCircle
 10
3700.133507042003
 20
-1703.020818018282
 40
3.5
  0
CIRCLE
  5
B6
100
AcDbEntity
  8
2-hublots-decoupe
  6
ByLayer
 62
  256
370
   -1
100
AcDbCircle
 10
3661.979181981664
 20
-1664.866492958132
 40
3.5
  0
CIRCLE
  5
B7
100
AcDbEntity
  8
2-hublots-decoupe
  6
ByLayer
 62
  256
370
   -1
100
AcDbCircle
 10
3608.020818018296
 20
-1664.866492958045
 40
3.5
  0
CIRCLE
  5
B8
100
AcDbEntity
  8
2-hublots-decoupe
  6
ByLayer
 62
  256
370
   -1
100
AcDbCircle
 10
3569.866492957874
 20
-1703.020818018234
 40
3.5
  0
LINE
  5
B9
100
AcDbEntity
  8
1-tole-detail
  6
ByLayer
 62
  256
370
   -1
100
AcDbLine
 10
6050
 20
-2857.51750324967
 11
6167.5
 21
-2857.51750324967
  0
LINE
  5
BA
100
AcDbEntity
  8
1-tole-detail
  6
ByLayer
 62
  256
370
   -1
100
AcDbLine
 10
6167.5
 20
-2857.51750324967
 11
6167.5
 21
-1857.51750324967
  0
LINE
  5
BB
100
AcDbEntity
  8
1-tole-detail
  6
ByLayer
 62
  256
370
   -1
100
AcDbLine
 10
6167.5
 20
-1857.51750324967
 11
6050
 21
-1857.51750324967
  0
LINE
  5
BC
100
AcDbEntity
  8
1-tole-detail
  6
ByLayer
 62
  256
370
   -1
100
AcDbLine
 10
6050
 20
-1857.51750324967
 11
6050
 21
-1765.035006499331
  0
LINE
  5
BD
100
AcDbEntity
  8
1-tole-detail
  6
ByLayer
 62
  256
370
   -1
100
AcDbLine
 10
6050
 20
-1765.035006499331
 11
7434
 21
-1765.035006499331
  0
LINE
  5
BE
100
AcDbEntity
  8
1-tole-detail
  6
ByLayer
 62
  256
370
   -1
100
AcDbLine
 10
7434
 20
-1765.035006499331
 11
7434
 21
-2950
  0
LINE
  5
BF
100
AcDbEntity
  8
1-tole-detail
  6
ByLayer
 62
  256
370
   -1
100
AcDbLine
 10
7434
 20
-2950
 11
6050
 21
-2950
  0
LINE
  5
C0
100
AcDbEntity
  8
1-tole-detail
  6
ByLayer
 62
  256
370
   -1
100
AcDbLine
 10
6050
 20
-2950
 11
6050
 21
-2857.51750324967
  0
LWPOLYLINE
  5
C1
100
AcDbEntity
  8
1-tole-detail
  6
ByLayer
 62
  256
370
   -1
100
AcDbPolyline
 90
    4
 70
    1
 43
0
 10
7550
 20
-2950
 10
8768
 20
-2950
 10
8768
 20
-700
 10
7550
 20
-700
  0
LINE
  5
C2
100
AcDbEntity
  8
1-tole-detail
  6
ByLayer
 62
  256
370
   -1
100
AcDbLine
 10
8768
 20
-700
 11
8768
 21
-2950
  0
CIRCLE
  5
C3
100
AcDbEntity
  8
2-hublots-decoupe
  6
ByLayer
 62
  256
370
   -1
100
AcDbCircle
 10
7852.999999999996
 20
-959.9999999999964
 40
64.99999999978245
  0
CIRCLE
  5
C4
100
AcDbEntity
  8
2-hublots-decoupe
  6
ByLayer
 62
  256
370
   -1
100
AcDbCircle
 10
7826.020818018293
 20
-894.8664929580409
 40
3.5
  0
CIRCLE
  5
C5
100
AcDbEntity
  8
2-hublots-decoupe
  6
ByLayer
 62
  256
370
   -1
100
AcDbCircle
 10
7879.979181981675
 20
-894.8664929580918
 40
3.5
  0
CIRCLE
  5
C6
100
AcDbEntity
  8
2-hublots-decoupe
  6
ByLayer
 62
  256
370
   -1
100
AcDbCircle
 10
7787.866492957874
 20
-933.0208180182308
 40
3.5
  0
CIRCLE
  5
C7
100
AcDbEntity
  8
2-hublots-decoupe
  6
ByLayer
 62
  256
370
   -1
100
AcDbCircle
 10
7918.133507041999
 20
-933.0208180182744
 40
3.5
  0
CIRCLE
  5
C8
100
AcDbEntity
  8
2-hublots-decoupe
  6
ByLayer
 62
  256
370
   -1
100
AcDbCircle
 10
7918.133507041999
 20
-986.9791819817183
 40
3.5
  0
CIRCLE
  5
C9
100
AcDbEntity
  8
2-hublots-decoupe
  6
ByLayer
 62
  256
370
   -1
100
AcDbCircle
 10
7879.97918198166
 20
-1025.133507041868
 40
3.5
  0
CIRCLE
  5
CA
100
AcDbEntity
  8
2-hublots-decoupe
  6
ByLayer
 62
  256
370
   -1
100
AcDbCircle
 10
7826.020818018293
 20
-1025.133507041952
 40
3.5
  0
CIRCLE
  5
CB
100
AcDbEntity
  8
2-hublots-decoupe
  6
ByLayer
 62
  256
370
   -1
100
AcDbCircle
 10
7787.866492957874
 20
-986.9791819817619
 40
3.5
  0
CIRCLE
  5
CC
100
AcDbEntity
  8
2-hublots-decoupe
  6
ByLayer
 62
  256
370
   -1
100
AcDbCircle
 10
8603
 20
-1199.999999999996
 40
64.99999999978245
  0
CIRCLE
  5
CD
100
AcDbEntity
  8
2-hublots-decoupe
  6
ByLayer
 62
  256
370
   -1
100
AcDbCircle
 10
8576.020818018296
 20
-1134.866492958041
 40
3.5
  0
CIRCLE
  5
CE
100
AcDbEntity
  8
2-hublots-decoupe
  6
ByLayer
 62
  256
370
   -1
100
AcDbCircle
 10
8629.979181981678
 20
-1134.866492958092
 40
3.5
  0
CIRCLE
  5
CF
100
AcDbEntity
  8
2-hublots-decoupe
  6
ByLayer
 62
  256
370
   -1
100
AcDbCircle
 10
8537.866492957874
 20
-1173.020818018231
 40
3.5
  0
CIRCLE
  5
D0
100
AcDbEntity
  8
2-hublots-decoupe
  6
ByLayer
 62
  256
370
   -1
100
AcDbCircle
 10
8668.133507042003
 20
-1173.020818018274
 40
3.5
  0
CIRCLE
  5
D1
100
AcDbEntity
  8
2-hublots-decoupe
  6
ByLayer
 62
  256
370
   -1
100
AcDbCircle
 10
8668.133507042003
 20
-1226.979181981718
 40
3.5
  0
CIRCLE
  5
D2
100
AcDbEntity
  8
2-hublots-decoupe
  6
ByLayer
 62
  256
370
   -1
100
AcDbCircle
 10
8629.97918198166
 20
-1265.133507041868
 40
3.5
  0
CIRCLE
  5
D3
100
AcDbEntity
  8
2-hublots-decoupe
  6
ByLayer
 62
  256
370
   -1
100
AcDbCircle
 10
8576.020818018296
 20
-1265.133507041955
 40
3.5
  0
CIRCLE
  5
D4
100
AcDbEntity
  8
2-hublots-decoupe
  6
ByLayer
 62
  256
370
   -1
100
AcDbCircle
 10
8537.866492957874
 20
-1226.979181981766
 40
3.5
  0
LINE
  5
D5
100
AcDbEntity
  8
1-tole-detail
  6
ByLayer
 62
  256
370
   -1
100
AcDbLine
 10
9860
 20
-3000
 11
9860
 21
-2860
  0
LINE
  5
D6
100
AcDbEntity
  8
1-tole-detail
  6
ByLayer
 62
  256
370
   -1
100
AcDbLine
 10
9860
 20
-2860
 11
10500
 21
-2860
  0
LINE
  5
D7
100
AcDbEntity
  8
1-tole-detail
  6
ByLayer
 62
  256
370
   -1
100
AcDbLine
 10
10500
 20
-2860
 11
10500
 21
-750
  0
LINE
  5
D8
100
AcDbEntity
  8
1-tole-detail
  6
ByLayer
 62
  256
370
   -1
100
AcDbLine
 10
10500
 20
-750
 11
9000
 21
-750
  0
LINE
  5
D9
100
AcDbEntity
  8
1-tole-detail
  6
ByLayer
 62
  256
370
   -1
100
AcDbLine
 10
9000
 20
-750
 11
9000
 21
-3000
  0
LINE
  5
DA
100
AcDbEntity
  8
1-tole-detail
  6
ByLayer
 62
  256
370
   -1
100
AcDbLine
 10
9000
 20
-3000
 11
9860
 21
-3000
  0
LINE
  5
DB
100
AcDbEntity
  8
1-tole-detail
  6
ByLayer
 62
  256
370
   -1
100
AcDbLine
 10
10500
 20
-750
 11
10500
 21
-2860
  0
CIRCLE
  5
DC
100
AcDbEntity
  8
2-hublots-decoupe
  6
ByLayer
 62
  256
370
   -1
100
AcDbCircle
 10
9585
 20
-1490
 40
64.99999999978245
  0
CIRCLE
  5
DD
100
AcDbEntity
  8
2-hublots-decoupe
  6
ByLayer
 62
  256
370
   -1
100
AcDbCircle
 10
9558.020818018296
 20
-1424.866492958041
 40
3.5
  0
CIRCLE
  5
DE
100
AcDbEntity
  8
2-hublots-decoupe
  6
ByLayer
 62
  256
370
   -1
100
AcDbCircle
 10
9611.979181981678
 20
-1424.866492958092
 40
3.5
  0
CIRCLE
  5
DF
100
AcDbEntity
  8
2-hublots-decoupe
  6
ByLayer
 62
  256
370
   -1
100
AcDbCircle
 10
9519.866492957874
 20
-1463.020818018231
 40
3.5
  0
CIRCLE
  5
E0
100
AcDbEntity
  8
2-hublots-decoupe
  6
ByLayer
 62
  256
370
   -1
100
AcDbCircle
 10
9650.133507042003
 20
-1463.020818018274
 40
3.5
  0
CIRCLE
  5
E1
100
AcDbEntity
  8
2-hublots-decoupe
  6
ByLayer
 62
  256
370
   -1
100
AcDbCircle
 10
9650.133507042003
 20
-1516.979181981718
 40
3.5
  0
CIRCLE
  5
E2
100
AcDbEntity
  8
2-hublots-decoupe
  6
ByLayer
 62
  256
370
   -1
100
AcDbCircle
 10
9611.979181981664
 20
-1555.133507041868
 40
3.5
  0
CIRCLE
  5
E3
100
AcDbEntity
  8
2-hublots-decoupe
  6
ByLayer
 62
  256
370
   -1
100
AcDbCircle
 10
9558.020818018296
 20
-1555.133507041955
 40
3.5
  0
CIRCLE
  5
E4
100
AcDbEntity
  8
2-hublots-decoupe
  6
ByLayer
 62
  256
370
   -1
100
AcDbCircle
 10
9519.866492957874
 20
-1516.979181981766
 40
3.5
  0
CIRCLE
  5
E5
100
AcDbEntity
  8
2-hublots-decoupe
  6
ByLayer
 62
  256
370
   -1
100
AcDbCircle
 10
10335
 20
-1730
 40
64.99999999978245
  0
CIRCLE
  5
E6
100
AcDbEntity
  8
2-hublots-decoupe
  6
ByLayer
 62
  256
370
   -1
100
AcDbCircle
 10
10308.0208180183
 20
-1664.866492958041
 40
3.5
  0
CIRCLE
  5
E7
100
AcDbEntity
  8
2-hublots-decoupe
  6
ByLayer
 62
  256
370
   -1
100
AcDbCircle
 10
10361.97918198168
 20
-1664.866492958095
 40
3.5
  0
CIRCLE
  5
E8
100
AcDbEntity
  8
2-hublots-decoupe
  6
ByLayer
 62
  256
370
   -1
100
AcDbCircle
 10
10269.86649295787
 20
-1703.020818018231
 40
3.5
  0
CIRCLE
  5
E9
100
AcDbEntity
  8
2-hublots-decoupe
  6
ByLayer
 62
  256
370
   -1
100
AcDbCircle
 10
10400.133507042
 20
-1703.020818018278
 40
3.5
  0
CIRCLE
  5
EA
100
AcDbEntity
  8
2-hublots-decoupe
  6
ByLayer
 62
  256
370
   -1
100
AcDbCircle
 10
10400.133507042
 20
-1756.979181981722
 40
3.5
  0
CIRCLE
  5
EB
100
AcDbEntity
  8
2-hublots-decoupe
  6
ByLayer
 62
  256
370
   -1
100
AcDbCircle
 10
10361.97918198166
 20
-1795.133507041872
 40
3.5
  0
CIRCLE
  5
EC
100
AcDbEntity
  8
2-hublots-decoupe
  6
ByLayer
 62
  256
370
   -1
100
AcDbCircle
 10
10308.0208180183
 20
-1795.133507041955
 40
3.5
  0
CIRCLE
  5
ED
100
AcDbEntity
  8
2-hublots-decoupe
  6
ByLayer
 62
  256
370
   -1
100
AcDbCircle
 10
10269.86649295787
 20
-1756.979181981766
 40
3.5
  0
LINE
  5
EE
100
AcDbEntity
  8
1-tole-detail
  6
ByLayer
 62
  256
370
   -1
100
AcDbLine
 10
10550
 20
-2810
 11
10550
 21
-700
  0
LINE
  5
EF
100
AcDbEntity
  8
1-tole-detail
  6
ByLayer
 62
  256
370
   -1
100
AcDbLine
 10
10550
 20
-2810
 11
11575
 21
-2810
  0
LINE
  5
F0
100
AcDbEntity
  8
1-tole-detail
  6
ByLayer
 62
  256
370
   -1
100
AcDbLine
 10
11575
 20
-2810
 11
11575
 21
-2950
  0
LINE
  5
F1
100
AcDbEntity
  8
1-tole-detail
  6
ByLayer
 62
  256
370
   -1
100
AcDbLine
 10
11575
 20
-2950
 11
11860
 21
-2950
  0
LINE
  5
F2
100
AcDbEntity
  8
1-tole-detail
  6
ByLayer
 62
  256
370
   -1
100
AcDbLine
 10
11860
 20
-2950
 11
11860
 21
-700
  0
LINE
  5
F3
100
AcDbEntity
  8
1-tole-detail
  6
ByLayer
 62
  256
370
   -1
100
AcDbLine
 10
11860
 20
-700
 11
10550
 21
-700
  0
LINE
  5
F4
100
AcDbEntity
  8
1-tole-detail
  6
ByLayer
 62
  256
370
   -1
100
AcDbLine
 10
10550
 20
-700
 11
10550
 21
-2810
  0
LINE
  5
F5
100
AcDbEntity
  8
1-tole-detail
  6
ByLayer
 62
  256
370
   -1
100
AcDbLine
 10
11860
 20
-906
 11
11860
 21
-700
  0
CIRCLE
  5
F6
100
AcDbEntity
  8
2-hublots-decoupe
  6
ByLayer
 62
  256
370
   -1
100
AcDbCircle
 10
11135
 20
-1920
 40
64.99999999978245
  0
CIRCLE
  5
F7
100
AcDbEntity
  8
2-hublots-decoupe
  6
ByLayer
 62
  256
370
   -1
100
AcDbCircle
 10
11108.0208180183
 20
-1854.866492958041
 40
3.5
  0
CIRCLE
  5
F8
100
AcDbEntity
  8
2-hublots-decoupe
  6
ByLayer
 62
  256
370
   -1
100
AcDbCircle
 10
11161.97918198168
 20
-1854.866492958095
 40
3.5
  0
CIRCLE
  5
F9
100
AcDbEntity
  8
2-hublots-decoupe
  6
ByLayer
 62
  256
370
   -1
100
AcDbCircle
 10
11069.86649295788
 20
-1893.020818018231
 40
3.5
  0
CIRCLE
  5
FA
100
AcDbEntity
  8
2-hublots-decoupe
  6
ByLayer
 62
  256
370
   -1
100
AcDbCircle
 10
11200.133507042
 20
-1893.020818018278
 40
3.5
  0
CIRCLE
  5
FB
100
AcDbEntity
  8
2-hublots-decoupe
  6
ByLayer
 62
  256
370
   -1
100
AcDbCircle
 10
11200.133507042
 20
-1946.979181981722
 40
3.5
  0
CIRCLE
  5
FC
100
AcDbEntity
  8
2-hublots-decoupe
  6
ByLayer
 62
  256
370
   -1
100
AcDbCircle
 10
11161.97918198166
 20
-1985.133507041872
 40
3.5
  0
CIRCLE
  5
FD
100
AcDbEntity
  8
2-hublots-decoupe
  6
ByLayer
 62
  256
370
   -1
100
AcDbCircle
 10
11108.0208180183
 20
-1985.133507041959
 40
3.5
  0
CIRCLE
  5
FE
100
AcDbEntity
  8
2-hublots-decoupe
  6
ByLayer
 62
  256
370
   -1
100
AcDbCircle
 10
11069.86649295788
 20
-1946.979181981769
 40
3.5
  0
LINE
  5
FF
100
AcDbEntity
  8
1-tole-detail
  6
ByLayer
 62
  256
370
   -1
100
AcDbLine
 10
1400
 20
-1790.333333333339
 11
1400
 21
-2813.333333333339
  0
LINE
  5
100
100
AcDbEntity
  8
1-tole-detail
  6
ByLayer
 62
  256
370
   -1
100
AcDbLine
 10
1400
 20
-1790.333333333339
 11
1400
 21
-767.3333333333394
  0
LINE
  5
101
100
AcDbEntity
  8
1-tole-detail
  6
ByLayer
 62
  256
370
   -1
100
AcDbLine
 10
1400
 20
-2813.333333333339
 11
1300
 21
-2950
  0
LINE
  5
102
100
AcDbEntity
  8
1-tole-detail
  6
ByLayer
 62
  256
370
   -1
100
AcDbLine
 10
1300
 20
-630.6666666666697
 11
1400.00000000004
 21
-767.3333333333303
  0
LINE
  5
103
100
AcDbEntity
  8
1-tole-detail
  6
ByLayer
 62
  256
370
   -1
100
AcDbLine
 10
1300
 20
-630.6666666666697
 11
1300
 21
-2950
  0
LINE
  5
104
100
AcDbEntity
  8
1-tole-detail
  6
ByLayer
 62
  256
370
   -1
100
AcDbLine
 10
50
 20
-650
 11
980
 21
-650
  0
LINE
  5
105
100
AcDbEntity
  8
1-tole-detail
  6
ByLayer
 62
  256
370
   -1
100
AcDbLine
 10
980
 20
-650
 11
980
 21
-444
  0
LINE
  5
106
100
AcDbEntity
  8
1-tole-detail
  6
ByLayer
 62
  256
370
   -1
100
AcDbLine
 10
980
 20
-444
 11
50
 21
-444
  0
LINE
  5
107
100
AcDbEntity
  8
1-tole-detail
  6
ByLayer
 62
  256
370
   -1
100
AcDbLine
 10
50
 20
-444
 11
50
 21
-650
  0
LINE
  5
108
100
AcDbEntity
  8
1-tole-detail
  6
ByLayer
 62
  256
370
   -1
100
AcDbLine
 10
50
 20
-400
 11
980
 21
-400
  0
LINE
  5
109
100
AcDbEntity
  8
1-tole-detail
  6
ByLayer
 62
  256
370
   -1
100
AcDbLine
 10
980
 20
-400
 11
980
 21
-194
  0
LINE
  5
10A
100
AcDbEntity
  8
1-tole-detail
  6
ByLayer
 62
  256
370
   -1
100
AcDbLine
 10
980
 20
-194
 11
50
 21
-194
  0
LINE
  5
10B
100
AcDbEntity
  8
1-tole-detail
  6
ByLayer
 62
  256
370
   -1
100
AcDbLine
 10
50
 20
-194
 11
50
 21
-400
  0
LWPOLYLINE
  5
10C
100
AcDbEntity
  8
1-tole-detail
  6
ByLayer
 62
  256
370
   -1
100
AcDbPolyline
 90
    4
 70
    1
 43
0
 10
7243.5
 20
-927
 10
6050
 20
-927
 10
6050
 20
-1730
 10
7243.5
 20
-1730
  0
LWPOLYLINE
  5
10D
100
AcDbEntity
  8
1-tole-detail
  6
ByLayer
 62
  256
370
   -1
100
AcDbPolyline
 90
    4
 70
    1
 43
0
 10
7243.5
 20
-50
 10
6050
 20
-50
 10
6050
 20
-853
 10
7243.5
 20
-853
  0
DIMENSION
  5
10E
100
AcDbEntity
  8
_MESURES
  6
ByLayer
 62
  256
370
   -1
100
AcDbDimension
  2
*D1
 10
1500
 20
100
 30
0
 11
750
 21
132.8125
 31
0
 70
   32
 71
    5
  3
Standard
 53
0
210
0
220
0
230
1
100
AcDbAlignedDimension
 13
0
 23
0
 33
0
 14
1500
 24
0
 34
0
100
AcDbRotatedDimension
  0
DIMENSION
  5
10F
100
AcDbEntity
  8
_MESURES
  6
ByLayer
 62
  256
370
   -1
100
AcDbDimension
  2
*D2
 10
-100
 20
-3000
 30
0
 11
-132.8125
 21
-1500
 31
0
 70
   32
 71
    5
  3
Standard
 53
0
210
0
220
0
230
1
100
AcDbAlignedDimension
 13
0
 23
0
 33
0
 14
0
 24
-3000
 34
0
 50
90
100
AcDbRotatedDimension
  0
ENDSEC
  0
SECTION
  2
OBJECTS
  0
DICTIONARY
  5
C
330
0
100
AcDbDictionary
281
    1
  3
ACAD_GROUP
350
D
  0
DICTIONARY
  5
D
330
C
100
AcDbDictionary
281
    1
  0
PLOTSETTINGS
  5
110
100
AcDbPlotSettings
  6
1x1
 40
0
 41
0
 42
0
 43
0
  0
ENDSEC
  0
EOF
