999
dxfrw 0.6.3
  0
SECTION
  2
HEADER
  9
$ACADVER
  1
AC1021
  9
$DWGCODEPAGE
  3
ANSI_1252
  9
$INSBASE
 10
0
 20
0
 30
0
  9
$EXTMIN
 10
-40
 20
-185.0000001442615
 30
0
  9
$EXTMAX
 10
410
 20
20
 30
0
  9
$LIMMIN
 10
0
 20
0
  9
$LIMMAX
 10
420
 20
297
  9
$ORTHOMODE
 70
    0
  9
$REGENMODE
 70
    1
  9
$FILLMODE
 70
    1
  9
$QTEXTMODE
 70
    0
  9
$MIRRTEXT
 70
    0
  9
$LTSCALE
 40
1
  9
$ATTMODE
 70
    0
  9
$TEXTSIZE
 40
2.5
  9
$TRACEWID
 40
15.68
  9
$TEXTSTYLE
  7
STANDARD
  9
$CLAYER
  8
mesures
  9
$CELTYPE
  6
BYLAYER
  9
$CECOLOR
 62
  256
  9
$CELTSCALE
 40
1
  9
$DISPSILH
 70
    0
  9
$DIMSCALE
 40
1
  9
$DIMASZ
 40
2.5
  9
$DIMEXO
 40
0.625
  9
$DIMDLI
 40
3.75
  9
$DIMRND
 40
0
  9
$DIMDLE
 40
0
  9
$DIMEXE
 40
1.25
  9
$DIMTP
 40
0
  9
$DIMTM
 40
0
  9
$DIMTXT
 40
5
  9
$DIMCEN
 40
2.5
  9
$DIMTSZ
 40
0
  9
$DIMTOL
 70
    0
  9
$DIMLIM
 70
    0
  9
$DIMTIH
 70
    0
  9
$DIMTOH
 70
    0
  9
$DIMSE1
 70
    0
  9
$DIMSE2
 70
    0
  9
$DIMTAD
 70
    1
  9
$DIMZIN
 70
    1
  9
$DIMBLK
  1

  9
$DIMASO
 70
    1
  9
$DIMSHO
 70
    1
  9
$DIMPOST
  1

  9
$DIMAPOST
  1

  9
$DIMALT
 70
    0
  9
$DIMALTD
 70
    3
  9
$DIMALTF
 40
0.03937
  9
$DIMLFAC
 40
1
  9
$DIMTOFL
 70
    1
  9
$DIMTVP
 40
0
  9
$DIMTIX
 70
    0
  9
$DIMSOXD
 70
    0
  9
$DIMSAH
 70
    0
  9
$DIMBLK1
  1

  9
$DIMBLK2
  1

  9
$DIMSTYLE
  2
STANDARD
  9
$DIMCLRD
 70
    0
  9
$DIMCLRE
 70
    0
  9
$DIMCLRT
 70
    0
  9
$DIMTFAC
 40
1
  9
$DIMGAP
 40
0.625
  9
$DIMJUST
 70
    0
  9
$DIMSD1
 70
    0
  9
$DIMSD2
 70
    0
  9
$DIMTOLJ
 70
    0
  9
$DIMTZIN
 70
    8
  9
$DIMALTZ
 70
    0
  9
$DIMALTTZ
 70
    0
  9
$DIMUPT
 70
    0
  9
$DIMDEC
 70
    0
  9
$DIMTDEC
 70
    2
  9
$DIMALTU
 70
    2
  9
$DIMALTTD
 70
    3
  9
$DIMTXSTY
  7
STANDARD
  9
$DIMAUNIT
 70
    0
  9
$DIMADEC
 70
    2
  9
$DIMALTRND
 40
0
  9
$DIMAZIN
 70
    0
  9
$DIMDSEP
 70
    0
  9
$DIMATFIT
 70
    3
  9
$DIMFRAC
 70
    0
  9
$DIMLDRBLK
  1
STANDARD
  9
$DIMLUNIT
 70
    2
  9
$DIMLWD
 70
   -2
  9
$DIMLWE
 70
   -2
  9
$DIMTMOVE
 70
    0
  9
$DIMFXL
 40
1
  9
$DIMFXLON
 70
    0
  9
$DIMJOGANG
 40
0.7854
  9
$DIMTFILL
 70
    0
  9
$DIMTFILLCLR
 70
    0
  9
$DIMARCSYM
 70
    0
  9
$DIMLTYPE
  6

  9
$DIMLTEX1
  6

  9
$DIMLTEX2
  6

  9
$LUNITS
 70
    2
  9
$LUPREC
 70
    4
  9
$SKETCHINC
 40
1
  9
$FILLETRAD
 40
0
  9
$AUNITS
 70
    0
  9
$AUPREC
 70
    2
  9
$MENU
  1
.
  9
$ELEVATION
 40
0
  9
$PELEVATION
 40
0
  9
$THICKNESS
 40
0
  9
$LIMCHECK
 70
    0
  9
$CHAMFERA
 40
0
  9
$CHAMFERB
 40
0
  9
$CHAMFERC
 40
0
  9
$CHAMFERD
 40
0
  9
$SKPOLY
 70
    0
  9
$USRTIMER
 70
    1
  9
$ANGBASE
 50
0
  9
$ANGDIR
 70
    0
  9
$PDMODE
 70
   34
  9
$PDSIZE
 40
0
  9
$PLINEWID
 40
0
  9
$SPLFRAME
 70
    0
  9
$SPLINETYPE
 70
    2
  9
$SPLINESEGS
 70
    8
  9
$HANDSEED
  5
20000
  9
$SURFTAB1
 70
    6
  9
$SURFTAB2
 70
    6
  9
$SURFTYPE
 70
    6
  9
$SURFU
 70
    6
  9
$SURFV
 70
    6
  9
$UCSBASE
  2

  9
$UCSNAME
  2

  9
$UCSORG
 10
0
 20
0
 30
0
  9
$UCSXDIR
 10
1
 20
0
 30
0
  9
$UCSYDIR
 10
0
 20
1
 30
0
  9
$UCSORTHOREF
  2

  9
$UCSORTHOVIEW
 70
    0
  9
$UCSORGTOP
 10
0
 20
0
 30
0
  9
$UCSORGBOTTOM
 10
0
 20
0
 30
0
  9
$UCSORGLEFT
 10
0
 20
0
 30
0
  9
$UCSORGRIGHT
 10
0
 20
0
 30
0
  9
$UCSORGFRONT
 10
0
 20
0
 30
0
  9
$UCSORGBACK
 10
0
 20
0
 30
0
  9
$PUCSBASE
  2

  9
$PUCSNAME
  2

  9
$PUCSORG
 10
0
 20
0
 30
0
  9
$PUCSXDIR
 10
1
 20
0
 30
0
  9
$PUCSYDIR
 10
0
 20
1
 30
0
  9
$PUCSORTHOREF
  2

  9
$PUCSORTHOVIEW
 70
    0
  9
$PUCSORGTOP
 10
0
 20
0
 30
0
  9
$PUCSORGBOTTOM
 10
0
 20
0
 30
0
  9
$PUCSORGLEFT
 10
0
 20
0
 30
0
  9
$PUCSORGRIGHT
 10
0
 20
0
 30
0
  9
$PUCSORGFRONT
 10
0
 20
0
 30
0
  9
$PUCSORGBACK
 10
0
 20
0
 30
0
  9
$USERI1
 70
    0
  9
$USERI2
 70
    0
  9
$USERI3
 70
    0
  9
$USERI4
 70
    0
  9
$USERI5
 70
    0
  9
$USERR1
 40
0
  9
$USERR2
 40
0
  9
$USERR3
 40
0
  9
$USERR4
 40
0
  9
$USERR5
 40
0
  9
$WORLDVIEW
 70
    1
  9
$SHADEDGE
 70
    3
  9
$SHADEDIF
 70
   70
  9
$TILEMODE
 70
    1
  9
$MAXACTVP
 70
   64
  9
$PINSBASE
 10
0
 20
0
 30
0
  9
$PLIMCHECK
 70
    0
  9
$PEXTMIN
 10
0
 20
0
 30
0
  9
$PEXTMAX
 10
0
 20
0
 30
0
  9
$GRIDMODE
 70
    1
  9
$SNAPSTYLE
 70
    0
  9
$GRIDUNIT
 10
0
 20
0
  9
$PLIMMIN
 10
0
 20
0
  9
$PLIMMAX
 10
420
 20
297
  9
$UNITMODE
 70
    0
  9
$VISRETAIN
 70
    1
  9
$PLINEGEN
 70
    0
  9
$PSLTSCALE
 70
    1
  9
$TREEDEPTH
 70
 3020
  9
$CMLSTYLE
  2
Standard
  9
$CMLJUST
 70
    0
  9
$CMLSCALE
 40
20
  9
$PROXYGRAPHICS
 70
    1
  9
$MEASUREMENT
 70
    1
  9
$CELWEIGHT
370
   -1
  9
$ENDCAPS
280
    0
  9
$JOINSTYLE
280
    0
  9
$LWDISPLAY
290
    0
  9
$INSUNITS
 70
    0
  9
$HYPERLINKBASE
  1

  9
$STYLESHEET
  1

  9
$XEDIT
290
    1
  9
$CEPSNTYPE
380
    0
  9
$PSTYLEMODE
290
    1
  9
$EXTNAMES
290
    1
  9
$PSVPSCALE
 40
0
  9
$OLESTARTUP
290
    0
  9
$SORTENTS
280
  127
  9
$INDEXCTL
280
    0
  9
$HIDETEXT
280
    1
  9
$XCLIPFRAME
290
    0
  9
$HALOGAP
280
    0
  9
$OBSCOLOR
 70
  257
  9
$OBSLTYPE
280
    0
  9
$INTERSECTIONDISPLAY
280
    0
  9
$INTERSECTIONCOLOR
 70
  257
  9
$DIMASSOC
280
    1
  9
$PROJECTNAME
  1

  9
$CAMERADISPLAY
290
    0
  9
$LENSLENGTH
 40
50
  9
$CAMERAHEIGHT
 40
0
  9
$STEPSPERSEC
 40
2
  9
$STEPSIZE
 40
50
  9
$3DDWFPREC
 40
2
  9
$PSOLWIDTH
 40
5
  9
$PSOLHEIGHT
 40
80
  9
$LOFTANG1
 40
1.570796326794897
  9
$LOFTANG2
 40
1.570796326794897
  9
$LOFTMAG1
 40
0
  9
$LOFTMAG2
 40
0
  9
$LOFTPARAM
 70
    7
  9
$LOFTNORMALS
280
    1
  9
$LATITUDE
 40
1
  9
$LONGITUDE
 40
1
  9
$NORTHDIRECTION
 40
0
  9
$TIMEZONE
 70
-8000
  9
$LIGHTGLYPHDISPLAY
280
    1
  9
$TILEMODELIGHTSYNCH
280
    1
  9
$SOLIDHIST
280
    1
  9
$SHOWHIST
280
    1
  9
$DWFFRAME
280
    2
  9
$DGNFRAME
280
    0
  9
$REALWORLDSCALE
290
    1
  9
$INTERFERECOLOR
 62
    1
  9
$CSHADOW
280
    0
  9
$SHADOWPLANELOCATION
 40
0
  0
ENDSEC
  0
SECTION
  2
CLASSES
  0
ENDSEC
  0
SECTION
  2
TABLES
  0
TABLE
  2
VPORT
  5
8
330
0
100
AcDbSymbolTable
 70
    1
  0
VPORT
  5
31
330
2
100
AcDbSymbolTableRecord
100
AcDbViewportTableRecord
  2
*ACTIVE
 70
    0
 10
0
 20
0
 11
1
 21
1
 12
216.9907918616364
 22
16.71986626537588
 13
0
 23
0
 14
10
 24
10
 15
10
 25
10
 16
0
 26
0
 36
1
 17
0
 27
0
 37
0
 40
282.5841133642649
 41
1.879063719115735
 42
50
 43
0
 44
0
 50
0
 51
0
 71
    0
 72
  100
 73
    1
 74
    3
 75
    0
 76
    1
 77
    0
 78
    0
281
    0
 65
    1
110
0
120
0
130
0
111
1
121
0
131
0
112
0
122
1
132
0
 79
    0
146
0
348
10020
 60
    7
 61
    5
292
1
282
    1
141
0
142
0
 63
  250
421
3358443
  0
ENDTAB
  0
TABLE
  2
LTYPE
  5
5
330
0
100
AcDbSymbolTable
 70
    4
  0
LTYPE
  5
14
330
5
100
AcDbSymbolTableRecord
100
AcDbLinetypeTableRecord
  2
ByBlock
 70
    0
  3

 72
   65
 73
    0
 40
0
  0
LTYPE
  5
15
330
5
100
AcDbSymbolTableRecord
100
AcDbLinetypeTableRecord
  2
ByLayer
 70
    0
  3

 72
   65
 73
    0
 40
0
  0
LTYPE
  5
16
330
5
100
AcDbSymbolTableRecord
100
AcDbLinetypeTableRecord
  2
Continuous
 70
    0
  3
Solid line
 72
   65
 73
    0
 40
0
  0
LTYPE
  5
32
330
5
100
AcDbSymbolTableRecord
100
AcDbLinetypeTableRecord
  2
DOT
 70
    0
  3
Dot . . . . . . . . . . . . . . . . . . . . . .
 72
   65
 73
    2
 40
6.35
 49
0
 74
    0
 49
-6.35
 74
    0
  0
LTYPE
  5
33
330
5
100
AcDbSymbolTableRecord
100
AcDbLinetypeTableRecord
  2
DOTTINY
 70
    0
  3
Dot (.15x) .....................................
 72
   65
 73
    2
 40
0.9525
 49
0
 74
    0
 49
-0.9525
 74
    0
  0
LTYPE
  5
34
330
5
100
AcDbSymbolTableRecord
100
AcDbLinetypeTableRecord
  2
DOT2
 70
    0
  3
Dot (.5x) .....................................
 72
   65
 73
    2
 40
3.175
 49
0
 74
    0
 49
-3.175
 74
    0
  0
LTYPE
  5
35
330
5
100
AcDbSymbolTableRecord
100
AcDbLinetypeTableRecord
  2
DOTX2
 70
    0
  3
Dot (2x) .  .  .  .  .  .  .  .  .  .  .  .  .
 72
   65
 73
    2
 40
12.7
 49
0
 74
    0
 49
-12.7
 74
    0
  0
LTYPE
  5
36
330
5
100
AcDbSymbolTableRecord
100
AcDbLinetypeTableRecord
  2
DASHED
 70
    0
  3
Dashed _ _ _ _ _ _ _ _ _ _ _ _ _ _ _ _ _
 72
   65
 73
    2
 40
19.05
 49
12.7
 74
    0
 49
-6.35
 74
    0
  0
LTYPE
  5
37
330
5
100
AcDbSymbolTableRecord
100
AcDbLinetypeTableRecord
  2
DASHEDTINY
 70
    0
  3
Dashed (.15x) _ _ _ _ _ _ _ _ _ _ _ _ _ _ _ _ _
 72
   65
 73
    2
 40
2.8575
 49
1.905
 74
    0
 49
-0.9525
 74
    0
  0
LTYPE
  5
38
330
5
100
AcDbSymbolTableRecord
100
AcDbLinetypeTableRecord
  2
DASHED2
 70
    0
  3
Dashed (.5x) _ _ _ _ _ _ _ _ _ _ _ _ _ _ _ _ _
 72
   65
 73
    2
 40
9.524999999999999
 49
6.35
 74
    0
 49
-3.175
 74
    0
  0
LTYPE
  5
39
330
5
100
AcDbSymbolTableRecord
100
AcDbLinetypeTableRecord
  2
DASHEDX2
 70
    0
  3
Dashed (2x) ____  ____  ____  ____  ____  ___
 72
   65
 73
    2
 40
38.09999999999999
 49
25.4
 74
    0
 49
-12.7
 74
    0
  0
LTYPE
  5
3A
330
5
100
AcDbSymbolTableRecord
100
AcDbLinetypeTableRecord
  2
DASHDOT
 70
    0
  3
Dash dot __ . __ . __ . __ . __ . __ . __ . __
 72
   65
 73
    4
 40
25.4
 49
12.7
 74
    0
 49
-6.35
 74
    0
 49
0
 74
    0
 49
-6.35
 74
    0
  0
LTYPE
  5
3B
330
5
100
AcDbSymbolTableRecord
100
AcDbLinetypeTableRecord
  2
DASHDOTTINY
 70
    0
  3
Dash dot (.15x) _._._._._._._._._._._._._._._.
 72
   65
 73
    4
 40
3.81
 49
1.905
 74
    0
 49
-0.9525
 74
    0
 49
0
 74
    0
 49
-0.9525
 74
    0
  0
LTYPE
  5
3C
330
5
100
AcDbSymbolTableRecord
100
AcDbLinetypeTableRecord
  2
DASHDOT2
 70
    0
  3
Dash dot (.5x) _._._._._._._._._._._._._._._.
 72
   65
 73
    4
 40
12.7
 49
6.35
 74
    0
 49
-3.175
 74
    0
 49
0
 74
    0
 49
-3.175
 74
    0
  0
LTYPE
  5
3D
330
5
100
AcDbSymbolTableRecord
100
AcDbLinetypeTableRecord
  2
DASHDOTX2
 70
    0
  3
Dash dot (2x) ____  .  ____  .  ____  .  ___
 72
   65
 73
    4
 40
50.8
 49
25.4
 74
    0
 49
-12.7
 74
    0
 49
0
 74
    0
 49
-12.7
 74
    0
  0
LTYPE
  5
3E
330
5
100
AcDbSymbolTableRecord
100
AcDbLinetypeTableRecord
  2
DIVIDE
 70
    0
  3
Divide ____ . . ____ . . ____ . . ____ . . ____
 72
   65
 73
    6
 40
31.75
 49
12.7
 74
    0
 49
-6.35
 74
    0
 49
0
 74
    0
 49
-6.35
 74
    0
 49
0
 74
    0
 49
-6.35
 74
    0
  0
LTYPE
  5
3F
330
5
100
AcDbSymbolTableRecord
100
AcDbLinetypeTableRecord
  2
DIVIDETINY
 70
    0
  3
Divide (.15x) __..__..__..__..__..__..__..__.._
 72
   65
 73
    6
 40
4.7625
 49
1.905
 74
    0
 49
-0.9525
 74
    0
 49
0
 74
    0
 49
-0.9525
 74
    0
 49
0
 74
    0
 49
-0.9525
 74
    0
  0
LTYPE
  5
40
330
5
100
AcDbSymbolTableRecord
100
AcDbLinetypeTableRecord
  2
DIVIDE2
 70
    0
  3
Divide (.5x) __..__..__..__..__..__..__..__.._
 72
   65
 73
    6
 40
15.875
 49
6.35
 74
    0
 49
-3.175
 74
    0
 49
0
 74
    0
 49
-3.175
 74
    0
 49
0
 74
    0
 49
-3.175
 74
    0
  0
LTYPE
  5
41
330
5
100
AcDbSymbolTableRecord
100
AcDbLinetypeTableRecord
  2
DIVIDEX2
 70
    0
  3
Divide (2x) ________  .  .  ________  .  .  _
 72
   65
 73
    6
 40
63.5
 49
25.4
 74
    0
 49
-12.7
 74
    0
 49
0
 74
    0
 49
-12.7
 74
    0
 49
0
 74
    0
 49
-12.7
 74
    0
  0
LTYPE
  5
42
330
5
100
AcDbSymbolTableRecord
100
AcDbLinetypeTableRecord
  2
BORDER
 70
    0
  3
Border __ __ . __ __ . __ __ . __ __ . __ __ .
 72
   65
 73
    6
 40
44.45
 49
12.7
 74
    0
 49
-6.35
 74
    0
 49
12.7
 74
    0
 49
-6.35
 74
    0
 49
0
 74
    0
 49
-6.35
 74
    0
  0
LTYPE
  5
43
330
5
100
AcDbSymbolTableRecord
100
AcDbLinetypeTableRecord
  2
BORDERTINY
 70
    0
  3
Border (.15x) __.__.__.__.__.__.__.__.__.__.__.
 72
   65
 73
    6
 40
6.6675
 49
1.905
 74
    0
 49
-0.9525
 74
    0
 49
1.905
 74
    0
 49
-0.9525
 74
    0
 49
0
 74
    0
 49
-0.9525
 74
    0
  0
LTYPE
  5
44
330
5
100
AcDbSymbolTableRecord
100
AcDbLinetypeTableRecord
  2
BORDER2
 70
    0
  3
Border (.5x) __.__.__.__.__.__.__.__.__.__.__.
 72
   65
 73
    6
 40
22.225
 49
6.35
 74
    0
 49
-3.175
 74
    0
 49
6.35
 74
    0
 49
-3.175
 74
    0
 49
0
 74
    0
 49
-3.175
 74
    0
  0
LTYPE
  5
45
330
5
100
AcDbSymbolTableRecord
100
AcDbLinetypeTableRecord
  2
BORDERX2
 70
    0
  3
Border (2x) ____  ____  .  ____  ____  .  ___
 72
   65
 73
    6
 40
88.89999999999999
 49
25.4
 74
    0
 49
-12.7
 74
    0
 49
25.4
 74
    0
 49
-12.7
 74
    0
 49
0
 74
    0
 49
-12.7
 74
    0
  0
LTYPE
  5
46
330
5
100
AcDbSymbolTableRecord
100
AcDbLinetypeTableRecord
  2
CENTER
 70
    0
  3
Center ____ _ ____ _ ____ _ ____ _ ____ _ ____
 72
   65
 73
    4
 40
50.8
 49
31.75
 74
    0
 49
-6.35
 74
    0
 49
6.35
 74
    0
 49
-6.35
 74
    0
  0
LTYPE
  5
47
330
5
100
AcDbSymbolTableRecord
100
AcDbLinetypeTableRecord
  2
CENTERTINY
 70
    0
  3
Center (.15x) ___ _ ___ _ ___ _ ___ _ ___ _ ___
 72
   65
 73
    4
 40
7.619999999999999
 49
4.7625
 74
    0
 49
-0.9525
 74
    0
 49
0.9525
 74
    0
 49
-0.9525
 74
    0
  0
LTYPE
  5
48
330
5
100
AcDbSymbolTableRecord
100
AcDbLinetypeTableRecord
  2
CENTER2
 70
    0
  3
Center (.5x) ___ _ ___ _ ___ _ ___ _ ___ _ ___
 72
   65
 73
    4
 40
28.575
 49
19.05
 74
    0
 49
-3.175
 74
    0
 49
3.175
 74
    0
 49
-3.175
 74
    0
  0
LTYPE
  5
49
330
5
100
AcDbSymbolTableRecord
100
AcDbLinetypeTableRecord
  2
CENTERX2
 70
    0
  3
Center (2x) ________  __  ________  __  _____
 72
   65
 73
    4
 40
101.6
 49
63.5
 74
    0
 49
-12.7
 74
    0
 49
12.7
 74
    0
 49
-12.7
 74
    0
  0
ENDTAB
  0
TABLE
  2
LAYER
  5
2
330
0
100
AcDbSymbolTable
 70
    1
  0
LAYER
  5
10
330
2
100
AcDbSymbolTableRecord
100
AcDbLayerTableRecord
  2
0
 70
    0
 62
    7
  6
CONTINUOUS
370
    0
390
F
  0
LAYER
  5
4A
330
2
100
AcDbSymbolTableRecord
100
AcDbLayerTableRecord
  2
cadres
 70
    0
 62
    7
  6
CONTINUOUS
370
    0
390
F
  0
LAYER
  5
4B
330
2
100
AcDbSymbolTableRecord
100
AcDbLayerTableRecord
  2
mesures
 70
    0
 62
    7
  6
DOTTINY
370
    0
390
F
  0
ENDTAB
  0
TABLE
  2
STYLE
  5
3
330
0
100
AcDbSymbolTable
 70
    3
  0
STYLE
  5
4C
330
2
100
AcDbSymbolTableRecord
100
AcDbTextStyleTableRecord
  2
standard
 70
    0
 40
0
 41
1
 50
0
 71
    0
 42
1
  3
standard
  4

  0
ENDTAB
  0
TABLE
  2
VIEW
  5
6
330
0
100
AcDbSymbolTable
 70
    0
  0
ENDTAB
  0
TABLE
  2
UCS
  5
7
330
0
100
AcDbSymbolTable
 70
    0
  0
ENDTAB
  0
TABLE
  2
APPID
  5
9
330
0
100
AcDbSymbolTable
 70
    1
  0
APPID
  5
12
330
9
100
AcDbSymbolTableRecord
100
AcDbRegAppTableRecord
  2
ACAD
 70
    0
  0
APPID
  5
4D
330
9
100
AcDbSymbolTableRecord
100
AcDbRegAppTableRecord
  2
LibreCad
 70
    0
  0
ENDTAB
  0
TABLE
  2
DIMSTYLE
  5
A
330
0
100
AcDbSymbolTable
 70
    1
100
AcDbDimStyleTable
 71
    1
  0
DIMSTYLE
105
4E
330
A
100
AcDbSymbolTableRecord
100
AcDbDimStyleTableRecord
  2
Standard
 70
    0
 40
1
 41
2.5
 42
0.625
 43
0.38
 44
1.25
 45
0
 46
0
 47
0
 48
0
 49
1
140
5
141
0.09
142
0
143
25.4
144
1
145
0
146
1
147
0.625
148
0
 71
    0
 72
    0
 73
    0
 74
    1
 75
    0
 76
    0
 77
    0
 78
    1
 79
    0
170
    0
171
    2
172
    0
173
    0
174
    0
175
    0
176
    0
177
    0
178
    0
179
    2
271
    0
272
    4
273
    2
274
    2
275
    0
276
    0
277
    2
278
    0
279
    0
280
    0
281
    0
282
    0
283
    1
284
    0
285
    0
286
    0
288
    0
289
    3
340
standard
341

371
   -2
372
   -2
  0
ENDTAB
  0
TABLE
  2
BLOCK_RECORD
  5
1
330
0
100
AcDbSymbolTable
 70
    2
  0
BLOCK_RECORD
  5
1F
330
1
100
AcDbSymbolTableRecord
100
AcDbBlockTableRecord
  2
*Model_Space
 70
    0
280
    1
281
    0
  0
BLOCK_RECORD
  5
1E
330
1
100
AcDbSymbolTableRecord
100
AcDbBlockTableRecord
  2
*Paper_Space
 70
    0
280
    1
281
    0
  0
BLOCK_RECORD
  5
4F
330
1
100
AcDbSymbolTableRecord
100
AcDbBlockTableRecord
  2
*D9
 70
    0
280
    1
281
    0
  0
BLOCK_RECORD
  5
52
330
1
100
AcDbSymbolTableRecord
100
AcDbBlockTableRecord
  2
*D8
 70
    0
280
    1
281
    0
  0
BLOCK_RECORD
  5
55
330
1
100
AcDbSymbolTableRecord
100
AcDbBlockTableRecord
  2
*D5
 70
    0
280
    1
281
    0
  0
BLOCK_RECORD
  5
58
330
1
100
AcDbSymbolTableRecord
100
AcDbBlockTableRecord
  2
*D20
 70
    0
280
    1
281
    0
  0
BLOCK_RECORD
  5
5B
330
1
100
AcDbSymbolTableRecord
100
AcDbBlockTableRecord
  2
*D13
 70
    0
280
    1
281
    0
  0
BLOCK_RECORD
  5
5E
330
1
100
AcDbSymbolTableRecord
100
AcDbBlockTableRecord
  2
*D19
 70
    0
280
    1
281
    0
  0
BLOCK_RECORD
  5
61
330
1
100
AcDbSymbolTableRecord
100
AcDbBlockTableRecord
  2
*D4
 70
    0
280
    1
281
    0
  0
BLOCK_RECORD
  5
64
330
1
100
AcDbSymbolTableRecord
100
AcDbBlockTableRecord
  2
*D3
 70
    0
280
    1
281
    0
  0
BLOCK_RECORD
  5
67
330
1
100
AcDbSymbolTableRecord
100
AcDbBlockTableRecord
  2
*D11
 70
    0
280
    1
281
    0
  0
BLOCK_RECORD
  5
6A
330
1
100
AcDbSymbolTableRecord
100
AcDbBlockTableRecord
  2
*D16
 70
    0
280
    1
281
    0
  0
BLOCK_RECORD
  5
6D
330
1
100
AcDbSymbolTableRecord
100
AcDbBlockTableRecord
  2
*D7
 70
    0
280
    1
281
    0
  0
BLOCK_RECORD
  5
70
330
1
100
AcDbSymbolTableRecord
100
AcDbBlockTableRecord
  2
*D15
 70
    0
280
    1
281
    0
  0
BLOCK_RECORD
  5
73
330
1
100
AcDbSymbolTableRecord
100
AcDbBlockTableRecord
  2
*D2
 70
    0
280
    1
281
    0
  0
BLOCK_RECORD
  5
76
330
1
100
AcDbSymbolTableRecord
100
AcDbBlockTableRecord
  2
*D6
 70
    0
280
    1
281
    0
  0
BLOCK_RECORD
  5
79
330
1
100
AcDbSymbolTableRecord
100
AcDbBlockTableRecord
  2
*D1
 70
    0
280
    1
281
    0
  0
BLOCK_RECORD
  5
7C
330
1
100
AcDbSymbolTableRecord
100
AcDbBlockTableRecord
  2
*D18
 70
    0
280
    1
281
    0
  0
BLOCK_RECORD
  5
7F
330
1
100
AcDbSymbolTableRecord
100
AcDbBlockTableRecord
  2
*D17
 70
    0
280
    1
281
    0
  0
BLOCK_RECORD
  5
82
330
1
100
AcDbSymbolTableRecord
100
AcDbBlockTableRecord
  2
*D12
 70
    0
280
    1
281
    0
  0
BLOCK_RECORD
  5
85
330
1
100
AcDbSymbolTableRecord
100
AcDbBlockTableRecord
  2
*D14
 70
    0
280
    1
281
    0
  0
BLOCK_RECORD
  5
88
330
1
100
AcDbSymbolTableRecord
100
AcDbBlockTableRecord
  2
*D10
 70
    0
280
    1
281
    0
  0
ENDTAB
  0
ENDSEC
  0
SECTION
  2
BLOCKS
  0
BLOCK
  5
20
330
1F
100
AcDbEntity
  8
0
100
AcDbBlockBegin
  2
*Model_Space
 70
    0
 10
0
 20
0
 30
0
  3
*Model_Space
  1

  0
ENDBLK
  5
21
330
1F
100
AcDbEntity
  8
0
100
AcDbBlockEnd
  0
BLOCK
  5
1C
330
1B
100
AcDbEntity
  8
0
100
AcDbBlockBegin
  2
*Paper_Space
 70
    0
 10
0
 20
0
 30
0
  3
*Paper_Space
  1

  0
ENDBLK
  5
1D
330
1F
100
AcDbEntity
  8
0
100
AcDbBlockEnd
  0
BLOCK
  5
50
330
4F
100
AcDbEntity
  8
0
100
AcDbBlockBegin
  2
*D9
 70
    1
 10
0
 20
0
  3
*D9
  1

  0
LINE
  5
8B
100
AcDbEntity
  8
mesures
  6
ByBlock
 62
    0
370
   -2
100
AcDbLine
 10
30.625
 20
3
 11
41.25
 21
3
  0
LINE
  5
8C
100
AcDbEntity
  8
mesures
  6
ByBlock
 62
    0
370
   -2
100
AcDbLine
 10
30.625
 20
-67
 11
41.25
 21
-67
  0
LINE
  5
8D
100
AcDbEntity
  8
mesures
  6
ByBlock
 62
    0
370
   -2
100
AcDbLine
 10
40
 20
3
 11
40
 21
-67
  0
MTEXT
  5
8E
100
AcDbEntity
  8
mesures
  6
CONTINUOUS
 62
    0
370
   -2
100
AcDbMText
 10
36.875
 20
-32
 30
0
 40
5
 41
6.111111111111112
 71
    5
 72
    1
  1
70
  7
standard
210
0
220
0
230
1
 50
90
 73
    2
 44
1
  0
SOLID
  5
8F
100
AcDbEntity
  8
mesures
  6
ByBlock
 62
    0
370
   -2
100
AcDbTrace
 10
40
 20
3
 30
0
 11
40.41628465777284
 21
0.5
 31
0
 12
39.58371534222716
 22
0.5
 32
0
 13
39.58371534222716
 23
0.5
 33
0
  0
SOLID
  5
90
100
AcDbEntity
  8
mesures
  6
ByBlock
 62
    0
370
   -2
100
AcDbTrace
 10
40
 20
-67
 30
0
 11
39.58371534222716
 21
-64.5
 31
0
 12
40.41628465777284
 22
-64.5
 32
0
 13
40.41628465777284
 23
-64.5
 33
0
  0
ENDBLK
  5
51
330
4F
100
AcDbEntity
  8
0
100
AcDbBlockEnd
  0
BLOCK
  5
53
330
52
100
AcDbEntity
  8
0
100
AcDbBlockBegin
  2
*D8
 70
    1
 10
0
 20
0
  3
*D8
  1

  0
LINE
  5
91
100
AcDbEntity
  8
mesures
  6
ByBlock
 62
    0
370
   -2
100
AcDbLine
 10
3.827021247335479e-17
 20
3.625
 11
5.051668046482832e-16
 21
11.25
  0
LINE
  5
92
100
AcDbEntity
  8
mesures
  6
ByBlock
 62
    0
370
   -2
100
AcDbLine
 10
30
 20
3.625
 11
30
 21
11.25
  0
LINE
  5
93
100
AcDbEntity
  8
mesures
  6
ByBlock
 62
    0
370
   -2
100
AcDbLine
 10
4.286263797015736e-16
 20
10
 11
30
 21
10
  0
MTEXT
  5
94
100
AcDbEntity
  8
mesures
  6
CONTINUOUS
 62
    0
370
   -2
100
AcDbMText
 10
15
 20
13.125
 30
0
 40
5
 41
6.111111111111422
 71
    5
 72
    1
  1
30
  7
standard
210
0
220
0
230
1
 50
0
 73
    2
 44
1
  0
SOLID
  5
95
100
AcDbEntity
  8
mesures
  6
ByBlock
 62
    0
370
   -2
100
AcDbTrace
 10
4.286263797015736e-16
 20
10
 30
0
 11
2.5
 21
10.41628465777284
 31
0
 12
2.5
 22
9.583715342227158
 32
0
 13
2.5
 23
9.583715342227158
 33
0
  0
SOLID
  5
96
100
AcDbEntity
  8
mesures
  6
ByBlock
 62
    0
370
   -2
100
AcDbTrace
 10
30
 20
10
 30
0
 11
27.5
 21
9.58371534222716
 31
0
 12
27.5
 22
10.41628465777284
 32
0
 13
27.5
 23
10.41628465777284
 33
0
  0
ENDBLK
  5
54
330
52
100
AcDbEntity
  8
0
100
AcDbBlockEnd
  0
BLOCK
  5
56
330
55
100
AcDbEntity
  8
0
100
AcDbBlockBegin
  2
*D5
 70
    1
 10
0
 20
0
  3
*D5
  1

  0
LINE
  5
97
100
AcDbEntity
  8
mesures
  6
ByBlock
 62
    0
370
   -2
100
AcDbLine
 10
129.375
 20
3
 11
118.75
 21
3.000000000000001
  0
LINE
  5
98
100
AcDbEntity
  8
mesures
  6
ByBlock
 62
    0
370
   -2
100
AcDbLine
 10
129.375
 20
1
 11
118.75
 21
1.000000000000002
  0
LINE
  5
99
100
AcDbEntity
  8
mesures
  6
ByBlock
 62
    0
370
   -2
100
AcDbLine
 10
120
 20
8.000000000000002
 11
120
 21
-3.999999999999999
  0
MTEXT
  5
9A
100
AcDbEntity
  8
mesures
  6
CONTINUOUS
 62
    0
370
   -2
100
AcDbMText
 10
116.875
 20
4.736111111111112
 30
0
 40
5
 41
2.222222222222222
 71
    5
 72
    1
  1
2
  7
standard
210
0
220
0
230
1
 50
90
 73
    2
 44
1
  0
SOLID
  5
9B
100
AcDbEntity
  8
mesures
  6
ByBlock
 62
    0
370
   -2
100
AcDbTrace
 10
120
 20
3.000000000000001
 30
0
 11
119.5837153422272
 21
5.500000000000002
 31
0
 12
120.4162846577728
 22
5.500000000000002
 32
0
 13
120.4162846577728
 23
5.500000000000002
 33
0
  0
SOLID
  5
9C
100
AcDbEntity
  8
mesures
  6
ByBlock
 62
    0
370
   -2
100
AcDbTrace
 10
120
 20
1.000000000000001
 30
0
 11
120.4162846577728
 21
-1.499999999999999
 31
0
 12
119.5837153422272
 22
-1.499999999999999
 32
0
 13
119.5837153422272
 23
-1.499999999999999
 33
0
  0
ENDBLK
  5
57
330
55
100
AcDbEntity
  8
0
100
AcDbBlockEnd
  0
BLOCK
  5
59
330
58
100
AcDbEntity
  8
0
100
AcDbBlockBegin
  2
*D20
 70
    1
 10
0
 20
0
  3
*D20
  1

  0
LINE
  5
9D
100
AcDbEntity
  8
mesures
  6
ByBlock
 62
    0
370
   -2
100
AcDbLine
 10
390
 20
3
 11
390
 21
-69
  0
MTEXT
  5
9E
100
AcDbEntity
  8
mesures
  6
CONTINUOUS
 62
    0
370
   -2
100
AcDbMText
 10
386.875
 20
-33
 30
0
 40
5
 41
6.111111111111111
 71
    5
 72
    1
  1
72
  7
standard
210
0
220
0
230
1
 50
90
 73
    2
 44
1
  0
SOLID
  5
9F
100
AcDbEntity
  8
mesures
  6
ByBlock
 62
    0
370
   -2
100
AcDbTrace
 10
390
 20
3
 30
0
 11
390.4162846577728
 21
0.5
 31
0
 12
389.5837153422272
 22
0.5
 32
0
 13
389.5837153422272
 23
0.5
 33
0
  0
SOLID
  5
A0
100
AcDbEntity
  8
mesures
  6
ByBlock
 62
    0
370
   -2
100
AcDbTrace
 10
390
 20
-69
 30
0
 11
389.5837153422272
 21
-66.5
 31
0
 12
390.4162846577728
 22
-66.5
 32
0
 13
390.4162846577728
 23
-66.5
 33
0
  0
LINE
  5
A1
100
AcDbEntity
  8
mesures
  6
ByBlock
 62
    0
370
   -2
100
AcDbLine
 10
376.625
 20
3
 11
391.25
 21
3
  0
LINE
  5
A2
100
AcDbEntity
  8
mesures
  6
ByBlock
 62
    0
370
   -2
100
AcDbLine
 10
348.625
 20
-69
 11
391.25
 21
-69
  0
ENDBLK
  5
5A
330
58
100
AcDbEntity
  8
0
100
AcDbBlockEnd
  0
BLOCK
  5
5C
330
5B
100
AcDbEntity
  8
0
100
AcDbBlockBegin
  2
*D13
 70
    1
 10
0
 20
0
  3
*D13
  1

  0
LINE
  5
A3
100
AcDbEntity
  8
mesures
  6
ByBlock
 62
    0
370
   -2
100
AcDbLine
 10
70
 20
3
 11
70
 21
-69
  0
MTEXT
  5
A4
100
AcDbEntity
  8
mesures
  6
CONTINUOUS
 62
    0
370
   -2
100
AcDbMText
 10
66.875
 20
-33
 30
0
 40
5
 41
6.111111111111111
 71
    5
 72
    1
  1
72
  7
standard
210
0
220
0
230
1
 50
90
 73
    2
 44
1
  0
SOLID
  5
A5
100
AcDbEntity
  8
mesures
  6
ByBlock
 62
    0
370
   -2
100
AcDbTrace
 10
70
 20
3
 30
0
 11
70.41628465777283
 21
0.5
 31
0
 12
69.58371534222717
 22
0.5
 32
0
 13
69.58371534222717
 23
0.5
 33
0
  0
SOLID
  5
A6
100
AcDbEntity
  8
mesures
  6
ByBlock
 62
    0
370
   -2
100
AcDbTrace
 10
70
 20
-69
 30
0
 11
69.58371534222717
 21
-66.5
 31
0
 12
70.41628465777283
 22
-66.5
 32
0
 13
70.41628465777283
 23
-66.5
 33
0
  0
LINE
  5
A7
100
AcDbEntity
  8
mesures
  6
ByBlock
 62
    0
370
   -2
100
AcDbLine
 10
30.625
 20
3
 11
71.25
 21
3
  0
LINE
  5
A8
100
AcDbEntity
  8
mesures
  6
ByBlock
 62
    0
370
   -2
100
AcDbLine
 10
58.625
 20
-69
 11
71.25
 21
-69
  0
ENDBLK
  5
5D
330
5B
100
AcDbEntity
  8
0
100
AcDbBlockEnd
  0
BLOCK
  5
5F
330
5E
100
AcDbEntity
  8
0
100
AcDbBlockBegin
  2
*D19
 70
    1
 10
0
 20
0
  3
*D19
  1

  0
LINE
  5
A9
100
AcDbEntity
  8
mesures
  6
ByBlock
 62
    0
370
   -2
100
AcDbLine
 10
290
 20
-100
 11
376
 21
-100
  0
MTEXT
  5
AA
100
AcDbEntity
  8
mesures
  6
CONTINUOUS
 62
    0
370
   -2
100
AcDbMText
 10
333
 20
-96.875
 30
0
 40
5
 41
6.111111111111422
 71
    5
 72
    1
  1
86
  7
standard
210
0
220
0
230
1
 50
0
 73
    2
 44
1
  0
SOLID
  5
AB
100
AcDbEntity
  8
mesures
  6
ByBlock
 62
    0
370
   -2
100
AcDbTrace
 10
290
 20
-100
 30
0
 11
292.5
 21
-99.58371534222717
 31
0
 12
292.5
 22
-100.4162846577728
 32
0
 13
292.5
 23
-100.4162846577728
 33
0
  0
SOLID
  5
AC
100
AcDbEntity
  8
mesures
  6
ByBlock
 62
    0
370
   -2
100
AcDbTrace
 10
376
 20
-100
 30
0
 11
373.5
 21
-100.4162846577728
 31
0
 12
373.5
 22
-99.58371534222717
 32
0
 13
373.5
 23
-99.58371534222717
 33
0
  0
LINE
  5
AD
100
AcDbEntity
  8
mesures
  6
ByBlock
 62
    0
370
   -2
100
AcDbLine
 10
290
 20
0.375
 11
290
 21
-101.25
  0
LINE
  5
AE
100
AcDbEntity
  8
mesures
  6
ByBlock
 62
    0
370
   -2
100
AcDbLine
 10
376
 20
0.375
 11
376
 21
-101.25
  0
ENDBLK
  5
60
330
5E
100
AcDbEntity
  8
0
100
AcDbBlockEnd
  0
BLOCK
  5
62
330
61
100
AcDbEntity
  8
0
100
AcDbBlockBegin
  2
*D4
 70
    1
 10
0
 20
0
  3
*D4
  1

  0
LINE
  5
AF
100
AcDbEntity
  8
mesures
  6
ByBlock
 62
    0
370
   -2
100
AcDbLine
 10
155
 20
-66.375
 11
155
 21
-48.75
  0
LINE
  5
B0
100
AcDbEntity
  8
mesures
  6
ByBlock
 62
    0
370
   -2
100
AcDbLine
 10
225
 20
-66.375
 11
225
 21
-48.75
  0
LINE
  5
B1
100
AcDbEntity
  8
mesures
  6
ByBlock
 62
    0
370
   -2
100
AcDbLine
 10
155
 20
-50
 11
225
 21
-50
  0
MTEXT
  5
B2
100
AcDbEntity
  8
mesures
  6
CONTINUOUS
 62
    0
370
   -2
100
AcDbMText
 10
190
 20
-46.875
 30
0
 40
5
 41
6.111111111111112
 71
    5
 72
    1
  1
70
  7
standard
210
0
220
0
230
1
 50
0
 73
    2
 44
1
  0
SOLID
  5
B3
100
AcDbEntity
  8
mesures
  6
ByBlock
 62
    0
370
   -2
100
AcDbTrace
 10
155
 20
-50
 30
0
 11
157.5
 21
-49.58371534222716
 31
0
 12
157.5
 22
-50.41628465777284
 32
0
 13
157.5
 23
-50.41628465777284
 33
0
  0
SOLID
  5
B4
100
AcDbEntity
  8
mesures
  6
ByBlock
 62
    0
370
   -2
100
AcDbTrace
 10
225
 20
-50
 30
0
 11
222.5
 21
-50.41628465777284
 31
0
 12
222.5
 22
-49.58371534222716
 32
0
 13
222.5
 23
-49.58371534222716
 33
0
  0
ENDBLK
  5
63
330
61
100
AcDbEntity
  8
0
100
AcDbBlockEnd
  0
BLOCK
  5
65
330
64
100
AcDbEntity
  8
0
100
AcDbBlockBegin
  2
*D3
 70
    1
 10
0
 20
0
  3
*D3
  1

  0
LINE
  5
B5
100
AcDbEntity
  8
mesures
  6
ByBlock
 62
    0
370
   -2
100
AcDbLine
 10
155.625
 20
-67
 11
171.25
 21
-67
  0
LINE
  5
B6
100
AcDbEntity
  8
mesures
  6
ByBlock
 62
    0
370
   -2
100
AcDbLine
 10
155.625
 20
3
 11
171.25
 21
3
  0
LINE
  5
B7
100
AcDbEntity
  8
mesures
  6
ByBlock
 62
    0
370
   -2
100
AcDbLine
 10
170
 20
-67
 11
170
 21
3
  0
MTEXT
  5
B8
100
AcDbEntity
  8
mesures
  6
CONTINUOUS
 62
    0
370
   -2
100
AcDbMText
 10
166.875
 20
-32
 30
0
 40
5
 41
6.111111111111112
 71
    5
 72
    1
  1
70
  7
standard
210
0
220
0
230
1
 50
90
 73
    2
 44
1
  0
SOLID
  5
B9
100
AcDbEntity
  8
mesures
  6
ByBlock
 62
    0
370
   -2
100
AcDbTrace
 10
170
 20
-67
 30
0
 11
169.5837153422272
 21
-64.5
 31
0
 12
170.4162846577728
 22
-64.5
 32
0
 13
170.4162846577728
 23
-64.5
 33
0
  0
SOLID
  5
BA
100
AcDbEntity
  8
mesures
  6
ByBlock
 62
    0
370
   -2
100
AcDbTrace
 10
170
 20
3
 30
0
 11
170.4162846577728
 21
0.5
 31
0
 12
169.5837153422272
 22
0.5
 32
0
 13
169.5837153422272
 23
0.5
 33
0
  0
ENDBLK
  5
66
330
64
100
AcDbEntity
  8
0
100
AcDbBlockEnd
  0
BLOCK
  5
68
330
67
100
AcDbEntity
  8
0
100
AcDbBlockBegin
  2
*D11
 70
    1
 10
0
 20
0
  3
*D11
  1

  0
LINE
  5
BB
100
AcDbEntity
  8
mesures
  6
ByBlock
 62
    0
370
   -2
100
AcDbLine
 10
-0.625
 20
3
 11
-11.25
 21
3.000000000000001
  0
LINE
  5
BC
100
AcDbEntity
  8
mesures
  6
ByBlock
 62
    0
370
   -2
100
AcDbLine
 10
-0.625
 20
1
 11
-11.25
 21
1.000000000000002
  0
LINE
  5
BD
100
AcDbEntity
  8
mesures
  6
ByBlock
 62
    0
370
   -2
100
AcDbLine
 10
-10
 20
8.000000000000002
 11
-10
 21
-3.999999999999999
  0
MTEXT
  5
BE
100
AcDbEntity
  8
mesures
  6
CONTINUOUS
 62
    0
370
   -2
100
AcDbMText
 10
-13.125
 20
4.736111111111112
 30
0
 40
5
 41
2.222222222222222
 71
    5
 72
    1
  1
2
  7
standard
210
0
220
0
230
1
 50
90
 73
    2
 44
1
  0
SOLID
  5
BF
100
AcDbEntity
  8
mesures
  6
ByBlock
 62
    0
370
   -2
100
AcDbTrace
 10
-10
 20
3.000000000000001
 30
0
 11
-10.41628465777284
 21
5.500000000000002
 31
0
 12
-9.583715342227158
 22
5.500000000000002
 32
0
 13
-9.583715342227158
 23
5.500000000000002
 33
0
  0
SOLID
  5
C0
100
AcDbEntity
  8
mesures
  6
ByBlock
 62
    0
370
   -2
100
AcDbTrace
 10
-10
 20
1.000000000000001
 30
0
 11
-9.58371534222716
 21
-1.499999999999999
 31
0
 12
-10.41628465777284
 22
-1.499999999999999
 32
0
 13
-10.41628465777284
 23
-1.499999999999999
 33
0
  0
ENDBLK
  5
69
330
67
100
AcDbEntity
  8
0
100
AcDbBlockEnd
  0
BLOCK
  5
6B
330
6A
100
AcDbEntity
  8
0
100
AcDbBlockBegin
  2
*D16
 70
    1
 10
0
 20
0
  3
*D16
  1

  0
LINE
  5
C1
100
AcDbEntity
  8
mesures
  6
ByBlock
 62
    0
370
   -2
100
AcDbLine
 10
318
 20
-69.625
 11
318
 21
-81.25
  0
LINE
  5
C2
100
AcDbEntity
  8
mesures
  6
ByBlock
 62
    0
370
   -2
100
AcDbLine
 10
348
 20
-69.625
 11
348
 21
-81.25
  0
LINE
  5
C3
100
AcDbEntity
  8
mesures
  6
ByBlock
 62
    0
370
   -2
100
AcDbLine
 10
318
 20
-80
 11
348
 21
-80
  0
MTEXT
  5
C4
100
AcDbEntity
  8
mesures
  6
CONTINUOUS
 62
    0
370
   -2
100
AcDbMText
 10
333
 20
-76.875
 30
0
 40
5
 41
6.111111111111422
 71
    5
 72
    1
  1
30
  7
standard
210
0
220
0
230
1
 50
0
 73
    2
 44
1
  0
SOLID
  5
C5
100
AcDbEntity
  8
mesures
  6
ByBlock
 62
    0
370
   -2
100
AcDbTrace
 10
318
 20
-80
 30
0
 11
320.5
 21
-79.58371534222717
 31
0
 12
320.5
 22
-80.41628465777283
 32
0
 13
320.5
 23
-80.41628465777283
 33
0
  0
SOLID
  5
C6
100
AcDbEntity
  8
mesures
  6
ByBlock
 62
    0
370
   -2
100
AcDbTrace
 10
348
 20
-80
 30
0
 11
345.5
 21
-80.41628465777283
 31
0
 12
345.5
 22
-79.58371534222717
 32
0
 13
345.5
 23
-79.58371534222717
 33
0
  0
ENDBLK
  5
6C
330
6A
100
AcDbEntity
  8
0
100
AcDbBlockEnd
  0
BLOCK
  5
6E
330
6D
100
AcDbEntity
  8
0
100
AcDbBlockBegin
  2
*D7
 70
    1
 10
0
 20
0
  3
*D7
  1

  0
LINE
  5
C7
100
AcDbEntity
  8
mesures
  6
ByBlock
 62
    0
370
   -2
100
AcDbLine
 10
130
 20
-100
 11
225
 21
-100
  0
MTEXT
  5
C8
100
AcDbEntity
  8
mesures
  6
CONTINUOUS
 62
    0
370
   -2
100
AcDbMText
 10
177.5
 20
-96.875
 30
0
 40
5
 41
6.111111111111732
 71
    5
 72
    1
  1
95
  7
standard
210
0
220
0
230
1
 50
0
 73
    2
 44
1
  0
SOLID
  5
C9
100
AcDbEntity
  8
mesures
  6
ByBlock
 62
    0
370
   -2
100
AcDbTrace
 10
130
 20
-100
 30
0
 11
132.5
 21
-99.58371534222717
 31
0
 12
132.5
 22
-100.4162846577728
 32
0
 13
132.5
 23
-100.4162846577728
 33
0
  0
SOLID
  5
CA
100
AcDbEntity
  8
mesures
  6
ByBlock
 62
    0
370
   -2
100
AcDbTrace
 10
225
 20
-100
 30
0
 11
222.5
 21
-100.4162846577728
 31
0
 12
222.5
 22
-99.58371534222717
 32
0
 13
222.5
 23
-99.58371534222717
 33
0
  0
LINE
  5
CB
100
AcDbEntity
  8
mesures
  6
ByBlock
 62
    0
370
   -2
100
AcDbLine
 10
130
 20
0.375
 11
130
 21
-101.25
  0
LINE
  5
CC
100
AcDbEntity
  8
mesures
  6
ByBlock
 62
    0
370
   -2
100
AcDbLine
 10
225
 20
-92.625
 11
225
 21
-101.25
  0
ENDBLK
  5
6F
330
6D
100
AcDbEntity
  8
0
100
AcDbBlockEnd
  0
BLOCK
  5
71
330
70
100
AcDbEntity
  8
0
100
AcDbBlockBegin
  2
*D15
 70
    1
 10
0
 20
0
  3
*D15
  1

  0
LINE
  5
CD
100
AcDbEntity
  8
mesures
  6
ByBlock
 62
    0
370
   -2
100
AcDbLine
 10
320.625
 20
3
 11
331.25
 21
3
  0
LINE
  5
CE
100
AcDbEntity
  8
mesures
  6
ByBlock
 62
    0
370
   -2
100
AcDbLine
 10
320.625
 20
-67
 11
331.25
 21
-67
  0
LINE
  5
CF
100
AcDbEntity
  8
mesures
  6
ByBlock
 62
    0
370
   -2
100
AcDbLine
 10
330
 20
3
 11
330
 21
-67
  0
MTEXT
  5
D0
100
AcDbEntity
  8
mesures
  6
CONTINUOUS
 62
    0
370
   -2
100
AcDbMText
 10
326.875
 20
-32
 30
0
 40
5
 41
6.111111111111112
 71
    5
 72
    1
  1
70
  7
standard
210
0
220
0
230
1
 50
90
 73
    2
 44
1
  0
SOLID
  5
D1
100
AcDbEntity
  8
mesures
  6
ByBlock
 62
    0
370
   -2
100
AcDbTrace
 10
330
 20
3
 30
0
 11
330.4162846577728
 21
0.5
 31
0
 12
329.5837153422272
 22
0.5
 32
0
 13
329.5837153422272
 23
0.5
 33
0
  0
SOLID
  5
D2
100
AcDbEntity
  8
mesures
  6
ByBlock
 62
    0
370
   -2
100
AcDbTrace
 10
330
 20
-67
 30
0
 11
329.5837153422272
 21
-64.5
 31
0
 12
330.4162846577728
 22
-64.5
 32
0
 13
330.4162846577728
 23
-64.5
 33
0
  0
ENDBLK
  5
72
330
70
100
AcDbEntity
  8
0
100
AcDbBlockEnd
  0
BLOCK
  5
74
330
73
100
AcDbEntity
  8
0
100
AcDbBlockBegin
  2
*D2
 70
    1
 10
0
 20
0
  3
*D2
  1

  0
LINE
  5
D3
100
AcDbEntity
  8
mesures
  6
ByBlock
 62
    0
370
   -2
100
AcDbLine
 10
225.625
 20
-67
 11
241.25
 21
-67
  0
LINE
  5
D4
100
AcDbEntity
  8
mesures
  6
ByBlock
 62
    0
370
   -2
100
AcDbLine
 10
225.625
 20
-92
 11
241.25
 21
-92
  0
LINE
  5
D5
100
AcDbEntity
  8
mesures
  6
ByBlock
 62
    0
370
   -2
100
AcDbLine
 10
240
 20
-67
 11
240
 21
-92
  0
MTEXT
  5
D6
100
AcDbEntity
  8
mesures
  6
CONTINUOUS
 62
    0
370
   -2
100
AcDbMText
 10
236.875
 20
-79.5
 30
0
 40
5
 41
6.111111111111422
 71
    5
 72
    1
  1
25
  7
standard
210
0
220
0
230
1
 50
90
 73
    2
 44
1
  0
SOLID
  5
D7
100
AcDbEntity
  8
mesures
  6
ByBlock
 62
    0
370
   -2
100
AcDbTrace
 10
240
 20
-67
 30
0
 11
240.4162846577728
 21
-69.5
 31
0
 12
239.5837153422272
 22
-69.5
 32
0
 13
239.5837153422272
 23
-69.5
 33
0
  0
SOLID
  5
D8
100
AcDbEntity
  8
mesures
  6
ByBlock
 62
    0
370
   -2
100
AcDbTrace
 10
240
 20
-92
 30
0
 11
239.5837153422272
 21
-89.5
 31
0
 12
240.4162846577728
 22
-89.5
 32
0
 13
240.4162846577728
 23
-89.5
 33
0
  0
ENDBLK
  5
75
330
73
100
AcDbEntity
  8
0
100
AcDbBlockEnd
  0
BLOCK
  5
77
330
76
100
AcDbEntity
  8
0
100
AcDbBlockBegin
  2
*D6
 70
    1
 10
0
 20
0
  3
*D6
  1

  0
LINE
  5
D9
100
AcDbEntity
  8
mesures
  6
ByBlock
 62
    0
370
   -2
100
AcDbLine
 10
250
 20
3
 11
250
 21
-92
  0
MTEXT
  5
DA
100
AcDbEntity
  8
mesures
  6
CONTINUOUS
 62
    0
370
   -2
100
AcDbMText
 10
246.875
 20
-44.5
 30
0
 40
5
 41
6.111111111111732
 71
    5
 72
    1
  1
95
  7
standard
210
0
220
0
230
1
 50
90
 73
    2
 44
1
  0
SOLID
  5
DB
100
AcDbEntity
  8
mesures
  6
ByBlock
 62
    0
370
   -2
100
AcDbTrace
 10
250
 20
3
 30
0
 11
250.4162846577728
 21
0.5
 31
0
 12
249.5837153422272
 22
0.5
 32
0
 13
249.5837153422272
 23
0.5
 33
0
  0
SOLID
  5
DC
100
AcDbEntity
  8
mesures
  6
ByBlock
 62
    0
370
   -2
100
AcDbTrace
 10
250
 20
-92
 30
0
 11
249.5837153422272
 21
-89.5
 31
0
 12
250.4162846577728
 22
-89.5
 32
0
 13
250.4162846577728
 23
-89.5
 33
0
  0
LINE
  5
DD
100
AcDbEntity
  8
mesures
  6
ByBlock
 62
    0
370
   -2
100
AcDbLine
 10
155.625
 20
3
 11
251.25
 21
3
  0
LINE
  5
DE
100
AcDbEntity
  8
mesures
  6
ByBlock
 62
    0
370
   -2
100
AcDbLine
 10
225.625
 20
-92
 11
251.25
 21
-92
  0
ENDBLK
  5
78
330
76
100
AcDbEntity
  8
0
100
AcDbBlockEnd
  0
BLOCK
  5
7A
330
79
100
AcDbEntity
  8
0
100
AcDbBlockBegin
  2
*D1
 70
    1
 10
0
 20
0
  3
*D1
  1

  0
LINE
  5
DF
100
AcDbEntity
  8
mesures
  6
ByBlock
 62
    0
370
   -2
100
AcDbLine
 10
130
 20
3.625
 11
130
 21
11.25
  0
LINE
  5
E0
100
AcDbEntity
  8
mesures
  6
ByBlock
 62
    0
370
   -2
100
AcDbLine
 10
155
 20
3.625
 11
155
 21
11.25
  0
LINE
  5
E1
100
AcDbEntity
  8
mesures
  6
ByBlock
 62
    0
370
   -2
100
AcDbLine
 10
130
 20
10
 11
155
 21
10
  0
MTEXT
  5
E2
100
AcDbEntity
  8
mesures
  6
CONTINUOUS
 62
    0
370
   -2
100
AcDbMText
 10
142.5
 20
13.125
 30
0
 40
5
 41
6.111111111111422
 71
    5
 72
    1
  1
25
  7
standard
210
0
220
0
230
1
 50
0
 73
    2
 44
1
  0
SOLID
  5
E3
100
AcDbEntity
  8
mesures
  6
ByBlock
 62
    0
370
   -2
100
AcDbTrace
 10
130
 20
10
 30
0
 11
132.5
 21
10.41628465777284
 31
0
 12
132.5
 22
9.583715342227158
 32
0
 13
132.5
 23
9.583715342227158
 33
0
  0
SOLID
  5
E4
100
AcDbEntity
  8
mesures
  6
ByBlock
 62
    0
370
   -2
100
AcDbTrace
 10
155
 20
10
 30
0
 11
152.5
 21
9.58371534222716
 31
0
 12
152.5
 22
10.41628465777284
 32
0
 13
152.5
 23
10.41628465777284
 33
0
  0
ENDBLK
  5
7B
330
79
100
AcDbEntity
  8
0
100
AcDbBlockEnd
  0
BLOCK
  5
7D
330
7C
100
AcDbEntity
  8
0
100
AcDbBlockBegin
  2
*D18
 70
    1
 10
0
 20
0
  3
*D18
  1

  0
LINE
  5
E5
100
AcDbEntity
  8
mesures
  6
ByBlock
 62
    0
370
   -2
100
AcDbLine
 10
289.375
 20
3
 11
278.75
 21
3.000000000000001
  0
LINE
  5
E6
100
AcDbEntity
  8
mesures
  6
ByBlock
 62
    0
370
   -2
100
AcDbLine
 10
289.375
 20
1
 11
278.75
 21
1.000000000000002
  0
LINE
  5
E7
100
AcDbEntity
  8
mesures
  6
ByBlock
 62
    0
370
   -2
100
AcDbLine
 10
280
 20
8.000000000000002
 11
280
 21
-3.999999999999999
  0
MTEXT
  5
E8
100
AcDbEntity
  8
mesures
  6
CONTINUOUS
 62
    0
370
   -2
100
AcDbMText
 10
276.875
 20
4.736111111111112
 30
0
 40
5
 41
2.222222222222222
 71
    5
 72
    1
  1
2
  7
standard
210
0
220
0
230
1
 50
90
 73
    2
 44
1
  0
SOLID
  5
E9
100
AcDbEntity
  8
mesures
  6
ByBlock
 62
    0
370
   -2
100
AcDbTrace
 10
280
 20
3.000000000000001
 30
0
 11
279.5837153422272
 21
5.500000000000002
 31
0
 12
280.4162846577728
 22
5.500000000000002
 32
0
 13
280.4162846577728
 23
5.500000000000002
 33
0
  0
SOLID
  5
EA
100
AcDbEntity
  8
mesures
  6
ByBlock
 62
    0
370
   -2
100
AcDbTrace
 10
280
 20
1.000000000000001
 30
0
 11
280.4162846577728
 21
-1.499999999999999
 31
0
 12
279.5837153422272
 22
-1.499999999999999
 32
0
 13
279.5837153422272
 23
-1.499999999999999
 33
0
  0
ENDBLK
  5
7E
330
7C
100
AcDbEntity
  8
0
100
AcDbBlockEnd
  0
BLOCK
  5
80
330
7F
100
AcDbEntity
  8
0
100
AcDbBlockBegin
  2
*D17
 70
    1
 10
0
 20
0
  3
*D17
  1

  0
LINE
  5
EB
100
AcDbEntity
  8
mesures
  6
ByBlock
 62
    0
370
   -2
100
AcDbLine
 10
346
 20
3.625
 11
346
 21
11.25
  0
LINE
  5
EC
100
AcDbEntity
  8
mesures
  6
ByBlock
 62
    0
370
   -2
100
AcDbLine
 10
376
 20
3.625
 11
376
 21
11.25
  0
LINE
  5
ED
100
AcDbEntity
  8
mesures
  6
ByBlock
 62
    0
370
   -2
100
AcDbLine
 10
346
 20
10
 11
376
 21
10
  0
MTEXT
  5
EE
100
AcDbEntity
  8
mesures
  6
CONTINUOUS
 62
    0
370
   -2
100
AcDbMText
 10
361
 20
13.125
 30
0
 40
5
 41
6.111111111111422
 71
    5
 72
    1
  1
30
  7
standard
210
0
220
0
230
1
 50
0
 73
    2
 44
1
  0
SOLID
  5
EF
100
AcDbEntity
  8
mesures
  6
ByBlock
 62
    0
370
   -2
100
AcDbTrace
 10
346
 20
10
 30
0
 11
348.5
 21
10.41628465777284
 31
0
 12
348.5
 22
9.583715342227158
 32
0
 13
348.5
 23
9.583715342227158
 33
0
  0
SOLID
  5
F0
100
AcDbEntity
  8
mesures
  6
ByBlock
 62
    0
370
   -2
100
AcDbTrace
 10
376
 20
10
 30
0
 11
373.5
 21
9.58371534222716
 31
0
 12
373.5
 22
10.41628465777284
 32
0
 13
373.5
 23
10.41628465777284
 33
0
  0
ENDBLK
  5
81
330
7F
100
AcDbEntity
  8
0
100
AcDbBlockEnd
  0
BLOCK
  5
83
330
82
100
AcDbEntity
  8
0
100
AcDbBlockBegin
  2
*D12
 70
    1
 10
0
 20
0
  3
*D12
  1

  0
LINE
  5
F1
100
AcDbEntity
  8
mesures
  6
ByBlock
 62
    0
370
   -2
100
AcDbLine
 10
0
 20
-100
 11
58
 21
-100
  0
MTEXT
  5
F2
100
AcDbEntity
  8
mesures
  6
CONTINUOUS
 62
    0
370
   -2
100
AcDbMText
 10
29
 20
-96.875
 30
0
 40
5
 41
6.111111111111422
 71
    5
 72
    1
  1
58
  7
standard
210
0
220
0
230
1
 50
0
 73
    2
 44
1
  0
SOLID
  5
F3
100
AcDbEntity
  8
mesures
  6
ByBlock
 62
    0
370
   -2
100
AcDbTrace
 10
0
 20
-100
 30
0
 11
2.5
 21
-99.58371534222717
 31
0
 12
2.5
 22
-100.4162846577728
 32
0
 13
2.5
 23
-100.4162846577728
 33
0
  0
SOLID
  5
F4
100
AcDbEntity
  8
mesures
  6
ByBlock
 62
    0
370
   -2
100
AcDbTrace
 10
58
 20
-100
 30
0
 11
55.5
 21
-100.4162846577728
 31
0
 12
55.5
 22
-99.58371534222717
 32
0
 13
55.5
 23
-99.58371534222717
 33
0
  0
LINE
  5
F5
100
AcDbEntity
  8
mesures
  6
ByBlock
 62
    0
370
   -2
100
AcDbLine
 10
-1.148106374200643e-16
 20
0.375
 11
-2.296212748401287e-16
 21
-101.25
  0
LINE
  5
F6
100
AcDbEntity
  8
mesures
  6
ByBlock
 62
    0
370
   -2
100
AcDbLine
 10
58
 20
-69.625
 11
58
 21
-101.25
  0
ENDBLK
  5
84
330
82
100
AcDbEntity
  8
0
100
AcDbBlockEnd
  0
BLOCK
  5
86
330
85
100
AcDbEntity
  8
0
100
AcDbBlockBegin
  2
*D14
 70
    1
 10
0
 20
0
  3
*D14
  1

  0
LINE
  5
F7
100
AcDbEntity
  8
mesures
  6
ByBlock
 62
    0
370
   -2
100
AcDbLine
 10
290
 20
3.625
 11
290
 21
11.25
  0
LINE
  5
F8
100
AcDbEntity
  8
mesures
  6
ByBlock
 62
    0
370
   -2
100
AcDbLine
 10
320
 20
3.625
 11
320
 21
11.25
  0
LINE
  5
F9
100
AcDbEntity
  8
mesures
  6
ByBlock
 62
    0
370
   -2
100
AcDbLine
 10
290
 20
10
 11
320
 21
10
  0
MTEXT
  5
FA
100
AcDbEntity
  8
mesures
  6
CONTINUOUS
 62
    0
370
   -2
100
AcDbMText
 10
305
 20
13.125
 30
0
 40
5
 41
6.111111111111422
 71
    5
 72
    1
  1
30
  7
standard
210
0
220
0
230
1
 50
0
 73
    2
 44
1
  0
SOLID
  5
FB
100
AcDbEntity
  8
mesures
  6
ByBlock
 62
    0
370
   -2
100
AcDbTrace
 10
290
 20
10
 30
0
 11
292.5
 21
10.41628465777284
 31
0
 12
292.5
 22
9.583715342227158
 32
0
 13
292.5
 23
9.583715342227158
 33
0
  0
SOLID
  5
FC
100
AcDbEntity
  8
mesures
  6
ByBlock
 62
    0
370
   -2
100
AcDbTrace
 10
320
 20
10
 30
0
 11
317.5
 21
9.58371534222716
 31
0
 12
317.5
 22
10.41628465777284
 32
0
 13
317.5
 23
10.41628465777284
 33
0
  0
ENDBLK
  5
87
330
85
100
AcDbEntity
  8
0
100
AcDbBlockEnd
  0
BLOCK
  5
89
330
88
100
AcDbEntity
  8
0
100
AcDbBlockBegin
  2
*D10
 70
    1
 10
0
 20
0
  3
*D10
  1

  0
LINE
  5
FD
100
AcDbEntity
  8
mesures
  6
ByBlock
 62
    0
370
   -2
100
AcDbLine
 10
28
 20
-69.625
 11
28
 21
-81.25
  0
LINE
  5
FE
100
AcDbEntity
  8
mesures
  6
ByBlock
 62
    0
370
   -2
100
AcDbLine
 10
58
 20
-69.625
 11
58
 21
-81.25
  0
LINE
  5
FF
100
AcDbEntity
  8
mesures
  6
ByBlock
 62
    0
370
   -2
100
AcDbLine
 10
28
 20
-80
 11
58
 21
-80
  0
MTEXT
  5
100
100
AcDbEntity
  8
mesures
  6
CONTINUOUS
 62
    0
370
   -2
100
AcDbMText
 10
43
 20
-76.875
 30
0
 40
5
 41
6.111111111111422
 71
    5
 72
    1
  1
30
  7
standard
210
0
220
0
230
1
 50
0
 73
    2
 44
1
  0
SOLID
  5
101
100
AcDbEntity
  8
mesures
  6
ByBlock
 62
    0
370
   -2
100
AcDbTrace
 10
28
 20
-80
 30
0
 11
30.5
 21
-79.58371534222717
 31
0
 12
30.5
 22
-80.41628465777283
 32
0
 13
30.5
 23
-80.41628465777283
 33
0
  0
SOLID
  5
102
100
AcDbEntity
  8
mesures
  6
ByBlock
 62
    0
370
   -2
100
AcDbTrace
 10
58
 20
-80
 30
0
 11
55.5
 21
-80.41628465777283
 31
0
 12
55.5
 22
-79.58371534222717
 32
0
 13
55.5
 23
-79.58371534222717
 33
0
  0
ENDBLK
  5
8A
330
88
100
AcDbEntity
  8
0
100
AcDbBlockEnd
  0
ENDSEC
  0
SECTION
  2
ENTITIES
  0
LINE
  5
103
100
AcDbEntity
  8
0
  6
ByLayer
 62
  256
370
   -1
100
AcDbLine
 10
130
 20
3
 11
155
 21
3
  0
LINE
  5
104
100
AcDbEntity
  8
0
  6
ByLayer
 62
  256
370
   -1
100
AcDbLine
 10
155
 20
3
 11
155
 21
-67
  0
LINE
  5
105
100
AcDbEntity
  8
0
  6
ByLayer
 62
  256
370
   -1
100
AcDbLine
 10
155
 20
-67
 11
225
 21
-67
  0
LINE
  5
106
100
AcDbEntity
  8
0
  6
ByLayer
 62
  256
370
   -1
100
AcDbLine
 10
225
 20
-67
 11
225
 21
-92
  0
LINE
  5
107
100
AcDbEntity
  8
0
  6
ByLayer
 62
  256
370
   -1
100
AcDbLine
 10
130
 20
3
 11
130
 21
1
  0
LINE
  5
108
100
AcDbEntity
  8
0
  6
ByLayer
 62
  256
370
   -1
100
AcDbLine
 10
130
 20
1
 11
153
 21
1
  0
LINE
  5
109
100
AcDbEntity
  8
0
  6
ByLayer
 62
  256
370
   -1
100
AcDbLine
 10
153
 20
1
 11
153
 21
-69
  0
LINE
  5
10A
100
AcDbEntity
  8
0
  6
ByLayer
 62
  256
370
   -1
100
AcDbLine
 10
153
 20
-69
 11
223
 21
-69
  0
LINE
  5
10B
100
AcDbEntity
  8
0
  6
ByLayer
 62
  256
370
   -1
100
AcDbLine
 10
223
 20
-69
 11
223
 21
-92
  0
LINE
  5
10C
100
AcDbEntity
  8
0
  6
ByLayer
 62
  256
370
   -1
100
AcDbLine
 10
223
 20
-92
 11
225
 21
-92
  0
DIMENSION
  5
10D
100
AcDbEntity
  8
mesures
  6
ByLayer
 62
  256
370
   -1
100
AcDbDimension
  2
*D1
 10
155
 20
10
 30
0
 11
142.5
 21
13.125
 31
0
 70
   33
 71
    5
  3
Standard
 53
0
210
0
220
0
230
1
100
AcDbAlignedDimension
 13
130
 23
3
 33
0
 14
155
 24
3
 34
0
  0
DIMENSION
  5
10E
100
AcDbEntity
  8
mesures
  6
ByLayer
 62
  256
370
   -1
100
AcDbDimension
  2
*D2
 10
240
 20
-92
 30
0
 11
236.875
 21
-79.5
 31
0
 70
   33
 71
    5
  3
Standard
 53
0
210
0
220
0
230
1
100
AcDbAlignedDimension
 13
225
 23
-67
 33
0
 14
225
 24
-92
 34
0
  0
DIMENSION
  5
10F
100
AcDbEntity
  8
mesures
  6
ByLayer
 62
  256
370
   -1
100
AcDbDimension
  2
*D3
 10
170
 20
2.999999999999998
 30
0
 11
166.875
 21
-32
 31
0
 70
   33
 71
    5
  3
Standard
 53
0
210
0
220
0
230
1
100
AcDbAlignedDimension
 13
155
 23
-67
 33
0
 14
155
 24
3
 34
0
  0
DIMENSION
  5
110
100
AcDbEntity
  8
mesures
  6
ByLayer
 62
  256
370
   -1
100
AcDbDimension
  2
*D4
 10
225
 20
-50
 30
0
 11
190
 21
-46.875
 31
0
 70
   33
 71
    5
  3
Standard
 53
0
210
0
220
0
230
1
100
AcDbAlignedDimension
 13
155
 23
-67
 33
0
 14
225
 24
-67
 34
0
  0
DIMENSION
  5
111
100
AcDbEntity
  8
mesures
  6
ByLayer
 62
  256
370
   -1
100
AcDbDimension
  2
*D5
 10
120
 20
1.000000000000002
 30
0
 11
116.875
 21
2.000000000000002
 31
0
 70
   33
 71
    5
  3
Standard
 53
0
210
0
220
0
230
1
100
AcDbAlignedDimension
 13
130
 23
3
 33
0
 14
130
 24
1
 34
0
  0
DIMENSION
  5
112
100
AcDbEntity
  8
mesures
  6
ByLayer
 62
  256
370
   -1
100
AcDbDimension
  2
*D6
 10
250
 20
-92
 30
0
 11
246.875
 21
-44.5
 31
0
 70
   32
 71
    5
  3
Standard
 53
0
210
0
220
0
230
1
100
AcDbAlignedDimension
 13
155
 23
3
 33
0
 14
225
 24
-92
 34
0
 50
90
100
AcDbRotatedDimension
  0
DIMENSION
  5
113
100
AcDbEntity
  8
mesures
  6
ByLayer
 62
  256
370
   -1
100
AcDbDimension
  2
*D7
 10
225
 20
-100
 30
0
 11
177.5
 21
-96.875
 31
0
 70
   32
 71
    5
  3
Standard
 53
0
210
0
220
0
230
1
100
AcDbAlignedDimension
 13
130
 23
1
 33
0
 14
225
 24
-92
 34
0
100
AcDbRotatedDimension
  0
LWPOLYLINE
  5
114
100
AcDbEntity
  8
cadres
  6
ByLayer
 62
  256
370
   -1
100
AcDbPolyline
 90
    4
 70
    1
 43
0
 10
110
 20
20
 10
260
 20
20
 10
260
 20
-110
 10
110
 20
-110
  0
LWPOLYLINE
  5
115
100
AcDbEntity
  8
cadres
  6
ByLayer
 62
  256
370
   -1
100
AcDbPolyline
 90
    4
 70
    1
 43
0
 10
260
 20
-110
 10
110
 20
-110
 10
110
 20
-130
 10
260
 20
-130
  0
LWPOLYLINE
  5
116
100
AcDbEntity
  8
cadres
  6
ByLayer
 62
  256
370
   -1
100
AcDbPolyline
 90
    4
 70
    1
 43
0
 10
-40
 20
20
 10
110
 20
20
 10
110
 20
-110
 10
-40
 20
-110
  0
LWPOLYLINE
  5
117
100
AcDbEntity
  8
cadres
  6
ByLayer
 62
  256
370
   -1
100
AcDbPolyline
 90
    4
 70
    1
 43
0
 10
110
 20
-110
 10
-40
 20
-110
 10
-40
 20
-130
 10
110
 20
-130
  0
LINE
  5
118
100
AcDbEntity
  8
0
  6
ByLayer
 62
  256
370
   -1
100
AcDbLine
 10
0
 20
3
 11
30
 21
3
  0
LINE
  5
119
100
AcDbEntity
  8
0
  6
ByLayer
 62
  256
370
   -1
100
AcDbLine
 10
30
 20
3
 11
30
 21
-67
  0
DIMENSION
  5
11A
100
AcDbEntity
  8
mesures
  6
ByLayer
 62
  256
370
   -1
100
AcDbDimension
  2
*D8
 10
30
 20
10
 30
0
 11
15
 21
13.125
 31
0
 70
   33
 71
    5
  3
Standard
 53
0
210
0
220
0
230
1
100
AcDbAlignedDimension
 13
0
 23
3
 33
0
 14
30
 24
3
 34
0
  0
DIMENSION
  5
11B
100
AcDbEntity
  8
mesures
  6
ByLayer
 62
  256
370
   -1
100
AcDbDimension
  2
*D9
 10
40
 20
-67
 30
0
 11
36.875
 21
-32
 31
0
 70
   33
 71
    5
  3
Standard
 53
0
210
0
220
0
230
1
100
AcDbAlignedDimension
 13
30
 23
3
 33
0
 14
30
 24
-67
 34
0
  0
LINE
  5
11C
100
AcDbEntity
  8
0
  6
ByLayer
 62
  256
370
   -1
100
AcDbLine
 10
0
 20
3
 11
0
 21
1
  0
LINE
  5
11D
100
AcDbEntity
  8
0
  6
ByLayer
 62
  256
370
   -1
100
AcDbLine
 10
0
 20
1
 11
28
 21
1
  0
LINE
  5
11E
100
AcDbEntity
  8
0
  6
ByLayer
 62
  256
370
   -1
100
AcDbLine
 10
28
 20
1
 11
28
 21
-69
  0
LINE
  5
11F
100
AcDbEntity
  8
0
  6
ByLayer
 62
  256
370
   -1
100
AcDbLine
 10
58
 20
-69
 11
58
 21
-67
  0
LINE
  5
120
100
AcDbEntity
  8
0
  6
ByLayer
 62
  256
370
   -1
100
AcDbLine
 10
58
 20
-67
 11
30
 21
-67
  0
LINE
  5
121
100
AcDbEntity
  8
0
  6
ByLayer
 62
  256
370
   -1
100
AcDbLine
 10
28
 20
-69
 11
58
 21
-69
  0
DIMENSION
  5
122
100
AcDbEntity
  8
mesures
  6
ByLayer
 62
  256
370
   -1
100
AcDbDimension
  2
*D10
 10
58
 20
-80
 30
0
 11
43
 21
-76.875
 31
0
 70
   33
 71
    5
  3
Standard
 53
0
210
0
220
0
230
1
100
AcDbAlignedDimension
 13
28
 23
-69
 33
0
 14
58
 24
-69
 34
0
  0
DIMENSION
  5
123
100
AcDbEntity
  8
mesures
  6
ByLayer
 62
  256
370
   -1
100
AcDbDimension
  2
*D11
 10
-10
 20
1.000000000000002
 30
0
 11
-13.125
 21
2.000000000000002
 31
0
 70
   33
 71
    5
  3
Standard
 53
0
210
0
220
0
230
1
100
AcDbAlignedDimension
 13
0
 23
3
 33
0
 14
0
 24
1
 34
0
  0
DIMENSION
  5
124
100
AcDbEntity
  8
mesures
  6
ByLayer
 62
  256
370
   -1
100
AcDbDimension
  2
*D12
 10
58
 20
-100
 30
0
 11
29
 21
-96.875
 31
0
 70
   32
 71
    5
  3
Standard
 53
0
210
0
220
0
230
1
100
AcDbAlignedDimension
 13
0
 23
1
 33
0
 14
58
 24
-69
 34
0
100
AcDbRotatedDimension
  0
DIMENSION
  5
125
100
AcDbEntity
  8
mesures
  6
ByLayer
 62
  256
370
   -1
100
AcDbDimension
  2
*D13
 10
70
 20
-70
 30
0
 11
66.875
 21
-33
 31
0
 70
   32
 71
    5
  3
Standard
 53
0
210
0
220
0
230
1
100
AcDbAlignedDimension
 13
30
 23
3
 33
0
 14
58
 24
-69
 34
0
 50
90
100
AcDbRotatedDimension
  0
MTEXT
  5
126
100
AcDbEntity
  8
cadres
  6
ByLayer
 62
  256
370
   -1
100
AcDbMText
 10
120
 20
-120
 30
0
 40
5
 41
100.1388991746333
 71
    4
 72
    1
  1
tapes cts portes arrires
  7
standard
210
0
220
0
230
1
 50
0
 73
    2
 44
1
  0
MTEXT
  5
127
100
AcDbEntity
  8
cadres
  6
ByLayer
 62
  256
370
   -1
100
AcDbMText
 10
-30
 20
-120
 30
0
 40
5
 41
50.97222479365914
 71
    4
 72
    1
  1
tape standard
  7
standard
210
0
220
0
230
1
 50
0
 73
    2
 44
1
  0
LWPOLYLINE
  5
128
100
AcDbEntity
  8
cadres
  6
ByLayer
 62
  256
370
   -1
100
AcDbPolyline
 90
    4
 70
    1
 43
0
 10
260
 20
20
 10
410
 20
20
 10
410
 20
-110
 10
260
 20
-110
  0
LWPOLYLINE
  5
129
100
AcDbEntity
  8
cadres
  6
ByLayer
 62
  256
370
   -1
100
AcDbPolyline
 90
    4
 70
    1
 43
0
 10
410
 20
-110
 10
260
 20
-110
 10
260
 20
-130
 10
410
 20
-130
  0
DIMENSION
  5
12A
100
AcDbEntity
  8
mesures
  6
ByLayer
 62
  256
370
   -1
100
AcDbDimension
  2
*D14
 10
320
 20
10
 30
0
 11
305
 21
13.125
 31
0
 70
   33
 71
    5
  3
Standard
 53
0
210
0
220
0
230
1
100
AcDbAlignedDimension
 13
290
 23
3
 33
0
 14
320
 24
3
 34
0
  0
DIMENSION
  5
12B
100
AcDbEntity
  8
mesures
  6
ByLayer
 62
  256
370
   -1
100
AcDbDimension
  2
*D15
 10
330
 20
-67
 30
0
 11
326.875
 21
-32
 31
0
 70
   33
 71
    5
  3
Standard
 53
0
210
0
220
0
230
1
100
AcDbAlignedDimension
 13
320
 23
3
 33
0
 14
320
 24
-67
 34
0
  0
DIMENSION
  5
12C
100
AcDbEntity
  8
mesures
  6
ByLayer
 62
  256
370
   -1
100
AcDbDimension
  2
*D16
 10
348
 20
-80
 30
0
 11
333
 21
-76.875
 31
0
 70
   33
 71
    5
  3
Standard
 53
0
210
0
220
0
230
1
100
AcDbAlignedDimension
 13
318
 23
-69
 33
0
 14
348
 24
-69
 34
0
  0
LINE
  5
12D
100
AcDbEntity
  8
0
  6
ByLayer
 62
  256
370
   -1
100
AcDbLine
 10
290
 20
3
 11
290
 21
1
  0
LINE
  5
12E
100
AcDbEntity
  8
0
  6
ByLayer
 62
  256
370
   -1
100
AcDbLine
 10
290
 20
1
 11
318
 21
1
  0
LINE
  5
12F
100
AcDbEntity
  8
0
  6
ByLayer
 62
  256
370
   -1
100
AcDbLine
 10
318
 20
1
 11
318
 21
-69
  0
LINE
  5
130
100
AcDbEntity
  8
0
  6
ByLayer
 62
  256
370
   -1
100
AcDbLine
 10
318
 20
-69
 11
348
 21
-69
  0
LINE
  5
131
100
AcDbEntity
  8
0
  6
ByLayer
 62
  256
370
   -1
100
AcDbLine
 10
348
 20
-69
 11
348
 21
1
  0
LINE
  5
132
100
AcDbEntity
  8
0
  6
ByLayer
 62
  256
370
   -1
100
AcDbLine
 10
348
 20
1
 11
376
 21
1
  0
LINE
  5
133
100
AcDbEntity
  8
0
  6
ByLayer
 62
  256
370
   -1
100
AcDbLine
 10
376
 20
1
 11
376
 21
3
  0
LINE
  5
134
100
AcDbEntity
  8
0
  6
ByLayer
 62
  256
370
   -1
100
AcDbLine
 10
376
 20
3
 11
346
 21
3
  0
LINE
  5
135
100
AcDbEntity
  8
0
  6
ByLayer
 62
  256
370
   -1
100
AcDbLine
 10
346
 20
3
 11
346
 21
-67
  0
LINE
  5
136
100
AcDbEntity
  8
0
  6
ByLayer
 62
  256
370
   -1
100
AcDbLine
 10
346
 20
-67
 11
320
 21
-67
  0
LINE
  5
137
100
AcDbEntity
  8
0
  6
ByLayer
 62
  256
370
   -1
100
AcDbLine
 10
320
 20
-67
 11
320
 21
3
  0
LINE
  5
138
100
AcDbEntity
  8
0
  6
ByLayer
 62
  256
370
   -1
100
AcDbLine
 10
320
 20
3
 11
290
 21
3
  0
DIMENSION
  5
139
100
AcDbEntity
  8
mesures
  6
ByLayer
 62
  256
370
   -1
100
AcDbDimension
  2
*D17
 10
376
 20
10
 30
0
 11
361
 21
13.125
 31
0
 70
   33
 71
    5
  3
Standard
 53
0
210
0
220
0
230
1
100
AcDbAlignedDimension
 13
346
 23
3
 33
0
 14
376
 24
3
 34
0
  0
DIMENSION
  5
13A
100
AcDbEntity
  8
mesures
  6
ByLayer
 62
  256
370
   -1
100
AcDbDimension
  2
*D18
 10
280
 20
1.000000000000002
 30
0
 11
276.875
 21
2.000000000000002
 31
0
 70
   33
 71
    5
  3
Standard
 53
0
210
0
220
0
230
1
100
AcDbAlignedDimension
 13
290
 23
3
 33
0
 14
290
 24
1
 34
0
  0
DIMENSION
  5
13B
100
AcDbEntity
  8
mesures
  6
ByLayer
 62
  256
370
   -1
100
AcDbDimension
  2
*D19
 10
376
 20
-100
 30
0
 11
333
 21
-96.875
 31
0
 70
   32
 71
    5
  3
Standard
 53
0
210
0
220
0
230
1
100
AcDbAlignedDimension
 13
290
 23
1
 33
0
 14
376
 24
1
 34
0
100
AcDbRotatedDimension
  0
DIMENSION
  5
13C
100
AcDbEntity
  8
mesures
  6
ByLayer
 62
  256
370
   -1
100
AcDbDimension
  2
*D20
 10
390
 20
-70
 30
0
 11
386.875
 21
-33
 31
0
 70
   32
 71
    5
  3
Standard
 53
0
210
0
220
0
230
1
100
AcDbAlignedDimension
 13
376
 23
3
 33
0
 14
348
 24
-69
 34
0
 50
90
100
AcDbRotatedDimension
  0
MTEXT
  5
13D
100
AcDbEntity
  8
cadres
  6
ByLayer
 62
  256
370
   -1
100
AcDbMText
 10
270
 20
-120
 30
0
 40
5
 41
105.6944495873174
 71
    4
 72
    1
  1
tape centrale portes arrires
  7
standard
210
0
220
0
230
1
 50
0
 73
    2
 44
1
  0
MTEXT
  5
13E
100
AcDbEntity
  8
cadres
  6
ByLayer
 62
  256
370
   -1
100
AcDbMText
 10
-30
 20
-140
 30
0
 40
8
 41
44.00000000000074
 71
    4
 72
    1
  1
l = 6000 
  7
standard
210
0
220
0
230
1
 50
0
 73
    2
 44
1
  0
MTEXT
  5
13F
100
AcDbEntity
  8
cadres
  6
ByLayer
 62
  256
370
   -1
100
AcDbMText
 10
120
 20
-140
 30
0
 40
8
 41
44.00000000000025
 71
    4
 72
    1
  1
l = 2000 
  7
standard
210
0
220
0
230
1
 50
0
 73
    2
 44
1
  0
MTEXT
  5
140
100
AcDbEntity
  8
cadres
  6
ByLayer
 62
  256
370
   -1
100
AcDbMText
 10
270
 20
-140
 30
0
 40
8
 41
42.22222222222247
 71
    4
 72
    1
  1
l = 1000 
  7
standard
210
0
220
0
230
1
 50
0
 73
    2
 44
1
  0
LWPOLYLINE
  5
141
100
AcDbEntity
  8
cadres
  6
ByLayer
 62
  256
370
   -1
100
AcDbPolyline
 90
    4
 70
    1
 43
0
 10
-40
 20
-130
 10
110
 20
-130
 10
110
 20
-150
 10
-40
 20
-150
  0
LWPOLYLINE
  5
142
100
AcDbEntity
  8
cadres
  6
ByLayer
 62
  256
370
   -1
100
AcDbPolyline
 90
    4
 70
    1
 43
0
 10
110
 20
-150
 10
260
 20
-150
 10
260
 20
-130
 10
110
 20
-130
  0
LWPOLYLINE
  5
143
100
AcDbEntity
  8
cadres
  6
ByLayer
 62
  256
370
   -1
100
AcDbPolyline
 90
    4
 70
    1
 43
0
 10
260
 20
-130
 10
410
 20
-130
 10
410
 20
-150
 10
260
 20
-150
  0
MTEXT
  5
144
100
AcDbEntity
  8
cadres
  6
ByLayer
 62
  256
370
   -1
100
AcDbMText
 10
-30
 20
-170
 30
0
 40
5
 41
154.027788063522
 71
    4
 72
    1
  1
Camera Obscura\PProfil des tapes pour les portes du coffre\PAlu brut ep. 2\PToutes les mesures en mm
  7
standard
210
0
220
0
230
1
 50
0
 73
    2
 44
1
  0
ENDSEC
  0
SECTION
  2
OBJECTS
  0
DICTIONARY
  5
C
330
0
100
AcDbDictionary
281
    1
  3
ACAD_GROUP
350
D
  0
DICTIONARY
  5
D
330
C
100
AcDbDictionary
281
    1
  0
PLOTSETTINGS
  5
145
100
AcDbPlotSettings
  6
1x1
 40
0
 41
0
 42
0
 43
0
  0
ENDSEC
  0
EOF
