999
dxfrw 0.6.3
  0
SECTION
  2
HEADER
  9
$ACADVER
  1
AC1021
  9
$DWGCODEPAGE
  3
ANSI_1252
  9
$INSBASE
 10
0
 20
0
 30
0
  9
$EXTMIN
 10
-45.62500000000001
 20
-310
 30
0
  9
$EXTMAX
 10
1501.66668209529
 20
345.625
 30
0
  9
$LIMMIN
 10
0
 20
0
  9
$LIMMAX
 10
420
 20
297
  9
$ORTHOMODE
 70
    0
  9
$REGENMODE
 70
    1
  9
$FILLMODE
 70
    1
  9
$QTEXTMODE
 70
    0
  9
$MIRRTEXT
 70
    0
  9
$LTSCALE
 40
1
  9
$ATTMODE
 70
    0
  9
$TEXTSIZE
 40
2.5
  9
$TRACEWID
 40
15.68
  9
$TEXTSTYLE
  7
STANDARD
  9
$CLAYER
  8
legend
  9
$CELTYPE
  6
BYLAYER
  9
$CECOLOR
 62
  256
  9
$CELTSCALE
 40
1
  9
$DISPSILH
 70
    0
  9
$DIMSCALE
 40
2.5
  9
$DIMASZ
 40
15
  9
$DIMEXO
 40
0.625
  9
$DIMDLI
 40
3.75
  9
$DIMRND
 40
0
  9
$DIMDLE
 40
0
  9
$DIMEXE
 40
1.25
  9
$DIMTP
 40
0
  9
$DIMTM
 40
0
  9
$DIMTXT
 40
2.5
  9
$DIMCEN
 40
2.5
  9
$DIMTSZ
 40
0
  9
$DIMTOL
 70
    0
  9
$DIMLIM
 70
    0
  9
$DIMTIH
 70
    0
  9
$DIMTOH
 70
    0
  9
$DIMSE1
 70
    0
  9
$DIMSE2
 70
    0
  9
$DIMTAD
 70
    1
  9
$DIMZIN
 70
    8
  9
$DIMBLK
  1

  9
$DIMASO
 70
    1
  9
$DIMSHO
 70
    1
  9
$DIMPOST
  1

  9
$DIMAPOST
  1

  9
$DIMALT
 70
    0
  9
$DIMALTD
 70
    3
  9
$DIMALTF
 40
0.03937
  9
$DIMLFAC
 40
1
  9
$DIMTOFL
 70
    1
  9
$DIMTVP
 40
0
  9
$DIMTIX
 70
    0
  9
$DIMSOXD
 70
    0
  9
$DIMSAH
 70
    0
  9
$DIMBLK1
  1

  9
$DIMBLK2
  1

  9
$DIMSTYLE
  2
STANDARD
  9
$DIMCLRD
 70
    0
  9
$DIMCLRE
 70
    0
  9
$DIMCLRT
 70
    0
  9
$DIMTFAC
 40
1
  9
$DIMGAP
 40
0.625
  9
$DIMJUST
 70
    0
  9
$DIMSD1
 70
    0
  9
$DIMSD2
 70
    0
  9
$DIMTOLJ
 70
    0
  9
$DIMTZIN
 70
    8
  9
$DIMALTZ
 70
    0
  9
$DIMALTTZ
 70
    0
  9
$DIMUPT
 70
    0
  9
$DIMDEC
 70
    1
  9
$DIMTDEC
 70
    2
  9
$DIMALTU
 70
    2
  9
$DIMALTTD
 70
    3
  9
$DIMTXSTY
  7
standard
  9
$DIMAUNIT
 70
    0
  9
$DIMADEC
 70
    0
  9
$DIMALTRND
 40
0
  9
$DIMAZIN
 70
    0
  9
$DIMDSEP
 70
   44
  9
$DIMATFIT
 70
    3
  9
$DIMFRAC
 70
    0
  9
$DIMLDRBLK
  1
STANDARD
  9
$DIMLUNIT
 70
    2
  9
$DIMLWD
 70
   -2
  9
$DIMLWE
 70
   -2
  9
$DIMTMOVE
 70
    0
  9
$DIMFXL
 40
1
  9
$DIMFXLON
 70
    0
  9
$DIMJOGANG
 40
0.7854
  9
$DIMTFILL
 70
    0
  9
$DIMTFILLCLR
 70
    0
  9
$DIMARCSYM
 70
    0
  9
$DIMLTYPE
  6

  9
$DIMLTEX1
  6

  9
$DIMLTEX2
  6

  9
$LUNITS
 70
    2
  9
$LUPREC
 70
    4
  9
$SKETCHINC
 40
1
  9
$FILLETRAD
 40
0
  9
$AUNITS
 70
    0
  9
$AUPREC
 70
    2
  9
$MENU
  1
.
  9
$ELEVATION
 40
0
  9
$PELEVATION
 40
0
  9
$THICKNESS
 40
0
  9
$LIMCHECK
 70
    0
  9
$CHAMFERA
 40
0
  9
$CHAMFERB
 40
0
  9
$CHAMFERC
 40
0
  9
$CHAMFERD
 40
0
  9
$SKPOLY
 70
    0
  9
$USRTIMER
 70
    1
  9
$ANGBASE
 50
0
  9
$ANGDIR
 70
    0
  9
$PDMODE
 70
   34
  9
$PDSIZE
 40
0
  9
$PLINEWID
 40
0
  9
$SPLFRAME
 70
    0
  9
$SPLINETYPE
 70
    2
  9
$SPLINESEGS
 70
    8
  9
$HANDSEED
  5
20000
  9
$SURFTAB1
 70
    6
  9
$SURFTAB2
 70
    6
  9
$SURFTYPE
 70
    6
  9
$SURFU
 70
    6
  9
$SURFV
 70
    6
  9
$UCSBASE
  2

  9
$UCSNAME
  2

  9
$UCSORG
 10
0
 20
0
 30
0
  9
$UCSXDIR
 10
1
 20
0
 30
0
  9
$UCSYDIR
 10
0
 20
1
 30
0
  9
$UCSORTHOREF
  2

  9
$UCSORTHOVIEW
 70
    0
  9
$UCSORGTOP
 10
0
 20
0
 30
0
  9
$UCSORGBOTTOM
 10
0
 20
0
 30
0
  9
$UCSORGLEFT
 10
0
 20
0
 30
0
  9
$UCSORGRIGHT
 10
0
 20
0
 30
0
  9
$UCSORGFRONT
 10
0
 20
0
 30
0
  9
$UCSORGBACK
 10
0
 20
0
 30
0
  9
$PUCSBASE
  2

  9
$PUCSNAME
  2

  9
$PUCSORG
 10
0
 20
0
 30
0
  9
$PUCSXDIR
 10
1
 20
0
 30
0
  9
$PUCSYDIR
 10
0
 20
1
 30
0
  9
$PUCSORTHOREF
  2

  9
$PUCSORTHOVIEW
 70
    0
  9
$PUCSORGTOP
 10
0
 20
0
 30
0
  9
$PUCSORGBOTTOM
 10
0
 20
0
 30
0
  9
$PUCSORGLEFT
 10
0
 20
0
 30
0
  9
$PUCSORGRIGHT
 10
0
 20
0
 30
0
  9
$PUCSORGFRONT
 10
0
 20
0
 30
0
  9
$PUCSORGBACK
 10
0
 20
0
 30
0
  9
$USERI1
 70
    0
  9
$USERI2
 70
    0
  9
$USERI3
 70
    0
  9
$USERI4
 70
    0
  9
$USERI5
 70
    0
  9
$USERR1
 40
0
  9
$USERR2
 40
0
  9
$USERR3
 40
0
  9
$USERR4
 40
0
  9
$USERR5
 40
0
  9
$WORLDVIEW
 70
    1
  9
$SHADEDGE
 70
    3
  9
$SHADEDIF
 70
   70
  9
$TILEMODE
 70
    1
  9
$MAXACTVP
 70
   64
  9
$PINSBASE
 10
0
 20
0
 30
0
  9
$PLIMCHECK
 70
    0
  9
$PEXTMIN
 10
0
 20
0
 30
0
  9
$PEXTMAX
 10
0
 20
0
 30
0
  9
$PLIMMIN
 10
0
 20
0
  9
$PLIMMAX
 10
297
 20
210
  9
$UNITMODE
 70
    0
  9
$VISRETAIN
 70
    1
  9
$PLINEGEN
 70
    0
  9
$PSLTSCALE
 70
    1
  9
$TREEDEPTH
 70
 3020
  9
$CMLSTYLE
  2
Standard
  9
$CMLJUST
 70
    0
  9
$CMLSCALE
 40
20
  9
$PROXYGRAPHICS
 70
    1
  9
$MEASUREMENT
 70
    1
  9
$CELWEIGHT
370
   -1
  9
$ENDCAPS
280
    0
  9
$JOINSTYLE
280
    0
  9
$LWDISPLAY
290
    0
  9
$INSUNITS
 70
    0
  9
$HYPERLINKBASE
  1

  9
$STYLESHEET
  1

  9
$XEDIT
290
    1
  9
$CEPSNTYPE
380
    0
  9
$PSTYLEMODE
290
    1
  9
$EXTNAMES
290
    1
  9
$PSVPSCALE
 40
0
  9
$OLESTARTUP
290
    0
  9
$SORTENTS
280
  127
  9
$INDEXCTL
280
    0
  9
$HIDETEXT
280
    1
  9
$XCLIPFRAME
290
    0
  9
$HALOGAP
280
    0
  9
$OBSCOLOR
 70
  257
  9
$OBSLTYPE
280
    0
  9
$INTERSECTIONDISPLAY
280
    0
  9
$INTERSECTIONCOLOR
 70
  257
  9
$DIMASSOC
280
    1
  9
$PROJECTNAME
  1

  9
$CAMERADISPLAY
290
    0
  9
$LENSLENGTH
 40
50
  9
$CAMERAHEIGHT
 40
0
  9
$STEPSPERSEC
 40
2
  9
$STEPSIZE
 40
50
  9
$3DDWFPREC
 40
2
  9
$PSOLWIDTH
 40
5
  9
$PSOLHEIGHT
 40
80
  9
$LOFTANG1
 40
1.570796326794897
  9
$LOFTANG2
 40
1.570796326794897
  9
$LOFTMAG1
 40
0
  9
$LOFTMAG2
 40
0
  9
$LOFTPARAM
 70
    7
  9
$LOFTNORMALS
280
    1
  9
$LATITUDE
 40
1
  9
$LONGITUDE
 40
1
  9
$NORTHDIRECTION
 40
0
  9
$TIMEZONE
 70
-8000
  9
$LIGHTGLYPHDISPLAY
280
    1
  9
$TILEMODELIGHTSYNCH
280
    1
  9
$SOLIDHIST
280
    1
  9
$SHOWHIST
280
    1
  9
$DWFFRAME
280
    2
  9
$DGNFRAME
280
    0
  9
$REALWORLDSCALE
290
    1
  9
$INTERFERECOLOR
 62
    1
  9
$CSHADOW
280
    0
  9
$SHADOWPLANELOCATION
 40
0
  0
ENDSEC
  0
SECTION
  2
CLASSES
  0
ENDSEC
  0
SECTION
  2
TABLES
  0
TABLE
  2
VPORT
  5
8
330
0
100
AcDbSymbolTable
 70
    1
  0
VPORT
  5
31
330
2
100
AcDbSymbolTableRecord
100
AcDbViewportTableRecord
  2
*ACTIVE
 70
    0
 10
0
 20
0
 11
1
 21
1
 12
1471.325749463805
 22
484.5285248799419
 13
0
 23
0
 14
10
 24
10
 15
10
 25
10
 16
0
 26
0
 36
1
 17
0
 27
0
 37
0
 40
1705.274304955036
 41
1.881664499349805
 42
50
 43
0
 44
0
 50
0
 51
0
 71
    0
 72
  100
 73
    1
 74
    3
 75
    0
 76
    1
 77
    0
 78
    0
281
    0
 65
    1
110
0
120
0
130
0
111
1
121
0
131
0
112
0
122
1
132
0
 79
    0
146
0
348
10020
 60
    7
 61
    5
292
1
282
    1
141
0
142
0
 63
  250
421
3358443
  0
ENDTAB
  0
TABLE
  2
LTYPE
  5
5
330
0
100
AcDbSymbolTable
 70
    4
  0
LTYPE
  5
14
330
5
100
AcDbSymbolTableRecord
100
AcDbLinetypeTableRecord
  2
ByBlock
 70
    0
  3

 72
   65
 73
    0
 40
0
  0
LTYPE
  5
15
330
5
100
AcDbSymbolTableRecord
100
AcDbLinetypeTableRecord
  2
ByLayer
 70
    0
  3

 72
   65
 73
    0
 40
0
  0
LTYPE
  5
16
330
5
100
AcDbSymbolTableRecord
100
AcDbLinetypeTableRecord
  2
Continuous
 70
    0
  3
Solid line
 72
   65
 73
    0
 40
0
  0
LTYPE
  5
32
330
5
100
AcDbSymbolTableRecord
100
AcDbLinetypeTableRecord
  2
DOT
 70
    0
  3
Dot . . . . . . . . . . . . . . . . . . . . . .
 72
   65
 73
    2
 40
6.35
 49
0
 74
    0
 49
-6.35
 74
    0
  0
LTYPE
  5
33
330
5
100
AcDbSymbolTableRecord
100
AcDbLinetypeTableRecord
  2
DOTTINY
 70
    0
  3
Dot (.15x) .....................................
 72
   65
 73
    2
 40
0.9525
 49
0
 74
    0
 49
-0.9525
 74
    0
  0
LTYPE
  5
34
330
5
100
AcDbSymbolTableRecord
100
AcDbLinetypeTableRecord
  2
DOT2
 70
    0
  3
Dot (.5x) .....................................
 72
   65
 73
    2
 40
3.175
 49
0
 74
    0
 49
-3.175
 74
    0
  0
LTYPE
  5
35
330
5
100
AcDbSymbolTableRecord
100
AcDbLinetypeTableRecord
  2
DOTX2
 70
    0
  3
Dot (2x) .  .  .  .  .  .  .  .  .  .  .  .  .
 72
   65
 73
    2
 40
12.7
 49
0
 74
    0
 49
-12.7
 74
    0
  0
LTYPE
  5
36
330
5
100
AcDbSymbolTableRecord
100
AcDbLinetypeTableRecord
  2
DASHED
 70
    0
  3
Dashed _ _ _ _ _ _ _ _ _ _ _ _ _ _ _ _ _
 72
   65
 73
    2
 40
19.05
 49
12.7
 74
    0
 49
-6.35
 74
    0
  0
LTYPE
  5
37
330
5
100
AcDbSymbolTableRecord
100
AcDbLinetypeTableRecord
  2
DASHEDTINY
 70
    0
  3
Dashed (.15x) _ _ _ _ _ _ _ _ _ _ _ _ _ _ _ _ _
 72
   65
 73
    2
 40
2.8575
 49
1.905
 74
    0
 49
-0.9525
 74
    0
  0
LTYPE
  5
38
330
5
100
AcDbSymbolTableRecord
100
AcDbLinetypeTableRecord
  2
DASHED2
 70
    0
  3
Dashed (.5x) _ _ _ _ _ _ _ _ _ _ _ _ _ _ _ _ _
 72
   65
 73
    2
 40
9.524999999999999
 49
6.35
 74
    0
 49
-3.175
 74
    0
  0
LTYPE
  5
39
330
5
100
AcDbSymbolTableRecord
100
AcDbLinetypeTableRecord
  2
DASHEDX2
 70
    0
  3
Dashed (2x) ____  ____  ____  ____  ____  ___
 72
   65
 73
    2
 40
38.09999999999999
 49
25.4
 74
    0
 49
-12.7
 74
    0
  0
LTYPE
  5
3A
330
5
100
AcDbSymbolTableRecord
100
AcDbLinetypeTableRecord
  2
DASHDOT
 70
    0
  3
Dash dot __ . __ . __ . __ . __ . __ . __ . __
 72
   65
 73
    4
 40
25.4
 49
12.7
 74
    0
 49
-6.35
 74
    0
 49
0
 74
    0
 49
-6.35
 74
    0
  0
LTYPE
  5
3B
330
5
100
AcDbSymbolTableRecord
100
AcDbLinetypeTableRecord
  2
DASHDOTTINY
 70
    0
  3
Dash dot (.15x) _._._._._._._._._._._._._._._.
 72
   65
 73
    4
 40
3.81
 49
1.905
 74
    0
 49
-0.9525
 74
    0
 49
0
 74
    0
 49
-0.9525
 74
    0
  0
LTYPE
  5
3C
330
5
100
AcDbSymbolTableRecord
100
AcDbLinetypeTableRecord
  2
DASHDOT2
 70
    0
  3
Dash dot (.5x) _._._._._._._._._._._._._._._.
 72
   65
 73
    4
 40
12.7
 49
6.35
 74
    0
 49
-3.175
 74
    0
 49
0
 74
    0
 49
-3.175
 74
    0
  0
LTYPE
  5
3D
330
5
100
AcDbSymbolTableRecord
100
AcDbLinetypeTableRecord
  2
DASHDOTX2
 70
    0
  3
Dash dot (2x) ____  .  ____  .  ____  .  ___
 72
   65
 73
    4
 40
50.8
 49
25.4
 74
    0
 49
-12.7
 74
    0
 49
0
 74
    0
 49
-12.7
 74
    0
  0
LTYPE
  5
3E
330
5
100
AcDbSymbolTableRecord
100
AcDbLinetypeTableRecord
  2
DIVIDE
 70
    0
  3
Divide ____ . . ____ . . ____ . . ____ . . ____
 72
   65
 73
    6
 40
31.75
 49
12.7
 74
    0
 49
-6.35
 74
    0
 49
0
 74
    0
 49
-6.35
 74
    0
 49
0
 74
    0
 49
-6.35
 74
    0
  0
LTYPE
  5
3F
330
5
100
AcDbSymbolTableRecord
100
AcDbLinetypeTableRecord
  2
DIVIDETINY
 70
    0
  3
Divide (.15x) __..__..__..__..__..__..__..__.._
 72
   65
 73
    6
 40
4.7625
 49
1.905
 74
    0
 49
-0.9525
 74
    0
 49
0
 74
    0
 49
-0.9525
 74
    0
 49
0
 74
    0
 49
-0.9525
 74
    0
  0
LTYPE
  5
40
330
5
100
AcDbSymbolTableRecord
100
AcDbLinetypeTableRecord
  2
DIVIDE2
 70
    0
  3
Divide (.5x) __..__..__..__..__..__..__..__.._
 72
   65
 73
    6
 40
15.875
 49
6.35
 74
    0
 49
-3.175
 74
    0
 49
0
 74
    0
 49
-3.175
 74
    0
 49
0
 74
    0
 49
-3.175
 74
    0
  0
LTYPE
  5
41
330
5
100
AcDbSymbolTableRecord
100
AcDbLinetypeTableRecord
  2
DIVIDEX2
 70
    0
  3
Divide (2x) ________  .  .  ________  .  .  _
 72
   65
 73
    6
 40
63.5
 49
25.4
 74
    0
 49
-12.7
 74
    0
 49
0
 74
    0
 49
-12.7
 74
    0
 49
0
 74
    0
 49
-12.7
 74
    0
  0
LTYPE
  5
42
330
5
100
AcDbSymbolTableRecord
100
AcDbLinetypeTableRecord
  2
BORDER
 70
    0
  3
Border __ __ . __ __ . __ __ . __ __ . __ __ .
 72
   65
 73
    6
 40
44.45
 49
12.7
 74
    0
 49
-6.35
 74
    0
 49
12.7
 74
    0
 49
-6.35
 74
    0
 49
0
 74
    0
 49
-6.35
 74
    0
  0
LTYPE
  5
43
330
5
100
AcDbSymbolTableRecord
100
AcDbLinetypeTableRecord
  2
BORDERTINY
 70
    0
  3
Border (.15x) __.__.__.__.__.__.__.__.__.__.__.
 72
   65
 73
    6
 40
6.6675
 49
1.905
 74
    0
 49
-0.9525
 74
    0
 49
1.905
 74
    0
 49
-0.9525
 74
    0
 49
0
 74
    0
 49
-0.9525
 74
    0
  0
LTYPE
  5
44
330
5
100
AcDbSymbolTableRecord
100
AcDbLinetypeTableRecord
  2
BORDER2
 70
    0
  3
Border (.5x) __.__.__.__.__.__.__.__.__.__.__.
 72
   65
 73
    6
 40
22.225
 49
6.35
 74
    0
 49
-3.175
 74
    0
 49
6.35
 74
    0
 49
-3.175
 74
    0
 49
0
 74
    0
 49
-3.175
 74
    0
  0
LTYPE
  5
45
330
5
100
AcDbSymbolTableRecord
100
AcDbLinetypeTableRecord
  2
BORDERX2
 70
    0
  3
Border (2x) ____  ____  .  ____  ____  .  ___
 72
   65
 73
    6
 40
88.89999999999999
 49
25.4
 74
    0
 49
-12.7
 74
    0
 49
25.4
 74
    0
 49
-12.7
 74
    0
 49
0
 74
    0
 49
-12.7
 74
    0
  0
LTYPE
  5
46
330
5
100
AcDbSymbolTableRecord
100
AcDbLinetypeTableRecord
  2
CENTER
 70
    0
  3
Center ____ _ ____ _ ____ _ ____ _ ____ _ ____
 72
   65
 73
    4
 40
50.8
 49
31.75
 74
    0
 49
-6.35
 74
    0
 49
6.35
 74
    0
 49
-6.35
 74
    0
  0
LTYPE
  5
47
330
5
100
AcDbSymbolTableRecord
100
AcDbLinetypeTableRecord
  2
CENTERTINY
 70
    0
  3
Center (.15x) ___ _ ___ _ ___ _ ___ _ ___ _ ___
 72
   65
 73
    4
 40
7.619999999999999
 49
4.7625
 74
    0
 49
-0.9525
 74
    0
 49
0.9525
 74
    0
 49
-0.9525
 74
    0
  0
LTYPE
  5
48
330
5
100
AcDbSymbolTableRecord
100
AcDbLinetypeTableRecord
  2
CENTER2
 70
    0
  3
Center (.5x) ___ _ ___ _ ___ _ ___ _ ___ _ ___
 72
   65
 73
    4
 40
28.575
 49
19.05
 74
    0
 49
-3.175
 74
    0
 49
3.175
 74
    0
 49
-3.175
 74
    0
  0
LTYPE
  5
49
330
5
100
AcDbSymbolTableRecord
100
AcDbLinetypeTableRecord
  2
CENTERX2
 70
    0
  3
Center (2x) ________  __  ________  __  _____
 72
   65
 73
    4
 40
101.6
 49
63.5
 74
    0
 49
-12.7
 74
    0
 49
12.7
 74
    0
 49
-12.7
 74
    0
  0
ENDTAB
  0
TABLE
  2
LAYER
  5
2
330
0
100
AcDbSymbolTable
 70
    1
  0
LAYER
  5
10
330
2
100
AcDbSymbolTableRecord
100
AcDbLayerTableRecord
  2
0
 70
    5
 62
    5
  6
CONTINUOUS
370
    0
390
F
1001
LibreCad
1070
    1
  0
LAYER
  5
4A
330
2
100
AcDbSymbolTableRecord
100
AcDbLayerTableRecord
  2
forme_finale
 70
    0
 62
    7
  6
CONTINUOUS
370
    0
390
F
  0
LAYER
  5
4B
330
2
100
AcDbSymbolTableRecord
100
AcDbLayerTableRecord
  2
forme_mesuree
 70
    0
 62
    1
  6
CONTINUOUS
370
    0
390
F
  0
LAYER
  5
4C
330
2
100
AcDbSymbolTableRecord
100
AcDbLayerTableRecord
  2
forme_mise_a_lechelle
 70
    0
 62
    1
  6
CONTINUOUS
370
    0
390
F
  0
LAYER
  5
4D
330
2
100
AcDbSymbolTableRecord
100
AcDbLayerTableRecord
  2
legend
 70
    0
 62
    7
  6
CONTINUOUS
370
    0
390
F
  0
LAYER
  5
4E
330
2
100
AcDbSymbolTableRecord
100
AcDbLayerTableRecord
  2
miroir_brut
 70
    0
 62
    7
  6
DOTTINY
370
    0
390
F
  0
ENDTAB
  0
TABLE
  2
STYLE
  5
3
330
0
100
AcDbSymbolTable
 70
    3
  0
STYLE
  5
4F
330
2
100
AcDbSymbolTableRecord
100
AcDbTextStyleTableRecord
  2
standard
 70
    0
 40
0
 41
1
 50
0
 71
    0
 42
1
  3
standard
  4

  0
ENDTAB
  0
TABLE
  2
VIEW
  5
6
330
0
100
AcDbSymbolTable
 70
    0
  0
ENDTAB
  0
TABLE
  2
UCS
  5
7
330
0
100
AcDbSymbolTable
 70
    0
  0
ENDTAB
  0
TABLE
  2
APPID
  5
9
330
0
100
AcDbSymbolTable
 70
    1
  0
APPID
  5
12
330
9
100
AcDbSymbolTableRecord
100
AcDbRegAppTableRecord
  2
ACAD
 70
    0
  0
APPID
  5
50
330
9
100
AcDbSymbolTableRecord
100
AcDbRegAppTableRecord
  2
LibreCad
 70
    0
  0
ENDTAB
  0
TABLE
  2
DIMSTYLE
  5
A
330
0
100
AcDbSymbolTable
 70
    1
100
AcDbDimStyleTable
 71
    1
  0
DIMSTYLE
105
51
330
A
100
AcDbSymbolTableRecord
100
AcDbDimStyleTableRecord
  2
Standard
 70
    0
 40
1
 41
15
 42
0.625
 43
0.38
 44
1.25
 45
0
 46
0
 47
0
 48
0
 49
1
140
15
141
0.09
142
0
143
25.4
144
1
145
0
146
1
147
0.625
148
0
 71
    0
 72
    0
 73
    0
 74
    1
 75
    0
 76
    0
 77
    0
 78
    1
 79
    0
170
    0
171
    2
172
    0
173
    0
174
    0
175
    0
176
    0
177
    0
178
    0
179
    2
271
    1
272
    4
273
    2
274
    2
275
    0
276
    0
277
    2
278
    0
279
    0
280
    0
281
    0
282
    0
283
    1
284
    0
285
    0
286
    0
288
    0
289
    3
340
standard
341

371
   -2
372
   -2
  0
ENDTAB
  0
TABLE
  2
BLOCK_RECORD
  5
1
330
0
100
AcDbSymbolTable
 70
    2
  0
BLOCK_RECORD
  5
1F
330
1
100
AcDbSymbolTableRecord
100
AcDbBlockTableRecord
  2
*Model_Space
 70
    0
280
    1
281
    0
  0
BLOCK_RECORD
  5
1E
330
1
100
AcDbSymbolTableRecord
100
AcDbBlockTableRecord
  2
*Paper_Space
 70
    0
280
    1
281
    0
  0
BLOCK_RECORD
  5
52
330
1
100
AcDbSymbolTableRecord
100
AcDbBlockTableRecord
  2
*D6
 70
    0
280
    1
281
    0
  0
BLOCK_RECORD
  5
55
330
1
100
AcDbSymbolTableRecord
100
AcDbBlockTableRecord
  2
*D3
 70
    0
280
    1
281
    0
  0
BLOCK_RECORD
  5
58
330
1
100
AcDbSymbolTableRecord
100
AcDbBlockTableRecord
  2
*D2
 70
    0
280
    1
281
    0
  0
BLOCK_RECORD
  5
5B
330
1
100
AcDbSymbolTableRecord
100
AcDbBlockTableRecord
  2
*D7
 70
    0
280
    1
281
    0
  0
BLOCK_RECORD
  5
5E
330
1
100
AcDbSymbolTableRecord
100
AcDbBlockTableRecord
  2
*D1
 70
    0
280
    1
281
    0
  0
BLOCK_RECORD
  5
61
330
1
100
AcDbSymbolTableRecord
100
AcDbBlockTableRecord
  2
*D4
 70
    0
280
    1
281
    0
  0
BLOCK_RECORD
  5
64
330
1
100
AcDbSymbolTableRecord
100
AcDbBlockTableRecord
  2
*D5
 70
    0
280
    1
281
    0
  0
BLOCK_RECORD
  5
67
330
1
100
AcDbSymbolTableRecord
100
AcDbBlockTableRecord
  2
*D8
 70
    0
280
    1
281
    0
  0
ENDTAB
  0
ENDSEC
  0
SECTION
  2
BLOCKS
  0
BLOCK
  5
20
330
1F
100
AcDbEntity
  8
0
100
AcDbBlockBegin
  2
*Model_Space
 70
    0
 10
0
 20
0
 30
0
  3
*Model_Space
  1

  0
ENDBLK
  5
21
330
1F
100
AcDbEntity
  8
0
100
AcDbBlockEnd
  0
BLOCK
  5
1C
330
1B
100
AcDbEntity
  8
0
100
AcDbBlockBegin
  2
*Paper_Space
 70
    0
 10
0
 20
0
 30
0
  3
*Paper_Space
  1

  0
ENDBLK
  5
1D
330
1F
100
AcDbEntity
  8
0
100
AcDbBlockEnd
  0
BLOCK
  5
53
330
52
100
AcDbEntity
  8
0
100
AcDbBlockBegin
  2
*D6
 70
    1
 10
0
 20
0
  3
*D6
  1

  0
LINE
  5
6A
100
AcDbEntity
  8
legend
  6
ByBlock
 62
    0
370
   -2
100
AcDbLine
 10
3.163916439823851e-06
 20
-0.6249999999919917
 11
0.0001581963345200493
 21
-31.25010124454127
  0
LINE
  5
6B
100
AcDbEntity
  8
legend
  6
ByBlock
 62
    0
370
   -2
100
AcDbLine
 10
18.29266154700637
 20
-0.6249073976838484
 11
18.29281657942445
 21
-31.25000864223313
  0
LINE
  5
6C
100
AcDbEntity
  8
legend
  6
ByBlock
 62
    0
370
   -2
100
AcDbLine
 10
-29.99984813111396
 20
-30.0002531125464
 11
48.29281025120717
 21
-29.99985677426003
  0
MTEXT
  5
6D
100
AcDbEntity
  8
legend
  6
CONTINUOUS
 62
    0
370
   -2
100
AcDbMText
 10
34.75110245380077
 20
-21.874925325887
 30
0
 40
15
 41
31.6666666666676
 71
    5
 72
    1
  1
18.3
  7
standard
210
0
220
0
230
1
 50
0.0002900464939861058
 73
    2
 44
1
  0
SOLID
  5
6E
100
AcDbEntity
  8
legend
  6
ByBlock
 62
    0
370
   -2
100
AcDbTrace
 10
0.0001518685016404016
 20
-30.00010124455729
 30
0
 11
-14.99983548724338
 21
-32.49788512515688
 31
0
 12
-14.99986077536894
 22
-27.50246923194681
 32
0
 13
-14.99986077536894
 23
-27.50246923194681
 33
0
  0
SOLID
  5
6F
100
AcDbEntity
  8
legend
  6
ByBlock
 62
    0
370
   -2
100
AcDbTrace
 10
18.29281025159157
 20
-30.00000864224915
 30
0
 11
33.2927976073366
 21
-27.50222476164955
 31
0
 12
33.29282289546214
 22
-32.49764065485963
 32
0
 13
33.29282289546214
 23
-32.49764065485963
 33
0
  0
ENDBLK
  5
54
330
52
100
AcDbEntity
  8
0
100
AcDbBlockEnd
  0
BLOCK
  5
56
330
55
100
AcDbEntity
  8
0
100
AcDbBlockBegin
  2
*D3
 70
    1
 10
0
 20
0
  3
*D3
  1

  0
LINE
  5
70
100
AcDbEntity
  8
legend
  6
ByBlock
 62
    0
370
   -2
100
AcDbLine
 10
3.827021247335479e-17
 20
300.625
 11
1.913510623667739e-15
 21
331.25
  0
LINE
  5
71
100
AcDbEntity
  8
legend
  6
ByBlock
 62
    0
370
   -2
100
AcDbLine
 10
401.3936929838596
 20
300.625
 11
401.3936929838596
 21
331.25
  0
LINE
  5
72
100
AcDbEntity
  8
legend
  6
ByBlock
 62
    0
370
   -2
100
AcDbLine
 10
1.83697019872103e-15
 20
330
 11
401.3936929838596
 21
330
  0
MTEXT
  5
73
100
AcDbEntity
  8
legend
  6
CONTINUOUS
 62
    0
370
   -2
100
AcDbMText
 10
200.6968464919298
 20
338.125
 30
0
 40
15
 41
46.66666666666667
 71
    5
 72
    1
  1
401.4
  7
standard
210
0
220
0
230
1
 50
0
 73
    2
 44
1
  0
SOLID
  5
74
100
AcDbEntity
  8
legend
  6
ByBlock
 62
    0
370
   -2
100
AcDbTrace
 10
1.83697019872103e-15
 20
330
 30
0
 11
15
 21
332.497707946637
 31
0
 12
15
 22
327.502292053363
 32
0
 13
15
 23
327.502292053363
 33
0
  0
SOLID
  5
75
100
AcDbEntity
  8
legend
  6
ByBlock
 62
    0
370
   -2
100
AcDbTrace
 10
401.3936929838596
 20
330
 30
0
 11
386.3936929838596
 21
327.502292053363
 31
0
 12
386.3936929838596
 22
332.497707946637
 32
0
 13
386.3936929838596
 23
332.497707946637
 33
0
  0
ENDBLK
  5
57
330
55
100
AcDbEntity
  8
0
100
AcDbBlockEnd
  0
BLOCK
  5
59
330
58
100
AcDbEntity
  8
0
100
AcDbBlockBegin
  2
*D2
 70
    1
 10
0
 20
0
  3
*D2
  1

  0
LINE
  5
76
100
AcDbEntity
  8
legend
  6
ByBlock
 62
    0
370
   -2
100
AcDbLine
 10
-0.6250000000001137
 20
162.0209792042358
 11
-31.24999999999997
 21
162.0209792042359
  0
LINE
  5
77
100
AcDbEntity
  8
legend
  6
ByBlock
 62
    0
370
   -2
100
AcDbLine
 10
-0.625
 20
300
 11
-31.24999999999985
 21
300.0000000000001
  0
LINE
  5
78
100
AcDbEntity
  8
legend
  6
ByBlock
 62
    0
370
   -2
100
AcDbLine
 10
-29.99999999999997
 20
162.0209792042359
 11
-29.99999999999985
 21
300.0000000000001
  0
MTEXT
  5
79
100
AcDbEntity
  8
legend
  6
CONTINUOUS
 62
    0
370
   -2
100
AcDbMText
 10
-38.12499999999991
 20
231.010489602118
 30
0
 40
15
 41
43.33333333333427
 71
    5
 72
    1
  1
138.0
  7
standard
210
0
220
0
230
1
 50
89.99999999999997
 73
    2
 44
1
  0
SOLID
  5
7A
100
AcDbEntity
  8
legend
  6
ByBlock
 62
    0
370
   -2
100
AcDbTrace
 10
-29.99999999999997
 20
162.0209792042359
 30
0
 11
-32.49770794663699
 21
177.0209792042359
 31
0
 12
-27.50229205336291
 22
177.0209792042359
 32
0
 13
-27.50229205336291
 23
177.0209792042359
 33
0
  0
SOLID
  5
7B
100
AcDbEntity
  8
legend
  6
ByBlock
 62
    0
370
   -2
100
AcDbTrace
 10
-29.99999999999985
 20
300.0000000000001
 30
0
 11
-27.50229205336282
 21
285.0000000000001
 31
0
 12
-32.49770794663691
 22
285.0000000000001
 32
0
 13
-32.49770794663691
 23
285.0000000000001
 33
0
  0
ENDBLK
  5
5A
330
58
100
AcDbEntity
  8
0
100
AcDbBlockEnd
  0
BLOCK
  5
5C
330
5B
100
AcDbEntity
  8
0
100
AcDbBlockBegin
  2
*D7
 70
    1
 10
0
 20
0
  3
*D7
  1

  0
LINE
  5
7C
100
AcDbEntity
  8
legend
  6
ByBlock
 62
    0
370
   -2
100
AcDbLine
 10
18.29265829645285
 20
-0.6249073976918507
 11
18.29265405122536
 21
-31.24998312900856
  0
LINE
  5
7D
100
AcDbEntity
  8
legend
  6
ByBlock
 62
    0
370
   -2
100
AcDbLine
 10
999.9999999133629
 20
-0.6250434813073438
 11
999.9999956681354
 21
-31.25011921262405
  0
LINE
  5
7E
100
AcDbEntity
  8
legend
  6
ByBlock
 62
    0
370
   -2
100
AcDbLine
 10
18.29265422449952
 20
-29.99998312900857
 11
999.9999958414096
 21
-30.00011921262406
  0
MTEXT
  5
7F
100
AcDbEntity
  8
legend
  6
CONTINUOUS
 62
    0
370
   -2
100
AcDbMText
 10
509.1463261592367
 20
-21.87505117081639
 30
0
 40
15
 41
43.33333333333427
 71
    5
 72
    1
  1
981.7
  7
standard
210
0
220
0
230
1
 50
359.9999920576973
 73
    2
 44
1
  0
SOLID
  5
80
100
AcDbEntity
  8
legend
  6
ByBlock
 62
    0
370
   -2
100
AcDbTrace
 10
18.29265422449952
 20
-29.99998312900857
 30
0
 11
33.29265457072998
 21
-27.50227726166153
 31
0
 12
33.29265387826877
 22
-32.49769315493556
 32
0
 13
33.29265387826877
 23
-32.49769315493556
 33
0
  0
SOLID
  5
81
100
AcDbEntity
  8
legend
  6
ByBlock
 62
    0
370
   -2
100
AcDbTrace
 10
999.9999958414096
 20
-30.00011921262406
 30
0
 11
984.9999954951792
 21
-32.49782507997111
 31
0
 12
984.9999961876404
 22
-27.50240918669708
 32
0
 13
984.9999961876404
 23
-27.50240918669708
 33
0
  0
ENDBLK
  5
5D
330
5B
100
AcDbEntity
  8
0
100
AcDbBlockEnd
  0
BLOCK
  5
5F
330
5E
100
AcDbEntity
  8
0
100
AcDbBlockBegin
  2
*D1
 70
    1
 10
0
 20
0
  3
*D1
  1

  0
LINE
  5
82
100
AcDbEntity
  8
legend
  6
ByBlock
 62
    0
370
   -2
100
AcDbLine
 10
-0.625
 20
7.654042494670958e-17
 11
-31.25
 21
3.827021247335479e-15
  0
LINE
  5
83
100
AcDbEntity
  8
legend
  6
ByBlock
 62
    0
370
   -2
100
AcDbLine
 10
-0.625
 20
162.0209792042348
 11
-31.25
 21
162.0209792042348
  0
LINE
  5
84
100
AcDbEntity
  8
legend
  6
ByBlock
 62
    0
370
   -2
100
AcDbLine
 10
-30
 20
3.67394039744206e-15
 11
-30
 21
162.0209792042348
  0
MTEXT
  5
85
100
AcDbEntity
  8
legend
  6
CONTINUOUS
 62
    0
370
   -2
100
AcDbMText
 10
-38.125
 20
81.0104896021174
 30
0
 40
15
 41
43.33333333333427
 71
    5
 72
    1
  1
162.0
  7
standard
210
0
220
0
230
1
 50
90
 73
    2
 44
1
  0
SOLID
  5
86
100
AcDbEntity
  8
legend
  6
ByBlock
 62
    0
370
   -2
100
AcDbTrace
 10
-30
 20
3.67394039744206e-15
 30
0
 11
-32.49770794663704
 21
15
 31
0
 12
-27.50229205336295
 22
15
 32
0
 13
-27.50229205336295
 23
15
 33
0
  0
SOLID
  5
87
100
AcDbEntity
  8
legend
  6
ByBlock
 62
    0
370
   -2
100
AcDbTrace
 10
-30
 20
162.0209792042348
 30
0
 11
-27.50229205336296
 21
147.0209792042348
 31
0
 12
-32.49770794663704
 22
147.0209792042348
 32
0
 13
-32.49770794663704
 23
147.0209792042348
 33
0
  0
ENDBLK
  5
60
330
5E
100
AcDbEntity
  8
0
100
AcDbBlockEnd
  0
BLOCK
  5
62
330
61
100
AcDbEntity
  8
0
100
AcDbBlockBegin
  2
*D4
 70
    1
 10
0
 20
0
  3
*D4
  1

  0
LINE
  5
88
100
AcDbEntity
  8
legend
  6
ByBlock
 62
    0
370
   -2
100
AcDbLine
 10
401.3936929838599
 20
300.625
 11
401.3936929838599
 21
331.25
  0
LINE
  5
89
100
AcDbEntity
  8
legend
  6
ByBlock
 62
    0
370
   -2
100
AcDbLine
 10
1000
 20
300.625
 11
1000
 21
331.25
  0
LINE
  5
8A
100
AcDbEntity
  8
legend
  6
ByBlock
 62
    0
370
   -2
100
AcDbLine
 10
401.3936929838599
 20
330
 11
1000
 21
330
  0
MTEXT
  5
8B
100
AcDbEntity
  8
legend
  6
CONTINUOUS
 62
    0
370
   -2
100
AcDbMText
 10
700.6968464919299
 20
338.125
 30
0
 40
15
 41
46.66666666666853
 71
    5
 72
    1
  1
598.6
  7
standard
210
0
220
0
230
1
 50
0
 73
    2
 44
1
  0
SOLID
  5
8C
100
AcDbEntity
  8
legend
  6
ByBlock
 62
    0
370
   -2
100
AcDbTrace
 10
401.3936929838599
 20
330
 30
0
 11
416.3936929838599
 21
332.497707946637
 31
0
 12
416.3936929838599
 22
327.502292053363
 32
0
 13
416.3936929838599
 23
327.502292053363
 33
0
  0
SOLID
  5
8D
100
AcDbEntity
  8
legend
  6
ByBlock
 62
    0
370
   -2
100
AcDbTrace
 10
1000
 20
330
 30
0
 11
985
 21
327.502292053363
 31
0
 12
985
 22
332.497707946637
 32
0
 13
985
 23
332.497707946637
 33
0
  0
ENDBLK
  5
63
330
61
100
AcDbEntity
  8
0
100
AcDbBlockEnd
  0
BLOCK
  5
65
330
64
100
AcDbEntity
  8
0
100
AcDbBlockBegin
  2
*D5
 70
    1
 10
0
 20
0
  3
*D5
  1

  0
ARC
  5
8E
100
AcDbEntity
  8
legend
  6
ByBlock
 62
    0
370
   -2
100
AcDbCircle
 10
401.3936929838596
 20
300
 40
273.361779939589
100
AcDbArc
 50
180
 51
198.9704
  0
SOLID
  5
8F
100
AcDbEntity
  8
legend
  6
ByBlock
 62
    0
370
   -2
100
AcDbTrace
 10
128.0319130442707
 20
300.0000000000001
 30
0
 11
130.940171889691
 21
285.0741641616047
 31
0
 12
125.946636011581
 22
284.9371262806983
 32
0
 13
125.946636011581
 23
284.9371262806983
 33
0
  0
SOLID
  5
90
100
AcDbEntity
  8
legend
  6
ByBlock
 62
    0
370
   -2
100
AcDbTrace
 10
142.8791088220909
 20
211.1356510888194
 30
0
 11
136.0104566236019
 21
224.7025284732025
 31
0
 12
140.7773250328483
 22
226.1962304232929
 32
0
 13
140.7773250328483
 23
226.1962304232929
 33
0
  0
MTEXT
  5
91
100
AcDbEntity
  8
legend
  6
CONTINUOUS
 62
    0
370
   -2
100
AcDbMText
 10
132.3857152422483
 20
255.0549330495045
 30
0
 40
15
 41
53.33333333333334
 71
    8
 72
    1
  1
18.97%%D
  7
standard
210
0
220
0
230
1
 50
-80.51480000000001
 73
    2
 44
1
  0
ENDBLK
  5
66
330
64
100
AcDbEntity
  8
0
100
AcDbBlockEnd
  0
BLOCK
  5
68
330
67
100
AcDbEntity
  8
0
100
AcDbBlockBegin
  2
*D8
 70
    1
 10
0
 20
0
  3
*D8
  1

  0
ARC
  5
92
100
AcDbEntity
  8
legend
  6
ByBlock
 62
    0
370
   -2
100
AcDbCircle
 10
-3.552713678800501e-15
 20
162.0209792042359
 40
86.17043059656895
100
AcDbArc
 50
276.4415922908485
 51
18.97039999999999
  0
SOLID
  5
93
100
AcDbEntity
  8
legend
  6
ByBlock
 62
    0
370
   -2
100
AcDbTrace
 10
9.667486561827388
 20
76.39456498073244
 30
0
 11
23.87517563051902
 21
81.81490780329212
 31
0
 12
24.86498632765569
 22
76.91853621500256
 32
0
 13
24.86498632765569
 23
76.91853621500256
 33
0
  0
SOLID
  5
94
100
AcDbEntity
  8
legend
  6
ByBlock
 62
    0
370
   -2
100
AcDbTrace
 10
81.49022528912231
 20
190.0332317292686
 30
0
 11
87.538565509138
 21
176.0813097982357
 31
0
 12
82.69118821086229
 22
174.8742003272528
 32
0
 13
82.69118821086229
 23
174.8742003272528
 33
0
  0
MTEXT
  5
95
100
AcDbEntity
  8
legend
  6
CONTINUOUS
 62
    0
370
   -2
100
AcDbMText
 10
72.31307090540324
 20
116.3171448773162
 30
0
 40
15
 41
65.00000000000186
 71
    8
 72
    1
  1
102.53%%D
  7
standard
210
0
220
0
230
1
 50
57.70599614542424
 73
    2
 44
1
  0
ENDBLK
  5
69
330
67
100
AcDbEntity
  8
0
100
AcDbBlockEnd
  0
ENDSEC
  0
SECTION
  2
ENTITIES
  0
HATCH
  5
96
100
AcDbEntity
  8
forme_mesuree
  6
ByLayer
 62
  256
370
   -1
100
AcDbHatch
 10
0
 20
0
 30
0
210
0
220
0
230
1
  2
ansi31
 70
    0
 71
    0
 91
    1
 92
    0
 93
    4
 72
    1
 10
800
 20
-100
 11
880
 21
-100
 72
    1
 10
880
 20
-100
 11
880
 21
-140
 72
    1
 10
880
 20
-140
 11
800
 21
-140
 72
    1
 10
800
 20
-140
 11
800
 21
-100
 97
    0
 75
    0
 76
    1
 52
0
 41
3
 77
    0
 78
    0
 98
    0
  0
HATCH
  5
97
100
AcDbEntity
  8
forme_finale
  6
ByLayer
 62
  256
370
   -1
100
AcDbHatch
 10
0
 20
0
 30
0
210
0
220
0
230
1
  2
ansi31
 70
    0
 71
    0
 91
    1
 92
    0
 93
    9
 72
    1
 10
880
 20
-290
 11
800
 21
-290
 72
    1
 10
800
 20
-290
 11
800
 21
-250
 72
    1
 10
800
 20
-250
 11
880
 21
-250
 72
    1
 10
880
 20
-250
 11
880
 21
-290
 72
    1
 10
401.3936929838599
 20
300
 11
0
 21
162.0209792042359
 72
    1
 10
0
 20
162.0209792042359
 11
18.29265838308993
 21
9.260230814334133e-05
 72
    1
 10
18.29265838308993
 20
9.260230814334133e-05
 11
1000
 21
-4.348130734971962e-05
 72
    1
 10
1000
 20
-4.348130734971962e-05
 11
1000
 21
300
 72
    1
 10
1000
 20
300
 11
401.3936929838599
 21
300
 97
    0
 75
    0
 76
    1
 52
1.570796326794897
 41
3
 77
    0
 78
    0
 98
    0
  0
HATCH
  5
98
100
AcDbEntity
  8
forme_mesuree
  6
ByLayer
 62
  256
370
   -1
100
AcDbHatch
 10
0
 20
0
 30
0
210
0
220
0
230
1
  2
ansi31
 70
    0
 71
    0
 91
    1
 92
    0
 93
    4
 72
    1
 10
842.3948817172227
 20
70.40747509180071
 11
10.34343469447606
 21
70.40758848693346
 72
    1
 10
10.34343469447606
 20
70.40758848693346
 11
-1.13686837721616e-13
 21
162.0209792042358
 72
    1
 10
-1.13686837721616e-13
 20
162.0209792042358
 11
226.9647944659113
 21
240.0400927152635
 72
    1
 10
226.9647944659113
 20
240.0400927152635
 11
842.3948817172227
 21
70.40747509180071
 97
    0
 75
    0
 76
    1
 52
0
 41
3
 77
    0
 78
    0
 98
    0
  0
HATCH
  5
99
100
AcDbEntity
  8
forme_finale
  6
ByLayer
 62
  256
370
   -1
100
AcDbHatch
 10
0
 20
0
 30
0
210
0
220
0
230
1
  2
ansi31
 70
    0
 71
    0
 91
    1
 92
    0
 93
    4
 72
    1
 10
800
 20
-250
 11
880
 21
-250
 72
    1
 10
880
 20
-250
 11
880
 21
-290
 72
    1
 10
880
 20
-290
 11
800
 21
-290
 72
    1
 10
800
 20
-290
 11
800
 21
-250
 97
    0
 75
    0
 76
    1
 52
1.570796326794897
 41
3
 77
    0
 78
    0
 98
    0
  0
LWPOLYLINE
  5
9A
100
AcDbEntity
  8
miroir_brut
  6
ByLayer
 62
  256
370
   -1
100
AcDbPolyline
 90
    4
 70
    1
 43
0
 10
0
 20
0
 10
1000
 20
0
 10
1000
 20
300
 10
0
 20
300
  0
MTEXT
  5
9B
100
AcDbEntity
  8
legend
  6
ByLayer
 62
  256
370
   -1
100
AcDbMText
 10
900
 20
-280
 30
0
 40
30
 41
601.6666820952897
 71
    7
 72
    1
  1
forme mesurée empiriquement\Pforme mise à l'échelle\Pmiroir brut\Pforme finale
  7
standard
210
0
220
0
230
1
 50
0
 73
    2
 44
1
  0
LWPOLYLINE
  5
9C
100
AcDbEntity
  8
miroir_brut
  6
ByLayer
 62
  256
370
   -1
100
AcDbPolyline
 90
    4
 70
    1
 43
0
 10
880
 20
-240
 10
800
 20
-240
 10
800
 20
-200
 10
880
 20
-200
  0
LWPOLYLINE
  5
9D
100
AcDbEntity
  8
forme_finale
  6
ByLayer
 62
  256
370
   -1
100
AcDbPolyline
 90
    4
 70
    1
 43
0
 10
880
 20
-290
 10
800
 20
-290
 10
800
 20
-250
 10
880
 20
-250
  0
MTEXT
  5
9E
100
AcDbEntity
  8
legend
  6
ByLayer
 62
  256
370
   -1
100
AcDbMText
 10
0
 20
-300
 30
0
 40
30
 41
670.0000000000038
 71
    7
 72
    1
  1
DÉCOUPE MIROIR EN TOIT D'AMICI\PSUR UN MIROIR DE 1000×300\PCAMERA OBSCURA
  7
standard
210
0
220
0
230
1
 50
0
 73
    2
 44
1
  0
LWPOLYLINE
  5
9F
100
AcDbEntity
  8
legend
  6
ByLayer
 62
  256
370
   -1
100
AcDbPolyline
 90
    4
 70
    1
 43
0
 10
-10
 20
-310
 10
680
 20
-310
 10
680
 20
-150
 10
-10
 20
-150
  0
LINE
  5
A0
100
AcDbEntity
  8
0
  6
ByLayer
 62
  256
370
   -1
100
AcDbLine
 10
-16.82378023517066
 20
162.0209792042359
 11
613.1762197648293
 21
162.0209792042359
  0
LINE
  5
A1
100
AcDbEntity
  8
forme_mise_a_lechelle
  6
ByLayer
 62
  256
370
   -1
100
AcDbLine
 10
0
 20
162.0209792042359
 11
401.3936929838596
 21
300
  0
LINE
  5
A2
100
AcDbEntity
  8
forme_mise_a_lechelle
  6
ByLayer
 62
  256
370
   -1
100
AcDbLine
 10
0
 20
162.0209792042359
 11
18.29265838308993
 21
9.260230814334133e-05
  0
LINE
  5
A3
100
AcDbEntity
  8
forme_mise_a_lechelle
  6
ByLayer
 62
  256
370
   -1
100
AcDbLine
 10
401.3936929838596
 20
300
 11
1186.410979403715
 21
83.62361552744525
  0
LINE
  5
A4
100
AcDbEntity
  8
forme_mise_a_lechelle
  6
ByLayer
 62
  256
370
   -1
100
AcDbLine
 10
18.29265838308993
 20
9.260230814334133e-05
 11
1215.156608736166
 21
-7.051085884063332e-05
  0
LINE
  5
A5
100
AcDbEntity
  8
forme_mise_a_lechelle
  6
ByLayer
 62
  256
370
   -1
100
AcDbLine
 10
1215.156608736166
 20
-7.051085884063332e-05
 11
1489.799302657765
 21
-0.0001079402086421728
  0
LINE
  5
A6
100
AcDbEntity
  8
forme_mise_a_lechelle
  6
ByLayer
 62
  256
370
   -1
100
AcDbLine
 10
1489.799302657765
 20
-0.0001079402086421728
 11
1186.410979403715
 21
83.62361552744532
  0
LWPOLYLINE
  5
A7
100
AcDbEntity
  8
forme_mesuree
  6
ByLayer
 62
  256
370
   -1
100
AcDbPolyline
 90
    5
 70
    0
 43
0
 10
-1.13686837721616e-13
 20
162.0209792042358
 10
226.9647944659113
 20
240.0400927152635
 10
842.3948817172227
 20
70.40747509180071
 10
10.34343469447606
 20
70.40758848693346
 10
-1.13686837721616e-13
 20
162.0209792042358
  0
LWPOLYLINE
  5
A8
100
AcDbEntity
  8
forme_finale
  6
ByLayer
 62
  256
370
   -1
100
AcDbPolyline
 90
    6
 70
    0
 43
0
 10
401.3936929838599
 20
300
 10
0
 20
162.0209792042359
 10
18.29265838308993
 20
9.260230814334133e-05
 10
1000
 20
-4.348130734971962e-05
 10
1000
 20
300
 10
401.3936929838599
 20
300
  0
DIMENSION
  5
A9
100
AcDbEntity
  8
legend
  6
ByLayer
 62
  256
370
   -1
100
AcDbDimension
  2
*D1
 10
-30
 20
162.0209792042348
 30
0
 11
-38.125
 21
81.0104896021174
 31
0
 70
   33
 71
    5
  3
Standard
 53
0
210
0
220
0
230
1
100
AcDbAlignedDimension
 13
0
 23
0
 33
0
 14
0
 24
162.0209792042348
 34
0
  0
DIMENSION
  5
AA
100
AcDbEntity
  8
legend
  6
ByLayer
 62
  256
370
   -1
100
AcDbDimension
  2
*D2
 10
-29.99999999999985
 20
300.0000000000001
 30
0
 11
-38.12499999999991
 21
231.010489602118
 31
0
 70
   33
 71
    5
  3
Standard
 53
0
210
0
220
0
230
1
100
AcDbAlignedDimension
 13
-1.13686837721616e-13
 23
162.0209792042358
 33
0
 14
0
 24
300
 34
0
  0
DIMENSION
  5
AB
100
AcDbEntity
  8
legend
  6
ByLayer
 62
  256
370
   -1
100
AcDbDimension
  2
*D3
 10
401.3936929838596
 20
330
 30
0
 11
200.6968464919298
 21
338.125
 31
0
 70
   33
 71
    5
  3
Standard
 53
0
210
0
220
0
230
1
100
AcDbAlignedDimension
 13
0
 23
300
 33
0
 14
401.3936929838596
 24
300
 34
0
  0
DIMENSION
  5
AC
100
AcDbEntity
  8
legend
  6
ByLayer
 62
  256
370
   -1
100
AcDbDimension
  2
*D4
 10
1000
 20
330
 30
0
 11
700.6968464919299
 21
338.125
 31
0
 70
   33
 71
    5
  3
Standard
 53
0
210
0
220
0
230
1
100
AcDbAlignedDimension
 13
401.3936929838599
 23
300
 33
0
 14
1000
 24
300
 34
0
  0
DIMENSION
  5
AD
100
AcDbEntity
  8
legend
  6
ByLayer
 62
  256
370
   -1
100
AcDbDimension
  2
*D5
 10
0
 20
162.0209792042359
 30
0
 11
0
 21
0
 31
0
 70
   34
 71
    5
  3
Standard
 53
0
210
0
220
0
230
1
100
AcDb2LineAngularDimension
 13
1000
 23
300
 33
0
 14
0
 24
300
 34
0
 15
401.3936929838596
 25
300
 35
0
 16
140
 26
220
 36
0
  0
DIMENSION
  5
AE
100
AcDbEntity
  8
legend
  6
ByLayer
 62
  256
370
   -1
100
AcDbDimension
  2
*D6
 10
18.29281025159157
 20
-30.00000864224915
 30
0
 11
9.146439929132885
 21
-21.87505494350733
 31
0
 70
   33
 71
    5
  3
Standard
 53
0
210
0
220
0
230
1
100
AcDbAlignedDimension
 13
0
 23
0
 33
0
 14
18.29265838308993
 24
9.260230814334133e-05
 34
0
  0
DIMENSION
  5
AF
100
AcDbEntity
  8
legend
  6
ByLayer
 62
  256
370
   -1
100
AcDbDimension
  2
*D7
 10
999.9999958414096
 20
-30.00011921262407
 30
0
 11
509.1463261592367
 21
-21.87505117081639
 31
0
 70
   33
 71
    5
  3
Standard
 53
0
210
0
220
0
230
1
100
AcDbAlignedDimension
 13
18.29265838308993
 23
9.260230814334133e-05
 33
0
 14
1000
 24
-4.348130734971962e-05
 34
0
  0
DIMENSION
  5
B0
100
AcDbEntity
  8
legend
  6
ByLayer
 62
  256
370
   -1
100
AcDbDimension
  2
*D8
 10
226.9647944659113
 20
240.0400927152635
 30
0
 11
0
 21
0
 31
0
 70
   34
 71
    5
  3
Standard
 53
0
210
0
220
0
230
1
100
AcDb2LineAngularDimension
 13
0
 23
162.0209792042359
 33
0
 14
18.29265838308993
 24
9.260230814334133e-05
 34
0
 15
-1.13686837721616e-13
 25
162.0209792042358
 35
0
 16
80
 26
130
 36
0
  0
LWPOLYLINE
  5
B1
100
AcDbEntity
  8
forme_mesuree
  6
ByLayer
 62
  256
370
   -1
100
AcDbPolyline
 90
    4
 70
    1
 43
0
 10
880
 20
-140
 10
800
 20
-140
 10
800
 20
-100
 10
880
 20
-100
  0
LWPOLYLINE
  5
B2
100
AcDbEntity
  8
forme_mise_a_lechelle
  6
ByLayer
 62
  256
370
   -1
100
AcDbPolyline
 90
    4
 70
    1
 43
0
 10
880
 20
-190
 10
800
 20
-190
 10
800
 20
-150
 10
880
 20
-150
  0
ENDSEC
  0
SECTION
  2
OBJECTS
  0
DICTIONARY
  5
C
330
0
100
AcDbDictionary
281
    1
  3
ACAD_GROUP
350
D
  0
DICTIONARY
  5
D
330
C
100
AcDbDictionary
281
    1
  0
PLOTSETTINGS
  5
B3
100
AcDbPlotSettings
  6
1x1
 40
0
 41
0
 42
0
 43
0
  0
ENDSEC
  0
EOF
