999
dxfrw 0.6.3
  0
SECTION
  2
HEADER
  9
$ACADVER
  1
AC1021
  9
$DWGCODEPAGE
  3
ANSI_1252
  9
$INSBASE
 10
0
 20
0
 30
0
  9
$EXTMIN
 10
-245
 20
-352.497707946637
 30
0
  9
$EXTMAX
 10
259.1196878609852
 20
259.119687860985
 30
0
  9
$LIMMIN
 10
0
 20
0
  9
$LIMMAX
 10
420
 20
297
  9
$ORTHOMODE
 70
    0
  9
$REGENMODE
 70
    1
  9
$FILLMODE
 70
    1
  9
$QTEXTMODE
 70
    0
  9
$MIRRTEXT
 70
    0
  9
$LTSCALE
 40
1
  9
$ATTMODE
 70
    0
  9
$TEXTSIZE
 40
2.5
  9
$TRACEWID
 40
15.68
  9
$TEXTSTYLE
  7
STANDARD
  9
$CLAYER
  8
DIMENSIONS
  9
$CELTYPE
  6
BYLAYER
  9
$CECOLOR
 62
  256
  9
$CELTSCALE
 40
1
  9
$DISPSILH
 70
    0
  9
$DIMSCALE
 40
1
  9
$DIMASZ
 40
15
  9
$DIMEXO
 40
0.625
  9
$DIMDLI
 40
3.75
  9
$DIMRND
 40
0
  9
$DIMDLE
 40
0
  9
$DIMEXE
 40
1.25
  9
$DIMTP
 40
0
  9
$DIMTM
 40
0
  9
$DIMTXT
 40
25
  9
$DIMCEN
 40
2.5
  9
$DIMTSZ
 40
0
  9
$DIMTOL
 70
    0
  9
$DIMLIM
 70
    0
  9
$DIMTIH
 70
    0
  9
$DIMTOH
 70
    0
  9
$DIMSE1
 70
    0
  9
$DIMSE2
 70
    0
  9
$DIMTAD
 70
    1
  9
$DIMZIN
 70
    1
  9
$DIMBLK
  1

  9
$DIMASO
 70
    1
  9
$DIMSHO
 70
    1
  9
$DIMPOST
  1

  9
$DIMAPOST
  1

  9
$DIMALT
 70
    0
  9
$DIMALTD
 70
    3
  9
$DIMALTF
 40
0.03937
  9
$DIMLFAC
 40
1
  9
$DIMTOFL
 70
    1
  9
$DIMTVP
 40
0
  9
$DIMTIX
 70
    0
  9
$DIMSOXD
 70
    0
  9
$DIMSAH
 70
    0
  9
$DIMBLK1
  1

  9
$DIMBLK2
  1

  9
$DIMSTYLE
  2
STANDARD
  9
$DIMCLRD
 70
    0
  9
$DIMCLRE
 70
    0
  9
$DIMCLRT
 70
    0
  9
$DIMTFAC
 40
1
  9
$DIMGAP
 40
5
  9
$DIMJUST
 70
    0
  9
$DIMSD1
 70
    0
  9
$DIMSD2
 70
    0
  9
$DIMTOLJ
 70
    0
  9
$DIMTZIN
 70
    8
  9
$DIMALTZ
 70
    0
  9
$DIMALTTZ
 70
    0
  9
$DIMUPT
 70
    0
  9
$DIMDEC
 70
    0
  9
$DIMTDEC
 70
    2
  9
$DIMALTU
 70
    2
  9
$DIMALTTD
 70
    3
  9
$DIMTXSTY
  7
standard
  9
$DIMAUNIT
 70
    0
  9
$DIMADEC
 70
    2
  9
$DIMALTRND
 40
0
  9
$DIMAZIN
 70
    0
  9
$DIMDSEP
 70
    0
  9
$DIMATFIT
 70
    3
  9
$DIMFRAC
 70
    0
  9
$DIMLDRBLK
  1
STANDARD
  9
$DIMLUNIT
 70
    2
  9
$DIMLWD
 70
   -2
  9
$DIMLWE
 70
   -2
  9
$DIMTMOVE
 70
    0
  9
$DIMFXL
 40
1
  9
$DIMFXLON
 70
    0
  9
$DIMJOGANG
 40
0.7854
  9
$DIMTFILL
 70
    0
  9
$DIMTFILLCLR
 70
    0
  9
$DIMARCSYM
 70
    0
  9
$DIMLTYPE
  6

  9
$DIMLTEX1
  6

  9
$DIMLTEX2
  6

  9
$LUNITS
 70
    2
  9
$LUPREC
 70
    0
  9
$SKETCHINC
 40
1
  9
$FILLETRAD
 40
0
  9
$AUNITS
 70
    0
  9
$AUPREC
 70
    0
  9
$MENU
  1
.
  9
$ELEVATION
 40
0
  9
$PELEVATION
 40
0
  9
$THICKNESS
 40
0
  9
$LIMCHECK
 70
    0
  9
$CHAMFERA
 40
0
  9
$CHAMFERB
 40
0
  9
$CHAMFERC
 40
0
  9
$CHAMFERD
 40
0
  9
$SKPOLY
 70
    0
  9
$USRTIMER
 70
    1
  9
$ANGBASE
 50
0
  9
$ANGDIR
 70
    0
  9
$PDMODE
 70
   34
  9
$PDSIZE
 40
0
  9
$PLINEWID
 40
0
  9
$SPLFRAME
 70
    0
  9
$SPLINETYPE
 70
    2
  9
$SPLINESEGS
 70
    8
  9
$HANDSEED
  5
20000
  9
$SURFTAB1
 70
    6
  9
$SURFTAB2
 70
    6
  9
$SURFTYPE
 70
    6
  9
$SURFU
 70
    6
  9
$SURFV
 70
    6
  9
$UCSBASE
  2

  9
$UCSNAME
  2

  9
$UCSORG
 10
0
 20
0
 30
0
  9
$UCSXDIR
 10
1
 20
0
 30
0
  9
$UCSYDIR
 10
0
 20
1
 30
0
  9
$UCSORTHOREF
  2

  9
$UCSORTHOVIEW
 70
    0
  9
$UCSORGTOP
 10
0
 20
0
 30
0
  9
$UCSORGBOTTOM
 10
0
 20
0
 30
0
  9
$UCSORGLEFT
 10
0
 20
0
 30
0
  9
$UCSORGRIGHT
 10
0
 20
0
 30
0
  9
$UCSORGFRONT
 10
0
 20
0
 30
0
  9
$UCSORGBACK
 10
0
 20
0
 30
0
  9
$PUCSBASE
  2

  9
$PUCSNAME
  2

  9
$PUCSORG
 10
0
 20
0
 30
0
  9
$PUCSXDIR
 10
1
 20
0
 30
0
  9
$PUCSYDIR
 10
0
 20
1
 30
0
  9
$PUCSORTHOREF
  2

  9
$PUCSORTHOVIEW
 70
    0
  9
$PUCSORGTOP
 10
0
 20
0
 30
0
  9
$PUCSORGBOTTOM
 10
0
 20
0
 30
0
  9
$PUCSORGLEFT
 10
0
 20
0
 30
0
  9
$PUCSORGRIGHT
 10
0
 20
0
 30
0
  9
$PUCSORGFRONT
 10
0
 20
0
 30
0
  9
$PUCSORGBACK
 10
0
 20
0
 30
0
  9
$USERI1
 70
    0
  9
$USERI2
 70
    0
  9
$USERI3
 70
    0
  9
$USERI4
 70
    0
  9
$USERI5
 70
    0
  9
$USERR1
 40
0
  9
$USERR2
 40
0
  9
$USERR3
 40
0
  9
$USERR4
 40
0
  9
$USERR5
 40
0
  9
$WORLDVIEW
 70
    1
  9
$SHADEDGE
 70
    3
  9
$SHADEDIF
 70
   70
  9
$TILEMODE
 70
    1
  9
$MAXACTVP
 70
   64
  9
$PINSBASE
 10
0
 20
0
 30
0
  9
$PLIMCHECK
 70
    0
  9
$PEXTMIN
 10
0
 20
0
 30
0
  9
$PEXTMAX
 10
0
 20
0
 30
0
  9
$GRIDMODE
 70
    1
  9
$SNAPSTYLE
 70
    0
  9
$GRIDUNIT
 10
0
 20
0
  9
$PLIMMIN
 10
0
 20
0
  9
$PLIMMAX
 10
297
 20
210
  9
$UNITMODE
 70
    0
  9
$VISRETAIN
 70
    1
  9
$PLINEGEN
 70
    0
  9
$PSLTSCALE
 70
    1
  9
$TREEDEPTH
 70
 3020
  9
$CMLSTYLE
  2
Standard
  9
$CMLJUST
 70
    0
  9
$CMLSCALE
 40
20
  9
$PROXYGRAPHICS
 70
    1
  9
$MEASUREMENT
 70
    1
  9
$CELWEIGHT
370
   -1
  9
$ENDCAPS
280
    0
  9
$JOINSTYLE
280
    0
  9
$LWDISPLAY
290
    0
  9
$INSUNITS
 70
    4
  9
$HYPERLINKBASE
  1

  9
$STYLESHEET
  1

  9
$XEDIT
290
    1
  9
$CEPSNTYPE
380
    0
  9
$PSTYLEMODE
290
    1
  9
$EXTNAMES
290
    1
  9
$PSVPSCALE
 40
0.3243510300414055
  9
$OLESTARTUP
290
    0
  9
$SORTENTS
280
  127
  9
$INDEXCTL
280
    0
  9
$HIDETEXT
280
    1
  9
$XCLIPFRAME
290
    0
  9
$HALOGAP
280
    0
  9
$OBSCOLOR
 70
  257
  9
$OBSLTYPE
280
    0
  9
$INTERSECTIONDISPLAY
280
    0
  9
$INTERSECTIONCOLOR
 70
  257
  9
$DIMASSOC
280
    1
  9
$PROJECTNAME
  1

  9
$CAMERADISPLAY
290
    0
  9
$LENSLENGTH
 40
50
  9
$CAMERAHEIGHT
 40
0
  9
$STEPSPERSEC
 40
2
  9
$STEPSIZE
 40
50
  9
$3DDWFPREC
 40
2
  9
$PSOLWIDTH
 40
5
  9
$PSOLHEIGHT
 40
80
  9
$LOFTANG1
 40
1.570796326794897
  9
$LOFTANG2
 40
1.570796326794897
  9
$LOFTMAG1
 40
0
  9
$LOFTMAG2
 40
0
  9
$LOFTPARAM
 70
    7
  9
$LOFTNORMALS
280
    1
  9
$LATITUDE
 40
1
  9
$LONGITUDE
 40
1
  9
$NORTHDIRECTION
 40
0
  9
$TIMEZONE
 70
-8000
  9
$LIGHTGLYPHDISPLAY
280
    1
  9
$TILEMODELIGHTSYNCH
280
    1
  9
$SOLIDHIST
280
    1
  9
$SHOWHIST
280
    1
  9
$DWFFRAME
280
    2
  9
$DGNFRAME
280
    0
  9
$REALWORLDSCALE
290
    1
  9
$INTERFERECOLOR
 62
    1
  9
$CSHADOW
280
    0
  9
$SHADOWPLANELOCATION
 40
0
  0
ENDSEC
  0
SECTION
  2
CLASSES
  0
ENDSEC
  0
SECTION
  2
TABLES
  0
TABLE
  2
VPORT
  5
8
330
0
100
AcDbSymbolTable
 70
    1
  0
VPORT
  5
31
330
2
100
AcDbSymbolTableRecord
100
AcDbViewportTableRecord
  2
*ACTIVE
 70
    0
 10
0
 20
0
 11
1
 21
1
 12
369.2601235125007
 22
209.5800701016896
 13
0
 23
0
 14
10
 24
10
 15
10
 25
10
 16
0
 26
0
 36
1
 17
0
 27
0
 37
0
 40
797.4022667202381
 41
1.811013767209011
 42
50
 43
0
 44
0
 50
0
 51
0
 71
    0
 72
  100
 73
    1
 74
    3
 75
    0
 76
    1
 77
    0
 78
    0
281
    0
 65
    1
110
0
120
0
130
0
111
1
121
0
131
0
112
0
122
1
132
0
 79
    0
146
0
348
10020
 60
    7
 61
    5
292
1
282
    1
141
0
142
0
 63
  250
421
3358443
  0
ENDTAB
  0
TABLE
  2
LTYPE
  5
5
330
0
100
AcDbSymbolTable
 70
    4
  0
LTYPE
  5
14
330
5
100
AcDbSymbolTableRecord
100
AcDbLinetypeTableRecord
  2
ByBlock
 70
    0
  3

 72
   65
 73
    0
 40
0
  0
LTYPE
  5
15
330
5
100
AcDbSymbolTableRecord
100
AcDbLinetypeTableRecord
  2
ByLayer
 70
    0
  3

 72
   65
 73
    0
 40
0
  0
LTYPE
  5
16
330
5
100
AcDbSymbolTableRecord
100
AcDbLinetypeTableRecord
  2
Continuous
 70
    0
  3
Solid line
 72
   65
 73
    0
 40
0
  0
LTYPE
  5
32
330
5
100
AcDbSymbolTableRecord
100
AcDbLinetypeTableRecord
  2
DOT
 70
    0
  3
Dot . . . . . . . . . . . . . . . . . . . . . .
 72
   65
 73
    2
 40
6.35
 49
0
 74
    0
 49
-6.35
 74
    0
  0
LTYPE
  5
33
330
5
100
AcDbSymbolTableRecord
100
AcDbLinetypeTableRecord
  2
DOTTINY
 70
    0
  3
Dot (.15x) .....................................
 72
   65
 73
    2
 40
0.9525
 49
0
 74
    0
 49
-0.9525
 74
    0
  0
LTYPE
  5
34
330
5
100
AcDbSymbolTableRecord
100
AcDbLinetypeTableRecord
  2
DOT2
 70
    0
  3
Dot (.5x) .....................................
 72
   65
 73
    2
 40
3.175
 49
0
 74
    0
 49
-3.175
 74
    0
  0
LTYPE
  5
35
330
5
100
AcDbSymbolTableRecord
100
AcDbLinetypeTableRecord
  2
DOTX2
 70
    0
  3
Dot (2x) .  .  .  .  .  .  .  .  .  .  .  .  .
 72
   65
 73
    2
 40
12.7
 49
0
 74
    0
 49
-12.7
 74
    0
  0
LTYPE
  5
36
330
5
100
AcDbSymbolTableRecord
100
AcDbLinetypeTableRecord
  2
DASHED
 70
    0
  3
Dashed _ _ _ _ _ _ _ _ _ _ _ _ _ _ _ _ _
 72
   65
 73
    2
 40
19.05
 49
12.7
 74
    0
 49
-6.35
 74
    0
  0
LTYPE
  5
37
330
5
100
AcDbSymbolTableRecord
100
AcDbLinetypeTableRecord
  2
DASHEDTINY
 70
    0
  3
Dashed (.15x) _ _ _ _ _ _ _ _ _ _ _ _ _ _ _ _ _
 72
   65
 73
    2
 40
2.8575
 49
1.905
 74
    0
 49
-0.9525
 74
    0
  0
LTYPE
  5
38
330
5
100
AcDbSymbolTableRecord
100
AcDbLinetypeTableRecord
  2
DASHED2
 70
    0
  3
Dashed (.5x) _ _ _ _ _ _ _ _ _ _ _ _ _ _ _ _ _
 72
   65
 73
    2
 40
9.524999999999999
 49
6.35
 74
    0
 49
-3.175
 74
    0
  0
LTYPE
  5
39
330
5
100
AcDbSymbolTableRecord
100
AcDbLinetypeTableRecord
  2
DASHEDX2
 70
    0
  3
Dashed (2x) ____  ____  ____  ____  ____  ___
 72
   65
 73
    2
 40
38.09999999999999
 49
25.4
 74
    0
 49
-12.7
 74
    0
  0
LTYPE
  5
3A
330
5
100
AcDbSymbolTableRecord
100
AcDbLinetypeTableRecord
  2
DASHDOT
 70
    0
  3
Dash dot __ . __ . __ . __ . __ . __ . __ . __
 72
   65
 73
    4
 40
25.4
 49
12.7
 74
    0
 49
-6.35
 74
    0
 49
0
 74
    0
 49
-6.35
 74
    0
  0
LTYPE
  5
3B
330
5
100
AcDbSymbolTableRecord
100
AcDbLinetypeTableRecord
  2
DASHDOTTINY
 70
    0
  3
Dash dot (.15x) _._._._._._._._._._._._._._._.
 72
   65
 73
    4
 40
3.81
 49
1.905
 74
    0
 49
-0.9525
 74
    0
 49
0
 74
    0
 49
-0.9525
 74
    0
  0
LTYPE
  5
3C
330
5
100
AcDbSymbolTableRecord
100
AcDbLinetypeTableRecord
  2
DASHDOT2
 70
    0
  3
Dash dot (.5x) _._._._._._._._._._._._._._._.
 72
   65
 73
    4
 40
12.7
 49
6.35
 74
    0
 49
-3.175
 74
    0
 49
0
 74
    0
 49
-3.175
 74
    0
  0
LTYPE
  5
3D
330
5
100
AcDbSymbolTableRecord
100
AcDbLinetypeTableRecord
  2
DASHDOTX2
 70
    0
  3
Dash dot (2x) ____  .  ____  .  ____  .  ___
 72
   65
 73
    4
 40
50.8
 49
25.4
 74
    0
 49
-12.7
 74
    0
 49
0
 74
    0
 49
-12.7
 74
    0
  0
LTYPE
  5
3E
330
5
100
AcDbSymbolTableRecord
100
AcDbLinetypeTableRecord
  2
DIVIDE
 70
    0
  3
Divide ____ . . ____ . . ____ . . ____ . . ____
 72
   65
 73
    6
 40
31.75
 49
12.7
 74
    0
 49
-6.35
 74
    0
 49
0
 74
    0
 49
-6.35
 74
    0
 49
0
 74
    0
 49
-6.35
 74
    0
  0
LTYPE
  5
3F
330
5
100
AcDbSymbolTableRecord
100
AcDbLinetypeTableRecord
  2
DIVIDETINY
 70
    0
  3
Divide (.15x) __..__..__..__..__..__..__..__.._
 72
   65
 73
    6
 40
4.7625
 49
1.905
 74
    0
 49
-0.9525
 74
    0
 49
0
 74
    0
 49
-0.9525
 74
    0
 49
0
 74
    0
 49
-0.9525
 74
    0
  0
LTYPE
  5
40
330
5
100
AcDbSymbolTableRecord
100
AcDbLinetypeTableRecord
  2
DIVIDE2
 70
    0
  3
Divide (.5x) __..__..__..__..__..__..__..__.._
 72
   65
 73
    6
 40
15.875
 49
6.35
 74
    0
 49
-3.175
 74
    0
 49
0
 74
    0
 49
-3.175
 74
    0
 49
0
 74
    0
 49
-3.175
 74
    0
  0
LTYPE
  5
41
330
5
100
AcDbSymbolTableRecord
100
AcDbLinetypeTableRecord
  2
DIVIDEX2
 70
    0
  3
Divide (2x) ________  .  .  ________  .  .  _
 72
   65
 73
    6
 40
63.5
 49
25.4
 74
    0
 49
-12.7
 74
    0
 49
0
 74
    0
 49
-12.7
 74
    0
 49
0
 74
    0
 49
-12.7
 74
    0
  0
LTYPE
  5
42
330
5
100
AcDbSymbolTableRecord
100
AcDbLinetypeTableRecord
  2
BORDER
 70
    0
  3
Border __ __ . __ __ . __ __ . __ __ . __ __ .
 72
   65
 73
    6
 40
44.45
 49
12.7
 74
    0
 49
-6.35
 74
    0
 49
12.7
 74
    0
 49
-6.35
 74
    0
 49
0
 74
    0
 49
-6.35
 74
    0
  0
LTYPE
  5
43
330
5
100
AcDbSymbolTableRecord
100
AcDbLinetypeTableRecord
  2
BORDERTINY
 70
    0
  3
Border (.15x) __.__.__.__.__.__.__.__.__.__.__.
 72
   65
 73
    6
 40
6.6675
 49
1.905
 74
    0
 49
-0.9525
 74
    0
 49
1.905
 74
    0
 49
-0.9525
 74
    0
 49
0
 74
    0
 49
-0.9525
 74
    0
  0
LTYPE
  5
44
330
5
100
AcDbSymbolTableRecord
100
AcDbLinetypeTableRecord
  2
BORDER2
 70
    0
  3
Border (.5x) __.__.__.__.__.__.__.__.__.__.__.
 72
   65
 73
    6
 40
22.225
 49
6.35
 74
    0
 49
-3.175
 74
    0
 49
6.35
 74
    0
 49
-3.175
 74
    0
 49
0
 74
    0
 49
-3.175
 74
    0
  0
LTYPE
  5
45
330
5
100
AcDbSymbolTableRecord
100
AcDbLinetypeTableRecord
  2
BORDERX2
 70
    0
  3
Border (2x) ____  ____  .  ____  ____  .  ___
 72
   65
 73
    6
 40
88.89999999999999
 49
25.4
 74
    0
 49
-12.7
 74
    0
 49
25.4
 74
    0
 49
-12.7
 74
    0
 49
0
 74
    0
 49
-12.7
 74
    0
  0
LTYPE
  5
46
330
5
100
AcDbSymbolTableRecord
100
AcDbLinetypeTableRecord
  2
CENTER
 70
    0
  3
Center ____ _ ____ _ ____ _ ____ _ ____ _ ____
 72
   65
 73
    4
 40
50.8
 49
31.75
 74
    0
 49
-6.35
 74
    0
 49
6.35
 74
    0
 49
-6.35
 74
    0
  0
LTYPE
  5
47
330
5
100
AcDbSymbolTableRecord
100
AcDbLinetypeTableRecord
  2
CENTERTINY
 70
    0
  3
Center (.15x) ___ _ ___ _ ___ _ ___ _ ___ _ ___
 72
   65
 73
    4
 40
7.619999999999999
 49
4.7625
 74
    0
 49
-0.9525
 74
    0
 49
0.9525
 74
    0
 49
-0.9525
 74
    0
  0
LTYPE
  5
48
330
5
100
AcDbSymbolTableRecord
100
AcDbLinetypeTableRecord
  2
CENTER2
 70
    0
  3
Center (.5x) ___ _ ___ _ ___ _ ___ _ ___ _ ___
 72
   65
 73
    4
 40
28.575
 49
19.05
 74
    0
 49
-3.175
 74
    0
 49
3.175
 74
    0
 49
-3.175
 74
    0
  0
LTYPE
  5
49
330
5
100
AcDbSymbolTableRecord
100
AcDbLinetypeTableRecord
  2
CENTERX2
 70
    0
  3
Center (2x) ________  __  ________  __  _____
 72
   65
 73
    4
 40
101.6
 49
63.5
 74
    0
 49
-12.7
 74
    0
 49
12.7
 74
    0
 49
-12.7
 74
    0
  0
ENDTAB
  0
TABLE
  2
LAYER
  5
2
330
0
100
AcDbSymbolTable
 70
    1
  0
LAYER
  5
10
330
2
100
AcDbSymbolTableRecord
100
AcDbLayerTableRecord
  2
0
 70
    0
 62
    7
  6
CONTINUOUS
370
    0
390
F
  0
LAYER
  5
4A
330
2
100
AcDbSymbolTableRecord
100
AcDbLayerTableRecord
  2
DIMENSIONS
 70
    0
 62
    1
  6
CONTINUOUS
370
    0
390
F
  0
ENDTAB
  0
TABLE
  2
STYLE
  5
3
330
0
100
AcDbSymbolTable
 70
    3
  0
STYLE
  5
4B
330
2
100
AcDbSymbolTableRecord
100
AcDbTextStyleTableRecord
  2
Standard
 70
    0
 40
0
 41
1
 50
0
 71
    0
 42
1
  3
txt
  4

  0
ENDTAB
  0
TABLE
  2
VIEW
  5
6
330
0
100
AcDbSymbolTable
 70
    0
  0
ENDTAB
  0
TABLE
  2
UCS
  5
7
330
0
100
AcDbSymbolTable
 70
    0
  0
ENDTAB
  0
TABLE
  2
APPID
  5
9
330
0
100
AcDbSymbolTable
 70
    1
  0
APPID
  5
12
330
9
100
AcDbSymbolTableRecord
100
AcDbRegAppTableRecord
  2
ACAD
 70
    0
  0
APPID
  5
4C
330
9
100
AcDbSymbolTableRecord
100
AcDbRegAppTableRecord
  2
LibreCad
 70
    0
  0
ENDTAB
  0
TABLE
  2
DIMSTYLE
  5
A
330
0
100
AcDbSymbolTable
 70
    1
100
AcDbDimStyleTable
 71
    1
  0
DIMSTYLE
105
4D
330
A
100
AcDbSymbolTableRecord
100
AcDbDimStyleTableRecord
  2
Standard
 70
    0
 40
1
 41
15
 42
0.625
 43
0.38
 44
1.25
 45
0
 46
0
 47
0
 48
0
 49
1
140
25
141
0.09
142
0
143
25.4
144
1
145
0
146
1
147
5
148
0
 71
    0
 72
    0
 73
    0
 74
    1
 75
    0
 76
    0
 77
    0
 78
    1
 79
    0
170
    0
171
    2
172
    0
173
    0
174
    0
175
    0
176
    0
177
    0
178
    0
179
    2
271
    0
272
    4
273
    2
274
    2
275
    0
276
    0
277
    2
278
    0
279
    0
280
    0
281
    0
282
    0
283
    1
284
    0
285
    0
286
    0
288
    0
289
    3
340
standard
341

371
   -2
372
   -2
  0
ENDTAB
  0
TABLE
  2
BLOCK_RECORD
  5
1
330
0
100
AcDbSymbolTable
 70
    2
  0
BLOCK_RECORD
  5
1F
330
1
100
AcDbSymbolTableRecord
100
AcDbBlockTableRecord
  2
*Model_Space
 70
    0
280
    1
281
    0
  0
BLOCK_RECORD
  5
1E
330
1
100
AcDbSymbolTableRecord
100
AcDbBlockTableRecord
  2
*Paper_Space
 70
    0
280
    1
281
    0
  0
BLOCK_RECORD
  5
4E
330
1
100
AcDbSymbolTableRecord
100
AcDbBlockTableRecord
  2
*D4
 70
    0
280
    1
281
    0
  0
BLOCK_RECORD
  5
51
330
1
100
AcDbSymbolTableRecord
100
AcDbBlockTableRecord
  2
*D8
 70
    0
280
    1
281
    0
  0
BLOCK_RECORD
  5
54
330
1
100
AcDbSymbolTableRecord
100
AcDbBlockTableRecord
  2
*D7
 70
    0
280
    1
281
    0
  0
BLOCK_RECORD
  5
57
330
1
100
AcDbSymbolTableRecord
100
AcDbBlockTableRecord
  2
*D6
 70
    0
280
    1
281
    0
  0
BLOCK_RECORD
  5
5A
330
1
100
AcDbSymbolTableRecord
100
AcDbBlockTableRecord
  2
*D1
 70
    0
280
    1
281
    0
  0
BLOCK_RECORD
  5
5D
330
1
100
AcDbSymbolTableRecord
100
AcDbBlockTableRecord
  2
*D2
 70
    0
280
    1
281
    0
  0
BLOCK_RECORD
  5
60
330
1
100
AcDbSymbolTableRecord
100
AcDbBlockTableRecord
  2
*D5
 70
    0
280
    1
281
    0
  0
BLOCK_RECORD
  5
63
330
1
100
AcDbSymbolTableRecord
100
AcDbBlockTableRecord
  2
*D3
 70
    0
280
    1
281
    0
  0
ENDTAB
  0
ENDSEC
  0
SECTION
  2
BLOCKS
  0
BLOCK
  5
20
330
1F
100
AcDbEntity
  8
0
100
AcDbBlockBegin
  2
*Model_Space
 70
    0
 10
0
 20
0
 30
0
  3
*Model_Space
  1

  0
ENDBLK
  5
21
330
1F
100
AcDbEntity
  8
0
100
AcDbBlockEnd
  0
BLOCK
  5
1C
330
1B
100
AcDbEntity
  8
0
100
AcDbBlockBegin
  2
*Paper_Space
 70
    0
 10
0
 20
0
 30
0
  3
*Paper_Space
  1

  0
ENDBLK
  5
1D
330
1F
100
AcDbEntity
  8
0
100
AcDbBlockEnd
  0
BLOCK
  5
4F
330
4E
100
AcDbEntity
  8
0
100
AcDbBlockBegin
  2
*D4
 70
    1
 10
0
 20
0
  3
*D4
  1

  0
LINE
  5
66
100
AcDbEntity
  8
DIMENSIONS
  6
ByBlock
 62
    0
370
   -2
100
AcDbLine
 10
0.4419417382415926
 20
136.9135505072454
 11
122.6480790919814
 21
259.119687860985
  0
LINE
  5
67
100
AcDbEntity
  8
DIMENSIONS
  6
ByBlock
 62
    0
370
   -2
100
AcDbLine
 10
136.9135505072453
 20
0.4419417382415801
 11
259.1196878609852
 21
122.6480790919812
  0
LINE
  5
68
100
AcDbEntity
  8
DIMENSIONS
  6
ByBlock
 62
    0
370
   -2
100
AcDbLine
 10
121.7641956154982
 20
258.2358043845019
 11
258.235804384502
 21
121.764195615498
  0
MTEXT
  5
69
100
AcDbEntity
  8
DIMENSIONS
  6
CONTINUOUS
 62
    0
370
   -2
100
AcDbMText
 10
202.3743686707647
 20
202.3743686707645
 30
0
 40
25
 41
44.444444444446
 71
    5
 72
    1
  1
193
  7
standard
210
0
220
0
230
1
 50
314.9999999999999
 73
    2
 44
1
  0
SOLID
  5
6A
100
AcDbEntity
  8
DIMENSIONS
  6
ByBlock
 62
    0
370
   -2
100
AcDbTrace
 10
121.7641956154982
 20
258.2358043845019
 30
0
 11
134.136943559787
 21
249.3953488931942
 31
0
 12
130.6046511068059
 22
245.8630564402131
 32
0
 13
130.6046511068059
 23
245.8630564402131
 33
0
  0
SOLID
  5
6B
100
AcDbEntity
  8
DIMENSIONS
  6
ByBlock
 62
    0
370
   -2
100
AcDbTrace
 10
258.235804384502
 20
121.764195615498
 30
0
 11
245.8630564402132
 21
130.6046511068056
 31
0
 12
249.3953488931944
 22
134.1369435597868
 32
0
 13
249.3953488931944
 23
134.1369435597868
 33
0
  0
ENDBLK
  5
50
330
4E
100
AcDbEntity
  8
0
100
AcDbBlockEnd
  0
BLOCK
  5
52
330
51
100
AcDbEntity
  8
0
100
AcDbBlockBegin
  2
*D8
 70
    1
 10
0
 20
0
  3
*D8
  1

  0
LINE
  5
6C
100
AcDbEntity
  8
DIMENSIONS
  6
ByBlock
 62
    0
370
   -2
100
AcDbLine
 10
-23.33452377915632
 20
69.80613254815988
 11
23.33452377915586
 21
23.13708498984778
  0
MTEXT
  5
6D
100
AcDbEntity
  8
DIMENSIONS
  6
CONTINUOUS
 62
    0
370
   -2
100
AcDbMText
 10
21.95959392684922
 20
49.26075218368356
 30
0
 40
25
 41
11.11111111111266
 71
    5
 72
    1
  1
6
  7
standard
210
0
220
0
230
1
 50
315.0000000000001
 73
    2
 44
1
  0
SOLID
  5
6E
100
AcDbEntity
  8
DIMENSIONS
  6
ByBlock
 62
    0
370
   -2
100
AcDbTrace
 10
-2.121320343559873
 20
48.59292911256347
 30
0
 11
-14.49406828784867
 21
57.43338460387109
 31
0
 12
-10.96177583486751
 22
60.96567705685226
 32
0
 13
-10.96177583486751
 23
60.96567705685226
 33
0
  0
SOLID
  5
6F
100
AcDbEntity
  8
DIMENSIONS
  6
ByBlock
 62
    0
370
   -2
100
AcDbTrace
 10
2.121320343559418
 20
44.35028842544418
 30
0
 11
14.49406828784822
 21
35.50983293413656
 31
0
 12
10.96177583486706
 22
31.9775404811554
 32
0
 13
10.96177583486706
 23
31.9775404811554
 33
0
  0
ENDBLK
  5
53
330
51
100
AcDbEntity
  8
0
100
AcDbBlockEnd
  0
BLOCK
  5
55
330
54
100
AcDbEntity
  8
0
100
AcDbBlockBegin
  2
*D7
 70
    1
 10
0
 20
0
  3
*D7
  1

  0
LINE
  5
70
100
AcDbEntity
  8
DIMENSIONS
  6
ByBlock
 62
    0
370
   -2
100
AcDbLine
 10
67.97063934155686
 20
69.38485290393011
 11
125.1767766952975
 21
126.590990257669
  0
LINE
  5
71
100
AcDbEntity
  8
DIMENSIONS
  6
ByBlock
 62
    0
370
   -2
100
AcDbLine
 10
69.38485290393007
 20
67.97063934155686
 11
126.5909902576707
 21
125.1767766952958
  0
LINE
  5
72
100
AcDbEntity
  8
DIMENSIONS
  6
ByBlock
 62
    0
370
   -2
100
AcDbLine
 10
103.0796897832184
 20
146.9203102167827
 11
146.9203102167835
 21
103.0796897832157
  0
MTEXT
  5
73
100
AcDbEntity
  8
DIMENSIONS
  6
CONTINUOUS
 62
    0
370
   -2
100
AcDbMText
 10
145.5453803644769
 20
129.2033569770521
 30
0
 40
25
 41
11.11111111111111
 71
    5
 72
    1
  1
2
  7
standard
210
0
220
0
230
1
 50
314.9999999999988
 73
    2
 44
1
  0
SOLID
  5
74
100
AcDbEntity
  8
DIMENSIONS
  6
ByBlock
 62
    0
370
   -2
100
AcDbTrace
 10
124.2928932188144
 20
125.7071067811858
 30
0
 11
111.9201452745258
 21
134.5475622724937
 31
0
 12
115.452437727507
 22
138.0798547254748
 32
0
 13
115.452437727507
 23
138.0798547254748
 33
0
  0
SOLID
  5
75
100
AcDbEntity
  8
DIMENSIONS
  6
ByBlock
 62
    0
370
   -2
100
AcDbTrace
 10
125.7071067811875
 20
124.2928932188126
 30
0
 11
138.0798547254762
 21
115.4524377275047
 31
0
 12
134.5475622724949
 22
111.9201452745236
 32
0
 13
134.5475622724949
 23
111.9201452745236
 33
0
  0
ENDBLK
  5
56
330
54
100
AcDbEntity
  8
0
100
AcDbBlockEnd
  0
BLOCK
  5
58
330
57
100
AcDbEntity
  8
0
100
AcDbBlockBegin
  2
*D6
 70
    1
 10
0
 20
0
  3
*D6
  1

  0
LINE
  5
76
100
AcDbEntity
  8
DIMENSIONS
  6
ByBlock
 62
    0
370
   -2
100
AcDbLine
 10
-245
 20
-349.9999999999999
 11
245
 21
-349.9999999999999
  0
MTEXT
  5
77
100
AcDbEntity
  8
DIMENSIONS
  6
CONTINUOUS
 62
    0
370
   -2
100
AcDbMText
 10
1.071565949253934e-15
 20
-332.4999999999999
 30
0
 40
25
 41
52.77777777777777
 71
    5
 72
    1
  1
490
  7
standard
210
0
220
0
230
1
 50
0
 73
    2
 44
1
  0
SOLID
  5
78
100
AcDbEntity
  8
DIMENSIONS
  6
ByBlock
 62
    0
370
   -2
100
AcDbTrace
 10
-245
 20
-349.9999999999999
 30
0
 11
-230
 21
-347.5022920533629
 31
0
 12
-230
 22
-352.497707946637
 32
0
 13
-230
 23
-352.497707946637
 33
0
  0
SOLID
  5
79
100
AcDbEntity
  8
DIMENSIONS
  6
ByBlock
 62
    0
370
   -2
100
AcDbTrace
 10
245
 20
-349.9999999999999
 30
0
 11
230
 21
-352.497707946637
 31
0
 12
230
 22
-347.5022920533629
 32
0
 13
230
 23
-347.5022920533629
 33
0
  0
LINE
  5
7A
100
AcDbEntity
  8
DIMENSIONS
  6
ByBlock
 62
    0
370
   -2
100
AcDbLine
 10
-245
 20
-0.624999999999865
 11
-245
 21
-351.2499999999999
  0
LINE
  5
7B
100
AcDbEntity
  8
DIMENSIONS
  6
ByBlock
 62
    0
370
   -2
100
AcDbLine
 10
245
 20
-0.625000000000045
 11
245
 21
-351.2499999999999
  0
ENDBLK
  5
59
330
57
100
AcDbEntity
  8
0
100
AcDbBlockEnd
  0
BLOCK
  5
5B
330
5A
100
AcDbEntity
  8
0
100
AcDbBlockBegin
  2
*D1
 70
    1
 10
0
 20
0
  3
*D1
  1

  0
LINE
  5
7C
100
AcDbEntity
  8
DIMENSIONS
  6
ByBlock
 62
    0
370
   -2
100
AcDbLine
 10
59.39696961967513
 20
-195.8685783886789
 11
-59.39696961967514
 21
-77.07463914932856
  0
MTEXT
  5
7D
100
AcDbEntity
  8
DIMENSIONS
  6
CONTINUOUS
 62
    0
370
   -2
100
AcDbMText
 10
12.37436867076458
 20
-124.0972400982391
 30
0
 40
25
 41
44.44444444444599
 71
    5
 72
    1
  1
168
  7
standard
210
0
220
0
230
1
 50
315
 73
    2
 44
1
  0
SOLID
  5
7E
100
AcDbEntity
  8
DIMENSIONS
  6
ByBlock
 62
    0
370
   -2
100
AcDbTrace
 10
59.39696961967513
 20
-195.8685783886789
 30
0
 11
47.02422167538634
 21
-187.0281228973712
 31
0
 12
50.5565141283675
 22
-183.4958304443901
 32
0
 13
50.5565141283675
 23
-183.4958304443901
 33
0
  0
SOLID
  5
7F
100
AcDbEntity
  8
DIMENSIONS
  6
ByBlock
 62
    0
370
   -2
100
AcDbTrace
 10
-59.39696961967514
 20
-77.07463914932856
 30
0
 11
-47.02422167538635
 21
-85.9150946406362
 31
0
 12
-50.55651412836751
 22
-89.44738709361735
 32
0
 13
-50.55651412836751
 23
-89.44738709361735
 33
0
  0
ENDBLK
  5
5C
330
5A
100
AcDbEntity
  8
0
100
AcDbBlockEnd
  0
BLOCK
  5
5E
330
5D
100
AcDbEntity
  8
0
100
AcDbBlockBegin
  2
*D2
 70
    1
 10
0
 20
0
  3
*D2
  1

  0
LINE
  5
80
100
AcDbEntity
  8
DIMENSIONS
  6
ByBlock
 62
    0
370
   -2
100
AcDbLine
 10
24.74873734152916
 20
-24.74873734152917
 11
-24.74873734152916
 21
24.74873734152917
  0
MTEXT
  5
81
100
AcDbEntity
  8
DIMENSIONS
  6
CONTINUOUS
 62
    0
370
   -2
100
AcDbMText
 10
28.28427124746189
 20
-3.535533905932743
 30
0
 40
25
 41
25
 71
    5
 72
    1
  1
10
  7
standard
210
0
220
0
230
1
 50
315
 73
    2
 44
1
  0
SOLID
  5
82
100
AcDbEntity
  8
DIMENSIONS
  6
ByBlock
 62
    0
370
   -2
100
AcDbTrace
 10
3.535533905932737
 20
-3.535533905932739
 30
0
 11
15.90828185022153
 21
-12.37598939724037
 31
0
 12
12.37598939724037
 22
-15.90828185022153
 32
0
 13
12.37598939724037
 23
-15.90828185022153
 33
0
  0
SOLID
  5
83
100
AcDbEntity
  8
DIMENSIONS
  6
ByBlock
 62
    0
370
   -2
100
AcDbTrace
 10
-3.535533905932737
 20
3.535533905932738
 30
0
 11
-15.90828185022153
 21
12.37598939724037
 31
0
 12
-12.37598939724037
 22
15.90828185022153
 32
0
 13
-12.37598939724037
 23
15.90828185022153
 33
0
  0
ENDBLK
  5
5F
330
5D
100
AcDbEntity
  8
0
100
AcDbBlockEnd
  0
BLOCK
  5
61
330
60
100
AcDbEntity
  8
0
100
AcDbBlockBegin
  2
*D5
 70
    1
 10
0
 20
0
  3
*D5
  1

  0
LINE
  5
84
100
AcDbEntity
  8
DIMENSIONS
  6
ByBlock
 62
    0
370
   -2
100
AcDbLine
 10
-136.4716087690038
 20
-300
 11
136.4716087690038
 21
-300
  0
MTEXT
  5
85
100
AcDbEntity
  8
DIMENSIONS
  6
CONTINUOUS
 62
    0
370
   -2
100
AcDbMText
 10
1.071565949253934e-15
 20
-282.5
 30
0
 40
25
 41
50.00000000000155
 71
    5
 72
    1
  1
273
  7
standard
210
0
220
0
230
1
 50
0
 73
    2
 44
1
  0
SOLID
  5
86
100
AcDbEntity
  8
DIMENSIONS
  6
ByBlock
 62
    0
370
   -2
100
AcDbTrace
 10
-136.4716087690038
 20
-300
 30
0
 11
-121.4716087690038
 21
-297.502292053363
 31
0
 12
-121.4716087690038
 22
-302.497707946637
 32
0
 13
-121.4716087690038
 23
-302.497707946637
 33
0
  0
SOLID
  5
87
100
AcDbEntity
  8
DIMENSIONS
  6
ByBlock
 62
    0
370
   -2
100
AcDbTrace
 10
136.4716087690038
 20
-300
 30
0
 11
121.4716087690038
 21
-302.497707946637
 31
0
 12
121.4716087690038
 22
-297.502292053363
 32
0
 13
121.4716087690038
 23
-297.502292053363
 33
0
  0
LINE
  5
88
100
AcDbEntity
  8
DIMENSIONS
  6
ByBlock
 62
    0
370
   -2
100
AcDbLine
 10
-136.4716087690038
 20
-0.6249999999999548
 11
-136.4716087690038
 21
-301.25
  0
LINE
  5
89
100
AcDbEntity
  8
DIMENSIONS
  6
ByBlock
 62
    0
370
   -2
100
AcDbLine
 10
136.4716087690038
 20
-0.6250000000000117
 11
136.4716087690038
 21
-301.25
  0
ENDBLK
  5
62
330
60
100
AcDbEntity
  8
0
100
AcDbBlockEnd
  0
BLOCK
  5
64
330
63
100
AcDbEntity
  8
0
100
AcDbBlockBegin
  2
*D3
 70
    1
 10
0
 20
0
  3
*D3
  1

  0
LINE
  5
8A
100
AcDbEntity
  8
DIMENSIONS
  6
ByBlock
 62
    0
370
   -2
100
AcDbLine
 10
-72.83199846221484
 20
-63.63961030678888
 11
-200.1112190757927
 21
63.63961030678897
  0
MTEXT
  5
8B
100
AcDbEntity
  8
DIMENSIONS
  6
CONTINUOUS
 62
    0
370
   -2
100
AcDbMText
 10
-124.0972400982392
 20
12.37436867076462
 30
0
 40
25
 41
44.44444444444444
 71
    5
 72
    1
  1
180
  7
standard
210
0
220
0
230
1
 50
315
 73
    2
 44
1
  0
SOLID
  5
8C
100
AcDbEntity
  8
DIMENSIONS
  6
ByBlock
 62
    0
370
   -2
100
AcDbTrace
 10
-72.83199846221484
 20
-63.63961030678888
 30
0
 11
-85.20474640650363
 21
-54.79915481548124
 31
0
 12
-81.67245395352248
 22
-51.26686236250008
 32
0
 13
-81.67245395352248
 23
-51.26686236250008
 33
0
  0
SOLID
  5
8D
100
AcDbEntity
  8
DIMENSIONS
  6
ByBlock
 62
    0
370
   -2
100
AcDbTrace
 10
-200.1112190757927
 20
63.63961030678897
 30
0
 11
-187.7384711315039
 21
54.79915481548133
 31
0
 12
-191.270763584485
 22
51.26686236250018
 32
0
 13
-191.270763584485
 23
51.26686236250018
 33
0
  0
ENDBLK
  5
65
330
63
100
AcDbEntity
  8
0
100
AcDbBlockEnd
  0
ENDSEC
  0
SECTION
  2
ENTITIES
  0
ARC
  5
8E
100
AcDbEntity
  8
0
  6
ByLayer
 62
  256
370
   -1
100
AcDbCircle
 10
0
 20
244.9999999999998
 40
4.999999999999841
100
AcDbArc
 50
180.5846609577916
 51
359.4153390422085
  0
ARC
  5
8F
100
AcDbEntity
  8
0
  6
ByLayer
 62
  256
370
   -1
100
AcDbCircle
 10
245
 20
-4.50057698686652e-14
 40
4.999999999999841
100
AcDbArc
 50
90.58466095779154
 51
269.4153390422085
  0
ARC
  5
90
100
AcDbEntity
  8
0
  6
ByLayer
 62
  256
370
   -1
100
AcDbCircle
 10
0
 20
-244.9999999999998
 40
4.999999999999841
100
AcDbArc
 50
0.5846609577915939
 51
179.4153390422084
  0
ARC
  5
91
100
AcDbEntity
  8
0
  6
ByLayer
 62
  256
370
   -1
100
AcDbCircle
 10
-245
 20
1.350173096059956e-13
 40
4.999999999999841
100
AcDbArc
 50
270.5846609577915
 51
89.4153390422085
  0
ARC
  5
92
100
AcDbEntity
  8
0
  6
ByLayer
 62
  256
370
   -1
100
AcDbCircle
 10
0
 20
-3.854694341498544e-13
 40
245.0000000000004
100
AcDbArc
 50
91.1693219155872
 51
178.8306780844126
  0
ARC
  5
93
100
AcDbEntity
  8
0
  6
ByLayer
 62
  256
370
   -1
100
AcDbCircle
 10
0
 20
-3.854694341498544e-13
 40
245.0000000000004
100
AcDbArc
 50
1.169321915587208
 51
88.83067808441264
  0
ARC
  5
94
100
AcDbEntity
  8
0
  6
ByLayer
 62
  256
370
   -1
100
AcDbCircle
 10
0
 20
-3.854694341498544e-13
 40
245.0000000000004
100
AcDbArc
 50
271.1693219155871
 51
358.8306780844126
  0
ARC
  5
95
100
AcDbEntity
  8
0
  6
ByLayer
 62
  256
370
   -1
100
AcDbCircle
 10
0
 20
-3.854694341498544e-13
 40
245.0000000000004
100
AcDbArc
 50
181.1693219155873
 51
268.8306780844126
  0
CIRCLE
  5
96
100
AcDbEntity
  8
0
  6
ByLayer
 62
  256
370
   -1
100
AcDbCircle
 10
-181.4716087690038
 20
-77.94228634059878
 40
3
  0
CIRCLE
  5
97
100
AcDbEntity
  8
0
  6
ByLayer
 62
  256
370
   -1
100
AcDbCircle
 10
-46.47160876900375
 20
2.725217173721829e-13
 40
3
  0
CIRCLE
  5
98
100
AcDbEntity
  8
0
  6
ByLayer
 62
  256
370
   -1
100
AcDbCircle
 10
-181.4716087690038
 20
77.9422863405993
 40
3
  0
CIRCLE
  5
99
100
AcDbEntity
  8
0
  6
ByLayer
 62
  256
370
   -1
100
AcDbCircle
 10
-136.4716087690038
 20
4.51480419289508e-14
 40
84.00000000000729
  0
CIRCLE
  5
9A
100
AcDbEntity
  8
0
  6
ByLayer
 62
  256
370
   -1
100
AcDbCircle
 10
77.94228634059891
 20
181.4716087690038
 40
3
  0
CIRCLE
  5
9B
100
AcDbEntity
  8
0
  6
ByLayer
 62
  256
370
   -1
100
AcDbCircle
 10
-2.273736754432321e-13
 20
46.47160876900382
 40
3
  0
CIRCLE
  5
9C
100
AcDbEntity
  8
0
  6
ByLayer
 62
  256
370
   -1
100
AcDbCircle
 10
-77.94228634059914
 20
181.4716087690039
 40
3
  0
CIRCLE
  5
9D
100
AcDbEntity
  8
0
  6
ByLayer
 62
  256
370
   -1
100
AcDbCircle
 10
0
 20
136.4716087690038
 40
84.00000000000729
  0
CIRCLE
  5
9E
100
AcDbEntity
  8
0
  6
ByLayer
 62
  256
370
   -1
100
AcDbCircle
 10
-77.94228634059868
 20
-181.4716087690037
 40
3
  0
CIRCLE
  5
9F
100
AcDbEntity
  8
0
  6
ByLayer
 62
  256
370
   -1
100
AcDbCircle
 10
2.273736754432321e-13
 20
-46.47160876900374
 40
3
  0
CIRCLE
  5
A0
100
AcDbEntity
  8
0
  6
ByLayer
 62
  256
370
   -1
100
AcDbCircle
 10
77.94228634059937
 20
-181.4716087690037
 40
3
  0
CIRCLE
  5
A1
100
AcDbEntity
  8
0
  6
ByLayer
 62
  256
370
   -1
100
AcDbCircle
 10
0
 20
-136.4716087690037
 40
84.00000000000729
  0
CIRCLE
  5
A2
100
AcDbEntity
  8
0
  6
ByLayer
 62
  256
370
   -1
100
AcDbCircle
 10
181.4716087690038
 20
77.94228634059895
 40
3
  0
CIRCLE
  5
A3
100
AcDbEntity
  8
0
  6
ByLayer
 62
  256
370
   -1
100
AcDbCircle
 10
46.47160876900375
 20
-2.248581976598873e-13
 40
3
  0
CIRCLE
  5
A4
100
AcDbEntity
  8
0
  6
ByLayer
 62
  256
370
   -1
100
AcDbCircle
 10
181.4716087690038
 20
-77.94228634059913
 40
3
  0
CIRCLE
  5
A5
100
AcDbEntity
  8
0
  6
ByLayer
 62
  256
370
   -1
100
AcDbCircle
 10
136.4716087690038
 20
-1.169537693185722e-14
 40
84.00000000000729
  0
DIMENSION
  5
A6
100
AcDbEntity
  8
DIMENSIONS
  6
ByLayer
 62
  256
370
   -1
100
AcDbDimension
  2
*D1
 10
59.39696961967513
 20
-195.8685783886789
 30
0
 11
12.37436867076458
 21
-124.0972400982391
 31
0
 70
   35
 71
    5
  3
Standard
 53
0
210
0
220
0
230
1
100
AcDbDiametricDimension
 15
-59.39696961967514
 25
-77.07463914932856
 35
0
 40
0
  0
DIMENSION
  5
A7
100
AcDbEntity
  8
DIMENSIONS
  6
ByLayer
 62
  256
370
   -1
100
AcDbDimension
  2
*D2
 10
3.535533905932737
 20
-3.535533905932739
 30
0
 11
12.37436867076458
 21
12.37436867076458
 31
0
 70
   35
 71
    5
  3
Standard
 53
0
210
0
220
0
230
1
100
AcDbDiametricDimension
 15
-3.535533905932737
 25
3.535533905932738
 35
0
 40
0
  0
CIRCLE
  5
A8
100
AcDbEntity
  8
DIMENSIONS
  6
ByLayer
 62
  256
370
   -1
100
AcDbCircle
 10
-136.4716087690038
 20
5.684341886080801e-14
 40
89.99999999999949
  0
DIMENSION
  5
A9
100
AcDbEntity
  8
DIMENSIONS
  6
ByLayer
 62
  256
370
   -1
100
AcDbDimension
  2
*D3
 10
-72.83199846221484
 20
-63.63961030678888
 30
0
 11
-124.0972400982392
 21
12.37436867076462
 31
0
 70
   35
 71
    5
  3
Standard
 53
0
210
0
220
0
230
1
100
AcDbDiametricDimension
 15
-200.1112190757927
 25
63.63961030678897
 35
0
 40
0
  0
DIMENSION
  5
AA
100
AcDbEntity
  8
DIMENSIONS
  6
ByLayer
 62
  256
370
   -1
100
AcDbDimension
  2
*D4
 10
258.235804384502
 20
121.764195615498
 30
0
 11
202.3743686707647
 21
202.3743686707645
 31
0
 70
   33
 71
    5
  3
Standard
 53
0
210
0
220
0
230
1
100
AcDbAlignedDimension
 13
0
 23
136.4716087690038
 33
0
 14
136.4716087690038
 24
-1.169537693185722e-14
 34
0
  0
DIMENSION
  5
AB
100
AcDbEntity
  8
DIMENSIONS
  6
ByLayer
 62
  256
370
   -1
100
AcDbDimension
  2
*D5
 10
150
 20
-300
 30
0
 11
1.071565949253934e-15
 21
-282.5
 31
0
 70
   32
 71
    5
  3
Standard
 53
0
210
0
220
0
230
1
100
AcDbAlignedDimension
 13
-136.4716087690038
 23
4.51480419289508e-14
 33
0
 14
136.4716087690038
 24
-1.169537693185722e-14
 34
0
100
AcDbRotatedDimension
  0
DIMENSION
  5
AC
100
AcDbEntity
  8
DIMENSIONS
  6
ByLayer
 62
  256
370
   -1
100
AcDbDimension
  2
*D6
 10
245
 20
-349.9999999999999
 30
0
 11
1.071565949253934e-15
 21
-332.4999999999999
 31
0
 70
   32
 71
    5
  3
Standard
 53
0
210
0
220
0
230
1
100
AcDbAlignedDimension
 13
-245
 23
1.350173096059956e-13
 33
0
 14
245
 24
-4.50057698686652e-14
 34
0
100
AcDbRotatedDimension
  0
LINE
  5
AD
100
AcDbEntity
  8
0
  6
ByLayer
 62
  256
370
   -1
100
AcDbLine
 10
-1.5
 20
4.769696007084728
 11
-1.5
 21
7
  0
LINE
  5
AE
100
AcDbEntity
  8
0
  6
ByLayer
 62
  256
370
   -1
100
AcDbLine
 10
-1.5
 20
7
 11
1.5
 21
7
  0
LINE
  5
AF
100
AcDbEntity
  8
0
  6
ByLayer
 62
  256
370
   -1
100
AcDbLine
 10
1.5
 20
7
 11
1.500000000000001
 21
4.769696007084728
  0
ARC
  5
B0
100
AcDbEntity
  8
0
  6
ByLayer
 62
  256
370
   -1
100
AcDbCircle
 10
-1.110223024625157e-15
 20
8.881784197001252e-16
 40
5
100
AcDbArc
 50
107.4576031237221
 51
72.54239687627789
  0
CIRCLE
  5
B1
100
AcDbEntity
  8
DIMENSIONS
  6
ByLayer
 62
  256
370
   -1
100
AcDbCircle
 10
0
 20
136.4716087690038
 40
95.5
  0
CIRCLE
  5
B2
100
AcDbEntity
  8
DIMENSIONS
  6
ByLayer
 62
  256
370
   -1
100
AcDbCircle
 10
136.4716087690038
 20
-1.169537693185722e-14
 40
95.5
  0
DIMENSION
  5
B3
100
AcDbEntity
  8
DIMENSIONS
  6
ByLayer
 62
  256
370
   -1
100
AcDbDimension
  2
*D7
 10
125.7071067811875
 20
124.2928932188126
 30
0
 11
137.3743686707658
 21
137.3743686707635
 31
0
 70
   33
 71
    5
  3
Standard
 53
0
210
0
220
0
230
1
100
AcDbAlignedDimension
 13
67.52869760331527
 23
68.94291116568853
 33
0
 14
68.94291116568847
 24
67.52869760331528
 34
0
  0
DIMENSION
  5
B4
100
AcDbEntity
  8
DIMENSIONS
  6
ByLayer
 62
  256
370
   -1
100
AcDbDimension
  2
*D8
 10
-2.121320343559873
 20
48.59292911256347
 30
0
 11
12.37436867076435
 21
58.84597743976842
 31
0
 70
   35
 71
    5
  3
Standard
 53
0
210
0
220
0
230
1
100
AcDbDiametricDimension
 15
2.121320343559418
 25
44.35028842544418
 35
0
 40
0
  0
ENDSEC
  0
SECTION
  2
OBJECTS
  0
DICTIONARY
  5
C
330
0
100
AcDbDictionary
281
    1
  3
ACAD_GROUP
350
D
  0
DICTIONARY
  5
D
330
C
100
AcDbDictionary
281
    1
  0
PLOTSETTINGS
  5
B5
100
AcDbPlotSettings
  6
1x1
 40
0
 41
0
 42
0
 43
0
  0
ENDSEC
  0
EOF
