<?xml version="1.0" encoding="UTF-8" standalone="no"?>
<!-- Created with Inkscape (http://www.inkscape.org/) -->

<svg
   version="1.1"
   id="svg650"
   width="259.20001"
   height="229.12"
   viewBox="0 0 259.20001 229.12"
   sodipodi:docname="logo.svg"
   inkscape:version="1.2.2 (b0a8486541, 2022-12-01)"
   xmlns:inkscape="http://www.inkscape.org/namespaces/inkscape"
   xmlns:sodipodi="http://sodipodi.sourceforge.net/DTD/sodipodi-0.dtd"
   xmlns="http://www.w3.org/2000/svg"
   xmlns:svg="http://www.w3.org/2000/svg">
  <defs
     id="defs654" />
  <sodipodi:namedview
     id="namedview652"
     pagecolor="#505050"
     bordercolor="#eeeeee"
     borderopacity="1"
     inkscape:showpageshadow="0"
     inkscape:pageopacity="0"
     inkscape:pagecheckerboard="0"
     inkscape:deskcolor="#505050"
     showgrid="false"
     inkscape:zoom="0.10289676"
     inkscape:cx="1584.1121"
     inkscape:cy="-218.66577"
     inkscape:window-width="1880"
     inkscape:window-height="971"
     inkscape:window-x="20"
     inkscape:window-y="52"
     inkscape:window-maximized="0"
     inkscape:current-layer="g656" />
  <g
     inkscape:groupmode="layer"
     inkscape:label="Image"
     id="g656">
    <path
       id="path1754"
       style="color:#000000;fill:#000000;stroke-width:16.6;-inkscape-stroke:none"
       d="M 2331.748 522.58008 L 2322.2969 522.60156 L 2322.3809 523.22461 C 2313.0516 524.52222 2305.2807 527.97545 2300.3438 534.9375 C 2293.8307 544.12194 2293.268 556.07028 2294.5586 571.86719 L 2294.5586 571.86914 L 2294.5586 571.87109 C 2295.5447 583.87692 2295.5021 604.30193 2294.4902 615.55859 L 2294.4902 615.56055 C 2292.5221 637.45429 2292.1907 643.2773 2289.5859 708.29102 C 2289.2172 717.49835 2288.5244 726.69822 2287.7207 733.94336 C 2287.3188 737.56593 2286.8865 740.70777 2286.4785 743.0332 C 2286.0705 745.35865 2285.4081 747.22694 2285.7324 746.50977 C 2282.8805 752.81719 2281.7715 758.89324 2285.1562 765.9375 C 2284.1461 763.83547 2284.9522 765.44156 2285.0508 767.22656 C 2285.1498 769.01157 2285.1625 771.60861 2285.0684 774.65039 C 2284.8793 780.73395 2284.2736 788.65362 2283.3008 796.67578 C 2279.9104 824.63613 2278.159 839.6497 2278.4355 849.76367 C 2278.5738 854.82066 2279.2291 858.98748 2281.2109 862.72266 C 2283.1928 866.45783 2286.3292 868.91241 2288.8906 870.54102 C 2291.7979 872.38951 2294.5815 873.95483 2298.0098 874.79688 C 2301.438 875.63893 2305.7398 875.31833 2309.123 873.58398 C 2315.8898 870.1153 2319.0516 864.22665 2323.8828 855.66992 C 2329.7735 845.23649 2332.3408 834.9836 2329.1484 825.58398 C 2328.9121 824.88806 2327.9047 817.73327 2327.7461 809.43555 C 2327.5875 801.13782 2327.8321 790.96069 2328.3867 780.91797 C 2328.941 770.87525 2329.8077 760.93493 2330.8516 753.13477 C 2331.3735 749.23468 2331.9454 745.86067 2332.498 743.39453 C 2333.0098 741.11076 2333.6428 739.77921 2333.4141 740.0957 C 2333.6624 740.2693 2333.6783 740.25556 2333.9531 740.45312 C 2337.3024 742.86084 2341.7733 745.08155 2347.5469 747.7793 C 2353.3205 750.47703 2360.0758 753.35369 2366.5957 755.83398 C 2375.0762 759.06014 2395.0868 772.34356 2415.0977 788.48633 C 2435.1084 804.62909 2456.0262 823.85524 2469.6797 839.36914 C 2479.568 850.60464 2492.9967 855.18912 2504.6758 852.34766 C 2516.355 849.50618 2525.338 837.75311 2524.1719 823.48047 C 2523.6793 817.44547 2521.2481 815.71568 2518.5605 812.31445 C 2515.8729 808.91324 2512.3461 805.07156 2508.1016 800.77344 C 2499.6127 792.17719 2488.2841 781.84324 2476.0059 771.34375 C 2451.4494 750.34476 2423.7796 728.99078 2406.5898 720.03711 C 2402.589 717.9532 2399.4014 715.94311 2396.3906 714.03125 C 2399.6377 712.37343 2403.4088 710.5873 2407.748 708.83008 C 2435.779 697.47931 2462.2535 670.48907 2471.0742 643.35156 L 2471.0742 643.34961 C 2478.5411 620.37589 2476.1119 589.73283 2464.5859 569.81445 C 2459.1201 560.36896 2451.0193 551.76405 2442.5371 545.23047 C 2434.0554 538.69733 2425.8184 533.51343 2415.9805 534.31641 C 2414.9811 534.39801 2413.6481 534.25641 2412.873 534.04688 C 2412.5108 533.94898 2412.3596 533.75138 2412.3984 533.74219 C 2410.4593 531.66108 2408.9693 531.41634 2407.5039 530.86719 C 2405.7645 530.21537 2403.9242 529.72004 2401.7793 529.23242 C 2397.4894 528.25719 2392.0406 527.37646 2385.5566 526.54883 C 2372.5887 524.89356 2355.5756 523.49886 2337.2988 522.71289 L 2337.2891 522.71289 L 2337.2793 522.71289 C 2335.4202 522.6359 2333.5932 522.57608 2331.7559 522.58008 L 2331.748 522.58008 z M 2715.4609 557.65039 C 2707.1628 556.99414 2699.4159 561.35899 2693.5625 567.98438 C 2687.7091 574.60977 2682.9173 583.71321 2678.6113 595.38672 C 2666.0919 629.32738 2655.3544 659.29468 2647.7656 681.33008 C 2643.9712 692.34778 2640.966 701.37184 2638.9004 707.99023 C 2637.8676 711.29944 2637.0711 713.99615 2636.5078 716.13867 C 2636.2262 717.20993 2636.0012 718.13454 2635.8262 719.0332 C 2635.6511 719.93187 2635.3733 720.41774 2635.5508 722.58789 C 2635.4232 721.02868 2635.5877 721.77696 2635.3438 722.66016 C 2635.0994 723.5443 2634.6418 724.89973 2634.0312 726.45117 C 2632.8099 729.55405 2630.9767 733.49229 2628.9531 737.20312 C 2623.7637 746.71922 2618.8932 761.54913 2616.9375 773.09961 C 2615.489 781.65385 2608.0117 806.45405 2600.8066 825.37109 C 2596.9995 835.36689 2593.6153 846.1482 2591.1621 855.68164 C 2588.7089 865.21509 2587.0645 872.949 2587.1953 879.29102 C 2587.2753 883.1558 2587.3161 886.19348 2587.7246 889.17188 C 2588.1331 892.15028 2589.0196 895.65841 2591.8359 898.51758 C 2594.6523 901.37675 2598.2707 902.32514 2601.2344 902.69727 C 2604.1981 903.06939 2607.1436 903.04701 2610.8711 903.05078 C 2616.2851 903.05678 2620.8594 902.6155 2625.0039 901.26562 C 2629.1485 899.91576 2633.9233 897.0702 2635.3906 891.5 C 2636.05 888.99636 2638.4563 880.84876 2640.5352 874.13672 C 2642.8927 866.52481 2644.8132 857.03905 2645.0469 850.24023 C 2645.1882 846.11026 2648.234 829.56807 2651.7461 815.04883 C 2653.5022 807.78921 2655.3669 800.76501 2656.9844 795.39453 C 2657.7931 792.70929 2658.5461 790.42826 2659.1426 788.83789 C 2659.1816 788.73306 2659.2166 788.69318 2659.2578 788.5918 C 2659.6566 788.49106 2659.7943 788.43087 2660.3145 788.32031 C 2662.9276 787.76487 2666.9055 787.13994 2671.6895 786.54102 C 2681.2573 785.34316 2694.145 784.21137 2707.6387 783.33984 C 2734.626 781.59681 2765.0828 781.09259 2774.7656 782.41602 C 2787.1219 784.10474 2794.3413 786.02843 2797.875 788.04102 C 2801.4087 790.05359 2802.4696 791.64656 2804.1914 797.25781 C 2805.3469 801.02333 2806.8351 804.57748 2808.4961 807.63477 C 2810.1565 810.69105 2810.6354 813.2602 2815.7832 815.89062 C 2814.56 815.26257 2814.9441 815.22452 2815.1777 815.64453 C 2815.4129 816.06734 2815.6168 816.80541 2815.6309 816.97852 L 2815.6309 816.98047 C 2815.956 820.9598 2817.1121 822.90712 2818.5898 826.17773 C 2820.0676 829.44836 2822.0273 833.29464 2824.3594 837.60938 C 2829.0235 846.23887 2835.1675 856.69025 2841.5898 867.05273 C 2848.0123 877.41522 2854.6965 887.66163 2860.459 895.85742 C 2863.3402 899.95532 2865.984 903.53606 2868.3223 906.43359 C 2870.6605 909.33114 2872.2448 911.3881 2875.0938 913.39062 C 2884.5297 920.0232 2895.3807 921.9096 2904.4355 918.30273 C 2913.4905 914.69588 2919.641 904.75805 2918.7402 893.73242 C 2918.3679 889.17673 2916.7935 885.98008 2914.8262 881.75781 C 2912.8588 877.53556 2910.3454 872.89876 2907.6523 868.40039 C 2904.9593 863.90203 2902.1072 859.57403 2899.3887 855.98047 C 2896.9527 852.76038 2895.3968 850.25537 2891.6816 848.00781 C 2891.4944 847.79467 2891.1667 847.40627 2890.709 846.80273 C 2889.6974 845.46894 2888.2474 843.39275 2886.5488 840.83203 C 2883.1517 835.71061 2878.7184 828.60724 2873.9492 820.66797 C 2864.4109 804.78941 2853.4761 785.47738 2846.3223 771.40625 C 2842.6797 764.24152 2839.0084 752.0172 2838.7109 748.37695 C 2838.4007 744.58 2837.6536 741.00179 2836.5254 737.80664 C 2835.3972 734.61149 2835.2248 731.4231 2829.5801 728.54102 C 2832.1136 729.83511 2830.2564 728.98011 2829.3145 727.40234 C 2828.3725 725.82458 2827.2987 723.53915 2826.5684 721.38867 C 2824.1552 714.28353 2818.6922 703.61269 2811.2324 689.91992 C 2803.7727 676.22717 2794.4216 660.00128 2784.7559 643.86328 C 2765.4242 611.5873 2745.7619 580.58247 2735.2734 568.89258 C 2729.6164 562.58767 2722.9978 558.24647 2715.4609 557.65039 z M 1988.6484 558.59961 L 1980.5059 558.75391 L 1980.5059 560.8125 C 1977.7748 562.36458 1975.5795 564.50771 1973.25 566.7793 C 1969.0429 570.88185 1965.2163 575.73628 1963.3887 581.90234 C 1960.8688 590.40403 1963.1586 599.68353 1968.7715 607.11328 L 1968.7715 607.11523 C 1971.0214 610.09291 1971.6678 611.40259 1972.1172 614.75586 C 1972.5667 618.10913 1972.3782 623.72493 1971.3848 632.91992 C 1968.755 657.26092 1966.1048 673.71593 1962.7207 685.29688 C 1959.3365 696.87783 1955.5052 703.45275 1949.7266 709.68555 C 1942.3567 717.6346 1937.3759 723.23251 1935.9199 731.01758 C 1935.1919 734.91011 1935.9419 739.20531 1937.6777 742.55859 C 1939.4138 745.91189 1941.8108 748.51355 1944.5723 751.10547 C 1946.5444 752.95656 1946.5009 752.19716 1946.9297 757.7793 C 1947.3585 763.36142 1946.9136 774.00015 1945.6777 792.61328 C 1944.1667 815.37677 1940.7213 842.76898 1938.8105 850.43555 C 1937.048 857.50728 1935.9301 863.45423 1936.0586 869.11133 C 1936.1872 874.76841 1937.9797 880.614 1942.0879 884.74023 C 1950.3045 892.99272 1962.099 893.4953 1979.623 893.78125 C 1989.0414 893.93513 2006.8612 895.15077 2018.2305 896.4375 C 2030.0746 897.77798 2044.5026 899.18491 2050.9414 899.61719 C 2056.7252 900.00551 2070.8384 901.23755 2081.8867 902.30469 C 2097.4809 903.81107 2113.8063 903.81622 2127.2207 902.66602 C 2133.9278 902.09091 2139.8837 901.23969 2144.8633 900.02734 C 2149.843 898.815 2153.8627 898.23977 2157.875 893.51367 C 2162.1925 888.42796 2164.2813 882.98004 2163.6406 876.04492 C 2163.2473 871.75388 2162.3643 867.53718 2159.9961 863.66016 C 2157.628 859.78312 2153.7589 856.76038 2149.4238 854.98438 C 2140.7539 851.43253 2130.0201 851.08467 2113.0293 851.16602 C 2094.9775 851.25232 2074.3569 850.41359 2070.9473 849.91211 C 2064.5024 848.96448 2044.2752 846.90155 2024.4883 845.08008 C 2014.7237 844.18121 2005.426 843.15099 1998.4102 842.23242 C 1994.9023 841.77314 1991.9554 841.33874 1989.8867 840.98047 C 1989.7602 840.95857 1989.7215 840.94718 1989.6016 840.92578 C 1989.1844 839.19471 1988.7587 836.43051 1988.5254 832.92188 C 1988.0356 825.55539 1988.2236 815.44587 1988.998 805.10156 C 1989.7724 794.75725 1991.13 784.10889 1992.8457 775.50977 C 1994.5317 767.05909 1997.335 760.25857 1997.7559 759.60156 C 1997.8409 759.57586 1997.8795 759.56366 1998.3281 759.42383 C 1999.5776 759.03438 2002.3527 758.52993 2006.7891 758.23242 C 2015.662 757.63741 2031.0763 757.71339 2056.5352 758.27734 C 2073.2607 758.64802 2088.8661 759.18087 2100.4609 759.74023 C 2106.2583 760.01991 2111.0639 760.30776 2114.4297 760.57617 C 2116.1127 760.71038 2117.4465 760.8429 2118.2617 760.94727 C 2118.6451 760.99637 2118.8858 761.03837 2118.9434 761.04883 C 2123.2925 762.80741 2125.5767 761.70788 2128.4355 761.08203 C 2131.6195 760.38497 2134.9752 759.22589 2138.2969 757.64258 L 2138.2969 757.64062 C 2142.9153 755.43897 2147.2468 752.43496 2149.7441 747.70508 C 2152.2414 742.97519 2152.4131 737.89659 2151.9707 732.47852 L 2151.9707 732.47656 C 2151.5098 726.83624 2150.3823 721.42012 2146.6426 717.05859 C 2142.9029 712.69708 2137.9715 710.65046 2132.1152 708.73242 C 2127.9077 707.35434 2123.6105 706.43935 2119.666 706.01367 C 2115.7214 705.58799 2112.7571 704.8165 2107.8184 707.18945 C 2109.3629 706.44731 2108.908 706.8159 2108.332 706.90039 C 2107.7559 706.98489 2106.7485 707.09093 2105.4824 707.18164 C 2102.9501 707.36307 2099.3462 707.4981 2095.0723 707.5625 C 2086.5246 707.6913 2075.246 707.5512 2063.4688 707.10742 C 2051.4566 706.65473 2039.3105 706.41972 2029.3359 706.40234 C 2019.3613 706.38494 2012.1961 706.45545 2007.6523 707.07812 C 2004.9114 707.45481 2003.5846 707.27031 2003.1855 707.22461 C 2003.1755 707.10522 2003.2513 707.24051 2003.1953 706.95508 C 2002.5507 703.90249 2003.5727 692.4201 2007.7012 673.57617 C 2011.7863 654.93153 2015.7559 634.52204 2016.7578 626.33008 C 2017.3546 621.44853 2018.1228 618.24142 2018.8926 616.65039 C 2019.6624 615.05936 2019.9792 614.64783 2022.1523 613.68164 C 2026.4985 611.74927 2038.8893 610.46237 2061.709 610.04102 C 2084.2008 609.62559 2110.0344 610.23552 2115.9746 610.97852 C 2132.0425 612.97916 2147.8423 609.59859 2159.2402 603.39258 C 2164.9392 600.28957 2169.7945 596.54985 2172.5742 590.81836 C 2175.3539 585.08687 2174.0544 576.72274 2169.1914 571.75 C 2162.5698 564.97902 2152.6915 562.04561 2138.1641 560.51562 C 2123.6366 558.98565 2103.7847 558.97399 2075.6621 560.06641 C 2048.394 561.12564 2027.9332 561.57654 2014.0918 561.42969 C 2007.1711 561.35629 2001.883 561.12597 1998.4277 560.78906 C 1996.7001 560.62061 1995.4201 560.41499 1994.8066 560.27539 C 1994.1984 560.13698 1994.2306 559.64946 1995.9766 561.12305 C 1993.7237 559.21633 1990.7726 558.5592 1988.6523 558.59961 L 1988.6484 558.59961 z M 1141.9238 566.42773 C 1140.7113 566.41113 1139.52 566.46083 1138.3535 566.55273 L 1138.3418 566.55273 L 1138.3301 566.55469 C 1130.1696 567.22161 1122.7303 570.81809 1116.7637 575.55273 C 1110.7975 580.28703 1105.2201 586.21152 1105.9336 595.16406 C 1105.7275 592.57708 1105.8986 594.69963 1105.3398 596.60156 C 1104.7815 598.5035 1103.861 601.24245 1102.6602 604.53906 C 1100.2585 611.13231 1096.7328 620.01155 1092.541 630.05273 C 1084.1575 650.13511 1073.09 674.92199 1062.7734 696.20117 C 1058.1393 705.7596 1053.9501 714.66009 1050.9043 721.36719 C 1049.3814 724.72072 1048.1482 727.51631 1047.2598 729.64258 C 1046.8156 730.70571 1046.4605 731.58791 1046.166 732.40039 C 1046.0188 732.80663 1045.8869 733.1831 1045.7441 733.6875 C 1045.6014 734.1919 1045.1527 734.12715 1045.3867 737 C 1045.2524 735.34608 1045.4355 735.81489 1045.3145 736.3418 C 1045.1931 736.87025 1044.9369 737.8022 1044.5742 738.96289 C 1043.8489 741.28427 1042.6996 744.55624 1041.2559 748.4043 C 1038.3683 756.10039 1034.2973 766.15738 1029.8633 776.62109 C 1020.9952 797.54852 1010.3867 820.55871 1005.373 829.17773 C 1001.5981 835.66736 998.2365 842.12618 995.76758 847.51172 C 994.53312 850.20449 993.52282 852.61254 992.76758 854.76953 C 992.01234 856.92652 991.1238 858.01347 991.44922 861.99609 C 991.81785 866.50787 994.17499 869.68227 996.59961 872.02539 C 999.02423 874.36851 1001.8053 876.07981 1004.7871 877.41016 C 1010.7507 880.07084 1017.5878 881.99731 1024.9297 878.36914 C 1028.3203 876.69348 1028.9078 875.30365 1030.1914 873.66992 C 1031.475 872.03619 1032.7628 870.13473 1034.1719 867.90039 C 1036.9901 863.43171 1040.2359 857.66184 1043.6914 851.07422 C 1050.6025 837.89898 1058.2958 821.53568 1064.1914 806.83984 C 1066.4398 801.2354 1068.1147 797.53993 1069.6074 795.52539 C 1071.1001 793.51085 1072.1544 792.6279 1075.6719 791.48633 C 1082.7068 789.20319 1099.2077 788.39847 1131.4102 787.78516 C 1147.4977 787.47882 1162.603 787.60126 1173.8281 788.03516 C 1179.4407 788.2521 1184.103 788.55148 1187.2832 788.88672 C 1188.0449 788.96702 1188.3647 789.03705 1188.9355 789.11719 C 1189.5791 790.72635 1190.3856 793.05734 1191.2422 795.92188 C 1193.0163 801.85486 1194.9833 809.82218 1196.6289 818.11719 C 1200.7663 838.97264 1206.6189 861.42275 1212.2227 879.28125 C 1215.0245 888.2105 1217.7502 895.96745 1220.2617 901.95508 C 1221.5175 904.94889 1222.7036 907.48897 1223.9609 909.67773 C 1225.2183 911.86651 1225.7737 913.81343 1229.6602 915.99023 C 1240.8964 922.28346 1255.2584 919.16417 1262.6543 908.60938 C 1266.353 903.3308 1266.5205 896.48609 1264.873 887.16797 C 1263.2256 877.84985 1259.6571 864.56344 1253.5176 843.26953 C 1245.4013 815.11982 1235.3177 773.95648 1231.3379 752.81055 C 1217.8378 681.07932 1193.5969 617.64553 1163.3438 576.99219 C 1160.0535 572.5708 1155.3381 569.56738 1150.1094 567.91211 L 1150.1094 566.53906 L 1141.9238 566.42773 z M 2348.5 575.70898 L 2348.502 575.70898 C 2350.664 575.75318 2353.2473 575.92041 2356.2285 576.22852 C 2385.0441 579.21215 2406.0476 586.72932 2417.2871 595.79492 C 2428.5265 604.86053 2431.2213 613.57174 2425.9199 626.55078 C 2423.9624 631.34329 2416.2893 641.92319 2408.0703 650.56641 C 2403.9608 654.88801 2399.6876 658.88784 2395.9668 661.88281 C 2392.2459 664.87779 2388.7567 666.80675 2388.0039 667.05078 C 2380.2166 669.57499 2365.6853 672.97816 2353.248 675.38281 C 2347.0295 676.58514 2341.2703 677.55721 2337.1348 678.0957 C 2336.9801 678.1159 2336.9355 678.11196 2336.7852 678.13086 C 2336.5063 675.40638 2336.2616 672.0453 2336.1523 667.68359 C 2335.902 657.69466 2336.1424 644.42897 2336.7598 631.02344 C 2337.3753 617.61789 2338.3633 604.02836 2339.5664 593.35156 C 2340.1679 588.01317 2340.8283 583.39007 2341.4805 580.01172 C 2341.7875 578.42184 2342.2223 577.07061 2342.5234 576.13672 C 2343.5938 575.90121 2345.5145 575.64737 2348.5 575.70898 z M 782.40039 590.29883 L 782.08008 590.32422 L 782.72461 590.29883 L 782.40039 590.29883 z M 782.08008 590.32422 L 782.07812 590.32422 L 782.07617 590.32422 C 776.11453 590.79016 769.66677 592.78803 758.7793 596.2793 C 706.91951 612.90894 663.86591 644.17839 647.81445 679.96289 C 643.66727 689.20856 638.3873 700.92833 636.09961 705.97461 C 633.77563 711.10096 633.243 716.51567 632.44922 724.09961 C 631.65544 731.68355 631.17182 740.64003 631.16406 749.41016 C 631.14906 766.33146 631.10076 782.66588 631.06836 785.00195 C 630.93201 794.91318 634.06266 807.66628 638.4375 820.95508 C 642.81234 834.24386 648.42129 847.46317 654.51562 856.76953 C 666.23692 874.66837 682.95915 887.74086 705.44336 896.03125 C 727.92757 904.32164 756.11532 908.15754 792.23242 908.80273 C 803.23787 908.99947 813.40489 909.30867 820.84375 909.64453 C 824.56318 909.81246 827.61323 909.9889 829.65625 910.15039 C 830.31912 910.20279 830.64872 910.24339 831.06055 910.28711 C 830.65575 910.1517 830.06845 909.85516 828.80469 908.82227 C 829.64558 909.50862 830.4116 909.92322 831.16211 910.29688 C 831.3447 910.31677 831.71182 910.34673 831.82031 910.36133 C 831.99867 910.38533 832.08535 910.40948 831.87695 910.36328 C 831.78715 910.34328 831.67949 910.46926 831.42383 910.46094 C 834.31965 911.80488 836.58507 911.2003 838.44141 910.92188 C 840.83615 910.5627 843.09026 909.87872 845.53711 909.00195 C 850.4308 907.24841 855.94111 904.65138 861.33398 901.73242 C 866.72687 898.81346 871.92009 895.61638 876.07227 892.47461 C 878.14834 890.90372 879.95746 889.38818 881.57031 887.58398 C 883.18317 885.7798 885.65466 883.82754 885.13477 878.40039 C 884.50982 871.88133 881.42104 866.30616 876.84961 862.54492 C 872.27816 858.78369 865.1613 856.7272 858.79297 859.78711 C 860.05743 859.17953 859.66528 859.47744 859.10938 859.57617 C 858.55348 859.67487 857.59967 859.80568 856.40625 859.93164 C 854.01941 860.18356 850.64126 860.42908 846.64844 860.64062 C 838.66277 861.06374 828.17388 861.36425 817.25391 861.50977 C 795.41396 861.80081 771.2045 861.36597 762.80664 860.36719 C 751.32252 859.00132 719.13253 848.32307 709.25977 842.62109 C 696.31853 835.14681 683.96614 813.55936 678.29883 788.13281 C 672.63151 762.70628 673.33028 733.91349 681.71484 713.5918 C 694.94817 681.5183 727.96038 652.56393 769.10938 638.41602 C 785.8108 632.67371 796.00569 628.94939 802.59375 621.59961 C 805.88778 617.92472 807.67883 611.69996 806.10547 606.78906 C 804.53211 601.87817 801.32951 598.66975 797.55664 595.4668 C 794.00966 592.45591 788.06978 589.85737 782.08008 590.32422 z M 1698.0586 594.56641 L 1689.7949 594.59961 L 1689.7949 596.36523 C 1685.9203 597.92283 1682.3033 600.34732 1679.0742 603.48047 C 1673.6478 608.74555 1668.8083 615.87582 1664.1465 624.87109 C 1657.0175 638.62681 1639.6384 665.09701 1623.7188 687.37891 C 1615.7589 698.51985 1608.1137 708.71039 1602.291 715.87891 C 1600.5079 718.07414 1599.3495 719.29926 1597.9824 720.83984 C 1597.1563 719.65241 1596.5272 718.85539 1595.5488 717.33789 C 1591.5837 711.18807 1586.5884 702.63282 1581.6719 693.38672 C 1569.6729 670.82122 1556.7736 651.66616 1544.9668 638.30859 C 1539.0634 631.62982 1533.485 626.38457 1527.916 622.78711 C 1522.347 619.18964 1515.9572 616.46062 1509.0723 619.19727 C 1502.0835 621.97515 1496.1206 625.37815 1492.0273 631.17773 C 1487.9341 636.97733 1486.0924 643.83267 1484.0898 653.45508 C 1480.7276 669.61097 1478.5825 676.7092 1466.8164 710.63281 C 1465.3242 714.93528 1464.1062 719.58714 1463.2617 723.89062 C 1462.4172 728.19412 1461.8275 731.7748 1462.1426 735.63281 C 1462.2306 736.71345 1462.1176 738.43 1461.834 739.79102 C 1461.5505 741.15202 1460.846 742.27672 1461.3496 741.60156 C 1459.0611 744.66984 1459.1922 745.62114 1458.248 748.17188 C 1457.3039 750.72262 1456.2126 753.95355 1455 757.74219 C 1452.5749 765.31945 1449.6878 775.08698 1446.8789 785.33789 C 1441.4545 805.13388 1432.4096 829.50625 1428.6484 836.21484 C 1424.7544 843.16042 1422.1702 848.07406 1421.3594 853.79688 C 1420.5486 859.5197 1422.4624 865.00944 1425.0547 869.6543 C 1428.5531 875.92273 1433.0915 881.01277 1439.791 882.54297 C 1446.4905 884.07317 1453.0739 880.82583 1457.6797 876.24219 C 1466.8913 867.0749 1473.572 851.29151 1479.9023 828.41797 C 1481.4275 822.90724 1483.094 817.40773 1484.5156 813.08594 C 1485.9372 808.76413 1487.7799 804.67025 1487.207 805.66016 C 1488.8403 802.83831 1488.807 801.8929 1489.5469 799.4082 C 1490.2868 796.92352 1491.1466 793.76685 1492.0996 790.07227 C 1494.0057 782.68308 1496.2709 773.17632 1498.4668 763.22852 C 1502.8074 743.56495 1508.2759 723.95271 1513.3516 708.9043 C 1515.8894 701.38008 1518.3415 694.98156 1520.4102 690.43164 C 1521.0672 688.98656 1521.7024 688.09824 1522.3594 687.05469 C 1523.2076 687.85232 1524.1683 688.81151 1525.2129 690.06641 C 1529.8436 695.62922 1535.7334 705.26478 1541.1934 717.17773 C 1546.7006 729.19378 1554.0121 743.32762 1558.4668 750.23438 C 1560.1132 752.7871 1561.7464 755.84478 1562.9062 758.44141 C 1564.066 761.03803 1564.643 763.73955 1564.582 762.99219 C 1565.3044 771.83945 1570.1799 779.28259 1576.3086 784.9043 C 1582.4373 790.52599 1590.1853 794.78714 1599.0977 793.91406 C 1605.8027 793.25705 1612.2098 789.03061 1618.5488 781.54492 C 1624.8878 774.05923 1632.4806 762.66675 1644.1699 744.20117 C 1659.8333 719.45823 1677.8431 690.25311 1684.5293 678.68555 C 1687.5443 673.4694 1690.9297 668.62508 1693.6895 665.32422 C 1694.3056 664.58722 1694.6602 664.30204 1695.1895 663.74023 C 1695.321 663.91483 1695.3407 663.87916 1695.4785 664.07617 C 1697.5017 666.96753 1700.1291 672.11502 1702.7031 678.71289 C 1707.8512 691.90864 1713.017 710.98768 1716.6895 732.22656 C 1718.8438 744.68447 1721.8733 759.82955 1723.7051 766.96484 C 1725.1063 772.42275 1728.7109 791.49749 1731.252 807.64648 C 1732.9112 818.19207 1734.5767 826.5892 1736.6484 833.32227 C 1738.7203 840.05577 1740.9661 845.42154 1745.7383 849.38281 C 1750.5105 853.3441 1758.0115 853.6509 1763.3359 851.38281 C 1768.659 849.11534 1773.2822 845.30354 1778.6719 840.21875 L 1778.6719 840.21484 L 1794.3008 825.48633 L 1783.4004 804.99609 L 1783.4004 804.99414 C 1779.9694 798.53719 1774.2124 780.89444 1772.0215 768.81055 C 1763.393 721.22132 1752.863 680.62423 1741.7441 650.74805 C 1736.1847 635.80995 1730.5074 623.55792 1724.582 614.24023 C 1718.6571 604.92319 1712.7194 597.96773 1704.082 595.4375 C 1702.1933 594.88448 1700.1486 594.55795 1698.0586 594.56641 z M 2718.2578 628.96289 C 2733.9498 653.61094 2745.1766 671.61698 2752.3457 683.71875 C 2755.9627 689.82444 2758.5797 694.48576 2760.2266 697.69922 C 2761.8717 700.90929 2762.3084 703.84358 2762.1074 701.375 C 2762.465 705.74429 2763.7569 707.95181 2765.4004 711.65039 C 2767.0439 715.34897 2769.1663 719.5164 2771.4941 723.52148 C 2773.3595 726.73078 2774.3854 729.12049 2775.0117 730.9082 C 2774.2424 730.848 2773.5179 730.77547 2772.6133 730.74219 C 2769.7402 730.6365 2766.0255 730.63248 2761.5664 730.70703 C 2752.6482 730.85621 2740.827 731.33523 2728.1035 732.10938 C 2713.7402 732.98367 2702.8187 733.51279 2694.9805 733.40039 C 2687.1423 733.288 2682.4401 732.23679 2681.1895 731.60352 C 2679.9388 730.97023 2680.7117 732.38847 2680.6738 730.16992 C 2680.6358 727.95137 2681.655 722.86082 2683.668 715.90234 C 2686.8196 705.00795 2694.2401 684.85499 2701.7148 666.27539 C 2708.2959 649.91739 2714.814 635.51641 2718.2578 628.96289 z M 1143.1094 630.00195 C 1143.1384 630.09705 1142.9307 630.30113 1142.5391 630.51758 C 1142.6291 630.40958 1142.8653 630.06685 1142.9238 630.00391 C 1143.0028 629.91961 1143.0881 629.93155 1143.1094 630.00195 z M 1140.3301 633.67773 C 1142.2755 635.70689 1144.5498 638.53359 1146.5254 641.73242 C 1150.6116 648.34882 1160.7477 673.28254 1168.4141 695.58008 C 1172.2472 706.72885 1175.6394 717.47276 1177.8105 725.4668 C 1178.6244 728.46314 1179.0566 730.53564 1179.4785 732.55469 C 1176.9733 733.07474 1173.8893 733.62241 1169.9102 734.13672 C 1160.8099 735.31293 1148.7887 736.33273 1136.7539 737.00781 C 1124.7191 737.6829 1112.6233 738.01649 1103.373 737.86914 C 1099.6322 737.80954 1096.8232 737.61616 1094.291 737.4082 C 1095.1042 734.37585 1096.1815 730.74684 1097.8828 725.98047 C 1101.8873 714.76157 1107.9474 699.94702 1114.4316 685.29102 C 1120.9159 670.63501 1127.8473 656.084 1133.5527 645.35938 C 1136.1973 640.38843 1138.491 636.49881 1140.3301 633.67773 z M 2332.7637 678.49609 C 2332.7737 678.49809 2332.7986 678.52154 2332.8066 678.52344 C 2332.7306 678.52744 2332.5303 678.55394 2332.4629 678.55664 C 2332.0043 678.57484 2331.718 678.55161 2331.918 678.57031 C 2332.018 678.58031 2332.2196 678.38301 2332.7637 678.49609 z M 1183.4863 731.47461 C 1183.7053 731.37017 1183.6675 731.52941 1183.4746 731.60156 C 1183.4496 731.61056 1183.3328 731.63774 1183.3027 731.64844 C 1183.3367 731.62774 1183.4601 731.48714 1183.4863 731.47461 z M 1816.2773 1007.6094 L 1808.0176 1007.6504 L 1808.0176 1007.8438 C 1803.4073 1007.9526 1799.0698 1008.012 1793.6934 1008.252 C 1764.094 1009.5751 1709.2884 1014.7122 1659.0254 1020.2949 C 1633.8939 1023.0863 1609.9432 1025.988 1590.9277 1028.5859 C 1571.9124 1031.1838 1558.6439 1033.1723 1551.7168 1035.25 C 1543.4505 1037.7294 1525.8227 1042.5001 1513.0469 1045.709 C 1499.1413 1049.2014 1478.428 1056.9495 1465.0293 1063.627 C 1452.699 1069.7718 1426.8458 1081.8772 1408 1090.2988 C 1368.9261 1107.7594 1341.4597 1121.189 1320.9746 1132.8945 C 1314.0771 1136.836 1294.4429 1146.7426 1278.4043 1154.3184 C 1252.182 1166.704 1204.7542 1195.2709 1163.9355 1223.0547 C 1158.4154 1226.8122 1132.6492 1243.0698 1107.8457 1258.3789 C 1082.7776 1273.8516 1056.114 1291.7023 1046.2773 1300.084 C 1042.1629 1303.5899 1038.1477 1306.8201 1035.1172 1309.1055 C 1033.6019 1310.2482 1032.3189 1311.1622 1031.5117 1311.6914 C 1031.336 1311.8065 1031.3234 1311.8092 1031.2031 1311.8828 C 1031.4857 1311.7708 1031.9105 1311.6396 1033.0234 1311.5176 L 1033.0332 1311.5176 C 1032.0319 1311.6267 1031.5865 1311.7772 1031.1426 1311.9238 C 1031.0288 1311.9928 1030.8101 1312.129 1030.8066 1312.1309 C 1030.8066 1312.1309 1030.8256 1312.0518 1030.9434 1311.9648 C 1030.3585 1312.1787 1030.0241 1312.3953 1029.7207 1312.5527 C 1029.1857 1312.8302 1028.8044 1313.0673 1028.4082 1313.3203 C 1027.6158 1313.8262 1026.8136 1314.3915 1025.8691 1315.082 C 1023.9803 1316.4629 1021.581 1318.3185 1018.7383 1320.582 C 1013.0529 1325.109 1005.6372 1331.2421 997.76953 1337.9629 C 982.34962 1351.1352 957.0286 1371.5429 941.95117 1382.9297 C 907.53822 1408.9193 881.55723 1432.9813 829.18945 1487.3379 C 818.26502 1498.6773 806.79489 1509.8506 797.21484 1518.625 C 787.63478 1527.3995 778.97984 1534.1699 777.44531 1535.0176 L 758.45312 1545.4844 L 764.39453 1572.1875 C 765.74444 1578.269 767.53461 1584.2115 769.44336 1589.1816 C 770.39794 1591.6671 771.37461 1593.9005 772.43359 1595.8906 C 773.49256 1597.8807 774.31193 1599.5755 776.67188 1601.5879 C 781.39836 1605.6184 787.80925 1608.4607 797.32812 1612.6875 C 806.847 1616.9144 818.83374 1621.7451 831.85938 1626.6582 C 857.91064 1636.4843 888.01114 1646.6048 910.40625 1652.5098 C 926.01305 1656.6249 946.02358 1663.0273 953.02344 1665.9824 C 964.68598 1670.9058 984.78397 1678.2962 1003.502 1684.7988 C 1012.861 1688.0501 1021.8419 1691.0652 1029.2012 1693.4082 C 1036.5605 1695.7511 1041.8695 1697.3746 1045.6602 1698.0801 C 1045.3423 1698.0211 1048.1173 1698.8106 1051.4023 1700.0898 C 1054.6873 1701.369 1058.9884 1703.1624 1063.9277 1705.3145 C 1073.8065 1709.6186 1086.2637 1715.3627 1098.8027 1721.459 C 1111.5431 1727.6533 1124.2222 1733.4995 1134.4785 1737.9668 C 1139.6067 1740.2005 1144.1242 1742.0874 1147.7949 1743.5195 C 1151.4656 1744.9516 1153.8692 1745.9021 1156.6426 1746.459 C 1160.2272 1747.179 1171.8296 1751.3468 1179.3828 1755.0312 C 1188.2174 1759.3409 1199.1168 1763.5163 1206.5312 1764.998 C 1207.9709 1765.2856 1213.5984 1767.0698 1219.8809 1769.5 C 1226.1633 1771.9303 1233.5424 1775.045 1240.3457 1778.1953 C 1278.3833 1795.808 1337.5407 1815.9324 1365.6504 1820.2559 C 1370.4459 1820.9931 1380.7931 1823.4375 1387.168 1825.3906 C 1394.6536 1827.684 1413.9412 1832.6994 1431.0762 1836.8672 C 1448.079 1841.0026 1465.9587 1845.4541 1470.1367 1846.5742 C 1476.0105 1848.1487 1492.0957 1851.4383 1512.3359 1855.4316 C 1532.5762 1859.4249 1556.3724 1863.9491 1575.5723 1867.3945 C 1604.4365 1872.5741 1655.4674 1877.3468 1696.5391 1878.7734 C 1709.5031 1879.2233 1728.7617 1880.7528 1738.248 1882.0703 C 1744.7863 1882.9781 1755.573 1882.9945 1769.5469 1882.6562 C 1783.5203 1882.3181 1800.1509 1881.5016 1816.1973 1880.2812 C 1847.8594 1877.8737 1890.1615 1875.3854 1909.6738 1874.752 C 1930.2138 1874.0892 1964.8801 1870.9337 1995.3418 1867.4609 C 2010.5727 1865.7245 2024.7015 1863.9117 2035.4512 1862.2715 C 2040.8261 1861.4515 2045.3428 1860.6792 2048.8496 1859.9492 C 2050.6029 1859.5842 2052.0921 1859.2364 2053.4434 1858.8418 C 2054.7909 1858.4484 2055.6223 1858.627 2058.1895 1856.6289 C 2056.6344 1857.8349 2056.9212 1857.383 2057.3008 1857.2441 C 2057.6863 1857.103 2058.4427 1856.8561 2059.4141 1856.5742 C 2061.3569 1856.0103 2064.1952 1855.2809 2067.5957 1854.4766 C 2074.3965 1852.8681 2083.4947 1850.9429 2093.1055 1849.125 C 2143.2122 1839.6481 2198.557 1822.9331 2277.2402 1793.6582 C 2289.7149 1789.0168 2308.1484 1782.926 2317.2949 1780.3926 C 2352.7086 1770.5837 2413.3272 1740.0963 2461.8906 1708.334 C 2475.2126 1699.6208 2488.0589 1690.8621 2498.0996 1683.7168 C 2503.1199 1680.1442 2507.4337 1676.9796 2510.8027 1674.3848 C 2514.1716 1671.79 2516.278 1670.229 2518.3223 1667.9277 C 2518.6727 1667.5333 2524.1761 1662.785 2530.8809 1657.8672 C 2537.5857 1652.9493 2546.0296 1647.1093 2554.4688 1641.625 C 2595.9761 1614.6511 2622.9442 1591.3522 2631.7324 1569.6699 L 2639.8594 1549.627 L 2619.7188 1533.7949 C 2613.6252 1529.0052 2596.6817 1508.8632 2585.7715 1491.9434 C 2574.0696 1473.7959 2554.8595 1448.8824 2541.9121 1435.1582 C 2529.8876 1422.4122 2515.0274 1404.7243 2510.0586 1397.5195 C 2499.8677 1382.7417 2479.9732 1359.7873 2460.0625 1338.5547 C 2440.1525 1317.3228 2421.4455 1298.638 2410.2383 1291.2715 C 2407.7794 1289.6549 2400.3857 1282.6289 2396.6367 1277.7637 C 2389.5275 1268.5376 2374.194 1254.5701 2353.8887 1237.1328 C 2333.5833 1219.6955 2308.682 1199.4219 2284.082 1180.1426 C 2259.4822 1160.8633 2235.2081 1142.5952 2216.0977 1129.1465 C 2206.5424 1122.4221 2198.2981 1116.911 2191.793 1113.0039 C 2188.5404 1111.0504 2185.7442 1109.4985 2183.2305 1108.3398 C 2180.7175 1107.1816 2179.2887 1105.7925 2174.4707 1106.3184 C 2177.2571 1106.0147 2176.0872 1106.5036 2175.0273 1105.8633 C 2173.9669 1105.2226 2172.5087 1104.0565 2171.4414 1102.8926 C 2169.1383 1100.3813 2167.168 1099.3588 2164.3652 1097.7305 C 2161.5624 1096.1022 2158.1521 1094.3333 2154.248 1092.4512 C 2146.44 1088.6869 2136.6915 1084.499 2126.6699 1080.6875 C 2107.3011 1073.3209 2084.8654 1063.6003 2079.2754 1060.4922 C 2075.6124 1058.4556 2072.0691 1056.6129 2069.1797 1055.2227 C 2067.735 1054.5275 2066.4673 1053.949 2065.3203 1053.4805 C 2064.7468 1053.2462 2064.2117 1053.04 2063.5879 1052.8398 C 2062.9644 1052.6398 2062.5925 1052.3252 2060.5156 1052.293 C 2062.8344 1052.3214 2061.2109 1052.344 2060.3105 1052.123 C 2059.3981 1051.8993 2058.0595 1051.5438 2056.4727 1051.0996 C 2053.2989 1050.2112 2049.1034 1048.9663 2044.7422 1047.6055 C 2034.9308 1044.5442 2024.3941 1042.3524 2016.0586 1043.2637 C 2014.4958 1043.4348 2012.6185 1043.3056 2011.4121 1043.0371 C 2010.2056 1042.7686 2009.8623 1041.7359 2011.4023 1043.7148 C 2008.69 1040.2381 2005.7431 1039.2557 2002.7988 1038.4434 C 1999.8545 1037.6312 1996.757 1037.3279 1993.4863 1037.6855 C 1993.7135 1037.6605 1990.0323 1037.4907 1986.2031 1036.6211 C 1982.3739 1035.7516 1977.8558 1034.3955 1973.9316 1032.8691 C 1968.1617 1030.625 1959.6873 1028.8213 1949.2129 1027.0078 C 1938.7384 1025.1942 1926.6327 1023.576 1915.209 1022.5645 C 1893.4247 1020.6356 1866.6106 1015.6584 1859.7598 1013.0996 C 1848.9835 1009.0736 1836.1865 1007.5148 1816.293 1007.6113 L 1816.2832 1007.6113 L 1816.2773 1007.6094 z M 1762.3359 1060.9473 L 1762.3359 1060.9492 C 1789.1173 1060.9322 1814.2333 1062.293 1835.8574 1065.1172 C 1858.3409 1068.0545 1890.4099 1071.999 1907.2969 1073.9121 C 1929.013 1076.3724 1949.5452 1079.5133 1965.4141 1082.6426 C 1973.3485 1084.2072 1980.1263 1085.7757 1985.1953 1087.207 C 1990.2644 1088.6383 1993.9683 1090.3812 1993.8965 1090.332 C 1997.4138 1092.7412 2001.0229 1093.8382 2005.3125 1094.959 C 2009.6021 1096.0798 2014.3243 1096.905 2018.9062 1097.2168 C 2024.066 1097.5676 2038.949 1101.7126 2054.5469 1107.7227 C 2070.1449 1113.7327 2087.2746 1121.5415 2100.0625 1128.791 C 2109.6478 1134.2251 2118.9485 1144.3733 2132.5137 1166.0781 C 2137.7945 1174.5274 2142.3977 1182.2389 2145.4902 1187.7285 C 2147.0021 1190.4124 2148.1312 1192.5444 2148.7598 1193.8418 C 2148.8078 1194.4892 2148.7917 1195.3259 2148.8867 1195.7852 C 2149.2134 1197.3719 2149.6651 1198.6509 2150.248 1200.1855 C 2151.4137 1203.2549 2153.1291 1207.0183 2155.252 1211.1582 C 2162.5708 1225.4303 2172.5791 1250.3663 2180.5352 1273.0176 C 2184.5133 1284.3432 2188.0057 1295.1455 2190.4531 1303.791 C 2192.9004 1312.4365 2194.1168 1319.8284 2194.1074 1320.4668 C 2194.0474 1324.517 2195.0179 1327.3741 2196.2344 1331.2617 C 2197.4514 1335.1507 2199.0783 1339.4303 2200.9316 1343.4707 C 2202.4465 1346.7733 2203.822 1350.4627 2204.7246 1353.4727 C 2205.6272 1356.4826 2205.7418 1359.6591 2205.873 1358.1758 C 2205.315 1364.4846 2207.0179 1369.5373 2209.9043 1374.6875 C 2211.3837 1377.3281 2214.4711 1387.5074 2216.791 1400.0371 C 2219.1108 1412.5668 2221.1678 1427.9588 2222.6777 1443.5195 C 2224.1876 1459.0802 2225.1528 1474.8368 2225.334 1488.1113 C 2225.5153 1501.3859 2224.7017 1512.554 2223.5273 1517.0703 C 2222.6455 1520.4707 2222.0887 1523.7093 2221.8945 1526.6465 C 2221.7975 1528.1151 2221.7689 1529.4826 2221.9727 1531.0664 C 2222.107 1532.1096 2222.0816 1533.4754 2223.0586 1535.1328 C 2223.1006 1535.5084 2223.1305 1535.6822 2223.1738 1536.2324 C 2223.3426 1538.4021 2223.4892 1541.7358 2223.582 1545.8086 C 2223.7676 1553.9542 2223.7563 1565.1328 2223.4941 1577.2207 C 2222.6738 1614.9749 2220.8216 1625.1276 2208.4082 1660.3477 C 2204.4286 1671.6385 2200.1746 1683.1181 2196.5527 1692.4512 C 2192.9308 1701.7843 2189.6909 1709.3912 2188.7031 1711.2715 C 2185.0962 1718.136 2181.6918 1727.3548 2180.3047 1734.4609 C 2179.1184 1740.5396 2173.2085 1750.5725 2145.4883 1787.2441 C 2145.2163 1787.604 2142.8131 1789.604 2136.9785 1791.6191 C 2131.1439 1793.6343 2122.2488 1795.7944 2109.8926 1798.1387 C 2090.4443 1801.8287 2070.0028 1806.1793 2062.3555 1808.416 C 2058.7797 1809.4619 2048.3435 1811.5339 2035.7031 1813.6523 C 2023.0627 1815.7706 2007.8406 1818.0746 1993.1191 1820.1309 C 1978.3977 1822.1872 1964.157 1823.9981 1953.5234 1825.1328 C 1948.2066 1825.7002 1943.7725 1826.0977 1940.7656 1826.2715 C 1939.5613 1826.3415 1938.8146 1826.3496 1938.1875 1826.3516 C 1937.3758 1826.0788 1936.8434 1826.108 1936.3887 1826.0312 C 1935.5777 1825.8943 1934.9325 1825.844 1934.2227 1825.8008 C 1932.8031 1825.7148 1931.1891 1825.6959 1929.2148 1825.7129 C 1925.2661 1825.7469 1919.9665 1825.9431 1913.5586 1826.2754 C 1900.7429 1826.9399 1883.5568 1828.1552 1864.9727 1829.7656 C 1823.687 1833.3431 1784.8266 1834.3155 1764.6621 1832.5098 C 1745.6093 1830.8038 1724.9561 1829.2035 1717.6152 1828.9297 C 1640.128 1826.0351 1580.7157 1819.2744 1557.9883 1811.8652 C 1549.4556 1809.0836 1532.7555 1805.5489 1518.8594 1803.373 C 1496.8939 1799.9338 1461.2851 1791.763 1441.7012 1785.6934 C 1435.7526 1783.8495 1420.6917 1780.5129 1405.8574 1777.5176 C 1379.7413 1772.244 1363.3283 1768.1003 1353.5586 1764.0547 C 1343.7889 1760.0091 1341.1709 1757.1407 1338.8691 1752.0391 C 1335.0073 1743.4793 1326.8828 1733.3544 1318.8574 1725.9277 C 1303.075 1711.3221 1284.7942 1682.0546 1275.3008 1655.1816 C 1270.7176 1642.2081 1260.6536 1615.3156 1252.8145 1595.0898 C 1226.3614 1526.841 1224.0171 1448.4408 1246.2363 1347.4414 C 1262.0098 1275.7425 1274.9695 1247.1241 1306.7754 1212.7305 C 1313.7436 1205.1954 1320.5368 1198.2816 1325.7402 1193.3301 C 1328.342 1190.8544 1330.5626 1188.86 1332.0801 1187.6113 C 1332.6828 1187.1153 1333.041 1186.8579 1333.3301 1186.6504 C 1333.0192 1186.7838 1332.6064 1186.9355 1331.3125 1187.0801 C 1332.2869 1186.9713 1332.8049 1186.7563 1333.4375 1186.5684 C 1333.4815 1186.5374 1333.6247 1186.422 1333.6543 1186.4023 C 1333.7213 1186.3573 1333.7027 1186.446 1333.7227 1186.5 C 1334.9748 1186.09 1335.9282 1185.6041 1336.8711 1185.0781 C 1338.3339 1184.262 1339.8099 1183.2924 1341.3945 1182.1641 C 1344.5638 1179.9076 1348.1115 1177.0271 1351.5566 1173.8711 C 1362.406 1163.9327 1385.4507 1151.4379 1443.1191 1125.8574 C 1453.1531 1121.4065 1462.9146 1117.0288 1470.5781 1113.5488 C 1478.2416 1110.0688 1483.3244 1107.7505 1485.7363 1106.4805 C 1490.4384 1104.0048 1493.5485 1102.6023 1502.7852 1099.8008 C 1512.0217 1096.9994 1527.0307 1093.0002 1553.9824 1085.9531 C 1606.6804 1072.1741 1673.5329 1063.4771 1735.0684 1061.4199 C 1744.2982 1061.1113 1753.4088 1060.9528 1762.3359 1060.9473 z M 1726.7402 1085.9766 C 1725.9511 1085.9766 1725.1285 1085.9866 1723.8926 1086.2676 C 1723.3469 1086.392 1722.5922 1086.626 1721.8008 1086.9941 C 1719.9722 1087.3424 1717.8518 1087.7701 1715.1016 1089.1855 C 1713.1217 1090.2046 1710.5595 1091.7962 1708.5762 1094.3535 C 1706.5928 1096.9108 1705.4615 1099.8931 1704.6406 1103.2656 C 1702.9989 1110.0107 1702.177 1119.3618 1700.6973 1136.6465 C 1700.1429 1143.1224 1699.3024 1149.9083 1698.4141 1155.4707 C 1697.5257 1161.0332 1696.2649 1165.9575 1696.1484 1166.252 C 1694.2513 1171.0474 1694.1038 1175.4578 1693.666 1181.998 C 1693.2283 1188.5384 1693.0648 1196.294 1693.2695 1203.9355 C 1693.4563 1210.9126 1693.1591 1218.629 1692.5371 1225.1914 C 1691.9151 1231.7538 1690.7087 1237.5655 1690.1953 1238.9141 C 1688.1344 1244.328 1686.1843 1248.9677 1687.8672 1254.8438 C 1689.55 1260.7197 1693.6988 1263.6184 1698.2773 1267.0352 C 1704.165 1271.4288 1709.3579 1274.6185 1715.5371 1275.5254 C 1721.7163 1276.4323 1728.921 1273.0488 1732.3867 1267.7715 C 1739.3182 1257.2169 1739.8271 1242.1417 1739.877 1217.2754 C 1739.901 1205.3704 1740.8523 1188.8596 1742.1543 1174.584 C 1742.8053 1167.4462 1743.5442 1160.847 1744.2793 1155.6855 C 1745.0144 1150.5242 1746.0573 1146.2626 1746.0801 1146.2031 C 1747.7727 1141.7829 1747.845 1137.8402 1747.9805 1132.5762 C 1748.1159 1127.3122 1747.8915 1121.3266 1747.2598 1115.5527 C 1746.1089 1105.0289 1739.6979 1097.9373 1735.5371 1093.8281 C 1735.3191 1093.6129 1735.389 1093.6941 1735.1777 1093.4844 C 1735.0502 1092.0344 1734.6948 1090.6045 1734.0352 1089.6367 C 1731.1523 1085.4076 1729.679 1086.3627 1728.9883 1086.2051 C 1728.2976 1086.0475 1727.9994 1086.0348 1727.7441 1086.0137 C 1727.2336 1085.9717 1726.9979 1085.9766 1726.7402 1085.9766 z M 1492.8203 1148.6914 L 1485.4199 1149.498 L 1485.4199 1151.8164 C 1485.2515 1151.9134 1485.125 1151.973 1484.9512 1152.0742 C 1482.4118 1153.5528 1479.3303 1155.4777 1476.1641 1157.5801 C 1471.9102 1160.4049 1468.3069 1163.5191 1465.7871 1167.6426 C 1463.2672 1171.7662 1462.2448 1176.9905 1463.0391 1181.8379 C 1464.6278 1191.5329 1471.1579 1199.6762 1481.3105 1210.3359 C 1489.4242 1218.8545 1502.1511 1235.099 1508.4316 1244.9453 C 1523.8906 1269.1813 1533.5454 1282.727 1549.8555 1303.0078 C 1556.5614 1311.346 1564.9502 1316.6661 1574.0703 1316.9805 C 1583.1904 1317.2949 1591.904 1311.6954 1596.709 1302.9434 C 1600.8955 1295.318 1601.5857 1285.6779 1597.502 1276.9805 C 1593.4182 1268.2831 1585.9236 1259.801 1574.25 1248.291 C 1569.0552 1243.169 1564.2596 1238.0153 1560.8574 1234.0117 C 1559.1563 1232.0098 1557.7972 1230.2776 1556.9883 1229.1289 C 1556.5869 1228.5587 1556.3264 1228.1265 1556.2676 1228.0195 C 1555.7549 1226.029 1555.0494 1224.8732 1554.2891 1223.6445 C 1553.2975 1222.0421 1552.1036 1220.3892 1550.7012 1218.5938 C 1547.8965 1215.0027 1544.2753 1210.9004 1540.3105 1206.8828 C 1533.7761 1200.2611 1521.8101 1184.4235 1515.3242 1173.5605 C 1511.7823 1167.6286 1508.3577 1162.2706 1505.5762 1158.2598 C 1504.1855 1156.2544 1502.9793 1154.6069 1501.8457 1153.2363 C 1501.2788 1152.551 1500.7659 1151.9481 1499.9883 1151.2305 C 1499.5995 1150.8717 1499.1695 1150.4761 1498.3242 1149.957 C 1497.48 1149.4386 1496.1901 1148.3281 1492.832 1148.6914 C 1492.822 1148.692 1492.8303 1148.6914 1492.8203 1148.6914 z M 1935.4219 1148.7324 C 1934.387 1148.7174 1933.3106 1148.7684 1932.1953 1148.9023 C 1924.0485 1149.8278 1916.207 1154.1462 1907.6914 1162.2598 C 1899.1635 1170.3851 1889.1754 1182.574 1874.8281 1201.3906 C 1861.5811 1218.7641 1842.988 1239.6966 1835.7793 1245.9414 C 1827.4616 1253.1468 1821.646 1260.8719 1819.1543 1269.1465 C 1816.6626 1277.421 1818.6422 1287.3184 1825.6875 1292.9746 C 1829.9439 1296.3919 1834.4754 1296.3171 1838.4668 1295.8105 C 1842.4582 1295.304 1846.4553 1294.0235 1850.6133 1292.2363 C 1858.9293 1288.662 1867.7927 1282.9929 1875.2285 1275.918 C 1885.7996 1265.8599 1904.0584 1245.3336 1920.6074 1225.7598 C 1928.8819 1215.9728 1936.6639 1206.4816 1942.6992 1198.7598 C 1945.7169 1194.8988 1948.2945 1191.4856 1950.3184 1188.6348 C 1952.3422 1185.7839 1953.7199 1183.8975 1954.875 1181.248 C 1958.1078 1173.8338 1957.7387 1165.7114 1954.0664 1159.4141 C 1951.7472 1155.4372 1947.9854 1152.4299 1943.6035 1150.6074 L 1943.6035 1148.8496 L 1935.4219 1148.7324 z M 2201.2559 1185.7168 C 2201.6618 1185.9626 2201.8303 1186.0174 2202.2539 1186.2793 C 2209.9564 1191.0431 2220.1978 1198.0846 2230.3223 1205.502 C 2240.4467 1212.9192 2250.5046 1220.7465 2257.9199 1227.0645 C 2261.6276 1230.2234 2264.6868 1233.0277 2266.6348 1235.043 C 2267.557 1235.9971 2268.176 1236.7372 2268.4766 1237.1348 C 2268.3541 1236.8672 2268.1979 1236.4512 2268.0723 1235.3027 C 2268.1483 1236.0002 2268.3601 1236.5657 2268.5195 1237.1816 C 2268.5295 1237.1946 2268.5711 1237.241 2268.5801 1237.252 C 2268.6561 1237.3554 2268.5787 1237.3049 2268.5547 1237.3379 C 2269.5454 1240.98 2271.8018 1243.3382 2274.1016 1245.1055 C 2276.8181 1247.193 2279.9658 1248.6286 2283.5312 1249.3457 C 2283.4393 1249.3267 2285.7536 1250.2659 2287.873 1251.9629 C 2289.9924 1253.6599 2292.1806 1256.004 2293.5176 1258.0176 C 2296.863 1263.0556 2302.5089 1268.2916 2310.6523 1275.7559 C 2318.7958 1283.2202 2328.9538 1291.9554 2339.293 1300.2754 C 2349.3183 1308.3427 2359.4257 1317.1368 2367.5156 1324.7012 C 2375.6055 1332.2655 2382.0071 1339.281 2383.1719 1341.0352 C 2393.3787 1356.4058 2420.7798 1383.8525 2441.5781 1400.541 C 2445.5727 1403.7464 2459.6919 1420.1225 2469.2422 1434.0195 C 2474.2612 1441.3228 2479.4812 1448.5478 2483.9102 1454.3906 C 2488.3391 1460.2335 2491.2523 1464.1454 2494.4355 1467.0215 C 2498.5932 1470.7778 2513.6714 1487.8642 2526.6133 1503.5293 C 2533.0843 1511.3618 2539.225 1519.0103 2543.7051 1524.8535 C 2545.9452 1527.7751 2547.7761 1530.2583 2548.9629 1531.9824 C 2549.4841 1532.7396 2549.8172 1533.2663 2550.0312 1533.6211 C 2549.9363 1533.3342 2549.8355 1533.1105 2549.7051 1531.918 C 2549.7891 1532.6807 2550.0218 1533.1936 2550.1719 1533.8359 C 2550.1719 1533.8359 2550.1816 1533.8457 2550.1816 1533.8477 C 2550.1816 1533.8577 2550.1716 1533.8573 2550.1816 1533.8633 C 2550.706 1536.0901 2551.486 1537.8989 2552.4922 1539.8184 C 2553.7921 1542.298 2555.4265 1544.9193 2557.3125 1547.6504 C 2561.0844 1553.1125 2565.8248 1558.9518 2570.7129 1563.8398 C 2572.0027 1565.1297 2571.6052 1564.7729 2571.5957 1564.877 C 2571.5857 1564.981 2571.1178 1566.7391 2568.459 1569.7188 C 2563.1414 1575.678 2550.3789 1585.3097 2529.4707 1598.75 C 2485.7293 1626.8676 2477.1992 1632.8793 2463.0625 1645.543 C 2428.7798 1676.2537 2336.5532 1723.8681 2291.8359 1733.9492 C 2281.6873 1736.2371 2264.6785 1742.6889 2251.502 1748.9199 C 2241.4274 1753.684 2232.7153 1756.9284 2226.2852 1758.7539 C 2228.1291 1754.8188 2230.1664 1750.5365 2232.7012 1745.6328 C 2235.9637 1739.3208 2238.8839 1733.2531 2241.0215 1728.418 C 2242.0903 1726.0004 2242.9608 1723.9059 2243.6152 1722.1152 C 2243.9424 1721.2199 2244.2154 1720.4132 2244.4512 1719.5352 C 2244.6869 1718.6574 2245.162 1718.1942 2244.8574 1715.4121 C 2245.0677 1717.3377 2244.8474 1716.5474 2244.9805 1715.8652 C 2245.1107 1715.1831 2245.369 1714.0574 2245.7305 1712.6543 C 2246.4534 1709.8482 2247.5928 1705.8947 2249.0469 1701.1641 C 2251.9549 1691.7029 2256.1289 1679.0875 2260.9219 1665.4316 C 2263.977 1656.7271 2266.4379 1641.7745 2267.3828 1629.1836 C 2267.8185 1623.3798 2268.3856 1617.7293 2268.9297 1613.4258 C 2269.2017 1611.274 2269.4702 1609.4498 2269.6934 1608.1953 C 2269.9165 1606.9408 2270.6127 1605.525 2269.7266 1607.3848 C 2272.0078 1602.5971 2271.775 1598.8354 2271.9785 1587.1406 C 2272.182 1575.4459 2272.1344 1556.0572 2271.9492 1522.8398 C 2271.8194 1499.6609 2271.7001 1466.1876 2271.6914 1448.5371 C 2271.6674 1408.1201 2267.3603 1380.8268 2256.248 1352.5801 C 2251.8737 1341.4599 2247.2823 1326.1105 2246.5234 1321.4219 C 2245.2587 1313.6024 2241.4506 1300.5198 2236.1777 1284.1484 C 2230.9048 1267.7772 2224.1995 1248.5839 2217.3184 1230.457 C 2208.6596 1207.6468 2203.7282 1194.0056 2201.2559 1185.7168 z M 2158.123 1201.1328 L 2158.123 1201.1367 C 2158.107 1201.1367 2158.0883 1201.1543 2158.0723 1201.1562 L 2158.0449 1201.1562 C 2158.0699 1201.1562 2158.098 1201.1368 2158.123 1201.1328 z M 1231.0547 1237.0059 C 1230.0691 1239.7454 1229.4167 1241.959 1228.1621 1245.0332 C 1199.3149 1315.721 1184.7557 1411.6197 1186.666 1515.3105 C 1186.9877 1532.7707 1187.1624 1541.9197 1187.9629 1549.0039 C 1188.7634 1556.0881 1190.343 1560.8946 1192.7637 1567.6074 C 1194.0747 1571.2428 1200.8913 1591.7159 1207.4902 1611.9629 C 1210.8305 1622.2113 1214.4861 1632.7076 1217.7188 1641.4434 C 1220.9513 1650.1792 1223.524 1656.7737 1225.625 1660.7891 C 1227.9896 1665.3092 1231.0695 1675.3498 1231.5488 1679.7324 C 1232.3399 1686.9676 1235.4322 1695.2923 1239.5273 1704.373 C 1243.0929 1712.2796 1247.4993 1720.2145 1252.0918 1727.1504 C 1250.7102 1726.6919 1249.6506 1726.375 1247.9688 1725.7793 C 1241.4022 1723.4537 1232.8638 1720.1972 1224.25 1716.7598 C 1215.6362 1713.3223 1206.9256 1709.6956 1199.9844 1706.6289 C 1193.0432 1703.5622 1187.0334 1700.3225 1187.1523 1700.4082 C 1184.5606 1698.5404 1181.7834 1697.0971 1178.9766 1696.0312 C 1176.1697 1694.9653 1173.6755 1694.0212 1169.7148 1694.4531 C 1170.9465 1694.3184 1168.0746 1694.2724 1164.7441 1693.3438 C 1161.4136 1692.4151 1157.0002 1690.9188 1152.0391 1689.0195 C 1142.117 1685.2209 1129.9441 1679.8061 1118.6309 1673.9746 C 1095.0166 1661.8022 1079.5853 1655.7325 1050.6777 1647.1641 C 1037.4329 1643.2383 979.95305 1622.4207 926.25 1602.3789 C 899.39847 1592.3579 873.28229 1582.472 853.57617 1574.8398 C 843.72311 1571.0237 835.46621 1567.7691 829.56641 1565.3613 C 827.34471 1564.4546 825.83121 1563.805 824.33984 1563.1641 C 825.25872 1561.727 826.58086 1559.8184 828.44141 1557.5078 C 836.0609 1548.0449 851.60079 1531.6346 878.37305 1504.2617 C 923.8018 1457.8135 956.58574 1428.8398 994.56445 1401.4492 C 1005.1193 1393.837 1018.4548 1383.1878 1025.2695 1376.8496 C 1028.2051 1374.1192 1031.1833 1371.5868 1033.4395 1369.8359 C 1034.5676 1368.9604 1035.531 1368.2746 1036.0781 1367.9238 C 1036.6252 1367.573 1038 1367.8548 1034.3984 1368.25 C 1037.3739 1367.9241 1037.5864 1367.3352 1038.3359 1366.9277 C 1039.0857 1366.52 1039.7465 1366.1051 1040.4707 1365.625 C 1041.9189 1364.6646 1043.5774 1363.4569 1045.4863 1362.0059 C 1049.3042 1359.104 1054.0573 1355.2534 1058.9707 1351.041 C 1083.6848 1329.8522 1085.1785 1328.8144 1136.5938 1295.9355 C 1160.5644 1280.607 1175.8099 1271.0646 1185.3613 1265.5449 C 1190.137 1262.785 1193.5088 1261.0352 1195.582 1260.1328 C 1197.6411 1259.2365 1198.4264 1259.4976 1196.8906 1259.3613 C 1200.4448 1259.6797 1201.5837 1258.7098 1202.8438 1258.0898 C 1204.105 1257.4692 1205.1742 1256.776 1206.2773 1255.9883 C 1208.4835 1254.413 1210.7406 1252.4507 1212.9238 1250.1953 C 1215.9816 1247.0365 1223.9557 1241.2484 1231.0547 1237.0059 z M 1369.873 1299.791 C 1365.277 1300.0622 1361.7298 1301.98 1358.2285 1304.0625 C 1353.6558 1306.7816 1349.3007 1310.5159 1347.3184 1315.8633 C 1345.336 1321.2108 1345.6475 1326.5021 1346.3848 1333.2441 C 1347.3554 1342.1191 1348.9947 1349.7106 1354.8008 1355.3359 C 1360.6069 1360.9611 1368.1016 1363.2251 1379.2129 1366.2949 C 1390.6973 1369.4677 1422.3779 1384.5472 1442.6699 1397.2012 C 1450.5501 1402.1154 1460.3562 1404.3961 1469.5469 1403.2441 C 1474.9291 1402.5642 1480.3933 1401.6939 1484.3203 1396.7988 C 1488.2464 1391.9048 1488.1046 1386.7311 1488.0352 1380.9219 C 1487.9702 1375.2716 1487.082 1369.8905 1484.1953 1365.1875 C 1481.3084 1360.484 1477.0467 1357.1843 1471.8281 1353.998 C 1461.8518 1347.9072 1448.2211 1340.2788 1436.1211 1333.8477 C 1430.0711 1330.632 1424.4183 1327.7245 1419.7754 1325.4551 C 1415.1325 1323.1857 1412.0076 1321.6531 1408.8887 1320.709 C 1409.1984 1320.803 1405.7167 1319.2419 1402.2715 1317.125 C 1398.8263 1315.0081 1394.7577 1312.2523 1391.1035 1309.5039 C 1387.0886 1306.4841 1383.926 1304.2069 1380.6719 1302.4824 C 1377.4178 1300.7579 1373.6849 1299.5709 1369.8672 1299.7949 L 1369.873 1299.791 z M 2043.0273 1307.5781 C 2032.8612 1307.7049 2022.5344 1312.8829 2011.1934 1321.7305 C 2004.4077 1327.0233 1992.1157 1331.9772 1975.3887 1335.0723 C 1953.3809 1339.1445 1935.3141 1345.9215 1922.9395 1354.6973 C 1916.7521 1359.0851 1911.8591 1364.008 1909.0176 1370.043 C 1906.176 1376.0779 1905.9954 1383.5973 1909.1953 1389.8145 C 1910.9764 1393.275 1914.576 1396.4035 1918.5098 1397.6953 C 1922.4436 1398.9871 1926.4465 1398.9958 1931.0195 1398.4805 C 1940.1656 1397.4497 1952.1254 1394.0493 1970.084 1388.1641 C 1985.612 1383.0755 2003.9821 1377.3463 2010.0352 1375.6875 C 2017.9642 1373.5141 2031.4543 1367.9785 2042.25 1362.7441 C 2050.3443 1358.8199 2055.7919 1355.9699 2060.0195 1351.4453 C 2064.2471 1346.9207 2065.8011 1340.6526 2065.8398 1335.0801 C 2065.8918 1327.5095 2064.391 1320.7872 2060.332 1315.541 C 2056.2738 1310.2958 2049.5638 1307.497 2043.0312 1307.5801 L 2043.0273 1307.5781 z M 1723.834 1320.3262 L 1723.832 1320.3281 C 1716.7334 1320.0578 1709.7954 1320.0794 1703.2227 1320.3848 C 1692.998 1320.8593 1683.6837 1322.0191 1675.832 1324.043 C 1667.9803 1326.0668 1661.3268 1328.5161 1656.6465 1334.3457 C 1656.6675 1334.3197 1653.1642 1336.1265 1653.7852 1336.0586 C 1649.4381 1336.5345 1648.7804 1337.6728 1646.7324 1338.8965 C 1644.6845 1340.1202 1642.3787 1341.6777 1639.7949 1343.5391 C 1634.6273 1347.2619 1628.4076 1352.1793 1622.1719 1357.543 C 1586.9263 1387.8601 1571.074 1419.0907 1573.418 1456.0469 C 1575.238 1484.7496 1587.0107 1527.2655 1599.8398 1546.9824 C 1607.3515 1558.5269 1618.8706 1570.5271 1631.1426 1580.8047 C 1643.4146 1591.0824 1656.0989 1599.5538 1667.4824 1603.3555 C 1700.9852 1614.5448 1746.5355 1604.8528 1789.1621 1580.1445 C 1812.095 1566.8518 1822.072 1555.451 1838.5996 1523.5293 C 1855.3237 1491.2277 1859.2033 1456.6595 1850.7031 1418.416 C 1844.6517 1391.1899 1838.7195 1372.7784 1828.791 1359 C 1818.8625 1345.2215 1805.0632 1337.1694 1786.5586 1330.9043 C 1767.873 1324.578 1745.1298 1321.1371 1723.834 1320.3262 z M 1712.9668 1373.5703 C 1747.8029 1373.4196 1770.2891 1377.4392 1783.6992 1386.1133 C 1799.025 1396.0265 1805.5262 1412.4159 1807.4824 1442.9512 C 1809.5587 1475.3584 1806.6151 1486.333 1789.2734 1511.0605 C 1785.0924 1517.0221 1776.227 1525.3687 1767.3418 1531.8203 C 1758.4566 1538.2719 1748.4031 1542.7483 1746.4219 1542.9648 C 1740.3377 1543.6297 1735.9991 1545.9555 1732.1309 1550.7676 C 1731.0911 1552.0609 1724.1801 1555.5959 1715.6035 1556.498 C 1707.0269 1557.4002 1697.0424 1556.3776 1690.1895 1553.6621 C 1657.2126 1540.5954 1634.7161 1514.3083 1625.8789 1485.9844 C 1617.0417 1457.6604 1621.6383 1427.8602 1642.8008 1405.9121 C 1655.6719 1392.5632 1664.6737 1384.6585 1672.4316 1380.2012 C 1680.1896 1375.7439 1686.841 1374.2503 1697.2715 1373.8887 C 1702.7617 1373.6984 1707.9902 1373.5918 1712.9668 1373.5703 z M 1944.709 1486.4492 C 1939.2129 1486.7875 1933.9062 1488.6502 1929.8535 1492.0527 C 1925.8008 1495.4553 1923.1538 1499.9175 1921.041 1504.8984 C 1918.7283 1510.3508 1916.4006 1514.1209 1917.7324 1520.3125 C 1918.3984 1523.4083 1920.4234 1526.1 1922.2949 1527.7266 C 1924.1664 1529.3532 1925.9802 1530.3968 1928.0352 1531.5801 C 1932.0449 1533.8888 1936.6295 1535.1884 1942.4277 1536.6523 C 1948.2259 1538.1163 1954.8541 1539.4033 1961.2188 1540.2129 C 1966.9197 1540.9381 1972.4031 1541.9388 1976.3809 1542.8984 C 1978.3698 1543.3783 1979.9991 1543.8605 1980.918 1544.1953 C 1981.8368 1544.5301 1982.2944 1546.0303 1979.8613 1542.9121 C 1982.3883 1546.151 1985.0398 1547.0328 1987.6348 1547.7656 C 1990.2297 1548.4985 1992.9208 1548.7757 1995.8145 1548.459 C 1995.3552 1548.509 1998.3958 1548.5794 2001.5078 1549.1875 C 2004.6198 1549.7957 2008.3234 1550.757 2011.541 1551.8398 C 2019.1931 1554.415 2034.3198 1558.8562 2045.8848 1561.9453 C 2061.4863 1566.1124 2072.6551 1568.1288 2082.2129 1566.6719 C 2086.9918 1565.9435 2091.5305 1564.0986 2095.0039 1560.8945 C 2098.4774 1557.6903 2100.5865 1553.4462 2101.7285 1549.0547 C 2103.246 1543.2187 2103.8389 1537.7739 2102.957 1532.5508 C 2102.0752 1527.3277 2099.4114 1522.3447 2095.3438 1518.9238 C 2087.2082 1512.082 2075.9062 1511.1082 2061.6992 1512.457 C 2060.7696 1512.545 2056.2756 1512.2778 2051.459 1511.3867 C 2046.6424 1510.4956 2041.1217 1509.1094 2036.3984 1507.5352 C 2025.5915 1503.9337 2013.815 1500.7377 2006.4355 1500.1465 C 2005.267 1500.0525 2000.1041 1499.0881 1994.3223 1497.6348 C 1988.5404 1496.1816 1981.7072 1494.2503 1975.3711 1492.2383 C 1962.6361 1488.1946 1953.2469 1485.9253 1944.709 1486.4512 L 1944.709 1486.4492 z M 1504.5898 1507.8398 L 1495.8613 1508.291 C 1483.0913 1508.9515 1468.5659 1516.4465 1449.6484 1529.3965 C 1446.4228 1531.6047 1443.2619 1533.6565 1440.877 1535.1172 C 1439.6845 1535.8475 1438.6747 1536.4358 1438.043 1536.7773 C 1437.7272 1536.9481 1437.4971 1537.0576 1437.4863 1537.0625 C 1437.4763 1537.0625 1437.5954 1536.9061 1438.8828 1536.6816 C 1437.3519 1536.9382 1437.0432 1537.1588 1436.5332 1537.3613 C 1436.0003 1537.5729 1435.4985 1537.7953 1434.9375 1538.0527 C 1433.8156 1538.5676 1432.4901 1539.2171 1430.959 1539.9941 C 1427.8969 1541.5483 1424.0467 1543.5987 1420.041 1545.8184 C 1413.1653 1549.6286 1399.8603 1554.8869 1392.8398 1556.6309 C 1377.3953 1560.4686 1367.0329 1571.8487 1364.1504 1584.0645 C 1362.7092 1590.1723 1363.1885 1596.9008 1366.8496 1602.502 C 1370.5106 1608.103 1377.2195 1611.6811 1384.8672 1612.3145 C 1389.816 1612.7244 1395.1541 1613.1399 1397.2324 1613.2637 L 1397.248 1613.2637 L 1397.2617 1613.2637 C 1399.6684 1613.3988 1400.1455 1612.9782 1400.7949 1612.7695 C 1401.4442 1612.5607 1401.9387 1612.3583 1402.4551 1612.1348 C 1403.4879 1611.6878 1404.5635 1611.1555 1405.8301 1610.498 C 1408.3634 1609.1829 1411.5957 1607.3785 1415.4277 1605.1562 C 1423.0916 1600.7116 1433.0969 1594.6215 1443.7109 1587.8926 C 1454.1017 1581.3053 1464.4334 1575.2049 1472.5684 1570.7598 C 1476.6359 1568.5373 1480.1664 1566.7257 1482.7773 1565.5098 C 1485.3882 1564.294 1488.0344 1563.789 1486.1934 1563.9902 C 1495.5153 1562.9705 1502.3495 1556.8782 1507.8574 1549.9844 C 1513.3653 1543.0907 1517.7921 1535.07 1516.7734 1525.7578 C 1516.2234 1520.7259 1514.1245 1515.6838 1510.0723 1512.3789 C 1508.4134 1511.0259 1506.5381 1510.1331 1504.5918 1509.4727 L 1504.5898 1507.8398 z M 1870.6016 1598.2969 C 1863.2894 1598.568 1856.0129 1601.1117 1850.1895 1606.0566 C 1844.3659 1611.0016 1840.1879 1618.9965 1840.9336 1627.9961 C 1841.1714 1630.8653 1841.8371 1631.544 1842.3848 1632.6172 C 1842.9324 1633.6904 1843.551 1634.7164 1844.2812 1635.8535 C 1845.7417 1638.1277 1847.6478 1640.7971 1849.9512 1643.8496 C 1854.5579 1649.9547 1860.7273 1657.5267 1867.4785 1665.2695 C 1874.0805 1672.8411 1880.6211 1680.4783 1885.8145 1686.6543 C 1891.0077 1692.8303 1895.118 1697.9409 1895.8457 1698.9629 C 1900.8523 1705.9951 1910.8948 1717.4341 1920.8965 1728.2246 C 1925.8973 1733.6199 1930.8299 1738.7647 1935.0078 1742.9062 C 1939.1857 1747.0477 1941.9588 1749.8657 1945.2754 1752.0312 C 1955.552 1758.7416 1967.9502 1758.4224 1975.8809 1751.7422 C 1983.8115 1745.062 1986.448 1733.1187 1982.2188 1721.5137 C 1980.37 1716.4407 1977.0738 1712.1491 1972.8945 1707.2363 C 1968.7153 1702.3235 1963.6699 1697.2736 1958.4512 1692.9707 C 1949.5077 1685.5965 1933.4264 1668.0997 1920.0996 1651.7773 C 1913.4362 1643.6163 1907.365 1635.6766 1903.0156 1629.3867 C 1900.841 1626.2418 1899.0936 1623.496 1897.9727 1621.4863 C 1896.8517 1619.4767 1896.5537 1617.6351 1896.7285 1619.2344 C 1895.9662 1612.2598 1892.2328 1606.2382 1887.2051 1602.7637 C 1882.1773 1599.2892 1876.29 1598.086 1870.6016 1598.2969 z M 1576.1602 1626.8672 C 1576.1272 1626.8668 1576.0985 1626.8809 1576.0645 1626.8809 L 1576.0156 1635.1719 L 1576.0137 1635.1738 L 1576.0625 1626.8828 C 1567.8607 1626.8258 1560.9614 1631.6466 1555.8438 1638.1035 C 1550.705 1644.587 1546.9173 1653.1433 1544.7812 1663.1758 C 1543.7899 1667.8324 1542.2772 1673.0439 1540.709 1677.4219 C 1539.1409 1681.8 1537.2096 1685.6231 1536.7695 1686.2441 C 1534.9876 1688.7595 1533.6573 1690.9408 1532.7285 1693.5723 C 1532.264 1694.888 1531.5505 1696.1717 1532.1211 1699.3438 C 1532.2345 1699.9738 1532.5655 1700.7778 1532.9336 1701.5664 C 1532.5485 1703.2654 1531.8876 1705.6837 1530.7188 1708.6719 C 1527.7237 1716.3291 1524.5562 1724.9754 1523.2891 1729.1875 C 1521.1032 1736.4538 1521.8865 1743.8412 1524.4141 1750.1836 C 1526.9417 1756.526 1531.5942 1762.9853 1539.8887 1763.9531 C 1544.2316 1764.46 1548.9936 1764.317 1553.5078 1762.2539 C 1558.0219 1760.1908 1561.6302 1756.5168 1564.6367 1751.8965 C 1570.6497 1742.6559 1575.5858 1728.7794 1583.2891 1705.2109 C 1585.0785 1699.7366 1587.9256 1692.0527 1589.1719 1689.166 C 1595.284 1675.0082 1598.7539 1664.0048 1598.9453 1654.1934 C 1599.1366 1644.3818 1594.6806 1635.3253 1587.0859 1630.3086 C 1583.8196 1628.1508 1579.9706 1626.9117 1576.1602 1626.8672 z M 1698.7656 1674.9727 L 1698.7656 1674.9863 C 1698.6387 1674.9863 1698.5075 1674.9763 1698.3809 1674.9863 C 1695.3832 1675.126 1692.5209 1675.4861 1689.7031 1676.3535 C 1686.8846 1677.2211 1683.3377 1678.2568 1681.0488 1683.0605 C 1679.5055 1686.2994 1680.0855 1686.4998 1679.998 1687.6465 C 1679.91 1688.7936 1679.871 1690.0504 1679.8535 1691.5391 C 1679.8185 1694.5164 1679.8835 1698.3681 1680.0332 1702.9473 C 1680.3331 1712.1055 1680.9769 1724.1227 1681.8945 1736.918 C 1682.798 1749.5073 1683.3972 1761.4443 1683.6309 1770.4102 C 1683.7478 1774.8931 1683.771 1778.6475 1683.7051 1781.2598 C 1683.6721 1782.5659 1683.6141 1783.5973 1683.5586 1784.166 C 1683.5036 1784.7347 1682.9417 1785.3905 1683.9902 1783.1895 C 1681.2312 1788.9813 1683.1963 1792.206 1684.5664 1795.5547 C 1685.9364 1798.9034 1687.941 1802.2044 1690.5137 1805.3281 C 1695.2175 1811.0393 1701.2773 1815.0192 1708.0566 1816.0898 C 1714.8359 1817.1605 1721.9363 1815.0322 1727.543 1810.5391 C 1730.8737 1807.8695 1730.9272 1805.9772 1731.4707 1804.1973 C 1732.0141 1802.4173 1732.3559 1800.6183 1732.6484 1798.6348 C 1733.2334 1794.6677 1733.5523 1790.0211 1733.6621 1785.2207 C 1733.7718 1780.4202 1733.6621 1775.517 1733.291 1771.1426 C 1732.9183 1766.7681 1732.6847 1763.3354 1730.8164 1759.3281 C 1729.3045 1756.0844 1726.9873 1746.0247 1725.9297 1735.9531 C 1724.872 1725.8815 1724.809 1715.0876 1725.7363 1709.4863 C 1726.795 1703.0919 1727.2859 1697.8852 1726.9531 1693.2402 C 1726.6203 1688.5953 1725.5097 1683.7373 1721.207 1680.2832 C 1717.5959 1677.3838 1713.9513 1676.4901 1710.1074 1675.7695 C 1706.3907 1675.0728 1702.514 1674.8431 1698.7676 1674.9902 L 1698.7676 1674.9766 L 1698.7656 1674.9727 z M 2755.3262 1940.7012 C 2750.0055 1940.51 2745.7334 1942.5048 2740.7773 1945.0488 C 2735.5342 1947.74 2730.7576 1951.6881 2727.791 1957.1875 C 2724.8244 1962.6869 2723.3982 1969.0215 2721.9434 1977.8301 C 2721.0399 1983.2995 2719.7268 1989.059 2718.3984 1993.6973 C 2717.0701 1998.3355 2715.1142 2002.428 2715.418 2001.9863 C 2712.7859 2005.8131 2711.7028 2009.6143 2710.1641 2014.7988 C 2708.6253 2019.9833 2707.1896 2026.0255 2706.1543 2031.9648 C 2704.2681 2042.7848 2699.5308 2065.5803 2695.7344 2081.9961 C 2693.7812 2090.4416 2692.077 2098.9141 2690.8848 2105.8906 C 2690.2887 2109.3789 2689.8211 2112.4858 2689.5117 2115.0977 C 2689.2023 2117.7095 2688.9595 2119.4893 2689.1602 2121.9473 C 2689.1462 2121.7784 2687.4242 2125.655 2686.998 2125.9414 C 2682.8582 2128.7239 2680.9454 2132.3772 2679.418 2136.2754 C 2677.8904 2140.174 2677.0105 2144.458 2677.0625 2148.9238 C 2677.1055 2152.5754 2674.2464 2166.6274 2670.7676 2175.6348 C 2668.7348 2180.8984 2666.9742 2186.3075 2665.7109 2190.9961 C 2664.4476 2195.6847 2663.3575 2198.5275 2663.752 2203.3457 C 2663.6282 2201.835 2663.673 2204.0139 2663.2852 2206.2441 C 2662.8973 2208.4744 2662.2726 2211.5235 2661.4746 2215.0684 C 2659.8787 2222.1582 2657.5838 2231.2666 2655.0059 2240.5312 C 2649.2782 2261.1152 2646.1597 2273.759 2648.4688 2284.5762 C 2649.6232 2289.9848 2653.3654 2295.2588 2658.3477 2297.5977 C 2663.3299 2299.9365 2668.4568 2300.009 2674.041 2299.5527 C 2678.5643 2299.1832 2682.745 2298.5317 2686.7793 2296.6367 C 2690.8136 2294.7418 2694.3954 2291.325 2696.582 2287.2266 C 2700.9552 2279.0297 2701.5654 2269.076 2702.1895 2253.127 C 2702.6044 2242.5253 2705.7303 2224.2244 2709.6328 2207.8789 C 2711.5841 2199.7061 2713.7263 2191.9505 2715.7578 2185.7812 C 2717.6955 2179.8969 2719.7454 2175.5805 2720.4375 2174.4512 C 2720.7926 2174.439 2722.8664 2173.1217 2727.3379 2172.2344 C 2733.3979 2171.0318 2743.0691 2169.961 2756.8457 2169.0059 C 2786.8574 2166.925 2802.1687 2166.6827 2807.5996 2168.5645 C 2810.3151 2169.5053 2810.9241 2170.0865 2812.373 2172.6777 C 2813.822 2175.2689 2815.3987 2180.0842 2817.4082 2186.9902 C 2827.6391 2222.1522 2836.1982 2244.5169 2847.2441 2264.3301 C 2851.8236 2272.5442 2856.6485 2287.1753 2857.2051 2292.8477 C 2858.2352 2303.344 2862.1173 2313.5975 2869.3945 2320.4258 C 2872.022 2322.8913 2874.6631 2324.949 2877.2559 2326.5176 C 2878.5523 2327.3019 2879.7981 2327.9771 2881.4121 2328.5215 C 2883.0255 2329.0657 2885.3444 2330.3738 2889.6055 2328.0488 C 2896.4736 2324.3033 2901.8863 2321.2285 2906.3105 2317.6777 C 2910.7357 2314.1261 2914.441 2309.5369 2915.6211 2303.8652 C 2917.9812 2292.5217 2912.0927 2282.8548 2903.332 2266.7383 C 2900.2166 2261.007 2897.2905 2254.9491 2895.166 2249.9902 C 2893.0415 2245.0313 2891.8345 2239.988 2891.9258 2241.1074 C 2891.6619 2237.873 2890.7669 2234.9528 2889.4023 2232.2715 C 2888.0376 2229.5903 2886.462 2226.9493 2882.6484 2225.002 C 2884.3734 2225.8828 2883.611 2225.8109 2883.2031 2224.9668 C 2882.7952 2224.1226 2882.4017 2222.7407 2882.3184 2221.7207 C 2881.7064 2214.2234 2878.3309 2207.2583 2873.8301 2201.2051 C 2869.8076 2195.7953 2866.2067 2186.3515 2864.7109 2177.4102 C 2863.2151 2168.4688 2864.2906 2159.8428 2865.6309 2157.3809 C 2870.1637 2149.0544 2871.1493 2139.5649 2867.8457 2131.3203 C 2864.5421 2123.0756 2857.6196 2116.5418 2848.457 2111.6387 C 2843.7367 2109.1128 2841.7611 2107.5145 2839.6504 2104.291 C 2837.5397 2101.0674 2835.354 2095.5856 2832.5801 2086.1777 C 2828.5395 2072.4742 2821.507 2055.2369 2815.6699 2045.4902 C 2811.8732 2039.1503 2802.1144 2017.9386 2794.0215 1998.6855 C 2789.975 1989.059 2786.2378 1979.7576 2783.6016 1972.6875 C 2782.2835 1969.1525 2781.2389 1966.1599 2780.5977 1964.0898 C 2780.277 1963.0547 2780.0586 1962.2373 2779.9707 1961.8418 C 2779.8827 1961.4474 2780.2582 1960.9165 2779.877 1963.3359 C 2780.5563 1959.0295 2779.1086 1957.6435 2778.3203 1956.3145 C 2777.532 1954.9855 2776.6937 1953.9414 2775.7461 1952.8711 C 2773.8509 1950.7306 2771.5187 1948.5997 2768.8535 1946.5566 C 2764.9282 1943.547 2760.6487 1940.9015 2755.334 1940.7031 L 2755.3242 1940.7031 L 2755.3262 1940.7012 z M 2389.6797 1974.3223 C 2383.7003 1974.2132 2379.3678 1974.4415 2375.3281 1975.6348 C 2371.2885 1976.828 2367.7927 1979.5013 2365.6992 1982.0078 C 2363.6541 1984.4564 2363.0506 1986.3261 2362.1309 1988.7715 C 2361.2112 1991.2168 2360.3282 1994.0654 2359.4297 1997.3203 C 2357.6327 2003.8301 2355.802 2011.9356 2354.0957 2020.6875 C 2350.6831 2038.1914 2347.7807 2058.0837 2347.123 2072.3652 C 2346.8071 2079.2192 2344.9443 2090.6413 2343.5215 2095.332 C 2341.0949 2103.3326 2338.0836 2121.6301 2335.7734 2139.3672 C 2330.3189 2181.2462 2328.1208 2195.932 2324.3906 2215.3418 C 2321.3012 2231.4182 2319.1412 2251.87 2318.2246 2269.0547 C 2317.7663 2277.6471 2317.6181 2285.3792 2317.8711 2291.4863 C 2317.9976 2294.5399 2318.2088 2297.1625 2318.625 2299.5391 C 2319.0412 2301.9156 2318.245 2304.0525 2322.6602 2307.8008 C 2325.467 2310.1841 2326.0828 2309.7328 2327.2188 2310.0625 C 2328.3549 2310.3923 2329.5308 2310.6547 2330.8477 2310.9102 C 2333.4814 2311.4211 2336.6272 2311.8735 2339.9238 2312.1973 C 2349.7378 2313.1608 2359.2126 2308.2023 2363.9824 2300.0684 C 2368.7522 2291.9344 2369.9384 2281.5592 2368.5879 2269.5762 C 2366.1625 2248.0525 2369.4028 2216.344 2373.6797 2206.1133 C 2377.1 2197.9265 2379.1054 2187.443 2378.6484 2178.8203 C 2378.5854 2177.63 2378.7884 2176.6825 2378.8594 2175.5371 C 2382.4049 2177.8607 2386.9792 2181.3681 2391.8887 2185.6875 C 2402.6231 2195.1318 2414.6104 2207.9714 2420.7031 2217.248 C 2427.4252 2227.4832 2435.418 2239.5806 2438.543 2244.252 C 2445.6537 2254.8812 2457.9694 2264.8432 2498.7461 2295.3672 C 2511.8214 2305.155 2522.293 2311.3436 2532.2617 2313.5781 C 2542.2303 2315.8126 2552.7178 2312.1392 2558.2871 2304.1914 C 2561.4895 2299.6211 2562.3176 2294.0076 2561.625 2288.877 C 2560.9323 2283.7463 2558.8965 2278.8257 2556.002 2274.0234 C 2550.2129 2264.4189 2540.8353 2255.1671 2528.9922 2247.7656 C 2497.2377 2227.9203 2475.7499 2206.7302 2461.4746 2181.752 C 2454.265 2169.1334 2450.9275 2160.5878 2450.4336 2157.6348 C 2450.8464 2157.5368 2451.1387 2157.433 2451.8945 2157.3711 C 2457.3287 2156.9274 2461.9396 2154.8319 2468.0195 2152.0469 C 2474.0994 2149.2619 2480.9671 2145.6362 2487.7227 2141.7246 C 2494.4782 2137.813 2501.0965 2133.6293 2506.6387 2129.6875 C 2512.1809 2125.7457 2516.4662 2122.5505 2519.623 2118.3027 C 2531.4729 2102.358 2537.4985 2085.9533 2536.1621 2068.7988 C 2534.8256 2051.6443 2526.5414 2034.5414 2512.3691 2015.7637 C 2501.4558 2001.3038 2493.1456 1991.8627 2479.8184 1986.2617 C 2466.4912 1980.6607 2449.8297 1978.929 2420.5742 1976.4043 C 2406.5155 1975.1907 2396.8557 1974.4574 2389.6797 1974.3262 L 2389.6797 1974.3223 z M 1009.0254 1996.0254 C 997.67162 1996.1554 987.00842 1997.1664 978.04102 1999.3281 C 969.0736 2001.4898 961.21564 2004.2013 956.55078 2011.6895 C 951.84033 2019.2504 950.91677 2028.4879 953.75195 2036.9336 C 958.91875 2052.3246 959.86209 2079.2595 955.35352 2100.5586 C 943.83599 2154.969 939.04717 2187.1571 937.67188 2220.2949 C 937.28458 2229.6266 936.41975 2239.7756 935.34961 2248.4414 C 934.27947 2257.1072 932.83506 2264.6397 932 2267.209 C 925.08499 2288.4834 923.8393 2306.1701 929.39453 2321.7461 C 930.43566 2324.6653 931.40392 2327.4957 933.53125 2330.416 C 935.65858 2333.3363 939.09328 2335.7599 942.70898 2337.0352 C 949.9404 2339.5856 958.44009 2339.7932 974.85156 2340.6816 C 994.35553 2341.7371 1028.2776 2340.7176 1051.7988 2338.4102 C 1071.508 2336.481 1082.6321 2335.2844 1092.166 2332.4316 C 1101.7 2329.5789 1108.7827 2325.1013 1119.0723 2318.0137 C 1131.7698 2309.2676 1145.5997 2297.0601 1152.2695 2287.6777 C 1165.8667 2268.5507 1171.9912 2250.3375 1167.8496 2233.4648 C 1163.708 2216.5923 1149.844 2203.3067 1128.9473 2192.7051 C 1102.0966 2179.0828 1077.9786 2167.7397 1060.1074 2160.3184 C 1095.9936 2132.2759 1114.6365 2111.9318 1123.7871 2088.8516 C 1129.8919 2073.4534 1133.3943 2063.1142 1132.1797 2053.0801 C 1131.5724 2048.063 1129.3867 2043.3111 1126.1777 2039.6387 C 1122.9688 2035.9662 1118.9911 2033.229 1114.3867 2030.5977 C 1107.4151 2026.6138 1095.425 2018.6267 1088.8438 2013.5684 C 1079.9764 2006.7531 1067.5155 2002.8017 1053.4102 1999.998 C 1039.3047 1997.1944 1023.6259 1995.858 1009.0254 1996.0254 z M 2175.0273 1996.6328 C 2171.3895 1996.6508 2168.2562 1997.5712 2165.0059 1998.7109 C 2160.5458 2000.275 2155.7315 2003.6173 2153.5254 2008.502 C 2151.3193 2013.3865 2151.2757 2018.2955 2151.5605 2024.4355 C 2151.9284 2032.2222 2152.1274 2042.7658 2152.0176 2046.918 C 2151.8926 2051.6466 2151.4933 2066.9989 2151.1152 2081.0527 C 2150.6435 2098.6078 2148.3062 2120.7385 2145.1562 2140.4355 C 2142.0062 2160.1326 2137.7307 2177.918 2134.707 2184.8652 C 2131.6132 2191.974 2124.5273 2201.5416 2116.6699 2209.3262 C 2108.8125 2217.1109 2099.7339 2223.176 2095.1562 2224.5684 C 2089.383 2226.3244 2082.6381 2228.5865 2079.0078 2230.0645 C 2081.7074 2228.9655 2080.4703 2229.759 2079.0273 2229.584 C 2077.5838 2229.409 2075.3498 2228.9873 2072.7344 2228.3516 C 2067.5035 2227.0802 2060.6708 2224.9676 2053.8477 2222.4004 C 2036.0247 2215.6944 2029.28 2210.4959 2026.9082 2205.8594 C 2023.6323 2199.4535 2018.191 2190.1914 2014.2578 2184.2871 C 2007.2967 2173.8378 2000.2213 2151.2045 1996.3887 2126.6035 C 1992.5561 2102.0024 1991.5889 2075.072 1994.5176 2055.0469 C 1995.8732 2045.7781 1996.5598 2038.1258 1996.3867 2031.6504 C 1996.2136 2025.1751 1995.4034 2019.6688 1992.0898 2014.8359 C 1988.7763 2010.003 1982.1772 2007.4198 1976.6152 2007.8945 C 1971.0533 2008.3692 1965.8664 2010.5896 1959.9062 2013.832 C 1954.9699 2016.5172 1951.0125 2018.8693 1948.2422 2023.4492 C 1945.4718 2028.029 1945.9633 2034.0794 1947.6133 2038.2773 C 1949.8024 2043.8468 1950.1534 2043.4447 1950.627 2049.4766 C 1951.1005 2055.5085 1951.2244 2067.4793 1951.5742 2093.291 C 1952.0933 2131.5938 1957.1979 2166.9893 1965.8477 2195.7109 C 1974.4973 2224.4326 1986.3115 2246.7392 2002.8086 2258.4668 C 2020.2368 2270.8557 2046.9859 2282.3746 2065.6582 2284.8516 C 2083.2078 2287.1798 2102.6405 2281.4552 2120.248 2271.5605 C 2137.8556 2261.6659 2153.6998 2247.4397 2162.9297 2230.6602 C 2186.3099 2188.1553 2199.4152 2115.401 2196.2559 2051.5586 C 2195.3557 2033.3687 2194.4819 2021.477 2192.2227 2012.7988 C 2191.093 2008.4597 2189.6237 2004.6836 2186.6465 2001.5098 C 2183.6765 1998.3437 2178.9883 1996.6297 2175.0664 1996.6348 L 2175.0371 1996.6348 L 2175.0527 2004.9375 C 2175.0512 2004.9375 2175.0484 2004.9375 2175.0469 2004.9375 L 2175.0273 1996.6328 z M 715.99609 2000.2676 C 710.9807 2000.1736 706.74716 2000.3646 702.78711 2001.3809 C 681.7439 2006.7817 653.58067 2017.2419 640.7793 2025.1934 C 608.83574 2045.0345 586.61455 2088.7967 581.95898 2136.2129 C 580.4208 2151.8795 581.53873 2169.5711 584.36133 2185.1914 C 587.18392 2200.8117 590.82313 2213.9849 598.49805 2222.4746 C 602.03827 2226.3908 606.78602 2233.4531 607.47461 2234.9531 C 610.23346 2240.963 614.17589 2242.8888 619.20117 2246.123 C 624.22647 2249.3574 630.42863 2252.6663 637.15625 2255.8223 C 650.61149 2262.1341 665.78505 2267.7933 677.65234 2269.6797 C 691.07542 2271.8133 710.16306 2270.3473 729.88477 2267.1523 C 749.60647 2263.9574 769.40207 2258.9951 783.22461 2252.6992 C 813.16596 2239.062 837.99757 2210.827 852.7832 2175.0137 C 862.6938 2151.0089 863.9165 2141.89 860.74023 2115.2656 C 859.75251 2106.9862 858.48545 2099.2907 857.17578 2093.3125 C 856.52095 2090.3234 855.87169 2087.7897 855.13477 2085.6094 C 854.7663 2084.5192 854.39667 2083.5308 853.81641 2082.4141 C 853.37648 2081.5674 853.1552 2080.4649 851.52734 2079.1875 C 851.44984 2079.1985 851.13799 2079.0444 850.96094 2078.5742 C 850.56052 2077.5108 850.13129 2075.7001 849.99414 2074.0215 C 849.06 2062.5869 841.57916 2051.9362 832.77734 2041.418 C 823.97552 2030.8997 814.20814 2021.4877 803.36523 2017.8223 C 777.12172 2008.9506 746.05164 2002.3683 724.14844 2000.6895 L 724.14844 2000.4219 L 716.00586 2000.2676 C 716.00286 2000.2675 715.99909 2000.2676 715.99609 2000.2676 z M 1699.1934 2018.1152 C 1696.8237 2018.1042 1694.4127 2018.2152 1691.9746 2018.4121 C 1681.6048 2019.2592 1670.4606 2024.4526 1658.7461 2031.7949 C 1647.0317 2039.1373 1635.0899 2048.8178 1625.1406 2059.543 C 1618.0936 2067.1393 1610.0996 2081.9453 1601.6953 2098.7852 C 1593.2909 2115.6249 1585.4985 2133.3128 1582.2578 2145.0586 C 1578.9689 2156.9788 1579.2472 2175.6936 1580.7207 2195.2871 C 1582.1943 2214.8807 1584.8463 2233.8303 1589.7598 2245.4512 C 1600.1202 2269.9526 1621.9339 2295.3609 1643.4062 2306.9277 C 1678.0419 2325.5853 1713.3926 2338.4368 1737.1074 2339.4668 C 1760.6726 2340.4906 1782.5197 2336.7964 1798.8379 2329.8184 C 1806.997 2326.3294 1813.8482 2322.0488 1818.8145 2316.4473 C 1823.7807 2310.8458 1826.7614 2303.1779 1825.2227 2295.502 C 1824.2679 2290.7393 1822.68 2285.3769 1817.5469 2282.2695 C 1812.4139 2279.1621 1807.5838 2279.8209 1802.1602 2280.5117 C 1767.5391 2284.9207 1747.9315 2286.5167 1732.0059 2284.1289 C 1716.0802 2281.7411 1702.7238 2275.3951 1679.6602 2262.375 C 1650.4202 2245.8681 1630.8699 2220.4956 1627.5352 2197.9414 C 1624.7967 2179.4191 1627.8774 2149.3063 1634.3066 2131.8457 C 1638.0256 2121.7397 1644.9674 2109.3974 1652.0566 2099.5664 C 1655.6013 2094.6508 1659.1952 2090.3369 1662.2871 2087.2441 C 1665.379 2084.1513 1668.2994 2082.4209 1668.4688 2082.3633 C 1675.3602 2080.0227 1681.5267 2076.4347 1685.8633 2070.2461 C 1685.509 2070.7518 1690.8641 2067.2211 1693.5684 2067 C 1702.3963 2066.2786 1711.0767 2062.3837 1718.3906 2057.6289 C 1722.0476 2055.2514 1725.3031 2052.6578 1727.9473 2049.6602 C 1730.5915 2046.6626 1733.3279 2043.1324 1732.8633 2037.4473 C 1732.2619 2030.0824 1726.5991 2024.8062 1720.5645 2022.0605 C 1716.6757 2020.2911 1712.2574 2019.2345 1707.459 2018.6582 L 1707.459 2018.1582 L 1699.1934 2018.1152 z M 1354.6719 2019.2676 L 1354.6738 2019.2695 C 1350.4827 2019.4426 1346.1051 2019.9818 1341.6562 2021.0137 C 1322.8129 2025.3813 1307.5942 2032.1172 1296.1934 2041.8809 C 1284.7924 2051.6445 1277.5168 2064.5327 1274.7715 2079.4902 C 1272.2788 2093.0717 1270.6505 2107.2825 1270.0566 2118.6055 C 1269.7597 2124.267 1269.7091 2129.1644 1270.0059 2133.1836 C 1270.1544 2135.1932 1270.3604 2136.9552 1270.8535 2138.8203 C 1271.273 2140.4068 1271.5012 2142.6841 1274.4707 2144.8457 C 1274.4887 2144.8167 1274.4606 2144.728 1274.5156 2144.8047 C 1274.5266 2144.8207 1274.5681 2144.9007 1274.5801 2144.9199 C 1275.0784 2145.274 1275.4643 2145.6333 1276.1367 2145.9766 C 1275.1613 2145.4785 1274.8169 2145.1914 1274.6191 2144.9922 C 1274.8225 2145.306 1275.1627 2145.8716 1275.5664 2146.7051 C 1276.4622 2148.5545 1277.5141 2151.2802 1278.2969 2154.0137 C 1279.9732 2159.8675 1283.5872 2165.2618 1288.8633 2170.0508 C 1294.1394 2174.8398 1301.0851 2179.3648 1310.6445 2184.7754 C 1317.7007 2188.7692 1324.5113 2192.353 1329.9512 2194.9824 C 1332.6711 2196.2971 1335.0331 2197.369 1337.043 2198.1738 C 1338.0479 2198.5762 1338.9532 2198.9126 1339.916 2199.1992 C 1340.4921 2199.3707 1341.0972 2199.5605 1341.9453 2199.6797 C 1342.0836 2199.7557 1342.0666 2199.7387 1342.2676 2199.8613 C 1343.2823 2200.4816 1344.9437 2201.6426 1346.8789 2203.125 C 1350.7492 2206.0898 1355.8134 2210.3681 1360.9219 2214.9629 C 1366.0304 2219.5577 1371.2131 2224.4914 1375.4199 2228.8066 C 1379.6267 2233.1219 1382.9961 2237.173 1383.7539 2238.3828 C 1385.0855 2240.5086 1389.3018 2250.7124 1391.2031 2257.8613 C 1392.6455 2263.2845 1392.8637 2266.0462 1392.4902 2268.1152 C 1392.1167 2270.1842 1390.9953 2272.5674 1387.7812 2276.9863 C 1383.7139 2282.5782 1373.0799 2289.5987 1360.2852 2294.1895 C 1347.4903 2298.7802 1332.6022 2301.2613 1320.3965 2300.3887 C 1302.6889 2299.1228 1294.1314 2298.2431 1287.209 2299.2793 C 1283.7478 2299.7974 1279.524 2301.5497 1277.2188 2304.9609 C 1274.9134 2308.3722 1274.9152 2311.1357 1274.668 2313.2266 C 1272.5226 2331.3699 1287.5287 2346.8262 1306.6875 2349.9004 C 1318.3953 2351.7789 1331.557 2349.9003 1346.7207 2344.9941 C 1358.3226 2341.2361 1375.1386 2336.3225 1383.3555 2334.2754 C 1407.842 2328.1744 1423.2903 2315.5888 1431.8945 2294.1504 C 1443.1302 2266.1554 1439.3114 2231.4399 1422.6074 2203.918 C 1407.0783 2178.3319 1394.304 2166.8222 1367.4844 2154.2559 C 1356.6502 2149.1796 1339.617 2139.2051 1331.2363 2133.0781 C 1323.6278 2127.5155 1320.5655 2124.6938 1319.3281 2122.457 C 1318.0906 2120.2201 1317.4858 2116.5882 1317.0977 2107.7148 C 1316.8912 2102.9943 1317.2256 2097.4684 1317.9258 2092.748 C 1318.626 2088.0277 1319.9859 2083.8377 1320.3867 2083.1016 C 1321.3941 2081.251 1326.7244 2076.4838 1334.0762 2073.0391 C 1341.4281 2069.5944 1350.622 2066.9779 1358.877 2066.2871 C 1366.3802 2065.6576 1375.4776 2063.1696 1382.3359 2059.9004 C 1388.8715 2056.7849 1393.9715 2052.6282 1395.7441 2046.3066 C 1397.5167 2039.985 1394.4554 2033.5691 1390.3848 2029.7207 C 1382.2436 2022.0238 1369.4347 2018.6583 1354.6719 2019.2676 z M 2410.8613 2027.7422 C 2427.2291 2027.5084 2446.7171 2034.639 2461.3281 2044.832 C 2475.9392 2055.025 2484.5919 2068.1494 2484.3066 2076.2598 C 2484.3166 2076.0885 2483.2879 2079.6724 2480.7559 2083.4668 C 2478.2239 2087.2612 2474.5541 2091.6369 2470.6562 2095.5352 C 2466.7583 2099.4334 2462.5768 2102.8896 2459.3203 2104.959 C 2456.0638 2107.0283 2453.4831 2106.3828 2456.3105 2107.2109 C 2453.1934 2106.298 2450.1101 2106.3384 2447.1562 2107.2305 C 2445.0156 2107.8766 2442.8179 2109.1153 2441.0312 2111.0996 C 2441.0523 2111.1944 2441.1841 2111.2609 2440.9238 2111.3555 C 2440.8988 2111.3655 2440.8064 2111.3826 2440.7793 2111.3926 C 2440.8086 2111.3698 2440.8605 2111.2886 2440.916 2111.2012 C 2440.8381 2111.29 2440.7363 2111.3298 2440.6602 2111.4219 C 2439.7819 2111.7237 2438.2369 2112.1503 2436.1934 2112.5488 C 2431.865 2113.393 2425.7289 2114.1458 2419.293 2114.627 C 2406.4211 2115.5893 2391.0266 2114.9272 2387.8711 2114.0098 C 2386.0247 2113.473 2385.8145 2113.1723 2385.7012 2113.1152 C 2386.292 2110.0914 2386.956 2105.1188 2387.8984 2097.6484 C 2388.8776 2089.8866 2390.0209 2080.2071 2391.0977 2070.4375 C 2393.5013 2048.63 2395.991 2036.5577 2398.4453 2032.1523 C 2399.6725 2029.9497 2400.2786 2029.5302 2401.8262 2028.9062 C 2403.3737 2028.2822 2406.3236 2027.8069 2410.8613 2027.7422 z M 2440.916 2111.2012 C 2440.9514 2111.1608 2440.9955 2111.1394 2441.0312 2111.0996 C 2441.0187 2111.0431 2441.2064 2110.8987 2441.0957 2110.9473 C 2441.0679 2110.9595 2440.9894 2111.0856 2440.916 2111.2012 z M 2752.4609 2031.0977 C 2752.9019 2031.7444 2753.0927 2031.8559 2753.5879 2032.6484 C 2757.2347 2038.485 2762.2868 2048.1652 2769.0039 2061.9277 C 2778.9913 2082.3899 2785.2899 2096.8208 2788.1582 2105.6816 C 2789.0342 2108.3877 2789.4726 2110.3498 2789.7422 2111.8691 C 2784.2449 2113.3663 2772.831 2115.5426 2761.1719 2116.8086 C 2754.4342 2117.5402 2747.7988 2118.05 2742.5078 2118.2246 C 2737.2168 2118.3992 2732.497 2117.7998 2733.0742 2117.9707 C 2732.796 2117.8887 2732.8571 2117.8681 2732.625 2117.7871 C 2735.3109 2111.3351 2736.3883 2103.8011 2735.8203 2096.8457 C 2735.6829 2095.1638 2735.8303 2092.972 2736.1641 2091.3008 C 2736.4993 2089.6296 2737.45 2088.3596 2736.5859 2089.3789 C 2738.6793 2086.9089 2738.9464 2085.5099 2739.6953 2083.502 C 2740.4443 2081.494 2741.1652 2079.1727 2741.8906 2076.5469 C 2743.3415 2071.2953 2744.7835 2064.8632 2745.9395 2058.2539 C 2747.7908 2047.6684 2750.8324 2036.1579 2752.4609 2031.0977 z M 1022.5293 2046.5176 C 1033.1597 2046.4906 1048.5669 2050.3756 1061.25 2055.8691 C 1067.5915 2058.6159 1073.3052 2061.7553 1077.4531 2064.7285 C 1081.6011 2067.7017 1083.9526 2070.7631 1084.2266 2071.4316 C 1084.4579 2071.9963 1084.6477 2074.1664 1082.7402 2078.0938 C 1080.8327 2082.021 1077.0876 2087.1105 1071.9238 2092.3496 C 1061.5964 2102.8278 1045.7067 2114.0107 1028.2832 2121.8184 C 1017.5517 2126.6273 1008.4262 2129.5484 1002.25 2130.5566 C 999.51362 2131.0034 997.51372 2131.0111 996.28516 2130.8887 C 996.25496 2130.7307 996.19816 2130.689 996.18164 2130.5234 C 995.97735 2128.4715 995.85741 2125.3857 995.86133 2121.7363 C 995.86933 2114.4377 996.33707 2104.8115 997.12305 2094.9629 C 997.90902 2085.1143 999.01309 2075.0061 1000.2617 2066.668 C 1001.5104 2058.3299 1003.263 2051.243 1003.8828 2049.8164 C 1005.0225 2047.1931 1003.9588 2048.1859 1005.7168 2047.6309 C 1007.4749 2047.0759 1012.9133 2046.5421 1022.5293 2046.5176 z M 709.61328 2050.0059 C 711.91056 2051.2701 714.18436 2052.135 717.07227 2053.0859 C 720.6319 2054.258 724.82608 2055.4315 729.30664 2056.5391 C 738.26776 2058.7541 748.24426 2060.696 756.17383 2061.4746 C 782.59587 2064.0688 796.94067 2074.1216 810.23242 2099.8223 C 812.89645 2104.9733 815.41859 2116.3423 816.07227 2128.0645 C 816.72593 2139.7865 815.70425 2152.2066 813.36133 2160.0254 C 812.14884 2164.0717 805.52605 2174.2629 797.29102 2183.125 C 789.05597 2191.9871 779.00195 2200.2695 772.33984 2203.6582 C 765.89906 2206.9317 749.19261 2211.4282 732.61133 2214.1699 C 716.02856 2216.9119 698.5916 2218.1162 690.73828 2217.1113 C 675.29297 2215.1349 658.73586 2206.735 646.16992 2195.5117 C 633.60398 2184.2884 625.36453 2170.3492 624.4375 2159.002 C 623.09951 2142.6243 627.66511 2121.1607 635.53125 2102.9219 C 643.39739 2084.683 655.04112 2069.8537 663.7207 2065.4785 C 672.11932 2061.2449 682.18668 2057.2212 690.99414 2054.3535 C 699.69266 2051.5213 707.81461 2050.0156 709.61328 2050.0059 z M 986.5918 2193.1621 C 990.82935 2193.2837 1000.5719 2194.9461 1012.4414 2198.2637 C 1025.1981 2201.8292 1040.3776 2206.9106 1055.2695 2212.5527 C 1070.1614 2218.1949 1084.7968 2224.4105 1096.459 2230.1816 C 1108.1211 2235.9528 1117.1397 2242.0624 1118.9473 2244.1074 C 1120.8754 2246.2889 1121.9862 2247.6696 1122.4258 2248.3242 C 1122.1836 2248.6211 1120.1221 2252.8688 1114.5098 2261.1777 C 1111.5015 2265.6313 1107.6651 2270.3168 1104.1191 2274.0117 C 1100.5732 2277.7067 1096.7912 2280.4848 1096.3438 2280.6992 C 1092.0764 2282.7433 1082.3575 2285.2328 1070.832 2286.9531 C 1059.3066 2288.6735 1045.7488 2289.8585 1032.5156 2290.3848 C 1019.2825 2290.911 1006.3373 2290.774 996.12305 2289.9355 C 985.90881 2289.0971 977.73752 2286.4098 977.77148 2286.4336 C 978.31631 2286.8136 975.19537 2282.0964 975.03516 2280.1953 C 974.91978 2278.8279 975.23572 2271.2239 976.13086 2262.3633 C 977.026 2253.5027 978.37068 2242.7034 979.86133 2232.1328 C 981.35198 2221.5623 982.99229 2211.1992 984.4668 2203.2422 C 985.20405 2199.2637 985.90546 2195.8758 986.49023 2193.4668 C 986.52003 2193.3441 986.55883 2193.2835 986.5918 2193.1621 z " />
    <rect
       style="font-variation-settings:normal;opacity:1;vector-effect:none;fill:none;fill-opacity:1;fill-rule:evenodd;stroke:#ff00ff;stroke-width:15.1181;stroke-linecap:butt;stroke-linejoin:miter;stroke-miterlimit:4;stroke-dasharray:none;stroke-dashoffset:0;stroke-opacity:1;-inkscape-stroke:none;stop-color:#000000;stop-opacity:1"
       id="rect972"
       width="3779.5276"
       height="2645.6692"
       x="-100"
       y="109.12" />
  </g>
</svg>
