  0
SECTION
  2
HEADER
  9
$ACADVER
  1
AC1014
  9
$HANDSEED
  5
FFFF
  9
$INSUNITS
 70
     4
  9
$MEASUREMENT
 70
     1
  0
ENDSEC
  0
SECTION
  2
TABLES
  0
TABLE
  2
VPORT
  5
8
330
0
100
AcDbSymbolTable
 70
     4
  0
VPORT
  5
2E
330
8
100
AcDbSymbolTableRecord
100
AcDbViewportTableRecord
  2
*ACTIVE
 70
     0
 10
0.0
 20
0.0
 11
1.0
 21
1.0
 12
210.0
 22
148.5
 13
0.0
 23
0.0
 14
10.0
 24
10.0
 15
10.0
 25
10.0
 16
0.0
 26
0.0
 36
1.0
 17
0.0
 27
0.0
 37
0.0
 40
341.0
 41
1.24
 42
50.0
 43
0.0
 44
0.0
 50
0.0
 51
0.0
 71
     0
 72
   100
 73
     1
 74
     3
 75
     0
 76
     0
 77
     0
 78
     0
  0
ENDTAB
  0
TABLE
  2
LTYPE
  5
5
330
0
100
AcDbSymbolTable
 70
     1
  0
LTYPE
  5
14
330
5
100
AcDbSymbolTableRecord
100
AcDbLinetypeTableRecord
  2
BYBLOCK
 70
     0
  3

 72
    65
 73
     0
 40
0.0
  0
LTYPE
  5
15
330
5
100
AcDbSymbolTableRecord
100
AcDbLinetypeTableRecord
  2
BYLAYER
 70
     0
  3

 72
    65
 73
     0
 40
0.0
  0
LTYPE
  5
16
330
5
100
AcDbSymbolTableRecord
100
AcDbLinetypeTableRecord
  2
CONTINUOUS
 70
     0
  3
Solid line
 72
    65
 73
     0
 40
0.0
  0
ENDTAB
  0
TABLE
  2
LAYER
  5
2
100
AcDbSymbolTable
 70
2
  0
LAYER
  5
50
100
AcDbSymbolTableRecord
100
AcDbLayerTableRecord
  2
0
 70
0
  6
CONTINUOUS
  0
LAYER
  5
51
100
AcDbSymbolTableRecord
100
AcDbLayerTableRecord
  2
Calque_1
 70
0
  6
CONTINUOUS
  0
ENDTAB
  0
TABLE
  2
STYLE
  5
3
330
0
100
AcDbSymbolTable
 70
     1
  0
STYLE
  5
11
330
3
100
AcDbSymbolTableRecord
100
AcDbTextStyleTableRecord
  2
STANDARD
 70
     0
 40
0.0
 41
1.0
 50
0.0
 71
     0
 42
2.5
  3
txt
  4

  0
ENDTAB
  0
TABLE
  2
VIEW
  5
6
330
0
100
AcDbSymbolTable
 70
     0
  0
ENDTAB
  0
TABLE
  2
UCS
  5
7
330
0
100
AcDbSymbolTable
 70
     0
  0
ENDTAB
  0
TABLE
  2
APPID
  5
9
330
0
100
AcDbSymbolTable
 70
     2
  0
APPID
  5
12
330
9
100
AcDbSymbolTableRecord
100
AcDbRegAppTableRecord
  2
ACAD
 70
     0
  0
ENDTAB
  0
TABLE
  2
DIMSTYLE
  5
A
330
0
100
AcDbSymbolTable
 70
     1
  0
DIMSTYLE
105
27
330
A
100
AcDbSymbolTableRecord
100
AcDbDimStyleTableRecord
  2
ISO-25
 70
     0
  3

  4

  5

  6

  7

 40
1.0
 41
2.5
 42
0.625
 43
3.75
 44
1.25
 45
0.0
 46
0.0
 47
0.0
 48
0.0
140
2.5
141
2.5
142
0.0
143
0.03937007874016
144
1.0
145
0.0
146
1.0
147
0.625
 71
     0
 72
     0
 73
     0
 74
     0
 75
     0
 76
     0
 77
     1
 78
     8
170
     0
171
     3
172
     1
173
     0
174
     0
175
     0
176
     0
177
     0
178
     0
270
     2
271
     2
272
     2
273
     2
274
     3
340
11
275
     0
280
     0
281
     0
282
     0
283
     0
284
     8
285
     0
286
     0
287
     3
288
     0
  0
ENDTAB
  0
TABLE
  2
BLOCK_RECORD
  5
1
330
0
100
AcDbSymbolTable
 70
     1
  0
BLOCK_RECORD
  5
1F
330
1
100
AcDbSymbolTableRecord
100
AcDbBlockTableRecord
  2
*MODEL_SPACE
  0
BLOCK_RECORD
  5
1B
330
1
100
AcDbSymbolTableRecord
100
AcDbBlockTableRecord
  2
*PAPER_SPACE
  0
ENDTAB
  0
ENDSEC
  0
SECTION
  2
BLOCKS
  0
BLOCK
  5
20
330
1F
100
AcDbEntity
  8
0
100
AcDbBlockBegin
  2
*MODEL_SPACE
 70
     0
 10
0.0
 20
0.0
 30
0.0
  3
*MODEL_SPACE
  1

  0
ENDBLK
  5
21
330
1F
100
AcDbEntity
  8
0
100
AcDbBlockEnd
  0
BLOCK
  5
1C
330
1B
100
AcDbEntity
 67
     1
  8
0
100
AcDbBlockBegin
  2
*PAPER_SPACE
  1

  0
ENDBLK
  5
1D
330
1B
100
AcDbEntity
 67
     1
  8
0
100
AcDbBlockEnd
  0
ENDSEC
  0
SECTION
  2
ENTITIES
  0
SPLINE
  5
100
100
AcDbEntity
  8
Calque_1
 62
7
100
AcDbSpline
 70
8
 71
3
 72
8
 73
4
 74
0
 40
0
 40
0
 40
0
 40
0
 40
1
 40
1
 40
1
 40
1
 10
-288.384540
 20
220.548141
 30
0.0
 10
-282.962700
 20
217.464055
 30
0.0
 10
66.985885
 20
24.510920
 30
0.0
 10
501.615320
 20
199.950434
 30
0.0
  0
LWPOLYLINE
  5
101
100
AcDbEntity
  8
Calque_1
 62
7
100
AcDbPolyline
 90
2
 70
0
 10
-288.384540
 20
239.738187
 30
0.0
 10
-288.384540
 20
220.548141
 30
0.0
  0
SPLINE
  5
102
100
AcDbEntity
  8
Calque_1
 62
7
100
AcDbSpline
 70
8
 71
3
 72
8
 73
4
 74
0
 40
0
 40
0
 40
0
 40
0
 40
1
 40
1
 40
1
 40
1
 10
500.836120
 20
218.575145
 30
0.0
 10
309.661410
 20
141.763080
 30
0.0
 10
134.259820
 20
136.454850
 30
0.0
 10
-2.298613
 20
154.631860
 30
0.0
  0
SPLINE
  5
103
100
AcDbEntity
  8
Calque_1
 62
7
100
AcDbSpline
 70
8
 71
3
 72
8
 73
4
 74
0
 40
0
 40
0
 40
0
 40
0
 40
1
 40
1
 40
1
 40
1
 10
-2.298613
 20
154.631860
 30
0.0
 10
-176.418300
 20
177.808540
 30
0.0
 10
-287.388650
 20
239.166661
 30
0.0
 10
-287.388650
 20
239.166661
 30
0.0
  0
LWPOLYLINE
  5
104
100
AcDbEntity
  8
Calque_1
 62
7
100
AcDbPolyline
 90
3
 70
0
 10
501.615320
 20
199.950434
 30
0.0
 10
501.615320
 20
218.905371
 30
0.0
 10
500.836120
 20
218.575145
 30
0.0
  0
SPLINE
  5
105
100
AcDbEntity
  8
Calque_1
 62
7
100
AcDbSpline
 70
8
 71
3
 72
8
 73
4
 74
0
 40
0
 40
0
 40
0
 40
0
 40
1
 40
1
 40
1
 40
1
 10
-272.733660
 20
224.180495
 30
0.0
 10
-271.629030
 20
224.180416
 30
0.0
 10
-270.733680
 20
223.284776
 30
0.0
 10
-270.733940
 20
222.180089
 30
0.0
  0
SPLINE
  5
106
100
AcDbEntity
  8
Calque_1
 62
7
100
AcDbSpline
 70
8
 71
3
 72
8
 73
4
 74
0
 40
0
 40
0
 40
0
 40
0
 40
1
 40
1
 40
1
 40
1
 10
-270.733940
 20
222.180089
 30
0.0
 10
-270.733940
 20
221.075613
 30
0.0
 10
-271.629290
 20
220.180291
 30
0.0
 10
-272.733660
 20
220.180212
 30
0.0
  0
SPLINE
  5
107
100
AcDbEntity
  8
Calque_1
 62
7
100
AcDbSpline
 70
8
 71
3
 72
8
 73
4
 74
0
 40
0
 40
0
 40
0
 40
0
 40
1
 40
1
 40
1
 40
1
 10
-272.733660
 20
220.180212
 30
0.0
 10
-273.838290
 20
220.180291
 30
0.0
 10
-274.733380
 20
221.075613
 30
0.0
 10
-274.733640
 20
222.180089
 30
0.0
  0
SPLINE
  5
108
100
AcDbEntity
  8
Calque_1
 62
7
100
AcDbSpline
 70
8
 71
3
 72
8
 73
4
 74
0
 40
0
 40
0
 40
0
 40
0
 40
1
 40
1
 40
1
 40
1
 10
-274.733640
 20
222.180089
 30
0.0
 10
-274.733640
 20
223.284776
 30
0.0
 10
-273.838290
 20
224.180416
 30
0.0
 10
-272.733660
 20
224.180495
 30
0.0
  0
LWPOLYLINE
  5
109
100
AcDbEntity
  8
Calque_1
 62
7
100
AcDbPolyline
 90
2
 70
0
 10
-287.388650
 20
239.166661
 30
0.0
 10
-288.384540
 20
239.738187
 30
0.0
  0
SPLINE
  5
10a
100
AcDbEntity
  8
Calque_1
 62
7
100
AcDbSpline
 70
8
 71
3
 72
8
 73
4
 74
0
 40
0
 40
0
 40
0
 40
0
 40
1
 40
1
 40
1
 40
1
 10
490.953160
 20
207.135529
 30
0.0
 10
492.057520
 20
207.135449
 30
0.0
 10
492.952870
 20
206.240127
 30
0.0
 10
492.952870
 20
205.135652
 30
0.0
  0
SPLINE
  5
10b
100
AcDbEntity
  8
Calque_1
 62
7
100
AcDbSpline
 70
8
 71
3
 72
8
 73
4
 74
0
 40
0
 40
0
 40
0
 40
0
 40
1
 40
1
 40
1
 40
1
 10
492.952870
 20
205.135652
 30
0.0
 10
492.952870
 20
204.031177
 30
0.0
 10
492.057520
 20
203.135828
 30
0.0
 10
490.953160
 20
203.135775
 30
0.0
  0
SPLINE
  5
10c
100
AcDbEntity
  8
Calque_1
 62
7
100
AcDbSpline
 70
8
 71
3
 72
8
 73
4
 74
0
 40
0
 40
0
 40
0
 40
0
 40
1
 40
1
 40
1
 40
1
 10
490.953160
 20
203.135775
 30
0.0
 10
489.848260
 20
203.135563
 30
0.0
 10
488.952640
 20
204.030991
 30
0.0
 10
488.952640
 20
205.135652
 30
0.0
  0
SPLINE
  5
10d
100
AcDbEntity
  8
Calque_1
 62
7
100
AcDbSpline
 70
8
 71
3
 72
8
 73
4
 74
0
 40
0
 40
0
 40
0
 40
0
 40
1
 40
1
 40
1
 40
1
 10
488.952640
 20
205.135652
 30
0.0
 10
488.952640
 20
206.240312
 30
0.0
 10
489.848260
 20
207.135741
 30
0.0
 10
490.953160
 20
207.135529
 30
0.0
  0
LWPOLYLINE
  5
10e
100
AcDbEntity
  8
Calque_1
 62
7
100
AcDbPolyline
 90
1
 70
1
 10
-272.733660
 20
224.180495
 30
0.0
  0
SPLINE
  5
10f
100
AcDbEntity
  8
Calque_1
 62
7
100
AcDbSpline
 70
8
 71
3
 72
8
 73
4
 74
0
 40
0
 40
0
 40
0
 40
0
 40
1
 40
1
 40
1
 40
1
 10
-158.069470
 20
179.311400
 30
0.0
 10
-156.964570
 20
179.311610
 30
0.0
 10
-156.068700
 20
178.415860
 30
0.0
 10
-156.068960
 20
177.310990
 30
0.0
  0
SPLINE
  5
110
100
AcDbEntity
  8
Calque_1
 62
7
100
AcDbSpline
 70
8
 71
3
 72
8
 73
4
 74
0
 40
0
 40
0
 40
0
 40
0
 40
1
 40
1
 40
1
 40
1
 10
-156.068960
 20
177.310990
 30
0.0
 10
-156.068960
 20
176.206310
 30
0.0
 10
-156.964570
 20
175.310900
 30
0.0
 10
-158.069470
 20
175.311120
 30
0.0
  0
SPLINE
  5
111
100
AcDbEntity
  8
Calque_1
 62
7
100
AcDbSpline
 70
8
 71
3
 72
8
 73
4
 74
0
 40
0
 40
0
 40
0
 40
0
 40
1
 40
1
 40
1
 40
1
 10
-158.069470
 20
175.311120
 30
0.0
 10
-159.173840
 20
175.311190
 30
0.0
 10
-160.069190
 20
176.206520
 30
0.0
 10
-160.069190
 20
177.310990
 30
0.0
  0
SPLINE
  5
112
100
AcDbEntity
  8
Calque_1
 62
7
100
AcDbSpline
 70
8
 71
3
 72
8
 73
4
 74
0
 40
0
 40
0
 40
0
 40
0
 40
1
 40
1
 40
1
 40
1
 10
-160.069190
 20
177.310990
 30
0.0
 10
-160.069190
 20
178.415680
 30
0.0
 10
-159.174110
 20
179.311320
 30
0.0
 10
-158.069470
 20
179.311400
 30
0.0
  0
LWPOLYLINE
  5
113
100
AcDbEntity
  8
Calque_1
 62
7
100
AcDbPolyline
 90
1
 70
1
 10
490.953160
 20
207.135529
 30
0.0
  0
SPLINE
  5
114
100
AcDbEntity
  8
Calque_1
 62
7
100
AcDbSpline
 70
8
 71
3
 72
8
 73
4
 74
0
 40
0
 40
0
 40
0
 40
0
 40
1
 40
1
 40
1
 40
1
 10
348.711480
 20
163.872030
 30
0.0
 10
349.816380
 20
163.871950
 30
0.0
 10
350.711730
 20
162.976310
 30
0.0
 10
350.711470
 20
161.871620
 30
0.0
  0
SPLINE
  5
115
100
AcDbEntity
  8
Calque_1
 62
7
100
AcDbSpline
 70
8
 71
3
 72
8
 73
4
 74
0
 40
0
 40
0
 40
0
 40
0
 40
1
 40
1
 40
1
 40
1
 10
350.711470
 20
161.871620
 30
0.0
 10
350.711470
 20
160.767150
 30
0.0
 10
349.816120
 20
159.871820
 30
0.0
 10
348.711480
 20
159.871740
 30
0.0
  0
SPLINE
  5
116
100
AcDbEntity
  8
Calque_1
 62
7
100
AcDbSpline
 70
8
 71
3
 72
8
 73
4
 74
0
 40
0
 40
0
 40
0
 40
0
 40
1
 40
1
 40
1
 40
1
 10
348.711480
 20
159.871740
 30
0.0
 10
347.607110
 20
159.871820
 30
0.0
 10
346.711760
 20
160.767150
 30
0.0
 10
346.711760
 20
161.871620
 30
0.0
  0
SPLINE
  5
117
100
AcDbEntity
  8
Calque_1
 62
7
100
AcDbSpline
 70
8
 71
3
 72
8
 73
4
 74
0
 40
0
 40
0
 40
0
 40
0
 40
1
 40
1
 40
1
 40
1
 10
346.711760
 20
161.871620
 30
0.0
 10
346.711760
 20
162.976310
 30
0.0
 10
347.606850
 20
163.871950
 30
0.0
 10
348.711480
 20
163.872030
 30
0.0
  0
LWPOLYLINE
  5
118
100
AcDbEntity
  8
Calque_1
 62
7
100
AcDbPolyline
 90
1
 70
1
 10
-158.069470
 20
179.311400
 30
0.0
  0
SPLINE
  5
119
100
AcDbEntity
  8
Calque_1
 62
7
100
AcDbSpline
 70
8
 71
3
 72
8
 73
4
 74
0
 40
0
 40
0
 40
0
 40
0
 40
1
 40
1
 40
1
 40
1
 10
1.357130
 20
144.301110
 30
0.0
 10
2.461764
 20
144.301040
 30
0.0
 10
3.357113
 20
143.405400
 30
0.0
 10
3.356849
 20
142.300730
 30
0.0
  0
SPLINE
  5
11a
100
AcDbEntity
  8
Calque_1
 62
7
100
AcDbSpline
 70
8
 71
3
 72
8
 73
4
 74
0
 40
0
 40
0
 40
0
 40
0
 40
1
 40
1
 40
1
 40
1
 10
3.356849
 20
142.300730
 30
0.0
 10
3.356849
 20
141.196260
 30
0.0
 10
2.461500
 20
140.300940
 30
0.0
 10
1.357130
 20
140.300860
 30
0.0
  0
SPLINE
  5
11b
100
AcDbEntity
  8
Calque_1
 62
7
100
AcDbSpline
 70
8
 71
3
 72
8
 73
4
 74
0
 40
0
 40
0
 40
0
 40
0
 40
1
 40
1
 40
1
 40
1
 10
1.357130
 20
140.300860
 30
0.0
 10
0.252496
 20
140.300940
 30
0.0
 10
-0.642588
 20
141.196260
 30
0.0
 10
-0.642852
 20
142.300730
 30
0.0
  0
SPLINE
  5
11c
100
AcDbEntity
  8
Calque_1
 62
7
100
AcDbSpline
 70
8
 71
3
 72
8
 73
4
 74
0
 40
0
 40
0
 40
0
 40
0
 40
1
 40
1
 40
1
 40
1
 10
-0.642852
 20
142.300730
 30
0.0
 10
-0.642852
 20
143.405400
 30
0.0
 10
0.252496
 20
144.301040
 30
0.0
 10
1.357130
 20
144.301110
 30
0.0
  0
LWPOLYLINE
  5
11d
100
AcDbEntity
  8
Calque_1
 62
7
100
AcDbPolyline
 90
1
 70
1
 10
348.711480
 20
163.872030
 30
0.0
  0
SPLINE
  5
11e
100
AcDbEntity
  8
Calque_1
 62
7
100
AcDbSpline
 70
8
 71
3
 72
8
 73
4
 74
0
 40
0
 40
0
 40
0
 40
0
 40
1
 40
1
 40
1
 40
1
 10
178.497300
 20
137.866880
 30
0.0
 10
179.601670
 20
137.866800
 30
0.0
 10
180.497020
 20
136.971480
 30
0.0
 10
180.497020
 20
135.867000
 30
0.0
  0
SPLINE
  5
11f
100
AcDbEntity
  8
Calque_1
 62
7
100
AcDbSpline
 70
8
 71
3
 72
8
 73
4
 74
0
 40
0
 40
0
 40
0
 40
0
 40
1
 40
1
 40
1
 40
1
 10
180.497020
 20
135.867000
 30
0.0
 10
180.497020
 20
134.762530
 30
0.0
 10
179.601670
 20
133.867200
 30
0.0
 10
178.497300
 20
133.867130
 30
0.0
  0
SPLINE
  5
120
100
AcDbEntity
  8
Calque_1
 62
7
100
AcDbSpline
 70
8
 71
3
 72
8
 73
4
 74
0
 40
0
 40
0
 40
0
 40
0
 40
1
 40
1
 40
1
 40
1
 10
178.497300
 20
133.867130
 30
0.0
 10
177.392670
 20
133.867200
 30
0.0
 10
176.497320
 20
134.762530
 30
0.0
 10
176.497320
 20
135.867000
 30
0.0
  0
SPLINE
  5
121
100
AcDbEntity
  8
Calque_1
 62
7
100
AcDbSpline
 70
8
 71
3
 72
8
 73
4
 74
0
 40
0
 40
0
 40
0
 40
0
 40
1
 40
1
 40
1
 40
1
 10
176.497320
 20
135.867000
 30
0.0
 10
176.497320
 20
136.971480
 30
0.0
 10
177.392670
 20
137.866800
 30
0.0
 10
178.497300
 20
137.866880
 30
0.0
  0
LWPOLYLINE
  5
122
100
AcDbEntity
  8
Calque_1
 62
7
100
AcDbPolyline
 90
1
 70
1
 10
1.357130
 20
144.301110
 30
0.0
  0
SPLINE
  5
123
100
AcDbEntity
  8
Calque_1
 62
7
100
AcDbSpline
 70
8
 71
3
 72
8
 73
4
 74
0
 40
0
 40
0
 40
0
 40
0
 40
1
 40
1
 40
1
 40
1
 10
-251.499290
 20
331.921735
 30
0.0
 10
-274.170610
 20
332.254184
 30
0.0
 10
-287.076700
 20
328.265489
 30
0.0
 10
-288.384540
 20
327.843426
 30
0.0
  0
LWPOLYLINE
  5
124
100
AcDbEntity
  8
Calque_1
 62
7
100
AcDbPolyline
 90
1
 70
1
 10
178.497300
 20
137.866880
 30
0.0
  0
SPLINE
  5
125
100
AcDbEntity
  8
Calque_1
 62
7
100
AcDbSpline
 70
8
 71
3
 72
8
 73
4
 74
0
 40
0
 40
0
 40
0
 40
0
 40
1
 40
1
 40
1
 40
1
 10
-287.602170
 20
309.744785
 30
0.0
 10
-287.602170
 20
309.744785
 30
0.0
 10
-264.768390
 20
317.595836
 30
0.0
 10
-224.854980
 20
311.457351
 30
0.0
  0
SPLINE
  5
126
100
AcDbEntity
  8
Calque_1
 62
7
100
AcDbSpline
 70
8
 71
3
 72
8
 73
4
 74
0
 40
0
 40
0
 40
0
 40
0
 40
1
 40
1
 40
1
 40
1
 10
-224.854980
 20
311.457351
 30
0.0
 10
-184.941580
 20
305.318708
 30
0.0
 10
-128.153340
 20
285.117505
 30
0.0
 10
-60.914066
 20
228.574557
 30
0.0
  0
SPLINE
  5
127
100
AcDbEntity
  8
Calque_1
 62
7
100
AcDbSpline
 70
8
 71
3
 72
8
 73
4
 74
0
 40
0
 40
0
 40
0
 40
0
 40
1
 40
1
 40
1
 40
1
 10
-60.914066
 20
228.574557
 30
0.0
 10
6.725255
 20
171.695140
 30
0.0
 10
57.758024
 20
146.289240
 30
0.0
 10
107.711290
 20
148.784080
 30
0.0
  0
SPLINE
  5
128
100
AcDbEntity
  8
Calque_1
 62
7
100
AcDbSpline
 70
8
 71
3
 72
8
 73
4
 74
0
 40
0
 40
0
 40
0
 40
0
 40
1
 40
1
 40
1
 40
1
 10
107.711290
 20
148.784080
 30
0.0
 10
157.664830
 20
151.278940
 30
0.0
 10
205.894610
 20
181.578770
 30
0.0
 10
268.147550
 20
234.875972
 30
0.0
  0
SPLINE
  5
129
100
AcDbEntity
  8
Calque_1
 62
7
100
AcDbSpline
 70
8
 71
3
 72
8
 73
4
 74
0
 40
0
 40
0
 40
0
 40
0
 40
1
 40
1
 40
1
 40
1
 10
268.147550
 20
234.875972
 30
0.0
 10
329.973190
 20
287.807468
 30
0.0
 10
388.188060
 20
303.498033
 30
0.0
 10
430.962400
 20
306.041126
 30
0.0
  0
SPLINE
  5
12a
100
AcDbEntity
  8
Calque_1
 62
7
100
AcDbSpline
 70
8
 71
3
 72
8
 73
4
 74
0
 40
0
 40
0
 40
0
 40
0
 40
1
 40
1
 40
1
 40
1
 10
430.962400
 20
306.041126
 30
0.0
 10
473.736740
 20
308.584192
 30
0.0
 10
500.891950
 20
298.002856
 30
0.0
 10
500.891950
 20
298.002856
 30
0.0
  0
LWPOLYLINE
  5
12b
100
AcDbEntity
  8
Calque_1
 62
7
100
AcDbPolyline
 90
3
 70
0
 10
-288.384540
 20
327.843426
 30
0.0
 10
-288.384540
 20
309.477609
 30
0.0
 10
-287.602170
 20
309.744785
 30
0.0
  0
SPLINE
  5
12c
100
AcDbEntity
  8
Calque_1
 62
7
100
AcDbSpline
 70
8
 71
3
 72
8
 73
4
 74
0
 40
0
 40
0
 40
0
 40
0
 40
1
 40
1
 40
1
 40
1
 10
501.615320
 20
316.136131
 30
0.0
 10
499.693130
 20
316.857702
 30
0.0
 10
472.701960
 20
326.696935
 30
0.0
 10
430.724800
 20
324.201256
 30
0.0
  0
SPLINE
  5
12d
100
AcDbEntity
  8
Calque_1
 62
7
100
AcDbSpline
 70
8
 71
3
 72
8
 73
4
 74
0
 40
0
 40
0
 40
0
 40
0
 40
1
 40
1
 40
1
 40
1
 10
430.724800
 20
324.201256
 30
0.0
 10
387.189260
 20
321.613079
 30
0.0
 10
328.018450
 20
305.566755
 30
0.0
 10
265.546170
 20
252.081645
 30
0.0
  0
SPLINE
  5
12e
100
AcDbEntity
  8
Calque_1
 62
7
100
AcDbSpline
 70
8
 71
3
 72
8
 73
4
 74
0
 40
0
 40
0
 40
0
 40
0
 40
1
 40
1
 40
1
 40
1
 10
265.546170
 20
252.081645
 30
0.0
 10
203.501190
 20
198.962216
 30
0.0
 10
155.977580
 20
169.366810
 30
0.0
 10
107.511800
 20
166.946270
 30
0.0
  0
SPLINE
  5
12f
100
AcDbEntity
  8
Calque_1
 62
7
100
AcDbSpline
 70
8
 71
3
 72
8
 73
4
 74
0
 40
0
 40
0
 40
0
 40
0
 40
1
 40
1
 40
1
 40
1
 10
107.511800
 20
166.946270
 30
0.0
 10
59.046279
 20
164.525710
 30
0.0
 10
8.990085
 20
189.184340
 30
0.0
 10
-58.339409
 20
245.803461
 30
0.0
  0
SPLINE
  5
130
100
AcDbEntity
  8
Calque_1
 62
7
100
AcDbSpline
 70
8
 71
3
 72
8
 73
4
 74
0
 40
0
 40
0
 40
0
 40
0
 40
1
 40
1
 40
1
 40
1
 10
-58.339409
 20
245.803461
 30
0.0
 10
-126.069220
 20
302.758921
 30
0.0
 10
-183.592740
 20
323.325090
 30
0.0
 10
-224.247240
 20
329.577689
 30
0.0
  0
SPLINE
  5
131
100
AcDbEntity
  8
Calque_1
 62
7
100
AcDbSpline
 70
8
 71
3
 72
8
 73
4
 74
0
 40
0
 40
0
 40
0
 40
0
 40
1
 40
1
 40
1
 40
1
 10
-224.247240
 20
329.577689
 30
0.0
 10
-234.410930
 20
331.140845
 30
0.0
 10
-243.532960
 20
331.804895
 30
0.0
 10
-251.499290
 20
331.921735
 30
0.0
  0
LWPOLYLINE
  5
132
100
AcDbEntity
  8
Calque_1
 62
7
100
AcDbPolyline
 90
3
 70
0
 10
500.891950
 20
298.002856
 30
0.0
 10
501.615320
 20
297.721737
 30
0.0
 10
501.615320
 20
316.136131
 30
0.0
  0
SPLINE
  5
133
100
AcDbEntity
  8
Calque_1
 62
7
100
AcDbSpline
 70
8
 71
3
 72
8
 73
4
 74
0
 40
0
 40
0
 40
0
 40
0
 40
1
 40
1
 40
1
 40
1
 10
-260.416530
 20
325.008975
 30
0.0
 10
-259.311890
 20
325.008896
 30
0.0
 10
-258.416540
 20
324.113256
 30
0.0
 10
-258.416810
 20
323.008569
 30
0.0
  0
SPLINE
  5
134
100
AcDbEntity
  8
Calque_1
 62
7
100
AcDbSpline
 70
8
 71
3
 72
8
 73
4
 74
0
 40
0
 40
0
 40
0
 40
0
 40
1
 40
1
 40
1
 40
1
 10
-258.416810
 20
323.008569
 30
0.0
 10
-258.416810
 20
321.904094
 30
0.0
 10
-259.312160
 20
321.008771
 30
0.0
 10
-260.416530
 20
321.008692
 30
0.0
  0
SPLINE
  5
135
100
AcDbEntity
  8
Calque_1
 62
7
100
AcDbSpline
 70
8
 71
3
 72
8
 73
4
 74
0
 40
0
 40
0
 40
0
 40
0
 40
1
 40
1
 40
1
 40
1
 10
-260.416530
 20
321.008692
 30
0.0
 10
-261.521160
 20
321.008480
 30
0.0
 10
-262.417040
 20
321.903882
 30
0.0
 10
-262.417040
 20
323.008569
 30
0.0
  0
SPLINE
  5
136
100
AcDbEntity
  8
Calque_1
 62
7
100
AcDbSpline
 70
8
 71
3
 72
8
 73
4
 74
0
 40
0
 40
0
 40
0
 40
0
 40
1
 40
1
 40
1
 40
1
 10
-262.417040
 20
323.008569
 30
0.0
 10
-262.417040
 20
324.113441
 30
0.0
 10
-261.521430
 20
325.009187
 30
0.0
 10
-260.416530
 20
325.008975
 30
0.0
  0
LWPOLYLINE
  5
137
100
AcDbEntity
  8
Calque_1
 62
7
100
AcDbPolyline
 90
1
 70
1
 10
-251.499290
 20
331.921735
 30
0.0
  0
SPLINE
  5
138
100
AcDbEntity
  8
Calque_1
 62
7
100
AcDbSpline
 70
8
 71
3
 72
8
 73
4
 74
0
 40
0
 40
0
 40
0
 40
0
 40
1
 40
1
 40
1
 40
1
 10
487.508280
 20
313.384865
 30
0.0
 10
488.612650
 20
313.384786
 30
0.0
 10
489.508000
 20
312.489463
 30
0.0
 10
489.508270
 20
311.384988
 30
0.0
  0
SPLINE
  5
139
100
AcDbEntity
  8
Calque_1
 62
7
100
AcDbSpline
 70
8
 71
3
 72
8
 73
4
 74
0
 40
0
 40
0
 40
0
 40
0
 40
1
 40
1
 40
1
 40
1
 10
489.508270
 20
311.384988
 30
0.0
 10
489.508270
 20
310.280513
 30
0.0
 10
488.612650
 20
309.385190
 30
0.0
 10
487.508280
 20
309.385111
 30
0.0
  0
SPLINE
  5
13a
100
AcDbEntity
  8
Calque_1
 62
7
100
AcDbSpline
 70
8
 71
3
 72
8
 73
4
 74
0
 40
0
 40
0
 40
0
 40
0
 40
1
 40
1
 40
1
 40
1
 10
487.508280
 20
309.385111
 30
0.0
 10
486.403920
 20
309.385190
 30
0.0
 10
485.508570
 20
310.280513
 30
0.0
 10
485.508300
 20
311.384988
 30
0.0
  0
SPLINE
  5
13b
100
AcDbEntity
  8
Calque_1
 62
7
100
AcDbSpline
 70
8
 71
3
 72
8
 73
4
 74
0
 40
0
 40
0
 40
0
 40
0
 40
1
 40
1
 40
1
 40
1
 10
485.508300
 20
311.384988
 30
0.0
 10
485.508300
 20
312.489463
 30
0.0
 10
486.403920
 20
313.384786
 30
0.0
 10
487.508280
 20
313.384865
 30
0.0
  0
LWPOLYLINE
  5
13c
100
AcDbEntity
  8
Calque_1
 62
7
100
AcDbPolyline
 90
1
 70
1
 10
-260.416530
 20
325.008975
 30
0.0
  0
SPLINE
  5
13d
100
AcDbEntity
  8
Calque_1
 62
7
100
AcDbSpline
 70
8
 71
3
 72
8
 73
4
 74
0
 40
0
 40
0
 40
0
 40
0
 40
1
 40
1
 40
1
 40
1
 10
389.097170
 20
311.342628
 30
0.0
 10
390.201800
 20
311.342549
 30
0.0
 10
391.097150
 20
310.447226
 30
0.0
 10
391.097150
 20
309.342751
 30
0.0
  0
SPLINE
  5
13e
100
AcDbEntity
  8
Calque_1
 62
7
100
AcDbSpline
 70
8
 71
3
 72
8
 73
4
 74
0
 40
0
 40
0
 40
0
 40
0
 40
1
 40
1
 40
1
 40
1
 10
391.097150
 20
309.342751
 30
0.0
 10
391.097150
 20
308.238064
 30
0.0
 10
390.202070
 20
307.342424
 30
0.0
 10
389.097170
 20
307.342345
 30
0.0
  0
SPLINE
  5
13f
100
AcDbEntity
  8
Calque_1
 62
7
100
AcDbSpline
 70
8
 71
3
 72
8
 73
4
 74
0
 40
0
 40
0
 40
0
 40
0
 40
1
 40
1
 40
1
 40
1
 10
389.097170
 20
307.342345
 30
0.0
 10
387.992530
 20
307.342398
 30
0.0
 10
387.097180
 20
308.238064
 30
0.0
 10
387.097450
 20
309.342751
 30
0.0
  0
SPLINE
  5
140
100
AcDbEntity
  8
Calque_1
 62
7
100
AcDbSpline
 70
8
 71
3
 72
8
 73
4
 74
0
 40
0
 40
0
 40
0
 40
0
 40
1
 40
1
 40
1
 40
1
 10
387.097450
 20
309.342751
 30
0.0
 10
387.097450
 20
310.447226
 30
0.0
 10
387.992800
 20
311.342575
 30
0.0
 10
389.097170
 20
311.342628
 30
0.0
  0
LWPOLYLINE
  5
141
100
AcDbEntity
  8
Calque_1
 62
7
100
AcDbPolyline
 90
1
 70
1
 10
487.508280
 20
313.384865
 30
0.0
  0
SPLINE
  5
142
100
AcDbEntity
  8
Calque_1
 62
7
100
AcDbSpline
 70
8
 71
3
 72
8
 73
4
 74
0
 40
0
 40
0
 40
0
 40
0
 40
1
 40
1
 40
1
 40
1
 10
-173.322680
 20
308.845097
 30
0.0
 10
-172.218310
 20
308.845018
 30
0.0
 10
-171.322960
 20
307.949695
 30
0.0
 10
-171.322700
 20
306.845220
 30
0.0
  0
SPLINE
  5
143
100
AcDbEntity
  8
Calque_1
 62
7
100
AcDbSpline
 70
8
 71
3
 72
8
 73
4
 74
0
 40
0
 40
0
 40
0
 40
0
 40
1
 40
1
 40
1
 40
1
 10
-171.322700
 20
306.845220
 30
0.0
 10
-171.322700
 20
305.740745
 30
0.0
 10
-172.218310
 20
304.845422
 30
0.0
 10
-173.322680
 20
304.845343
 30
0.0
  0
SPLINE
  5
144
100
AcDbEntity
  8
Calque_1
 62
7
100
AcDbSpline
 70
8
 71
3
 72
8
 73
4
 74
0
 40
0
 40
0
 40
0
 40
0
 40
1
 40
1
 40
1
 40
1
 10
-173.322680
 20
304.845343
 30
0.0
 10
-174.427320
 20
304.845131
 30
0.0
 10
-175.322930
 20
305.740533
 30
0.0
 10
-175.323190
 20
306.845220
 30
0.0
  0
SPLINE
  5
145
100
AcDbEntity
  8
Calque_1
 62
7
100
AcDbSpline
 70
8
 71
3
 72
8
 73
4
 74
0
 40
0
 40
0
 40
0
 40
0
 40
1
 40
1
 40
1
 40
1
 10
-175.323190
 20
306.845220
 30
0.0
 10
-175.323190
 20
307.949907
 30
0.0
 10
-174.427320
 20
308.845309
 30
0.0
 10
-173.322680
 20
308.845097
 30
0.0
  0
LWPOLYLINE
  5
146
100
AcDbEntity
  8
Calque_1
 62
7
100
AcDbPolyline
 90
1
 70
1
 10
389.097170
 20
311.342628
 30
0.0
  0
SPLINE
  5
147
100
AcDbEntity
  8
Calque_1
 62
7
100
AcDbSpline
 70
8
 71
3
 72
8
 73
4
 74
0
 40
0
 40
0
 40
0
 40
0
 40
1
 40
1
 40
1
 40
1
 10
-84.260870
 20
259.147361
 30
0.0
 10
-83.156236
 20
259.147572
 30
0.0
 10
-82.260623
 20
258.252171
 30
0.0
 10
-82.260623
 20
257.147484
 30
0.0
  0
SPLINE
  5
148
100
AcDbEntity
  8
Calque_1
 62
7
100
AcDbSpline
 70
8
 71
3
 72
8
 73
4
 74
0
 40
0
 40
0
 40
0
 40
0
 40
1
 40
1
 40
1
 40
1
 10
-82.260623
 20
257.147484
 30
0.0
 10
-82.260623
 20
256.042797
 30
0.0
 10
-83.156236
 20
255.147395
 30
0.0
 10
-84.260870
 20
255.147607
 30
0.0
  0
SPLINE
  5
149
100
AcDbEntity
  8
Calque_1
 62
7
100
AcDbSpline
 70
8
 71
3
 72
8
 73
4
 74
0
 40
0
 40
0
 40
0
 40
0
 40
1
 40
1
 40
1
 40
1
 10
-84.260870
 20
255.147607
 30
0.0
 10
-85.365504
 20
255.147686
 30
0.0
 10
-86.260853
 20
256.043008
 30
0.0
 10
-86.260853
 20
257.147484
 30
0.0
  0
SPLINE
  5
14a
100
AcDbEntity
  8
Calque_1
 62
7
100
AcDbSpline
 70
8
 71
3
 72
8
 73
4
 74
0
 40
0
 40
0
 40
0
 40
0
 40
1
 40
1
 40
1
 40
1
 10
-86.260853
 20
257.147484
 30
0.0
 10
-86.260853
 20
258.251959
 30
0.0
 10
-85.365504
 20
259.147281
 30
0.0
 10
-84.260870
 20
259.147361
 30
0.0
  0
LWPOLYLINE
  5
14b
100
AcDbEntity
  8
Calque_1
 62
7
100
AcDbPolyline
 90
1
 70
1
 10
-173.322680
 20
308.845097
 30
0.0
  0
SPLINE
  5
14c
100
AcDbEntity
  8
Calque_1
 62
7
100
AcDbSpline
 70
8
 71
3
 72
8
 73
4
 74
0
 40
0
 40
0
 40
0
 40
0
 40
1
 40
1
 40
1
 40
1
 10
269.035220
 20
247.830220
 30
0.0
 10
270.140120
 20
247.830432
 30
0.0
 10
271.035730
 20
246.935030
 30
0.0
 10
271.035730
 20
245.830343
 30
0.0
  0
SPLINE
  5
14d
100
AcDbEntity
  8
Calque_1
 62
7
100
AcDbSpline
 70
8
 71
3
 72
8
 73
4
 74
0
 40
0
 40
0
 40
0
 40
0
 40
1
 40
1
 40
1
 40
1
 10
271.035730
 20
245.830343
 30
0.0
 10
271.035730
 20
244.725444
 30
0.0
 10
270.140120
 20
243.829725
 30
0.0
 10
269.035220
 20
243.829937
 30
0.0
  0
SPLINE
  5
14e
100
AcDbEntity
  8
Calque_1
 62
7
100
AcDbSpline
 70
8
 71
3
 72
8
 73
4
 74
0
 40
0
 40
0
 40
0
 40
0
 40
1
 40
1
 40
1
 40
1
 10
269.035220
 20
243.829937
 30
0.0
 10
267.930590
 20
243.830016
 30
0.0
 10
267.035240
 20
244.725656
 30
0.0
 10
267.035500
 20
245.830343
 30
0.0
  0
SPLINE
  5
14f
100
AcDbEntity
  8
Calque_1
 62
7
100
AcDbSpline
 70
8
 71
3
 72
8
 73
4
 74
0
 40
0
 40
0
 40
0
 40
0
 40
1
 40
1
 40
1
 40
1
 10
267.035500
 20
245.830343
 30
0.0
 10
267.035500
 20
246.934818
 30
0.0
 10
267.930850
 20
247.830141
 30
0.0
 10
269.035220
 20
247.830220
 30
0.0
  0
LWPOLYLINE
  5
150
100
AcDbEntity
  8
Calque_1
 62
7
100
AcDbPolyline
 90
1
 70
1
 10
-84.260870
 20
259.147361
 30
0.0
  0
SPLINE
  5
151
100
AcDbEntity
  8
Calque_1
 62
7
100
AcDbSpline
 70
8
 71
3
 72
8
 73
4
 74
0
 40
0
 40
0
 40
0
 40
0
 40
1
 40
1
 40
1
 40
1
 10
7.261565
 20
189.915910
 30
0.0
 10
8.366199
 20
189.915830
 30
0.0
 10
9.261547
 20
189.020510
 30
0.0
 10
9.261547
 20
187.916030
 30
0.0
  0
SPLINE
  5
152
100
AcDbEntity
  8
Calque_1
 62
7
100
AcDbSpline
 70
8
 71
3
 72
8
 73
4
 74
0
 40
0
 40
0
 40
0
 40
0
 40
1
 40
1
 40
1
 40
1
 10
9.261547
 20
187.916030
 30
0.0
 10
9.261547
 20
186.811560
 30
0.0
 10
8.366199
 20
185.916240
 30
0.0
 10
7.261565
 20
185.916160
 30
0.0
  0
SPLINE
  5
153
100
AcDbEntity
  8
Calque_1
 62
7
100
AcDbSpline
 70
8
 71
3
 72
8
 73
4
 74
0
 40
0
 40
0
 40
0
 40
0
 40
1
 40
1
 40
1
 40
1
 10
7.261565
 20
185.916160
 30
0.0
 10
6.157195
 20
185.916240
 30
0.0
 10
5.261846
 20
186.811560
 30
0.0
 10
5.261846
 20
187.916030
 30
0.0
  0
SPLINE
  5
154
100
AcDbEntity
  8
Calque_1
 62
7
100
AcDbSpline
 70
8
 71
3
 72
8
 73
4
 74
0
 40
0
 40
0
 40
0
 40
0
 40
1
 40
1
 40
1
 40
1
 10
5.261846
 20
187.916030
 30
0.0
 10
5.261846
 20
189.020510
 30
0.0
 10
6.157195
 20
189.915830
 30
0.0
 10
7.261565
 20
189.915910
 30
0.0
  0
LWPOLYLINE
  5
155
100
AcDbEntity
  8
Calque_1
 62
7
100
AcDbPolyline
 90
1
 70
1
 10
269.035220
 20
247.830220
 30
0.0
  0
SPLINE
  5
156
100
AcDbEntity
  8
Calque_1
 62
7
100
AcDbSpline
 70
8
 71
3
 72
8
 73
4
 74
0
 40
0
 40
0
 40
0
 40
0
 40
1
 40
1
 40
1
 40
1
 10
172.100740
 20
178.561570
 30
0.0
 10
173.205110
 20
178.561490
 30
0.0
 10
174.100460
 20
177.666170
 30
0.0
 10
174.100460
 20
176.561690
 30
0.0
  0
SPLINE
  5
157
100
AcDbEntity
  8
Calque_1
 62
7
100
AcDbSpline
 70
8
 71
3
 72
8
 73
4
 74
0
 40
0
 40
0
 40
0
 40
0
 40
1
 40
1
 40
1
 40
1
 10
174.100460
 20
176.561690
 30
0.0
 10
174.100460
 20
175.457220
 30
0.0
 10
173.205110
 20
174.561900
 30
0.0
 10
172.100740
 20
174.561820
 30
0.0
  0
SPLINE
  5
158
100
AcDbEntity
  8
Calque_1
 62
7
100
AcDbSpline
 70
8
 71
3
 72
8
 73
4
 74
0
 40
0
 40
0
 40
0
 40
0
 40
1
 40
1
 40
1
 40
1
 10
172.100740
 20
174.561820
 30
0.0
 10
170.996110
 20
174.561600
 30
0.0
 10
170.100230
 20
175.457010
 30
0.0
 10
170.100230
 20
176.561690
 30
0.0
  0
SPLINE
  5
159
100
AcDbEntity
  8
Calque_1
 62
7
100
AcDbSpline
 70
8
 71
3
 72
8
 73
4
 74
0
 40
0
 40
0
 40
0
 40
0
 40
1
 40
1
 40
1
 40
1
 10
170.100230
 20
176.561690
 30
0.0
 10
170.100230
 20
177.666380
 30
0.0
 10
170.996110
 20
178.561780
 30
0.0
 10
172.100740
 20
178.561570
 30
0.0
  0
LWPOLYLINE
  5
15a
100
AcDbEntity
  8
Calque_1
 62
7
100
AcDbPolyline
 90
1
 70
1
 10
7.261565
 20
189.915910
 30
0.0
  0
SPLINE
  5
15b
100
AcDbEntity
  8
Calque_1
 62
7
100
AcDbSpline
 70
8
 71
3
 72
8
 73
4
 74
0
 40
0
 40
0
 40
0
 40
0
 40
1
 40
1
 40
1
 40
1
 10
88.450975
 20
160.773520
 30
0.0
 10
89.555609
 20
160.773440
 30
0.0
 10
90.450958
 20
159.877800
 30
0.0
 10
90.450958
 20
158.773120
 30
0.0
  0
SPLINE
  5
15c
100
AcDbEntity
  8
Calque_1
 62
7
100
AcDbSpline
 70
8
 71
3
 72
8
 73
4
 74
0
 40
0
 40
0
 40
0
 40
0
 40
1
 40
1
 40
1
 40
1
 10
90.450958
 20
158.773120
 30
0.0
 10
90.450958
 20
157.668640
 30
0.0
 10
89.555344
 20
156.773320
 30
0.0
 10
88.450975
 20
156.773240
 30
0.0
  0
SPLINE
  5
15d
100
AcDbEntity
  8
Calque_1
 62
7
100
AcDbSpline
 70
8
 71
3
 72
8
 73
4
 74
0
 40
0
 40
0
 40
0
 40
0
 40
1
 40
1
 40
1
 40
1
 10
88.450975
 20
156.773240
 30
0.0
 10
87.346605
 20
156.773320
 30
0.0
 10
86.451257
 20
157.668640
 30
0.0
 10
86.450992
 20
158.773120
 30
0.0
  0
SPLINE
  5
15e
100
AcDbEntity
  8
Calque_1
 62
7
100
AcDbSpline
 70
8
 71
3
 72
8
 73
4
 74
0
 40
0
 40
0
 40
0
 40
0
 40
1
 40
1
 40
1
 40
1
 10
86.450992
 20
158.773120
 30
0.0
 10
86.450992
 20
159.877800
 30
0.0
 10
87.346341
 20
160.773440
 30
0.0
 10
88.450975
 20
160.773520
 30
0.0
  0
LWPOLYLINE
  5
15f
100
AcDbEntity
  8
Calque_1
 62
7
100
AcDbPolyline
 90
1
 70
1
 10
172.100740
 20
178.561570
 30
0.0
  0
LWPOLYLINE
  5
160
100
AcDbEntity
  8
Calque_1
 62
7
100
AcDbPolyline
 90
1
 70
1
 10
88.450975
 20
160.773520
 30
0.0
  0
ENDSEC
  0
SECTION
  2
OBJECTS
  0
DICTIONARY
  5
C
330
0
100
AcDbDictionary
  3
ACAD_GROUP
350
D
  3
ACAD_MLINESTYLE
350
17
  0
DICTIONARY
  5
D
330
C
100
AcDbDictionary
  0
DICTIONARY
  5
1A
330
C
100
AcDbDictionary
  0
DICTIONARY
  5
17
330
C
100
AcDbDictionary
  3
STANDARD
350
18
  0
DICTIONARY
  5
19
330
C
100
AcDbDictionary
  0
ENDSEC
  0
EOF
